<svg width="40" height="40" viewBox="0 0 40 40" fill="none" xmlns="http://www.w3.org/2000/svg">
<circle cx="20" cy="20" r="20" fill="url(#paint0_linear_25_4583)"/>
<path fill-rule="evenodd" clip-rule="evenodd" d="M33.995 23.8888V23.9492C33.995 24.0096 33.995 24.0549 33.9648 24.1002V24.1606C33.9333 24.5702 33.9018 24.8703 33.8855 25.0252C33.8784 25.093 33.8742 25.133 33.8742 25.1422V25.1422C33.8742 25.1875 33.8742 25.2479 33.8591 25.3083V25.3536C33.8525 25.3932 33.843 25.4357 33.8331 25.4799C33.8205 25.5367 33.8072 25.5962 33.7987 25.6557C33.7836 25.6708 33.7836 25.6859 33.7836 25.701C33.5269 26.9242 32.8473 28.2682 32.0016 29.28C31.6694 29.6727 31.322 30.02 30.9596 30.2918C30.9294 30.322 30.5065 30.6241 29.8421 31.0922C29.0719 31.6208 27.9695 32.3457 26.716 33.0856C24.5969 34.3254 22.6842 35.2211 22.2915 35.405C22.2729 35.4138 22.2576 35.4209 22.246 35.4264C22.246 35.4415 22.2309 35.4415 22.2309 35.4415C21.657 35.6982 20.9321 35.8794 20.162 35.9549C20.011 35.97 19.8599 35.9851 19.7089 35.9851C19.573 36.0002 19.4371 36.0002 19.3012 36.0002H19.0898C18.0628 35.97 17.0963 35.7737 16.3564 35.4415C16.3374 35.4306 16.2619 35.3945 16.1383 35.3352C15.5738 35.0647 14.0054 34.313 12.2336 33.2971C12.0977 33.2366 11.9769 33.1611 11.8561 33.0856C9.53046 31.7114 7.68806 30.3522 7.61256 30.2918C7.0387 29.869 6.52524 29.3253 6.05709 28.6307C5.95138 28.4797 5.95138 28.087 6.40443 28.087H7.56725C7.91265 28.087 8.07669 28.2321 8.33088 28.4569C8.44344 28.5565 8.57368 28.6716 8.74518 28.7968C8.7973 28.8349 8.8536 28.8764 8.91435 28.9211C9.57515 29.4077 10.7619 30.2816 12.8226 31.4849C14.363 32.391 15.8127 33.1158 16.5829 33.4179H16.598C16.6095 33.4236 16.6189 33.4272 16.6268 33.4302C16.6397 33.4352 16.6491 33.4387 16.6584 33.4481C16.666 33.4481 16.6735 33.4518 16.6811 33.4556C16.6886 33.4594 16.6962 33.4632 16.7037 33.4632C16.7113 33.4632 16.715 33.4669 16.7188 33.4707C16.7226 33.4745 16.7264 33.4783 16.7339 33.4783C16.7415 33.4858 16.749 33.4896 16.7566 33.4934C16.7641 33.4971 16.7717 33.5009 16.7792 33.5085C16.7868 33.516 16.7981 33.5198 16.8094 33.5236C16.8207 33.5274 16.8321 33.5311 16.8396 33.5387C17.0359 33.6293 17.1417 33.6746 17.1417 33.6746C17.6551 33.9162 18.38 34.0521 19.1502 34.0672H19.4522C19.6787 34.0672 19.9052 34.0521 20.1167 34.0219C20.5848 33.9615 21.0077 33.8558 21.355 33.7199C21.3701 33.7123 21.389 33.7048 21.4078 33.6973C21.4267 33.6897 21.4456 33.6821 21.4607 33.6746L21.5211 33.6444C21.8533 33.4934 23.741 32.6175 25.7798 31.4094C26.9728 30.6996 28.0601 29.9898 28.8001 29.4764C29.1773 29.2132 29.4679 29.001 29.6481 28.8693C29.7782 28.7743 29.8508 28.7213 29.8572 28.7213C30.1441 28.5099 30.431 28.2229 30.7029 27.8756C31.3824 26.9997 31.9412 25.8067 32.0318 24.8855C32.0318 24.8855 32.0771 24.5079 32.1224 23.8888C32.1375 23.8586 32.1375 23.8133 32.1375 23.768V23.768V23.6774C32.1375 23.6471 32.1413 23.6207 32.1451 23.5943C32.1488 23.5679 32.1526 23.5414 32.1526 23.5112V23.4508C32.1677 23.4206 32.1677 23.3904 32.1677 23.3451V23.3451C32.1677 23.3074 32.1715 23.2696 32.1753 23.2319C32.179 23.1941 32.1828 23.1563 32.1828 23.1186C32.1979 23.0733 32.1979 23.028 32.1979 22.9827V22.9525C32.213 22.8921 32.213 22.8468 32.213 22.7864V22.7864V22.6655C32.2583 21.8803 32.2885 20.944 32.2885 19.9624C32.2885 18.9808 32.2583 18.0445 32.213 17.2592V17.1384C32.1979 17.078 32.1979 17.0327 32.1979 16.9723V16.9723V16.942C32.1828 16.8967 32.1828 16.8514 32.1828 16.8061C32.1828 16.7684 32.179 16.7306 32.1753 16.6929C32.1715 16.6551 32.1677 16.6174 32.1677 16.5796C32.1526 16.5494 32.1526 16.5041 32.1526 16.4739V16.4135C32.1526 16.3833 32.1488 16.3569 32.1451 16.3304C32.1413 16.304 32.1375 16.2776 32.1375 16.2474V16.1568C32.1224 16.1115 32.1224 16.0813 32.1224 16.036C32.0868 15.5498 32.0513 15.222 32.0376 15.0962C32.0339 15.0618 32.0318 15.0425 32.0318 15.0393C31.9412 14.1181 31.3824 12.925 30.7029 12.0491C30.431 11.7169 30.1441 11.4149 29.8572 11.2035C29.8421 11.1883 29.4494 10.9014 28.8001 10.4484C28.0601 9.93492 26.9879 9.22514 25.7798 8.51537C23.741 7.32235 21.8684 6.43135 21.5211 6.28034C21.4758 6.26524 21.4607 6.25013 21.4607 6.25013C21.4456 6.24258 21.4267 6.23503 21.4078 6.22748C21.389 6.21993 21.3701 6.21238 21.355 6.20483C21.0077 6.05381 20.5848 5.9632 20.1167 5.9028C19.9052 5.8726 19.6787 5.85749 19.4522 5.85749H19.1502C18.38 5.8726 17.6551 6.02361 17.1417 6.25013C17.1417 6.25013 17.0208 6.29544 16.8396 6.38605C16.8321 6.38605 16.8245 6.38982 16.817 6.3936C16.8094 6.39737 16.8019 6.40115 16.7943 6.40115C16.7943 6.40115 16.7792 6.41625 16.7641 6.41625C16.7641 6.43135 16.749 6.43135 16.749 6.43135C16.749 6.44646 16.7339 6.44646 16.7339 6.44646C16.7264 6.44646 16.7188 6.45023 16.7113 6.45401C16.7037 6.45778 16.6962 6.46156 16.6886 6.46156C15.9486 6.80889 14.4385 7.56397 12.8226 8.51537C10.6604 9.80102 9.44511 10.6909 8.80762 11.1577C8.78615 11.1735 8.76534 11.1887 8.74518 11.2035C8.57368 11.3286 8.44344 11.4438 8.33088 11.5433C8.07669 11.7681 7.91265 11.9132 7.56725 11.9132H6.40443C5.95138 11.9132 5.95138 11.5206 6.05709 11.3696C6.52524 10.6749 7.0387 10.1312 7.61256 9.7084C7.68806 9.64799 9.51536 8.28885 11.8561 6.9146L11.9467 6.8693C14.227 5.52526 16.2356 4.60406 16.3413 4.55876C17.0963 4.21142 18.0477 4.0302 19.0747 4H19.2861C19.422 4 19.5579 4 19.7089 4.0151C19.8599 4.0151 20.011 4.0302 20.162 4.0453C20.9321 4.12081 21.6419 4.30203 22.2309 4.55876C22.2309 4.55876 22.2309 4.57386 22.246 4.57386C22.5178 4.67957 24.4961 5.60077 26.7311 6.9146C27.9846 7.63948 29.087 8.37946 29.8572 8.90801C30.5216 9.37616 30.9445 9.67819 30.9747 9.7084C31.3371 9.98022 31.6845 10.3276 32.0167 10.7202C32.8624 11.732 33.542 13.076 33.7987 14.2993C33.8138 14.3144 33.8138 14.3295 33.8138 14.3446C33.844 14.4503 33.8591 14.5409 33.8742 14.6466V14.6919C33.8742 14.7129 33.8774 14.7372 33.8809 14.7632C33.885 14.7933 33.8893 14.8257 33.8893 14.858C33.9044 14.8882 33.9346 15.2507 33.9799 15.8396V15.9C33.9799 15.9302 33.9837 15.9567 33.9875 15.9831C33.9912 16.0095 33.995 16.036 33.995 16.0662V16.1266C34.0101 16.1568 34.0101 16.2021 34.0101 16.2323C34.0554 16.791 34.0856 17.4857 34.1158 18.2559V18.3163C34.1309 18.8448 34.146 19.4187 34.146 20.0077C34.146 20.5966 34.1309 21.1705 34.1158 21.699V21.7595C34.0856 22.5447 34.0554 23.2243 34.0101 23.7831C33.995 23.8133 33.995 23.8586 33.995 23.8888ZM10.1496 14.1937C8.76029 14.1937 8.21664 14.7977 8.21664 16.323C8.21664 17.8785 8.76029 18.4825 10.1496 18.4825C11.5541 18.4825 12.0977 17.8785 12.0977 16.323C12.0977 14.7826 11.5541 14.1937 10.1496 14.1937ZM10.1496 17.5915C9.51537 17.5915 9.31905 17.4254 9.31905 16.3381C9.31905 15.1904 9.53047 15.0847 10.1496 15.0847C10.7839 15.0847 10.9953 15.1904 10.9953 16.3381C10.9953 17.4254 10.799 17.5915 10.1496 17.5915ZM15.9637 17.4254C15.9637 17.4103 15.9486 17.3952 15.9335 17.3952H15.8882C15.6466 17.4858 15.2087 17.5462 14.9066 17.5462C14.2271 17.5462 13.9099 17.365 13.9099 16.3381C13.9099 15.5075 14.0156 15.13 14.9066 15.13C15.1634 15.13 15.3899 15.1602 15.6919 15.2508C15.7221 15.2508 15.7372 15.2508 15.7523 15.2206C15.7851 15.155 15.8209 15.085 15.859 15.0102L15.8591 15.0101C15.9439 14.8439 16.0408 14.654 16.145 14.4353V14.39C16.145 14.3749 16.1299 14.3598 16.1148 14.3598C15.7221 14.239 15.254 14.1635 14.8311 14.1635C13.4267 14.1635 12.7924 14.8279 12.7924 16.323C12.7924 17.8332 13.4267 18.5127 14.8311 18.5127C15.1785 18.5127 15.8882 18.4372 16.2205 18.3013C16.2507 18.2862 16.2658 18.256 16.2507 18.2258L15.9637 17.4254ZM7.9146 14.2994H5.06041C5.0302 14.2994 5 14.3296 5 14.3598V18.3315C5 18.3617 5.0302 18.3919 5.06041 18.3919H6.02691C6.05711 18.3919 6.08731 18.3617 6.08731 18.3315V15.2508H7.56727C7.58237 15.2508 7.61257 15.2357 7.61257 15.2206C7.68303 15.0621 7.74835 14.8984 7.81452 14.7326L7.81454 14.7325C7.86183 14.6141 7.90956 14.4945 7.95991 14.3749V14.3296C7.94481 14.3145 7.92971 14.2994 7.9146 14.2994ZM16.9606 20.2961H14.0007C13.9705 20.2961 13.9554 20.3112 13.9403 20.3414C13.8648 21.6854 13.608 23.1201 13.2456 24.298C13.2456 24.3131 13.2456 24.3282 13.2607 24.3433C13.2758 24.3584 13.2909 24.3584 13.306 24.3584H14.3178C14.348 24.3584 14.3631 24.3433 14.3631 24.3282C14.65 23.4221 14.8766 22.2442 14.9672 21.2475H15.9337V24.3131C15.9337 24.3433 15.9639 24.3735 15.9941 24.3735H16.9606C16.9908 24.3735 17.021 24.3433 17.021 24.3131V20.3414C17.021 20.3112 16.9908 20.2961 16.9606 20.2961ZM29.4798 20.2961H28.5133C28.4831 20.2961 28.4529 20.3263 28.4529 20.3565V23.4221C28.2415 23.4825 28.03 23.5127 27.7884 23.5127C27.1541 23.5127 27.0031 23.3164 27.0031 22.4707V20.3565C27.0031 20.3263 26.9729 20.2961 26.9427 20.2961H25.9913C25.9611 20.2961 25.9309 20.3263 25.9309 20.3565V22.5764C25.9309 23.9658 26.3991 24.4943 27.5921 24.4943C28.2717 24.4943 29.0418 24.3131 29.4949 24.147C29.51 24.1319 29.5251 24.1168 29.5251 24.1017V20.3565C29.5402 20.3112 29.51 20.2961 29.4798 20.2961ZM9.00205 20.2961H8.02045C7.99024 20.2961 7.97514 20.3112 7.97514 20.3414C7.82413 20.9454 7.50699 21.9723 7.08415 23.0446L6.10255 20.3414C6.08744 20.3263 6.07234 20.3112 6.05724 20.3112H5.06054C5.04544 20.3112 5.03033 20.3263 5.01523 20.3414C5.00013 20.3565 5.00013 20.3716 5.01523 20.3867L6.49519 24.4339C6.34417 24.751 6.20826 25.0078 6.07234 25.2494C5.96664 25.4306 5.87604 25.6118 5.78545 25.793L5.78541 25.793C5.77031 25.8081 5.77031 25.8232 5.78541 25.8383C5.80051 25.8535 5.81562 25.8686 5.83072 25.8686H6.90293C6.91803 25.8686 6.94823 25.8535 6.94823 25.8383C7.12945 25.491 7.35598 25.0078 7.5674 24.5094C8.20166 23.0295 8.70002 21.6401 9.07756 20.3716C9.07756 20.3565 9.07756 20.3414 9.06245 20.3263C9.03225 20.2961 9.01715 20.2961 9.00205 20.2961ZM12.5207 23.4221C12.5207 23.407 12.5056 23.3919 12.4905 23.3919H12.4452C12.2036 23.4825 11.7656 23.5429 11.4636 23.5429C10.784 23.5429 10.4669 23.3617 10.4669 22.3348C10.4669 21.5042 10.5726 21.1267 11.4636 21.1267C11.7203 21.1267 11.9469 21.1569 12.2489 21.2475C12.2791 21.2475 12.2942 21.2475 12.3093 21.2173C12.3421 21.1516 12.3778 21.0816 12.416 21.0068C12.5008 20.8406 12.5978 20.6507 12.7019 20.432V20.3867C12.7019 20.3716 12.6868 20.3565 12.6717 20.3565C12.2791 20.2357 11.8109 20.1602 11.3881 20.1602C9.98365 20.1602 9.34938 20.8246 9.34938 22.3197C9.34938 23.8298 9.98365 24.5094 11.3881 24.5094C11.7354 24.5094 12.4452 24.4339 12.7774 24.298C12.8076 24.2829 12.8227 24.2527 12.8076 24.2225L12.5207 23.4221ZM21.7176 20.2961H20.736C20.7058 20.2961 20.6907 20.3112 20.6907 20.3414C20.5397 20.9605 20.2225 21.9723 19.7997 23.0446L18.8181 20.3414C18.803 20.3263 18.7879 20.3112 18.7728 20.3112H17.7761C17.761 20.3112 17.7459 20.3263 17.7308 20.3414C17.7157 20.3565 17.7157 20.3716 17.7308 20.3867L19.2107 24.4339C19.0597 24.751 18.9238 25.0078 18.7879 25.2494C18.6822 25.4306 18.5915 25.6118 18.5009 25.8081C18.4858 25.8232 18.4858 25.8383 18.5009 25.8534C18.516 25.8686 18.5311 25.8837 18.5462 25.8837H19.6185C19.6336 25.8837 19.6638 25.8686 19.6638 25.8534C19.845 25.5061 20.0715 25.0229 20.2829 24.5245C20.9021 23.0446 21.4155 21.6552 21.7931 20.3867C21.7931 20.3716 21.7931 20.3565 21.778 20.3414C21.7478 20.2961 21.7327 20.2961 21.7176 20.2961ZM25.342 20.2961H22.4878C22.4576 20.2961 22.4273 20.3263 22.4273 20.3565V24.3282C22.4273 24.3584 22.4576 24.3886 22.4878 24.3886H23.4543C23.4845 24.3886 23.5147 24.3584 23.5147 24.3282V21.2626H25.0097C25.0248 21.2626 25.055 21.2475 25.055 21.2324C25.1255 21.0738 25.1908 20.9102 25.257 20.7444L25.257 20.7444L25.257 20.7442C25.3043 20.6257 25.352 20.5062 25.4024 20.3867V20.3414C25.3722 20.2961 25.3571 20.2961 25.342 20.2961Z" fill="white"/>
<defs>
<linearGradient id="paint0_linear_25_4583" x1="19.9993" y1="0" x2="19.9993" y2="40.0345" gradientUnits="userSpaceOnUse">
<stop offset="0.398" stop-color="#1466AC"/>
<stop offset="0.659" stop-color="#EF4058"/>
</linearGradient>
</defs>
</svg>
