<svg width="120" height="120" fill="none" xmlns="http://www.w3.org/2000/svg"><path fill="#5C5242" d="M0 0h120v120H0z"/><path fill-rule="evenodd" clip-rule="evenodd" d="M58.53 99.896C36.142 99.892 17.992 81.558 18 58.942 18.006 36.32 36.164 17.992 58.55 18c22.394.004 40.544 18.34 40.54 40.96-.008 22.62-18.164 40.942-40.56 40.936Zm21.604-64.532c-.12-3.772-1.386-5.76-6-9.9 0 0-.06.766.06 1.206 0 0-1.444-1.662-4.804-2.482 0 0 .376-1.502.476-2.404.066-.696-.464-1.424-1.62-1.148-1.234.282-5.586 1.916-7.11 2.296-1.526.376-11.518 3.86-17.556 9.68 0 0 1.288-3.626 4.24-7.37a33 33 0 0 0-6.276 2.44c-3.226 4.402-7.27 13.068-7.272 20.36 0 0-1.94-5.99-.324-15.194-2.104 1.88-3.92 3.9-5.526 6.204-.38 5.176-.418 12.048 3.754 21.634 0 0-4.208-3.068-8.054-13.374a35.803 35.803 0 0 0-2.12 10.494c3.422 6.328 8.566 12.65 18.9 18.314 0 0-8.484-1.256-18.064-8.532a35.547 35.547 0 0 0 4.49 10.98c5.216 2.292 13.292 5.254 24.87 4.592 0 0-6.262 3.57-19.076 2.51 0 0 2.222 2.782 8.114 5.634 5.34 2.572 12.26.964 14.59-.58 2.774-1.86 5.802-6.412 4.344-12.118 0 0-1.132 2.216-3.894 3.072 0 0 2.188-1.728 2.188-4.886 0-3.164-2.576-5.292-5.79-5.564-2.56-.216-6.832.102-8.158.102-1.326 0-3.126 0-4.368-1.54 0 0 1.798-.06 3.7-.48 1.536-.326 4.752-1.532 6.648-1.438 0 0-.668-.88-2.192-.858-.936.008-1.138.316-1.8.494-.88.216-2.482.286-3.406-1.504 0 0 1.328 1.04 2.456.72.962-.26 1.05-.668 1.42-.952.394-.296 1.09-.54 1.748-.54.664 0 1.3.15 1.868.64.576.468 1.71.38 1.04-.298-.66-.662-1.608-1.328-3.026-1.34-2.42-.03-6.738.48-8.26 1.254-1.056.53-1.874 1.218-2.264 1.7-.134.172-.424.18-.412-.124.074-1.494.684-5.512 2.54-7.228 1.94-1.796 6.98-3.08 8.962-3.456 0 0-.496-1.168.08-1.92.87-1.088 3.686-3.126 20.384-3.122 0 0-.912.726-1.302 1.306 0 0 6.514.362 10.16 2.208.564.278 1.712.38 2.084-2.204l-1.04-.672s.094-.388.192-.86c.1-.484 0-.582-.378-.388-.374.194-.476.386-.476.386s-.944.38-1.046-.188c-.096-.578-1.144-2.02-3.224-2.306 0 0 1.05-1.44 3.444-1.106 0 0 .196.698.696.5.514-.194 1.204-.64 1.266-.06.072.58.314 1.524 1.642.06 0 0 1.338.704 2.536.256 1.2-.45 2.06-1.22 2.336-3.192.074-.442.074-.58.392-.956.308-.382.556-.928-.014-1.404-.752-.64-3.094-1.976-4.044-2.496-.95-.514-2.59-1.082-2.724-4.86v.002Zm-22.204 6.64c.644-.254.826.314.704.708-.608 1.826-1.46 4.534-1.14 5.752.308 1.204 3.28 1.908 3.28 1.908-.56.06-3.776.216-4.558.39-.77.174-2.016.31-1.76-1.212.304-1.854 1.256-5.18 1.256-5.18-.878.256-2.714 1.14-3.346 1.532-.636.386-.814.308-.636-.13 2.572-6.026 7.98-12.456 11.262-15.14l.064.194c-4.3 4.98-7.09 11.886-7.09 11.886.456-.268 1.34-.458 1.964-.706v-.002Zm9.484-18.5c-.77.92-1.746 2.528-1.88 3.1-.13.55-.068.7.28.838.35.146.35.5-.148.562-.91.131-1.805.344-2.676.636-.872.312-1.002-.218-.802-.566 1.674-2.8 4.106-4.288 4.674-4.64.552-.35.746-.176.552.068v.002Zm10.84 13.468c-.132.844-.556.906-1.188.564-.616-.36-.832-.496-1.176-.564-.352-.068-.698.066-.416.564.28.496.76 1.896.55 2.88 0 0-1.55-3.012-3.404-4.5-1.138-.924 1.004-.68 1.462-.634 1.46.15 1.608.346 2.08.502.466.12 1.47.376 1.828-2.4.03-.134.188-.092.2.02.154 1.334.188 2.84.066 3.568h-.002Zm-4.168 37.226a188.692 188.692 0 0 0-2.308-2.744c1.338.78 3.854 1.162 3.854 1.162-.68-.582-2.262-2.498-2.906-3.26-1.756-2.14-4.806-4.526-7.084-5.56-4.458-2.04-9.104-2.316-9.74-2.436-.634-.116-1.96.12-1.132-1.144.82-1.274 5.626-5.046 5.626-5.046-1.01-.002-5.442.372-6.768.57-1.326.184-1.642-.254-1.7-1.16 0 0-2.684 2.552-1.408 3.84.2.194.77.26 1.462-.062.694-.314 2.098-.776 2.596-.82 0 0-1.136 1.78-1.392 2.546-.252.776-.316 1.16.88 1.53 1.2.384 7.274 2.304 11.012 4.862 3.726 2.56 7.584 5.82 10.434 11.814 2.844 6.016 1.288 10.58.834 11.414a34.915 34.915 0 0 0 5.64-4.528l-.036.026c-1.486-5.026-5.59-8.232-7.864-11.004ZM87.51 78.15a34.058 34.058 0 0 0 2.764-5.664v-.014c-3.66-3.004-10.072-8.356-17.928-10.206 0 0 11.186 4.516 15.164 15.884Zm-26.1 16.946a37.567 37.567 0 0 0 6.878-1.518l.024-.018c1.204-2.81 2.52-9.512 1.122-14.69 0 0 .264 12.2-8.024 16.226Zm26.63-40.048c-2.08.57-5.246.828-7.914.446 0 0 6.152 2.674 12.252 8.534v-.056c.176-1.422.264-2.864.25-4.328a2.437 2.437 0 0 0 0-.474c-1.07-.444-7.69-2.34-7.69-2.34 2.228-.124 3.102-1.78 3.102-1.78v-.002Z" fill="#fff"/></svg>