<svg width="120" height="120" fill="none" xmlns="http://www.w3.org/2000/svg"><path fill-rule="evenodd" clip-rule="evenodd" d="M0 120h120V0H0v120Z" fill="#AB985C"/><path fill-rule="evenodd" clip-rule="evenodd" d="M69.445 20.285c-.144 4.566-.36 38.572.27 40.422 1.603 4.7 9.976 6.212 9.961-3.51-.006-3.964-.198-17.407.031-20.279 1.05.273 4.772 4.759 5.57 5.951 14.047 20.988-1.114 47.523-24.764 47.919-14.376.24-24.653-8.974-28.805-18.847-2.57-6.112-3.146-13.646-1.135-20.41.959-3.225 2.169-5.613 3.828-8.199.857-1.334 4.308-5.762 5.555-6.177.243 1.602.067 17.081.063 20.041-.006 3.612.56 5.869 3.451 6.865 3.177 1.094 5.802-1.184 6.507-3.318.48-1.45.492-36.71.222-40.418-3.533.136-10.714 4.13-13.125 5.723-3.856 2.546-7.353 5.864-9.93 9.347-20.79 28.104-.254 65.822 32.916 65.83 34.242.009 53.138-39.332 32.768-65.91a41.719 41.719 0 0 0-9.95-9.332c-2.332-1.567-10.186-5.776-13.432-5.698Z" fill="#FDFDFD"/><path fill-rule="evenodd" clip-rule="evenodd" d="M64.96 18.957c-12.597-1.338-10.187 4.683-10.177 17.37v20.87c-.004 2.683-.05 4.005 1.505 5.585 2.844 2.889 7.711 1.373 8.59-2.332.51-2.15.151-10.872.152-13.688.001-4.25.257-25.542-.07-27.805Zm-5.685 3.374c-1.974.783-.884 3.937 1.373 3.063 1.8-.696.985-3.998-1.373-3.063Z" fill="#FDFDFD"/></svg>