<svg width="120" height="120" fill="none" xmlns="http://www.w3.org/2000/svg"><path fill-rule="evenodd" clip-rule="evenodd" d="M64.925 61.44c-1.668-5.217-7.048-3.654-10.53-4.002l-.044-3.456 9.532-.045.017-3.732c-.242-.216.41-.2-.453-.17l-13.287.003-.058 19.873c6.532.572 16.97.89 14.823-8.47Zm-10.572 4.574c.948.111 3.308.112 4.262-.001 3.001-.358 2.814-4.159.108-4.635-.762-.134-3.574-.138-4.346-.025l-.024 4.66Z" fill="#008455"/><path fill-rule="evenodd" clip-rule="evenodd" d="m22.34 57.486-6.355-.022.014-7.358-4.24-.005-.02 19.814 4.237-.02.03-8.502 6.33.001.012 8.524 4.138-.02.039-19.803-4.124-.002-.062 7.393ZM45.04 62.921l-4.075-.007c-.631 1.216-.291 2.016-1.526 2.983-2.128 1.666-6.708 1.035-6.717-5.672-.004-2.929.628-5.612 2.731-6.56 1.488-.67 3.82-.386 4.782 1.441.14.265.223.496.325.868.304 1.103-.357.831 4.297.83-.192-5.15-4.468-8.176-9.821-7.123-4.837.951-6.845 5.055-6.857 10.544-.013 5.816 2.024 9.415 7.245 10.174 5.539.805 9.304-2.369 9.617-7.477Z" fill="#FED500"/><path fill-rule="evenodd" clip-rule="evenodd" d="M67.112 60.134h3.53l.183-.488c.057-.195.054-.28.12-.48.553-1.701 3.461-1.752 4.12-.363.307.647.295 1.561-.024 2.079-1.164 1.342-9.07-.257-8.512 5.945.344 3.809 4.458 4.144 6.83 3.158 1.26-.524 1.3-.813 2.052-1.468l.378 1.38 3.964.006c-.122-.959-.715.37-.682-3.383.034-3.885.72-8.664-1.682-10.495-1.846-1.409-9.954-2.607-10.277 4.11Zm8.14 2.968c-.625.201-.859.386-1.645.539-.667.13-1.279.197-1.927.473-1.201.51-1.742 2.124-.71 2.982 1.021.851 4.537.99 4.282-3.994ZM81.085 69.884l3.864.016.005-6.006 4.706-.07.02 6.08 3.82-.003.056-14.38-3.886-.019-.003 5.425-4.705.01-.007-5.435-3.87.003v14.38ZM95.568 69.903l3.756-.005.045-6.236 4.298 6.23 4.415.012c-.273-.797-5.183-7.006-5.46-7.71.681-.887 4.854-5.902 5.212-6.67l-4.217-.014c-1.28 1.774-2.709 4.237-4.251 5.708l-.006-5.69-3.787-.032-.005 14.407Z" fill="#008455"/></svg>