<svg width="120" height="120" fill="none" xmlns="http://www.w3.org/2000/svg"><path fill-rule="evenodd" clip-rule="evenodd" d="M50.573 36.908c-2.615.466-6.817 3.474-8.432 5.392-1.724 2.05-5.194 2.3-7.771 3.3-1.342.603-2.329 1.082-3.53 1.992-1.575 1.194-2.992 2.432-4.107 4.233-.48.776-1.7 2.83-1.82 3.783.863.358 7.292.146 8.736.16.504.005 1.728-.077 1.916-.059 2.099.203 4.342-.072 6.64.114-.195-.216.193-.047-.272-.24.23-.82.03-1.057.052-1.956.089-3.717.284-4.704 3.248-4.69.599.002 1.475-.043 1.948-.02 3.162.146 10.456-.135 12.742.09-.1.285-.65.846-.946 1.259-1.3 1.813-3.435 4.188-4.618 5.807-.254.348-.286.355-.59.666l-1.813 2.258c-.075.112-.06.085-.114.186-.086.16-.034.052-.094.204-.466.366-1.35 1.502-1.671 2.032l-1.333 1.573a140.27 140.27 0 0 0-1.292 1.634c-2.042 2.623-4.585 5.538-6.763 8.05-.243.28-.421.525-.654.804-.918 1.1-1.348 1.319-2.122 2.367l-1.358 1.567c-1.834 1.825-3.7 2.73-6.022.73-.365-.314-.988-1.274-1.173-1.856-.582-1.83-.415-3.249-.998-4.945l-15.273-.034c-1.123 2.389 3.134 7.056 4.694 8.537 6.967 3.544 12.913.886 17.486 2.52.513.184.67.338 1.308.389 1.784.142 2.506.334 4.694.231.884-.041 2.326-.219 3.128-.336l2.594-.592c.53-.245.495-.34 1.157-.479.276-.058.322-.064.593-.21.496-.267 1.865-.9 2.229-1.213.205-.176-.097.03.247-.188 5.782-3.668 10.366 12.073 29.863-.925 13.8-9.962 5.163-23.016-10.39-21.853.013-.022.04-.077.049-.06.007.017.039-.047.05-.059l.273-.42c.187-.377-.186.034.126-.149.349-.203.144-.142.409-.406.017-.017.041-.036.059-.052l.12-.094.059-.045 1.616-2.137.05-.056 1.911-2.328c.336-.523.728-.827.926-1.07.16-.196.31-.409.47-.589 1.438-1.606 14.354-.653 17.264-.732 8.133 0 10.281-7.113 11.763-12.318-5.585-.1-54.855.54-55.264.233Zm-19.086 16.7 5.443.054c-.051-1.763.752-3.856.833-4.638-.25.063-.327.094-.539.153l-.551.176c-1.444.594-3.08 1.525-4.09 2.695-.282.326-.936 1.098-1.096 1.56Zm16.038-9.992c.559.152 11.998.127 13.884.104 3.531.04 2.755.271 4.061-1.369l1.554-2.061-11.46-.073c-2.593.06-3.845.209-5.716 1.54l-2.008 1.66c-.329.296-.156.26-.315.198Zm23.747.12 24.607.05c.273-.699 2-3.083 2.005-3.429l-22.6-.07c-1.068.01-1.248-.402-2.296 1.221-.392.608-1.482 1.636-1.716 2.227Zm-4.657 5.43c-.256.521-3.528 4.333-4.185 5.175-.23.294-.4.52-.707.862l-2.748 3.414c-.264.474-1.592 1.979-2.04 2.546-.235.299-.411.598-.673.889-.237.264-.483.598-.644.772.164.06 2.65-.213 3.19-.214.705 0 .755-.192 1.1-.659.264-.356.572-.623.89-.996l7.993-9.854c.564-.532 1.237-1.3 1.728-2.077-.864-.029-3.388-.163-3.905.142Zm-.246 14.386c-.047.452.19.299.633.432.2.06.59.254.725.346 1.486.756 2.92 1.727 3.965 3.03.576.718.965 1.227 1.36 2.091.751 1.643 1.273 2.474.363 2.55l-5.967-.027c-.933-.028-.822.096-1.096-1.367-.437-1.628-.771-2.198-2.202-3.233-.374-.271-.334-.31-.73-.132l-7.17 8.929c.053.58 1.583 1.232 2.035 1.465 2.978 1.537 5.366 1.817 8.844 1.547 2.96-.23 5.672-1.09 8.004-2.643 3.16-2.103 5.528-4.995 4.737-9.206-.87-4.636-5.273-6.235-9.381-6.395-.648-.026-1.253.074-1.883.023-.397.178-.867.951-1.152 1.327-.363.477-.764.787-1.085 1.263Zm-13.71 6.635.032.388c.286-.121.787-.838 1.058-1.125.389-.41.721-.77 1.034-1.149.402-.487.664-.81 1.002-1.195l.929-1.224c-1.54.126-1.936.564-2.763 1.377-.584.573-1.342 1.807-1.293 2.928ZM40.96 79.83c.039.097-.043.313.651.153.831-.192 1.227-.43 1.966-.763 1.545-.695 2.802-1.729 4.056-2.842 2.352-2.09 2.002-1.496 1.57-3.009-.079-.272-.172-1.082-.364-1.321l-3.778 4.062c-.62.716-3.417 3.452-4.101 3.72Zm-13.783-.214c-.303-.363-.667-.64-1.02-1.062-.18-.215-.315-.293-.498-.553-.189-.27-.272-.383-.469-.666-.5-.72-.793-1.422-1.052-2.165-.348-.996.613-1.073-5.471-.907.259 1.203 2.166 3.079 3.236 3.746 1.28.797 3.628 1.624 5.274 1.607Z" fill="#C2A368"/></svg>