<svg width="120" height="120" fill="none" xmlns="http://www.w3.org/2000/svg"><path fill-rule="evenodd" clip-rule="evenodd" d="M48.532 3.4c-5.867 1.1-10.999 3.117-15.991 5.744-3.276 1.723-8.01 4.91-10.693 7.271l-2.771 2.67c-.438.563-1.345 1.121-2.772 2.893-4.61 5.72-8.306 10.867-10.777 18.035C-.195 56.62.833 71.66 8.686 87.466c.701 1.411 1.75 3.251 2.61 4.468 7.532 10.643 15.869 18.04 28.417 22.623 12.303 4.492 24.528 4.887 37.367 1.046 11.903-3.562 22.306-11.175 29.567-21.007 5.389-7.299 9.171-16.234 10.619-25.526 1.835-11.776-.442-26.109-6.15-36.088-4.126-7.213-7.274-11.071-12.802-16.257C93.94 12.62 85.552 7.798 80.027 5.933 67.46 1.693 61.064 1.702 48.532 3.4ZM23.208 21.552C12.154 31.819 6.421 46.198 6.591 61.898c.154 14.164 6.922 27.572 16.373 36.799 4.283 4.181 10.022 8.097 16.092 10.612 19.39 8.029 40.142 4.286 55.946-8.872L98.5 97.08c2.144-2.673 3.667-3.827 5.871-7.357 6.321-10.124 8.759-18.493 8.81-31.377.047-12.119-5.632-24.371-13.123-33.207-.466-.55-1.038-1.027-1.611-1.694-6.227-7.243-18.049-13.732-28.024-15.472-17.715-3.09-33.8 1.117-47.217 13.579Z" fill="#02AAB4"/><path fill-rule="evenodd" clip-rule="evenodd" d="M46.895 24.214c-.375-1.073-.196-2.805-1.585-2.884-1.54-.086-1.19 1.837-1.028 2.873-1.54-.952-2.452-2.162-4.969-1.209-2.425.92-2.196 2.787-2.424 3.724-.363 1.49.387-1.062-.118.376l-.168.358c-.471-.753-.933-1.643-1.878-2.001-2.531.172-1.356 1.643-.753 2.837-1.877-.457-2.845-1.402-4.815.155-1.917 1.515-1.45 2.46-1.389 4.758-.851-.717-1.579-1.793-2.833-.945-1.055 1.621.86 2.336 1.45 3.359-2.308-.407-3.624-.357-4.98 1.14-1.634 1.806-.603 3.287-.129 5.117-1.622-.71-1.779-1.45-3.064.141.193 1.882 1.963 1.743 2.694 2.987-1.424.075-3.428-.09-4.362 2.253-1.18 2.959.759 3.96 1.247 5.067-1.417-.425-2.468-.573-2.466 1.302.446.817 2.882 1.724 3.679 2.126-.15.074-2.882.546-3.727 2.77-.77 2.028.356 3.945 1.712 4.789-.037.044-.11.042-.129.116-.118.447-1.33.602-1.3 1.537.392.953.691 1.148 1.675 1.359.786.168 2.113.388 2.94.428l-.992.87c-.287.224-.61.512-.84.811-2.879 3.71 1.66 6.067 2.036 6.454l-.564 1.378c1.008.666 1.953.76 4.626.876-.47 1.247-2.374 2.055-1.538 4.583.637 1.923 1.722 2.819 4.145 2.966-.04.967-.587 2.462 1.236 2.261.1-.01 2.509-.949 2.77-1.07-1.25 4.772 1.72 6.792 4.96 5.905-.128.733-.42 1.345.298 1.854 1.23.872 2.866-1.034 4.895-2.32.066 2.714-.605 3.845 1.79 5.31 2.536 1.552 3.992-.218 5.375-1.164-.233 1.11-.429 3.619 1.525 2.68.974-.467.915-2.384 1.6-3.377.187.371.702 4.323 4.244 4.241 3.407-.078 3.96-3.768 4.227-4.311 1.377-.387 2.241-.603 3.932-.603-.61-2.048-8.176-8.834-10.584-21.326-.843-4.368-1.457-9.912-.505-14.466.904-4.329 1.166-9.693 5.61-10.505-.275-3.245-2.4-5.526-1.445-9.662.484-2.092 1.37-1.994 1.106-4.594-.21-2.053-.312-3.393-.312-5.595.89.588 1.269 1.19 2.188 1.612 3.906 1.79 2.035-1.756 3.994 3.615.444 1.216.888 1.657 1.395 2.567 1.419 2.547 1.588 3.058 1.663 6.578 1.015-.56.92-.935 1.508-2.415 1.099-2.763 2.626-5.101 4.787-6.989.741-.647 1.535-.909 1.681-2.189.412-3.618-2.22-5.89-6.588-3.977.25-1.41.69-1.256.023-2.566-1.551-.383-1.575.078-2.437 1.179-.203.26-.183.256-.378.445-.253-1.764-1.23-3.31-2.836-3.808-2.7-.838-3.523.87-4.747 1.493-.03-1.348.047-1.459-.446-2.399-2.398-.49-1.812.474-2.301 2.048-.519-.234 0 .125-.405-.307-.587-.626-1.736-2.577-4.047-2.3-3.23.388-2.874 2.87-3.93 3.684ZM68.74 91.98c3.714 0 2.76 5.225 6.22 7.172 2.364 1.33 8.206 1.316 8.456-3.718-1.048-1.11-2.55-1.728-4.566-3.966-6.358-7.057.26-13.407 7.181-12.31 4.302.68 9.113.114 11.938-3.392.211-.262.275-.359.525-.661 1.188-1.434 2.333-3.573 2.886-5.635.496-1.847-.004-1.523 1.602-2.63 3.765-2.593.295-6.052-1.171-6.833-.677.271-.559.41-1.185.935-.472.396-.838.561-1.646.617-1.37.095-2.73-.02-4.024-.316-1.221-.279-6.04-1.448-6.534-2.655 2.562.131 3.144 2.239 10.79 2.239 1.279 0 2.62-1.33 1.418-2.7-.906-.463-1.296 1.222-3.55 1.312-4.376.175-9.636-3.795-11.804-3.795-1.342 0-2.138.657-3.273 1.045-1.453.497-4.465 1.033-5.932.241.325-.714 5.323-4.64 6.498-5.542.747-.573 1.503-1.533 2.71-1.072l-.664.818c-.033.031-.106.08-.152.127.536 1.738.437 1.893.38 3.66.89.091.848.222 1.626-.117-.341-.806-1.372-1.327-.957-2.317.542.212 1.676 1.864 1.741 1.994.323.646-.007.274.29 1.123 1.734.635 9.118 5.22 11.612 2.27-.533-.888-1.913-1.835-2.609-2.758-2.238-2.97-5.227-3.834-8.454-8.55-1.558-2.278-3.721-4.327-5.424-5.935l-6.132-5.272c-2.34.507-4.046 3.724-5.024 6.118-2.913 7.127-10.695 7.792-12.765 9.937-1.544 1.6-2.207 6.42-2.54 8.878-1.172 8.65 1.974 19.274 6.992 26.28l3.636 4.873c.743.893.65.535 1.905.535Zm-2.362 2.706c1.404-2.559-.592-3-3.584-7.466-5.34-7.968-9.063-19.18-6.99-28.997 1.973-9.338 2.305-7.294 8.11-10.153 8.69-4.279 6.526-10.299 11.52-13.05.766-.422 1.5-.56 1.534-1.496.034-.916-.693-1.356-1.69-1.062-3.955 1.17-6.42 9.018-7.671 10.557-3.611 4.443-9.203 4.388-11.424 6.789-1.825 1.971-2.553 6.421-2.86 9.499-1.234 12.354 2.48 23.314 9.88 32.456.446.551.944 1.174 1.359 1.713.553.72.684 1.32 1.816 1.21ZM19.838 63.78c.222.358-.07.21.454.462.41.197.254.087.737.154l5.189.566c5.154.602 9.737.314 14.88-.12 2.04-.171 5.13-.16 5.526-2.125.605-2.992-3.574-2.363-5.05-2.362-5.384 0-8.639-.414-13.67-1.62-2.218-.533-3.9-1.276-5.972-1.812.664 1.342 1.708 2.215.928 4.22-.592 1.526-1.216 1.987-3.023 2.637Zm-.603-10.866c2.025 1.252 7.486 2.857 10.035 3.513 4.81 1.238 8.825 1.478 14.195 1.478 1.545 0 2.606-.36 2.52-1.897-.084-1.473-1.24-1.634-2.637-1.86a52.98 52.98 0 0 1-7.23-1.728c-4.442-1.403-12.074-5.607-12.449-5.67.948 2.392.637 4.888-1.92 5.905-1.247.496-2.087.11-2.514.26Zm4.205-9.687c1.32 1.63 8.274 4.8 10.52 5.696 1.777.71 11.46 4.11 12.734 2.248 1.473-2.153-2.335-3.222-3.758-3.893-2.03-.959-3.633-1.682-5.4-2.85-1.737-1.15-3.355-2.172-4.869-3.397-1.452-1.175-3.183-2.828-4.564-3.732.442 1.76.832 2.764-.414 4.333-.845 1.063-2.185 1.9-4.249 1.595Zm.322 24.016c.363.985 1.667 1.13 1.721 3.392.058 2.46-1.083 2.625-1.99 3.86 4.21.097 21.933-2.303 23.271-4.819.76-1.425.196-3.194-3.297-2.59-4.273.74-16.48 1.06-19.705.157Zm6.331-31.74c1.34 1.764 14.95 12.024 17.508 9.963 1.926-1.552-.535-3.197-1.456-3.972-3.084-2.6-4.56-3.963-7.228-6.949-.986-1.103-2.282-3.089-3.254-3.839-.388 4.948-2.193 4.639-5.57 4.796Zm-1.401 41.166c.185.68 1.43 1.271 1.947 2.751.776 2.222-.352 2.537-.608 3.933 2.815-.75 6.392-2.121 9.248-3.167 1.46-.535 3.018-1.03 4.588-1.554 1.58-.528 3.51-.652 3.933-2.463.462-1.97-1.27-2.95-3.074-2.586-1.625.328-3.32.995-5.056 1.35-3.58.733-7.034 1.535-10.978 1.736Zm30.536-29.382c1.789-.435 2.904-1.063 4.388-1.85 1.624-.863 2.498-1.326 2.81-3.613.24-1.761-.669-4.026-1.314-5.145-.347-.603-.838-1.272-1.163-1.912-.456-.901-.543-1.333-1.114-2.085-1.651 2.437-2.925 6.965-1.88 10.248.828 2.596.485 1.601.138 1.98-.994-1.835-1.514-3.876-1.054-6.536.211-1.222.522-2.167.895-3.197.321-.885.988-1.974 1.073-2.733-1.519.233-3.905 3.522-4.382 5.873-.655 3.229.662 6.55 1.603 8.97ZM36.249 84.094c2.684 2.812 2.283 1.081 2.22 5.697.992-.368 2.296-1.37 3.254-2.003l6.758-3.61c1.303-.565 2.78-1.097 2.706-2.654-.093-1.912-1.733-1.986-3.304-1.466-1.374.454-2.529.87-3.882 1.308-1.356.439-6.878 2.19-7.752 2.728Zm2.495-53.875c.778 1.592 8.896 10.312 10.79 10.05 1.36-.189 1.966-1.703 1.289-2.992l-4.006-6.391c-.692-1.2-1.031-2.682-1.699-3.706l-.228.264c-1.35 2.094-.842 3.852-6.146 2.774Zm59.927 40.175-.362 1.03c-2.943-.609-4.73-.724-7.408-2.63-.725-.516-1.202-1.13-2.17-1.52.23 1.41 2.57 2.764 3.879 3.344.844.373 1.94.772 2.613.974 1.02.307 2.126.174 2.572.928-.715 1.29-1.663.848-3.002.458-2.526-.736-3.468-1.048-5.654-2.42-.846-.53-1.543-1.469-2.484-1.614.236 1.073.915 1.446 1.835 2.025.905.57 1.428.926 2.422 1.377 2.868 1.302 4.823 1.377 5.631 1.827-1.573 3.519-9.15-2.774-10.234-2.362.646 1.944 6.415 3.44 7.964 4.016-1.897 3.73-14.892-2.849-19.254 6.029-1.417 2.886-1.485 7.784 1.044 9.244.384-.812-1.207-2.388-1.32-4.18-.347-5.452 3.186-9.276 9.824-9.162 6.174.106 11.218 1.098 14.457-6.148.41-.916 1.291-2.906.661-3.885-.441.478-.159 3.285-5.527.396-2.172-1.168-2.166-1.758-3.186-1.764 1.007 2.815 6.777 3.421 7.7 4.037ZM66.534 89.59c1.204-.38.397-.788 1.885-4.187.527-1.204 1.43-3.126 2.538-3.712-.027.677-1.578 6.085-.09 7.57.67-.798.103-1.342.103-3.513 0-1.28.564-3.362.984-4.376 1.31-3.164 2.229-2.9 5.071-5.764.529-.533.828-.944 1.374-1.46.551-.522.874-.818 1.388-1.446 1.17-1.431 4.118-4.38 5.566-5.539 3.408-2.728 4.246-3.74 8.9-3.74 2.77 0 5.757 2.925 7.739 1.938 1.066-.531 2.317-2.68-.274-1.974-.873.239-1.205.1-1.5.629.572.48 1.175.35 1.933.15-1.318 3.736-7.167-7.13-17.93 3.05l-3.292 3.317c-.58.621-1.08 1.02-1.662 1.648l-4.963 4.965c-1.362 1.237-2.228 1.918-3.385 3.223-2.087 2.356-3.946 5.109-4.385 9.22ZM48.18 27.615c.611 1.692 3.778 7.614 4.828 8.198 2.282 1.268 2.579-1.516 2.358-3.388-.24-2.04-.196-4.137-.196-6.387-.722.429-.804 1.834-2.64 2.359-2.368.677-2.966-.46-4.35-.782Zm11.599 35.692.97.907c4.178 2.295 6.992 2.602 11.931 2.516-1.689 2.562-6.512 2.602-9.151 2.602-1.217 0-4.49-1.016-5.27-.592.371.955 8.748 2.62 13.753-.519 4.653-2.919.84-.877 5.383-2.447 3.722-1.286 4.174-1.913 8.476-3.085.922-.251 2.862-.404 3.301-.563-.668-2.169-10.915 2.764-14.188 3.575-8.751 2.17-13.895-2.957-15.205-2.394ZM45.257 88.785c2.354 2.118 1.885-.665 3.85 4.314.583-.54 1.605-3.128 3.892-5.607.372-.404 1.381-1.149.84-1.959-.954-1.426-6.464 2.346-8.582 3.252ZM34.191 31.654c-.004-3.847-5.682-3.255-5.346.187.33 3.381 5.35 3.164 5.346-.188Zm-7.498 51.584c1.54 0 2.774-.974 2.774-2.45 0-2.574-2.763-3.611-4.432-2.132-1.795 1.59-.975 4.582 1.658 4.582Zm17.953 12.505h.473c3.083 0 3.482-5.058-.008-5.2-3.869-.156-3.56 5.2-.465 5.2Zm5.575-73.654c-3.155 1.63-1.385 6.148 2.101 4.94 1.042-.36 2.01-1.964 1.364-3.495-.396-.938-1.981-2.212-3.465-1.445Zm-10.174 2.128c-.947.322-1.083.258-1.496 1.125-1.07 2.247.892 4.757 3.348 3.777 3.09-1.232 1.505-6.047-1.852-4.902Zm-19.73 44.287c-2.973 1.662-1.038 6.143 2.32 4.727 3.112-1.311.9-6.528-2.32-4.727Zm11.75 19.37v.236c0 3.437 5.301 3.346 5.195-.225-.102-3.406-5.195-3.474-5.195-.011Zm20.979 7.087c.006 3.448 5.35 3.651 5.219-.23-.114-3.394-5.226-3.24-5.22.23Zm-36.54-35.197c0 1.795 1.016 2.801 2.613 2.822 3.253.04 3.631-5.274.02-5.315-1.603-.019-2.633 1.033-2.633 2.493Zm5.42-20.551c0 1.534 1.1 2.745 2.405 2.745 2.385 0 3.79-2.798 2.213-4.488-1.56-1.672-4.619-.805-4.619 1.743Zm47.996-11.647c-3.03 1.54-1.023 6.056 2.297 4.72 3.126-1.259 1.074-6.434-2.297-4.72ZM19.751 46.408c-1.553.36-2.392 1.045-2.04 3.173.228 1.373 1.697 2.303 3.15 1.95 3.275-.799 2.322-5.92-1.11-5.123Zm39.2-20.66c0 3.775 5.184 3.692 5.184 0 0-3.326-5.184-3.314-5.184 0Zm18.452 30.786c1.585.17 3.932-.306 5.295-.795.963-.346 1.3-.579 1.549-1.767a2.924 2.924 0 0 0-.625-2.463c-.445.242-6.048 4.644-6.22 5.025Zm11.096 23.749c-.05 1.122.627.962.239 2.504-.216.859-.681 1.678-.937 2.768 1.967-.77 4.543-3.683 5.376-5.847l-4.678.575ZM19.498 47.135c-2.58.984-.952 4.328 1.357 3.715 2.376-.631 1.44-4.782-1.358-3.715Zm51.84-15.32c2.783 0 1.936-4.492-.618-3.9-2.24.52-2.305 3.9.619 3.9ZM35.71 89.796c3.587-4.447-4.41-4.958-2.969-1.16.489 1.288 1.389 1.29 2.969 1.16Zm4.92-65.053c-1.036 0-1.94 1.13-1.672 2.365.197.91 1.155 1.722 2.254 1.533 2.42-.415 2.272-3.898-.582-3.898Zm-19.973 44.33c-2.357 1.173-.678 4.635 1.77 3.476 2.288-1.084.614-4.662-1.77-3.476Zm34.52 24.052c-.985.455-1.853.758-1.333 2.507.328 1.102 1.64 1.54 2.67 1.08 2.183-.976.918-4.628-1.338-3.587Zm-4.723-70.326c-2.352.972-1.105 4.503 1.628 3.541 2.285-.804.844-4.563-1.628-3.541Zm-20.75 8.383v.473c0 2.744 3.561 2.489 3.795.198.287-2.814-3.796-2.696-3.796-.671Zm-3.01 51.35c2.878 0 2.573-3.746.228-3.814-2.731-.08-2.79 3.814-.229 3.814ZM61.417 27.8h.236c2.463 0 2.386-3.65-.002-3.788-2.834-.165-2.69 3.787-.235 3.787ZM44.233 91.442c-2.689 1.045-.787 4.62 1.685 3.404 1.733-.852 1.011-4.451-1.685-3.404Zm-21.601-52.23c0 2.7 3.728 2.592 3.836.232.056-1.226-.735-1.979-1.722-2.11-1.058-.14-2.114.816-2.114 1.878Zm-5.42 20.55c0 2.05 1.095 2.06 2.96 1.975.386-.678.807-.974.807-1.974 0-2.402-3.766-2.401-3.766 0Zm57.898-3.798c.709-.158 5.693-4.305 6.854-5.434.508-.494.565-.508.681-1.128-1.057.097-1.47.826-2.097 1.376l-3.813 3.276c-.719.516-1.589.858-1.626 1.91Zm5.778 36.256.92 1.028c.339.282.499.384.793.791.948-.616 1.753-2.164 1.764-3.382-1.503.54-1.638 1.285-3.477 1.563Z" fill="#BAA76A"/></svg>