<svg width="120" height="120" fill="none" xmlns="http://www.w3.org/2000/svg"><path fill-rule="evenodd" clip-rule="evenodd" d="M38.76 23.122c.6.377 2.085.895 2.834 1.208.942.394 1.866.794 2.821 1.2 5.005 2.13 11.725 5.34 16.577 7.82 1.803.923 3.576 1.862 5.375 2.759l5.319 2.813c1.752.976 3.553 1.86 5.284 2.844.846.481 1.723.938 2.607 1.411.428.23.872.478 1.31.702.43.22.92.563 1.4.715l.025-3.837-18.94-10.934c.74-.657 3.268-1.255 4.477-1.38 1.89-.194 3.608-.037 5.433.294 1.563.283 3.153.775 4.552 1.294l4.145 1.782-.007-20.366c-.878.109-3.084 1.14-5.64 1.435-4.015.464-9.67-2.303-19.59-.388-7.076 1.366-12.599 4.455-17.178 9.58-.226.254-.63.725-.804 1.048ZM82.188 66.06l.019-1.57-5.83-3.125c-5.274-2.902-12.422-6.411-17.872-8.988-8.025-3.793-16.554-7.54-25.273-10.58-.154 2.602 1.995 7.993 3.507 10.413 6.002 9.605 16.794 13.613 28.175 13.77 3.03.043 5.843-.163 8.805-.521 3.3-.399 5.43.106 8.469.6ZM34.751 29.903c1.073.315 5.038 1.963 6.28 2.485 2.1.882 4.101 1.778 6.183 2.677 6.598 2.852 19.727 9.44 26.438 13.218l8.59 4.592.04-4.578-22.32-11.453c-2.691-1.416-8.587-3.977-11.603-5.298-2.827-1.24-9.305-3.965-12.06-4.863.647-1.239 1.631-2.551 2.396-3.545-3.096-1.37-7.96-3.04-11.361-4.194-1.225-.415-2.758-.994-4.024-1.27v4.747c1.318.267 5.18 1.52 6.593 1.998 1.06.36 2.144.703 3.204 1.089.96.349 2.227.88 3.16 1.119-.132.457-1.086 2.034-1.516 3.276ZM33.718 81.218c-2.443.177-4.746.869-6.397 1.986-1.39.941-3.316 2.775-2.617 5.437 1.36 5.19 11.95 7.125 17.72 3.27 6.483-4.334.756-11.38-8.706-10.693Zm.098 3.616c-1.737.27-4.269 1.514-3.292 3.56.686 1.436 3.171 2.209 5.335 1.902 1.753-.25 4.337-1.52 3.358-3.56-.7-1.458-3.245-2.237-5.401-1.902ZM113.98 95.355V90.69l-2.933-.045-4.185-8.576c.056-.023.167-.052.187-.063.167-.091.064-.02.192-.133l-.012-.714-9.481.001c-.082 1.304-.109 1.123-.744 2.56l-2.507 5.808c-.623 1.44.025 1.12-3.452 1.12L91.04 95.4c1.673 0 .965.09 1.838-1.44l18.972.02c.465.13.762 1.194 1.309 1.42l.822-.045Zm-16.183-4.716.376.01h6.122l.347-.013-2.552-6.657-1.737-.008-2.556 6.668ZM68.31 81.964l.489.06-.027 11.068c-.085 0-.202-.009-.282.014-.206.057-.063.003-.183.097v.726l7.104.014v-.74c-.019-.015-.054-.051-.064-.032-.01.02-.05-.024-.065-.03l-.065-.026-.3-.095-.003-.866 7.16-3.576.009 4.35c-.144.3-.03.095-.496.219v.747l7.102.051v-.854l-.467.001-.02-10.945c.108-.092-.006-.133.436-.132.096-.265.044-.576.039-.856h-7.062l-.032.714c.13.096.043.046.23.119.069.026.155.033.248.064l.025.924-7.16 3.542-.016-4.455.486-.079.01-.82-7.083-.008-.013.804ZM33.126 37.215l6.488 2.528c6.995 2.738 18.058 8.048 24.773 11.59l5.992 3.144c2.936 1.468 6.02 3.288 8.865 4.75.473.244 2.645 1.5 2.98 1.508l.02-4.08c-.263-.26-2.322-1.337-2.785-1.571a82.195 82.195 0 0 1-2.918-1.56c-1.938-1.081-3.927-2.052-5.882-3.074-9.06-4.736-21.015-10.29-30.631-14.048-1.091-.427-2.128-.835-3.23-1.246-.933-.35-2.386-.983-3.296-1.18-.13 1.075-.38 2.131-.376 3.24ZM45.175 93.091v.854l6.219-.002c.124-.305 3.689-6.304 4.05-6.608l3.706 6.24c.16.263.128.265.373.369h6.952v-.74c-.604-.449-.096.584-1.175-1.207-.31-.514-.578-.963-.89-1.485l-1.817-3.027-1.816-3.026-1.341-2.223c-.264-.455-.128-.508-.204-1.068h-6.288l-6.966 11.466c-.25.43-.217.458-.803.457ZM22.162 93.7v-4.72c-1.761.594-3.137.975-5.216 1.01-1.83.031-4.155-.318-4.172-2.177-.016-1.775 1.966-2.475 3.663-2.691 2.43-.31 3.552.14 5.61.629v-4.547c-.807.106-1.498.299-2.382.367-5.194.403-13.363-.951-13.638 5.875-.15 3.724 2.037 5.313 5.352 5.84 3.545.564 7.24-.107 10.783.414ZM34.751 29.903c-.748-.382-1.952-.742-2.794-1.052-1.461-.538-7.432-2.627-8.626-2.877l-.022 4.746c1.374.23 5.91 1.751 7.64 2.337.816.277 1.773.685 2.589.87.175-1.124.767-3.131 1.213-4.024Z" fill="#6A123C"/><path fill-rule="evenodd" clip-rule="evenodd" d="M33.126 37.215c-2.384-.84-4.845-1.775-7.282-2.527-.824-.254-1.696-.596-2.525-.777l-.01 4.75c1.475.286 3.54.98 4.965 1.457l4.904 1.616c-.086-1.508-.222-3.014-.052-4.518ZM27.373 63.936c-4.88 1.177-3.068 8.527 1.625 7.42 1.745-.411 3.294-2.202 2.837-4.47-.368-1.83-2.175-3.502-4.462-2.95Zm.46.455c-4.059.585-3.153 7.037.803 6.425 1.544-.239 2.746-1.787 2.538-3.64-.177-1.561-1.57-3.04-3.34-2.785Zm-.995 5.118.702.03.007-1.6c.308-.001.901-.035 1.118.102.592.533-.22 1.565.706 1.493l.335-.02c-.308-.916.222-1.254-.571-1.856.275-.21.486-.326.519-.773.102-1.423-1.653-1.322-2.817-1.169l.001 3.793Zm.708-3.169.009 1.072c.659-.003 1.35.156 1.395-.524.054-.826-.728-.67-1.403-.67v.122ZM30.016 108.441c1.762.235 3.786.13 4.231-1.404.275-.946-.088-1.727-.615-2.108-.753-.543-1.323-.383-2.313-.485v-.985l2.54-.035-.003-1.139-3.804.002-.036 6.154ZM63.607 108.429l1.286.038v-2.583h.112l2.047-.001v2.545l1.37.018c-.335-1.317.15-4.569-.087-6.147l-1.26-.007-.023 2.368-2.159.001-.006-2.362-1.285-.008.005 6.138ZM46.146 108.464c1.454.006 1.434.318 1.756-1.58l1.662.006.457 1.576 1.416.004-1.802-6.185-1.682.001-1.807 6.178ZM80.879 108.469l1.297-.003v-2.582c.79.008 1.084.27 1.314.904.193.532.36 1.146.526 1.67h1.415c-.78-1.785-.453-2.589-1.678-3.308l-.239-.16c.619-.922 1.396-1.802 1.914-2.697l-1.508-.005c-.502.578-1.293 2.29-1.71 2.579l-.043-2.576-1.238-.006-.05 6.184Z" fill="#6A123C"/><path fill-rule="evenodd" clip-rule="evenodd" d="m63.607 108.429.028.124h4.842l-.055-.107-1.369-.018v-2.545l-2.047.001h-.113v2.583l-1.286-.038ZM31.322 107.425c1.542.368 2.074-1.074 1.305-1.674-.25-.195-1.149-.481-1.292-.095-.038.102-.016 1.542-.013 1.769ZM48.13 105.837l1.238-.004-.604-2.345c-.195.325-.569 2.003-.634 2.349Z" fill="#fff"/></svg>