<svg width="120" height="120" fill="none" xmlns="http://www.w3.org/2000/svg"><path fill-rule="evenodd" clip-rule="evenodd" d="M9.291 80.323h101.671l.015-5.272-101.651-.033-.035 5.305Z" fill="#F89021"/><path fill-rule="evenodd" clip-rule="evenodd" d="m38.416 57.773-.023 9.591h4.448l.014-23.08-4.34.033-.092 8.816-7.525-.06.012-8.788-4.374.018.016 23.061h4.344l.036-9.654s7.484.109 7.484.063ZM9.357 44.45c-.14 1.062-.035 22.914-.035 22.914h4.431s.046-6.95.078-8.16c2.514-.038 4.748.113 7.033-1.56 2.275-1.668 2.739-3.983 2.74-6.901 0-2.171-1.075-3.913-2.197-4.968-2.8-2.63-8.554-1.65-12.05-1.325Zm4.563 3.77-.012 6.737c.907.547 3.049.032 3.739-.435 1.907-1.289 2.054-4.94-.02-6.053-.88-.473-2.753-.587-3.707-.249Z" fill="#555E65"/><path fill-rule="evenodd" clip-rule="evenodd" d="M65.058 56.48c-1.607-3.416-6.054-4.047-9.41-3.558l.036-6.2s6.717.131 8.468-.098l.035-2.35-11.077-.01.065 23.095c6.56-.065 14.778-.682 11.883-10.879Zm-9.38-1.162-.017 9.743c7.617.262 9.528-6.577 5.321-9.074-1.298-.77-4.443-.901-5.305-.669ZM69.55 53.761c.299-.06 4.946-2.882 6.565.47.257.53.346 2.576.346 2.576-2.463.01-4.402.265-6.112 1.41-3.714 2.484-2.911 8.79 1.045 9.46 3.564.604 5.04-2.122 5.328-2.262.213.46.303 1.949.303 1.949H79.3c.079-.45-.149-2.938-.166-3.648-.08-3.495.467-8.407-.88-10.926-1.545-2.89-5.518-2.968-8.348-1.548-1.435.72-.769.652-.354 2.52Zm7.053 7.774-.003-2.548c-1.408-.392-3.77.316-4.607.873-1.165.774-1.799 2.499-1.131 4.166 1.163 2.903 5.715 1.29 5.74-2.491ZM99.415 67.364h2.601l.042-7.235c2.359-.092 3.499.52 4.591 2.576.678 1.28 1.108 3.504 1.866 4.63l2.54.027c.093-.602-1.558-4.832-1.913-5.58-.347-.733-1.022-1.709-1.527-2.219-1.078-1.087-1.768-1.035-2.502-1.395l5.309-6.503c.235-.287.611-.847.611-.847h-2.999s-.339.293-1.193 1.416c-.559.736-.936 1.273-1.483 1.988l-2.199 2.95c-.393.526-.332.774-1.132.734l.007-6.767c0-.102-.009-.321-.009-.321-.857.001-1.755-.007-2.61 0v16.546ZM95.108 50.818h-2.381s-.055 2.878 0 6.58h-7.044v-6.58l-2.32-.016-.041 16.562h2.361v-7.39h7.044v7.39h2.365l.016-16.546Z" fill="#A9ADAE"/></svg>