<svg width="120" height="120" fill="none" xmlns="http://www.w3.org/2000/svg"><path fill-rule="evenodd" clip-rule="evenodd" d="M56.563 73.9c.092.219 3.99 3.184 4.234 3.362 1.196.872 2.576 2.072 3.734 2.911.216.157.406.282.54.446.416-.045 1.135-.605 1.543-.838.78-.444 2.283-1.13 3.13-1.501.527-.231 1.213-.438 1.681-.694-.072-.168-2.212-1.782-2.543-2.03-.266-.2-.575-.437-.86-.67-1.382-1.126-2.954-2.26-4.328-3.369-.164-.132-.77-.629-.907-.633-.343-.012-5.871 2.446-6.224 3.016Z" fill="#D02023"/><path fill-rule="evenodd" clip-rule="evenodd" d="M53.589 43.672c.238.114 1.768 1.363 2.142 1.644l6.476 5.017c.728-.271 4.824-3.564 5.08-3.955-.122-.139-8.217-6.473-8.612-6.707l-4.753 3.692c-.07.046-.098.056-.157.104l-.176.205Z" fill="#F2929E"/><path fill-rule="evenodd" clip-rule="evenodd" d="M84.764 58.452c.094.22 1.928 1.58 2.096 1.708 1.36 1.033 2.955 2.378 4.314 3.386.206.152.312.257.528.418.328.243 1.517 1.257 1.665 1.24.469-.232 3.876-3.92 4.266-4.538-.108-.246-1.837-1.479-2.133-1.71l-5.947-4.6c-.178-.14-.382-.35-.614-.397l-4.175 4.493Z" fill="#E53A2E"/><path fill-rule="evenodd" clip-rule="evenodd" d="M71.793 67.168c.28.147 5.888 4.557 6.446 4.99l2.145 1.69c.628-.123 3.729-1.858 4.576-2.344.415-.238 1.088-.715 1.46-.859-.138-.251-7.05-5.579-7.55-5.973-.304-.24-.825-.71-1.11-.837-.213.112-.502.31-.712.441-1.715 1.078-3.136 1.755-4.885 2.654l-.275.152c-.085.063-.037.02-.095.086Z" fill="#FADADB"/><path fill-rule="evenodd" clip-rule="evenodd" d="M81.182 37.112c.19.1.355.262.538.403l5.958 4.64c.345.27 1.96 1.573 2.2 1.68.474-.86 2.703-4.994 2.845-5.682-.221-.24-3.897-3.05-4.28-3.354-.369-.293-.698-.544-1.068-.83-.569-.439-3.047-2.432-3.3-2.519-.174.43-.465.996-.681 1.422l-1.461 2.81c-.168.305-.703 1.134-.751 1.43Z" fill="#E5AB11"/><path fill-rule="evenodd" clip-rule="evenodd" d="m32.642 77.116-.009.057c-.346.58-1.847 3.969-1.89 4.688.304.295.73.572 1.06.826.386.296.727.544 1.106.845l6.527 5.023c.178-.42.358-1.067.528-1.526.333-.897.843-2.098 1.266-2.95.167-.336.617-1.122.705-1.427-.13-.2-2.176-1.74-2.538-2.023-.435-.34-.842-.66-1.276-.993l-1.279-.975c-.263-.26-3.34-2.65-3.527-2.723-.111.1-.118.126-.205.291l-.163.312c-.098.193-.183.403-.305.575Z" fill="#D36625"/><path fill-rule="evenodd" clip-rule="evenodd" d="M22.573 62.946c-.234.532-1.256 1.764-1.325 2.202.203.234 3.997 3.14 4.314 3.38.382.291.696.54 1.064.83l2.698 2.1c.17.134.38.366.598.376.049-.195.68-1.15.81-1.358.444-.716 1.677-2.445 2.232-3.094.142-.167.381-.394.468-.6-.099-.191-4-3.201-4.285-3.424l-3.222-2.525c-.165-.132-.375-.287-.534-.415-.208-.166-.344-.324-.565-.403-.505.398-2.102 2.828-2.253 2.931Z" fill="#B02624"/><path fill-rule="evenodd" clip-rule="evenodd" d="M72.666 48.059c-.118.214-.471.423-.553.639.288.271.68.54.979.767l6.83 5.34c.327.165.575.504.9.635.386-.39.754-.758 1.095-1.11.612-.628 2.894-2.927 3.11-3.524-.3-.174-.79-.61-1.1-.842-.767-.578-7.383-5.748-7.59-5.833-.35.315-.57.708-.865 1.013l-1.34 1.507c-.154.168-.322.302-.479.47-.27.287-.648.769-.987.938Z" fill="#FED639"/><path fill-rule="evenodd" clip-rule="evenodd" d="M38.8 50.758c.108.158.642.545.834.688l2.61 2.031c.593.458 1.172.896 1.75 1.362.283.228.563.434.861.668L46.6 56.87c.147.11.273.209.417.32.13.102.318.301.461.29.113-.01 1.97-.766 2.231-.873 1.506-.616 2.93-1.178 4.37-1.855l-2.136-1.697c-1.789-1.356-3.636-2.878-5.397-4.198-.182-.136-.34-.266-.537-.412-.181-.134-.383-.321-.568-.421l-3.283 1.398c-1.116.438-2.217.905-3.358 1.336Z" fill="#F2929E"/><path fill-rule="evenodd" clip-rule="evenodd" d="m51.417 60.575 7.806 6.081c1.11.832.423.843 3.134-.254 1.296-.525 2.802-1.135 4.076-1.724l.169-.091.028-.023.052-.049c-.266-.252-.571-.45-.849-.672-1.946-1.564-4.135-3.164-6.081-4.729-.158-.126-1.564-1.293-1.744-1.275-.077.007-1.903.83-2.169.94-.738.307-1.479.578-2.214.894l-2.208.902Z" fill="#FFDF64"/><path fill-rule="evenodd" clip-rule="evenodd" d="m46.633 47.538.117.113c1.077.926 2.98 2.266 4.18 3.257.349.289.71.554 1.07.826.186.14.376.288.536.415l2.13 1.666c.159.124.401.333.582.43.838-.287 5.512-2.8 5.97-3.228-.131-.181-1.976-1.572-2.152-1.71-.718-.562-1.42-1.119-2.159-1.69-1.454-1.123-2.916-2.242-4.342-3.388-.208.083-.477.279-.686.413-1.62 1.047-3.33 1.886-5.043 2.758l-.203.138Z" fill="#FADADB"/><path fill-rule="evenodd" clip-rule="evenodd" d="M64.002 70.367c.008.01.02.013.024.029l8.62 6.683c.33-.04 1.335-.478 1.711-.625.571-.224 1.103-.431 1.662-.653l3.29-1.363c-.077-.17-.099-.156-.241-.265-.1-.076-.176-.14-.264-.209l-5.958-4.64c-.193-.155-.356-.27-.533-.417l-1.67-1.288-3.301 1.393c-.564.241-1.093.447-1.656.668-.442.174-1.312.464-1.684.687Z" fill="#F2929E"/><path fill-rule="evenodd" clip-rule="evenodd" d="m78.423 57.484 1.147-.968c.125-.093.245-.224.343-.332-.162-.15-.528-.388-.607-.558-.19-.044-.794-.564-1-.726l-4.985-3.871c-.3-.24-1.832-1.474-2.045-1.556-.202.123-.414.346-.609.513l-1.866 1.508c-.44.35-.844.672-1.29.978-.228.155-.407.301-.642.465l-.587.421c-.079.083-.013-.01-.08.104.192.112.331.241.542.4 1.966 1.478 3.999 3.172 5.93 4.615.37.276.7.543 1.073.824.193.145.355.278.532.419.161.129.397.346.604.424l1.798-1.297a43.09 43.09 0 0 0 1.742-1.363Z" fill="#FEE27F"/><path fill-rule="evenodd" clip-rule="evenodd" d="M83.632 59.396c-.142.326-4.113 3.409-4.868 3.796.137.19.825.685 1.077.877l7.621 5.867c.5-.227 3.306-2.417 3.852-2.888.207-.178.408-.333.607-.5.12-.102.218-.177.316-.265.144-.128.129-.164.288-.211-.027-.172-.006-.096-.096-.198l-2.02-1.563c-1.014-.722-5.953-4.682-6.532-5.028-.147.058-.1.053-.245.112Z" fill="#F2929E"/><path fill-rule="evenodd" clip-rule="evenodd" d="M33.865 74.902c.15.203.786.651 1.03.843l7.593 5.885 3.594-5.105c-.183-.1-.347-.248-.54-.404l-1.627-1.275c-1.381-1.122-2.93-2.258-4.316-3.382-.341-.278-1.92-1.56-2.17-1.661-.283.38-.645.76-.963 1.183L34.7 73.545c-.27.43-.55.954-.835 1.357Z" fill="#D88422"/><path fill-rule="evenodd" clip-rule="evenodd" d="m59.172 57.335 6.889 5.33c.29.22.592.446.864.665.154.124.27.211.417.321.645.482.294.515 1.486-.055 1.404-.67 2.643-1.4 3.963-2.151.27-.153.772-.436.98-.62-.147-.248-7.316-5.768-8.047-6.365-.184-.15-.382-.318-.564-.424l-1.428.878c-.477.283-.952.575-1.481.84l-3.079 1.581Z" fill="#FFF9C7"/><path fill-rule="evenodd" clip-rule="evenodd" d="M98.376 59.746c.263-.28 2.047-2.823 2.213-3.09.068-.109.122-.23.192-.336.307-.465.856-1.15 1.04-1.664l-.489-.479c-.177-.129-.336-.28-.526-.418-1.293-.931-2.968-2.365-4.327-3.378l-1.575-1.268-.028-.023c-.182-.148-.358-.255-.549-.402-.097-.074-.158-.129-.275-.205-.01-.006-.024-.013-.033-.02l-.096-.06c-.103-.08-.419-.465-.714-.532-.173.207-.128.215-.26.46l-2.745 4.006c-.82 1.094-.607.353 1.41 2.175l3.356 2.652c.126.107.289.209.428.313.08.06.128.098.207.159l1.471 1.17c.176.16 1.14.916 1.3.94Z" fill="#D02023"/><path fill-rule="evenodd" clip-rule="evenodd" d="M43.915 64.149c.85.592 3.422 2.615 4.343 3.347.727.579 1.431 1.112 2.17 1.68.308.236 2.009 1.58 2.184 1.646l1.427-.874c1.126-.617 4.704-2.123 4.769-2.164-.117-.149-.635-.53-.828-.676-1.115-.85-7.635-6.019-7.842-6.016-.374.006-5.798 2.465-6.223 3.057Z" fill="#F8B101"/><path fill-rule="evenodd" clip-rule="evenodd" d="m38.213 68.996 6.43 5.017c.374.277.718.557 1.068.829.308.24.786.662 1.1.843l2.276-2.2c.65-.534 1.808-1.545 2.52-1.953-.148-.194-1.826-1.472-2.14-1.71l-5.456-4.246c-.236-.187-.874-.732-1.1-.833-.43.27-.827.632-1.246.952-.923.708-2.378 2.081-3.19 2.98-.05.055-.081.084-.127.135l-.134.186Z" fill="#E39819"/><path fill-rule="evenodd" clip-rule="evenodd" d="m25.603 59.16 8.053 6.28c.206.172.375.347.607.41.204-.124.4-.382.565-.56.777-.84 1.446-1.415 2.273-2.156l1.845-1.466c-.057-.157-.67-.592-.785-.68l-5.965-4.632c-.252-.19-.57-.447-.831-.646-1.02-.775-.873-.89-1.334-.54-1 .76-1.989 1.49-2.912 2.41l-1.15 1.118c-.161.158-.305.264-.366.463Z" fill="#D02023"/><path fill-rule="evenodd" clip-rule="evenodd" d="M45.68 85.975c-.02.095-2.285 4.617-2.308 5.706l6.405 4.983c.345.268.71.553 1.069.83.178.137.337.26.537.412.188.143.357.334.625.43.117-.485.325-.932.49-1.407.318-.916 1.358-3.258 1.78-3.9.062-.29.219-.346.266-.616l-8.628-6.658-.204.19c-.005-.01-.02.021-.032.03Z" fill="#B02624"/><path fill-rule="evenodd" clip-rule="evenodd" d="M31.368 54.339c.038.06 8.41 6.642 8.59 6.663.106.012 1.11-.643 1.46-.829.55-.29.98-.507 1.544-.768.403-.185 3.11-1.337 3.206-1.428l-6.88-5.39c-.318-.234-1.55-1.297-1.753-1.3-.228-.001-5.872 2.415-6.167 3.052ZM50.863 78.803c.175.212 6.487 5.087 7.46 5.834.313.24.805.673 1.09.82.195-.077.93-.875 1.14-1.086.392-.395.763-.728 1.14-1.073l2.464-2.02-6.762-5.305c-.245-.213-.569-.454-.826-.652-1.083-.834-.819-1.03-1.802-.216-.283.234-.583.454-.852.68-.76.634-1.65 1.448-2.352 2.18-.192.199-.648.606-.7.838Z" fill="#D02023"/><path fill-rule="evenodd" clip-rule="evenodd" d="M46.512 84.76c.603.545 3.472 2.694 4.283 3.347l4.295 3.326c.116-.08 1.47-2.291 1.695-2.604.32-.445.597-.827.918-1.242.231-.299.826-.924.974-1.192-.09-.236-1.874-1.544-2.12-1.734l-6.529-5.055c-.412.229-3.488 4.654-3.516 5.155ZM18.178 72.054c.125.145.354.291.526.426l5.927 4.62c.218.166 1.967 1.593 2.19 1.647.305-1.03.717-2.063 1.135-3.036.145-.336 1.364-2.796 1.312-2.919-.233-.244-.79-.63-1.063-.848l-5.344-4.15c-.373-.293-.68-.541-1.06-.835-.2-.154-.345-.267-.54-.41-.192-.144-.365-.364-.6-.396-.254.37-.501.93-.701 1.351-.425.898-1.737 3.82-1.782 4.55ZM68.633 27.292c.103.097.165.145.274.22l.762.645c.537.327 1.065.864 1.647 1.213l2.165 1.686c.095.07.154.139.252.212l2.941 2.286c.198.13.31.373.612.372.292-.397 1.149-2.112 1.492-2.66.064-.101.12-.261.164-.36l.672-1.467c.068-.156.463-.854.483-1.093l-2.26-1.813c-.01-.006-.022-.015-.03-.022l-.061-.044-.031-.023-5.12-3.953c-.224-.185-.299-.176-.539-.407-.153-.148-.412-.381-.57-.42-.17.16-.264.447-.36.678l-2.117 4.225c-.106.223-.346.412-.376.725Z" fill="#B02624"/><path fill-rule="evenodd" clip-rule="evenodd" d="M77.087 43.212c.312.211.727.568 1.058.83l6.469 5.078c.247.192.885.746 1.108.837.483-.475 2.214-3.069 2.692-3.787.17-.255.751-1.124.824-1.365-2.047-1.533-4.4-3.472-6.466-5.073-.35-.27-1.934-1.56-2.164-1.669-.27.326-.58.931-.827 1.319-.289.45-.569.863-.866 1.296l-1.828 2.534Z" fill="#F8B101"/><path fill-rule="evenodd" clip-rule="evenodd" d="M84.596 30.43c.29.156.813.613 1.072.817l7.541 5.842c.28-.29 2.327-5.505 2.323-6.054-.419-.398-5.664-4.412-6.429-5.015l-2.168-1.664-1.746 4.515c-.151.394-.53 1.17-.593 1.559Z" fill="#E39819"/><path fill-rule="evenodd" clip-rule="evenodd" d="M73.174 40.105c.384-.211 2.771-4.054 3.274-4.743.102-.14.169-.175.171-.373l-1.15-.874-.03-.023-2.24-1.765c-.13-.102-.237-.142-.35-.234L71.137 30.7c-.904-.762-1.921-1.422-2.738-2.166-.448-.41-.507-.161-.65.078-.144.239-.279.523-.449.769-.67.97-1.272 1.916-2.012 2.887-.125.165-.741.896-.752 1.094-.012.233 1.412 1.194 1.648 1.397l4.481 3.478c.13.098.236.196.35.284l1.4 1.079c.21.17.464.493.76.505Z" fill="#D02023"/><path fill-rule="evenodd" clip-rule="evenodd" d="M60.945 37.437c-.093.15-.51.549-.657.695-.197.196-.604.515-.724.706.079.208.82.716 1.026.881l7.575 5.861c.253-.113 1.205-1.176 1.569-1.457l2.03-2.264c.127-.151.2-.248.338-.402.202-.225.22-.276.257-.488l-2.138-1.655c-.166-.135-.39-.3-.537-.41l-3.74-2.906c-.399-.304-.68-.534-1.072-.828-1.556-1.16-.682-1.113-2.5.776-.346.361-1.056 1.26-1.426 1.491Z" fill="#E53A2E"/></svg>