<svg width="120" height="120" fill="none" xmlns="http://www.w3.org/2000/svg"><path d="M120 0H0v120h120V0Z" fill="#CA003D"/><path fill-rule="evenodd" clip-rule="evenodd" d="M40.945 52.267h-6.158l-.836 25.082h4.486s.415-11.631.438-12.184l5.671.004c.052.508.899 12.18.899 12.18h4.634s-1.594-17.228-1.723-18.33c-.516-4.44-2.568-6.752-7.41-6.752ZM38.955 61c.01-.509.104-4.076.11-4.56l.804-.052c3.306 0 3.912.646 4.218 4.612h-5.133ZM65.569 60.282h-6.227v-8.015h-4.527v25.085h4.527V64.45h6.227v12.902h4.529V52.267h-4.53v8.015ZM21.32 60.474c-.783 0-1.477.017-2.1.05V56.44h8.139v-4.172H14.683v25.078h6.886c6.862 0 7.926-6.207 7.926-8.502 0-2.717-1.056-8.37-8.175-8.37Zm-.55 12.998c-.441 0-1.55-.102-1.55-.102v-8.83s.357-.085.746-.085c2.3 0 5.02-.138 5.02 4.505 0 4.252-2.989 4.512-4.217 4.512ZM103.359 24.308c-.494-4.222-2.444-6.422-7.05-6.422h-5.86l-.797 23.86h4.27s.394-11.065.417-11.587l5.394.002c.05.48.856 11.585.856 11.585h4.408s-1.518-16.388-1.638-17.438Zm-8.945 1.885c.01-.484.1-3.882.107-4.339h.813c3.142 0 3.67.562 3.962 4.34h-4.882ZM19.09 23.065h5.347v19.887h4.322V19.097H14.775v23.855h4.315V23.065ZM63.054 30.45v11.518h4.319V18.113h-4.32v8.308h-2.346c-.973 0-1.693-.22-2.152-.666-.324-.31-.483-.73-.483-1.276v-6.366h-4.324v6.81c0 1.57.61 2.899 1.816 3.953 1.19 1.046 2.645 1.573 4.335 1.573h3.155ZM80.907 41.81V21.922h3.585v-3.967H72.953v3.968h3.586V41.81h4.368ZM41.541 42.948c.02 0 .04.004.06.004.012 0 .024-.004.038-.004.012 0 .024.004.036.004.02 0 .04-.004.06-.004 2.858-.054 5.596-1.782 6.782-6.669.455-1.662.687-3.723.689-5.85h.002l-.01-.77c-.076-3.412-.652-5.855-1.545-7.595-1.407-2.967-3.648-4.078-5.963-4.106l-.014-.003-.037.001-.038-.001c-.006 0-.01.003-.014.003-2.315.028-4.556 1.139-5.964 4.106-.893 1.74-1.47 4.183-1.544 7.595l-.01.77h.001c.002 2.128.234 4.188.69 5.85 1.185 4.887 3.924 6.615 6.782 6.67ZM38.377 30.54c.036-6.455 1.606-8.578 3.262-8.615 1.654.037 3.224 2.16 3.26 8.615v.004c-.037 6.307-1.607 8.462-3.26 8.495-1.656-.033-3.226-2.188-3.262-8.495v-.004ZM89.642 58.505c.382-1.59.882-6.238.882-6.238h-4.465c-.028.474-.125 2.062-.264 3.681-.207 2.401-.9 4.61-3.314 4.61h-1.86c-.004-.202 0-8.291 0-8.291h-4.54v25.085h4.54V64.615s2.4.004 2.74 0l4.458 12.73h4.874l-5.458-14.7c1.133-.855 2.015-2.5 2.407-4.14Z" fill="#fff"/><path d="M16.044 95.424c0-1.318.192-2.425.573-3.322a6.072 6.072 0 0 1 1.163-1.776 4.914 4.914 0 0 1 1.613-1.168c.78-.34 1.677-.511 2.695-.511 1.843 0 3.313.592 4.42 1.775 1.105 1.186 1.658 2.832 1.658 4.942 0 2.092-.55 3.729-1.646 4.909-1.095 1.183-2.563 1.772-4.397 1.772-1.858 0-3.337-.586-4.433-1.763-1.096-1.174-1.646-2.793-1.646-4.858Zm2.6-.087c0 1.466.328 2.576.982 3.335.654.755 1.485 1.134 2.49 1.134 1.01 0 1.835-.376 2.483-1.125.645-.752.968-1.878.968-3.38 0-1.484-.314-2.591-.945-3.32-.627-.73-1.462-1.095-2.505-1.095-1.04 0-1.88.37-2.518 1.108-.636.74-.956 1.853-.956 3.343Zm11.49 6.474v-12.93h2.529v5.093h4.918V88.88h2.529v12.93H37.58v-5.652h-4.918v5.652h-2.53Zm13.493-12.93h8.747v12.93h-2.53V91.066h-3.749v5.52c0 1.58-.052 2.685-.154 3.308-.102.626-.349 1.116-.744 1.465s-1.012.524-1.852.524c-.296 0-.831-.03-1.61-.087V99.77l.564.01c.526 0 .883-.073 1.063-.22.184-.148.274-.51.274-1.084l-.009-2.22v-7.374Zm22.589 12.93h-2.724l-1.078-2.944h-5.009l-1.037 2.944h-2.675l4.849-12.93h2.671l5.003 12.93Zm-4.622-5.129-1.735-4.785-1.686 4.785h3.42Zm6.003-7.8h2.354v8.607l5.058-8.608h2.511v12.93h-2.354v-8.47l-5.058 8.47h-2.511v-12.93Zm6.453-3.738h1.168c-.067.797-.34 1.426-.814 1.88-.474.455-1.087.684-1.84.684-.755 0-1.369-.229-1.843-.683-.473-.455-.747-1.084-.814-1.881h1.17c.04.415.18.73.423.944.245.214.6.32 1.064.32.462 0 .817-.106 1.061-.32.244-.213.384-.53.424-.944Zm6.049 16.667v-12.93h2.528v5.093h4.919V88.88h2.529v12.93h-2.53v-5.652h-4.918v5.652H80.1Z" fill="#F4A7BC"/></svg>