<svg width="120" height="120" fill="none" xmlns="http://www.w3.org/2000/svg"><path fill-rule="evenodd" clip-rule="evenodd" d="M13.01 0h93.979C114.145 0 120 5.855 120 13.01v93.979c0 7.156-5.855 13.011-13.011 13.011H13.011C5.855 120 0 114.145 0 106.989V13.011C0 5.855 5.855 0 13.01 0Zm4.958 4.957h84.065c7.155 0 13.01 5.855 13.01 13.01v84.066c0 7.155-5.855 13.01-13.01 13.01H17.967c-7.155 0-13.01-5.855-13.01-13.01V17.967c0-7.155 5.855-13.01 13.01-13.01Z" fill="#216F24"/><path fill-rule="evenodd" clip-rule="evenodd" d="M59.14 63.012c.66-.332 5.464-5.429 6.65-6.65l6.463-6.8c8.12-9.279 22.981-.655 19.352 11.553-1.047 3.52-3.061 4.922-5.544 7.716L72.99 82.313l-.882-.704c-2.343-2.374-12.296-12.985-12.97-13.274-1.678 1.485-7.306 7.593-9.463 9.758l-6.393 6.677c-1.762 2.116-8.154 8.22-9.46 9.966h11.683s.56-.58 1.429-1.437L59.14 80.62c.932.547 8.722 9.025 10.252 10.534.657.647 1.036 1.06 1.753 1.758.606.59 1.064 1.236 1.694 1.768 1.377-1.193 6.57-6.832 8.476-8.748 2.253-2.266 12.357-12.583 14.917-15.712 9.699-11.857 2.063-33.189-15.439-33.185-10.34.002-14.849 6.962-21.458 13.636-.92-.412-17.273-17.804-20.2-20.75-1.282-1.29-4.06-4.492-4.748-4.778l-.01 11.692c.121.91 1.13 1.48 1.734 2.156 3.275 3.656 7.796 8.084 11.422 11.989L59.14 63.012Z" fill="#216F24"/><path fill-rule="evenodd" clip-rule="evenodd" d="M19.518 92.239c.363.979 1.109 1.826 1.582 2.497 4.935-.035 7.476 0 7.476 0 1.258-.525 10.469-10.598 12.255-12.417l7.9-8.292c1.192-1.302 2.565-2.576 3.933-4.064.908-.988 3.412-3.242 3.988-4.254-.41-.742-2.325-2.494-2.864-3.037-.776-.783-2.039-2.563-3.037-3.01-3.58 3.984-11.66 12.217-15.613 16.184-1.36 1.365-2.225 2.512-3.9 4.097l-11.72 12.296Z" fill="#216F24"/></svg>