<svg width="120" height="120" fill="none" xmlns="http://www.w3.org/2000/svg"><path fill-rule="evenodd" clip-rule="evenodd" d="M54.115 31.51C39.744 34.482 27.24 47.732 30.51 65.793 33.049 79.81 46.948 92.717 64.58 89.53c14.469-2.615 27.21-16.25 24.024-34.419-2.467-14.062-16.881-27.245-34.49-23.602Z" fill="#01A894"/><path fill-rule="evenodd" clip-rule="evenodd" d="M14.44 46.349c3.384-8.453 5.06-13.691 12.094-20.658 7.55-7.477 12.098-8.513 20.727-12.108 0 0-11.565-.162-16.47-.162-5.534 0-10.78-.952-14.224 2.303-3.29 3.108-2.324 8.931-2.324 14.22 0 4.46-.46 12.352.196 16.405ZM105.689 46.054c.475-4.789.129-11.152.129-16.11 0-5.386.976-11.11-2.345-14.267-3.322-3.156-8.823-2.256-14.263-2.256-4.767 0-16.462.182-16.462.182 9.711 3.637 14.387 5.76 20.462 11.917 2.77 2.807 4.964 5.344 7.311 9.198 1.03 1.69 1.883 3.354 2.759 5.285.915 2.017 1.374 4.33 2.409 6.05ZM73.157 106.519s11.252.153 16.053.153c5.098 0 11.425.875 14.369-2.238 3.126-3.306 2.241-8.523 2.241-13.954 0-4.752.427-12.017-.177-16.469-1.57 3.03-1.568 5.547-4.916 11.055-3.89 6.402-9.766 12.505-16.247 16.348-1.703 1.01-3.4 1.941-5.304 2.737-1.71.717-4.679 1.615-6.019 2.368ZM46.873 106.529c-4.488-2.738-13.324-3.03-24.088-16.51-3.83-4.796-6.549-10.004-8.315-16.31-.688 3.682-.226 11.775-.227 15.924 0 5.17-.91 11.26 2.033 14.512 3.124 3.452 8.513 2.527 14.09 2.527 5.006 0 16.508-.144 16.508-.144v.001Z" fill="#C9187C"/><path fill-rule="evenodd" clip-rule="evenodd" d="m47.75 54.92-.19 15.211 3.094.004.107-4.337c4.265-.045 8.845-.606 7.514-7.867-.817-4.459-6.476-5.375-10.524-3.011ZM76.142 53.985c-6.831 1.848-4.89 13.923 3.434 11.618 5.98-1.656 4.742-13.83-3.434-11.618Zm.739 2.843c-3.495.945-2.502 7.123 1.757 5.944 3.059-.847 2.425-7.075-1.757-5.944Z" fill="#FEFEFE"/><path fill-rule="evenodd" clip-rule="evenodd" d="m70.314 64.39.084-10.494-3.104-.205-.12 8.766c-6.35.323-3.554-3.126-4.327-8.682l-2.851-.091c-.397 3.065-.842 8.443 1.042 10.364 2.397 2.445 6.247 1.646 9.276.342ZM35.35 54.852l-.05 10.752 3.078.013c.305-6.497-1.026-9.332 2.092-9.01 3.172.367 2.366 6.295 2.448 9.034l2.793.027c1.748-10.1-1.212-13.623-10.36-10.816Z" fill="#FEFEFE"/><path fill-rule="evenodd" clip-rule="evenodd" d="M50.742 62.835c5.894 1.233 6.15-7.116.165-6.013l-.165 6.013Z" fill="#01A894"/></svg>