<svg width="120" height="120" fill="none" xmlns="http://www.w3.org/2000/svg"><path fill-rule="evenodd" clip-rule="evenodd" d="M34.779 75.501c0 6.108 19.886 7.258 24.969 7.294l7.706-.425c4.156-.178 17.687-2.163 17.687-6.66 0-2.964-6.586-4.822-9.38-5.397-9.825-2.02-27.911-2.428-37.028 1.65-1.231.551-3.954 1.936-3.954 3.538ZM34.779 93.19c0 1.619 2.348 2.294 3.561 2.682 1.562.5 3.205.717 5.06.977 7.593 1.065 31.066 1.299 38.18-.977.806-.258 3.561-1.207 3.561-2.473 0-1.207-.635-1.676-1.449-2.09-.87-.441-1.638-.765-2.708-1.037-5.741-1.461-14.632-1.675-20.814-1.663-5.43.01-15.741.404-20.898 1.583-1.647.376-4.493 1.209-4.493 2.999ZM34.779 105.677c0 1.037 1.753 1.177 2.817 1.345 1.099.175 2.943.33 4.046.325 2.961-.012 5.425.203 8.537.203h19.562c2.283 0 10.234-.182 12.406-.497 4.87-.706 3.564-2.678-1.179-3.03-6.337-.469-17.705-.427-24.546-.427-3.745 0-16.235.101-19.835.768-.886.165-1.808.377-1.808 1.313Z" fill="#F36F21"/><path d="M59.96 62.809c13.907 0 25.181-11.274 25.181-25.181 0-13.907-11.274-25.182-25.18-25.182-13.908 0-25.182 11.275-25.182 25.182 0 13.907 11.274 25.181 25.181 25.181Z" fill="#F36F21"/></svg>