<svg width="120" height="120" fill="none" xmlns="http://www.w3.org/2000/svg"><path fill-rule="evenodd" clip-rule="evenodd" d="m20.585 85.14 71.753-.003c.373-.088.237-.188.563-1.214l5.637-18.497c.264-.886.74-2.061.876-2.95l-71.869-.02-6.081 19.732c-.263.948-.685 1.968-.879 2.952Z" fill="#00ABC9"/><path fill-rule="evenodd" clip-rule="evenodd" d="m39.075 42.615-.378-1.514-4.679-.027-.007 18.7h5.868l.003-6.037c.45.106.26.108.683.389 3.012 1.994 9.67.466 9.069-7.045-.515-6.427-5.962-7.573-9.139-5.6-.77.479-.68.803-1.42 1.134Zm.84 6.839c4.8 3.203 4.791-5.852.629-3.828-.285.139-.45.258-.545.414-.147.24-.128.566-.12 1.18.008.744-.026 1.496.035 2.234ZM90.043 44.045c.472-4.65 7.726-2.182 7.855-4.863.062-1.278.027-3.029-.017-4.322l-7.192 1.574c-5.306 1.784-6.816 6.206-6.347 11.468.202 2.269 1.086 4.615 3.105 5.85 3.446 2.11 10.83 1.535 11.661-3.998.649-4.31-1.974-7.683-6.047-7.136-2.05.275-2.369 1.114-3.018 1.427Zm.912 2.577c-1.803.916-1.005 4.65 1.524 3.612 1.91-.785.908-4.847-1.524-3.612ZM51.677 54.463l5.879.002v-4.467l2.684.006.012 4.472 5.874-.015V41.084l-5.875-.02.004 4.409-2.71.026.01-4.429-5.881-.004.003 13.397ZM68.543 54.479l5.862-.024-.002-4.464 1.435.005 1.738 4.47 5.851-.02c-.786-2.202-1.589-4.468-2.417-6.673-.315-.84-.303-.751.045-1.61.247-.614.43-1.115.64-1.673.386-1.027.983-2.403 1.256-3.434l-5.756.012-1.733 4.401-1.064.031.008-4.368-5.866-.07.003 13.417Z" fill="#303D49"/></svg>