<svg width="102" height="56" fill="none" xmlns="http://www.w3.org/2000/svg"><path fill-rule="evenodd" clip-rule="evenodd" d="M19.335 24.706c-9.017 1.808-6.302 14.976 2.427 13.406 3.32-.597 6.284-3.851 5.49-8.037-.611-3.222-3.856-6.183-7.917-5.369Zm26.78 13.27 2.839.012.01-8.407c.887.908 2.61 4.007 3.358 4.979l.377.375 3.705-5.437.025 8.484c.85.01 2.115.138 2.89-.091l.005-12.994c-.675-.204-2.41-.15-3.14-.05l-3.427 5.438-3.503-5.475-3.131-.012-.008 13.179Zm-16.375.005 2.792.02.08-8.401c.745.784 2.774 4.167 3.653 5.392.818-.726 2.904-4.625 3.768-5.421l.027 8.415 2.797.017c.277-.894.116-11.421.085-13.195l-3.066-.009-3.471 5.477c-.828-.696-2.612-4.411-3.581-5.486h-3.022l-.062 13.192ZM.81 20.636l2.802.008.045-8.448c.985 1.092 3.133 4.99 3.745 5.392l3.654-5.449.07 8.5 2.827.004.043-13.212-3.136-.004-3.402 5.495-3.524-5.484-3.102-.011-.022 13.21Zm0 34.72c4.137.052 9.107.708 10.255-3.028.63-2.05-.22-3.923-1.525-4.675-2.078-1.198-3.735-.409-5.831-.846l-.008-1.97 5.558-.06 1.066-2.604-9.487-.03L.81 55.354Zm74.483-17.404 2.916.036.006-3.932c2.22-.095 4.078.16 5.7-.991 1.287-.914 2.215-2.655 1.692-4.886-.41-1.753-1.728-2.903-3.565-3.258-1.218-.235-5.421-.206-6.743-.088l-.006 13.12v-.001Zm12.892.032 13.001.004.006-2.67-2.074-.024-.018-10.458-2.91-.039-.008 10.497h-5.094l-.006-10.487-2.892-.009-.005 13.186Zm-60.48 17.369 2.858.006.042-5.225 5.342-.076.02 5.298 2.88-.007.024-13.167-2.883-.043-.036 5.226-5.318.006-.04-5.224-2.858-.006-.032 13.212Zm-15.645-.028 2.868.033c.361-.47 1.058-2.3 1.253-2.941l5.577-.016 1.256 2.954 2.952.003c-.121-.694-5.278-12.784-5.649-13.309l-2.55-.002-5.707 13.278Zm50.413-17.37 10.042.034.008-2.571-7.12-.008-.03-2.748 6.21-.028.004-2.546-6.203-.049-.005-2.655 7.045-.013.006-2.567-9.953-.003-.005 13.155Zm-20.9-19.578c-.556-.451-1.309-1.323-1.836-1.66-1.232.81-2.453 2.023-4.69 1.247-3.395-1.178-3.424-6.491-.115-7.816 2.369-.948 4.004.83 4.832 1.184.472-.73 1.27-1.265 1.676-2.095-2.524-3.56-12.245-2.704-12.013 5.018.094 3.105 1.984 5.3 4.292 6.16 2.822 1.053 6.814.063 7.853-2.038ZM19.74 27.492c-5.5 1.312-3.248 9.047 1.745 7.817 1.838-.452 3.537-2.384 2.984-4.822-.424-1.867-2.393-3.553-4.73-2.995ZM45.82 48.68l5.313 6.676 3.557.003c-.339-.84-4.838-5.622-5.552-6.713.831-1.076 1.678-2.07 2.568-3.19.787-.989 1.992-2.284 2.608-3.27l-3.454-.042c-.785 1.053-1.67 2.12-2.492 3.184-.587.758-2.267 2.668-2.548 3.352ZM4.597 31.258c.271.567.815 1.127 1.26 1.68l4.054 5.008 3.542.043c-.332-.68-2.083-2.563-2.726-3.367-.601-.751-2.47-2.691-2.774-3.364l2.538-3.184c.59-.714 2.23-2.576 2.544-3.266-.791-.017-2.988-.235-3.538.175l-3.269 4.125c-.498.63-1.228 1.46-1.63 2.15Zm37.425 24.04 2.874.067.034-13.217-2.897.01-.01 13.14ZM.81 37.983l2.884.006.006-13.182L.814 24.8.809 37.982Zm77.402-6.564c2.123.102 4.552.287 4.585-1.972.033-2.327-2.526-2.055-4.537-2.034l-.048 4.006ZM3.716 52.712c1.702.037 4.463.381 4.568-1.523.12-2.168-2.863-1.744-4.55-1.699l-.018 3.223ZM17.317 49.8l.678.02 1.951-.003.776-.042-1.682-4.138c-.519 1.025-1.44 3.105-1.723 4.163Z" fill="#018BAF"/><path fill-rule="evenodd" clip-rule="evenodd" d="M21.241.73c-9.498 2.231-5.819 15.083 2.387 13.433 3.354-.674 6.221-3.808 5.48-7.935-.58-3.224-3.94-6.422-7.867-5.499Zm.304 2.811c-5.648 1.688-2.904 9.105 1.884 7.787 1.807-.497 3.519-2.435 2.885-4.831-.477-1.805-2.417-3.658-4.769-2.956Z" fill="#FAB926"/></svg>