<svg width="120" height="120" fill="none" xmlns="http://www.w3.org/2000/svg"><path fill-rule="evenodd" clip-rule="evenodd" d="M109.484 97.468c.066-20.885 0-71.953 0-91.996l-98.997-.069c-.396 1.898-.13 44.497-.13 47.644l-.022 41.728c-.02 1.413.001 2.693.001 2.693 12.862.113 99.148 0 99.148 0Z" fill="#9E1010"/><path fill-rule="evenodd" clip-rule="evenodd" d="m17.602 90.421 84.78.118.053-78.314-84.752-.06-.08 78.256Z" fill="#FEFEFE"/><path fill-rule="evenodd" clip-rule="evenodd" d="M85.97 38.1c-4.797-3.492-10.021-5.158-16.961-5.656l-.312-16.557s-31.293.108-46.938.147l-.015 66.358c10.48.027 20.965-.006 31.446-.01 2.366.02 5.554 1.985 8.544 2.52 9.108 2.6 20.73-.507 27.612-7.229 11.988-11.711 10.224-29.679-3.375-39.574Z" fill="#9E1010"/><path fill-rule="evenodd" clip-rule="evenodd" d="M25.247 79.083s19.759.089 27.412.039c3.36-.022 4.145 1.136 7.007 2.108 21.465 7.291 42.436-14.497 31.198-33.308-2.345-3.924-5.495-6.85-9.444-8.942-4.896-2.594-10.45-3.301-15.945-2.995l-.078-16.793-40.037-.005-.113 59.896Z" fill="#FEFEFE"/><path fill-rule="evenodd" clip-rule="evenodd" d="M51.254 77.09c-.037-.026-8.822-6.768-7.932-19.332.788-11.123 9.538-16.308 10.136-17.306-3.362-2.592-7.97-2.672-11.165-2.732l-.084-5.55 20.74-.051-.035-10.894h-8.687l-26.788.006-.041 55.86h23.856Z" fill="#9E1010"/><path fill-rule="evenodd" clip-rule="evenodd" d="M58.842 39.783c.31-.169 10.082 6.284 10.33 18.772.2 10.131-4.77 13.748-10.253 19.419 0 0 4.326 2.647 11.324 2.647 21.29-.812 29.712-27.588 11.131-38.968-3.073-1.882-6.209-3.167-10.473-3.671-3.592-.424-9.435.279-12.059 1.801Z" fill="#9E1010"/><path fill-rule="evenodd" clip-rule="evenodd" d="M56.172 48.385c4.408 0 9.65 4.77 9.65 4.77-1.178-2.639-6.293-11.792-9.847-11.755-3.268 0-9.075 11.756-9.075 11.756s4.375-4.953 9.272-4.771ZM62.359 34.373s-11.427.02-11.593.024c5.21 3.82 5.12 3.79 5.21 3.82 0 0 6.233-3.715 6.383-3.844Z" fill="#9E1010"/><path d="M11.938 100.122h8.15v1.843h-5.941v2.529h2.942c.81 0 1.485.099 2.018.297.536.198.993.563 1.37 1.099.38.533.57 1.16.57 1.878 0 .736-.19 1.368-.574 1.894-.38.523-.815.883-1.305 1.076-.487.193-1.183.29-2.084.29h-5.146v-10.906Zm2.209 9.063h2.14c.683 0 1.165-.033 1.442-.099.276-.066.52-.216.726-.452.205-.234.307-.523.307-.866 0-.5-.18-.863-.538-1.091-.36-.226-.972-.341-1.84-.341h-2.237v2.849Zm17.937 1.843h-2.379l-.941-2.483H24.39l-.906 2.483h-2.336l4.234-10.906h2.333l4.369 10.906Zm-4.036-4.326-1.516-4.036-1.472 4.036h2.988Zm5.211 4.326v-10.906h2.209v4.295h4.295v-4.295h2.208v10.906h-2.208v-4.768h-4.295v4.768h-2.209Zm11.03-10.906h2.208v4.646c.49-.051.823-.175.995-.381.173-.203.442-.769.803-1.698.454-1.181.913-1.917 1.373-2.204.457-.287 1.19-.431 2.206-.431.05 0 .157-.003.32-.008v1.63l-.313-.008c-.451 0-.782.056-.99.168a1.261 1.261 0 0 0-.505.51c-.13.228-.32.698-.57 1.409-.136.378-.28.693-.438.947-.154.254-.431.492-.827.716.49.137.893.418 1.213.84.32.421.67 1.015 1.051 1.784l1.485 2.986h-2.589l-1.307-2.808c-.02-.041-.064-.117-.127-.231a11.944 11.944 0 0 1-.274-.513c-.28-.538-.508-.873-.686-1.008-.18-.134-.452-.203-.82-.208v4.768H44.29v-10.906Zm16.817 4.539h3.412c-.089-.812-.36-1.487-.812-2.026-.452-.538-1.066-.807-1.84-.807-.59 0-1.082.165-1.483.493-.401.327-.683.761-.845 1.304l-2.178-.502c.223-.967.713-1.742 1.474-2.326.76-.581 1.747-.873 2.965-.873 1.584 0 2.823.528 3.714 1.584s1.335 2.432 1.335 4.128c0 1.152-.205 2.142-.619 2.972-.414.831-.982 1.475-1.706 1.932-.72.457-1.591.686-2.612.686-2.48 0-4.008-1.173-4.582-3.519l2.209-.685c.114.787.393 1.368.84 1.746.45.379.982.569 1.604.569.645 0 1.193-.226 1.65-.675.457-.45.752-1.171.886-2.158h-3.412v-1.843Zm7.72-4.539h7.638v10.906h-2.208v-9.063H70.98v4.656c0 1.333-.046 2.264-.134 2.79-.09.528-.305.941-.65 1.236-.346.294-.884.442-1.617.442-.26 0-.727-.026-1.407-.074v-1.708l.493.007c.46 0 .771-.061.929-.185.16-.125.238-.429.238-.914l-.007-1.873v-6.22Zm9.933 0h2.056v7.26l4.417-7.26h2.193v10.906H85.37v-7.144l-4.417 7.144h-2.193v-10.906Zm13.37 10.906v-9.063H88.9v-1.843h8.651v1.843h-3.214v9.063H92.13Zm15.716 0h-2.379l-.942-2.483h-4.373l-.907 2.483H96.91l4.234-10.906h2.333l4.369 10.906Zm-4.036-4.326-1.516-4.036-1.472 4.036h2.988Z" fill="#9E1010"/><path fill-rule="evenodd" clip-rule="evenodd" d="M56.172 68.725c4.408 0 9.65-4.77 9.65-4.77-1.178 2.639-6.293 11.792-9.847 11.755-3.268 0-9.075-11.756-9.075-11.756s4.375 4.953 9.272 4.771Z" fill="#9E1010"/></svg>