<svg width="120" height="120" fill="none" xmlns="http://www.w3.org/2000/svg"><path fill-rule="evenodd" clip-rule="evenodd" d="M43.462 23.473c-.812-.531-.674-.545-1.611.017-2.963 1.778-6.844 3.815-10.007 5.645-.552.32-1.288.559-1.518 1.128-.116 1.51 5.51.73 6.834 7.25.2.982.353 2.068.427 3.102.07.992-.333 2.497.319 3.139.833.82 1.764.02 2.406-.37l17.552-10.62c.429-.263 1.907-1.286 2.248-1.206.256.06 3.713 2.296 4.306 2.66l15.418 9.264c.68.398 1.585 1.114 2.331.337.802-.833-.187-3.029.729-6.385.508-1.864 1.45-3.598 2.54-4.552.64-.56 1.23-.922 2.142-1.342.935-.43 2.08-.384 2.098-1.518-.093-.267-8.295-4.813-9.567-5.478-.697-.364-2.737-1.803-3.431-1.38-.449.782.18 3.264-1.02 5.234-2.085 3.425-7.216 1.991-6.775-1.724.359-3.028 4-4.853 4.253-5.139.674-.761-.603-1.236-1.186-1.592-1.33-.812-2.577-1.548-3.909-2.353-.954-.577-7.465-4.542-7.905-4.625-.617-.115-10.819 6.302-11.803 6.892-2.538 1.524-1.575 1.266.293 2.946.953.857 2.193 2.008 2.598 3.66.84 3.422-4.378 5.676-6.662 2.328-.947-1.386-1.028-3.36-1.1-5.318Zm-1.359 1.483-8.937 5.017c.915.693 1.432.58 2.715 1.962 1.538 1.656 2.61 3.705 3.063 6.089.779 4.09-1.585 5.51 2.813 2.947.958-.559 1.734-1.025 2.646-1.566 1.805-1.07 3.454-2.07 5.195-3.11 1.118-.668 10.146-6.228 10.455-6.216.253.01 13.448 8.027 15.564 9.312.907.55 1.736 1.043 2.625 1.589 3.618 2.22 2.873 1.266 2.7-.796-.29-3.44 1.723-7.506 4.49-9.35a9.63 9.63 0 0 1 .747-.455c.385-.213.486-.193.746-.493l-6.773-3.695c-.539-.308-1.725-1.104-2.243-1.244-.216 2.11-.26 3.41-1.38 4.682-2.728 3.094-6.788 2.01-8.466.101-1.026-1.167-1.2-3.11-.35-4.706 1.965-3.689 4.565-3.295 1.953-4.844-1.52-.9-9.217-5.728-9.608-5.732-.273-.002-6.72 3.948-7.608 4.474-.652.385-1.258.73-1.894 1.118-2.225 1.354-1.278 1.153.434 3.046 6.121 6.766-3.79 11.338-7.483 6.639-.963-1.225-1.273-2.833-1.404-4.77Z" fill="#017842"/><path fill-rule="evenodd" clip-rule="evenodd" d="M60.763 102.835c.62-.378 5.322-5.044 6.295-5.984 3.876-3.744 8.303-8.866 11.025-13.783 1.273-2.299 2.85-6.624 3.201-9.254-.595.293-1.014.687-1.76.954-2.922 1.046-4.959-.385-6.679-.83-5.748-1.482-8.725 7.181-9.562 11.436-.445 2.264-.977 8.863-1.259 9.576-.136-4.508-.367-9.071.195-13.556.903-7.204 2.36-18.23 12.189-12.619 1.564.893 4.47 2.8 6.39 2.094.682-.251.626-.358.944-.875.447-.729.96-1.076 1.385-2.135 1.063 4.045-.744 9.278-2.15 12.448-2.59 5.842-6.356 10.01-10.375 14.427-.336.37-.572.654-.908 1.021-1.556 1.699-4.047 3.98-5.73 5.708-.673.692-3.344 3.476-3.9 3.808-.676-.426-7.657-7.474-8.154-8.022-.405 1.48-.295 1.257 1.307 2.946.972 1.025 6.17 6.221 6.967 6.841 1.468-1.099 6.994-7.505 9.574-9.775.394-.347.71-.712 1.092-1.072 4.87-4.607 9.938-11.597 12.334-18.012.764-2.044 1.495-4.547 1.688-6.976.112-1.405.115-2.893-.08-4.248a18.925 18.925 0 0 0-.353-1.832c-.218-.916-.116-1.016-1.113-.976-.794 1.197-.999 2.994-2.066 4.167-1.509 1.66-2.238.956-4.114.01-1.42-.716-2.596-1.552-3.918-2.344-1.944-1.165-2.659-1.114-5.089-.782l-.012-12.576c.843.288 11.668 6.43 12.592 6.964.054-.922-.447-2.938-.565-4.04-.19-1.765-.05-2.884.02-4.58-.87-.322-13.134-7.436-14.523-8.23-1.563-.892-3.285-2.032-4.853-2.795l-.034 62.897v-.001Zm7.564-13.047.17-.126c1.787-1.647 5.788-10.252 5.743-13.29-1.061-.769-2.87-.76-3.936-.106-.517.318-.975.829-1.324 1.195-.66.692-.58.82-.616 2.041-.104 3.426-.03 6.858-.037 10.286Z" fill="#017842"/><path fill-rule="evenodd" clip-rule="evenodd" d="M39.857 51.086c.785 5.378-1.327 10.458-1.596 15.048-.14 2.397.185 6.288 3.346 4.91.868-.38 1.812-1.071 2.666-1.545 6.568-3.648 10.27-3.4 12.346 4.546 1.209 4.63 1.71 10.586 1.68 15.691-.007 1.17.054 4.165-.244 5.081-.39-5.408-1.343-12.58-4.098-17.15-4.385-7.276-8.28-.725-13.509-2.864-.777-.318-1.15-.722-1.69-1.06.275 2.712 2.452 7.7 3.706 10.116 1.194 2.3 4.05 6.359 5.922 7.915.51-.586 1.04-2.89 1.344-3.835.62-1.92-3.684-6.842-3.91-11.621 1.485-.24 2.29-.98 3.782-.194.983.518 1.76 1.355 2.129 2.564.387 1.268.12 8.555.12 11.53.001 1.644.017 3.302.042 4.945.018 1.151.858 1.264 2.26 2.771.248.267 4.835 4.65 5.21 4.832l-.03-62.947c-2.502 1.316-6.78 4.077-9.642 5.717-2.495 1.43-7.504 4.432-9.834 5.55Zm5.791 15.49c.888-.395 1.666-.876 2.714-1.176 1.553-.446 2.358-.085 3.582-.273l.03-12.471c-6.696-.95-7.468 11.866-6.326 13.92Z" fill="#017842"/><path fill-rule="evenodd" clip-rule="evenodd" d="M51.1 21.234c.28.55 1.395 1.44 1.935 2.215 5.5 7.89-6.978 12.867-10.74 6.523-2.02-3.404.243-4.027-5.188-.622l-1.226.913c1.533 1.447 2.175 1.743 3.323 4.01.468.924.711 1.654 1.058 2.678.258.759.5 2.586.725 2.996.473-.013 18.38-11.376 19.007-11.492.351-.065 8.5 4.957 9.544 5.581 1.303.779 9.086 5.648 9.732 5.788.252-.71.451-2.115.688-2.94.282-.983.611-1.85 1.03-2.69a9.8 9.8 0 0 1 1.446-2.148c.572-.633 1.684-1.556 1.832-1.903l-5.046-3.21c-.621.985-.381 3.453-3.382 5.036-2.15 1.135-4.762 1.103-6.932.053-1.82-.88-3.262-2.622-3-5.47.16-1.741 1.042-3.106 2.123-4.215.36-.371.82-.61 1.062-1.1-1.108-.565-8.547-5.251-9.01-5.218-.178.012-8.028 4.675-8.98 5.215Z" fill="#FCC302"/><path fill-rule="evenodd" clip-rule="evenodd" d="m47.556 94.172.57-1.049c-.364-.432-.596-.638-1.073-1.09-2.073-1.965-5.247-6.612-6.628-9.14-2.103-3.85-3.67-9.18-3.662-14.466.007-5.188 2.177-12.87 1.823-15.851-.083-.698-.252-1.62-.264-2.308l5.512-3.002c1.828-.991 3.67-2.045 5.44-3.106 1.82-1.092 3.579-2.097 5.341-3.208.608-.383 5.204-3.285 5.356-3.306.461-.061 9.49 5.727 10.694 6.458l8.189 4.695c.867.478 2.128.98 2.86 1.446.051.601-.313 1.531-.356 2.406-.118 2.39.046 5.424.932 7.488l1.141.02c-.316-2.126-.844-3.802-.842-6.179.002-3.426 2.053-4.124-1.506-5.845-2.795-1.352-2.808-1.31-5.565-2.986-3.578-2.174-7.3-4.199-10.875-6.342l-3.967-2.416c-.683-.44-.748-.397-1.476-.003-6.005 3.25-10.526 6.49-16.172 9.712-1.801 1.027-3.74 2.002-5.58 2.96-1.393.725-.39 1.662-.199 3.067.516 3.776-2.246 11.11-1.654 19.548.59 8.413 4.77 14.443 9.832 20.295.463.535 1.623 1.883 2.129 2.202Z" fill="#017842"/></svg>