<svg width="120" height="120" fill="none" xmlns="http://www.w3.org/2000/svg"><path fill-rule="evenodd" clip-rule="evenodd" d="M56.102 13.993c-7.367.851-11.955 2.289-17.664 5.293-4.231 2.226-9.904 6.672-12.772 10.286-.86 1.082-1.642 1.98-2.471 3.104-.897 1.215-1.523 2.197-2.3 3.463-11.798 19.224-7.242 43.98 8.89 58.536 7.446 6.717 19.915 12.668 34.211 11.364 6.993-.638 12.295-2.587 17.582-5.311 2.679-1.38 4.762-3.003 6.91-4.616 6.166-4.628 11.761-12.943 14.378-20.02 6.148-16.627 2.188-35.291-9.78-47.875-4.835-5.085-9.69-8.616-17.136-11.515-5.428-2.112-13.279-3.468-19.848-2.709Zm28.383 79.562c-.264-1.133-6.507-9.851-7.599-11.712.615-.938 3.532-3.338 4.676-4.373.663-.599.925-1.003 1.621-1.486l7.71 11.494.819-.786c.388-.463.45-.527.735-.945-.2-.75-2.987-4.712-3.627-5.68-.67-1.016-3.485-4.982-3.694-5.912 1.161-.72 1.95-1.673 3.023-2.733.414-.41 2.785-2.629 3.174-2.838l1.577 2.2c.948 1.454 3.78 6.003 4.549 6.747.215-.427.626-1.252.808-1.786.373-1.093-.036-1.157-.562-1.95l-6.372-9.73-7.436 6.626C77.004 76.754 68.09 86.176 60.89 90.08c-16.962 9.202-29.971-.227-34.655-14.534-2.578-7.875-1.859-16.94 1.448-23.889 2.766-5.811 8.134-10.994 15.329-12.913 9.244-2.464 16.296 2.475 19.995 7.093.487.606 10.578 15.24 11.433 17.044-.36.641-.982.944-1.534 1.476-1.025.987-4.028 3.918-4.873 4.31-.348-.875-1.665-2.638-2.31-3.609L53.401 46.707c-1.867-2.007-4.987-4.219-8.826-2.512-15.24 6.778-11.433 53.799 9.065 41.424 1.343-.811 2.48-1.633 3.631-2.506l6.545-5.727c1.794-1.634 4.598-4.482 6.35-5.918l4.793-4.318c.674-.626.968-.974 1.637-1.522l4.784-4.326c.699-.68.956-.935 1.646-1.514.57-.478.959-.97 1.528-1.443l8.07-7.285c.52.404 7.898 11.456 8.321 12.442.724-1.1.227-6.974.101-8.095a41.49 41.49 0 0 0-1.512-7.44c-2.609-8.688-7.731-15.85-14.548-21.134-12.238-9.485-27.239-10.872-41.473-5.08-3.575 1.456-8.721 4.896-10.846 7.012-3.7 3.684-5.214 5.153-8.044 9.798-11.53 18.921-4.811 41.129 7.575 52.216 10.971 9.82 26.059 13.873 40.56 8.904 4.051-1.389 8.897-3.695 11.726-6.128ZM44.691 25.112c8.716-.114 10.877 4.717 14.719 10.567l15.154 22.952c.492.748 1.308 1.833 1.653 2.612.527-.218 5.484-4.661 6.358-5.611-.147-.786-13.541-20.813-14.359-22.067-2.697-4.134-4.262-7.583-8.658-9.552-2.351-1.053-5.25-1.392-8.008-1.09-1.995.219-5.762 1.15-6.859 2.19Zm15.5-3.001c.79.662 2.56.623 4.46 2.566 2.107 2.156 18.588 27.9 19.794 29.103.645-.245.305-.133.837-.656.957-.943 4.946-4.296 5.396-4.928-.427-1.006-2.024-3.142-2.748-4.232-.995-1.497-1.845-2.77-2.824-4.24-1.91-2.868-3.794-5.694-5.722-8.592-2.058-3.094-3.793-5.082-7.188-6.945-2.212-1.214-9.002-3.227-12.006-2.076Z" fill="#2B995C"/></svg>