<svg width="120" height="120" fill="none" xmlns="http://www.w3.org/2000/svg"><path fill-rule="evenodd" clip-rule="evenodd" d="M0 0h120v120H0V0Z" fill="#082E75"/><mask id="a" style="mask-type:luminance" maskUnits="userSpaceOnUse" x="0" y="0" width="120" height="120"><path d="M0 0h120v120H0V0Z" fill="#fff"/></mask><g mask="url(#a)"><path d="M120 0H0v120h120V0Z" fill="url(#b)"/><path d="M98.766 20.39H20.788v78.613h77.978V20.39Z" fill="#FEFEFE"/><path fill-rule="evenodd" clip-rule="evenodd" d="M44.03 35.78h40.385l-9.144 15.724H34.885L44.03 35.78Z" fill="#082E75"/><mask id="c" style="mask-type:luminance" maskUnits="userSpaceOnUse" x="34" y="35" width="51" height="17"><path d="M44.03 35.78h40.385l-9.144 15.724H34.885L44.03 35.78Z" fill="#fff"/></mask><g mask="url(#c)"><path d="M119.65-.24h-120v120h120v-120Z" fill="url(#d)"/></g><path fill-rule="evenodd" clip-rule="evenodd" d="M44.03 68.015h40.385l-9.144 15.724H34.885l9.144-15.724Z" fill="#082E75"/><mask id="e" style="mask-type:luminance" maskUnits="userSpaceOnUse" x="34" y="68" width="51" height="16"><path d="M44.03 68.015h40.385l-9.144 15.724H34.885l9.144-15.724Z" fill="#fff"/></mask><g mask="url(#e)"><path d="M119.65-.24h-120v120h120v-120Z" fill="url(#f)"/></g></g><defs><linearGradient id="b" x1=".001" y1="6000" x2="12000" y2="6000" gradientUnits="userSpaceOnUse"><stop stop-color="#006EB9"/><stop offset="1" stop-color="#08296F"/></linearGradient><linearGradient id="d" x1="-.349" y1="5999.76" x2="11999.6" y2="5999.76" gradientUnits="userSpaceOnUse"><stop stop-color="#006EB9"/><stop offset="1" stop-color="#08296F"/></linearGradient><linearGradient id="f" x1="-.349" y1="5999.76" x2="11999.6" y2="5999.76" gradientUnits="userSpaceOnUse"><stop stop-color="#006EB9"/><stop offset="1" stop-color="#08296F"/></linearGradient></defs></svg>