<svg width="120" height="120" fill="none" xmlns="http://www.w3.org/2000/svg"><path fill-rule="evenodd" clip-rule="evenodd" d="M18.903 85.278c3.007-.94 2.066-1.508 8.594-3.016 16.886-3.901 61.434-4.532 73.279 3.05 3.767-5.243 6.808-14.758 7.222-22.693-4.313 1.406-3.959 2.02-10.374 3.341-21.64 4.46-68.477 5.13-85.587-3.317-.472 2.912 1.33 9.736 2.217 12.396 1.765 5.29 4.025 8.412 4.649 10.24Zm73.92-56.763 4.273 1.066c-1.016-1.703-1.457-1.83-2.7-3.094-5.422-5.515-11.052-9.374-18.517-11.96-6.678-2.313-14.194-3.295-21.716-2.367-9.72 1.2-18.734 5.308-25.597 11.315-2.391 2.093-4.106 3.426-5.921 6.23 6.394-2.054 16.162-3.566 23.13-3.737 9.952-.41 18.115-.37 28.053-.019 5.269.205 14.002 1.157 18.995 2.567ZM23.052 36.7l-4.237-1.973c-.477 1.517-2.874 5.135-4.539 10.244-1.145 3.514-2.355 8.522-2.359 12.494 11.072-4.01 5.678-2.097 16.544-4.501 9.712-.855 18.165-1.932 28.231-2.036 10.385-.108 19.245.72 29.344 1.326 5.526.873 11.739 1.492 17.095 3.228 1.961.636 3.316 1.352 4.952 1.993-.165-4.328-1.081-8.551-2.338-12.43-.845-2.602-3.433-8.841-4.887-10.23-1.296.646-2.12 1.218-3.81 1.827-1.093.394-3.133.746-4.06 1.178l-13.4 1.983c-6.039.304-11.766.825-17.864.89-6.329.066-12.127-.294-18.35-.64-3.161-.325-6.88-.63-10.295-1.146-3.723-.563-6.542-1.4-10.027-2.207Zm36.995 71.487a47.294 47.294 0 0 0 21.676-5.266c4.91-2.542 12.351-7.702 15.113-12.267-2.709.493-5.434 1.412-8.38 1.913-14.388 2.446-33.622 2.62-48.224 1.158-8.375-.839-9.421-1.316-17.096-3.057.859 1.874 4.9 5.192 6.738 6.77 7.705 6.621 19.24 10.766 30.173 10.749Z" fill="url(#a)"/><defs><radialGradient id="a" cx="0" cy="0" r="1" gradientUnits="userSpaceOnUse" gradientTransform="matrix(50.3456 0 0 50.455 54.228 28.195)"><stop stop-color="#fff"/><stop offset=".271" stop-color="#F5B28F"/><stop offset="1" stop-color="#EB6520"/></radialGradient></defs></svg>