<svg width="120" height="120" fill="none" xmlns="http://www.w3.org/2000/svg"><path fill-rule="evenodd" clip-rule="evenodd" d="m0 44.176 7.964 3.72.058 24.401L0 75.897V120h44.176l3.72-7.966 24.404-.058L75.897 120H120V75.823l-7.965-3.72-.058-23.503L120 44.097V0H75.822L72.3 8.022 47.79 7.98 44.104 0H0v44.176Zm16.05-16.75s3.607 1.766 7.95 2.499v60.15l-7.45 1.729-.573 12.218h12.267L29.924 96h60.151l1.912 8.022h12.035c0-7.216.06-11.891.06-11.891L96 90.075v-60.15l8.161-4.194-.139-9.755-11.21.21L90.074 24h-60.15l-1.634-7.67-12.313-.354.073 11.45Z" fill="#10923C"/></svg>