<svg width="120" height="120" fill="none" xmlns="http://www.w3.org/2000/svg"><path fill-rule="evenodd" clip-rule="evenodd" d="M0 120h120V0H0v120Z" fill="#000"/><path fill-rule="evenodd" clip-rule="evenodd" d="M16.088 71.183c3.95.301 10.673.615 13.176-1.47 3.146-2.623 2.521-8.11-.543-10.19 1.035-1.176 2.163-2.032 2.158-4.666-.004-2.197-.897-3.812-2.235-4.881-2.127-1.697-9.338-1.457-12.55-1.183l-.006 22.39ZM66.32 71.205l4.119.005V56.88l8.047 14.299 5.002-.003-.001-22.418h-4.102v14.266c0-.045-8.946-14.266-8.946-14.25l-4.101.004-.017 22.427ZM47.056 71.21l4.318.016 1.032-3.06 7.982.106 1.087 2.897 4.229.067-7.739-22.478h-3.343L47.056 71.21ZM108.529 59.972l-4.097.006c-.543 7.987-8.963 9.317-12.856 5.388-3.67-3.703-3.214-11.968 5.283-12.926l.03-4.065c-5.144-.314-9.028 3.429-10.532 6.654-2.323 4.978-.593 10.175 2.218 13.104 7.001 7.296 19.904 2.47 19.954-8.161ZM33.172 71.164l13.262.066.007-3.922c-.77-.001-9.034.039-9.153-.067 0 0 .037-15.898 0-18.457l-4.111-.028-.005 22.408Z" fill="#FEFEFE"/><path fill-rule="evenodd" clip-rule="evenodd" d="M20.358 61.688c-.02.003-.002 5.81.037 5.819 6.233 1.343 9.577-7.128-.037-5.819ZM20.358 52.62v5.224c6.601 1.21 8.405-6.917 0-5.223ZM59.015 64.122l-2.522-7.53c-1.008 2.46-2.096 4.985-2.835 7.53-.008.027 5.357 0 5.357 0Z" fill="#000"/></svg>