<svg width="120" height="120" fill="none" xmlns="http://www.w3.org/2000/svg"><path fill-rule="evenodd" clip-rule="evenodd" d="m50.49 41.406-18.758-.002-.097 56.19 18.855.099V79.448c0-.096 19.022-.118 19.022-.118v18.364l18.79-.063.062-56.211-18.852-.026V59.54H50.49V41.406ZM38.97 18.332c-12.312 3.052-7.674 21.03 4.434 18.176 11.987-2.827 7.713-21.186-4.435-18.176ZM76.53 18.383c-12.225 3.227-7.311 21.19 4.826 18.062 4.302-1.11 8.055-5.683 6.666-11.33-1.106-4.495-5.808-8.233-11.491-6.732Z" fill="#21B24B"/></svg>