<svg width="120" height="120" fill="none" xmlns="http://www.w3.org/2000/svg"><path d="M65.207 38.06c-8.41.552-19.66 2.628-31.022 5.723-5.38 1.466-12.096 3.78-19.317 6.653-5.89 2.344-6.585 2.66-6.585 2.983 0 .358.02.354 2.117-.357 15.332-5.204 33.057-8.525 50.215-9.407 7.048-.362 14.264.061 17.017.999.322.11-.21.685-1.739 1.88-.627.49-1.2.94-1.272 1-.072.06 1.065-.07 2.528-.286 1.463-.216 2.737-.471 2.832-.566.216-.216.158-2.755-.11-4.844-.2-1.555-.21-1.58-.904-2.063-2.09-1.457-7.474-2.128-13.76-1.715ZM95.703 67.427l-2.31-.087c-8.349-.317-20.135 1.46-32.427 4.891-7.04 1.965-13.46 4.148-18.61 6.329-4.068 1.722-4.044 1.707-4.044 2.454 0 .53.05.61.308.507 3.908-1.565 6.689-2.418 13.138-4.028 15.801-3.947 26.762-5.496 35.55-5.025 4.143.222 9.483.876 12.434 1.522 1.271.278 1.28.284.966.639-1.077 1.22-5.948 4.703-9.273 6.63-.87.504-1.422.86-1.23.793 3.189-1.126 9.186-3.475 10.538-4.127 2.431-1.174 2.443-1.19 2.391-3.392-.068-2.835-.306-4.336-.767-4.83-.6-.644-1.961-1.266-3.701-1.693l-1.569-.385c-.627-.13-.869-.15-1.217-.182l-.177-.016Z" fill="#ACAAAB"/><path d="M95.123 46.605c-11.979.243-29.3 3.125-47.415 7.889C35.694 57.653 22.169 62.35 8.59 68.078L6 69.17v.598c0 .33.064.598.143.598.078 0 .849-.24 1.712-.534 8.296-2.826 18.907-5.816 27.296-7.692 18.833-4.21 38.065-6.599 54.967-6.825 7.25-.097 11.185.052 14.916.565 2.254.31 5.28.97 5.28 1.153 0 .247-2.181 2.121-4.479 3.849-2.531 1.903-4.711 3.344-7.963 5.264l-2.169 1.28.177.016c.349.031.59.053 1.217.182l4.633-1.725c7.645-2.848 10.17-4.016 11.573-5.35.683-.65.698-.691.697-1.877-.002-1.586-.321-6.843-.462-7.596-.202-1.089-1.721-2.218-4.099-3.045-2.971-1.034-8.17-1.552-14.316-1.427Z" fill="#114993"/></svg>