<svg width="120" height="120" fill="none" xmlns="http://www.w3.org/2000/svg"><path fill-rule="evenodd" clip-rule="evenodd" d="M7.358 72.85c1.886 8.377 6.178 15.86 11.47 22.303 1.56 1.9 1.82 2.44 3.29 2.428 1.869-.014 3.742-.003 5.61-.003h67.408c3.438 0 3.277.375 4.508-1.067l2.597-3.004c4.904-6.022 9.205-14.869 10.666-23.142.345-1.95 1.344-8.212.962-10.071H6.046c0 4.847.193 7.582 1.312 12.555ZM34.344 20.006l61.769-.045c-.476-.92-5.305-4.349-6.707-5.268-11.974-7.86-23.584-9.728-37.053-8.265-8.242 1.17-15.18 3.864-22.012 8.244-1.074.689-6.336 4.418-6.7 5.297h5.956l4.747.037ZM80.993 109.728a57.493 57.493 0 0 0 7.006-3.61c1.307-.786 5.62-3.607 6.205-4.596l-68.703.005c.45.621.938.875 1.537 1.352 3.343 2.666 8.235 5.469 12.144 7.026 4.477 1.783 8.103 2.867 12.977 3.568 9.716 1.398 19.813.16 28.834-3.745ZM12.09 39.974l40.062.019c-.04-3.836-.88-6.732-2.627-9.896-.556-1.007-1.253-1.813-1.671-2.603l-30.01-.002c-1.58-.019-1.601-.049-3.239 2.867-1.671 2.977-2.287 5.661-2.515 9.614ZM18.972 25.077h26.502s-6.706-4.707-13.122-4.707c-6.416 0-13.38 4.707-13.38 4.707ZM17.009 53.585h30.428s-7.7 5.404-15.066 5.404c-7.367 0-15.362-5.404-15.362-5.404Z" fill="#1D3D6B"/></svg>