<svg width="120" height="120" fill="none" xmlns="http://www.w3.org/2000/svg"><path d="M120 0H0v120h120V0Z" fill="#01008A"/><path fill-rule="evenodd" clip-rule="evenodd" d="M18.889 38.661c1.042 1.653 2.805-1.362 2.8 5.32l.004 49.92c.006 2.422-.757 3.52-2.873 4.2-.896.289-.846-.412-.846 2.435h26.09l.028-2.552c-1-1.434-3.027 1.188-3.016-4.704.006-3.28-.153-22.029.058-23.59l3.846 6.915c3.84 6.893 7.834 14.755 11.724 21.379-.197.183.129.259-.954.26l-.069 2.296h22.032c.008-2.385.155-2.035-.536-2.306-.119-.047-.661-.152-.852-.202-.571-.151-.909-.336-1.396-.635-.873-.535-1.263-1.177-1.84-2.255-.903-1.69-1.919-3.467-2.82-5.158a431.603 431.603 0 0 0-5.729-10.435c-1.502-2.635-10.091-18.013-11.409-20.81.994-.858 2.14-1.748 3.108-2.585l18.995-15.778c1.562-1.279 2.004-1.148 4.12-1.812l-.004-2.023-15.98-.059-.04 2.27c1.717.132 4.49.812 3.13 2.87-.194.293-22.712 19.213-25.361 21.074-.323-3.257-.019-14.788-.025-19.536-.004-2.747.016-3.475 2.659-4.01l.04-2.616-24.799-.051-.085 2.178Zm4.869 57.74h3.34l-.007-56.897h-3.305L23.758 96.4ZM43.1 67.094l12.511 23.223c1.372 2.521 3.009 5.314 4.223 7.83h3.082L45.518 65.096c-.504.315-2.051 1.504-2.418 2Z" fill="#FDFDFD"/><path fill-rule="evenodd" clip-rule="evenodd" d="m56.002 59.241 15.676.067c3.342.002 7.337-.501 9.952 1.111 1.735 1.07 4.182 3.674 4.485 6.388-.495-.593-2.219-1.993-3.213-2.547-1.49-.83-2.829-1.289-4.882-1.289-6.065 0-14.436-.157-20.225.025l2.746 4.824c1.02 1.21 6.51-.158 10.42.808 3 .741 4.821 2.433 5.745 5.095 1.043 3.004.814 6.309-.38 9.07-.594 1.376-1.136 2.282-1.891 3.421-1.599 2.411-1.764 1.658-.985 3.404 1.572-.738 3.402-3.377 4.277-5.024 3.137-5.905 2.624-13.366-2.242-17.01-.98-.735-1.999-.977-2.91-1.716 0 0 1.928-.18 3.4-.171 6.733.035 8.509 8.403 7.82 13.317-.885 6.327-3.997 8.98-8.792 11.857l-.132.08-.38.282 1.118 1.795c1.911-.337 5.273-1.848 6.805-2.722 4.993-2.851 13.763-7.325 16.548-12.495 3.816-7.085 1.228-23.857-11.942-23.857H62.78c-.826 0-1.265.678-1.85 1.16l-3.374 2.768c-.367.32-.442.357-.801.644-.366.293-.466.464-.753.715Zm22.51-2.783s.956.46 1.706.665c1.52.416 3.59 1.817 4.563 2.801 2.849 2.88 4 6.24 4.486 10.437.168 1.442.634 2.664.762 4.318.236 3.052-.082 6.21-1.101 8.71 6.679-2.82 7.007-27.074-4.769-27.182-1.154-.01-5.648.251-5.648.251ZM30.445 33.064c1.463.332 47.194.108 51.053.108 2.555 0 6.136-.207 8.57.044 3.034.313 3.475 1.704 4.182 4.337h1.89l.08-9.638H30.503l-.057 5.149Z" fill="#FDFDFD"/><path fill-rule="evenodd" clip-rule="evenodd" d="M41.034 24.521c2.848.285 42.527.053 47.419.053 8.232 0 9.975-1.067 11.538 4.379h1.868l.096-9.639H41.107l-.073 5.207Z" fill="#FDFDFD"/></svg>