<svg width="120" height="120" fill="none" xmlns="http://www.w3.org/2000/svg"><path fill-rule="evenodd" clip-rule="evenodd" d="m37.219 94.317-.011 10.801 45.558.048.062-44.873c-.072.036-.142.038-.163.122C71.693 77.459 61.815 86.25 40.518 93.25l-3.3 1.067ZM47.353 82.316c5.47-2.082 23.183-19.878 25.331-24.42l.011-5.138c-8.555-3.056-12.677-5.419-25.305-15.34l-.037 44.898ZM64.135 40.617l.005-18.424c-3.614-1.57-8.19-4.33-11.55-7.865l-.049 16.648c.073.097 5.41 5.955 11.594 9.64Z" fill="#0085AE"/></svg>