<svg width="108" height="102" fill="none" xmlns="http://www.w3.org/2000/svg"><path fill-rule="evenodd" clip-rule="evenodd" d="M59.716 55.76c-2.035.234-6.105 1.753-8.17 2.44-2.173.722-1.693.648-2.639 2.682-3.555 7.646-4.462 9.851-9.197 17.32a145.176 145.176 0 0 1-8.814 12.404c-1.582 2.003-5.565 6.666-7.454 8.462-.55.523-2.453 2.199-2.528 2.667 11.083.213 22.39.005 33.498.005l41.93.001c4.721.003 8.909-1.474 10.467-6.281.688-2.122.379-5.584.379-8.036 0-11.27-.01-22.54.004-33.81-.515.237-.175-.072-.675.526-.129.155-.337.492-.486.698-.328.454-.658.886-1.024 1.377l-6.085 7.944c-7.39 9.373-18.005 22.471-27.54 28.93-3.526 2.389-9.174 5.248-14.225 3.212-4.315-1.74-6.624-6.235-6.65-12.127-.024-5.515 1.823-10.859 3.529-15.269a146.05 146.05 0 0 1 2.75-6.672l2.93-6.472Zm16.228-14.5c2.93-.535 15.84-8.194 18.907-10.266 2.784-1.88 16.342-11.134 11.34-15.714-2.973-2.721-8.018-.334-10.817 1.512-4.672 3.083-10.19 10.67-13.645 15.456-1.291 1.789-5.34 7.406-5.785 9.012Zm-20.678 6.135 8.912-2.556c1.12-.315 1.032-.161 1.597-1.16 3.445-6.082 8.63-14.091 12.593-19.24 3.67-4.768 6.473-8.302 11.364-11.744 2.44-1.716 4.842-3.048 7.365-4.085 5.15-2.118 5.697-1.324 9.756-1.876-.12-1.564-2.209-3.77-2.961-4.389-1.408-1.155-3.338-2.05-5.668-2.05-3.296 0-8.183-.107-11.3.053.975.738 2.076 1.201 2.054 3.045-.03 2.613-2.944 4.183-4.754 5.51-5.13 3.76-9.15 7.662-13.163 12.849-2.431 3.143-14.641 21.517-15.795 25.643ZM37.379 63.07c-1.868.63-9.996 5.426-12.064 6.727-3.841 2.417-7.752 5.091-10.952 7.87C11.925 79.78-4.057 93.253 2.375 100.1c1.648 1.755 4.41 1.824 6.866.677 2.22-1.036 3.99-2.648 5.399-4.007 4.578-4.415 12.312-15.296 16.003-21.47 1.082-1.808 6.41-10.865 6.736-12.23ZM.784 23.142c.397-.3.57-.675.848-1.161l2.442-3.549a37.989 37.989 0 0 1 3.833-4.211c2.653-2.512 5.556-4.727 9.59-6.48 6.785-2.946 19.22-5.79 26.867-2.358 4.09 1.836 5.14 5.397 8.062 8.04 3.105 2.809 7.78 3.565 12.117 1.315 6.268-3.253 9-8.763 12.595-11.552 1.225-.95 2.263-1.6 3.757-2.22.34-.14.37-.131.732-.265l.763-.373C73.93-.01 64.825.295 56.294.295h-39.02c-3.964 0-8.719-.61-11.848 1.179C2.586 3.096.767 5.599.767 9.896c0 4.349-.136 8.927.017 13.246Zm106.404 21.154-.003-14.432c-.692.234-1.108.822-1.593 1.262l-4.502 3.884c-8.632 7.015-17.726 12.293-28.119 16.558-2.222.912-1.836.411-2.974 2.656-2.383 4.698-13.417 27.266-3.606 27.783 6.639.35 16.232-9.79 19.894-13.71 3.61-3.867 7.258-7.6 10.783-11.638 1.749-2.003 3.431-3.856 5.253-5.87l3.905-4.48c.646-.77.962-.715.962-2.013ZM.74 38.016.733 77.085c.323-.094 2.884-3.197 3.276-3.61 8.768-9.272 25.236-18.038 37.535-22.015 1.521-.492 1.193-.415 1.923-1.668 4.283-7.348 9.051-14.55 13.596-21.498.937-1.434 2.055-2.958 2.769-4.173-1.038.227-5.17 3.276-10.74.35-2.939-1.545-4.394-3.953-6.132-7.392-1.672-3.309-2.925-5.879-6.627-6.945C27.29 7.53 13.252 14.032 9.318 22.832c-3.378 7.555 1.939 15.199 10.01 14.995 11.621-.294 9.93-8.122 16.469-10.784 3.995-1.626 7.73.507 8.04 4.418.331 4.161-3.088 6.947-5.081 8.648-7.72 6.582-21.091 9.967-30.909 4.365-2.294-1.309-4.078-2.871-5.565-4.696-.392-.482-1.05-1.585-1.542-1.761Z" fill="#0A3782"/></svg>