<svg width="120" height="120" fill="none" xmlns="http://www.w3.org/2000/svg"><path d="M120 0H0v120h120V0Z" fill="#A3003A"/><path fill-rule="evenodd" clip-rule="evenodd" d="m68.413 68.372.09-.303c.195.063.114.087.198.187.202.584 1.074 1.804 1.436 2.406 1.554 2.58-.015 5.245-1.16 8.992-.602 1.972-1.253 3.888-1.77 5.898-.426 1.662.057 1.633.576 2.917 1.232 3.047 1.056 3.505-.858 3.7.532-1.268 1.034-1.631-.758-3.586-.242-.264-.664-.678-.795-1.062-.286-.844.752-5.192.959-6.34.413-2.296 2.08-11.117 2.082-12.81Zm-16.808-.291c.574 4.425 1.322 8.842 2.155 13.199.227 1.192 1.375 5.616.757 6.424-.54.706-1.281 1.279-1.717 2.117-.793 1.528-.083 1.666.414 2.61-3.02.046-.452-4.257-.317-5.893.07-.841-3.244-11.293-3.756-12.966-.392-1.284.234-2.12.815-2.985.361-.538 1.293-2.2 1.65-2.506Zm-.188-8.371c0-3.091.147-5.667.976-8.634.479-1.712 1.772-4.9 2.821-5.738.633.46.31.857 1.811 1.874 2.86 1.939 6.175.69 7.415-2.037 1.246.616 2.523 4.608 2.852 5.686.874 2.857 1.43 4.814 1.43 7.92 0 5.149-1.436 14.213-2.386 19.391-.248 1.347-1.77 8.406-1.631 9.178.269 1.505 1.985 1.898 2.073 3.39.044.763-.46 1.406-1.057 1.543-.94.217-2.64.213-3.666.213-.597 0-.801-.204-1.083-.57-.891-1.154-.569-2.518-.569-4.337 0-5.999.062-12.883-.045-18.83-.01-.557.094-.514-.274-.707-.454.262-.26 1.083-.26 2.228v17.076c0 1.431.297 3.342-.397 4.453-.748 1.198-1.613.784-3.98.708-1.03-.033-1.294-.081-1.83-.657-1.626-1.75 1.8-3.327 1.8-4.852l-2.382-13.269c-.673-4.244-1.618-9.696-1.618-14.03Zm12.03-24.51c.416.76 1.981.159 2.68.08.62 2.945-.844 3.925-.387 4.93.248.547.757.617.939 1.16-.28.306-.422.34-.803.675-2.378 2.095-1.974 5.235-5.79 5.459-3.837.225-4.31-3.653-5.872-5.262-.342-.354-.627-.318-.964-.61.131-1.075 1.69-.82.688-2.946-.446-.95-.94-2.377-.347-3.574.792.028 2.032.594 2.729-.029-.459-.68-2.244.2-3.182-1.634-.644-1.258.4-2.618.996-3.332.556.798 1.337 1.519 1.828 2.358.152.261.306.67.527.974.516-.002 1.605-.67 3.151-.89 2.332-.33 2.666.654 3.343.785.488-.503.16-.688 1.213-1.922.396-.465 1.013-1.146 1.576-1.559.677 1.308 1.483 1.675.742 3.535-.727 1.824-2.238 1.364-3.068 1.801Zm-8.906-8.365c-1.024 0-1.691.635-1.267 1.71.36.912.642.727-.007 1.684-.651.96-1.524 2.262-.57 3.662.591.867.165.827.031 1.941-.25 2.08.974 3.277.854 4.115-.214 1.488-1.942-.386-1.684 1.604.063.48.159.574.446.741.659.25.551-.488 1.606.68.423.469.642.943 1.017 1.477-.099.262-1.166 1.671-1.735 2.825-3.114 6.321-2.604 12.454-1.817 19.272.084.73-.247 1.049-.586 1.55-3.328 4.906-2.812 3.883-.501 11.378.304.987 2.02 6.333 1.987 6.944-.056 1.053-2.573 5.885.079 6.541.961.238 3.132.258 4.21.286 4.124.11 2.328-.702 3.51-.836 1.16-.132-.521.956 3.685.736 1.2-.062 2.789-.174 3.9-.48.64-.178 1.22-.334 1.37-.946.408-1.658-1.263-4.132-1.35-5.178-.143-1.706 3.907-11.805 3.72-14.163-.09-1.134-.948-2.256-1.45-3.073-.27-.436-.535-.895-.837-1.371-.415-.656-.552-.705-.418-1.669.975-6.982.817-12.621-2.178-19.077-.982-2.118-.904-1.48-1.718-2.696.357-.88.989-1.548 1.519-2.08.675-.676 1.997-.477 1.437-1.803-.342-.81-.82-.147-1.163-.265-.857-.295.375-1.816.256-4.329-.129-2.734-.445-.746.4-2.777.448-1.072.189-2.006-.393-2.771-1.22-1.607.064-1.265-.078-2.578-.125-1.158-1.696-.823-2.181-.35-.273 1.17.265 1.143.456 1.968-.25.532-.878.936-1.287 1.401-.367.418-.676 1.13-1.053 1.503-2.45-1-3.635-.441-5.914.298l-1.924-2.675c-.64-1.225 1.273-1.947-.372-3.199Z" fill="#FBA631"/><path fill-rule="evenodd" clip-rule="evenodd" d="M56.178 38.837c.689-.13 1.205.14 1.376.674-.715.083-1.365.019-1.376-.674Zm6.3.312c.276-.457.993-.566 1.497-.414-.005.388-.157.493-.584.593-.682.16-.774-.042-.912-.18Zm-3.677 3.506c-.093-.724.139-.758.124-1.416-.024-1.021-.747-2.687-1.174-3.463-.738-.08-2.4-.135-2.972.116-.144.863.185 1.611.745 1.994.52.356 1.445.41 2.038.746 1.074.608.262 1.1.456 2.098.164.847 1.301.56 1.543 1.414-.21.315-.662.543-1.117.529-.68-.022-.281-.487-1.18-.225-.1.596.299.918.904 1.031.66.124 1.037-.413 1.592-.52.784-.15 1.019.408 1.648.528.67.128 1.1-.288 1.046-.93-.302-.07-1.792.532-2.11-.558.422-.576 1.08-.366 1.454-.932.744-1.127-1.48-1.715 1.591-3.041 2.04-.881 1.745-.426 1.693-2.129-.67-.173-2.136-.322-2.786-.154-.742.19-.863 1.429-1.039 2.114-.093.363-.24.843-.296 1.222-.113.762.28.75.184 1.307-.158.913-1.77.573-2.344.269ZM68.413 68.372c.145-.12.034-.028.288-.116-.084-.1-.003-.124-.198-.187l-.09.303Z" fill="#FBA631"/></svg>