<svg width="120" height="120" fill="none" xmlns="http://www.w3.org/2000/svg"><path fill-rule="evenodd" clip-rule="evenodd" d="M60.093 92.422V66.666h39.879v-3.738H31.773c.171-3.472.865-6.478 1.915-9.083 10.19 4.397 22.569 4.532 22.569 4.532v-4.372c-5.846.283-13.946-.982-20.603-4.005 6.976-11.028 20.819-12.676 20.819-12.676v-4.182s-.077.01-.216.033v-.033s-17.428 1.472-30.275 9.408l-.001-.002-.041.028a39.09 39.09 0 0 0-3.272 2.26l-.1.07.002.005c-5.55 4.307-9.646 10.138-10 18.017h-.028v3.737h.147c2.562 23.377 39.06 29.538 43.667 30.223v.068H60.094c32.417 0 45.441-19.635 45.441-19.635H71.23l.135 3.93s23.547-.286 23.06.181c-11.818 11.341-34.332 10.99-34.332 10.99Zm-3.737-20.985c-2.634.092-13.504.707-22.354 4.698-1.191-2.697-1.995-5.83-2.214-9.47h24.568v4.772Zm-24.65 5.84c-2.214 1.214-4.225 2.68-5.846 4.448-4.806-3.667-8.407-8.556-9.032-15.06h12.366c.277 4.03 1.184 7.546 2.512 10.612Zm-2.255 6.851c1.227-1.147 2.656-2.172 4.222-3.08 2.001 3.245 4.482 5.867 7.07 7.975-3.757-1.19-7.706-2.78-11.293-4.895Zm6.575-4.31c6.443-3.04 14.433-4.372 20.33-4.201v16.671c-2.47-.438-13.953-2.944-20.33-12.47ZM31.035 52.57c-2.244-1.202-4.3-2.654-5.989-4.404-4.471 3.619-7.75 8.416-8.248 14.762h12.323c.11-3.944.809-7.375 1.914-10.358Zm-2.337-6.962c1.235 1.105 2.648 2.097 4.184 2.977 1.812-3.204 4.124-5.76 6.59-7.797-3.623 1.182-7.38 2.75-10.774 4.82Z" fill="#013B5A"/><path fill-rule="evenodd" clip-rule="evenodd" d="M56.257 62.928V23.044c16.211 18.822 38.783 8.733 48.627 31.768 3.909 9.146 2.203 18.812 2.203 18.812H67.685v15.854l-3.968.438v-19.75h39.129s1.056-6.39-1.777-12.983c-2.91-6.776-8.673-13.53-17.73-15.603-15.62-3.573-17.012-2.48-23.095-6.696v28.044h-3.988Z" fill="#CE2146"/></svg>