<svg width="120" height="120" fill="none" xmlns="http://www.w3.org/2000/svg"><path fill-rule="evenodd" clip-rule="evenodd" d="M29.99 26.25c-7.693.93-14.03 4.07-18.589 8.136-5.456 4.869-7.91 10.118-9.041 17.574-2.514 16.565 3.07 31.57 10.314 41.926 16.585 23.711 49.135 31.423 75.305 17.23 5.814-3.154 11.327-7.588 14.937-11.695.254-.288 7.152-7.974 4.442-7.008l-4.311 2.428c-8.662 4.214-18.666 4.843-27.96 2.08-24.758-7.36-36.463-38.36-18.819-61.046.79-1.014-.068-1.362-.815-1.965-6.708-5.408-15.401-8.874-25.464-7.66Z" fill="url(#a)"/><path fill-rule="evenodd" clip-rule="evenodd" d="M12.043 27.563c.762.237 3.077-1.338 4.35-2.029 4.285-2.324 10.845-3.983 15.958-4.107 8.5-.205 15.211 1.973 21.15 5.464C71.858 37.68 78.421 62.988 65.74 81.577c-1.654 2.424-2.824 3.05-1.808 3.962 18.236 16.359 49.901 7.758 53.612-16.243 3.919-25.34-8.687-49.757-30.869-61.115C73.994 1.688 57.666-.492 42.28 4.553c-6.772 2.22-12.43 5.296-17.495 9.13-2.564 1.94-5.037 4.234-7.052 6.339-.769.803-5.827 6.284-5.69 7.541Z" fill="url(#b)"/><defs><linearGradient id="a" x1="62.198" y1="117.833" x2="47.538" y2="26.403" gradientUnits="userSpaceOnUse"><stop stop-color="#1C2F56"/><stop offset="1" stop-color="#04529F"/></linearGradient><linearGradient id="b" x1="68.363" y1="93.877" x2="61.929" y2="1.847" gradientUnits="userSpaceOnUse"><stop stop-color="#005AA7"/><stop offset="1" stop-color="#15A9E1"/></linearGradient></defs></svg>