<svg width="120" height="120" fill="none" xmlns="http://www.w3.org/2000/svg"><path fill-rule="evenodd" clip-rule="evenodd" d="m62.454 100.905-36.64-36.209c-1.11-1.144-4.719-4.24-5.152-5.335L62.42 18.998c-6.887-.213-14.11-.214-20.99-.208-7.643.006-11.818.507-16.43 4.713-3.67 3.347-6.21 7.76-6.192 15l.001 42.573c-.023 7.266 2.282 11.717 6.03 15.162 4.535 4.168 8.345 4.667 16.02 4.667h21.595ZM63.847 47.502c8.473-.024 14.637 1.23 21.085 4.648C89.921 54.795 95.32 59.59 97 65.787c3.135 11.57-5.67 19.634-14 23.706-3.379 1.65-9.228 2.883-9.75 3.216l8.602 8.414c10.575.207 19.342-7.907 19.342-18.333V57.933c0-10.218-8.268-18.268-18.62-18.268H72.152l-8.305 7.837Z" fill="#004B99"/><path fill-rule="evenodd" clip-rule="evenodd" d="M27.75 59.361c.751.913 1.493 1.475 2.521 2.589.906.981 1.808 1.733 2.802 2.627 1.883 1.694 3.687 3.535 5.533 5.32.985.953 1.84 1.64 2.854 2.577l25.026 23.824c1.02.971 1.674 1.521 2.771 2.663 2.311 2.66 2.407 2.21 9.888 2.162h1.334L36.733 59.361l43.66-40.602-7.748-.017c-1.764 0-2.21 1.013-3.215 2.046L55.568 33.5c-1.832 1.621-4.075 3.521-5.697 5.161a35.37 35.37 0 0 1-2.668 2.473L27.75 59.361Z" fill="#004B99"/><path d="M69.75 85.285c5.879 0 10.644-7.917 10.644-17.684 0-9.767-4.766-17.685-10.644-17.685-5.877 0-10.643 7.918-10.643 17.685s4.766 17.684 10.644 17.684Z" fill="url(#a)"/><defs><linearGradient id="a" x1="59.08" y1="79.436" x2="80.421" y2="55.766" gradientUnits="userSpaceOnUse"><stop stop-color="#E4CA93"/><stop offset=".502" stop-color="#F9F0D5"/><stop offset="1" stop-color="#E5CA96"/></linearGradient></defs></svg>