<svg width="120" height="120" fill="none" xmlns="http://www.w3.org/2000/svg"><path fill-rule="evenodd" clip-rule="evenodd" d="M8.162 75.224c1.978 7.332 8.25 18.11 12.565 21.818l26.329-14.828.244 30.423c5.937 1.017 17.15 2.125 23.184.471 2.607-.714 2.283.687 2.276-6.328l.037-24.43 26.206 14.861c3.57-2.854 12.133-15.458 12.707-22.28L85.318 59.898c-4.251 2.408-8.182 4.943-12.451 7.414-2.83 1.637-10.088 6.279-12.97 7.189-4.023-1.845-8.619-4.8-12.464-7.076-3.707-2.193-9.395-5.878-12.846-7.353L8.162 75.223ZM47.275 7.322l-.008 30.314c-4.058-1.618-9.46-5.272-13.254-7.427-2.71-1.54-10.712-6.673-13.286-7.307-4.895 5.354-10.373 12.832-12.539 21.834 2.791 1.76 23.914 14.357 25.503 14.075 1.778-.316 24.537-14.537 26.535-14.583 2.303-.053 23.005 13.547 25.492 14.441 2.853 1.026 20.25-11.414 26.12-13.668-.906-4.272-3.126-8.815-5.127-12.144-1.233-2.052-1.93-3.17-3.331-5.125-1.356-1.895-2.547-3.068-3.566-4.906-4.774 1.045-23.406 14.107-27.056 14.566V7.234c-10.291-1.27-15.073-1.906-25.483.088Z" fill="#3C3569"/><path fill-rule="evenodd" clip-rule="evenodd" d="M35.24 59.772c8.952.606 16.526 5.622 24.505.464 9.745-6.3 14.86-.693 25.078-.522L60.248 45.526 35.24 59.772Z" fill="#3C3569"/></svg>