<svg width="120" height="120" fill="none" xmlns="http://www.w3.org/2000/svg"><path d="M120 0H0v120h120V0Z" fill="#113F7C"/><path d="M48.273 89.44V28.495h8.086v25.11h31.494v-25.11h8.086V89.44h-8.086V60.755H56.359V89.44h-8.087Z" fill="#FEFEFE"/><path fill-rule="evenodd" clip-rule="evenodd" d="m19.429 53.322 21.629.008.026-24.661H23.079c-.79 1.562-3.43 20.51-3.65 24.652Z" fill="#C50B2D"/><path fill-rule="evenodd" clip-rule="evenodd" d="M19.429 53.322h21.655v5.047H18.953l.476-5.047Z" fill="#FEFEFE"/><path fill-rule="evenodd" clip-rule="evenodd" d="M18.953 58.37h22.131v2.888H18.953V58.37Z" fill="#06296C"/><path fill-rule="evenodd" clip-rule="evenodd" d="M19.429 66.306h21.655v-5.048H18.953l.476 5.048Z" fill="#FEFEFE"/><path fill-rule="evenodd" clip-rule="evenodd" d="M41.084 89.451V66.306H19.429c3.122 8.985 7.547 16.888 21.655 23.145Z" fill="#C50B2D"/></svg>