<svg width="120" height="120" fill="none" xmlns="http://www.w3.org/2000/svg"><path d="M60 102c23.196 0 42-18.804 42-42S83.196 18 60 18 18 36.804 18 60s18.804 42 42 42Z" fill="#EEF0F6"/><path fill-rule="evenodd" clip-rule="evenodd" d="M62.502 61.153c.7 1.292 1.734 2.97 2.466 4.278 2.453 4.246 4.902 8.494 7.355 12.74.472.767.76 1.369 1.374 1.993.585.595 1.145.984 1.997 1.376 4.264 1.963 9.623-1.614 8.717-6.884-.176-1.026-.505-1.68-.957-2.42-.436-.714-.79-1.452-1.232-2.143-4.715-7.385-9.235-15.807-13.548-23.434l-2.466-4.341c-.619-1.058-1.225-2.132-2.181-2.95-2.744-2.348-7.032-1.75-9.066 1.061-2.567 3.549-.71 6.422 1.092 9.533 2.105 2.814 4.748 8.054 6.449 11.19v.001Z" fill="#0135A9"/><path fill-rule="evenodd" clip-rule="evenodd" d="M57.498 61.153c-.701 1.292-1.734 2.97-2.466 4.278-2.454 4.246-4.902 8.494-7.355 12.74-.473.767-.76 1.369-1.374 1.993-.586.595-1.145.984-1.998 1.376-4.263 1.963-9.623-1.614-8.716-6.884.176-1.026.505-1.68.957-2.42.436-.714.79-1.452 1.231-2.143 4.716-7.385 9.236-15.807 13.549-23.434l2.465-4.341c.62-1.058 1.225-2.132 2.182-2.95 2.743-2.348 7.031-1.75 9.065 1.061 2.568 3.549.71 6.422-1.091 9.533-2.105 2.814-4.748 8.054-6.45 11.19v.001Z" fill="#00A2E2"/><path d="M60 81.879a6.255 6.255 0 1 0 0-12.51 6.255 6.255 0 0 0 0 12.51Z" fill="#F8AD2D"/></svg>