<svg width="120" height="120" fill="none" xmlns="http://www.w3.org/2000/svg"><path fill-rule="evenodd" clip-rule="evenodd" d="M19.16 1.657h81.681c9.64 0 17.503 7.862 17.503 17.503v81.68c0 9.641-7.863 17.503-17.503 17.503H19.16c-9.64 0-17.503-7.862-17.503-17.503V19.16c0-9.64 7.863-17.503 17.503-17.503Z" fill="#B80180"/><path fill-rule="evenodd" clip-rule="evenodd" d="M68.48 79.397c-.011-8.098-.277-22.233.137-29 8.136 1.695 19.228 17.616 7.13 31.495-1.094 1.403-1.703 2.212-1.703 4.576 0 1.944-.17 14.38.13 15.309 5.624 5.625 43.786-33.44 12.98-60.23-5.763-5.012-7.776-6.139-15.3-9.802-4.546-2.214-4.315.321-4.307-8.455l.004-4.79c0-1.257.099-1.974-.964-2.273-1.1-.31-1.85.205-2.486.649-3.806 2.656-7.6 5.322-11.418 7.966-1.821 1.26-1.826 1.75-1.98 4.395-.117 1.995-2.02 2.3-3.68 2.937-31.11 11.936-36.007 53.273-5.762 70.332 4.303 2.427 6.242-.766 8.616-2.69L63.443 87.38c2.163-2.038 5.041-3.556 5.036-7.982Zm-16.93.912.005-27.14c.001-3.344-1.974-3.709-4.477-1.314-4.393 4.204-9.684 10.706-8.377 17.821 1.033 5.628 2.424 8.788 5.38 12.208 1.285 1.486 2.702 3.406 4.72 4.203 3.424 1.352 2.748-3.338 2.748-5.778Z" fill="#FCFDFC"/><path fill-rule="evenodd" clip-rule="evenodd" d="m19.014 77.09.006-27.141c.001-3.344-1.974-3.708-4.477-1.313-4.393 4.203-9.685 10.706-8.377 17.82 1.033 5.629 2.424 8.788 5.38 12.208 1.285 1.487 2.702 3.407 4.72 4.204 3.424 1.351 2.748-3.338 2.748-5.778Z" fill="#B80180"/></svg>