<svg width="120" height="120" fill="none" xmlns="http://www.w3.org/2000/svg"><path fill-rule="evenodd" clip-rule="evenodd" d="M60 6.045c29.798 0 53.954 24.157 53.954 53.955S89.798 113.954 60 113.954C30.202 113.954 6.045 89.798 6.045 60 6.045 30.202 30.202 6.045 60 6.045Z" fill="#2B2A29"/><mask id="a" style="mask-type:luminance" maskUnits="userSpaceOnUse" x="6" y="6" width="108" height="108"><path d="M60 6.045c29.798 0 53.954 24.157 53.954 53.955S89.798 113.954 60 113.954C30.202 113.954 6.045 89.798 6.045 60 6.045 30.202 30.202 6.045 60 6.045Z" fill="#fff"/></mask><g mask="url(#a)"><path fill-rule="evenodd" clip-rule="evenodd" d="M58.507 9.798c2.183 0 3.952.973 3.952 2.174 0 1.2-1.769 2.174-3.952 2.174-2.182 0-3.952-.973-3.952-2.174 0-1.2 1.77-2.174 3.952-2.174Zm16.505 89.088c2.13-.808 4.218-.512 4.662.66.445 1.172-.923 2.776-3.053 3.584-2.131.808-4.219.512-4.663-.66-.444-1.172.923-2.777 3.054-3.584Zm19.837-10.222c2.002-1.088 4.11-1.077 4.709.025.598 1.101-.54 2.876-2.543 3.963-2.002 1.088-4.11 1.077-4.709-.024-.598-1.102.54-2.877 2.543-3.964Zm9.379-5.845c2.003-1.087 4.111-1.076 4.709.025.599 1.102-.54 2.876-2.542 3.964-2.003 1.087-4.111 1.076-4.709-.025-.598-1.101.54-2.876 2.542-3.964Zm5.877-54.767c2.171.635 3.671 2.04 3.349 3.138-.321 1.098-2.341 1.474-4.513.838-2.171-.635-3.671-2.04-3.35-3.138.322-1.098 2.342-1.473 4.514-.838Zm3.844 11.389c2.692 0 4.874 1.103 4.874 2.464 0 1.362-2.182 2.465-4.874 2.465-2.692 0-4.874-1.103-4.874-2.465 0-1.361 2.182-2.464 4.874-2.464Zm5.619 9.812c2.2-1.563 4.681-1.85 5.54-.64.86 1.21-.226 3.459-2.426 5.022-2.2 1.563-4.681 1.85-5.54.64-.86-1.21.226-3.459 2.426-5.022Zm-7.627 8.314c2.2-1.563 4.68-1.85 5.54-.639.86 1.21-.227 3.458-2.427 5.021-2.199 1.564-4.68 1.85-5.54.64-.859-1.21.227-3.459 2.427-5.022Zm-9.077 6.581c2.427-1.18 4.921-1.055 5.57.28s-.792 3.374-3.22 4.555c-2.426 1.18-4.92 1.054-5.57-.28-.648-1.336.793-3.375 3.22-4.555Zm16.114-.47c2.024 0 3.664 1.581 3.664 3.532 0 1.952-1.64 3.534-3.664 3.534-2.025 0-3.665-1.582-3.665-3.534 0-1.95 1.64-3.533 3.665-3.533Zm-7.179 12.866c2.002-1.088 4.11-1.076 4.708.025.599 1.101-.54 2.876-2.542 3.963-2.002 1.088-4.111 1.077-4.709-.024-.598-1.102.54-2.876 2.543-3.964Zm-5.935 13.372c2.003-1.088 4.111-1.077 4.709.024.599 1.102-.54 2.876-2.542 3.964-2.003 1.088-4.111 1.077-4.709-.025-.598-1.101.54-2.876 2.542-3.963Zm-7.278 5.039c2.002-1.088 4.11-1.077 4.709.024.598 1.102-.541 2.876-2.543 3.964-2.002 1.088-4.11 1.077-4.709-.025-.598-1.101.54-2.876 2.543-3.963Zm-8.515 3.917c2.13-.807 4.218-.512 4.663.66.444 1.172-.924 2.777-3.054 3.585-2.131.807-4.219.512-4.663-.66-.444-1.172.923-2.777 3.054-3.585Zm-8.843 4.769c2.05-.295 3.843.38 4.005 1.508.162 1.127-1.368 2.28-3.418 2.575-2.05.295-3.842-.38-4.005-1.508-.162-1.127 1.369-2.28 3.418-2.575Zm-8.443 3.819c1.547-.223 2.9.287 3.022 1.138.123.851-1.032 1.721-2.58 1.943-1.547.223-2.9-.287-3.022-1.138-.123-.851 1.032-1.721 2.58-1.943Zm-7.984 3.369c1.536-.221 2.88.285 3.001 1.13.122.845-1.025 1.709-2.561 1.93-1.536.221-2.88-.285-3.002-1.13-.121-.845 1.026-1.709 2.562-1.93Zm-12.067.355c1.552 0 2.81.691 2.81 1.545s-1.258 1.546-2.81 1.546-2.81-.692-2.81-1.546c0-.854 1.258-1.545 2.81-1.545Zm14.212-7.599c2.263 0 4.097 1.009 4.097 2.254 0 1.244-1.834 2.253-4.097 2.253-2.263 0-4.097-1.009-4.097-2.253 0-1.245 1.834-2.254 4.097-2.254Zm19.568-8.984c2.13-.807 4.218-.512 4.663.66.444 1.172-.924 2.777-3.054 3.584-2.131.808-4.219.513-4.663-.66-.444-1.171.923-2.776 3.054-3.584Zm-41.68 13.491c1.553 0 2.811.692 2.811 1.546 0 .854-1.258 1.546-2.81 1.546s-2.81-.692-2.81-1.546c0-.854 1.258-1.546 2.81-1.546Zm5.382-4.344c2.181 0 3.95.972 3.95 2.172 0 1.2-1.769 2.172-3.95 2.172-2.18 0-3.949-.972-3.949-2.172 0-1.2 1.768-2.172 3.95-2.172Zm17.861-10.279c2.872-.811 5.562-.188 6.008 1.391.446 1.58-1.52 3.518-4.392 4.329-2.871.811-5.56.188-6.007-1.391-.446-1.58 1.52-3.518 4.392-4.329Zm10.546-4.825c2.622-1.425 5.382-1.41 6.166.032.783 1.442-.707 3.766-3.33 5.19-2.621 1.424-5.382 1.41-6.165-.032-.784-1.442.707-3.766 3.329-5.19Zm10.055-5.61c2.535-1.377 5.204-1.363 5.961.032.757 1.394-.683 3.64-3.218 5.017-2.535 1.377-5.204 1.363-5.961-.031-.757-1.394.684-3.64 3.218-5.018Zm10.656-6.263c2.896-.818 5.608-.19 6.058 1.403.451 1.593-1.533 3.548-4.429 4.366-2.896.818-5.608.19-6.058-1.403-.45-1.593 1.533-3.547 4.429-4.365Zm7.802-5.877c2.35-1.67 4.999-1.975 5.917-.683.919 1.293-.242 3.694-2.592 5.364-2.349 1.669-4.998 1.975-5.917.682-.918-1.292.242-3.693 2.592-5.363Zm-72.925 33.114c1.443 0 2.614.914 2.614 2.042 0 1.128-1.17 2.042-2.614 2.042s-2.614-.914-2.614-2.042c0-1.128 1.17-2.042 2.614-2.042Zm6.002-4.907c2.05 0 3.712.914 3.712 2.042 0 1.128-1.662 2.042-3.712 2.042-2.051 0-3.713-.914-3.713-2.042 0-1.128 1.662-2.042 3.712-2.042Zm7.6-4.91c2.566 0 4.645 1.143 4.645 2.555 0 1.41-2.08 2.555-4.645 2.555-2.566 0-4.646-1.144-4.646-2.555 0-1.412 2.08-2.555 4.646-2.555Zm22.093-11.657c3.548 0 6.424 1.582 6.424 3.534 0 1.951-2.876 3.533-6.424 3.533-3.548 0-6.424-1.582-6.424-3.533 0-1.952 2.876-3.534 6.424-3.534Zm11.675-6.121c3.547 0 6.423 1.581 6.423 3.533 0 1.951-2.876 3.533-6.423 3.533-3.548 0-6.424-1.582-6.424-3.533 0-1.952 2.876-3.533 6.424-3.533Zm9.637-5.891c3.414-.965 6.612-.225 7.142 1.653.53 1.878-1.807 4.182-5.221 5.147-3.414.964-6.612.224-7.142-1.654-.53-1.878 1.807-4.182 5.22-5.146ZM25.19 99.5c1.444 0 2.614.914 2.614 2.042 0 1.128-1.17 2.042-2.614 2.042s-2.614-.914-2.614-2.042c0-1.128 1.17-2.042 2.614-2.042Zm4.812-5.448c2.05 0 3.713.915 3.713 2.043 0 1.127-1.663 2.042-3.713 2.042s-3.713-.915-3.713-2.043c0-1.127 1.662-2.042 3.713-2.042Zm7.163-5.462c2.502 0 4.53 1.115 4.53 2.49 0 1.376-2.028 2.492-4.53 2.492-2.5 0-4.528-1.116-4.528-2.491 0-1.376 2.027-2.491 4.528-2.491Zm9.89-5.85c3.34 0 6.048 1.489 6.048 3.327 0 1.837-2.708 3.326-6.049 3.326-3.34 0-6.049-1.489-6.049-3.326 0-1.838 2.709-3.328 6.05-3.328Zm23.393-12.352c3.547 0 6.423 1.581 6.423 3.533 0 1.951-2.876 3.533-6.423 3.533-3.548 0-6.424-1.582-6.424-3.533 0-1.952 2.876-3.533 6.424-3.533Zm12.304-6.557c3.548 0 6.424 1.581 6.424 3.533 0 1.951-2.876 3.533-6.424 3.533-3.547 0-6.423-1.582-6.423-3.533 0-1.952 2.876-3.533 6.423-3.533Zm10.54-6.674c3.548 0 6.424 1.582 6.424 3.533 0 1.951-2.876 3.533-6.424 3.533-3.547 0-6.423-1.582-6.423-3.533 0-1.951 2.876-3.533 6.423-3.533Zm9.172-6.331c3.048 0 5.518 1.358 5.518 3.035 0 1.676-2.47 3.034-5.518 3.034-3.047 0-5.517-1.358-5.517-3.035 0-1.676 2.47-3.034 5.517-3.034Zm6.996-5.82c2.583.755 4.367 2.427 3.985 3.734-.382 1.306-2.786 1.752-5.37.997-2.583-.756-4.367-2.428-3.985-3.734.382-1.307 2.786-1.753 5.37-.997ZM16.76 95.984c.76 0 1.375.609 1.375 1.36 0 .75-.616 1.36-1.376 1.36-.76 0-1.375-.61-1.375-1.36 0-.751.616-1.36 1.375-1.36Zm3.203-6.055c1.444 0 2.614.915 2.614 2.043 0 1.127-1.17 2.042-2.614 2.042s-2.614-.915-2.614-2.042c0-1.128 1.17-2.043 2.614-2.043Zm6.327-5.904c2.05 0 3.713.915 3.713 2.043 0 1.127-1.662 2.042-3.713 2.042-2.05 0-3.713-.915-3.713-2.042 0-1.128 1.662-2.043 3.713-2.043Zm8.242-6.57c2.5 0 4.529 1.115 4.529 2.491 0 1.376-2.028 2.49-4.53 2.49-2.5 0-4.528-1.114-4.528-2.49 0-1.376 2.027-2.491 4.529-2.491Zm11.503-6.711c3.34 0 6.049 1.49 6.049 3.327s-2.709 3.327-6.05 3.327c-3.34 0-6.048-1.49-6.048-3.327 0-1.838 2.708-3.327 6.049-3.327Zm24.414-13.586c3.547 0 6.423 1.582 6.423 3.533 0 1.951-2.876 3.533-6.423 3.533-3.548 0-6.424-1.582-6.424-3.533 0-1.951 2.876-3.533 6.424-3.533Zm12.304-6.568c3.548 0 6.424 1.582 6.424 3.533 0 1.952-2.876 3.533-6.424 3.533-3.547 0-6.423-1.581-6.423-3.533 0-1.951 2.876-3.533 6.423-3.533Zm9.634-5.951c3.048 0 5.518 1.358 5.518 3.034 0 1.677-2.47 3.035-5.518 3.035-3.047 0-5.517-1.358-5.517-3.035 0-1.676 2.47-3.034 5.517-3.034Zm7.917-5.642c2.584.756 4.368 2.427 3.986 3.734-.383 1.307-2.787 1.753-5.37.997-2.584-.756-4.368-2.427-3.986-3.734.383-1.306 2.787-1.753 5.37-.997Zm5.071-5.562c2.172.635 3.671 2.04 3.35 3.138-.321 1.098-2.342 1.473-4.513.838-2.172-.635-3.671-2.04-3.35-3.138.321-1.099 2.342-1.474 4.513-.838ZM6.44 79.205c.53 0 .96.474.96 1.057 0 .584-.43 1.057-.96 1.057s-.96-.473-.96-1.057c0-.583.43-1.056.96-1.056Zm5.763 5.206c.957 0 1.733.767 1.733 1.713 0 .946-.776 1.713-1.733 1.713a1.723 1.723 0 0 1-1.732-1.713c0-.946.776-1.713 1.732-1.713Zm4.347-6.29c1.444 0 2.614.915 2.614 2.043 0 1.127-1.17 2.042-2.614 2.042s-2.614-.915-2.614-2.042c0-1.128 1.17-2.043 2.614-2.043Zm6.55-6.092c2.05 0 3.713.914 3.713 2.042 0 1.128-1.662 2.042-3.713 2.042-2.05 0-3.713-.914-3.713-2.042 0-1.128 1.662-2.042 3.713-2.042Zm10.246-7.53c2.501 0 4.529 1.115 4.529 2.49 0 1.377-2.028 2.492-4.529 2.492s-4.529-1.115-4.529-2.491c0-1.376 2.028-2.491 4.529-2.491Zm11.732-7.341c3.34 0 6.049 1.49 6.049 3.327s-2.709 3.327-6.05 3.327c-3.34 0-6.048-1.49-6.048-3.327 0-1.838 2.708-3.327 6.049-3.327Zm25.37-12.72c3.048 0 5.518 1.358 5.518 3.034 0 1.676-2.47 3.035-5.517 3.035-3.048 0-5.518-1.358-5.518-3.035 0-1.676 2.47-3.035 5.518-3.035Zm10.713-6.11c3.047 0 5.518 1.358 5.518 3.035 0 1.676-2.47 3.034-5.518 3.034-3.047 0-5.517-1.358-5.517-3.034 0-1.676 2.47-3.035 5.517-3.035Zm9.745-5.34c2.584.755 4.368 2.427 3.986 3.733-.382 1.307-2.786 1.754-5.37.998-2.583-.756-4.368-2.428-3.985-3.734.382-1.307 2.786-1.753 5.37-.997Zm5.9-5.165c2.105.616 3.559 1.978 3.247 3.043-.311 1.065-2.27 1.429-4.376.813-2.105-.616-3.56-1.978-3.248-3.043.312-1.065 2.271-1.429 4.376-.813Zm2.803-6.695c1.897.316 3.909 2.063 3.972 2.602.13 1.12-1.779 2.6-3.972 2.6-2.194 0-3.972-1.164-3.972-2.6 0-1.437 2.075-2.917 3.972-2.602ZM3.178 65.933c.53 0 .96.473.96 1.057 0 .583-.43 1.056-.96 1.056s-.96-.473-.96-1.056c0-.584.43-1.057.96-1.057Zm5.382 6.425c.957 0 1.733.767 1.733 1.713 0 .946-.776 1.712-1.733 1.712a1.723 1.723 0 0 1-1.733-1.712c0-.946.776-1.713 1.733-1.713Zm5.376-7.41c1.444 0 2.614.914 2.614 2.042 0 1.128-1.17 2.042-2.614 2.042s-2.614-.914-2.614-2.042c0-1.128 1.17-2.042 2.614-2.042Zm9.164-6.505c2.05 0 3.713.914 3.713 2.042 0 1.128-1.662 2.042-3.713 2.042-2.05 0-3.713-.914-3.713-2.042 0-1.128 1.662-2.042 3.713-2.042Zm10.246-7.09c2.501 0 4.529 1.114 4.529 2.49 0 1.376-2.028 2.491-4.529 2.491s-4.529-1.115-4.529-2.49c0-1.377 2.028-2.492 4.529-2.492Zm12.588-6.737c2.868 0 5.193 1.279 5.193 2.856 0 1.578-2.325 2.856-5.193 2.856-2.868 0-5.192-1.278-5.192-2.856 0-1.577 2.324-2.856 5.192-2.856Zm24.02-11.49c2.612 0 4.73 1.164 4.73 2.6 0 1.438-2.118 2.602-4.73 2.602-2.611 0-4.729-1.165-4.729-2.601 0-1.437 2.118-2.601 4.73-2.601Zm9.814-5.817c3.047 0 5.517 1.359 5.517 3.035 0 1.676-2.47 3.035-5.517 3.035s-5.518-1.359-5.518-3.035c0-1.676 2.47-3.035 5.518-3.035Zm7.015-4.769c2.612 0 4.73 1.165 4.73 2.601 0 1.437-2.118 2.602-4.73 2.602-2.612 0-4.73-1.165-4.73-2.602 0-1.436 2.118-2.6 4.73-2.6Zm3.868-4.243c2.193 0 3.971.898 3.971 2.008 0 1.11-1.778 2.009-3.971 2.009-2.194 0-3.972-.9-3.972-2.009 0-1.11 1.778-2.008 3.972-2.008Zm1.658-3.856c1.093 0 1.978.487 1.978 1.088 0 .601-.885 1.088-1.978 1.088s-1.978-.487-1.978-1.088c0-.601.885-1.088 1.978-1.088ZM3.178 52.899c.53 0 .96.473.96 1.056 0 .584-.43 1.057-.96 1.057s-.96-.473-.96-1.056c0-.584.43-1.057.96-1.057Zm3.808 6.046c1.06 0 1.92.69 1.92 1.54 0 .85-.86 1.54-1.92 1.54-1.061 0-1.92-.69-1.92-1.54 0-.85.859-1.54 1.92-1.54Zm7.03-6.53c1.06 0 1.92.69 1.92 1.54 0 .851-.86 1.54-1.92 1.54-1.062 0-1.921-.689-1.921-1.54 0-.85.86-1.54 1.92-1.54Zm9.084-7.019c1.603 0 2.903.715 2.903 1.597s-1.3 1.597-2.903 1.597-2.903-.715-2.903-1.597 1.3-1.597 2.903-1.597Zm11.466-5.752c1.603 0 2.903.715 2.903 1.596 0 .882-1.3 1.597-2.903 1.597s-2.903-.715-2.903-1.597 1.3-1.596 2.903-1.596Zm11.492-6.091c2.183 0 3.952.973 3.952 2.174 0 1.2-1.77 2.174-3.952 2.174-2.183 0-3.952-.974-3.952-2.174s1.77-2.174 3.952-2.174Zm22.96-11.013c2.182 0 3.951.973 3.951 2.174 0 1.2-1.77 2.174-3.952 2.174-2.183 0-3.952-.974-3.952-2.174s1.77-2.174 3.952-2.174Zm7.903-4.574c2.183 0 3.953.973 3.953 2.174 0 1.2-1.77 2.174-3.953 2.174-2.182 0-3.952-.974-3.952-2.174s1.77-2.174 3.952-2.174Zm4.712-4.514c2.017 0 3.652.899 3.652 2.008 0 1.11-1.635 2.009-3.651 2.009-2.017 0-3.652-.899-3.652-2.009 0-1.11 1.635-2.008 3.651-2.008Zm2.574-3.11c1.423 0 2.576.634 2.576 1.416 0 .783-1.153 1.417-2.576 1.417s-2.576-.634-2.576-1.417c0-.782 1.153-1.416 2.576-1.416ZM8.253 46.477c1.06 0 1.92.473 1.92 1.056 0 .584-.86 1.057-1.92 1.057s-1.92-.473-1.92-1.057c0-.583.86-1.056 1.92-1.056Zm7.745-6.833c1.604 0 2.903.715 2.903 1.596 0 .882-1.3 1.597-2.903 1.597s-2.903-.715-2.903-1.597 1.3-1.596 2.903-1.596Zm10.005-6.091c1.603 0 2.903.715 2.903 1.597 0 .881-1.3 1.596-2.903 1.596S23.1 36.031 23.1 35.15c0-.882 1.3-1.597 2.903-1.597Zm10.786-5.706c2.183 0 3.953.973 3.953 2.173 0 1.2-1.77 2.174-3.953 2.174-2.182 0-3.952-.973-3.952-2.174 0-1.2 1.77-2.174 3.952-2.174Zm11.49-5.209c2.184 0 3.953.973 3.953 2.174 0 1.2-1.77 2.174-3.952 2.174-2.183 0-3.952-.973-3.952-2.174 0-1.2 1.77-2.174 3.952-2.174ZM76.007 7.985c1.093 0 1.979.488 1.979 1.089 0 .6-.886 1.088-1.979 1.088s-1.978-.487-1.978-1.088c0-.601.885-1.089 1.978-1.089Zm-2.903 2.685c1.604 0 2.903.715 2.903 1.597s-1.3 1.597-2.903 1.597-2.903-.715-2.903-1.597 1.3-1.597 2.903-1.597Zm-5.93 2.685c2.182 0 3.952.973 3.952 2.174 0 1.2-1.77 2.174-3.952 2.174-2.183 0-3.953-.973-3.953-2.174 0-1.2 1.77-2.174 3.953-2.174Zm-1.974-5.733c1.093 0 1.978.487 1.978 1.088 0 .601-.885 1.088-1.978 1.088S63.22 9.311 63.22 8.71c0-.601.885-1.088 1.978-1.088Zm3.067-2.354c.6 0 1.088.268 1.088.599 0 .33-.487.598-1.088.598-.601 0-1.089-.268-1.089-.598 0-.331.488-.6 1.089-.6ZM62.46 3.635c.6 0 1.088.268 1.088.599 0 .33-.488.598-1.088.598-.602 0-1.089-.267-1.089-.598 0-.33.487-.599 1.089-.599ZM6.025 41.24c.53 0 .96.473.96 1.057 0 .583-.43 1.056-.96 1.056s-.96-.473-.96-1.056c0-.584.43-1.057.96-1.057Zm19.552-26.588c.881 0 1.595.392 1.595.877s-.714.877-1.595.877c-.88 0-1.595-.392-1.595-.877s.714-.877 1.595-.877Zm7.682-3.545c.881 0 1.595.393 1.595.878 0 .484-.714.877-1.595.877-.88 0-1.595-.393-1.595-.877 0-.485.714-.878 1.595-.878Zm8.662-3.567c.88 0 1.595.393 1.595.878 0 .484-.714.877-1.595.877s-1.595-.393-1.595-.877c0-.485.714-.878 1.595-.878Zm7.314-2.55c.88 0 1.595.392 1.595.877 0 .484-.715.877-1.595.877-.881 0-1.596-.393-1.596-.877 0-.485.715-.878 1.596-.878Zm5.997-1.47c.716 0 1.297.32 1.297.714 0 .394-.58.713-1.297.713-.716 0-1.297-.319-1.297-.713 0-.394.58-.713 1.297-.713ZM12.094 34.094c1.061 0 1.921.473 1.921 1.057 0 .583-.86 1.056-1.92 1.056-1.061 0-1.921-.473-1.921-1.056 0-.584.86-1.057 1.92-1.057Zm8.103-6.233c1.603 0 2.903.715 2.903 1.596 0 .883-1.3 1.597-2.903 1.597s-2.903-.715-2.903-1.597c0-.881 1.3-1.596 2.903-1.596Zm9.337-4.743c1.603 0 2.903.715 2.903 1.597s-1.3 1.597-2.903 1.597-2.903-.715-2.903-1.597 1.3-1.597 2.903-1.597Zm10.5-5.025c1.791 0 3.243.799 3.243 1.785 0 .985-1.452 1.784-3.244 1.784-1.791 0-3.244-.8-3.244-1.785 0-.985 1.453-1.784 3.244-1.784ZM17.307 22.93c1.2 0 2.174.535 2.174 1.195s-.973 1.196-2.174 1.196c-1.2 0-2.174-.535-2.174-1.196 0-.66.974-1.195 2.174-1.195Zm8.695-4.88c1.603 0 2.903.714 2.903 1.596 0 .882-1.3 1.597-2.903 1.597s-2.903-.715-2.903-1.597 1.3-1.597 2.903-1.597Zm9.678-4.118c1.603 0 2.903.715 2.903 1.597s-1.3 1.597-2.903 1.597-2.903-.715-2.903-1.597 1.3-1.597 2.903-1.597Zm9.354-3.918c1.603 0 2.903.715 2.903 1.597s-1.3 1.597-2.903 1.597c-1.604 0-2.903-.715-2.903-1.597s1.3-1.597 2.903-1.597Zm7.542-3.193c1.603 0 2.903.715 2.903 1.597s-1.3 1.596-2.903 1.596c-1.604 0-2.903-.714-2.903-1.596 0-.882 1.3-1.597 2.903-1.597Zm5.93-1.668c1.093 0 1.979.487 1.979 1.088 0 .601-.886 1.089-1.979 1.089-1.092 0-1.978-.488-1.978-1.089 0-.6.886-1.088 1.978-1.088Zm0 108.752c1.293 0 2.34.576 2.34 1.287s-1.047 1.287-2.34 1.287c-1.292 0-2.34-.576-2.34-1.287s1.048-1.287 2.34-1.287Zm0-6.36c2.057 0 3.724.917 3.724 2.048s-1.667 2.048-3.724 2.048c-2.056 0-3.723-.917-3.723-2.048s1.667-2.048 3.723-2.048Zm-.905-8.279c2.399-.909 4.75-.576 5.25.743.5 1.32-1.04 3.127-3.44 4.036-2.398.909-4.749.577-5.249-.743-.5-1.319 1.04-3.126 3.439-4.036Zm.905-11.156c2.984 0 5.403 1.33 5.403 2.972 0 1.64-2.419 2.971-5.403 2.971-2.984 0-5.403-1.33-5.403-2.971 0-1.642 2.42-2.972 5.403-2.972Zm0-11.697c3.548 0 6.424 1.581 6.424 3.533 0 1.951-2.876 3.533-6.424 3.533-3.547 0-6.423-1.582-6.423-3.533 0-1.952 2.876-3.533 6.423-3.533Zm0-12.581c3.548 0 6.424 1.581 6.424 3.533 0 1.951-2.876 3.533-6.424 3.533-3.547 0-6.423-1.582-6.423-3.533 0-1.952 2.876-3.533 6.423-3.533Zm0-13.504c3.548 0 6.424 1.582 6.424 3.533 0 1.952-2.876 3.534-6.424 3.534-3.547 0-6.423-1.582-6.423-3.534 0-1.951 2.876-3.533 6.423-3.533Zm0-12.174c3.275 0 5.93 1.46 5.93 3.262 0 1.801-2.655 3.261-5.93 3.261-3.274 0-5.93-1.46-5.93-3.261 0-1.801 2.656-3.261 5.93-3.261Zm0-10.839c2.717 0 4.919 1.211 4.919 2.705s-2.202 2.705-4.919 2.705c-2.716 0-4.918-1.21-4.918-2.705 0-1.494 2.202-2.705 4.918-2.705Zm0-9.349c2.183 0 3.952.973 3.952 2.174 0 1.2-1.769 2.174-3.952 2.174-2.182 0-3.952-.974-3.952-2.174s1.77-2.174 3.952-2.174Zm-8.497-4.61c2.183 0 3.952.972 3.952 2.173 0 1.2-1.769 2.174-3.952 2.174-2.182 0-3.952-.973-3.952-2.174 0-1.2 1.77-2.174 3.952-2.174Z" fill="url(#b)"/></g><defs><linearGradient id="b" x1="2.217" y1="60" x2="125.403" y2="60" gradientUnits="userSpaceOnUse"><stop stop-color="#ADF3AB"/><stop offset=".251" stop-color="#9FE78B"/><stop offset=".569" stop-color="#B7D32C"/><stop offset="1" stop-color="#F4F483"/></linearGradient></defs></svg>