<svg width="120" height="120" fill="none" xmlns="http://www.w3.org/2000/svg"><path d="M17.943 60.092c.474 14.45 7.306 24.485 10.662 27.696V60.092C29.553 34.564 49.93 27.781 60 27.58c26.537 2.408 32.776 22.678 32.58 32.512-1.939 32.86-30.803 34.118-43.835 30.104v10.838c42.65 6.743 52.711-21.284 53.312-42.146C99.687 25.653 73.032 17.746 60 17.947c-33.172 1.445-41.86 28.699-42.057 42.145Z" fill="#153F65"/><path d="M60.59 84.78c13.086 0 23.694-10.783 23.694-24.084 0-13.3-10.608-24.083-23.694-24.083-13.086 0-23.694 10.782-23.694 24.083 0 13.3 10.608 24.083 23.694 24.083Z" fill="#4997CE"/><path d="M36.897 82.975V62.504l11.846 11.44V90.2l-11.846-7.225Z" fill="#4997CE"/><path d="M60.589 73.943c7.197 0 13.031-5.93 13.031-13.246 0-7.315-5.834-13.246-13.032-13.246-7.197 0-13.031 5.93-13.031 13.246 0 7.316 5.834 13.246 13.032 13.246Z" fill="#fff"/></svg>