<svg width="120" height="120" fill="none" xmlns="http://www.w3.org/2000/svg"><path d="M120 0H0v120h120V0Z" fill="#005598"/><path fill-rule="evenodd" clip-rule="evenodd" d="M37.603 44.346s-.034.045 2.337-.026c.73-.022 1.737-.016 2.51-.015 10.084.019 23.767.606 33.03.278.23-11.58-6.976-19.527-13.94-23.37-4.773-2.633-9.28-3.04-15.426-3.039-5.635 0-13.302-.438-18.69.075 1.125 6.183 4.375 13.957 6.967 19.676.991 2.186 2.474 4.149 3.212 6.42l-19.557.157c1.236 5.747 6.363 14.806 9.13 19.42 3.576 5.957 8.599 11.901 12.82 16.106 4.28 4.264 10.016 9.201 16.068 12.848 3.516 2.119 15.045 8.591 19.343 9.124l-.047-19.979c-6.322-2.878-13.742-9.215-18.813-13.943l-4.616-4.624c-.757-.98-14.227-19.066-14.328-19.109Z" fill="#0AA"/><path fill-rule="evenodd" clip-rule="evenodd" d="m75.36 82.022.203.218c7.795 3.937 26.241 10.224 26.24 10.4 0 0 .041-12.475.043-18.43.005-10.964-2.836-19.46-11.923-25.39-3.072-2.005-8.114-4.227-14.443-4.237l-.12 37.439Z" fill="#F49C16"/><path fill-rule="evenodd" clip-rule="evenodd" d="m75.36 82.021.12-37.438s-25.358-.418-37.877-.237c.123.112 1.927 2.926 2.266 3.477l12.062 15.631 4.616 4.624c5.071 4.729 12.492 11.065 18.813 13.944Z" fill="#FDFDFD"/><path fill-rule="evenodd" clip-rule="evenodd" d="m101.853 44.779-.002-26.605H75.217c2.352 12.507 13.849 24.534 26.636 26.605Z" fill="#0AA"/></svg>