<svg width="120" height="120" fill="none" xmlns="http://www.w3.org/2000/svg"><path d="M91.642 4.061H28.358c-13.131 0-23.777 10.745-23.777 24v63.878c0 13.255 10.646 24 23.777 24h63.285c13.132 0 23.778-10.745 23.778-24V28.061c0-13.255-10.646-24-23.778-24Z" fill="url(#a)"/><path fill-rule="evenodd" clip-rule="evenodd" d="m34.595 51.623 15.54.232c-.037 3.317-30.87 44.584-30.056 48.541 2.027 0 22.373 0 26.923-.085l1.24-.357c.843-1.024 1.183-1.171 1.966-2.417l12.71-19.282 10.16 22.141s10.825.098 26.495-.115c2.316-.032-10.668-32.246-15.927-32.246l-13.939-.026c2.113-4.858 37.314-48.457 28.55-48.404l-25.612.017c-3.31.785-13.18 18.334-15.599 21.995l-9.264-19.113c-1.055-2.333-1.657-2.953-4.82-2.952l-22.949.137c-1.75 1.1-.829 2.137-.035 3.827 2.082 4.428 12.07 26.948 14.617 28.107Z" fill="#FEFEFE"/><defs><linearGradient id="a" x1="6.122" y1="46.895" x2="113.878" y2="73.105" gradientUnits="userSpaceOnUse"><stop stop-color="#00D6D9"/><stop offset=".522" stop-color="#5885DF"/><stop offset="1" stop-color="#EC02EB"/></linearGradient></defs></svg>