<svg width="126" height="126" fill="none" xmlns="http://www.w3.org/2000/svg"><path fill-rule="evenodd" clip-rule="evenodd" d="M10.161 115.839H115.84V10.161H10.161V115.84Zm76.84-54.684c-.1-.72.12-1.17.315-1.764.272-.831.668-1.436 1.238-1.966 2.536-2.364 8.148-1.256 12.08-3.065l.532-.236c.602-.404.872-.633 1.136-1.377.163-.457.255-1.482.237-2.028-.072-2.18-.673-1.767-2.422-1.53-1.279.172-2.66.296-4.003.394-1.418.104-2.52.192-3.905.448-1.484.275-1.878.342-3.406.985-.146.062-.474.23-.68.352l-1.513 1.167-.138.133c-.928.905-1.871 2.176-2.412 3.368-2.252 4.957-2.324 15.206.831 18.8 1.195 1.36 1.445 1.58 3.023 2.424 2.363 1.264 5.627 1.502 8.32 1.064.494-.08 2.496-.687 2.886-.91 2.292-1.315 3.373-2.233 4.512-4.824.266-.605.733-2.832.775-3.54.118-1.956-.502-5.168-1.746-6.973-1.278-1.852-3.105-2.909-5.393-3.34-2.874-.543-5.04-.273-7.704.655l-.182.072a1.366 1.366 0 0 0-.055.03l-.147.11c-.721.55-.663.412-1.498 1.187-.271.251-.308.451-.681.365Zm-55.568 1.841c.224.53.104 6.952.103 8.133-.004 3.18.968 5.164 3.676 6.59.252.132.136.082.376.146l1.223.31c1.447.19 2.47.112 3.785-.14.525-.1 1.06-.36 1.504-.564.926-.425 1.741-.992 2.387-1.77.133-.16.359-.416.463-.568.078-.111.09-.212.193-.33.17-.194-.167-.144.388-.18.015.019.036.024.041.06.02.128.128-.092.111.681-.008.398.006.53.08.89.078.381.298.988.557 1.26.212.223.15.215.538.346.509.172 2.053.133 2.652.134 1.75.002 2.138.207 2.005-1.676-.084-1.185-.05-2.52-.055-3.722-.011-2.305-.077-4.79-.078-7.175 0-1.263.144-6.42-.146-7.177-.25-.3-5.776-.197-6.157-.078-.398.929-.173 3.044-.173 4.315 0 2.195.288 6.55-.963 8.357-.671.97-1.385 1.607-2.626 2.028-.633.214-1.984.11-2.702-.613-.998-1.004-.813-3.484-.813-4.929v-4.67c0-1.123.19-3.599-.18-4.459-.665-.164-7.542-.379-8.232-.257-.717.127-.601.773-.597 1.428.005.907-.129 2.03.364 2.797.535.832 2.08.78 2.276.834Zm25.098-5.027c-.607.157-.581.526-.569 1.226.011.593-.02 1.245.004 1.82.014.34.107.76.29 1.025.278.402.861.79 1.39.883 1.048.187.871-.438.871 2.672v10.723c-.001 1.892.106 1.604 1.889 1.667 1.134.04 2.505.05 3.637.011.624-.021.913-.189.935-.807l-.003-5.368c0-2.317.079-5.871-.011-8.046-.041-.984-.073-.721 1.84-.724.76-.001 2.985-.083 3.532.14.107.044.44.262.521.34.019.018.066.072.082.09.565.65.49 1.03.489 2.06-.004 2.394-.137 9.002.123 10.553.18 1.08.688 1.733 1.823 1.737 1.222.004 2.414.031 3.639.001 1.543-.037 1.053-.842 1.018-2.343l-.083-10.64c.004-1.708-.337-2.59-.918-3.912l-.513-.787c-.574-.787-1.585-1.599-2.618-1.88-2.372-.646-7.772-.43-10.38-.428-1.31.001-6.08-.248-6.988-.013Zm36.235 5.027c-.76.255-.967.357-1.469.886-1.838 1.94-2.033 9.194 1.232 10.146.63.184 1.478.218 2.148.069 2.438-.541 2.893-3.932 2.707-6.593-.09-1.28-.45-2.626-1.147-3.496-.7-.874-2.108-1.468-3.47-1.012ZM24.284 71.55c-.508.114-.915.23-1.299.477l-1.095 1.055c-.357.575-.163.066-.434.868-.69 2.04.868 4.845 3.914 4.517.34-.036.959-.33 1.224-.504.783-.51 1.218-1.09 1.519-1.953.853-2.445-1.643-4.951-3.829-4.46Z" fill="#FF720C"/></svg>