<svg width="120" height="120" fill="none" xmlns="http://www.w3.org/2000/svg"><path fill-rule="evenodd" clip-rule="evenodd" d="m103.209 59.572-12.443.04c-.695.238-.363 2.068-.486 3.57-.251 3.069-1.255 6.44-2.377 9.075-4.61 10.823-15.471 18.046-27.649 18.05a29.751 29.751 0 0 1-21.432-9.004c-2.274-2.34-4.754-5.695-6.09-9.02-1.068-2.654-1.154-2.886-1.899-5.699-.582-2.196-.46-4.649-.682-6.955-.953-.177-11.769-.174-12.7.006-.292 3.113.478 7.022.969 9.79.531 2.998 1.564 5.494 2.659 8.156 1.94 4.719 5.512 9.553 8.773 12.829 7.003 7.036 17.575 12.757 30.402 12.749 12.779-.007 23.624-5.697 30.49-12.672 3.555-3.613 6.345-7.686 8.778-12.792 2.119-4.448 3.984-12.128 3.687-18.123Z" fill="#315B4F"/><path fill-rule="evenodd" clip-rule="evenodd" d="M78.75 60.508C78.71 49.88 70.1 41.858 60 42.045c-9.986.185-18.208 8.28-18.16 18.59.047 9.998 8.2 18.31 18.414 18.344 10.3.035 18.534-8.302 18.496-18.47Z" fill="#315B4F"/><path fill-rule="evenodd" clip-rule="evenodd" d="M29.99 30.023c.102.23 8.354 8.67 8.924 8.929.564-.233 1.385-1.234 1.986-1.734 5.42-4.51 11.925-7.037 19.354-7.022 13.911.03 20.81 8.7 21.34 8.77.435.058 4.343-4.12 4.58-4.362a154.52 154.52 0 0 1 2.222-2.222c.517-.508 1.943-1.72 2.17-2.36-.559-1.012-4.72-4.201-5.788-4.95-2.189-1.536-4.328-2.738-6.799-3.878-13.882-6.408-29.745-4.625-42.165 3.824-1.061.722-5.444 4.044-5.825 5.005Z" fill="#812556"/></svg>