<svg width="120" height="120" fill="none" xmlns="http://www.w3.org/2000/svg"><path fill-rule="evenodd" clip-rule="evenodd" d="M0 120h120V0H0v120Z" fill="#DD0426"/><path fill-rule="evenodd" clip-rule="evenodd" d="m80.318 62.308.001 23.077c.002 6.308-.37 7.505 6.748 7.645h10.068c4.815-.128 7.512 0 7.467-3.363-.007-.577.029-8.837.043-19.284-.077-9.367.524-14.32-1.63-15.718-2.155-1.4-6.596-1.03-15.323-1.019-8.476 0-7.374.513-7.374 8.662ZM51.862 93.026l7.128.008v-8.672l3.253.04c5.474 2.836 7.654 10.805 12.139 10.392 0 0 3.098-.46 2.789-1.764-.546-2.303-4.837-7.273-4.837-7.273s2.43-2.441 3.09-5.457V54.346c0-.461-.355-.68-.812-.68h-22.42c-.188 0-.429.212-.428.42l.098 38.94Zm7.551-15.901h8.509c.403 0 .694-.369.694-.63V60.938c0-.11-.042-.166-.155-.166h-9.145c-.196 0-.326.015-.326.223v15.66c0 .181.111.47.423.47ZM29.042 71.842c2.877-.023 5.753-.058 8.63-.087.328-.003.499-.176.497-.49-.08-12.722-.179-25.446-.268-38.168-.003-.555.134-.58-.361-.575l-9.081.113c-.454.006-.343-.015-.338.478.15 12.754.451 25.508.451 38.263 0 .227.115.47.47.467Zm-.472 20.61-.002-9.344c-.018-.599.121-1.178 1.146-1.206l12.707-.369c3.248-.09 4.62-1.49 4.885-4.006 1.284-12.167.288-42.626.264-53.155 0-.574-.485-.798-1.373-.798-4.991 0-22.097.02-26.2.004-.736-.003-.895.358-.895 1.024 0 22.796-.206 45.32-.31 68.116 0 .312.094.474.392.474 3.17 0 .56.032 8.771.032.441 0 .615-.194.615-.772Z" fill="#FEFEFE"/><path fill-rule="evenodd" clip-rule="evenodd" d="m88.02 85.653 9.01-.014c.284 0 .47-.32.47-.64V61.097c0-.157-.111-.325-.322-.325h-9.297c-.201 0-.539.1-.539.371V85.01c0 .336.294.644.677.644Z" fill="#DD0426"/></svg>