<svg width="120" height="120" fill="none" xmlns="http://www.w3.org/2000/svg"><path fill-rule="evenodd" clip-rule="evenodd" d="M3.385 60.49c1.567 0 1.205-.056 1.313-.918.445-3.54.012-3.689 1.118-8.962 1.593-7.598 5.221-15.245 10.011-21.196 1.725-2.143 4.895-5.416 7.079-7.184 6.675-5.408 14.343-9.01 23.358-10.744 13.55-2.607 27.598.145 36.855 6.683 4.68 3.305 7.974 6.682 11.297 11.44 1.887 2.703 7.02 11.445 7.543 15.439l-5.5.09c.813 1.028 1.745 2.372 2.275 3.94h17.4c-1.911-10.688-8.811-23.537-16.681-30.524-6.2-5.504-12.263-9.635-21.367-12.521C40.807-5.787 3.71 19.668 3.386 60.49ZM117.082 62.492l-1.273-.014c-3.49 43.89-53.27 58.476-80.148 38.37-4.452-3.33-7.594-6.944-10.846-11.896-1.828-2.785-6.511-11.955-6.946-15.8l1.609-.29c.33-1.002 1.208-4.95 1.208-4.95L3.945 67.9c.095 5.444 4.407 15.9 6.617 19.93 1.643 2.996 3.489 5.651 5.37 8.001.517.647 1.013 1.217 1.51 1.839l5.147 5.1c5.07 4.082 9.458 7.19 16.882 10.096 21.924 8.583 46.071 2.869 60.846-12.115 8.207-8.323 13.709-19.05 15.914-31.124.349-1.912.851-5.171.851-7.135Z" fill="#0062AA"/><path fill-rule="evenodd" clip-rule="evenodd" d="M76.042 49.844c3.064.059 6.1-.043 9.16-.078 3.835-.043 5.244-.52 6.547 2.799 1.97 5.017-1.12 8.841-5.256 10.733l-.86.492c1.072 2.08 2.56 3.663 1.882 7.483-.664 3.74-4.28 7.589-6.334 7.872-1.992.274-10.99-.12-14.593.14l-1.147 3.247c4.088.013 8.134.011 12.182 0 4.765-.014 6.894.519 10.172-2.101 1.862-1.49 3.902-4.253 4.556-7.701.33-1.735.302-3.69-.294-5.314-.701-1.91-1.4-2.335-2.518-3.527 3.418-1.264 4.884-2.18 6.342-5.035 1.395-2.733 1.747-6.535.45-9.531-1.23-2.842-3.225-4.186-7.114-4.216-3.6-.028-8.087-.219-11.594.011l-1.581 4.726ZM21.184 72.998c9.228-.06 7.33 1.217 9.166-4.54.512-1.606 1.002-3.079 1.511-4.732.978-3.169 1.97-6.326 3.015-9.466.91-2.734 5.748-17.545 6.046-19.202h-7.425l-12.313 37.94ZM43.891 72.988c3.944.013 5.64-.01 5.64-.01-.072.077.792-2.071 1.582-4.488 1.679-5.14 10.379-30.95 10.886-33.327-3.378-.015-5.522-.103-5.522-.103L43.891 72.988ZM53.867 82.412l5.456.11 12.146-37.38-5.587-.002-12.015 37.272ZM30.681 72.958l2.407.029 5.568-17.848 4.593 13.999c.576-2.123 1.395-4.344 2.065-6.447 1.212-3.8.936-2.912-.283-6.658-.733-2.255-3.522-11.79-4.405-13.02L30.68 72.958Z" fill="#0062AA"/><path fill-rule="evenodd" clip-rule="evenodd" d="m69.778 68.96 11.593-.029c.773 3.044-.6 5.751-3.317 5.875-6.44.292-9.136-.28-10.105-.014l-.73 2.301s8.163.068 11.296.075c2.454.005 2.889.214 4.352-1.224.978-.962 1.64-2.064 2.13-3.665.898-2.93.804-8.081-2.234-8.253l-11.382-.07-1.602 5.004ZM61.436 82.507c2.475.01 1.86.613 3.424-4.284.52-1.625.987-3.122 1.507-4.734 1.296-4.02 8.695-26.344 9.09-28.4l-2.09.018-11.931 37.4ZM51.743 72.972l2.026.02 11.99-37.847c-2.07-.169-1.76-.15-2.404 1.893l-2.281 7.082c-1.095 3.27-2.07 6.344-3.13 9.577a1844.55 1844.55 0 0 0-3.113 9.594c-.922 2.865-2.472 6.835-3.088 9.681ZM74.77 53.481l12.186.047c1.404 2.921-.754 6.32-3.525 6.507-2.667.18-10.782.104-10.782.104l-.593 1.838c3.548.082 7.158.013 10.7.008 5.781-.009 8.185-5.754 7.122-8.442-.746-1.884-1.474-1.673-3.783-1.669-3.1.006-10.701.049-10.701.049l-.623 1.558ZM47.067 57.114c.829-2.436 1.383-2.393.625-5.077-.746-2.638-4.298-15.148-4.829-15.902-.968 2.486-1.484 2.3-.618 5.065.913 2.916 4.186 14.936 4.822 15.914ZM21.444 65.733l.767-2.006H3.444c.029 1.172.256 1.97.256 1.97l17.744.037ZM99.614 53.205l17.012-.045-.157-2.107-17.136.027.281 2.125ZM58.013 29.984l5.727.032 1.428-4.768-5.616.02-1.539 4.716ZM67.53 39.764l5.711.039 1.425-4.702-5.645-.034-1.492 4.697ZM75.096 39.77c1.598.01 2.217.042 2.217.042.529-1.586.995-3.108 1.486-4.705l-2.187-.002-1.516 4.665ZM56.982 33.32l5.685-.02.479-1.624-5.56-.07-.604 1.714ZM66.466 43.08l5.676.023.47-1.643h-5.675l-.47 1.62ZM65.56 30.005l1.585-.015 1.776-4.741-1.763.042-1.598 4.714ZM64.595 33.31l1.855.01.463-1.544-1.82.006-.498 1.528ZM74.24 43.092l1.856.01.463-1.544-1.82.006-.498 1.528Z" fill="#0062AA"/></svg>