<svg width="120" height="120" fill="none" xmlns="http://www.w3.org/2000/svg"><path fill-rule="evenodd" clip-rule="evenodd" d="M18.045 101.954h83.909V18.046H18.045v83.908Z" fill="#FB1A18"/><path fill-rule="evenodd" clip-rule="evenodd" d="M46.665 65.287c.336-2.812 3.124-6.162 4.54-7.26 10.504-8.142 21.852 1.491 22.11 7.26h16.496v-1.58l-12.515-.006V49.68l-34.74-.055-.056 14.083H30.148v1.58h16.517ZM54.784 36.582l-.033 2.548-12.195.014v5.259l34.74.01v-5.271l-12.052-.001-.012-2.56c-1.622-.182-2.218.285-3.212-.592-.738-.652-1.196-1.363-2.02-1.968-.757.556-1.19 1.157-1.895 1.841-1.103 1.071-1.51.513-3.32.72ZM79.217 86.421c.218-3.282-1.35-10.367 2.53-10.489 4.148-.13 2.528 7.172 2.75 10.49 0 0 4.065.026 5.21 0l.105-15.89H73.94l-.033 15.897 5.309-.008Z" fill="#FEFEFE"/><path fill-rule="evenodd" clip-rule="evenodd" d="M49.656 67.798c.124-4.983 4.945-9.255 10.086-9.385 5.392-.136 10.418 4.255 10.566 9.21l.046 18.798 1.934.003c.336-1.953-.216-18.222-.258-19-.303-5.739-6.238-10.903-12.287-10.785-5.913.115-11.57 5.294-11.85 11.149-.057 1.181-.157 18.63-.157 18.63l1.803.003.117-18.623ZM39.011 47.873l41.958.036-.014-1.738-41.68-.025-.264 1.727ZM73.968 68.815l15.843.09v-1.699l-15.785-.06-.058 1.67ZM30.148 68.802l15.872.105L46 67.2l-15.85-.052v1.655ZM35.425 86.421c.218-3.282-1.35-10.367 2.53-10.489 4.148-.13 2.528 7.172 2.75 10.49 0 0 4.065.026 5.21 0l.105-15.89H30.148l-.032 15.897 5.309-.008Z" fill="#FEFEFE"/></svg>