<svg width="120" height="120" fill="none" xmlns="http://www.w3.org/2000/svg"><path fill-rule="evenodd" clip-rule="evenodd" d="M74.334 31.944c-.005-4.161-3.054-7.394-6.42-9.208-3.606-1.943-7.749-3.034-12.814-3.034-8.007 0-16.715 3.547-18.483 10.582-.42 1.666-.064 3.968.565 5.177.722 1.39 1.227 2.187 2.451 3.422 2.914 2.935 7.979 4.678 12.24 5.197 4.15.505 6.755.147 10.534-.676 5.498-1.198 11.934-5.298 11.927-11.46Zm-14.212-.04-.365 4.71c-.125 1.223-1.076 3.896-1.848 5.059-.34.512-.58.54-.691 1.08 5.3.055 13.465-3.757 14.33-10.143.34-2.52-1.029-6.057-1.926-6.387-.456.704.023 1.063-1.33 2.392-.633.62-1.554 1.18-2.33 1.548-2.784 1.319-5.194 1.405-5.84 1.74Zm-6.515 10.932c-.048-.531-.343-.615-.647-1.034-.249-.344-.388-.639-.633-1.085-1.337-2.431-1.555-5.949-1.634-8.776-1.816-.712-5.517-.773-8.084-3.226-.274-.262-.627-.592-.87-.978l-.629-1.447c-.593.346-1.302 1.988-1.5 2.565-2.744 8.016 6.796 13.684 13.997 13.981Zm-2.61-14.168c.082-1.26.755-3.358 1.206-4.29.571-1.185 1.055-1.943 2.084-2.56l.435-.407c-5.729-.483-13.923 3.04-8.502 5.95.974.522 3.586 1.321 4.778 1.307Zm8.825.03c2.317-.165 8.641-2.047 5.843-4.794-1.69-1.66-6.281-2.612-9.55-2.513.277.683 2.83 1.118 3.707 7.307Zm-1.55 3.532-5.712-.04c-.116 2.121.831 6.717 2.807 6.76 2 .045 3.001-4.562 2.904-6.72Zm-5.448-3.212c.712.026 4.507.152 4.933-.012.464-.178.32-.32.191-.816-.245-.953-.407-1.891-1.02-2.744-2.41-3.347-4.283 2.002-4.104 3.572Z" fill="#222732"/><path d="M39.27 86.317c0 .091-.172.138-.516.138-.344 0-.516-.045-.516-.132v-8.028c0-.055.028-.083.082-.083h5.273c.058 0 .097.042.113.127.014.085.022.209.022.37 0 .084 0 .146-.002.189-.002.04-.008.09-.014.148a.255.255 0 0 1-.043.123.09.09 0 0 1-.076.038h-4.324v2.9h3.718c.087 0 .132.146.132.44 0 .295-.045.445-.132.445H39.27v3.325Zm6.053-7.314c-.115.117-.29.176-.528.176-.237 0-.413-.059-.526-.176-.116-.115-.172-.28-.172-.488 0-.21.056-.372.172-.49.113-.117.289-.174.526-.174.238 0 .413.057.528.174.115.118.172.28.172.49 0 .209-.057.373-.172.488Zm-.338 7.448a4.094 4.094 0 0 1-.379 0 1.504 1.504 0 0 1-.151-.015.338.338 0 0 1-.126-.038.09.09 0 0 1-.038-.075v-5.792a.09.09 0 0 1 .038-.075.258.258 0 0 1 .126-.035 2.552 2.552 0 0 1 .346-.016 2.73 2.73 0 0 1 .336.016c.056.004.099.017.123.035a.085.085 0 0 1 .039.075v5.792a.085.085 0 0 1-.039.075.315.315 0 0 1-.123.038 1.501 1.501 0 0 1-.152.014Zm3.09.004c-.083 0-.145-.002-.186-.004a1.581 1.581 0 0 1-.15-.015.325.325 0 0 1-.123-.038.085.085 0 0 1-.039-.075v-5.792c0-.053.039-.085.118-.1a3.373 3.373 0 0 1 .528-.016l.14.01a.242.242 0 0 1 .115.037c.024.018.036.04.036.069v.99c.431-.802 1.053-1.204 1.868-1.204.596 0 1.075.204 1.433.615.36.409.54.943.54 1.603v3.788a.084.084 0 0 1-.038.075.328.328 0 0 1-.123.039 1.614 1.614 0 0 1-.15.014 3.707 3.707 0 0 1-.526-.014.327.327 0 0 1-.126-.039.085.085 0 0 1-.038-.075V82.6c0-.37-.117-.686-.352-.943-.237-.257-.545-.384-.93-.384-.43 0-.785.151-1.066.453a1.49 1.49 0 0 0-.42 1.046v3.552c0 .059-.043.095-.128.11a2.513 2.513 0 0 1-.383.022Zm6.551.083c-.455-.002-.825-.138-1.115-.413-.289-.276-.433-.654-.433-1.136 0-.477.184-.886.555-1.222.37-.336.866-.557 1.491-.664l1.583-.26v-.557c0-.312-.101-.573-.306-.78-.202-.208-.48-.311-.825-.311-.583 0-1.17.174-1.763.522-.047.022-.095.004-.144-.06a1.197 1.197 0 0 1-.151-.272.909.909 0 0 1-.096-.328c0-.058.02-.099.06-.123.691-.415 1.406-.623 2.14-.623.636.003 1.144.178 1.52.522.379.344.567.85.567 1.517v3.973c0 .059-.037.095-.112.11-.077.014-.19.022-.344.022a3.25 3.25 0 0 1-.172-.004 1.301 1.301 0 0 1-.14-.015.269.269 0 0 1-.115-.038.088.088 0 0 1-.036-.075v-.848c-.178.336-.464.597-.856.783-.395.187-.83.278-1.307.28Zm.397-.86c.443 0 .834-.124 1.172-.37.338-.244.506-.51.506-.795l.006-1.017-1.475.249c-.336.054-.612.18-.822.378a.926.926 0 0 0-.318.7.81.81 0 0 0 .253.613c.168.16.393.241.678.241Zm5.746.776c-.083 0-.146-.002-.186-.004a1.615 1.615 0 0 1-.15-.014.327.327 0 0 1-.124-.038.085.085 0 0 1-.038-.075V80.53c0-.053.038-.085.117-.1a3.348 3.348 0 0 1 .528-.016l.14.01a.242.242 0 0 1 .115.037c.025.018.037.04.037.069v.99c.43-.802 1.052-1.205 1.868-1.205.595 0 1.074.205 1.433.616.36.408.54.943.54 1.602v3.79a.084.084 0 0 1-.038.074.326.326 0 0 1-.124.038 1.584 1.584 0 0 1-.15.015 3.707 3.707 0 0 1-.526-.015.325.325 0 0 1-.125-.038.085.085 0 0 1-.039-.075V82.6c0-.37-.117-.686-.352-.943-.237-.257-.544-.384-.929-.384-.43 0-.785.151-1.066.453a1.49 1.49 0 0 0-.421 1.046v3.552c0 .059-.043.095-.128.11a2.516 2.516 0 0 1-.382.021Zm7.86.083c-.826-.002-1.493-.289-2.001-.864-.508-.575-.761-1.323-.761-2.244 0-.921.253-1.67.76-2.247.509-.576 1.177-.866 2.002-.866.729 0 1.38.184 1.957.552.037.019.053.061.053.124 0 .07-.032.196-.1.374-.139.308-.252.438-.343.385-.484-.32-.976-.48-1.478-.48-.56 0-1.008.205-1.34.614-.331.408-.497.924-.497 1.544 0 .617.166 1.13.498 1.536.331.406.779.611 1.34.611.53 0 1.042-.162 1.535-.486.051-.028.103-.008.154.061.053.07.105.172.16.306.071.198.107.338.107.42 0 .057-.014.09-.042.102-.56.372-1.229.556-2.004.558Zm4.714-7.534c-.116.117-.29.176-.529.176-.236 0-.412-.059-.526-.176-.115-.116-.172-.28-.172-.488 0-.21.057-.372.172-.49.114-.117.29-.174.526-.174.24 0 .413.057.529.174.115.118.172.28.172.49 0 .209-.057.372-.172.488Zm-.338 7.447a4.124 4.124 0 0 1-.379 0 1.533 1.533 0 0 1-.152-.014.34.34 0 0 1-.125-.038.09.09 0 0 1-.039-.075V80.53a.09.09 0 0 1 .039-.075.258.258 0 0 1 .125-.035 2.552 2.552 0 0 1 .346-.016 3.864 3.864 0 0 1 .337.016c.056.004.099.016.123.035a.085.085 0 0 1 .038.075v5.792a.085.085 0 0 1-.038.075.316.316 0 0 1-.124.038 1.53 1.53 0 0 1-.151.014Zm2.93.087c-.455-.002-.826-.137-1.115-.412-.29-.276-.433-.654-.433-1.136 0-.477.184-.886.554-1.222.37-.336.867-.557 1.492-.664l1.583-.261v-.556c0-.312-.102-.573-.306-.78-.202-.208-.48-.311-.826-.311-.583 0-1.17.174-1.763.522-.046.022-.095.004-.143-.06a1.197 1.197 0 0 1-.152-.272.909.909 0 0 1-.095-.328c0-.059.02-.1.059-.123.692-.415 1.406-.624 2.14-.624.636.004 1.144.178 1.52.522.38.345.567.85.567 1.518v3.973c0 .059-.036.095-.11.11-.078.013-.191.022-.345.022-.075 0-.133-.002-.172-.004a1.301 1.301 0 0 1-.14-.015.269.269 0 0 1-.115-.038.088.088 0 0 1-.036-.075v-.848c-.179.336-.464.597-.856.783-.395.186-.83.277-1.308.28Zm.397-.86c.443 0 .834-.123 1.172-.368.338-.245.505-.51.505-.796l.007-1.018-1.476.25c-.336.054-.611.18-.822.378a.926.926 0 0 0-.317.7.81.81 0 0 0 .253.613c.168.16.392.241.678.241Zm6.403.86c-.415-.002-.72-.119-.919-.354-.198-.235-.297-.532-.297-.892v-7.654c0-.055.042-.09.127-.103.085-.015.213-.02.383-.02l.188.001c.04.002.091.006.148.012.056.007.099.019.125.035a.09.09 0 0 1 .039.075v7.47c0 .313.16.47.48.47.133 0 .272-.03.414-.084.063-.02.103.006.12.08.014.074.022.19.022.347 0 .316-.037.486-.111.51a2.3 2.3 0 0 1-.719.107Zm-43.198 13.76a4.21 4.21 0 0 1-1.593-.313c-.518-.209-.913-.464-1.182-.765a.111.111 0 0 1-.018-.059c0-.083.069-.209.208-.374.2-.258.334-.355.397-.296.208.2.526.389.949.56.423.173.836.258 1.238.258.581 0 1.05-.122 1.409-.365.358-.243.536-.548.536-.917a1.13 1.13 0 0 0-.038-.301.889.889 0 0 0-.127-.27 2.211 2.211 0 0 0-.177-.226 1.198 1.198 0 0 0-.248-.204c-.108-.071-.2-.13-.276-.178a2.893 2.893 0 0 0-.332-.168 24.24 24.24 0 0 0-.7-.3c-.166-.067-.295-.121-.39-.16-.096-.04-.221-.097-.38-.17a4.816 4.816 0 0 1-.73-.4 2.297 2.297 0 0 1-.587-.52 1.478 1.478 0 0 1-.212-.323 1.711 1.711 0 0 1-.128-.36 1.697 1.697 0 0 1-.05-.42c0-.646.269-1.17.81-1.58.538-.406 1.242-.608 2.112-.608.522 0 1.002.089 1.441.269.44.18.785.402 1.038.668.017.014.023.036.023.064 0 .08-.061.207-.183.385-.166.233-.291.35-.374.35a.086.086 0 0 1-.065-.024 2.555 2.555 0 0 0-.801-.51 2.744 2.744 0 0 0-1.079-.213c-.564 0-1.01.107-1.336.32-.328.215-.49.498-.49.854 0 .087.01.17.033.247a.63.63 0 0 0 .113.219c.053.069.104.131.154.186a.898.898 0 0 0 .223.172l.244.15c.065.038.164.087.298.143.131.059.233.101.306.128l.332.131.41.166a10.075 10.075 0 0 1 .822.383c.103.056.229.133.376.229.148.093.268.184.357.27.089.088.184.193.287.317.103.12.182.244.237.37.055.123.1.265.14.423.038.158.056.322.056.492 0 .645-.293 1.183-.878 1.619-.585.435-1.31.651-2.175.651Zm6.877-.01c-.585-.002-1.095-.141-1.53-.42a2.662 2.662 0 0 1-.978-1.122 3.717 3.717 0 0 1-.326-1.583c0-.574.117-1.094.35-1.562.233-.47.565-.842.996-1.12a2.664 2.664 0 0 1 1.465-.414c.42 0 .792.08 1.117.235.326.156.591.376.794.658.204.283.358.61.463.985.105.373.158.786.158 1.235 0 .186-.032.279-.095.279h-4.252c.032.565.225 1.03.575 1.397.352.366.805.548 1.358.548.641 0 1.214-.174 1.72-.522.047-.029.093-.012.14.048.044.06.09.146.14.261.07.172.104.298.104.373 0 .05-.016.087-.052.107a3.946 3.946 0 0 1-2.148.617Zm1.542-3.452c-.02-.581-.16-1.045-.417-1.39-.26-.345-.642-.519-1.148-.519-.518 0-.943.182-1.275.549-.332.366-.514.82-.546 1.36h3.386Zm3.505 3.369c-.083 0-.146-.002-.19-.004a1.716 1.716 0 0 1-.152-.014.33.33 0 0 1-.123-.038.086.086 0 0 1-.04-.075v-5.78c0-.061.04-.098.118-.112a3.235 3.235 0 0 1 .528-.016c.041.002.088.006.14.014.053.008.091.02.116.039a.087.087 0 0 1 .036.075v1.131c.41-.905.977-1.358 1.7-1.358.306 0 .587.085.844.255.026.029.04.071.04.132 0 .075-.03.2-.089.378-.09.261-.18.393-.267.393a.084.084 0 0 1-.052-.018 1.504 1.504 0 0 0-.682-.148c-.282 0-.533.089-.753.269-.22.18-.387.405-.498.678a2.275 2.275 0 0 0-.166.866v3.202c0 .059-.043.095-.128.109a2.527 2.527 0 0 1-.382.022Zm5.183.087c-.107 0-.17-.018-.19-.058l-2.692-5.918a.093.093 0 0 1-.012-.053c0-.049.038-.077.115-.089.077-.012.197-.018.36-.018.363 0 .56.034.593.101.033.067 1.82 4.341 1.82 4.341l1.825-4.34c.037-.068.235-.102.593-.102a2.276 2.276 0 0 1 .324.016.245.245 0 0 1 .115.033c.025.014.037.034.037.058 0 .025-.004.04-.012.053l-2.692 5.918c-.02.04-.08.058-.184.058Zm5.691-7.538c-.115.117-.29.176-.528.176-.237 0-.413-.059-.527-.176-.115-.116-.172-.28-.172-.488 0-.21.057-.373.172-.49.114-.117.29-.174.527-.174.238 0 .412.057.528.174.115.117.172.28.172.49 0 .208-.057.372-.172.488Zm-.338 7.447a4.124 4.124 0 0 1-.379 0 1.59 1.59 0 0 1-.151-.014.343.343 0 0 1-.126-.038.09.09 0 0 1-.038-.075v-5.792a.09.09 0 0 1 .038-.075.258.258 0 0 1 .126-.035 2.56 2.56 0 0 1 .346-.016 2.741 2.741 0 0 1 .336.016c.056.004.099.016.123.035a.085.085 0 0 1 .039.075v5.792a.086.086 0 0 1-.039.075.32.32 0 0 1-.123.038 1.588 1.588 0 0 1-.152.014Zm4.24.087c-.826-.002-1.494-.29-2.002-.864-.508-.575-.76-1.324-.76-2.244 0-.921.252-1.67.76-2.247s1.176-.866 2.002-.866c.728 0 1.38.184 1.957.552.036.019.053.061.053.124 0 .07-.033.196-.1.374-.14.308-.253.437-.344.385-.483-.32-.975-.48-1.477-.48-.56 0-1.008.205-1.34.614-.332.408-.498.924-.498 1.544 0 .617.166 1.129.498 1.536.332.406.78.61 1.34.61.53 0 1.042-.161 1.536-.485.05-.028.103-.008.154.06.052.072.105.173.16.306.07.199.107.338.107.421 0 .057-.014.09-.043.102-.56.372-1.228.556-2.003.558Zm5.703 0c-.585-.002-1.095-.141-1.53-.42a2.66 2.66 0 0 1-.977-1.122 3.716 3.716 0 0 1-.327-1.583c0-.574.118-1.094.35-1.562.234-.47.565-.842.996-1.12a2.664 2.664 0 0 1 1.466-.414c.419 0 .791.08 1.117.235.326.156.59.376.793.658.205.283.358.61.464.985.105.373.157.786.157 1.235 0 .186-.032.279-.094.279h-4.252c.032.565.224 1.03.574 1.397.352.366.806.548 1.358.548.642 0 1.214-.174 1.72-.522.047-.029.094-.012.14.048.044.06.091.146.14.261.07.172.105.298.105.373 0 .05-.016.087-.053.107a3.946 3.946 0 0 1-2.147.617Zm1.542-3.452c-.02-.581-.16-1.045-.417-1.39-.259-.345-.641-.519-1.147-.519-.518 0-.943.182-1.275.549-.332.366-.514.82-.547 1.36h3.386Zm3.95 3.452c-.799-.002-1.489-.184-2.07-.552-.036-.02-.052-.06-.052-.12 0-.079.034-.198.105-.36.095-.237.184-.356.267-.356a.1.1 0 0 1 .055.012c.556.34 1.127.51 1.712.51.435 0 .783-.08 1.04-.243a.775.775 0 0 0 .388-.694.65.65 0 0 0-.088-.338.876.876 0 0 0-.205-.249 1.43 1.43 0 0 0-.344-.192 4.389 4.389 0 0 0-.382-.15 18.098 18.098 0 0 0-.45-.134l-.28-.076-.272-.08a3.07 3.07 0 0 1-.288-.099c-.052-.022-.14-.058-.257-.109a1.078 1.078 0 0 1-.255-.135c-.052-.043-.121-.093-.208-.158a.748.748 0 0 1-.192-.193 9.59 9.59 0 0 1-.134-.222.87.87 0 0 1-.097-.273 1.711 1.711 0 0 1-.026-.314c0-.538.21-.955.631-1.25.421-.296.965-.446 1.633-.446.73 0 1.38.184 1.951.552.035.019.053.057.053.112 0 .077-.037.194-.107.356-.05.12-.105.213-.162.281-.059.07-.111.091-.164.063-.569-.336-1.083-.504-1.542-.504-.358 0-.662.075-.909.225-.247.152-.37.362-.37.635 0 .095.024.182.077.261.05.08.109.144.174.195.065.052.168.105.305.161.138.055.253.096.34.124.09.028.227.067.413.12.19.05.334.09.43.117.096.028.236.073.416.137.178.063.32.124.421.18.1.057.217.136.348.235.134.1.235.203.306.312a1.637 1.637 0 0 1 .26.897c0 .404-.11.74-.333 1.012a1.828 1.828 0 0 1-.878.578c-.363.114-.782.17-1.26.172Z" fill="#252932"/><path fill-rule="evenodd" clip-rule="evenodd" d="M44.743 66.297c-.805.32-1.472.75-1.797 1.564-1.352 3.395 1.763 5.63 4.387 4.656 4.337-1.61 1.766-7.953-2.59-6.22ZM59.072 66.226c-3.742.855-3.323 7.291 2.084 6.368 1.567-.267 2.754-2.118 2.268-4.248-.364-1.6-2.29-2.591-4.352-2.12ZM70.051 66.605c-.064.495.08.984.296 1.39.848-.21.678-.547 2.003-.535.908.009 1.656.425 1.172 1.276-.38.148-.986.084-1.45.112-3.427.213-3.173 3.631-.8 3.81 1.97.149 1.847-.683 2.54-.762l.081.695h1.373c.08-2.355.536-5.308-1.033-6.165-1.111-.607-3.053-.242-4.182.179Z" fill="#222732"/><path fill-rule="evenodd" clip-rule="evenodd" d="M50.189 75.163c3.101.382 3.173-1.352 4.072-3.438l1.998-5.527-1.52-.019c-.23.583-1.352 3.893-1.579 4.114-.185-.212-1.396-3.483-1.608-4.069l-1.618-.04c0 .588 1.497 3.924 1.836 4.746.385.936.826 1.622.046 2.462-1.05 1.131-1.818-.451-1.627 1.771ZM36.467 65.112l2.17.027.066 7.476 1.698.02c.176-.581.075-5.16.071-6.435l.057-.759c.136-.602 1.236-.168 2.289-.38.162-1.775-.1-1.502-1.514-1.496l-4.766.013-.071 1.534ZM65.16 66.1c-.222.069-.242.03-.425.068-.46.096-.116-.11-.545.17l-.007 1.066c.406.21.439.109.938.165l.036 2.766c0 2.003.737 2.468 2.535 2.3.648-.06.726-.17 1.165-.437l-.213-1.085c-.468-.004-.478.07-.836.087-.23.011-.139.028-.387-.01-.871-.128-.659-.919-.655-2.32l.007-1.282c1.534-.246 1.917.552 1.694-1.364-1.15-.127-1.572.164-1.678-.446l-.058-1.547c-1.844-.125-1.558.272-1.572 1.869Z" fill="#222732"/><path fill-rule="evenodd" clip-rule="evenodd" d="M59.436 67.668c-.889.384-1.44 1.194-1.023 2.49.28.87 1.36 1.353 2.391.995 1.977-.685 1.045-4.527-1.368-3.485ZM45.314 67.67c-2.506 1.896-.233 4.132 1.514 3.414.81-.332 1.354-1.379.897-2.5-.282-.693-1.598-1.528-2.41-.913ZM72.426 69.847c-.64.143-1.28.12-1.181 1.01.077.695.892.828 1.54.584.529-.2.918-.634.973-1.146.1-.938-.816-.564-1.332-.448Z" fill="#FDFDFD"/><path d="M74.302 52.053H36.467v.658h37.835v-.658Z" fill="#252932"/></svg>