<svg width="120" height="120" fill="none" xmlns="http://www.w3.org/2000/svg"><path fill-rule="evenodd" clip-rule="evenodd" d="m31.8 76.23.047-2.031.001-2.416-.002-.541c-.047-.336.054.202-.018-.086l-.029-.077v2.627l-4.667-2.334c-.26-.128-.415-.233-.674-.361l-5.374-2.712-2.695-1.348-8.036-4.091 1.46-.513c.503-.176.977-.316 1.463-.508.603-.24.445-.204 1.382.264l14.495 7.248 1.315.657 1.331.682c.138-.215.05-2.22.048-2.654-.037-.225-.048-.493-.048-.493-1.558-.824-3.564-1.782-5.193-2.597l-14.33-7.165-.658-.328c-.203-.102-.507-.202-.625-.362.238-.02 2.454-.793 2.866-.93.904-.302.592-.324 1.358.059.447.224.835.418 1.282.64l10.19 5.096 2.563 1.281 2.547 1.29v-2.95c-.24-.055-.978-.488-1.282-.64l-11.7-5.95c-.913-.454-7.509-3.887-7.824-3.96v-.099c.198-.016 1.196-.374 1.461-.462.206-.069 2.012-.702 2.13-.69.203.023 3.81 1.946 4.462 2.27.448.222.835.417 1.282.64 2.52 1.26 5.097 2.648 7.626 3.912l2.547 1.298c.461.231.854.455 1.298.67.101-.16.048-2.468.048-2.658l.002-.69c-.254-.06-4.843-2.397-5.21-2.58L13.59 46.112c-.25-.125-2.466-1.17-2.597-1.348l49.003-16.398 49.011 16.398c-.583.796-20.884 10.502-20.884 10.502l.018 3.303 17.438-8.787c-.055-.017.057-.008 0 0 .584.207 3.362 1.206 3.362 1.206-5.375 2.794-10.782 5.582-16.205 8.271-.714.355-4.223 2.233-4.584 2.318l-.011 2.958c.849-.398 1.677-.892 2.554-1.254l5.148-2.542 2.563-1.282 7.034-3.473c.257-.125.431.029.701.126l2.866.98s-18.592 9.32-20.866 10.452v3.155c5.758-2.87 11.512-5.75 17.266-8.627.91-.455.638-.453 1.424-.191.27.09 2.788.96 3.014.98-1.532 1.036-21.704 10.846-21.704 10.846l-.003 2.514c9.386-4.71 18.783-9.386 28.116-14.199 0 .099-6.459-2.268-6.459-2.268s6.379-3.33 6.459-3.303l-7.05-2.465 7.099-3.599-7.149-2.268 7.149-3.747-56.307-18.877-56.3 18.877s7.049 3.764 7.1 3.747l-7.1 2.268 7.1 3.698-7.1 2.465 6.499 3.224-6.498 2.248c.073-.025 28.102 14.209 28.102 14.209Z" fill="#00624D"/><path fill-rule="evenodd" clip-rule="evenodd" d="M31.846 55.908c0 .19.054 2.497-.047 2.658v.399a.16.16 0 0 1 .015.034l.032.116c.006.041.005.146.005.192l-.003.348.055.29c.014.145.019.158.043.302.248 1.449.531 2.293 1.2 3.631.394.788.595 1.05 1.039 1.723.193.293.379.514.593.787l.656.774c1.378 1.432 2.836 2.707 4.551 3.731.591.353 1.147.701 1.79 1.022 2.801 1.398 4.986 2.249 8.108 2.984 3.214.758 4.214.731 7.215 1.068l2.754.056c4.428 0 8.059-.456 12.206-1.648 2.071-.595 4.05-1.401 5.97-2.361l2.6-1.542c1.134-.757 1.395-1.022 2.354-1.788l1.422-1.387c.333-.436.718-.731 1.253-1.509.83-1.207 1.42-2.188 1.897-3.625.19-.577.499-1.585.499-2.311l.05 2.12c.014 2.44-1.165 5.082-2.508 6.91-.211.288-.405.517-.627.803-.54.695-1.299 1.404-1.956 1.988-3.192 2.837-7.646 4.915-11.782 5.967-1.716.436-3.006.724-4.786.981-.843.122-1.744.243-2.602.308l-2.069.1c-.262.008-.371.053-.688.052-2.469-.015-4.301-.017-6.832-.368-1.433-.198-2.242-.329-3.691-.647-1.339-.295-3.232-.798-4.486-1.283l-2.093-.816c-.325-.133-.645-.295-.975-.454L40.181 74c-.894-.54-1.727-1.153-2.544-1.794l-.774-.657c-.146-.149-.227-.188-.37-.32l-.74-.74c-.481-.476-1.514-1.786-1.894-2.394-.873-1.395-1.619-3.035-1.856-4.7-.038-.397-.205-1.381-.205-1.381v2.513c0 .636.067 1.252.15 1.88.218 1.602.88 3.137 1.702 4.51.69 1.153 1.555 2.128 2.499 3.072.216.216.463.5.699.682l.747.634a30.033 30.033 0 0 0 3.295 2.275c.9.533 1.823.968 2.789 1.402 5.084 2.284 10.669 3.204 16.27 3.204h1.381c.514 0 .85-.049 1.333-.048.408.001.872-.09 1.28-.1 1.567-.04 4.454-.623 6.003-.949 1.795-.378 3.602-.97 5.295-1.656l1.443-.628c.803-.332 1.55-.77 2.313-1.187 1.097-.6 2.786-1.722 3.668-2.544.142-.131.24-.193.371-.32l1.06-1.01c.146-.147.192-.247.344-.396.896-.884 1.76-2.14 2.314-3.257.326-.658.565-1.215.811-1.95.187-.56.487-1.593.487-2.324l.05 2.121c.01 1.828-.63 3.623-1.397 5.16a13.715 13.715 0 0 1-2.437 3.381l-1.084 1.086c-1.348 1.298-3.472 2.709-5.14 3.536-.183.09-.288.168-.476.264-2.028 1.03-4.131 1.76-6.322 2.405-1.542.453-3.192.758-4.81 1.008-.858.133-1.74.22-2.6.31-.446.046-.936.037-1.336.092-.429.059-2.984.06-3.537.063l-3.43-.218-2.57-.339a42.1 42.1 0 0 1-4.753-1.065l-2.194-.714c-1.42-.465-2.718-1.114-4.046-1.773-1.245-.618-2.435-1.391-3.545-2.223-.63-.472-1.404-1.084-1.956-1.643l-.74-.739c-.142-.147-.19-.242-.345-.395l-.65-.78c-.648-.86-1.2-1.732-1.687-2.7-.508-1.007-.853-2.162-1.045-3.293l-.104-.98c0-.115.012-.247-.053-.345.003.433.09 2.439-.047 2.654v.39l.029.076c.072.288-.03-.25.018.086l.002.541c.091.143.157.965.207 1.174.252 1.068.569 2.137 1.091 3.1.092.168.151.264.247.443l1.702 2.44c.063.078.1.102.166.178.088.098.088.122.174.22.639.725 1.39 1.382 2.121 2.02.762.667 1.574 1.212 2.437 1.755a34.417 34.417 0 0 0 3.145 1.736c.159.078.304.126.477.213.909.458 2.022.86 3.005 1.186l3.253.937c1.496.374 3.13.717 4.708.863l2.517.244 2.754.057h1.38c.509 0 .872-.053 1.332-.049 1.05.01 4.01-.416 4.993-.578 2.735-.45 6.513-1.52 9.058-2.774l1.412-.709c.334-.169.587-.3.895-.485.868-.521 1.733-1.048 2.538-1.653.395-.296.797-.58 1.157-.914 1.406-1.306 1.928-1.772 3.027-3.234 1.05-1.398 2.409-4.171 2.409-5.973l.05 2.121c.01 1.827-.63 3.623-1.397 5.16-.321.642-.715 1.216-1.119 1.79a9.163 9.163 0 0 1-.627.803c-.247.276-.427.525-.691.788l-1.852 1.747-1.257.962c-.292.199-.558.389-.848.582l-2.268 1.33c-.182.09-.287.17-.475.265-.335.17-.635.292-.97.46-1.013.507-2.056.897-3.133 1.254a67.07 67.07 0 0 1-2.22.69c-2.378.7-4.926 1.059-7.408 1.318-.447.047-.937.038-1.337.093-.237.032-.487.008-.728.011-.285.004-.372.054-.688.053l-5.544-.227-2.57-.338c-.858-.143-1.624-.308-2.433-.476a29.776 29.776 0 0 1-3.4-.939l-3.176-1.212c-.688-.297-1.31-.628-1.958-.95-1.643-.822-3.816-2.223-5.138-3.54l-1.456-1.453c-.146-.145-.189-.221-.32-.37-.123-.137-.226-.27-.333-.406-1.125-1.44-1.98-3.004-2.498-4.8a9.564 9.564 0 0 1-.255-1.174c-.033-.231-.052-.413-.086-.653-.028-.191.01-.41-.042-.6l-.03-.07-.047 2.03c0 2.068.21 3.456.81 4.95.288.72.58 1.331.956 1.953 1.621 2.69 3.612 4.37 6.21 6.114.16.107.303.186.454.286l.938.542c1.484.767 2.329 1.234 3.936 1.832l2.159.75c5.162 1.686 10.048 1.964 15.5 1.808l1.327-.104c.418-.031.899-.099 1.33-.148 2.878-.33 6.661-1.177 9.364-2.271.69-.279 1.38-.53 2.045-.865.438-.22.986-.43 1.453-.715.845-.515 1.267-.681 2.288-1.362.737-.491 1.766-1.253 2.467-1.87.15-.134.222-.235.382-.358.881-.672 2.342-2.59 2.969-3.589 1.176-1.876 1.986-4.741 1.751-6.962l.003-2.514v-9.17l.01-2.959-.01-3.007-.018-3.303c-.163.612.236 1.938-.887 4.754-.54 1.355-1.771 3.294-2.819 4.33-.284.28-.487.543-.71.72l-1.111 1.008c-1.428 1.2-3.074 2.253-4.749 3.091-5.308 2.654-11.309 3.944-17.502 3.944h-1.38c-.53 0-.865-.047-1.383-.047-.708 0-3.122-.277-3.902-.388-.432-.061-.83-.132-1.23-.199-3.31-.55-6.783-1.602-9.772-3.096-1.18-.59-2.07-1.06-3.178-1.801-.767-.512-1.35-.981-2.06-1.54-.344-.27-1.566-1.391-1.824-1.725-.249-.322-.586-.649-.986-1.184-.776-1.038-1.032-1.458-1.632-2.657-.604-1.207-.91-2.527-1.087-3.892l-.016-.527a.596.596 0 0 0-.008-.042l-.011-.038-.03-.07Z" fill="#E4B769"/><path fill-rule="evenodd" clip-rule="evenodd" d="m18.29 45.456 13.992 6.971c.106-1.022 1.478-3.326 2.18-4.26.602-.802 1.086-1.308 1.811-2.033 1.065-1.065 3.015-2.544 4.385-3.306 3.291-1.832 5.469-2.678 9.205-3.614 2.647-.663 6.34-1.153 9.15-1.153 3.769 0 5.271.087 8.925.69 3.27.54 6.948 1.798 9.696 3.172 1.824.912 3.107 1.748 4.7 2.99.242.189.452.389.697.585.128.102.204.2.325.316.314.303.587.455.97.952.112.144.196.202.313.329.117.125.17.211.295.345.9.967 1.932 2.769 2.422 3.989.12.3.224.712.352.979l13.992-6.972-41.708-14-41.702 14.02Z" fill="#00624D"/><path fill-rule="evenodd" clip-rule="evenodd" d="M82.137 55.267c0 1.486-.24 2.29-.904 3.534-.269.504-1.062 1.55-1.45 1.952-.207.215-.713.775-.9.825v3.55c.433-.116 2.357-1.69 2.822-2.158.508-.51.978-1.017 1.418-1.589 2.451-3.19 2.934-6.998.81-10.523-.469-.779-1.126-1.65-1.76-2.284-.304-.305-.7-.753-1.015-1.006-.937-.747-1.228-1.066-2.275-1.767 0 1.051.003 2.104 0 3.155-.003.87-.003.508.53 1.047.277.28.566.522.8.827l1.12 1.642c.416.744.804 1.76.804 2.795Z" fill="#E4B769"/></svg>