<svg width="120" height="120" fill="none" xmlns="http://www.w3.org/2000/svg"><path fill-rule="evenodd" clip-rule="evenodd" d="M42.438 63.684c-.19-.944-3.565-6.35-3.996-7.686-2.708.493-4.224 1.716-7.475 1.179-2.71-.449-4.557-1.395-5.883-3.035-3.509-4.339.581-9.955 6.166-8.695 3.562.803 7.884 5.532 9.714 8.055 1.771 2.442 5.557 9.477 5.717 12.107-2.328.567-8.95 3.256-11.123 4.378-3.193 1.65-6.042 4.5-7.683 7.808-4.308 8.684-.007 17.646 7.047 20.366 7.799 3.007 16.544-1.33 19.797-9.276 3.207-7.837 2.695-18.739.218-26.868a47.232 47.232 0 0 0-4.811-10.689C46.48 45.38 40.683 38.642 33.46 36.986c-8.167-1.874-17.168 2.901-18.345 11.898-.64 4.895 1.514 9.028 3.788 11.564 2.334 2.603 5.58 4.536 10.286 5.199 2.449.344 4.794.206 7.141-.206 1.23-.215 5.394-1.238 6.108-1.757ZM74.009 67.796l-.55 8.587c.81.343 2.407.64 3.27.91 2.95.925 5.634 3.284 6.684 6.04 1.924 5.046-2.638 9.476-7.653 7.025-3.58-1.75-5.147-7.448-5.629-11.284-.338-2.697-.334-5.452-.085-8.143.114-1.233.841-6.258 1.386-7.076 4.039.56 8.002 2.126 13.21 2.128 8.107.001 16.05-5.907 16.533-14.234.541-9.341-6.558-15.57-15.776-15.12-11.032.541-19.438 14.527-22.342 24.026-3.228 10.563-3.544 28.659 6.243 35.9 11.7 8.658 26.983-1.376 22.537-15.797-1.187-3.848-3.977-6.732-6.702-8.673-2.917-2.078-6.617-3.464-10.206-4.267-.859-.192-.49-.085-.804-.047a.584.584 0 0 0-.117.025ZM51.49 47.12c.358-.304 5.305-6.126 5.448-6.427-.339-.918-1.224-2.156-1.767-3.047-2.142-3.521-2.879-8.326-.324-11.38 3.917-4.682 10.627-.825 9.765 5.59-.598 4.458-4.749 10.164-6.913 12.758a145.84 145.84 0 0 0-2.227 2.726c-1.456 1.825-1.869 1.997-1.353 2.905.507.895 3.013 6.044 3.468 6.434 1.354-1.098 6.13-6.36 7.504-7.971 2.381-2.795 4.703-5.371 6.415-9.21 1.727-3.871 2.596-8.297 1.336-12.922-2.215-8.139-10.82-13.502-18.93-10.131-5.86 2.435-8.65 8.135-9.242 14.165-.42 4.278 1.381 8.557 3.546 11.956.596.936 2.627 4.158 3.274 4.555Z" fill="#D4322F"/><path fill-rule="evenodd" clip-rule="evenodd" d="m47.86 78.926-.284-4.493c-2.648.376-7.43 2.735-9.168 4.115-2.055 1.63-4.784 5.266-2.93 9.027 1.59 3.226 6.134 3.721 8.823 1.183 2.111-1.993 3.564-5.724 3.559-9.832ZM75.399 55.903c3.637 1.065 8.71 2.13 12.384.633 1.748-.712 3.213-1.663 4.04-3.201.998-1.859.927-4.23-.26-5.715-2.797-3.504-6.88-2.595-10.113-.21-1.342.989-2.525 2.343-3.495 3.74-.5.72-2.433 3.91-2.556 4.753Z" fill="#fff"/></svg>