<svg width="120" height="120" fill="none" xmlns="http://www.w3.org/2000/svg"><path fill-rule="evenodd" clip-rule="evenodd" d="M52.08 86.038c1.294.135 10.018.03 12.074.03 4.081 0 7.044-.102 10.217-1.886 5.894-3.313 7.91-13.24 2.068-15.076.277-.266 1.145-.67 1.585-1.008 1.569-1.203 2.734-2.478 3.406-4.55 1.141-3.516.166-6.114-2.33-7.42-2.504-1.31-6.358-1.091-9.47-1.091H59.087L52.08 86.038Zm9.102-6.457c2.133.002 4.858.15 6.903-.044 2.05-.194 3.396-1.192 3.959-2.957.738-2.313-.033-3.785-2.308-4.063-1.008-.123-5.992-.151-6.925 0l-1.63 7.064Zm2.805-12.37c1.236.18 4.572.08 5.958.033 1.819-.062 3.093-1.126 3.579-2.51.723-2.066-.106-3.312-2.142-3.434-1.597-.095-4.457-.111-6.038.008l-1.357 5.902Z" fill="#005EA1"/><path fill-rule="evenodd" clip-rule="evenodd" d="m14.168 66.6 2.768-2.658c1.697-1.713 7.747-6.052 9.502-7.134 4.508-2.777 9.152-5.32 14.5-7.612 9.864-4.226 23.702-8.382 35.821-8.382 6.884 0 14.019.787 18.928 4.404 3.575 2.633 5.302 6.503 4.195 11.258-.504 2.167-1.046 2.738-1.476 4.082.294-.14.054.015.293-.195.054-.048.147-.16.2-.224l2.752-3.336c3.173-4.411 5.895-10.354 2.859-15.653-3.489-6.09-13.288-7.858-20.105-7.858-9.037 0-15.713 1.1-24.161 3.487-11.574 3.271-24.535 9.11-34.049 16.582-.611.48-1.16.892-1.72 1.38l-1.719 1.482c-2.186 1.839-4.346 4.185-6.117 6.49-.582.756-2.169 2.943-2.47 3.887Z" fill="#EF2D3D"/><path fill-rule="evenodd" clip-rule="evenodd" d="m34.124 75.615-6.65-.002c-.139-.001-.393-.012-.52-.002-.22.019.023-.016-.195.025-.249.046-.132.016-.265.082-.407 1.175-.4 3.603-.102 4.907 1.07 4.707 6.019 6.18 10.795 6.078 7.05-.15 12.096-3.173 14.05-8.404 1.146-3.069 1.402-6.126-1.067-8.436-1.951-1.826-4.874-2.493-7.905-3.36-1.348-.384-3.04-.794-3.938-1.635-1.956-1.833 1.277-5.225 5.632-3.978 1.651.473 2.389 1.53 2.006 3.5h7.457c.249-.061.208.099.343-1.023.862-7.166-5.433-9.607-11.836-8.837-11.017 1.324-14.084 10.835-11.032 14.874 3.775 4.996 15.637 3.57 12.703 8.799-1.457 2.598-6.408 2.706-8.204 1.58-1.463-.918-1.43-2.093-1.272-4.168ZM79.873 86.038l7.649.03 7.02-31.03-7.664-.001-7.005 31Z" fill="#005EA1"/></svg>