<svg width="120" height="120" fill="none" xmlns="http://www.w3.org/2000/svg"><path fill-rule="evenodd" clip-rule="evenodd" d="m98.502 52.973-8.336 5.7c-1.24 14.156-6.58 25.115-20.947 29.856-16.284 5.374-29.557-3.82-35.239-13.006C19.95 52.841 41 23.31 67.906 30.66c4.098 1.12 5.852 2.713 8.894 4.022l7.505-5.298c-1.804-2.497-7.072-5.018-10.764-6.436-13.633-5.236-29.746-1.82-39.574 7.236-5.494 5.063-10.622 11.505-12.695 21.673-6.175 30.282 23.807 55.889 52.581 44.685 14.575-5.674 28.696-21.783 24.649-43.568Z" fill="#21A037"/><path fill-rule="evenodd" clip-rule="evenodd" d="m60.089 58.685-15.11-9.054-.116 11.264 15.254 9.142L95.573 43.62s-4.272-7.462-4.352-7.576L60.09 58.685Z" fill="#21A037"/></svg>