<svg width="120" height="120" fill="none" xmlns="http://www.w3.org/2000/svg"><path fill-rule="evenodd" clip-rule="evenodd" d="M42.533 37.473h50.894c.99 0 1.522.81 1.182 1.8l-2.514 7.32c-.34.99-1.428 1.8-2.418 1.8H38.783c-.99 0-1.522-.81-1.182-1.8l2.514-7.32c.34-.99 1.428-1.8 2.418-1.8Z" fill="url(#a)"/><path fill-rule="evenodd" clip-rule="evenodd" d="M36.353 54.498h50.894c.99 0 1.521.81 1.181 1.8l-2.513 7.32c-.34.99-1.428 1.8-2.418 1.8H32.603c-.99 0-1.522-.81-1.182-1.8l2.514-7.32c.34-.99 1.428-1.8 2.418-1.8Z" fill="url(#b)"/><path fill-rule="evenodd" clip-rule="evenodd" d="M30.323 71.607h50.894c.99 0 1.522.81 1.182 1.8l-2.514 7.32c-.34.99-1.428 1.8-2.418 1.8H26.573c-.99 0-1.522-.81-1.182-1.8l2.514-7.32c.34-.99 1.428-1.8 2.418-1.8Z" fill="url(#c)"/><defs><linearGradient id="a" x1="460.899" y1="37.473" x2="714.637" y2="2013.73" gradientUnits="userSpaceOnUse"><stop stop-color="#3572C7"/><stop offset="1" stop-color="#4189F7"/></linearGradient><linearGradient id="b" x1="454.719" y1="54.498" x2="708.456" y2="2030.75" gradientUnits="userSpaceOnUse"><stop stop-color="#3572C7"/><stop offset="1" stop-color="#4189F7"/></linearGradient><linearGradient id="c" x1="448.689" y1="71.607" x2="702.426" y2="2047.86" gradientUnits="userSpaceOnUse"><stop stop-color="#3572C7"/><stop offset="1" stop-color="#4189F7"/></linearGradient></defs></svg>