<svg width="120" height="120" fill="none" xmlns="http://www.w3.org/2000/svg"><path fill-rule="evenodd" clip-rule="evenodd" d="M35.007 71.734c2.65 3.695 2.67 1.913 5.884.213 1.406.547 2.478 1.609 4.156 2.498 24.966 13.229 51.28-12.052 41.97-36.965-1.312-3.512-1.835-2.854-.644-4.652 1.465-2.209.435-3.346-.369-4.99-.874.92-.386.826-.985 2.064-.682 1.411-9.26 9.159-10.437 10.19-12.4 10.875-18.84 16.829-32.33 27.064-1.217.924-2.166 1.601-3.43 2.503-3.504 2.502-2.99 1.542-3.815 2.075ZM36.203 66.811l18.363-25.794c1.136-1.523 5.777-7.28 6.02-8.674-3.814-1.928-6.351-3.977-5.506-5.237 4.72-3.054 17.973-1.584 23.145-2.136-.944-1.53-6.147-4.311-8.296-5.13-3.773-1.434-7.47-2.21-12.168-2.024-19.905.79-33.314 21.131-26.753 40.042.992 2.86 3.314 7.759 5.195 8.953Z" fill="#E5011A"/><path d="M26.525 107.605V91.693c0-.426.178-.665.532-.714 1.153-.173 2.51-.261 4.074-.261 2.158 0 3.745.368 4.765 1.103 1.023.736 1.533 1.99 1.533 3.76v.504c0 1.281-.288 2.332-.864 3.147-.572.811-1.356 1.339-2.354 1.569l3.746 6.299c.288.457.43.736.43.829 0 .155-.124.235-.377.235h-1.698c-.208 0-.363-.031-.46-.089a.94.94 0 0 1-.28-.315c-.257-.447-.652-1.134-1.179-2.056-.527-.922-1.01-1.769-1.454-2.536a114.09 114.09 0 0 1-1.17-2.078c-.253.017-.665.026-1.246.026-.625 0-1.09-.009-1.391-.026v6.515c0 .226-.04.377-.124.448-.08.075-.235.111-.461.111H27.11c-.226 0-.38-.036-.46-.111-.085-.071-.125-.222-.125-.448Zm2.607-8.63c.882.045 1.52.067 1.91.067 1.419 0 2.407-.217 2.956-.652.55-.434.825-1.232.825-2.393v-.355c0-1.077-.257-1.817-.767-2.23-.51-.412-1.44-.62-2.792-.62-.71 0-1.295.027-1.755.08-.253.022-.377.168-.377.43v5.673Zm11.427 5.284v-8.648c0-.182.04-.306.124-.377.08-.066.217-.102.407-.102h1.383c.2 0 .337.031.417.098.075.066.115.19.115.385v8.258c0 .98.204 1.636.612 1.977.421.355 1.095.532 2.021.532.926 0 1.61-.195 2.048-.585a1.42 1.42 0 0 0 .434-.714c.085-.297.124-.7.124-1.21v-8.258c0-.186.04-.31.124-.38.08-.067.218-.103.408-.103h1.383c.209 0 .346.036.421.102.076.071.111.204.111.404v8.621c0 1.507-.452 2.588-1.352 3.249-.408.319-.9.549-1.48.687-.58.137-1.321.208-2.22.208-.9 0-1.636-.071-2.213-.208a4.173 4.173 0 0 1-1.516-.687c-.9-.661-1.351-1.742-1.351-3.249Zm13.07 3.125c0-.111.05-.381.152-.803l.128-.474c.058-.244.173-.363.341-.363.058 0 .124.008.195.031.071.022.178.057.315.106.138.049.28.098.421.137.803.244 1.68.364 2.642.364.816 0 1.414-.146 1.786-.443.377-.293.563-.754.563-1.379v-.128c0-.581-.142-.998-.421-1.25-.28-.253-.753-.448-1.427-.585l-1.436-.315c-1.334-.288-2.23-.678-2.686-1.17-.452-.492-.678-1.299-.678-2.416v-.182c0-1.227.363-2.14 1.094-2.73.732-.594 1.857-.89 3.369-.89 1.223 0 2.345.15 3.377.451.218.058.324.169.324.332 0 .018-.049.275-.15.772l-.13.505a.709.709 0 0 1-.11.288c-.044.049-.11.071-.204.071-.11 0-.28-.03-.519-.093a9.888 9.888 0 0 0-2.322-.253c-.856 0-1.45.12-1.782.364-.332.244-.5.651-.5 1.232v.133c0 .479.145.829.442 1.064.297.235.865.439 1.698.616l1.339.288c1.156.257 1.972.656 2.45 1.197.48.545.719 1.378.719 2.504v.208c0 1.255-.4 2.208-1.197 2.855-.798.652-1.981.975-3.541.975-1.392 0-2.682-.222-3.874-.66-.253-.085-.377-.204-.377-.359Zm11.09 0c0-.111.05-.381.151-.803l.129-.474c.058-.244.173-.363.341-.363.058 0 .124.008.195.031.071.022.178.057.315.106.137.049.28.098.421.137.802.244 1.68.364 2.642.364.815 0 1.414-.146 1.786-.443.377-.293.563-.754.563-1.379v-.128c0-.581-.142-.998-.421-1.25-.28-.253-.754-.448-1.427-.585l-1.436-.315c-1.335-.288-2.23-.678-2.686-1.17-.453-.492-.679-1.299-.679-2.416v-.182c0-1.227.364-2.14 1.095-2.73.732-.594 1.857-.89 3.369-.89 1.223 0 2.345.15 3.377.451.218.058.324.169.324.332 0 .018-.049.275-.15.772l-.13.505a.709.709 0 0 1-.11.288c-.044.049-.11.071-.204.071-.11 0-.28-.03-.519-.093a9.888 9.888 0 0 0-2.322-.253c-.856 0-1.45.12-1.782.364-.332.244-.5.651-.5 1.232v.133c0 .479.145.829.442 1.064.297.235.865.439 1.698.616l1.339.288c1.156.257 1.972.656 2.45 1.197.48.545.719 1.378.719 2.504v.208c0 1.255-.4 2.208-1.197 2.855-.798.652-1.981.975-3.541.975-1.392 0-2.682-.222-3.874-.66-.253-.085-.377-.204-.377-.359Zm11.224-15.492v-.195c0-.523.141-.908.425-1.161.284-.253.656-.377 1.113-.377h.128c.466 0 .83.124 1.1.377.265.253.398.638.398 1.161v.195c0 .523-.133.909-.398 1.162-.27.252-.634.376-1.1.376h-.128c-.457 0-.83-.124-1.113-.376-.284-.253-.425-.639-.425-1.162Zm.345 15.793V95.611c0-.182.04-.306.124-.377.08-.066.218-.102.408-.102h1.383c.2 0 .337.031.417.098.075.066.115.19.115.381v12.074c0 .191-.04.315-.115.381-.08.067-.217.098-.417.098H76.82c-.19 0-.328-.036-.407-.102-.085-.071-.125-.195-.125-.377Zm5.368-3.094v-.425c0-1.463.426-2.509 1.272-3.139.381-.301.887-.518 1.512-.647.63-.128 1.489-.195 2.588-.195h.638c.599 0 1.14.027 1.623.08v-1.117c0-.833-.204-1.4-.612-1.715-.408-.31-1.086-.466-2.034-.466-.891 0-1.858.124-2.9.368-.31.076-.487.111-.54.111-.173 0-.288-.124-.337-.377l-.097-.505c-.067-.354-.102-.58-.102-.687 0-.2.12-.332.359-.399 1.179-.39 2.45-.585 3.825-.585 1.729 0 2.974.341 3.737 1.02.766.678 1.147 1.843 1.147 3.497v8.377c0 .129-.03.226-.097.288-.062.058-.173.089-.328.089h-1.037c-.284 0-.452-.124-.506-.373l-.106-.762h-.053c-.452.918-1.516 1.374-3.196 1.374h-.82c-2.624 0-3.936-1.272-3.936-3.812Zm2.447-.035c0 .669.142 1.152.43 1.44.288.293.767.439 1.445.439h.873c.824 0 1.44-.182 1.84-.541.398-.363.598-.939.598-1.728v-1.933a11.8 11.8 0 0 0-1.445-.08h-1.175c-.948 0-1.609.147-1.994.439-.382.288-.572.825-.572 1.596v.368Z" fill="#E2001A"/></svg>