<svg width="120" height="120" fill="none" xmlns="http://www.w3.org/2000/svg"><path fill-rule="evenodd" clip-rule="evenodd" d="M0 120h120V0H0v120Z" fill="#042"/><path fill-rule="evenodd" clip-rule="evenodd" d="m91.075 71.422.024 2.542 3.37.057.054-1.39 4.266.014.042 1.375h3.34l.054-2.708-.84-.049-.023-10.056-8.324.005c-.265 2.206.137 7.714-.061 9.024-.17 1.122-.87.911-1.902 1.186ZM30.147 62.398l.004 10.197c1.626.03 7.512.423 8.292-.903.333-.568.305-3.77.014-4.35-.305-.564-.861-.608-1.743-.702 2.024-.285 1.844-.667 1.844-2.963 0-2.84-1.528-2.472-5.253-2.47l-3.153.033-.005 1.158Zm3.437 8.869c.65-.002.961.1 1.541-.166.12-.805.048-1.662.063-2.481.028-1.529-.096-1.186-1.608-1.182l.004 3.829Zm.012-5.417c1.79.05 1.593.183 1.585-1.532-.009-1.93.322-1.713-1.544-1.733l-.041 3.265ZM40.486 56.174l3.527-.012.026-5.205 1.513-.015.072 5.219 3.513.024.008-11.44h-3.536l.012 4.567-1.59.017-.017-4.59-3.441-.003c-.35 1.38-.099 9.401-.087 11.438ZM52.326 62.078l.003 10.547 3.536.013.027-5.188 1.496-.033c.208 1.154.081 3.796.081 5.19l3.529.034.008-11.422-3.534.013v4.558l-1.597-.007-.003-4.566-3.54.01-.006.851ZM70.197 72.635c4.393.018 3.257.76 4.039-2.86l2.467.008.54 2.858 3.496-.002-2.587-11.428-5.396-.003-2.559 11.427Zm4.275-4.499 1.985-.013-1.066-5.034c-.281.614-.906 4.593-.919 5.047ZM39.914 72.591l3.5.063.498-2.788c.616-.207 1.72-.116 2.478-.08l.551 2.809 3.475.06-2.563-11.44-5.38-.01-2.559 11.386Zm4.21-4.46 2.07-.015c-.078-.583-.663-4.734-1.102-5.234l-.969 5.25ZM17.858 72.64l3.459-.004.554-2.812 2.5-.078c.151.868.202 2.19.622 2.875l3.376.024-2.55-11.356-5.396-.087-2.565 11.438Zm4.214-4.523 2.064-.002-1.104-5.259-.96 5.261ZM28.142 56.177l3.405.001.64-2.866c1.71.012 1.618-.082 2.305.096a.66.66 0 0 1 .119.043l.578 2.73 3.46.002-2.552-11.417-5.282-.033-2.673 11.444Zm4.255-4.538 2.018.036-1.07-5.036-.948 5ZM17.816 56.155c1.603.101 3.47.02 5.1.006 1.476-.012 3.494-.063 3.724-1.433.21-1.248.298-4.06-.516-4.651-1.342-.972-4.177-.252-4.59-.697-.357-.581-.14-2.332-.101-3.168 1.327-.259 3.219.203 4.436-.179l-.008-1.264-7.97-.034-.075 11.42Zm3.6-1.353 1.614-.042c.116-1.027.223-2.946-.065-3.751l-1.525-.13-.024 3.923ZM51.82 56.175l3.456-.015.007-4.848c.469.372 1.11 1.787 1.484 2.492 1.54 2.905.504 2.378 4.517 2.377-.727-1.894-2.026-3.776-2.745-5.61-.431-1.1 1.619-3.681 2.33-5.829l-3.267.002c-.467.626-.766 1.453-1.113 2.153a67.92 67.92 0 0 0-.52 1.074l-.672 1.044-.025-4.239-3.365-.046c-.39 1.675-.083 9.168-.088 11.446ZM82.263 72.59l3.456.06.013-4.066c5.277-.312 5.186.393 5.04-5.396-.05-1.967-1.43-1.982-3.273-1.981-1.709.001-3.467-.039-5.17.011l-.066 11.372Zm3.464-5.356c.721 0 1.462.113 1.963-.173.263-.602.278-3.722-.036-4.366l-1.883-.117-.044 4.656ZM63.972 61.918v10.72l3.43.004.014-10.001 3.54-.056.016-1.377-6.997.008-.003.702Z" fill="#FCFEFC"/><path fill-rule="evenodd" clip-rule="evenodd" d="m96.065 71.294 2.353.008v-8.71l-1.949.01c-.336 2.584.437 6.588-.404 8.692Z" fill="#042"/></svg>