<svg width="120" height="120" fill="none" xmlns="http://www.w3.org/2000/svg"><path d="M60 118.555c32.339 0 58.555-26.216 58.555-58.555S92.339 1.445 60 1.445 1.445 27.661 1.445 60 27.661 118.555 60 118.555Z" fill="#47A239"/><path fill-rule="evenodd" clip-rule="evenodd" d="M66.52 24.4c-28.199 5.197-23.65 29.262-23.597 56.282.006 2.953-.39 10.3.378 12.509 1.312 3.778 6.724 4.057 8.609.763 2.933-5.126-1.75-39.65 2.79-50.403 2.35-5.567 8.07-10.124 15.855-10.818 3.89-.347 8.184-.846 6.412-6.242-1.255-3.82-7.11-2.706-10.447-2.09Z" fill="#FDFFFD"/></svg>