<svg width="120" height="120" fill="none" xmlns="http://www.w3.org/2000/svg"><path fill="#FC3F1D" d="M0 0h120v120H0z"/><path d="M81.833 97.788H68.662V32.644h-5.868c-10.755 0-16.388 5.378-16.388 13.405 0 9.108 3.885 13.328 11.924 18.705l6.624 4.465-19.038 28.558H31.753l17.135-25.496C39.035 65.244 33.49 58.374 33.49 46.784c0-14.485 10.099-24.338 29.215-24.338h19.04v75.32h.088v.022Z" fill="#fff"/><path d="M81.833 97.788H68.662V32.644h-5.868c-10.755 0-16.388 5.378-16.388 13.405 0 9.108 3.885 13.328 11.924 18.705l6.624 4.465-19.038 28.558H31.753l17.135-25.496C39.035 65.244 33.49 58.374 33.49 46.784c0-14.485 10.099-24.338 29.215-24.338h19.04v75.32h.088v.022Z" fill="#fff"/></svg>