<svg width="120" height="120" fill="none" xmlns="http://www.w3.org/2000/svg"><path d="M120 0H0v120h120V0Z" fill="#FE5000"/><path fill-rule="evenodd" clip-rule="evenodd" d="M69.02 73.647h-9.477c-.131 0-.171-.04-.171-.17v-7.194H69.99c1.215 0 2.2.336 2.904.864 1.82 1.362 1.682 4.805-.296 5.854-1.144.607-2.236.646-3.578.646Zm-16.1 5.766h18.27c2.607 0 5.698-1.31 7.347-3.27 1.063-1.265 1.565-2.326 1.98-3.957.096-.37.115-.612.174-1.025a9.093 9.093 0 0 0-.161-3.314c-1.092-4.74-5.209-7.33-9.969-7.33H59.372V55.78h18.953v-5.823H52.921v29.457ZM27.574 55.322c1.177 0 1.593 0 2.74.285.861.215.985.315 1.722.62.399.164 1.125.614 1.467.873.976.737 1.585 1.332 2.292 2.39a9.558 9.558 0 0 1 1.533 4.29c.088.851.063 1.368-.038 2.171a11.39 11.39 0 0 1-.177 1.022 7.926 7.926 0 0 1-.594 1.746c-.38.758-.767 1.508-1.338 2.145-.277.309-.557.633-.88.891-.512.41-.944.854-1.684 1.227-.165.083-.233.133-.363.207-.977.56-2.874 1.03-4.337 1.03-2.064 0-3.8-.625-5.322-1.644-.43-.288-1.23-.941-1.553-1.358-.108-.14-.167-.174-.275-.296-.472-.526-1.04-1.505-1.338-2.145a9.445 9.445 0 0 1-.761-2.721c-.036-.325-.038-.769-.091-1.11-.144-.923.355-2.991.71-3.866 1.353-3.334 4.667-5.757 8.287-5.757Zm-15.528 9.42c0 1.138.147 2.364.338 3.316a16.047 16.047 0 0 0 2.035 5.272c.916 1.53 2.05 2.794 3.437 3.927a13.191 13.191 0 0 0 4.866 2.499c3.88 1.026 7.938.231 10.798-2.104.74-.604 1.4-1.312 1.974-2.08 1.01-1.351.325-1.182 1.728-1.182.131 0 .171.04.171.17v4.853h6.451V49.956h-6.45v4.966c0 .259-.294.172-.914.172-.317 0-.379-.292-.667-.761l-1.573-1.91c-.125-.123-.154-.131-.28-.232l-.816-.67c-.718-.54-1.04-.695-1.859-1.109-2.543-1.283-6.003-1.466-8.756-.648-.994.295-1.718.654-2.568 1.085-.38.194-.747.437-1.1.67a16.263 16.263 0 0 0-2.005 1.648l-1.28 1.404-1.13 1.61c-1.473 2.448-2.4 5.365-2.4 8.56Z" fill="#FEFEFE"/><path fill-rule="evenodd" clip-rule="evenodd" d="M87.46 50.013c0 4.12 2.553 7.87 6.01 9.346 4.098 1.75 8.415.977 11.388-1.996.979-.98 1.478-1.638 2.127-2.953 1.294-2.624 1.284-6.063.019-8.699-.22-.459-.632-1.191-.924-1.587-.459-.621-1.204-1.486-1.811-1.957-.252-.196-.463-.371-.71-.546-2.377-1.685-5.271-2.183-8.179-1.556-1.345.29-2.415.84-3.513 1.567-2.669 1.769-4.407 5.09-4.407 8.38Z" fill="#00F500"/></svg>