<svg width="120" height="120" fill="none" xmlns="http://www.w3.org/2000/svg"><path fill-rule="evenodd" clip-rule="evenodd" d="M.045 119.954h119.909V82.717H.045v37.237Z" fill="#F80000"/><path fill-rule="evenodd" clip-rule="evenodd" d="m56.084 42.304.396-.436.027 29.413 6.608-.029-.016-38.025-8.252.018c-1.096.27-10.13 15.624-11.722 16.912-.677-1.284-1.931-3.003-2.773-4.237-.988-1.447-1.93-2.815-2.948-4.303-.422-.617-5.157-8.185-5.976-8.374l-8.19.003.015 38.127 6.724.012.111-29.327c2.218 2.942 4.447 6.172 6.517 9.247 2.14 3.18 4.465 6.356 6.588 9.561 1.189-1.336 2.083-2.9 3.158-4.45l6.511-9.405c1.022-1.45 2.229-3.139 3.222-4.707ZM96.92 70.684l.083-6.526c-4.717.982-10.472 2.287-15.216.518-4.369-1.629-5.064-6.863-5.059-12.404.005-5.399.617-10.695 5.128-12.333 4.556-1.655 10.639-.563 15.07.534l.076-6.527c-6.454-1.295-15.095-2.374-20.629.972-5.138 3.106-6.598 9.573-6.607 17.354-.009 7.634 1.547 14.568 6.52 17.439 5.393 3.113 14.239 2.683 20.634.973Z" fill="#030404"/><path fill-rule="evenodd" clip-rule="evenodd" d="M56.084 42.304c.682.403-.26 25.878.275 29.066l6.838.1c.325-1.81.086-30.296.1-35.826.002-.93.123-1.736-.198-2.417l.016 38.025-6.608.029-.026-29.413-.397.436Z" fill="#676868"/></svg>