<svg width="120" height="120" fill="none" xmlns="http://www.w3.org/2000/svg"><path fill-rule="evenodd" clip-rule="evenodd" d="M28.252 37.222S52.061 21.22 60 21.22c7.94 0 32.133 16.002 32.133 16.002L74.861 47.633h-29.21L28.252 37.222ZM95.91 43.794 77.955 54.046l-13.54 23.22V99.42c.028.011 9.83-5.221 18.565-11.112 4.781-3.224 12.932-8.182 12.932-14.16V43.793ZM25.108 43.794l17.956 10.252 13.54 23.22V99.42c-.028.011-9.83-5.221-18.565-11.112-4.78-3.224-12.931-8.182-12.931-14.16V43.793Z" fill="#7372C0"/><path fill-rule="evenodd" clip-rule="evenodd" d="M54.052 52.747h14.611c.961 0 1.786.472 2.273 1.3.486.83.497 1.78.029 2.62L63.74 69.613a2.575 2.575 0 0 1-2.288 1.351 2.574 2.574 0 0 1-2.302-1.33l-7.388-12.947a2.573 2.573 0 0 1 .01-2.63 2.573 2.573 0 0 1 2.28-1.311Z" fill="#FEA30C"/></svg>