<svg width="120" height="120" fill="none" xmlns="http://www.w3.org/2000/svg"><path fill-rule="evenodd" clip-rule="evenodd" d="M25.906 42.514H7.158c0 27.712 12.143 41.532 34.719 53.98l.003 18.553c22.629.168 44.31-14.387 53.687-34.767l18.127-.068s.032-10.739-2.482-19.016c-7.345-24.171-31.413-34.753-31.487-35.059V7.828c-17.07 0-41.682 12.164-50.157 27.14-1.24 2.191-2.414 5.383-3.662 7.545Zm14.558-1.715-.518 1.456 20.374.164.039 11.858c-2.12.546-33.986.198-38.99.191l.415 2.17c.217 4.526 5.298 12.993 7.357 15.643 2.641 3.4 8.415 9.126 13.02 10.482V62.52h11.85l.192 38.62c8.792-1.72 26.701-11.085 28.094-20.836L62.28 80.28l-.188-11.727 38.879-.004c-1.056-8.914-11.567-26.418-20.938-28.543l-.078 21.235H68.383l-.08-39.699c-5.013.062-13.48 4.714-16.677 6.921-5.332 3.682-8.123 7.127-11.162 12.336Z" fill="#14964D"/></svg>