<svg width="120" height="120" fill="none" xmlns="http://www.w3.org/2000/svg"><path d="M84.108 12H35.892C22.72 12 12.04 23.275 12.04 37.184v45.632C12.04 96.725 22.719 108 35.892 108h48.216c13.173 0 23.853-11.275 23.853-25.184V37.184C107.961 23.275 97.281 12 84.108 12Z" fill="#9AC14C"/><path fill-rule="evenodd" clip-rule="evenodd" d="m88.8 39.11-.079-7.567-57.458-.012-.104 56.902 57.577.036c.229-6.631.016-15.356.016-22.363 0-23.394-18.202-19.592-42.142-19.895-.179 1.469-.25 17.61-.058 20.12.185 2.412 2.413 6.248 5.08 6.664 1.974-.004 20.96.083 22.319.04l-.008-7.648-19.813-.026-.022-10.838c28.969 0 26.862-1.335 26.876 26.11l-41.512.146-.098-41.002 49.182-.003c.285-.348.13.318.245-.664Z" fill="#FEFEFE"/></svg>