<svg width="120" height="120" fill="none" xmlns="http://www.w3.org/2000/svg"><path fill-rule="evenodd" clip-rule="evenodd" d="m73.768 49.099-29.773-.073c-2.37-6.435-13.181-29.203-13.181-29.203C7.7 25.917.31 82.37 30.877 100.538L44.223 71.28l29.545-.037 13.41 28.929c20.479-5.866 37.518-59.096 0-80.363L73.767 49.1Z" fill="#083997"/><path fill-rule="evenodd" clip-rule="evenodd" d="m29.45 94.306 12.22-27.594s23.904.135 33.947 0c3.504 4.73 13.436 27.744 13.436 27.744 37.155-34.988-.415-69.975-.415-69.975s-8.746 23.165-12.37 28.691l-34.545.023L28.599 24.48c-17.45 15.472-22.025 50.627.85 69.826Z" fill="#FEFEFF"/><path fill-rule="evenodd" clip-rule="evenodd" d="m46.95 41.034 24.09.042 9.638-21.554-43.217-.06 9.489 21.572ZM46.95 78.6l24.09-.041 9.638 21.554-43.217.06 9.489-21.572Z" fill="#083997"/></svg>