<svg width="120" height="22" fill="none" xmlns="http://www.w3.org/2000/svg"><path d="M112.55 15.272h-2.947V5.242h2.947v3.74h1.23l2.588-3.74h3.307l-3.498 4.952 3.795 5.078h-3.308l-2.926-3.97h-1.188v3.97Zm-13.172 0h-2.563V5.242h2.945v5.642l4.535-5.642h2.543v10.03h-2.925V9.629l-4.535 5.643ZM72.338.399v5.907h2.394L78.482.4h3.538l-4.81 7.245 5.086 7.628h-3.518l-4.046-6.078h-2.394v6.078h-3.177V.399h3.177Zm22.055 4.843v10.164H91.35V7.571h-2.694c-.297 4.418-1.062 7.807-3.716 8.036L82.985 13v-.006c.22.085.438.127.635.127 1.664 0 2.036-3.325 2.233-7.877h8.538l.002-.002Z" fill="#3CAE61"/><path d="M45.31.315h10.715l-9.292 3.113-.04-1.21L45.31.318V.315Zm14.345 6.919v2.075l2.207-.02c.687 0 1.248-.265 1.248-1.018 0-.814-.604-1.058-1.27-1.058l-2.185.02Zm0 3.805v2.075h2.609c.748 0 1.368-.259 1.368-1.017 0-.818-.64-1.056-1.368-1.056h-2.609v-.002Zm3.316 4.151h-6.255V5.16h5.435c2.425 0 3.46 1.32 3.46 2.677 0 .731-.313 1.845-1.207 2.251 1.21.357 1.991 1.174 1.991 2.386 0 1.421-.85 2.716-3.424 2.716Zm-16.478.083h-2.564V5.243h2.945v5.643l4.536-5.643h2.542v10.03h-2.924V9.631l-4.535 5.642Zm-10.145-4.58c-1.06 0-2.098.376-2.098 1.461 0 .798.686 1.306 1.558 1.306.81 0 1.58-.244 2.244-.864v-1.66c-.436-.11-1.1-.243-1.703-.243Zm-.396-5.881c3.04 0 4.981 1.246 4.981 4.58v3.229c0 .527.338.675.718.675.168 0 .359-.02.55-.085v1.92a4.964 4.964 0 0 1-1.625.295c-1.035 0-1.815-.38-2.236-1.14-.992.781-2.154 1.246-3.652 1.246-1.9 0-3.546-1.098-3.546-3.102 0-2.575 2.428-3.378 4.455-3.378.803 0 1.688.106 2.406.274v-.359c0-1.013-.803-1.709-2.386-1.709-.774 0-1.503.117-2.162.287l-1.313-2.098c.846-.272 2.32-.639 3.814-.639l-.004.004Zm-9.307 5.361c0-1.609-1.036-2.94-2.777-2.94a3.023 3.023 0 0 0-2.754 1.717 3.952 3.952 0 0 0-.172 1.223c0 .461.058.87.172 1.223a3.023 3.023 0 0 0 2.754 1.716c1.74 0 2.777-1.33 2.777-2.939Zm-1.916-5.361c3.264 0 5.027 2.622 5.027 5.414s-1.76 5.414-5.027 5.414c-1.632 0-2.728-.662-3.394-1.386v6.507l-2.987.924V5.111h2.643v1.491c.644-.917 1.826-1.79 3.738-1.79ZM5.86 2.409 4.242.315h10.127v12.22h1.908v6.112h-2.83v-3.27H2.858v3.27H.028v-6.111h1.869l3.96-10.128.003.001Zm-.812 10.36h6.043V3.43H8.7L5.048 12.77Z" fill="#435861"/></svg>