<svg width="120" height="120" fill="none" xmlns="http://www.w3.org/2000/svg"><path d="M84.196 17.832h-48.07c-9.913 0-17.949 8.094-17.949 18.08v48.177c0 9.985 8.036 18.079 17.948 18.079h48.07c9.913 0 17.949-8.094 17.949-18.08V35.912c0-9.985-8.036-18.08-17.948-18.08Z" fill="#1B4790"/><path fill-rule="evenodd" clip-rule="evenodd" d="M102.144 43.94 89.758 56.322h-21.4l8.45 4.153-6.972 3.542h22.653l9.655-9.655V43.94Z" fill="#55C3E0"/><path fill-rule="evenodd" clip-rule="evenodd" d="m18.113 76.078 12.129-12.129h18.224l1.81-3.87-1.89-3.825H27.512l-9.333 9.334-.065 10.49Z" fill="#4489C8"/><path fill-rule="evenodd" clip-rule="evenodd" d="m44.8 45.083 4.017 15.392h29.845L44.8 45.083Z" fill="#FEFEFE"/><path fill-rule="evenodd" clip-rule="evenodd" d="m44.8 75.868 4.017-15.393h29.845L44.8 75.868Z" fill="#D0D3D2"/></svg>