<svg width="120" height="120" fill="none" xmlns="http://www.w3.org/2000/svg"><path d="M120 0H0v120h120V0Z" fill="#0073C0"/><path fill-rule="evenodd" clip-rule="evenodd" d="M21.586 52.612c-.502 2.849-2.232 5.256-1.025 10.832.267 1.234.753 2.173 1.011 3.224-1.194 1.778-2.964 2.979-3.07 6.973-.194 7.34 7.012 12.311 13.748 8.344 1.474-.867 2.269-1.765 2.836-2.06 7.35 3.78 14.453 4.354 22.18.554.591-.29 2.38-1.415 2.68-1.512.614-.198 3.314 1.608 5.365 2.346 4.586 1.65 9.198 2.01 14.002.858 3.372-.808 4.622-1.766 6.035-2.135.978 1.523 3.587 3.194 6.369 3.363 6.998.426 12.311-7.761 9.001-13.56-.788-1.38-1.614-1.738-2.263-2.772 2.304-6.416 1.462-8.319-.001-13.76 1.47-2.058 2.978-3.394 3.061-6.973.153-6.598-6.12-12.465-13.733-8.333-1.246.676-1.937 1.588-2.843 2.089-9.175-4.489-16.146-4.303-25.126 1.073-1.88-.619-5.218-3.665-11.956-4.021-7.946-.42-11.065 2.378-13.204 2.818-.955-1.504-3.553-3.208-6.366-3.362-3.032-.166-5.465 1.245-6.948 2.762-3.903 3.993-4.354 9.697.247 13.252Zm4.587-3.473c.23.355 1.177 1.188 1.494 1.5 2.236-2.163 2.317-2.556 5.371-4.761 1.85-1.337 4.356-2.714 6.785-3.585 6.659-2.39 11.096-.89 16.58 1.578.357-.27.47-.38.829-.709l.821-.914c-1.14-.468-2.29-1.243-3.716-1.808-7.844-3.103-15.61-1.278-22.212 3.326-1.866 1.301-5.108 3.835-5.952 5.373Zm47.4 29.71h-.2c-5.503.005-7.714-2.149-9.77-2.67l-1.598 1.457c2.244 2.03 8.165 3.469 11.767 3.469 4.46 0 8.721-1.57 11.811-3.422 2.642-1.584 7.173-4.8 8.278-6.824l-1.288-1.45c-.622.263-.404.193-.968.744-2.261 2.21-4.025 3.825-7.037 5.518-3.124 1.756-6.597 3.175-10.995 3.178Zm-35.894-2.078a5.925 5.925 0 0 0-1.354 1.71c4.849 2.872 11.26 3.645 17.303 1.542 2.74-.953 4.982-2.271 6.968-3.795 1.586-1.217 4.23-3.754 5.253-5.572l-1.606-1.465c-1.463 1.501-2.155 2.99-4.687 4.997-1.732 1.373-3.68 2.61-6.083 3.488-4.028 1.474-7.917 1.749-12.166.52-1.366-.395-2.443-1.071-3.628-1.425Zm16.473-27.184c.678.358 1.008.79 1.599 1.238.814-.767 1.353-1.739 2.188-2.587.768-.78 1.48-1.603 2.444-2.34 1.845-1.412 3.552-2.548 6.055-3.518 2.45-.949 5.363-1.527 8.337-1.299 3.46.266 4.825 1.114 7.572 2.153l1.416-1.685c-7.4-4.503-17.556-3.191-24.45 2.285-1.177.935-4.767 4.28-5.16 5.753Zm26.103-.58c.585.54.92.987 1.693 1.344.777-.745 1.344-1.595 2.004-2.418 1.93-2.405 3.983-5.607 6.61-6.76 2.797-1.228 5.141.101 6.172 1.94 1.907 3.4-.329 5.711-.668 6.804.362.513.887 1.349 1.436 1.582 4.397-4.225 1.866-13.374-5.144-13.065-4.485.198-7.29 4.415-9.577 7.33-.794 1.013-1.891 2.24-2.526 3.243ZM39.767 70.755c-.617-.304-1.028-.76-1.69-1.112-2.73 2.736-5.095 7.557-8.591 9.178-2.865 1.328-5.057-.069-6.125-1.831-1.638-2.703-.635-4.619.595-6.733l-.999-1.433c-.405-.372-.012-.109-.524-.388-1.466 2.261-3.133 5.025-1.534 8.631 2.656 5.989 9.157 6.016 13.88.262.809-.984 4.729-5.717 4.988-6.573Zm49.298-7.713c.57 1.118 7.837 8.084 8.263 9.185 1.332 3.445-2.76 9.802-8.6 5.736l-1.844 1.206c5.77 6.366 15.307-1.023 12.54-7.842-.687-1.691-2.62-2.993-4.283-4.887-.232-.265-4.12-4.583-4.618-4.836l-1.458 1.438Zm-59.541-4.607 1.449-1.484c-.612-.942-1.412-1.507-2.136-2.374-1.203-1.44-5.724-5.6-6.204-6.966-.929-2.642.889-4.993 2.247-5.906 2.818-1.896 4.356-.93 6.418.337.59-.313 1.176-.77 1.8-1.038-1.787-4.108-11.898-3.543-12.89 4.401-.5 4.01 1.972 5.17 5.127 8.683l4.189 4.347Zm48.27 12.42-1.43-1.698c-6.361 1.488-11.082-3.08-11.913-7.913-.552-3.204.43-3.757.975-5.942-.462-.695-.795-.903-1.15-1.69-1.532.881-2.371 4.838-2.16 7.022.897 9.243 11.203 13.328 15.677 10.222ZM42.247 49.12c1.173 2.878 2.304.946 5.334 1.476 3.862.676 6.868 3.83 7.82 7.52.83 3.217-.087 4.184-.813 6.558.388.688.892 1.152 1.388 1.72 3.24-4.413 2.153-9.818-.81-13.623-2.942-3.779-9.002-5.942-12.919-3.651Zm22.47-4.018c.43 1.114 1.773 1.867 2.393 3.103 4.09-.94 4.97-2.834 11.447-.276.575-.383 2.294-2.522 2.591-3.23-4.236-1.571-7.337-2.71-12.664-1.068-1.435.442-2.591 1.119-3.768 1.471ZM41.467 72.07c-.541.359-2.306 2.573-2.595 3.242 2.605 1.145 4.907 1.895 8.383 1.77 3.682-.133 5.314-1.205 8.054-2.184-.48-1.107-1.785-1.871-2.43-3.092-3.14.75-5.8 2.859-11.413.263Zm15.66-19.759c1.36 2.445 2.46 4.234 2.57 7.776.148 4.733-2.127 6.91-2.47 8.01.873.784 1.972 2.147 2.7 2.994.989-.429 2.413-2.48 2.992-3.297-1.297-2.564-2.415-4.017-2.599-7.703-.08-1.622.22-3.267.673-4.602.56-1.648 1.324-2.378 1.795-3.578-1.02-.911-1.876-2.557-3.061-3-.535.674-2.219 2.534-2.6 3.4Zm7.913 22.325c.999 1.234 5.62 2.21 7.755 2.31 3.508.166 5.784-.633 8.54-1.667-.453-.926-1.555-1.896-2.118-2.85-2.245.477-3.136 1.395-6.194 1.124-2.732-.243-3.546-.995-5.633-1.678-.564.502-.642.767-1.167 1.401-.382.461-.837.938-1.183 1.36ZM38.682 44.713c.388.87 1.554 1.922 2.087 2.86 2.954-.652 4.406-1.995 9.164-.54 1.012.31 1.821.838 2.702 1.088.568-.51 1.818-2.137 2.287-2.79-.16-.166-.068-.11-.361-.308l-3.115-1.294c-5.502-1.58-8.212-.504-12.764.984Zm48.624 2.014c1.124 1.893 8.42 5.732 8.412 13.56-.003 3.576-1.358 3.15 1.162 5.334 1.69-1.743 1.45-8.993-.754-12.535l-3.482-4.295c-1.02-.918-3.166-3.302-4.186-3.673-.344.57-.81 1.032-1.152 1.609Zm-55.721 28.16c.345-.622.813-1.034 1.13-1.638-.255-.37-1.382-1.395-1.822-1.785-1.436-1.272-4.299-4.191-5.149-5.824a12.763 12.763 0 0 1-1.446-5.952c.009-3.402 1.228-3.361-1.21-5.303-.873 1.146-1.106 4.792-1.003 6.51.138 2.316.862 4.343 1.796 6.013 1.048 1.876 6.048 7.124 7.704 7.978Zm2.057-12.008c.976 1.378 5.7 5.52 7.188 6.62 2.496 1.843 7.494 3.013 10.59.758-.273-.67-.85-1.248-1.378-1.735-5.895 1.882-7.968-.652-11.907-4.302-.946-.877-2.133-2.244-3.048-2.923l-1.445 1.582Zm34.9-13.23c.396.792.86 1.355 1.442 1.848 5.888-2.098 8.32 1.046 11.88 4.285.907.826 2.201 2.345 3.076 2.91l1.474-1.561c-1.162-1.399-5.671-5.477-7.249-6.629-3.596-2.624-6.456-2.327-10.623-.853ZM26.958 63.876c.237.739.6 1.378 1.15 1.893 1.57-1.108 2.996-3.258 4.08-4.196l6.69-7.069c-.314-.593-.895-1.262-1.399-1.692-1.234 1.023-1.808 1.716-2.736 2.745-2.482 2.75-5.383 5.51-7.785 8.32Zm54.187 1.596c.22.49.924 1.333 1.401 1.734L93.05 56.1c-.317-.78-.576-1.353-1.131-1.865-.692.352-.73.58-1.375 1.285l-6.707 7.054c-.672.579-2.168 2.188-2.692 2.899Zm-6.94-2.194c.436.912 8.097 9.887 8.674 11.048.848-.203 1.45-.686 2.053-1.009-.333-.746-8.49-10.85-9.365-11.69-.498.332-1.07 1.195-1.362 1.65Zm-6.402 1.396c.4.663.932 1.21 1.636 1.576.966-1.332 8.49-10.328 8.807-11.43-.667-.336-.917-.554-1.424-1.142-.884.348-1.41 1.453-2.42 2.65l-6.6 8.346Zm-32.718-18c.265.646 3.849 4.971 4.57 5.854l4.804 5.844c.261-.183.106-.056.348-.312.168-.177.26-.305.375-.45.349-.444.403-.493.63-.913-.87-1.464-8.067-9.802-8.697-11.014-1.015.244-1.254.633-2.03.99Zm13.178 16.368c.263.672 7.682 10.056 8.759 10.656.753-.448 1.162-.83 1.774-1.23l-4.566-5.405c-1.034-1.261-3.682-4.887-4.643-5.563-.485.635-.67.93-1.324 1.542Zm12.962-15.29c2.731 2.39 8.149 10.105 9.236 10.741.441-.615.713-.958 1.3-1.55-.363-.83-7.85-10.061-8.757-10.638-.703.337-1.41.843-1.779 1.447ZM41.81 64.873c.29.528.284.462.668.782l.984.654c.84-.856 1.377-1.641 2.18-2.644.75-.938 1.462-1.856 2.203-2.786l4.36-5.577c-.562-.792-.824-.93-1.529-1.505L41.81 64.873Zm41.937 3.723c.256.657 2.293 3.144 2.788 3.493 1.29-.727 3.802-3.032 4.425-4.224-.481-.653-.953-1.109-1.513-1.721-.353-.386-1.419-1.397-1.748-1.632l-3.952 4.084ZM29.055 52.111l3.31 3.38 2.817-3.094c.418-.48.67-.598 1.089-1.005-.285-.659-2.224-3.031-2.78-3.487-1.274.598-3.669 3.064-4.436 4.206Zm47.728 7.976c.579.834 2.476 3.266 3.171 3.865.642-.34 1.345-1.277 1.825-1.845.593-.7 1.37-1.259 1.803-2.02-.498-.908-2.921-3.267-3.827-3.797-.626.572-2.645 3.056-2.972 3.797Zm-40.344-.2c.443 1.016 1.142 1.1 1.86 1.975.706.861 1.128 1.416 1.972 1.844.867-.814 2.257-3.022 3-3.543-.4-.894-2.486-3.432-3.2-4.11l-3.632 3.835Zm47.054-8.374c.39.689 3.78 3.936 4.238 4.21.325-.239 2.65-2.622 2.871-3.014l-4.466-4.37c-.512.318-2.295 2.618-2.643 3.174ZM29.414 67.266c.55.918 3.733 3.892 4.476 4.406.52-.34.302-.231.702-.718l1.936-2.491-4.233-4.19-2.88 2.993Zm60.595-23.53c.827.967 1.436 1.374 2.343 2.166.528.46.644.783 1.138 1.247.544.51.828.78 1.22 1.14 2.911-2.721-1.21-8.467-4.701-4.553ZM30.01 76.24c-.58-.85-1.428-1.233-2.29-2.204-.427-.481-1.865-1.983-2.406-2.306-1.3 1.09-1.1 3.646-.1 4.814 1.098 1.284 3.757 1.127 4.796-.304Zm-5.286-28.534c.5-.263 1.7-1.739 2.417-2.34.675-.567 1.992-1.576 2.539-2.252-2.894-1.816-6.489 1.208-4.956 4.592Zm65.636 29.163c3.139 2.066 6.784-2.075 4.874-4.544-.526.325-1.53 1.672-2.316 2.315-.836.684-1.786 1.361-2.558 2.23Zm-39.42-16.845c.251.439.788 1.053 1.105 1.448.538.672.718 1.153 1.329 1.37.696-2.427.632-3.25-.134-5.562-.639.347-1.874 2.093-2.3 2.744Zm16.116 2.693c.527-.955 1.662-1.893 1.984-2.83-.33-.504-1.837-2.425-2.248-2.728-.525.624-.638 1.756-.62 2.732l.884 2.826ZM44.94 52.413c.453.957 1.43 1.96 2.111 2.686.554-.489 1.483-1.512 1.8-2.243-1-.356-2.654-.843-3.911-.443Zm26.282 14.653c1.013.648 2.444.713 3.665.535l-1.912-2.688c-.594.492-1.482 1.46-1.753 2.153Zm-25.952.178c1.77.206 1.961.079 3.566-.202-.324-.825-1.127-1.904-1.88-2.231-.469.904-1.279 1.52-1.686 2.433Zm25.942-14.137c.28.513 1.037 1.433 1.563 2 .673-.315 1.688-1.787 1.927-2.325-1.096-.201-2.68-.303-3.49.325Zm-44.937 8.59c.651-.358 1.568-1.275 1.858-2.07-.224-.187-.668-.537-.93-.82-.463-.5-.317-.532-.928-.914-.213 1.507-.17 2.297 0 3.803Zm65.606-1.317c.954.48.917 1.163 1.872 1.722.218-2.213.267-1.603-.017-3.806-.612.365-1.494 1.317-1.855 2.084Z" fill="#FDFEFE"/></svg>