<svg width="120" height="120" fill="none" xmlns="http://www.w3.org/2000/svg"><path fill-rule="evenodd" clip-rule="evenodd" d="M41.958 14.4c2.277.312 4.133-.129 5.571 1.28 1.496 1.463 5.547 11.564 6.76 14 .73 1.466 1.387 3.09 2.122 4.683.772 1.673 6.228 13.377 6.354 14.194-1.682.226-3.443.187-5.224.327-1.732.136-3.175.468-4.788.732-2.718.445-6.018 1.709-8.462 2.686-7.51 3.005-16.512 10.936-21.21 17.905l-1.117 1.63c-1.916 3.388-3.178 4.854-5.145 9.033-.58 1.234-3.131 6.796-3.144 8.052h21.099l.062-2.603c-.005-1.158-.179-.85-2.666-1.329-3.712-.715-3.533.235-2.892-4.134.4-2.731 2.715-6.443 3.961-8.734l5.436-7.244c4.397-4.497 6.633-6.12 12.158-8.806 3.879-1.886 9.424-3.092 14.014-3.126l1.971 4.276c2.034 4.27 4.054 9.272 6.029 13.22 2.916 5.83 4.623 11.224 9.722 16.02 3.922 3.69 9.828 4.617 15.141 2.931 4.624-1.466 8.718-5.288 8.696-10.606-.015-3.816-1.481-7.36-2.872-9.968-2.931-5.496-7.465-9.897-12.647-13.088-2.386-1.47-6.055-3.21-8.71-4.095l-1.954-.644c-.601-.233.1-.011-.38-.137-4.733-1.244-3.126.33-5.351-4.455L60.426 15.46c-.735-1.595-1.205-2.957-1.966-4.414l-16.519.01.017 3.344Zm36.077 39.503 1.173 2.852c2.742 4.927 7.81 18.349 10.089 20.957 2.396 2.742 4.904 5.167 8.7 5.573 2.086.223 4.179-.784 5.261-1.773 3.116-2.843 1.563-7.35.127-10.506-3.409-7.488-11.977-13.506-19.8-15.711-1.206-.34-4.3-1.41-5.55-1.392Zm-18.85 42.705c1.239.798 1.654-.018 1.654 2.204 0 11.842.277 8.234-1.745 9.738.573.43 4.154.186 5.084.186 2.587 0 5.023-1.263 4.4-4.21-.545-2.582-3.365-2.463-6.066-2.623v-4.895c6.33-.314 3.956 1.237 5.392 2.175l-.135-2.696c-.447-.065-7.913-.282-8.584.12Zm-33.773 0c1.222.783 1.741-.345 1.741 2.204 0 11.493.383 8.378-1.741 9.738.763.487 3.987.186 5.171.186v-.373c-.791-.009-1.027-.1-1.544-.322-.347-1.409-.214-3.432-.214-5.025 1.69.144 3.398.394 4.62-.558 1.661-1.295 2.197-5.617-2.743-6.005-1.114-.087-4.58-.298-5.29.155Zm57.505 0c1.155.742 1.741-.095 1.741 2.02v7.901c0 2.239-.644 1.318-1.741 2.021.763.487 3.987.186 5.171.186v-.373c-.739-.011-1.03-.105-1.544-.338-.353-1.323-.214-3.618-.214-5.161l5.703.028c-.001 1.217.022 2.445.003 3.648-.037 2.307-.682 1.294-1.736 2.01.722.489 4.033.186 5.162.186v-.373c-1.513-.027-1.75-.291-1.75-1.834v-7.9c0-1.57.215-1.807 1.75-1.835v-.373c-1.129 0-4.44-.303-5.162.187 1.753 1.193 1.732-1.459 1.732 5.646l-5.702.04c0-1.582-.138-3.793.219-5.168.548-.252.762-.32 1.54-.332v-.373c-1.185 0-4.409-.3-5.172.187Zm-13.412 12.088c.987.08 3.06.342 3.78-.146-.403-.295-.814-.264-1.331-.622-.148-1.095.687-2.239.989-3.22l4.856-.013c.294 1.033 1.05 2.081.96 3.222-.583.507-.644.265-1.17.633.73.465 3.676.186 4.804.186-.32-.708.1-.13-.66-.506-.875-.431-.869-.452-1.511-1.964-.492-1.155-.926-2.224-1.4-3.375-.496-1.204-2.327-6.084-2.909-6.61-.591.603-3.525 7.953-4.326 9.785-1.429 3.267-1.633 1.518-2.082 2.63Zm-57.505 0c.987.08 3.06.342 3.78-.146-.402-.295-.814-.264-1.331-.622-.148-1.095.687-2.239.989-3.22l4.857-.013c.293 1.033 1.05 2.081.96 3.222-.583.507-.645.265-1.171.633.73.465 3.677.186 4.804.186-.543-1.2-.876.575-2.171-2.47-.492-1.155-.926-2.224-1.4-3.375-.496-1.204-2.326-6.084-2.908-6.61-.622.634-2.37 5.192-2.896 6.438-.534 1.262-1.636 4.71-2.832 5.431-.604.363-.417-.108-.681.547v-.001Zm87.663-6.442c0-7.072-.053-4.39 1.732-5.646-.476-.322-4.704-.347-5.19 0 1.639 1.217 1.745-1.716 1.745 5.879 0 7.792-.054 4.806-1.744 6.063.485.347 4.713.322 5.189 0-1.776-1.251-1.732 1.405-1.732-5.647 1.412-.07 2.009 1.155 2.935 2.478.655.936 1.844 2.409 2.268 3.355.882 0 2.519.245 3.134-.186-1.058-.7-1.226.244-3.33-2.849-2.016-2.964-1.279-1.741-2.88-3.438 1.842-.944 1.728-3.006 2.951-4.705 1.444.022 1.289.87 2.656.243.229-1.382-.464-1.84-1.989-1.463-3.03.75-1.461 6.299-5.745 5.916Zm-63.994-5.646c.346.209.893.134 1.281.384.412.265.465.835.465 1.453v8.268c0 1.622-.318 1.396-1.33 1.687l-.416.15c.7.435 7.92.226 9.364.156l1.023-3.089c-1.412.584-.643 2.562-3.764 2.562-3.925 0-3.179.713-3.179-5.499 4.408-.045 3.854-.274 4.65 1.59.387-.39.24-.451.236-1.782-.002-.333.03-.814.013-1.121-.011-.207-.008-.289-.063-.487-.16-.575.125-.045-.187-.36-.705 1.927-.517 1.621-4.649 1.591v-5.126c5.81-.06 4.768-.241 5.752 2.136.296-.267.141.075.235-.504.018-.115.002-.576-.005-.712-.025-.477-.063-.95-.082-1.433l-8.245-.064c-.13.002-.41.007-.53.025l-.569.175Zm22.1 3.831-.24-4.162c-.545.228-.293.23-.686.67-1.298-.011-4.02-1.796-7.009.403-1.58 1.164-2.999 3.339-2.587 6.412.762 5.679 7.81 6.867 10.486 2.731 1.11-1.715-1.315.817-1.38.868-1.997 1.569-7.178 1.429-7.16-4.69.02-6.817 5.911-7.282 7.746-3.81.408.772.322 1.158.83 1.578Zm4.756 7.632c5.414.874 5.793-5.995.022-5.339l-.022 5.339Zm-33.7-10.943v5.373c5.189.727 4.048-3.953 2.81-4.973-.59-.487-2.144-.805-2.81-.4Zm-13.09 6.995h4.26c-.277-.809-.65-1.588-1.002-2.41-.298-.696-.613-1.87-1.179-2.365l-2.08 4.775Zm57.504 0H77.5l-1.496-3.569c-.082-.197-.166-.46-.266-.649-.255-.485-.019-.206-.42-.556l-2.079 4.775v-.001Z" fill="#862031"/></svg>