<svg width="120" height="120" fill="none" xmlns="http://www.w3.org/2000/svg"><path fill-rule="evenodd" clip-rule="evenodd" d="M7.252 1.252h105.496c3.304 0 6 2.696 6 6v105.496c0 3.305-2.696 6-6 6H7.252c-3.305 0-6-2.695-6-6V7.252c0-3.304 2.695-6 6-6Z" fill="#428B38"/><path fill-rule="evenodd" clip-rule="evenodd" d="M115.764 50.135c0 18.71-.1 34.397-.1 53.107-1.494 7.829-7.294 12.512-13.776 12.512-6.413 0-85.635-.186-85.635-.186-6.247.186-12.662-9.596-12.662-11.996V85.854s53.686-32.463 112.173-35.72Z" fill="#CEC199"/><path fill-rule="evenodd" clip-rule="evenodd" d="M3.59 82.1V14.714c0-9.21 8.197-10.478 13.43-10.478h87.25c5.406 0 11.494 4.241 11.494 13.208v31.757S54.666 52.127 3.591 82.1Z" fill="#B49F64"/><path fill-rule="evenodd" clip-rule="evenodd" d="M69.448 67.686c-9.512 2.182-6.389 16.64 3.184 14.63 9.127-1.916 6.566-16.868-3.184-14.63ZM47.294 67.722c-9.83 2.502-5.754 17.054 3.575 14.523 3.279-.889 6.248-4.568 5.231-8.974-.822-3.567-4.364-6.68-8.806-5.549ZM58.846 82.639c-9.84 1.716-7.1 16.483 2.463 14.747 3.592-.652 6.653-4.14 5.885-8.79-.586-3.548-4.017-6.713-8.348-5.957ZM58.162 22.77c-9.587 2.585-5.568 16.96 3.714 14.417 9.276-2.541 5.67-16.947-3.714-14.416ZM47.249 37.724c-9.696 2.508-5.76 16.981 3.561 14.484 3.307-.885 6.32-4.287 5.308-8.921-.77-3.53-4.42-6.714-8.869-5.563ZM58.742 52.605C49.088 54.42 51.71 68.95 61.239 67.34c3.695-.625 6.68-4.112 5.965-8.736-.553-3.57-4.097-6.818-8.462-5.998ZM69.399 37.685c-9.58 2.438-6.136 16.581 3.147 14.605 3.57-.76 6.494-4.32 5.658-8.88-.651-3.548-4.357-6.857-8.805-5.725ZM80.475 22.677c-9.36 1.988-6.478 16.718 3.161 14.596 3.475-.765 6.515-4.392 5.615-8.799-.752-3.686-4.234-6.762-8.776-5.797ZM36.524 22.626c-9.499 1.868-6.777 16.481 2.737 14.69 9.217-1.734 7.052-16.615-2.737-14.69ZM80.631 82.717c-9.772 2.038-6.398 16.846 3.081 14.597 3.444-.817 6.407-4.457 5.53-8.845-.727-3.637-4.223-6.667-8.61-5.752ZM36.298 82.767c-9.828 2.49-5.854 16.92 3.506 14.494 3.354-.87 6.234-4.607 5.252-9.016-.782-3.51-4.429-6.575-8.758-5.478Z" fill="#FEFEFE"/></svg>