<svg width="120" height="120" fill="none" xmlns="http://www.w3.org/2000/svg"><path fill-rule="evenodd" clip-rule="evenodd" d="M19.145 100.51c1.418.331 3.042.438 4.475.367 5.812.001 76.215.46 77.041-.367.723-.723-.634-9.289-.927-10.984-2.33-13.493-8.14-20.652-16.359-29.981l-.094-.093-.091-.094-1.464-1.328c-2.142-2.175-2.848-1.152-.87-4.497l1.322-2.213c.899-1.646 18.003-30.653 18.111-31.953-.366-.193-.549-.372-1.117-.372H86.89c-5.937 0-7.376 4.138-9.827 8.226-4.181 6.974-21.293 34.406-17.98 35.773.74.306 1.165.6 1.884.907 10.155 4.334 22.221 20.418 19.037 20.418H36.268c-.572 0-.745-.545-.745-1.117v-45.41c0-2.975.015-2.233 5.77-2.233 3.43 0 13.819.215 16.553-.01 2.513-.207 4.179-.45 6.23-2.517.028-.027.067-.066.093-.094.092-.097.32-.382.418-.512C65.427 31.316 72 20.18 72 19.739a.715.715 0 0 0-.744-.744H19.89c-.838 0-.764.808-.754 1.665.323 26.56.01 53.27.01 79.85Z" fill="#68B92E"/></svg>