<svg width="120" height="120" fill="none" xmlns="http://www.w3.org/2000/svg"><path fill-rule="evenodd" clip-rule="evenodd" d="M0 120h120V0H0v120Z" fill="#FBC115"/><path fill-rule="evenodd" clip-rule="evenodd" d="M65.035 15.641c.065 2.809.64 3.453-1.313 5.471-2.44 2.523-9.52 6.944-12.72 9.183-2.757 1.928-6.443 4.235-7.861 6.679-3.328 5.73-2.965 19.019-3.064 26.16-.126 9.024-.258 16.746 5.087 23.957 1.668 2.25 5.1 5.138 8.554 6.144 8.626 2.513 17.255-.859 21.31-6.162 4.63-6.053 5.29-15.68 3.895-24.414-1.309-8.188-5.718-13.616-14.303-14.678-4.865-.601-8.576.13-12.187 2.15-4.376 2.447-5.037 4.438-6.728 7.973l-1.593.082c-.1-2.095.257-6.422.893-8.099.82-2.164 2.7-3.756 4.376-4.864 3.396-2.246 8.083-4.302 12.03-6.176 1.662-.79 4.516-2.18 5.835-3.187 6.647-5.07 3.216-14.48 1.428-21.05l-3.64.831Z" fill="#020202"/><path fill-rule="evenodd" clip-rule="evenodd" d="m45.14 104.085.1-3.59-.84-.222c-14.316-3.546-15.497-13.526-15.85-27.01-.118-4.556-.272-24.83.119-28.286 1.244-10.988-.518-22.068 17.32-25.408l.541-4.895c-4.166-.708-12.34 1.904-15.43 3.457-4.448 2.235-7.992 5.228-10.163 8.97-4.92 8.487-6.08 20.478-6.087 31.985-.006 11.22.764 24.15 5.483 32.77 4.058 7.415 13.039 13.79 24.725 13.492l.081-1.263ZM74.756 100.426l.15 4.928c4.608.602 11.79-1.9 14.918-3.667 4.134-2.335 7.388-5.642 9.57-9.38 4.733-8.107 5.761-21.409 5.756-32.117-.006-11.136-.963-23.89-5.55-32.136-3.997-7.186-13.029-13.87-24.637-13.38.111 1.192.33 2.126.52 3.287.575 3.51.745.222 7.034 3.986 3.16 1.89 5.306 4.554 6.68 8.218 2.487 6.636 2.275 19.484 2.273 27.448-.001 9.11.398 19.948-1.255 28.413-1.594 8.159-7.35 12.916-15.459 14.4Z" fill="#020202"/><path fill-rule="evenodd" clip-rule="evenodd" d="M53.212 69.024v4.233c.01 5.66.564 16.719 7.728 15.175 5.823-1.255 5.5-13.147 5.496-19.408-.013-3.194-.2-7.052-.95-9.99-.785-3.075-1.997-5.332-5.564-5.352-6.797-.04-6.697 10.39-6.71 15.342Z" fill="#F3CA45"/><path fill-rule="evenodd" clip-rule="evenodd" d="M58.67 54.291c-1.507.257-2.431 1.228-3.138 2.595-2.645 5.11-2.292 20.857-.822 26.175.798 2.885 2.716 5.747 6.297 4.837 2.689-.683 4.099-4.63 4.352-7.126.089-.873.327-1.747.378-2.39.334-4.263.457-16.147-.731-19.223-.934-2.415-1.495-5.694-6.336-4.868Z" fill="#FBC115"/></svg>