<svg width="120" height="120" fill="none" xmlns="http://www.w3.org/2000/svg"><path d="M120 0H0v120h120V0Z" fill="#00ADEF"/><path fill-rule="evenodd" clip-rule="evenodd" d="M74.34 51.769c-.517-3.471 1.4-5.502-2.483-5.46-9.61.105-8.217-1.407-8.217 5.609l-.002 41.05 11.097.055s.005-23.505 0-28.918c-.003-3.11 0-2.926 1.66-4.358 1.862-1.43 4.635-3.39 7.46-4.257 9.48-2.911 8.335 7.534 8.335 14.24v23.278h11.128s.223-17.347.223-20.934c0-10.86 2.159-28.324-15.043-27.083-5.864.422-11.14 4.26-14.157 6.778ZM30.23 93.038c.57-1.773.171-33.152.245-37.962h7.403c-.063.06 0-8.882 0-8.884 0-.012-7.403 0-7.403 0-.04-2.718-.262-6.328 1.186-8.212 2.356-3.064 6.298-1.008 7.872-1.932.843-.578 1.422-4.118 1.701-5.144.814-2.984 1.316-3.25-2.054-3.727-4.029-.57-8.79-.406-12.298 1.1-7.704 3.31-7.757 10.514-7.757 20.125l-.002 41.956c-.03 3.717.542 2.909 4.209 2.907 1.903 0 5.363.25 6.897-.227ZM42.382 55.076h6.092v37.969c1.259.393 10.436.436 11.184-.097V46.192H42.26l.122 8.884ZM45.12 38.36c.038-.048.085-.19.1-.154l.755-1.382c1.04-1.46 2.54-2.512 3.842-3.659 1.597-1.407 4.037-3.262 4.024-6.174l-1.839-.344c-1.05 1.279-.6 2.429-4.533 5.342-2.213 1.851-3.952 2.464-2.35 6.37ZM52.409 42.285c.61-.836.285-1.425 2.174-3.416 2.272-2.395 8.025-6.12 2.265-10.476 1.297 4.016-.07 4.515-2.345 7.114-1.464 1.673-3.655 3.573-2.094 6.778ZM53.879 42.841c1.198.318 3.596-1.877 4.02-2.524.738-1.123 1.707-3.15 1.553-5.004-.824 3.679-6.72 5.55-5.573 7.528ZM44.537 32.997c.928-.465 2.553-2.186 3.333-2.949l3.064-3.238c-3.016.297-6.156 2.369-6.397 6.187Z" fill="#fff"/></svg>