<svg width="120" height="120" fill="none" xmlns="http://www.w3.org/2000/svg"><path fill-rule="evenodd" clip-rule="evenodd" d="M0 120h120V0H0v120Z" fill="#3A175B"/><path fill-rule="evenodd" clip-rule="evenodd" d="M45.722 30.462c-.15 8.811.01 16.765-2.054 25.046-1.66 6.662-5.596 14.509-9.844 17.42-4.595-7.533-1.825-22.253 4.87-29.18 3.206-3.317 2.499-2.373 2.497-10.599-8.36 3.689-15.358 16.318-16.138 26.94-.487 6.644 1.06 12.78 3.525 17.937 1.78 3.724 4.028 6.505 6.749 9.337 1.233 1.284 1.438 1.76 3.153 2.493 5.612-5.816 9.311-16.168 11.23-26.28 2.111-11.132 2.38-23.202 2.343-34.993-2.473.177-4.286 1.193-6.331 1.88ZM81.367 89.959c3.48-1.798 7.595-7.009 9.797-11.482 5.66-11.497 5.054-23.503-1.421-34.545-2.042-3.48-7.36-9.24-10.989-10.913.052 2.095.001 4.256.072 6.335.13 3.769 3.485 3.574 7.27 12.04 2.994 6.698 2.681 15.353.145 21.73-4.028-2.982-8.019-10.278-9.813-17.16-2.174-8.34-1.871-16.486-2.142-25.354-1.886-.913-3.847-1.758-6.3-2.12.073 12.486.27 23.237 2.345 35.302 2.026 11.777 5.402 18.267 11.036 26.167ZM55.109 73.08c-.851 7.956-2.873 15.758-3.946 23.449 7.338 1.318 10.2 1.317 17.56.012-.349-4.257-2.925-15.178-3.801-23.461-1.775-16.795-1.594-33.6-1.694-50.367l-6.347-.231c-.285 17.177.063 33.438-1.772 50.598Z" fill="#FDFDFB"/></svg>