<svg width="120" height="122" fill="none" xmlns="http://www.w3.org/2000/svg"><path fill-rule="evenodd" clip-rule="evenodd" d="M120 121.234V.766H0v120.468h120Z" fill="#000"/><path fill-rule="evenodd" clip-rule="evenodd" d="m37.627 59.275 1.29 26.056 16.016-.556c.136-8.28-1.114-26.038-1.114-26.038l-16.192.538ZM56.156 78.957c2.793.827 23.948 6.79 25.371 6.603l4.162-15.756c-2.794-.775-24.43-6.789-25.451-6.698-.724 2.66-4.017 14.016-4.082 15.851ZM25.884 45.151l5.551 15.09 24.381-9.027-5.472-15.24c-5.546 1.904-24.46 9.177-24.46 9.177ZM66.755 58.49l13.401 8.547s12.379-19.36 14.099-22.286l-13.21-8.287S67.832 56.756 66.755 58.49ZM63.75 50.535s10.903-8.574 12.718-10.16C76.478 40.08 60 20.198 60 20.198s-12.566 9.968-12.568 9.986l16.318 20.35Z" fill="#FDFDFD"/><path fill-rule="evenodd" clip-rule="evenodd" d="m25.536 101.979 69.02-.081.009-5.086c-.064-.02-68.944-.094-68.944-.094l-.085 5.261Z" fill="#FDD103"/></svg>