<svg width="120" height="120" fill="none" xmlns="http://www.w3.org/2000/svg"><path fill-rule="evenodd" clip-rule="evenodd" d="m23.221 97.178 11.466.005c.186-1.587.042-38.96.042-42.46 0-4.842.837-7.918 3.028-11.135a21.573 21.573 0 0 1 7.42-6.744c3.883-2.148 6.487-2.575 11.629-2.574h21.25c2.235 0 4.887-.13 7.072.027.116 4.204.166 16.134-.412 19.85-1.362 8.758-6.038 14.517-13.796 16.63-3.303.9-5.685.867-9.253.867-6.758 0-13.544-.063-20.298.005l-.004 11.594c5.434.112 10.976.007 16.413.007 5.592 0 10.27.256 15.495-1.092 13.705-3.536 20.98-13.66 22.957-26.472.768-4.977.459-17.96.459-24.297 0-9.926 1.377-8.707-7.8-8.707H64.167c-5.03 0-11.192-.372-15.847.646-12.458 2.725-22.548 13.036-24.723 24.71-.822 4.416-.42 11.34-.42 16.129 0 2.447-.163 31.415.044 33.01Z" fill="#D71868"/></svg>