<svg width="120" height="120" fill="none" xmlns="http://www.w3.org/2000/svg"><path fill-rule="evenodd" clip-rule="evenodd" d="m59.875 75.956 5.353-4.544c2.67-2.435 3.988-7.57 1.676-10.711-.54-.735-2.92-2.924-3.763-3.629l-6.519-5.875c-.243-.2-.378-.377-.614-.576l-5.185-4.709c-1.127-1.084-6.783-5.982-7.184-6.523-2.277-3.065-.816-5.104-.409-7.899-.571.26-2.458 1.836-3.067 2.343l-5.906 4.817c-.508.422-.979.806-1.515 1.224-.638.496-.778.664-1.201 1.55-1.348 2.825-1.407 5.934.239 8.507 2.2 3.439 27.84 25.924 28.095 26.025ZM71.83 65.934c.737-.358 3.334-2.758 4.288-3.537l11.234-9.386c.232-.195.3-.312.557-.51.413-.32.877-.581 1.072-1.065-.736.295-6.214 4.327-6.93 4.857l-5.065 3.634c-.522.348-1.202.974-1.739 1.19.49-.64 3.58-3.114 4.429-3.864l3.545-3.128c1.236-1.063 5.767-4.721 6.184-5.55-.471.073-2.973 2.066-3.619 2.513-1.21.838-2.45 1.73-3.641 2.675-1.204.957-2.333 1.732-3.568 2.633-1.163.85-2.434 1.857-3.633 2.6 1.775-1.363 8.37-7.49 10.978-9.68.693-.581 3.385-2.852 3.575-3.347-.53.27-3.088 2.327-3.599 2.727-1.249.978-2.457 1.797-3.754 2.802-1.208.937-2.377 1.861-3.64 2.798-1.027.762-2.69 2.224-3.696 2.798 1.068-1.136 2.422-2.22 3.429-3.298l8.92-8.25c.674-.575 1.08-1.132 1.85-1.594-.252-.195-.275-.16-.533.03l-12.678 9.87c-.579.447-1.306 1.098-1.945 1.454l6.062-5.678c1.44-1.217 7.653-6.745 7.965-7.41-.65.276-13.823 10.54-15.414 11.732.599-.369 5.637-5.457 6.852-6.47.47-.391 6.8-6.098 6.997-6.518-.832.31-2.047 1.442-2.837 2.095-1.576 1.302-3.314 2.435-4.88 3.701-1.401 1.135-6.378 5.114-7.702 5.773.83-.479 2.542-2.3 3.398-3.164l10.562-9.747c-1.55.943-10.59 8.117-12.824 9.87-.64.504-1.214 1.045-1.906 1.432.32-.493 2.695-2.574 3.337-3.22.277-.28.51-.5.81-.74.92-.738 1.695-1.648 2.61-2.392.55-.45 1.16-1.083 1.695-1.525l1.74-1.6c.648-.64 1.058-.97 1.677-1.54l1.665-1.577c-.734.198-10.02 7.69-11.496 8.791-1.168.871-2.68 2.335-3.911 2.96l6.966-6.578c.648-.55 6.928-6.398 7.011-6.587-.573.194-10.679 8.139-11.627 8.885-.649.51-1.27 1.006-1.955 1.5-.52.374-1.493 1.254-1.975 1.445.326-.431 1.263-1.22 1.698-1.603l3.511-3.283c.326-.335.47-.543.817-.85 1.592-1.405 2.946-2.583 4.463-4.118.584-.59 1.197-.99 1.74-1.598.45-.506 1.409-1.21 1.68-1.696-1 .6-10.57 8.109-11.675 8.982-.93.734-3.049 2.508-3.967 2.972.45-.351 1.325-1.178 1.754-1.605 1.128-1.126 2.503-2.217 3.556-3.361.903-.98 4.915-4.502 6.262-5.776l2.752-2.525c-.51.075-6.77 5.226-7.678 5.94-1.306 1.028-2.517 2-3.768 3.027-1.377 1.13-2.669 1.978-3.867 2.983l11.916-11.38c.51-.473 1.197-1.17 1.73-1.667-.905.423-2.849 2.202-3.794 2.936l-8.66 6.836c-.4.322-.617.453-1.016.773-.58.465-1.38 1.137-1.993 1.453l4.238-4.455c.956-.869 4.032-3.9 4.237-4.447-1.292.57-7.902 6.19-10.009 7.459.483-.684 4.916-4.628 5.591-5.218 1.366-1.193 2.742-2.684 4.206-3.899.257-.213 1.266-1.133 1.4-1.33-.464.084-1.261.79-1.642 1.088l-7.786 5.923c-1.032.77-2.127 1.736-3.2 2.367.291-.44 1.109-1.081 1.56-1.501l3.308-3.014c.338-.277.462-.433.8-.745 1.263-1.17 6.818-6.008 7.398-6.835-.35.188-1.439.974-1.78 1.244-1.966 1.556-12.33 9.402-12.758 9.503l13.709-12.782c-.41.122-3.077 2.27-3.666 2.71-1.251.933-2.45 1.848-3.659 2.78-1.158.893-6.503 5.22-7.383 5.545.465-.498 1.122-.99 1.65-1.503l6.722-6.15c1.007-.872 4.749-4.016 5.03-4.68-.816.366-11.664 8.818-13.268 10.027-.598.45-1.314 1.073-1.917 1.438.339-.46 1.269-1.214 1.653-1.58 2.237-2.137 4.533-4.414 6.93-6.424l5.15-4.882c-.273.159-.554.426-.886.685-.312.244-.618.452-.951.717l-13.306 10.27c.275-.412 1.216-1.204 1.612-1.583l8.623-8.061c.52-.459 1.158-1.168 1.705-1.632.233-.198 1.556-1.372 1.7-1.661-.557.16-9.799 7.557-11.317 8.73-.627.485-1.245.945-1.883 1.456-.341.273-1.525 1.224-1.87 1.367.827-.614 2.622-2.406 3.34-3.118 1.968-1.953 9.871-8.896 10.162-9.675-.641.367-1.206.896-1.796 1.354-.655.508-1.23.908-1.915 1.42a387.77 387.77 0 0 0-3.798 2.877c-1.972 1.51-5.7 4.375-7.524 5.546L63.567 22.91c.34-.338.624-.511.777-.774-.402.09-14.479 10.693-14.916 10.988.294-.195.428-.412.754-.711.322-.297.57-.473.893-.78l8.522-7.686c.514-.41 3.202-2.716 3.365-3.142-1.073.577-9.12 6.678-10.822 7.84-1.217.831-2.354 1.91-3.642 2.543.254-.131 2.726-2.497 3.159-2.907a149.04 149.04 0 0 1 3.233-2.962l4.847-4.452 1.481-1.45-11.347 8.51c-.513.38-1.04.85-1.602 1.12.496-.157 7.336-6.906 8.819-8.209l2.9-2.839c-.455.164-10.99 8.812-12.23 9.955-2.693 2.485-.62 6.408 1.62 8.319l1.428 1.312c1.38 1.354 4.638 3.947 5.9 5.188l7.319 6.503c.288.24.447.457.74.688 1.513 1.192 2.97 2.668 4.447 3.901 1.185.99 1.853 1.609 2.601 2.994 2.125 3.932.576 5.13.018 9.075ZM52.682 80.657l-.031 13.187c2.777-.002 8.519.383 10.422-.867 2.292-1.506 2.562-5.478-.895-6.7-1.602-.567-4.563-.443-6.53-.435l-.01-2.787 7.532.005c.12-.601.19-1.858-.011-2.395l-10.477-.008Zm2.93 10.806c.67.122 2.97.028 3.788 0 1.268-.041 2.296-.279 2.313-1.566.017-1.33-.98-1.533-2.234-1.603-1.06-.06-2.846-.17-3.853-.033l-.015 3.202Z" fill="#008943"/><path fill-rule="evenodd" clip-rule="evenodd" d="m65.632 87.467 2.583.225c.447-.744.24-1.532 2.16-1.687 1.192-.097 2.474.178 2.47 1.36-2.255.524-7.85.194-7.508 3.96.222 2.434 3.388 3.13 5.676 2.564.89-.22 1.548-.682 2.228-.787l.202.723 3.092.022c-.34-.854-.756-.785-.88-2.082-.365-3.843.863-6.184-1.85-7.46-3.262-1.533-8.512.124-8.173 3.162Zm7.151 2.079c-.92.135-2.005.352-2.985.519-.31.052-1.072.194-1.292.365-.893.695.514 2.105 2.906 1.223.872-.321 1.373-1 1.371-2.107ZM77.413 93.824l2.819.012-.006-3.912 3.998.008.034 3.94 2.756-.052.034-9.81-2.8-.015-.085 3.634-3.945.077c-.068-.972.176-2.977-.132-3.711l-2.604.013c-.16.444-.124 8.757-.069 9.816ZM22.045 82.997c0-.046 4.832 0 4.832 0l-.014 10.732 2.974.048v-10.78h4.882l-.06-2.443c-1.762-.09-11.451-.26-12.592.02l-.023 2.423Z" fill="#008943"/><path fill-rule="evenodd" clip-rule="evenodd" d="m30.928 93.82 2.697.014.038-7.618 3.794.001.05 7.623c.583.049 2.224.09 2.761-.074l.002-9.738-9.323-.07c-.248 1.097-.12 8.41-.02 9.862ZM88.787 93.87l2.815-.044-.01-4.004c.832.156 2.522 3.163 3.324 3.99l3.075.025-1.834-2.678c-.664-.93-1.312-1.708-2.161-2.34l1.144-1.682c.7-1.215.473-.835 2.041-.94l.002-2.22c-2.94-.255-3.33.63-4.499 2.618-.283.483-.562 1.262-1.035 1.196l-.083-3.793-2.697-.023-.082 9.894Z" fill="#008943"/><path fill-rule="evenodd" clip-rule="evenodd" d="m51.794 89.896-2.643-.293c-.163.37-.072.558-.252.999-.777 1.898-4.466 2.018-4.627-1.421-.073-1.559.537-2.681 1.806-3.066 2.309-.701 2.692 1.22 2.951 1.723l2.608-.31c.339-1.905-2.428-4.215-5.803-3.674-6.022.967-5.86 9.753.46 10.203 3.257.231 5.758-2.15 5.5-4.161ZM74.749 96.278c-1.8.788-1.892 4.387-.577 5.422.517.407 1.238.716 2.026.349 2.605-1.213 1.51-7.068-1.45-5.77v-.001Zm.337.91c-.487.203-.62.274-.8.903-.15.527-.152 1.143-.088 1.689.09.778.831 1.928 1.747 1.418 1.487-.828.949-4.76-.86-4.01ZM27.65 96.21c-.886.297-1.038.382-1.387 1.202-1.057 2.485.162 5.355 2.334 4.709.5-.148 1.089-.769 1.306-1.205.98-1.97-.162-5.407-2.253-4.706Zm-.037.972c-1.835 1.123-.683 4.849.897 4.021 1.543-.808.838-5.084-.897-4.022ZM53.4 96.209c-2.413.708-1.873 4.591-1.037 5.371.422.394 1.145.802 1.992.556 2.63-.76 1.98-6.79-.955-5.927Zm.043.931c-1.614.795-1.058 4.752.725 4.093 1.725-.638 1.017-4.95-.725-4.093ZM30.687 102.117l.759.004c.254-.775-.085-2.356.104-3.363l1.014 3.401c.794-.005.627.086 1.054-1.58.174-.68.367-1.394.557-1.93l.106 3.48c1.093.026.779-.043.761-2.46-.008-1.075.096-2.376 0-3.417l-.923-.054c-.211.69-.425 1.395-.621 2.122l-.536 1.866c-.08.153-.088.148-.153.226-.197-1.205-.626-3.117-1.1-4.15l-1.068-.07.046 5.925Z" fill="#008943"/><path fill-rule="evenodd" clip-rule="evenodd" d="m56.453 102.104.741.02c.262-.777.02-2.487.081-3.41l1.05 3.423.56-.006c.546-.706.55-2.436.99-3.367.39.82.041 2.345.178 3.353l.768-.039.02-5.842-.966-.017c-.13.198-1.2 4.091-1.233 4.349l-1.095-4.338-1.135-.046.041 5.919v.001ZM82.524 102.053c.483.21 1.62.169 2.197.041.747-.168 1.052-.51 1.203-1.305.359-1.898-.931-2.216-2.601-2.174l.006-1.434 2.136-.03.025-.914-3.052-.044c0 1.124-.12 5.171.085 5.86Zm.82-.854c.513.027 1.161.099 1.56-.113.103-.103.362-1.178-.2-1.439-.188-.087-.162-.074-.388-.1-.287-.032-.69-.007-.986-.001l.013 1.653ZM47.82 102.13l.734-.019c.3-.613.016-1.568.167-2.273 1.689.047 2.9-.235 2.62-2.198-.231-1.63-1.803-1.594-3.494-1.42l-.027 5.91Zm.82-3.267c.529.038 1.317.152 1.666-.173.327-.403.191-1.06-.085-1.421-.43-.184-1.02-.13-1.544-.09l-.038 1.684ZM69.502 102.136l.82-.087-.013-2.218c1.106.023 2.955.273 2.695-2.183-.178-1.675-1.874-1.442-3.495-1.456l-.007 5.944Zm.825-3.319c1.014.218 2.216.098 1.747-1.223-.216-.607-1.014-.448-1.782-.417l.035 1.64ZM78.124 102.098c1.011.069.797.038 1.653-1.602.342-.654.685-1.687 1.181-2.144l.047 3.756c1.03.127.779-.333.781-2.439.001-1.136.014-2.295-.023-3.428-.666-.16-.827.027-1.072.53-.22.451-.383.769-.597 1.188-.175.344-1.01 2.109-1.201 2.251-.055-.73.037-1.573.045-2.328.004-.32.042-.921.014-1.207-.06-.633-.156-.51-.826-.441l-.001 5.864ZM85.963 102.144c1.365.037.765-.747 1.258-1.691l1.558-.006.492 1.639.905.05c-.175-1.024-.623-2.344-.947-3.332-.72-2.197-.652-2.725-1.631-2.602-.257.683-1.657 5.363-1.635 5.942Zm1.876-4.53-.464 1.922h1.185l-.72-1.923ZM43.666 102.142l.597-.023c.206-.509.094-4.156.084-4.957h1.96l.02 4.951.819-.008.013-5.91-3.6-.009-.027 5.513c.089.632-.133-.476.05.227l.084.216ZM90.324 102.115l.839-.197c.141-.821-.091-1.776.118-2.415l1.872.011.04 2.596.771-.022c.175-.644.076-4.885.03-5.79l-.84-.092c-.01.756.158 1.65-.078 2.329l-1.817.015-.077-2.297-.796-.041c-.024 1.542.183 4.601-.062 5.903ZM94.678 100.384c0 .529-.072 1.279.118 1.693l.735.008-.016-2.516c.61.175 1.093 1.819 1.452 2.467l1.052.11c-.12-.519-.503-1.166-.728-1.624-.12-.245-.21-.502-.342-.735-.82-1.45-.53-.062.071-1.833.26-.764.041-.688.89-.87l-.002-.847c-2.155-.19-1.278 2.132-2.278 2.402l-.144-2.41-.734-.06-.074 4.215ZM40.019 102.096l.833.006c.057-.69-.16-2.029.073-2.537.407.154.72 1.05.903 1.462.45 1.024.197 1.12 1.443 1.084-.236-1.177-.878-2.123-1.444-2.919.098-.394.364-.874.534-1.314.28-.728.19-.553.714-.843l.16-.835c-2.048-.052-1.217 1.773-2.19 2.437-.218-.32-.182-.816-.179-1.234.002-.374.064-.834-.06-1.16l-.771-.045-.016 5.898ZM39.56 100.082l-.66-.194c-.192.286-.341 1.58-1.39 1.4-1.429-.245-1.353-3.527-.389-4.116.929-.568 1.374.583 1.662 1.046l.72-.205c-.345-2.817-3.983-2.651-3.958 1.3.026 4.008 4.046 3.458 4.015.769ZM65.366 100.146l-.722-.292c-.26.458-.335 1.698-1.471 1.397-1.361-.361-1.272-3.6-.206-4.09 1.123-.517 1.196.658 1.675 1.065l.603-.195c-.044-2.505-3.871-2.99-3.916 1.16-.044 4.076 3.84 3.685 4.036.955ZM22.063 97.165l1.424.013-.014 3.683c-.006.45-.072.916.17 1.275l.477-.012c.261-.544.148-1.659.148-2.455.001-.822 0-1.65.006-2.472l1.377-.072.05-.908-3.62-.02-.018.968ZM65.487 97.142l1.42.022-.022 4.977c1-.011.855.137.825-1.995-.014-.974-.037-2.017.003-2.986l1.387-.03-.026-.871-3.578-.06-.01.943Z" fill="#008943"/></svg>