<svg width="120" height="120" fill="none" xmlns="http://www.w3.org/2000/svg"><path fill-rule="evenodd" clip-rule="evenodd" d="M39.107 82.676c-4.181-8.087-8.035-15.235-4.85-26.813 5.883-21.377 33.218-30.35 54.723-23.027 4.809 1.637 7.79 4.185 11.22 5.516l4.587-4.27c-3.496-3.335-11.798-12.555-15.387-14.43L84.6 23.6c-10.98-5.473-17.958-9.989-34.033-7.773-23.951 3.303-41.76 23.689-33.392 46.184 3.108 8.356 13.19 18.385 21.932 20.664Z" fill="#8C2131"/><path fill-rule="evenodd" clip-rule="evenodd" d="M87.05 84.013c-14.685 7.07-25.449 12.081-44.709 6.815-5.08-1.389-9.654-4.372-13.19-5.334 4.273 4.376 3.837 6.302 12.912 11.65 23.564 13.884 60.237-.969 60.237-.969l.017-27.56L87.076 55.14l-.025 28.873Z" fill="#8C2131"/><path fill-rule="evenodd" clip-rule="evenodd" d="m80.44 80.09-.03-18.66-23.12.015L80.44 80.09Z" fill="#8C2131"/></svg>