<svg width="120" height="120" fill="none" xmlns="http://www.w3.org/2000/svg"><path fill-rule="evenodd" clip-rule="evenodd" d="M4.35 115.65h111.3V4.35H4.35v111.3Z" fill="#261E59"/><path fill-rule="evenodd" clip-rule="evenodd" d="m60.002 71.38 4.105-.028 1.08-3.722.572-2.203 2.055-7.245.581-2.169 1.972-7.128c.203-.956.61-2.388.885-3.376l-7.097-.064-3.834 12.92c-.364 1.255-3.717 12.013-3.76 12.963l3.441.052ZM53.464 52.37c-.085.668-.249 1.545-.61 1.98-.017.767-.76 2.907-1.005 3.735-.295.994-.643 2.836-1.15 3.456.156.31.112-.076.01.42-.028.133-.155.468-.203.616-.166.504-.155.847-.478 1.248.01.567-1.847 6.883-2.13 7.16-.12 1.353-.851 2.582-.961 3.711l7.498.05c.774-2.658 7.198-25.199 7.125-25.913l-3.015-.05-3.9.028c-.347.815-.757 2.97-1.182 3.56Z" fill="#048948"/><path fill-rule="evenodd" clip-rule="evenodd" d="m65.187 67.63-1.08 3.722-4.104.028-1.088 3.328c4.844-.014 9.683-.016 14.507.007 3.753.018 7.43-3.475 7.37-7.274l-15.605.189ZM68.396 56.013c1.128.026 14.32.111 14.99-.054 1.2-.295 2.231-1.33 2.526-2.49.436-1.715-.451-2.937-1.268-3.673-1.39-1.254-1.956-.923-4.127-.923-3.357 0-6.804-.077-10.15.012l-1.972 7.128ZM53.463 52.371c.424-.59.835-2.745 1.182-3.56l3.9-.028.967-3.444c-4.237-.183-10.315-.014-14.89-.021-2.052-.003-2.597.172-3.577 1.413-.746.945-1.225 2.318-.58 3.703.45.97 1.639 1.995 3.038 2.017 1.733.028 8.77.205 9.96-.08ZM47.898 70.984c.283-.275 2.14-6.591 2.13-7.158-2.635.224-12.763-.26-13.654.214-2.472 1.314-3.162 4.096-1.472 5.867.986 1.033 1.811 1.089 3.599 1.087 3.114-.002 6.292.064 9.397-.01ZM50.699 61.541c.507-.62.855-2.462 1.15-3.456.245-.828.988-2.968 1.004-3.734-2.545.218-12.707-.222-13.589.2-.88.42-1.88 1.422-2.24 2.49-.632 1.878.42 3.68 2.222 4.347.862.32 9.033-.027 11.453.153ZM65.76 65.427c.731.261 13.361.08 15.39.089-.079-3.654-1.205-5.547-3.614-6.802-1.65-.554-7.525-.532-9.721-.532l-2.055 7.245Z" fill="#FDFDFD"/></svg>