<svg width="120" height="120" fill="none" xmlns="http://www.w3.org/2000/svg"><path fill-rule="evenodd" clip-rule="evenodd" d="M60.18 57.394 47.838 88.642h-6.246c-10.666-5.198-14.3-43.93-22.55-55.842-.605-.873-.997-1.341-.997-1.341 5.756.004 11.432.004 17.11.004 9.713 0 15.104-.105 18.484 6.915 1 3.142 5.354 18.07 6.54 19.016Z" fill="#C82425"/><path fill-rule="evenodd" clip-rule="evenodd" d="M60.607 56.31c-.117.417-.223.796-.32 1.131-.032 0-.068-.015-.108-.047L47.84 88.642h27.728C88.728 85.88 96.487 33 101.954 31.462h-17.03c-4.845 0-11.675-.752-15.015 1.783-3.76 2.853-7.594 16.973-9.302 23.065Zm0 0Z" fill="#E22C28"/></svg>