<svg width="96" height="22" fill="none" xmlns="http://www.w3.org/2000/svg"><path fill-rule="evenodd" clip-rule="evenodd" d="M32.689.663c0 .886.397.271.83.628.374.343.185 1.55.187 2.137-.89-.277-1.245-.634-2.721.587-2.103 1.74-1.648 4.557-.132 5.181 1.717.707 2.429-.579 2.836-.753.08 1.009.071 2.364-.12 3.26-.051.009-.516.063-.527.066-.477.149-.23-.21-.301.325.136.306-.01.165.332.243.013.003.438-.004.48-.006l1.903.004c.87.033.877.07.921-.241-.087-.544.2-.207-.416-.327-.313-.061-.192.078-.523-.148-.264-.483-.172-1.871-.149-2.53 1.358.506 1.911.272 2.799-.534 1.659-1.505 1.897-4.424.041-5.214-1.678-.714-2.363.502-2.84.744L35.397.12c-.227-.011-2.26.46-2.708.542Zm3.334 3.716c-.984.424-.745.672-.745 2.685 0 1.611 1.14 1.67 1.69 1.322 1.535-.968.967-4.83-.945-4.007Zm-3.776-.185c-1.639.58-1.451 4.34.545 4.04 1.248-.188.911-1.42.913-2.407.001-.535.1-1.097-.194-1.375-.282-.267-.82-.415-1.264-.258ZM18.971 10.528c1.428.326 1.078-.414 1.078 5.174 0 3.267-.206 2.136-1.117 2.563l.006.48h3.019l-.017-.53c-.997-.12-1.076.073-1.076-1.849l.01-4.337c.5.677 1.29 2.535 1.716 3.428l1.44 3.116c.248.447-.071.226.412.313.339-.022.221-.081.524-.758.137-.308.282-.606.42-.905.444-.957 2.18-4.764 2.577-5.137.042.912.161 5.51-.198 5.998-.445.356-.861-.336-.861.646l4.015.004c0-.717-.08-.498-.483-.58-.786-.162-.626-.565-.626-2.357 0-.556-.097-4.734.145-5.032.374-.464.963.323.964-.75h-2.964c-.569.946-2.113 4.866-2.944 6.07-.016-.017-.038-.069-.044-.054l-1.462-2.908c-.483-.982-1.02-2.11-1.42-3.11l-3.122-.005.008.52ZM73.15 15.797c0-1.612-.359-2.75-2.067-3.059-1.561-.283-2.788.336-3.387 1.213.004-1.194.469-2.313 1.604-2.47 1.404-.192 2.476.556 3.258-.747.436-.726.228-1.255-.531-.718-.558.395-1.17.155-1.838.103-3.232-.246-3.25 2.45-3.165 5.298.043 1.44.354 2.478 1.26 3.06 1.32.848 4.866.697 4.866-2.68Zm-3.425-2.41c-1.468.435-1.254 5.277.701 4.824 1.053-.243 1.012-1.708.94-2.797-.07-1.045-.381-2.399-1.641-2.026ZM58.942 13.668c.154.023.414.028.53.053.398.085.4.01.396 1.411-.003.795.02 1.582.02 2.374 0 .793-.017 1.58-.019 2.374 0 .22-.017 1.027-.076 1.199-.15.434-.46.177-.855.32l-.022.47 3.405.01c.229-.055.112-.01.25-.1l-.028-.381c-.82-.244-1.212.527-1.04-2.707 1.631.431 1.718.18 2.783-.648.827-.644 1.396-1.05 1.555-2.53.145-1.34-.401-2.334-1.398-2.692-1.766-.635-2.386.59-2.962.797l.028-.947-2.23.463c-.446.08-.388.043-.337.534Zm2.542.71c0 .863-.298 2.796.22 3.273.745.688 1.833.553 2.263-.405.367-.817.365-2.234-.118-2.874-.817-1.082-1.592-.46-2.364.006Z" fill="#3F5699"/><path fill-rule="evenodd" clip-rule="evenodd" d="M14.669 3.834c.047.487-.135.24.307.35.038.01.39.023.517.169.268.34.26 6.78.01 7.362-.745.336-.834-.28-.834.65l3.662.006-.012-.507-.924-.096c-.167-.683-.144-1.783-.133-2.574 1.95.23 1.556.291 2.875-.738.765-.597 1.37-1.162 1.48-2.529.215-2.644-2.063-3.079-3.148-2.653-.569.223-.787.7-1.208.812l.029-.934c-.713.13-1.069.32-2.003.437-.413.052-.477-.04-.618.245Zm3.39.53c-1.103.367-.783.948-.801 2.7-.008.705-.037.878.447 1.226.344.249.901.374 1.368.146 1.48-.723 1.269-4.833-1.014-4.072ZM24.978 3.209c-1.81.308-2.614 1.634-2.327 3.735.253 1.851 1.697 2.756 3.747 2.355 1.695-.333 2.476-1.734 2.293-3.74-.177-1.937-1.655-2.7-3.713-2.35Zm.234.702c-.924.383-.889 1.656-.792 2.791.086 1.005.476 2.341 1.705 1.956.928-.291.859-1.964.785-2.928-.08-1.045-.493-2.319-1.698-1.819ZM34.291 12.705c-1.884.227-2.718 1.489-2.532 3.567.17 1.902 1.504 2.896 3.602 2.578 1.802-.274 2.607-1.664 2.466-3.624-.143-1.99-1.405-2.778-3.536-2.521Zm.138.7c-1.013.313-.992 1.72-.881 2.86.095.973.436 2.282 1.643 1.93.975-.282.938-1.809.853-2.876-.083-1.05-.404-2.289-1.615-1.915ZM7.67 3.792l.795.157c.08.488.178 3.818.03 4.376-.158.603-.622.299-.513.814.102.056.039.044.234.074.1.015.26.017.364.015.24-.003.424-.015.67-.012 1.235.019 2.76.132 3.725-.421.518-.297 1.108-.831.855-1.759-.214-.781-.85-.91-1.748-1.03.518-.31 1.295-.353 1.51-1.063.255-.845-.322-1.349-.98-1.532-.55-.154-4.22-.159-4.91-.08l-.032.462Zm2.526 4.768.478.05.095-.008c.808 0 1.53-.435 1.383-1.319-.144-.862-1.053-.938-1.958-.908l.002 2.185Zm.098-4.569c-.21.408-.127 1.263-.1 1.79.87-.008 1.667.002 1.715-.909.047-.887-.816-1.088-1.615-.88ZM-.01.605c.021.688.24.39.93.57.327.814.175 5.322.125 6.45C.966 9.377.449 8.29.37 9.15c.3.183 1.87.015 2.614.026.725.01 3.152.192 3.749-.061l.169-2.076c-.579-.005-.573-.066-.7.587-.05.246-.076.428-.18.656-1.835.18-1.419.181-3.061.123l-.06-3.314c2.837-.194 2.136-.11 2.455 1.021l.512.047.037-2.79-.547-.027c-.351 1.053.537 1.096-2.492.959l.09-3.008c.93-.037 2.177-.136 3.034.175.104.846-.13 1.087.412.99.286-.05.184.068.267-.905.031-.367.092-.651.087-1.018C5.256.42 2.861.52 1.085.508.746.506.28.43-.01.605ZM81.25 15.702c0 3.184-.066 2.198-.9 2.563l.004.47 3.443.008c0-.703-.035-.493-.387-.576-.291-.068-.186.01-.483-.12l-.063-2.123 2.546-.002c.09.709.012 1.431-.014 2.143-.856.21-.895-.046-.895.58.024.013.056.01.07.04.014.03.055.027.075.03l3.3.012v-.483c-.507-.16-.774.101-.86-.537l.004-3.913c.1-.545.34-.354.856-.466v-.495c-.303-.019-3.144-.095-3.445.115.034.908.745.085.816.642.01.075.109.035.128.683.01.329.002.67.002 1l-2.599-.017c0-.414-.035-1.074.02-1.452.084-.58.435-.321.896-.476l.04-.506-3.45.003c-.03.628-.167.45.31.564.409.098.476-.087.548.413.058.409.037 1.437.037 1.9ZM44.327 12.948c.035.787.208.19.812.601.081.123.124 3.966.018 4.294-.267.828-.804-.219-.83.802.222.114.195.107.811.1l2.635-.037-.012-.489-.853-.116c-.134-.604-.086-1.506-.046-2.177l2.522-.02.001 2.061c-.135.087-.072.064-.227.128-.213.09-.041.019-.235.066-.373.091-.464-.168-.464.561l3.447.022c.04-.684.004-.5-.814-.641-.038-.798-.22-4.047.055-4.542.3-.28.197-.061.496-.174.395-.15.267.237.29-.439-.368-.252-3.057-.129-3.474-.115 0 .925.169.331.858.693.136.417.145 1.312.044 1.735l-2.462.02c-.098-.337-.158-1.313-.019-1.638.26-.606 1.027.212.862-.823l-2.508.006c-.087-.002-.413-.014-.478-.008l-.428.13ZM67.385 3.792l.882.173.05 1.778c-.766.03-1.812.118-2.538-.04-.184-1.932.045-1.75.478-1.821.549-.09.43.113.444-.429-.275-.245-2.979-.158-3.05-.15l-.422.15c.056.69-.015.22.617.488.022.009.048.025.068.035.464.232.158 3.964.147 4.61-.598.076-.797-.068-.832.47.047.2.266.184.705.175l2.766.003c.004-1.046-.52-.268-.865-.768-.21-.517-.088-1.432-.078-2.044l2.553-.046c0 .563.02 1.122.008 1.645-.015.744-.229.572-.93.684l-.006.512 3.018.014c.038-.003.15-.012.18-.017.235-.035.129-.012.243-.064 0-.816-.06-.3-.768-.613-.185-.635-.142-3.86-.03-4.585l.8-.15-.014-.468-3.396-.025-.03.483ZM48.577 3.802l.805.15c.157.98.126 3.61-.001 4.602l-.786.16.004.487 3.43-.05c-.009-.949-.246-.174-.827-.663-.276-.436-.11-1.497-.11-2.082.793-.04 1.783-.113 2.556.033l-.017 2.069c-.709.321-.915-.145-.931.643l.32.074c.113.01.352.005.473.003l2.679.008c.005-1.048-.377-.238-.77-.77-.247-.433-.196-3.835-.027-4.43.081-.123.471-.159.512-.172.373-.121.27.218.286-.41-.194-.165-.503-.154-.776-.15-.517.007-2.355-.122-2.696.15.018.613-.1.29.295.407.311.093.277-.125.564.218.233.4.058 1.127.116 1.626-.835.149-1.736.06-2.584.044 0-.561-.078-1.28.07-1.765l.861-.18-.015-.468-3.395-.026-.036.492ZM40.21 3.315l.113.491.664.188c.18 2.205-.085 4.132-.008 5.31 1.193-.048 1.142.013 2.452-1.861.256-.367 1.59-2.372 1.87-2.545.01.917.238 3.45-.256 3.67-.555.246-.691-.17-.644.643l3.454-.06c-.009-1.009-.321-.095-.784-.72-.195-.288-.131-3.625-.08-4.123.059-.592.297-.344.856-.52 0-.644-.081-.491-.805-.48-.492.007-.986-.013-1.476.013-.267.309-.456.72-.665 1.035-.391.587-1.86 2.807-2.225 3.009.024-3.553-.374-3.295.923-3.552v-.494l-3.39-.004ZM91.217 15.399l.036-1.91c.743-.167.867.1.867-.654l-3.42-.01.02.504c1.1.344.856-.416.856 3.702 0 .395-.005.743-.143 1.092-.724.098-.732-.024-.732.616l3.419-.002-.01-.523-.886-.146-.019-2.19c.39.191 2.218 2.335 2.511 2.878l2.293-.032c0-.579-1.835-2.15-2.36-2.731-.327-.383-.52-.498-.795-.956.21-.267.86-.794 1.17-1.057.57-.485.634-.571 1.557-.614l-.032-.564c-1.907.302-1.037-.647-2.518.947-.274.295-1.488 1.493-1.815 1.65ZM74.638 13.613c0 .398-.139.86.31.828.322-.024.101.056.28-.266.22-.398-.041-.19.29-.393 1.074-.534 1.77.287 1.801 1.343-.744.156-1.53.289-2.185.564-.798.335-1.124.764-1.066 1.82.048.869.486 1.369 1.37 1.39.963.022 1.2-.685 1.88-.933l-.055.773 2.457.007-.002-.48-.733-.213c-.448-1.302.478-3.926-.477-4.862-1.026-1.007-3.326-.373-3.87.422Zm2.681 3.61-.01-1.475c-2.452.402-1.717 1.909-1.023 1.962.499.038.799-.3 1.033-.488ZM57.507 4.032l.019.796.437.132c.166-.27.203-.568.414-.704.2-.128.703-.143.954-.085.653.152.862.692.87 1.421-1.582.427-3.257.379-3.256 2.23 0 .851.339 1.463 1.202 1.539 1.016.09 1.33-.54 2.043-.906l-.02.755 2.427.014-.001-.453c-.702-.508-.837.634-.798-1.994.012-.793.152-2.165-.189-2.8-.676-1.261-2.641-.987-4.102.055Zm2.71 2.209c-.795.042-2.403.812-1.488 1.757.356.367 1.03.142 1.285-.116.362-.366.212-1.136.203-1.641ZM53.27 13.474c0 .294-.103 1.245.443.924.395-.234-.059-.618.778-.73 1.093-.145 1.399.517 1.489 1.46-1.888.349-3.413.564-3.283 2.38.065.904.525 1.414 1.457 1.392.727-.016 1.321-.65 1.775-.96l-.03.806 2.483-.101c-.018-.718-.117-.329-.76-.617-.524-1.927 1.267-5.71-2.492-5.337-.873.087-1.23.561-1.86.783Zm2.71 3.771-.005-1.476c-2.242.194-1.903 1.862-1.05 1.937.475.042.81-.291 1.055-.46ZM43.587 17.723c-.928.184-1.673.38-2.346-.213-1.04-.917-1.296-3.572.153-3.839 1.482-.272 1.402 1.106 1.467 1.272l.38.028c.193-.25.35-1.807.359-1.999-1.394-.72-3.666-.36-4.468 1.378-.664 1.186-.619 3.779 1.368 4.382.63.191 1.211.21 1.874.089.799-.147 1.113-.25 1.213-1.098ZM76.466 8.23c-.42.002-2.986.927-3.184-2.12-.16-2.47 1.588-2.082 2.034-1.785.371.246.29.51.358 1.066l.552.038.252-2.009c-1.676-.472-2.03-.386-3.323.421-1.045.653-1.596 1.116-1.524 2.844.094 2.273 1.97 2.997 3.73 2.588.714-.165 1.034-.28 1.105-1.044Z" fill="#3F5699"/><path d="M14.503 10.228H.475v.211h14.028v-.211ZM66.26 10.228H37.6v.211h28.66v-.211ZM96.01 10.228H73.998v.211H96.01v-.211Z" fill="#2B2A29"/></svg>