<svg width="120" height="120" fill="none" xmlns="http://www.w3.org/2000/svg"><path fill-rule="evenodd" clip-rule="evenodd" d="M6.045 113.954h107.909V6.045H6.045v107.909Z" fill="#1F3063"/><path fill-rule="evenodd" clip-rule="evenodd" d="M15.08 62.474c3.954 1.776 36.832 23.428 37.839 23.539.672.074 17.141-10.409 19.354-11.715 3.31-1.955 6.306-3.934 9.598-5.921 3.03-1.83 7.037-4.1 9.7-6.08l-38.194-23.59c-.164-.038-35.408 21.731-38.297 23.767Z" fill="#F2CEA6"/><path fill-rule="evenodd" clip-rule="evenodd" d="M21.877 62.423c3.791 1.889 30.155 19.384 31.3 19.277 1.297-.121 27.317-17.191 31.53-19.202-.473-.713.01-.205-.737-.83L53.194 42.924c-.002 0-28.447 17.447-31.318 19.498Zm13.105-.063 18.086 11.398V69.55c-3.508-2.133-8.12-4.768-11.287-7.19.946-.724 7.15-4.814 8.29-4.968l.02 4.502c1.238-.786 1.785-1.047 2.976-1.736l.042-8.779c-.329.067-15.426 8.703-17.59 10.458-.407.33-.315.263-.537.523Zm21.391-5.483c1.449.823 3.197 1.83 4.39 2.785-1.377 1.141-2.816 2.152-4.39 3.016 0 0-.023 1.67.005 4.001 1.42-.337 9.16-5.734 11.164-6.83-1.37-.837-9.876-6.288-11.17-6.905l.001 3.933Z" fill="#1F3063"/><path fill-rule="evenodd" clip-rule="evenodd" d="M58.343 37.033c1.583 1.904 37.392 22.852 39.798 24.98.047.041.139.137.177.172.038.035.12.114.175.176L58.29 87.216a43.168 43.168 0 0 0 2.111 2.352s4.946-2.52 9.654-5.358l23.367-14.39c3.63-2.223 8.647-4.911 11.847-7.46-14.13-8.803-29.876-19.011-44.013-27.295 0 0-1.015.638-2.913 1.968Z" fill="#F2CEA6"/></svg>