<svg width="120" height="120" fill="none" xmlns="http://www.w3.org/2000/svg"><path fill-rule="evenodd" clip-rule="evenodd" d="M29.173 74.484c1.153-3.036 7.297-9.377 7.297-9.377l-2.832 1.1c3.672-4.59 6.493-5.3 8.128-7.097-4.382.66-7.752 3.222-11.107 4.593 2.298-3.807 6.552-7.917 10.299-10.27 3.69-2.318 7.712-4.094 12.01-5.076 2.189-.5 8.948-.769 10.082-1.345-15.61-7.546-22.384-6.192-37.696-1.373 1.233-3.548 3.132-6.296 5.091-8.758 17.046-24.835 76.004-16.295 63.766 36.387-3.492 8.924-10.172 16.814-19.469 19.755-8.106.648-13.662-1.758-16.892-6.69-4.408-6.73-3.69-10.995-.74-18.355 8.891-11.776 18.425-7.893 28.821-5.565 0 0-10.342-8.853-20.77-10.438-6.84-1.019-13.99-.056-20.302 2.541-1.549.637-3.965 1.598-5.072 2.83 4.065-1.157 12.66-1.65 12.66-1.65l-12.237 9.31c-.286.518.381 1.158.613 1.682-4.654 2.78-7.38 4.426-11.65 7.796ZM17.963 53.93c-3.492 24.036 14.862 47.61 40.7 48.064 38.048-.691 53.656-34.023 37.436-62.784C76.496 4.45 23.677 14.59 17.963 53.93Z" fill="#285E60"/></svg>