<svg width="120" height="120" fill="none" xmlns="http://www.w3.org/2000/svg"><path fill-rule="evenodd" clip-rule="evenodd" d="M25.192 118.013h69.616c12.781 0 23.205-10.424 23.205-23.205V25.192c0-12.78-10.424-23.205-23.205-23.205H25.192c-12.78 0-23.205 10.424-23.205 23.205v69.616c0 12.781 10.424 23.205 23.205 23.205Z" fill="#42B029"/><path fill-rule="evenodd" clip-rule="evenodd" d="M103.644 109.66c-9.626-9.697-50.147-51.331-50.147-51.331l42.376-47.916-66.402-.08c-4.417.149-8.233 2.275-10.633 5.737-3.013 4.344-2.344 8.595-2.344 14.063V63.63c0 10.883-.312 22.223.002 33.048.149 5.1 3.142 8.781 5.84 10.559 4.281 2.819 8.554 2.407 14.365 2.407 22.27 0 44.69-.254 66.943.015ZM23.574 81.8S45.966 58 52.08 49.737l28.617-32.812s-37.323.326-45.692.322c-5.268-.003-9.57-.352-11.152 4.303-.767 2.257-.28 60.248-.28 60.248Zm63.282 20.893L49.229 64.258c-7.706 8.383-15.158 16.265-22.604 24.924-.958 1.298-4.171 3.545-2.963 8.623.337 1.418.73 1.886 1.585 2.728 3.105 3.06 8.599 2.06 13.574 2.06 12.7 0 48.035.1 48.035.1Z" fill="#FEFFFE"/></svg>