<svg width="120" height="120" fill="none" xmlns="http://www.w3.org/2000/svg"><path fill-rule="evenodd" clip-rule="evenodd" d="M72.08 51.214c3.62 8.827 3.28 18.625-3.066 25.915-19.517 22.422-48.096-8.78-26.768-17.662 4.797-1.373 10.655-.183 10.636 5.88-.013 4.187-4.036 3.694-5.305 4.398-.447 1.642 2.07 3.019 3.742 3.419 5.056 1.21 11.595-2.873 12.275-9.249 2.03-19.016-26.968-24.157-36.652-4.566-11.33 22.92 11.798 41.339 32.047 40.38 2.77-.329 5.392-.69 7.913-1.5 8.788-2.028 16.164-8.38 20.2-13.244 4.75-5.723 8.849-14.768 8.852-24.874.007-16.296-14.725-34.671-29.202-38.169-25.366-7.575-46.09 13.915-41.88 14.488.806.11 3.868-1.645 6.327-2.21 5.116-1.93 12.886-2.337 18.212-1.298 10.1 1.97 18.755 8.742 22.67 18.292Z" fill="url(#a)"/><defs><linearGradient id="a" x1="24.201" y1="55.297" x2="95.708" y2="64.794" gradientUnits="userSpaceOnUse"><stop stop-color="#00763E"/><stop offset=".302" stop-color="#459E3E"/><stop offset="1" stop-color="#8BC63F"/></linearGradient></defs></svg>