<svg width="120" height="120" fill="none" xmlns="http://www.w3.org/2000/svg"><path d="M60 105.432c25.091 0 45.432-20.34 45.432-45.432 0-25.092-20.34-45.432-45.432-45.432-25.092 0-45.432 20.34-45.432 45.432 0 25.091 20.34 45.432 45.432 45.432Z" stroke="#EBECEC" stroke-width=".64" stroke-miterlimit="22.926"/><path fill-rule="evenodd" clip-rule="evenodd" d="M55.955 7.826c-8.134 1.006-12.962 1.967-20.293 5.818-11.185 5.875-20.088 15.85-24.635 27.81-8.064 21.21-1.42 43.632 14.146 57.647 8.881 7.996 22.525 14.454 38.854 13.159 27.622-2.193 50.431-25.812 48.247-56.455-1.522-21.368-15.956-37.971-33.847-44.84-6.098-2.34-15.033-4.058-22.473-3.139Z" fill="#00833E"/><path fill-rule="evenodd" clip-rule="evenodd" d="M56.121 13.158c-7.288.98-12.368 2.155-18.182 5.312-15.544 8.44-26.935 26.182-24.813 45.686 1.56 14.343 8.075 24.301 15.81 31.183 7.7 6.85 20.707 13.117 35.19 11.574 13.172-1.403 22.871-6.709 31.207-15.8 6.814-7.429 13.153-21.045 11.609-35.215-1.559-14.312-8.062-24.294-15.81-31.184-8.749-7.78-22.917-13.18-35.01-11.556Z" fill="#FDFDFD"/><path fill-rule="evenodd" clip-rule="evenodd" d="M46.92 88.626c-2.601-1.731-2.385-2.98-2.384-6.82l.013-28.444 2.778 7.25.592 1.038c.133.357.266.86.392 1.219l2.548 7.288c3.06 8.59 5.228 17.388 14.626 21.4 1.082.462 1.723.434 2.4 1.094 4.418.679 7.077.946 11.13-.565C87.42 88.953 92.43 81.023 91.621 71.96c-.095-1.068-.227-1.748-.466-2.777-.824-3.537-1.059-2.083-.208-2.604-.555-.595-.782-1.204-1.17-1.95l-2.75-3.722c-1.016-1.043-.414-.69-1.7-1.584l.317-.93c.016-.045.05-.126.07-.19-.57.206-.651.288-1.09.524-.464-.23-3.627-2.17-3.913-2.447.9-.895 1.751-1.036 3.683-3.04 3.819-3.964 5.136-9.794 3.584-15.355l-1.456-2.96c-.486-.981-1.068-1.733-1.692-2.511-4.8-5.988-12.327-5.41-19.685-5.314l.106 3.184c5.35.848 5.5 2.437 5.5 7.494-.005 12.416.327 26.96-.007 38.875-.715-.083-.298.207-.525-.486.003-1.3-5.67-17.421-6.6-20.21-2.22-6.651-4.32-13.367-6.625-19.82l-1.425-2.799c-.574-1.083-1.09-1.713-1.787-2.422-1.265-1.289-2.76-2.318-5.09-3.063-3.345-1.07-11.94-.992-15.729-.742-.085 1.003-.213 2.324.126 3.217 7.238.445 5.693 5.44 5.693 11.9v35.13c0 6.649 1.501 11.515-5.682 11.925-.402.933-.23 2.565-.137 3.66l19.08-.02.03-3.622c-1.876-.197-3.654.391-5.153-.675Z" fill="#FDFDFD"/><path fill-rule="evenodd" clip-rule="evenodd" d="M34.023 28.41c.005-.003.005.9.005.9.263.295 1.1-.314 2.922.66 3.882 2.095 2.925 6.86 2.925 11.087V78.06c0 2.25.3 6.949-.4 8.74-1.575 4.04-5.447 3.751-5.447 3.751v1.326l16.905.019.04-1.523c-3.31-.042-7.51-.447-7.738-5.278-.22-4.679-.071-39.019.171-39.483l4.57 12.892c2.405 6.846 6.345 20.265 10.123 25.464 10.317 14.197 28.426 7.721 31.775-5.59 1.92-7.63-1.105-14.753-6.878-19.066-2.707-2.023-5.155-2.37-5.77-3.032.692-.378 1.653-.667 2.357-1.043a17.25 17.25 0 0 0 2.293-1.463c7.879-5.932 7.266-19.222-2.315-24.048-4.115-2.072-8.05-1.572-13.245-1.552-.019.452.012 1.082-.013 1.025 0 0 .977.034 2.233.587 3.535 1.559 3.364 4.898 3.364 8.226-.001 6.417.198 45.475-.156 46.222-.576-.934-11.13-33.14-11.79-35.12-3.516-10.528-4.326-19.498-14.288-20.85-.544-.073-10.782-.404-11.643.146Z" fill="#00833E"/><path fill-rule="evenodd" clip-rule="evenodd" d="M67.885 92.651c-1.229-.109-1.506-.082-1.506-.082 1.862.628 5.857 4.33 13.332 3.059 12.95-2.203 19.157-17.423 11.9-27.837-.439-.628-1.008-1.083-1.008-1.083s-.014.001.552 2.475c.24 1.029.37 1.71.466 2.778.81 9.062-4.202 16.992-12.606 20.125-4.053 1.511-6.712 1.244-11.13.565ZM46.92 88.626c.912-.433.379-.156.449-.164 0 0 .017-13.088.017-13.915 0-3.172.385-11.669-.059-13.934l-2.778-7.251-.014 28.445c0 3.838-.216 5.088 2.385 6.819Z" fill="#2B2A29"/><path fill-rule="evenodd" clip-rule="evenodd" d="m52.424 93.435.125-4.584-4.835-.194-.037-25.913c2.549 5.444 3.915 12.668 6.628 17.993 2.282 4.477 5.946 9.01 10.536 11.019.447.196.694.294 1.095.53.096.058.435.278.443.283 1.565.091 1.506.082 1.506.082-.677-.66-1.319-.632-2.4-1.093-9.398-4.013-11.566-12.811-14.626-21.4-.968-2.768-2.135-7.095-3.532-9.545.444 2.265.06 10.762.06 13.934 0 .827-.018 13.87-.018 13.87s.464-.224-.449.208c1.498 1.067 3.277.479 5.152.676l-.029 3.622-18.943.02v-3.66c7.183-.41 5.682-5.276 5.682-11.926v-35.13c0-6.458 1.545-11.455-5.693-11.899.011.001.011-3.226.011-3.226 3.79-.25 12.247-.319 15.591.75 2.33.745 3.826 1.775 5.091 3.064.696.709 1.213 1.338 1.787 2.422l1.425 2.8c-.74-4.172-3.904-7.2-8.317-8.82-2.258-.829-13.794-1.132-16.33-.636v3.55c.33 1.343 2.106.235 3.867 1.178 3.054 1.636 2.103 6.176 2.103 11.052 0 4.718.268 41.424-.166 43.237-.86 3.591-4.31 2.755-5.805 3.25-.004.058 0 4.507 0 4.486h20.078Z" fill="#BDBDBD"/><path fill-rule="evenodd" clip-rule="evenodd" d="M70.219 76.167c.31-.417.294-1.125.295-1.606-.2-3.503-.1-2.827-.613-4.463-2.197-5.512-4.052-12.06-5.884-17.55-2.59-7.689-3.316-9.692-7.023-16.41 2.304 6.452 4.406 13.168 6.624 19.819.93 2.789 6.604 18.91 6.6 20.21Z" fill="#2B2A29"/><path fill-rule="evenodd" clip-rule="evenodd" d="M70.277 70.584V76.642l.467.01c.334-11.914.002-26.459.006-38.875.002-5.057-.15-6.646-5.5-7.494l.02-3.184c7.359-.096 14.76-.674 19.56 5.314.624.778 1.206 1.53 1.692 2.51l1.142 2.325c.191-3.985-4.424-7.41-7.566-9-3.886-1.966-11.294-2.029-15.373-1.574v4.059c2.285.55 5.564-.496 5.557 5.398l-.005 33.73v.721Z" fill="#BDBDBD"/><path fill-rule="evenodd" clip-rule="evenodd" d="M39.192 94.232c-.572.068-.875.043-.928.07 0 0-.004 1.346 0 1.534l15.905.019-.007-1.558-2.3-.007c-1.376-.18-1.48-.646-1.95-.855H41.479c-.55.339.076.567-2.287.797ZM87.978 37.886c1.552 5.56.235 11.39-3.584 15.354-1.931 2.004-2.784 2.145-3.683 3.04.287.277 3.45 2.217 3.914 2.447 3.503-1.885 6.18-6.1 6.77-9.966 1.101-7.222-3.73-11.512-3.73-11.512.007.085 0 0 .313.637Z" fill="#2B2A29"/></svg>