<svg width="120" height="120" fill="none" xmlns="http://www.w3.org/2000/svg"><path fill-rule="evenodd" clip-rule="evenodd" d="M47.955 82.802v21.463s-.303 5.448 6.604 1.46c6.907-3.987 39.297-23.392 39.297-23.392l-45.901.469Z" fill="#CA203B"/><path fill-rule="evenodd" clip-rule="evenodd" d="M28.727 12.815h62.545c3.305 0 6 2.695 6 6v58.104c0 3.305-2.695 6-6 6H28.727c-3.304 0-6-2.695-6-6V18.815c0-3.305 2.696-6 6-6Z" fill="#ED1941"/><path fill-rule="evenodd" clip-rule="evenodd" d="M47.754 27.373h24.492c.661 0 1.2.539 1.2 1.2v4.966c0 .66-.539 1.2-1.2 1.2H57.374c-.661 0-1.2.539-1.2 1.2v7.696c0 .661.539 1.2 1.2 1.2h11.76c.661 0 1.2.54 1.2 1.2v4.84c0 .66-.539 1.2-1.2 1.2h-11.57c-.66 0-1.2.538-1.2 1.2v13.887c0 .66-.538 1.2-1.2 1.2h-7.41c-.661 0-1.2-.54-1.2-1.2v-38.59c0-.66.539-1.2 1.2-1.2Z" fill="#FEFEFE"/></svg>