<svg width="120" height="120" fill="none" xmlns="http://www.w3.org/2000/svg"><path fill-rule="evenodd" clip-rule="evenodd" d="M14.301 48.94c-1.395 2.064-2.363 4.089-2.684 6.698-.137 1.114-.276 3.455.217 4.347.014-.01.035-.047.04-.034l.146-.152c.063-.081.094-.137.142-.227.076-.141.154-.328.219-.519.134-.397.192-.74.314-1.16.372-1.27 1.122-3.032 1.766-4.142.246-.422.911-1.547 1.19-1.743l.397-.712.537-1.398c.425-.827.988-1.809 1.598-2.263.165.111.04-.013.178.19.05.076-.016.171.012.24.144.362.097.542.066.917.351-.34 3.531-1.927 3.942-2.066.466-.011.615 0 .865-.09.151-.353 2.842-.558 3.279-.585 2.706-.166 5.24.726 7.64 1.74.422.177.904.433 1.37.563-.065-.74-.995-1.093-1.665-1.45-4.777-2.543-10.066-3.34-15.242-1.363-1.22.466-1.783.684-2.507 1.027-1.621.77-.423.526-1.82 2.182ZM20.593 74.553l.314.2c.812.602 2.224 1.428 3.119 1.779.216-.594 1.894-1.917 2.563-2.386.458-.32.987-.665 1.53-.98.562-.324 1.04-.643 1.788-.668-.08-.078-.015-.031-.134-.103l-1.582-.64c-2.556-1.128-3.6-2.236-4.511-2.705.029.335.028.13-.479.6a8.906 8.906 0 0 0-1.454 1.721 6.976 6.976 0 0 0-.985 2.275c-.09.395-.066.597-.093.699-.018.063 0 0-.076.208ZM14.337 67.458c.347.92 2.76 4.21 3.35 4.52-.23-.932.76-4.104 1.281-5.229l.535-1.09c.198-.368.085-.247.346-.29-.011-.018-.03-.064-.037-.05l-.11-.14c-1.16-1.348-2.365-3.33-3.086-4.965-.218-.494-.151-.49-.348-.647.007.022-.253.418-.82 1.523-.533 1.23-.915 2.727-1.078 4.082-.044.364.008 2.23-.033 2.286Z" fill="#ACB4BD"/><path fill-rule="evenodd" clip-rule="evenodd" d="M7.926 57.843c-.086 2.324-.199 4.717.202 6.944.878 4.875 3.513 9.696 7.533 12.629.163.119.34.247.523.363l.408.26c.086.066.069.053.129.115 3.124 1.826 5.055 2.887 9.065 2.577 1.586-.123 3.471-.59 4.78-1.128 1.172-.482 3.045-1.4 3.772-2.108-.592.073-1.285.341-2.513.472-1.785.19-3.89-.065-5.567-.588-.842-.262-1.52-.617-2.232-.847-.894-.351-2.307-1.177-3.119-1.778l-.387-.31c-.524-.266-1.095-.862-1.532-1.242-.272-.237-.48-.411-.742-.661-1.185-1.13-3.403-3.74-3.908-5.083-.363-.334-1.403-2.637-1.654-3.311-.445-1.2-.882-2.727-.85-4.162-.493-.892-.354-3.233-.217-4.347.321-2.61 1.29-4.634 2.684-6.698.338-.4 2.717-3.011 2.817-3.301-.9.217-2.714 1.53-3.353 2.024-2 1.545-3.51 3.79-4.525 6.108-.389.89-1.252 3.048-1.314 4.072Z" fill="#30445A"/><path fill-rule="evenodd" clip-rule="evenodd" d="M19.562 55.312c.421 1.006 1.41 2.363 2.004 3.13.733.945 1.05 1.26 1.822 2.018.26.255.42.489.72.65.222-.428 2.205-1.22 2.914-1.515.673-.28 2.754-1.126 3.371-1.09-.014-.014-.036-.054-.043-.04l-1.665-1.309c-.938-.732-2.395-2.014-3.147-2.907-.246-.291-.45-.519-.707-.843l-.574-.757c-.076-.081.043.015-.046-.05-.001.006-.038.034-.317.167-.116.056-.195.076-.314.13a7.021 7.021 0 0 0-.584.306c-.824.468-3.172 2.071-3.434 2.11ZM16.72 78.154c-.06-.062-.042-.049-.128-.115l-.408-.26a9.862 9.862 0 0 1-.523-.363c-4.02-2.933-6.655-7.754-7.533-12.63-.4-2.226-.288-4.62-.202-6.943-1.17 1.331-1.277 4.813-1.187 6.938.229 5.418 3.827 11.376 8.659 13.64 1.058.496.594-.123 1.323-.267ZM27.93 51.397c.41.714 4.734 2.563 5.697 2.947.922.369 2.228.782 3.256.94.591.09 1.382.082 1.909-.101.613-.213.95-.15 1.315-.592l.176-.283c-.085-.173-.016-.043-.09-.163-.458-.738-1.25-1.373-1.988-1.79-2.495-1.413-5.497-1.71-8.363-1.322-.49.066-1.608.36-1.912.364ZM30.706 65.585l.558.292c.195.085.38.164.571.24 2.41.963 6.045 1.888 8.537.852.493-.204.683-.422 1.048-.623l.143.497c.84-.86-.464-1.67-1.15-1.913-2.125-.754-6.002-.286-8.212.3-.49.129-.993.346-1.495.355Z" fill="#ACB4BD"/><path fill-rule="evenodd" clip-rule="evenodd" d="M23.134 50.742c.192.417.835 1.6 1.123 1.907l.574.757c.256.324.46.552.707.843.752.893 2.209 2.175 3.147 2.907l1.665 1.309c.007-.014.029.026.043.04 3.424 1.832 6.839 3.932 11.539 2.718.201-1.803-.986-5.63-1.649-6.915l-.043-.09-.02-.03-.091-.142-.08-.114c-.188.57-.692 1.054-1.257 1.25-.527.184-1.317.191-1.908.101-1.029-.157-2.334-.57-3.257-.939a29.85 29.85 0 0 1-8.184-4.944c-.997-.843-2.162-2.871-2.79-3.033-.469 1.475-.151 3.002.48 4.375Z" fill="#30445A"/><path fill-rule="evenodd" clip-rule="evenodd" d="M15.461 54.441c-.11 2.22.801 4.594.801 5.144l.354.63c.72 1.633 1.927 3.616 3.086 4.964l.11.14c.007-.014.026.032.037.05.335.563 1.338 1.423 1.804 1.92.28.298.66.627 1.006.912.23.19.869.671 1.021.849.912.469 1.955 1.577 4.511 2.704l1.582.641c.12.072.054.025.135.103.143.01 2.21.646 3.864.83 1.236.136 3.321-.027 4.385-.377.845-.277.936-.31 1.346-1.028.606-1.061 2.038-4.043 2.06-5.08l-.143-.497c-.365.201-.555.419-1.048.623-2.492 1.035-6.127.112-8.537-.852-.19-.076-.376-.155-.571-.24l-.558-.292c-.99-.368-2.695-1.456-3.497-2.005-1.093-.747-2.285-1.627-3.102-2.47-.3-.161-.459-.395-.719-.65-.772-.758-1.089-1.073-1.822-2.017-.595-.768-1.583-2.125-2.004-3.13-.165-.455-.395-.892-.569-1.388a12.501 12.501 0 0 1-.449-1.549c-.306-1.477-.383-2.218.012-3.474.028-.341-.008-1.153-.324-1.365-.61.454-1.222 1.534-1.646 2.36-1.076 2.098-1.008 2.2-1.125 4.544Z" fill="#30445A"/><path d="M52.318 57.694h7.487v1.693h-5.458v2.323h2.703c.744 0 1.365.09 1.854.273.492.182.912.518 1.26 1.01.347.49.522 1.066.522 1.726 0 .676-.175 1.257-.527 1.74-.35.48-.749.811-1.199.988-.448.178-1.087.266-1.915.266h-4.727v-10.02Zm2.029 8.326h1.966c.627 0 1.07-.03 1.325-.09.254-.062.478-.2.667-.416a1.16 1.16 0 0 0 .282-.795c0-.46-.165-.793-.494-1.003-.332-.208-.894-.313-1.691-.313h-2.055v2.617Zm8.016-8.326h2.03v4.268c.45-.047.755-.161.913-.35.16-.187.406-.707.737-1.56.418-1.085.84-1.761 1.262-2.025.42-.263 1.094-.396 2.027-.396.047 0 .145-.003.294-.007v1.497l-.287-.007c-.415 0-.718.051-.91.154a1.166 1.166 0 0 0-.464.469c-.119.21-.294.641-.525 1.294a4.561 4.561 0 0 1-.4.87c-.143.233-.397.453-.761.658.45.126.82.385 1.115.772.294.387.615.933.965 1.64l1.365 2.742h-2.38l-1.2-2.58c-.019-.037-.059-.106-.117-.212a11.154 11.154 0 0 1-.252-.47c-.256-.495-.466-.803-.63-.927-.165-.123-.415-.186-.753-.19v4.38h-2.029v-10.02Zm14.738 6.325 1.96.602c-.302 1.103-.803 1.921-1.503 2.458-.7.534-1.586.802-2.661.802-1.332 0-2.426-.455-3.284-1.364-.856-.91-1.285-2.153-1.285-3.732 0-1.667.431-2.964 1.292-3.888.86-.923 1.994-1.385 3.398-1.385 1.227 0 2.223.364 2.988 1.089.457.43.797 1.045 1.026 1.85l-2.001.475c-.119-.518-.366-.928-.742-1.229-.378-.3-.835-.45-1.371-.45-.744 0-1.348.266-1.81.8-.464.532-.695 1.395-.695 2.589 0 1.264.229 2.167.683 2.703.458.539 1.05.807 1.78.807.539 0 1.003-.17 1.39-.513.387-.343.667-.88.835-1.614Zm7.627-6.325h7.486v1.693h-5.457v2.323h2.703c.744 0 1.364.09 1.854.273.492.182.912.518 1.26 1.01.347.49.522 1.066.522 1.726 0 .676-.175 1.257-.527 1.74-.35.48-.749.811-1.199.988-.448.178-1.087.266-1.915.266h-4.727v-10.02Zm2.029 8.326h1.966c.627 0 1.07-.03 1.325-.09.254-.062.478-.2.667-.416a1.16 1.16 0 0 0 .282-.795c0-.46-.166-.793-.495-1.003-.33-.208-.893-.313-1.69-.313h-2.055v2.617Zm9.401-3.33-1.735-.308c.196-.71.534-1.234 1.012-1.575.478-.34 1.19-.51 2.132-.51.856 0 1.495.1 1.915.303.417.203.714.46.884.772.17.312.256.884.256 1.719l-.028 2.239c0 .636.031 1.108.091 1.41.061.304.175.628.343.973h-1.903a7.207 7.207 0 0 1-.184-.56 2.338 2.338 0 0 0-.068-.223 3.433 3.433 0 0 1-1.05.723c-.372.16-.77.242-1.191.242-.744 0-1.332-.203-1.761-.608-.43-.404-.644-.917-.644-1.538 0-.408.098-.774.294-1.096.196-.32.469-.566.823-.737.352-.17.861-.32 1.526-.448.895-.168 1.518-.326 1.863-.47v-.194c0-.373-.09-.64-.273-.8-.184-.159-.53-.238-1.035-.238-.343 0-.609.068-.8.205-.194.135-.348.376-.467.719Zm2.575 1.553c-.245.082-.634.18-1.168.294-.532.114-.882.226-1.045.333-.25.18-.376.404-.376.677 0 .27.1.501.301.697.2.196.455.294.765.294.345 0 .677-.114.991-.34a1.21 1.21 0 0 0 .458-.637c.048-.164.074-.476.074-.936v-.382Zm3.697-3.792h1.917v2.658h2.771V60.45h1.917v7.263h-1.917v-3.05h-2.771v3.05h-1.917v-7.262Zm8.452 0h1.917v2.966c.32-.037.546-.135.679-.294.131-.158.292-.506.478-1.042.248-.716.516-1.171.81-1.372.291-.2.674-.3 1.149-.3.147 0 .399.011.761.034l.007 1.267c-.509 0-.833.047-.973.142-.142.1-.296.399-.459.896-.224.667-.548 1.08-.968 1.233.606.169 1.119.698 1.539 1.587.021.046.047.093.075.144l1.073 2.001h-2.065l-.956-2.106c-.196-.424-.366-.697-.511-.819-.142-.12-.356-.181-.639-.181v3.106h-1.917v-7.262Z" fill="#30445A"/></svg>