<svg width="120" height="120" fill="none" xmlns="http://www.w3.org/2000/svg"><path fill-rule="evenodd" clip-rule="evenodd" d="M30.846 38.147c.253-.017.524-.026.816-.026H39.144a4.576 4.576 0 0 0 2.167-.675c2.387-1.435 2.564-5.072.077-6.718-1.272-.841-2.738-.708-4.453-.708-6.355 0-11.463-.807-15.692 4.813-1.3 1.728-2.139 3.947-2.115 7.482 2.463-1.084 6.337-3.989 11.718-4.168Z" fill="url(#a)"/><path fill-rule="evenodd" clip-rule="evenodd" d="M30.545 38.172s-3.093 0-3.093 3.438c0 3.437.129 27.317.129 27.317s-.53 9.036 9.91 12.397c0 0-18.386-4.936-18.386-11.89v-27.12s6.677-4.142 11.44-4.142Z" fill="url(#b)"/><path fill-rule="evenodd" clip-rule="evenodd" d="M100.476 66.118s1.942 6.712-2.53 13.584c-2.264 3.48-5.391 7.004-10.407 8.724-4.887 1.675-11.593 1.593-19.008 1.466-1.538-.027-2.925-.003-3.865-.337-2.736-.975-3.233-4.188-1.938-5.912 1.242-1.652 2.7-1.745 2.7-1.745 1.659-.397 11.67-.2 15.939-.2 4.268 0 9.357-6.146 9.357-6.146l9.752-9.434Z" fill="url(#c)"/><path fill-rule="evenodd" clip-rule="evenodd" d="M78.198 38.221s14.018-.391 15.817 4.712c1.8 5.102-.6 9.833-.976 10.92 0 0 1.598.764 3.266 2.979 1.73 2.298 4.176 5.728 4.176 9.58 0 7.306-10.46 10.233-10.46 10.233s8.05-10.903-5.557-19.27c-.84-.516-1.455-2.305-.32-3.844 2.67-3.624 3.028-12.43-5.946-15.31Z" fill="url(#d)"/><path fill-rule="evenodd" clip-rule="evenodd" d="M19.323 70.75s.103 2.707 1.593 6.051c2.26 5.069 7.438 11.847 18.476 13.139 1.252.146 2.58.047 3.987.047 5.868 0 15.333-4.44 18.96-12.718 2.803-6.397 1.96-18.538 1.96-18.538l.007-20.559 13.82.011c8.077 1.294 15.89 4.75 15.89 4.75-.382-1.565-1.24-3.3-2.017-4.606-2.863-4.801-6.56-7.106-11.537-7.96-2.072-.355-4.351-.371-6.909-.351-5.572.043-17.604.034-17.604.034-.005-.034.127 23.723.064 35.207-.02 3.769-.307 5.65-.302 5.683.006.048-.496 3.15-2.963 6.035-4.497 5.26-14.59 9.8-33.425-6.225Z" fill="url(#e)"/><defs><linearGradient id="a" x1="19.128" y1="36.147" x2="43.179" y2="36.147" gradientUnits="userSpaceOnUse"><stop stop-color="#E83C42"/><stop offset="1" stop-color="#5C1A52"/></linearGradient><linearGradient id="b" x1="26.473" y1="38.313" x2="30.122" y2="81.183" gradientUnits="userSpaceOnUse"><stop stop-color="#5A1B50"/><stop offset=".471" stop-color="#CD2029"/><stop offset="1" stop-color="#5C1A52"/></linearGradient><linearGradient id="c" x1="62.046" y1="78.035" x2="100.896" y2="78.035" gradientUnits="userSpaceOnUse"><stop stop-color="#703464"/><stop offset="1" stop-color="#D21B29"/></linearGradient><linearGradient id="d" x1="78.198" y1="57.43" x2="100.481" y2="57.43" gradientUnits="userSpaceOnUse"><stop stop-color="#591751"/><stop offset=".502" stop-color="#CA202B"/><stop offset="1" stop-color="#581952"/></linearGradient><linearGradient id="e" x1="19.323" y1="60.015" x2="94.015" y2="60.015" gradientUnits="userSpaceOnUse"><stop stop-color="#2BA0D9"/><stop offset=".529" stop-color="#3D538E"/><stop offset="1" stop-color="#E31B23"/></linearGradient></defs></svg>