<svg width="120" height="120" fill="none" xmlns="http://www.w3.org/2000/svg"><path fill-rule="evenodd" clip-rule="evenodd" d="M0 120h120V0H0v120Z" fill="#fff"/><path fill-rule="evenodd" clip-rule="evenodd" d="M63.343 53.87c.572.102 1.508-.573 2.22-.911a35.177 35.177 0 0 1 2.372-1.022c7.798-3.078 20.82-5.386 27.978-.65 4.885 3.232 5.357 6.907 6.487 7.095.692-.602.519-.953.174-2.96-1.814-10.558-10.87-16.2-20.522-19.475-2.697-.915-8.79-2.785-11.62-2.936-.523 4.019-1.462 7.686-2.72 11.302-1.727 4.961-3.871 7.936-4.276 8.936l-.093.621Zm7.935-7.749c8.002-1.347 9.448-2.433 18.545-1.48-1.22-2.503-14.697-6.854-16.687-6.511-.249 1.26-1.895 7.675-1.858 7.991ZM17.6 58.37c.807-.15.402-.352 1.417-1.952 3.389-5.342 9.332-7.73 15.983-7.844 4.076-.069 8.318.659 12.007 1.62 2.164.565 5.407 1.756 7.42 2.774.727.367 1.666 1.014 2.255.899.047-.646-.653-1.336-1.049-2.1-.4-.77-.854-1.585-1.222-2.38-2.682-5.797-3.874-9.634-4.88-16.317-5.895.198-16.222 4.399-21.28 7.585-5.695 3.588-10.53 9.235-11.057 16.163-.083 1.093-.203 1.027.406 1.551Zm12.585-13.734c5.262-.483 9.029-.462 14.216.563 1.311.26 3.174.81 4.433.899-.404-2.137-1.261-3.502-1.975-7.963-1.98-.371-15.528 4.068-16.674 6.5ZM56.022 87.855l.123-1.053c-.5-.412-1.648-.914-2.242-1.301-4.126-2.689-4.901-8.488-4.203-13.165.615-4.122 1.513-3.609.742-5.825-1.764.348-7.578 5.249-17.646 5.096-5.077-.078-10.345-2.715-13.264-6.338-.784-.974-.81-1.257-1.61-1.48-.771.737-.653-.106-.529 1.162.283 2.887 3.116 7.218 4.727 9.331.725.951 2.944 2.997 3.994 3.801a37.46 37.46 0 0 0 4.835 3.17c6.846 3.75 15.94 6.438 25.073 6.602Zm-26.304-11.97c.037.048.096.056.118.141.13.485 3.274 1.91 3.66 2.083 3.042 1.368 10.439 3.9 13.413 4-.841-2.832-.905-5.46-.862-8.593-7.813 2.11-7.437 2.15-16.33 2.369ZM69.637 66.451c-1.025 1.723-.144 1.4.569 5.549.913 5.313-.005 10.899-4.723 13.881-1.48.935-1.806.214-1.513 1.972 12.952-.606 31.295-6.337 37.08-18.395.438-.913.794-1.871 1.101-2.907.486-1.637.892-2.073-.351-2.74-1.77 1.778-2.024 3.16-5.756 5.435-2.47 1.506-5.675 2.292-9.037 2.323-4.816.043-9.47-1.097-13.699-3.083-1.374-.645-2.484-1.454-3.67-2.035Zm3.46 15.684c2.92.18 15.988-4.543 17.245-6.149-3.013-.25-5.794.318-9.058-.292-2.882-.538-4.86-1.443-7.366-2.094-.017 3.44.085 5.353-.82 8.535Z" fill="#008B93"/><path fill-rule="evenodd" clip-rule="evenodd" d="M52.309 60.31c.064-1.41-.761-1.908-2.283-2.937-3.66-2.475-7.586-3.928-12.221-4.425-6.116-.655-14.509 1.34-15.223 6.657-.846 6.296 8.368 8.155 14.234 7.427 4.907-.61 12.303-3.809 15.492-6.723Zm-6.06-.91c-1.842-1.485-7.323-2.702-10.247-2.78-2.946-.08-9.569.712-9.477 3.575.094 2.94 7.262 3.153 10.177 2.706 2.212-.338 8.618-2.124 9.547-3.501ZM68.926 61.27c.67.453 1.02.663 1.726 1.08 3.64 2.15 7.388 3.95 11.804 4.59 5.815.844 14.898-.663 14.95-6.54.05-5.68-8.246-7.93-14.149-7.55-3.2.205-6.228.98-8.918 2.089-2.132.879-9.13 3.824-5.413 6.331Zm4.726-1.91c.87 1.491 7.132 3.141 9.486 3.53 2.774.459 10.205.294 10.284-2.695.118-4.492-14.86-4.518-19.77-.834ZM59.676 62.235c-3.27 1.987-6.872 11-3.72 17.209.654 1.287 2.395 3.491 4.547 3.053 4.883-.995 6.951-11.297 1.187-18.782-.35-.454-1.134-2.014-2.014-1.48ZM60 77.665c2.475-1.611 1.812-7.602 0-9.214-1.832 1.663-2.717 8.26 0 9.214ZM65.872 32.328c-3.834-.354-7.926-.188-11.773-.023-.434 3.071 3.92 17.609 5.902 17.537.653-.024.373.012.787-.654.162-.26.341-.587.504-.896.307-.583.662-1.276 1.01-1.988 1.474-3.027 3.76-11.143 3.57-13.976ZM60 42.763c.775-.9 1.944-4.975 1.739-6.47l-3.441-.032c-.195 1.775.793 5.406 1.702 6.502Z" fill="#008B93"/></svg>