<svg width="120" height="120" fill="none" xmlns="http://www.w3.org/2000/svg"><path fill-rule="evenodd" clip-rule="evenodd" d="m53.08 65.054 3.63.046v-6.442l3.075.022v2.99l-1.89-.025v3.434l5.51-.026.002-9.763-6.593-.095.08-2.804 6.454.049.038-3.526-10.234.007-.072 16.133Z" fill="#021D41"/><path fill-rule="evenodd" clip-rule="evenodd" d="m84.284 65.139-.075-6.008 3.035-.063.031 6.124h3.804l-.028-16.23-3.442.006c-.55.304-.333.172-.352 1.147l.016 4.714-3.037-.104-.028-5.762-3.55-.014-.058 16.205 3.683-.015Z" fill="#041E41"/><path fill-rule="evenodd" clip-rule="evenodd" d="m46.002 59.18-.018 5.974 3.747-.008.119-15.308c-.093-1.198.018-.57-.338-.92h-3.465l-.022 5.957-3.133.027L42.879 49l-3.657-.085-.01 15.933c.276.57-.363.21.67.385l2.983-.088.104-6.006 3.033.042Z" fill="#021D41"/><path fill-rule="evenodd" clip-rule="evenodd" d="m66.489 65.152 3.553.002.284-3.366c.934-.263 2.38-.302 3.279.041l.34 3.325h3.478l-1.784-16.23-3.61-.019-.013 3.792.71.55c.379.515.347 2.16.34 2.847l.08 1.316-2.428-.059.325-8.404-2.77-.032-1.784 16.237Z" fill="#051D3D"/><path fill-rule="evenodd" clip-rule="evenodd" d="m30.377 61.2-.052-2.126 3.063-.048c.222-.744.44-3.342-.136-3.98l-2.873.037.003-2.325 6.13-.09-.026-3.734-9.837.012s-.021.381-.031.673l.101 15.61 9.871-.055-.062-3.964-6.151-.01Z" fill="#021D41"/><path fill-rule="evenodd" clip-rule="evenodd" d="m14.144 65.11 3.583.036.104-12.107 6.564.026-.026-4.168-10.222.029-.003 16.185ZM99.578 54.75l-1.211.047.021-5.188c-.155-1.045.063-.304-.31-.701l-3.462.015-.021 16.231c0-.022 3.775-.007 3.775-.007l.01-6.13 1.188.07 2.416 6.067 3.873.002c-.226-1.948-2.832-6.109-3.243-8.114-.201-.982 2.738-6.494 3.114-8.131l-3.794.012-2.356 5.826Z" fill="#041E41"/><path d="M54.22 71.103c-.57 0-.95-.221-1.14-.663a1.192 1.192 0 0 1-.103-.458v-1.653c0-.142.034-.294.102-.458.123-.282.298-.47.526-.56.187-.073.392-.11.615-.11.169 0 .303.014.403.042.405.104.665.35.779.737.046.155.068.283.068.383v1.62c0 .14-.034.293-.102.457-.128.291-.305.478-.533.56a1.816 1.816 0 0 1-.615.103Zm0-.766c.223 0 .335-.095.335-.287v-1.79c0-.19-.112-.287-.335-.287-.223 0-.335.096-.335.287v1.79c0 .192.112.287.335.287Zm3.06.766c-.245 0-.45-.023-.614-.069-.492-.137-.738-.465-.738-.984v-1.79c0-.51.246-.838.738-.984.178-.05.383-.075.615-.075.2 0 .357.014.471.041.142.027.212.083.212.17v.595c0 .073-.05.11-.15.11a.342.342 0 0 1-.096-.007 1.83 1.83 0 0 0-.123-.02 1.276 1.276 0 0 1-.089-.014h-.177c-.15 0-.244.011-.28.034-.142.1-.212.207-.212.32v1.442c0 .11.07.215.212.315.036.027.134.04.293.04.119 0 .185-.002.199-.006.045-.01.086-.016.123-.02l.088-.014h.075c.092 0 .137.034.137.102v.607c0 .087-.07.145-.212.172-.05.01-.092.016-.126.02l-.085.014h-.26Zm2.672-1.647h-.628v1.476c0 .068-.042.102-.123.102h-.67c-.068 0-.102-.034-.102-.102v-3.553c0-.069.034-.103.102-.103h.67c.081 0 .123.035.123.103v1.23h.628v-1.23c0-.069.041-.103.123-.103h.67c.072 0 .109.035.109.103v3.553c0 .068-.037.102-.11.102h-.669c-.082 0-.123-.034-.123-.102v-1.476Zm2.63 1.647c-.569 0-.95-.221-1.14-.663a1.193 1.193 0 0 1-.103-.458v-1.653c0-.142.034-.294.102-.458.123-.282.299-.47.526-.56a1.68 1.68 0 0 1 .615-.11c.169 0 .303.014.403.042.406.104.666.35.78.737.045.155.068.283.068.383v1.62c0 .14-.035.293-.103.457-.127.291-.305.478-.533.56a1.817 1.817 0 0 1-.615.103Zm0-.766c.224 0 .335-.095.335-.287v-1.79c0-.19-.111-.287-.335-.287-.223 0-.334.096-.334.287v1.79c0 .192.111.287.334.287Zm4.243-.444c0 .215-.023.374-.068.478-.196.442-.524.663-.984.663h-1.34c-.068 0-.102-.034-.102-.102v-3.553c0-.068.034-.102.103-.102h1.407c.364 0 .622.175.772.526.05.123.075.262.075.417 0 .296-.13.532-.39.71.01.014.021.025.035.034.196.155.326.283.39.383.068.123.102.305.102.546Zm-1.585-1.892v.662c.096 0 .191-.006.287-.02.141-.014.212-.118.212-.314s-.071-.301-.212-.314A3.488 3.488 0 0 0 65.24 68Zm.034 1.42-.034.035v.854a3.749 3.749 0 0 0 .321-.014c.214-.022.321-.168.321-.437 0-.296-.164-.444-.492-.444a.488.488 0 0 0-.116.007Zm2.296-1.338c-.082 0-.123-.034-.123-.103v-.458c0-.09.059-.161.177-.211a.777.777 0 0 1 .212-.069c.091-.022.173-.036.246-.04h.601c.123.004.24.029.348.075.401.154.602.412.602.772v2.883c0 .068-.036.102-.11.102h-.703c-.01 0-.02-.011-.034-.034-.037-.05-.06-.075-.069-.075-.018 0-.03.002-.034.007a3.025 3.025 0 0 1-.287.136.835.835 0 0 1-.26.034c-.373 0-.649-.21-.826-.628-.046-.11-.069-.3-.069-.574 0-.665.303-1.13.91-1.394a8 8 0 0 0 .491-.212.16.16 0 0 0 .075-.034.475.475 0 0 0 .007-.089c0-.14-.073-.216-.219-.225a1.538 1.538 0 0 0-.211-.007c-.11 0-.169.003-.178.007a14.242 14.242 0 0 1-.526.137h-.02Zm.615 1.79c0 .264.088.396.266.396.178 0 .266-.048.266-.144v-.997c-.055 0-.161.061-.32.184-.142.124-.213.31-.213.56Zm3.538-.417h-.628v1.476c0 .068-.041.102-.123.102h-.67c-.068 0-.102-.034-.102-.102v-3.553c0-.068.034-.102.102-.102h.67c.082 0 .123.034.123.102v1.23h.629v-1.23c0-.068.04-.102.123-.102h.67c.072 0 .108.034.108.102v3.553c0 .068-.036.102-.109.102h-.67c-.081 0-.123-.034-.123-.102v-1.476Zm5.972.437c0 .215-.023.374-.069.478-.196.442-.523.663-.983.663h-1.34c-.068 0-.102-.034-.102-.102v-3.553c0-.068.034-.102.102-.102h1.408c.364 0 .621.175.772.526.05.123.075.262.075.417 0 .296-.13.532-.39.71a.12.12 0 0 0 .035.034c.195.155.325.283.39.383.068.123.102.305.102.546Zm-1.585-1.892v.662c.095 0 .191-.006.287-.02.14-.014.212-.118.212-.314s-.071-.301-.212-.314A3.5 3.5 0 0 0 76.11 68Zm.034 1.42-.034.035v.854a3.757 3.757 0 0 0 .32-.014c.215-.022.322-.168.322-.437 0-.296-.164-.444-.492-.444a.488.488 0 0 0-.116.007Zm4.81-1.803-.055-.048h-.738c-.068 0-.102-.043-.102-.13v-.526c0-.063.034-.098.102-.102l.225-.014c.065-.004.12-.011.165-.02.19-.032.366-.14.526-.321.1-.114.159-.171.177-.171h.56l.103.102v4.51c0 .09-.034.136-.102.136h-.738l-.123-.103v-3.313Zm2.418 1.906c-.205 0-.387-.048-.546-.143a.814.814 0 0 1-.417-.743V67.24c0-.272.127-.518.382-.736.1-.086.23-.156.39-.211.141-.05.319-.075.533-.075.232 0 .405.025.52.075.491.228.737.601.737 1.12v2.467c0 .532-.223.895-.67 1.086-.204.086-.38.132-.526.137h-.628c-.219-.01-.383-.044-.492-.103-.073-.032-.11-.066-.11-.102v-.67l.035-.034a.975.975 0 0 1 .321 0 .97.97 0 0 0 .314.102c.01.005.069.007.178.007.373 0 .571-.155.594-.464a6.954 6.954 0 0 1-.013-.445.545.545 0 0 0-.199.058.205.205 0 0 1-.04.014 1.037 1.037 0 0 1-.362.058Zm.3-.874c.21 0 .315-.084.315-.253v-1.12c0-.169-.105-.253-.314-.253-.214 0-.321.084-.321.253v1.12c0 .169.107.253.32.253Zm2.72.874c-.205 0-.387-.048-.546-.143a.814.814 0 0 1-.417-.743V67.24c0-.272.127-.518.382-.736.1-.086.23-.156.39-.211.141-.05.319-.075.533-.075.232 0 .405.025.52.075.491.228.737.601.737 1.12v2.467c0 .532-.223.895-.67 1.086-.205.086-.38.132-.526.137h-.628c-.22-.01-.383-.044-.492-.103-.073-.032-.11-.066-.11-.102v-.67l.035-.034a.975.975 0 0 1 .321 0 .973.973 0 0 0 .314.102c.01.005.068.007.178.007.373 0 .571-.155.594-.464a7.271 7.271 0 0 1-.014-.445.545.545 0 0 0-.198.058.2.2 0 0 1-.04.014 1.037 1.037 0 0 1-.362.058Zm.3-.874c.21 0 .315-.084.315-.253v-1.12c0-.169-.105-.253-.314-.253-.215 0-.321.084-.321.253v1.12c0 .169.106.253.32.253Zm1.893-1.448c0-.456.212-.759.636-.91.14-.05.3-.074.478-.074.829 0 1.243.412 1.243 1.236 0 .356-.152.683-.457.984v.034c0 .05.034.107.102.171a1.478 1.478 0 0 1 .243.201c.03.03.055.059.078.086.055.06.089.187.102.382.005.014.007.096.007.246 0 .27-.025.492-.075.67-.173.583-.596.874-1.27.874a1.77 1.77 0 0 1-.383-.034c-.437-.118-.706-.376-.806-.772a2.116 2.116 0 0 1-.035-.437v-.266c.01-.069.044-.103.103-.103h.635c.064 0 .098.034.103.103l.013.232c.005.077.012.153.02.225.019.169.124.253.315.253.255 0 .385-.118.39-.355.004-.014.006-.114.006-.3 0-.201-.013-.347-.04-.438-.06-.223-.153-.335-.28-.335h-.493c-.073 0-.109-.052-.109-.157v-.458c0-.104.036-.157.11-.157h.491a1.194 1.194 0 0 0 .188-.178.384.384 0 0 0 .058-.088c.023-.082.035-.194.035-.335 0-.319-.11-.478-.328-.478-.155 0-.246.059-.274.178-.009.127-.02.209-.034.245-.014.05-.036.075-.068.075h-.636c-.018 0-.04-.036-.068-.109v-.211Z" fill="#2B2A29"/></svg>