<svg width="120" height="120" fill="none" xmlns="http://www.w3.org/2000/svg"><path fill-rule="evenodd" clip-rule="evenodd" d="M49.709 56.843c-4.729 1.526-7.982 1.162-8.423 9.295-.87 16.036 6.215 16.185 19.866 15.737 3.652-.12 7.909-.41 10.578-2.814.94-.846 1.302-1.856 2.069-2.562 1.555.849 5.087 4.461 6.323 4.918.618-.537 2.24-2.557 2.51-3.332-.853-.963-2.572-2.098-3.7-3.022-5.454-4.465-3.572-1.5-3.495-7.748.02-1.575.08-3.236-.117-4.793l-4.456-.04-.037 5.592c-1.097-.34-3.932-2.997-4.95-3.848-2.226-1.864-12.914-10.508-13.92-12.084-1.206-1.891-1.136-5.403-.216-7.139 1.066-2.009 3.496-2.453 6.127-2.48 9.063-.092 8.354.634 8.74 8.831l4.875.052c1.451-12.57-6.354-14.395-16.941-12.993-4.637.615-7.35 2.37-8.185 6.823-1.61 8.59 2.601 10.16 3.352 11.607ZM69.784 73.4c-.642-.935-9.612-8-11.329-9.478-4.816-4.146-5.243-5.432-9.81-3.024-1.241.655-1.837 1.499-2.203 3.16-.431 1.957-.383 7.638.165 9.64.822 3.005 3.055 3.552 6.613 3.774 5.607.35 15.477.996 16.564-4.072ZM77.152 51.314l8.245.105.04 30.155 14.579-.001.082-30.09 8.166-.084.071-12.941-31.171.012-.012 12.844ZM21.89 68.507l-10.2.057-.025 12.86c1.133.378 14.754.254 16.567.03a9.438 9.438 0 0 0 8.285-8.774c.35-5.23.02-11.71.02-17.078 0-5.694.007-11.389 0-17.083-1.947-.16-13.237-.26-14.641.08l-.006 29.908Z" fill="#282E3C"/></svg>