<svg width="120" height="121" fill="none" xmlns="http://www.w3.org/2000/svg"><path fill-rule="evenodd" clip-rule="evenodd" d="M0 120.833h120v-120H0v120Zm54.722-90.079c-15.1 1.432-30.397 7-37.812 19.36-2.454 4.089-3.743 10.022-2.396 15.53 2.295 9.377 10.553 15.923 18.402 19.653 18.288 8.69 45.004 7.742 60.948-3.945 7.85-5.754 14.251-14.586 11.622-25.33-4.157-16.987-28.75-27.354-50.764-25.268Zm8.06 29.922c-.753 3.54-2.311 7.125-2.406 11.095-.063 2.623 1.237 3.051 3.77 3.025 5.483-.055 22.166-10.228 21.144-13.26-1.918-2.58-13.275-2.263-17.292-2.577-.006-1.147.881-4.606 1.407-5.507l28.199-.043c.868 2.158 1.102 2.595.822 5.423-1.097 11.055-13.493 18.743-23.347 21.886-7.316 2.333-14.636 3.148-22.959 2.813-5.246-.211-11.298-1.463-16.146-3.271-1.59-.593-3.177-1.485-4.665-1.968 1.537 1.89 7.145 4.58 9.137 5.378 3.57 1.43 7.413 2.445 11.459 2.99 15.752 2.123 33.509-1.74 43.78-13.114 2.13-2.357 4.113-5.655 4.808-9.643.857-4.916-.624-8.275-2.339-11.846l-28.252-.001c.167-1.528 2.807-7.926 1.98-8.606-3.086-.985-6.018 1.108-7.61 2.407-.93.758-4.136 4.51-4.633 5.87-6.438.154-25.934-2.445-28.754 2.762-1.344 4.82 20.165 5.406 21.812 5.554-.769 1.576-3.584 3.965-4.975 5.133-1.616 1.356-4.21 2.822-6.566 3.712-3.866 1.46-14.07 2.98-18.105 1.132-3.974-7.7.756-14.767 4.5-18.89 3.912-4.31 10.894-7.975 16.726-9.952 11.954-4.053 27.854-4.43 40.084.33 1.464.569 3.313 1.572 4.644 1.98-.418-.29-.85-.762-1.352-1.12-2.07-1.482-3.157-1.983-5.368-3.17-7.75-4.165-19.493-5.304-28.433-4.46-13.535 1.277-24.578 7-30.445 14.437-4.69 5.944-5.553 13.636-1.375 20.971.906 1.59 1.448 2.044 2.553 3.135 2.918 2.88 2.502 2.822 8.222 1.715C54.22 70.85 55.844 61.91 57.62 60.654c.71-.5 4.105-.088 5.161.022Zm17.3 2.308c-1.315-1.259-3.681-1.387-5.72-1.602-1.416-.15-5.883-.64-7.009-.414-.623 2.408-1.393 4.634-1.818 7.132-.78 4.576.361 4.337 4.018 2.719 2.232-.988 10.392-4.896 10.529-7.835Zm-42.58-8.313c.265 2.023 5.878 2.507 7.55 2.732 2.944.397 6.46.773 9.493.78l3.576-4.65c-3.826.082-18.315-.136-20.618 1.138Zm21.343 3.934 4.653.175 2.253-5.17-3.563-.08c-.68.93-3.047 4.094-3.343 5.075Zm4.861-6.816 3.029.043c.465-.977 1.417-2.812 1.46-4.006-1.406-.104-4.138 2.691-4.489 3.963Z" fill="#24458C"/></svg>