<svg width="120" height="120" fill="none" xmlns="http://www.w3.org/2000/svg"><path fill-rule="evenodd" clip-rule="evenodd" d="M61.217 42.83c4.838-3.006 4.847 1.243 3.806 6.183l-4.642 23.156c-.45 2.257-.517 4.065-1.806 5.019-1.344.994-3.082.816-4.085-.44-.475-2.623 1.97-14.005 2.314-15.045l1.844-9c.823-4.206 1.045-6.628 2.57-9.874ZM32.165 67.091c-1.852 12.26-2.004 25.184 12.436 25.93 5.744.295 11.959.015 17.758.028 6.131.013 10.323-.944 14.214-4.693 2.774-1.79 5.333-8.303 6.525-13.005 2.363-9.32 3.668-19.308 5.62-28.887 1.05-16.97-8.761-19.427-21.035-19.417-11.202.008-21.896-2.065-28.183 10.273-1.24 2.435-3.175 7.797-3.446 11.293l-3.889 18.479Z" fill="#00ADEF"/><path fill-rule="evenodd" clip-rule="evenodd" d="M51.247 96.437c-7.094-.843-19.303 2.423-22.023-15.002-.18-4.125-.185-7.44.403-11.381 1.117-7.483 4.84-25.515 6.854-30.63 1.787-4.535 3.95-8.33 7.454-11.11 1.779-1.412 3.57-2.268 5.85-2.935 5.408-1.583 10.566-.303 15.964-.943 1.06-1.282 2.398-10.215 2.748-11.987.53-2.68 2.372-10.268 2.35-12.432-6.7-.4-12.639 6.236-18.143 10.864C39.107 22.28 25.34 33.49 11.946 45.207 7.293 49.277 1.024 52.834.198 59.103c-1.138 9.692 2.765 12.6 8.037 18.729 10.233 11.9 20.345 24.373 30.414 36.482 1.88 2.264 4.092 4.779 7.738 5.364.698-2.858 4.88-22.887 4.86-23.24ZM65.383 110.679c13.326-11.254 26.692-23.373 40.142-34.305 4.415-3.588 11.964-9.019 13.716-14.313.687-2.08 1.289-6.392.006-8.042C118.794 51.932 80.532-.015 73.359.36l-4.534 22.657-.133 1.488c6.685.022 10.688-.388 15.715 3.36 10.614 7.917 6.697 21.358 4.16 33.23-1.646 7.698-2.805 15.884-5.503 23.098-1.367 1.362-4.122 12.006-19.226 12.173-11.262.125-9.443-2.643-11.44 7.561-.52 2.654-1.187 5.305-1.57 7.988l-1.655 8.064c3.266.241 7.16-1.507 9.318-3.218 1.852-1.468 5.575-4.357 6.892-6.08v-.001Z" fill="#00ADEF"/></svg>