<svg width="120" height="120" fill="none" xmlns="http://www.w3.org/2000/svg"><path fill-rule="evenodd" clip-rule="evenodd" d="M17.653 70.63c9.475-.06 26.12 2.805 25.365-11.08-.141-2.6-1.198-5.83-3.586-6.926l-1.218-.593c4.341-2.64 4.915-11.203-.426-13.779-2.96-1.427-15.873-.863-20.138-.81l.003 33.188Zm8.765-6.985c3.847.077 7.982.34 8.082-3.838.102-4.295-4.233-3.981-7.995-3.941l-.087 7.779Zm.018-13.662c1.99-.006 6.216.386 6.617-3.187.419-3.734-3.412-3.504-6.557-3.444l-.06 6.631ZM57.839 61.226c.975 5.046-8.935 2.012-10.092 1.817l-1.55 6.258c2.829 1.979 10.1 1.791 13.485.684 4.246-1.388 6.3-3.787 7.696-8.313.948-3.074 7.572-22.743 7.571-24.026l-8.886-.008c-1.174 2.408-3.807 15.52-4.809 17.32L55.39 37.684l-10.053-.048c.123 1.634 3.627 11.197 4.459 13.361.84 2.185 1.654 4.254 2.79 6.22 1.183 2.048 2.217 3.796 5.253 4.008ZM78.092 38.112l1.197 6.66c2.33-.455 14.759-3.993 12.103 3.404-1.276 3.551-6.138 1.741-9.29 2.188-.013.629-.077 4.565.037 4.865.591 1.558 10.465-1.457 11.28 4.165.443 3.058-2.92 4.219-5.897 4.298-4.5.119-6.882-1.333-8.972-1.469l-.232 7.071c4.094 1.761 15.575 2.581 20.612-1.075 5.31-3.854 4.362-14.204-2.144-16.198 1.705-1.815 3.591-3.347 3.769-6.967.177-3.572-1.619-5.616-3.875-6.921-4.473-2.587-13.618-1.772-18.588-.02ZM16.73 83.495l86.477.023.063-4.884-86.493-.029-.047 4.89Z" fill="#017439"/></svg>