<svg width="120" height="120" fill="none" xmlns="http://www.w3.org/2000/svg"><path fill-rule="evenodd" clip-rule="evenodd" d="M0 120h120V0H0v120Z" fill="url(#a)"/><path fill-rule="evenodd" clip-rule="evenodd" d="m22.86 62.093.019 8.091c16.506-12.242 32.919-24.45 49.278-36.852l24.97 16.801.014-7.88-24.896-16.966L22.86 62.093Z" fill="#FDFEFE"/><path fill-rule="evenodd" clip-rule="evenodd" d="m64.135 94.62 16.256.093V78.726l-16.194.084-.062 15.81Z" fill="#EC6607"/><path fill-rule="evenodd" clip-rule="evenodd" d="m22.86 74.357.019 8.092c16.506-12.242 32.919-24.451 49.278-36.852l24.97 16.801.014-7.88-24.896-16.967L22.86 74.357Z" fill="#FDFEFE"/><path fill-rule="evenodd" clip-rule="evenodd" d="m22.86 86.622.019 8.091c16.506-12.241 32.919-24.45 49.278-36.852l24.97 16.802.014-7.88-24.896-16.967L22.86 86.622Z" fill="#FDFEFE"/><defs><linearGradient id="a" x1="0" y1="60" x2="120" y2="60" gradientUnits="userSpaceOnUse"><stop stop-color="#0C4A97"/><stop offset="1" stop-color="#139F3C"/></linearGradient></defs></svg>