<svg width="120" height="120" fill="none" xmlns="http://www.w3.org/2000/svg"><path fill-rule="evenodd" clip-rule="evenodd" d="M0 119.954h120V.046H0v119.908Z" fill="#FEFEFE"/><path fill-rule="evenodd" clip-rule="evenodd" d="M51.395 26.53c2.38 1.07 3.577.097 3.405 5.608-12.404 1.51-18 12.806-13.063 21.891 2.23 4.104 9.025 8.459 13.077 10.14.006 2.047.14 15.956-.088 17.373-.368 2.281-1.672 1.849-3.304 2.692l-.063 1.18 15.739.003.001-1.302c-3.578-.699-3.448-1.98-3.444-5.689.002-3.059-.013-6.12-.005-9.177 1.457.398 5.128 2.973 5.87 3.829.386.446.83.742 1.225 1.215.26.312.75.986 1.024 1.416.614.962 1.154 2.105 1.42 3.428 1.15 5.745-2.308 9.739-7.315 11.862-4.78 2.028-12.194-.096-15.586-2.426-7.132-4.898-6.981-9.868-8.22-11.464l-1.089.004-.002 15.856c2.12.042.995-1.003 3.181-1.967 2.313-1.02 6.274.724 8.6 1.649.839.334 3.667 1.073 4.073 1.326-2.139 1.732-3.568 3.927-1.925 6.84.828 1.467 2.084 1.718 2.833 2.22 1.281.857.575 2.439.377 3.939 1.297.001 1.237.023 1.907-.856.4-.526.684-.893 1.117-1.501 1.507-2.114 3.544-4.728 3.091-7.139-.396-2.11-1.51-2.196-1.939-3.266 4.106-.16 8.483-2.128 11.02-4.038 10.707-8.064 7.988-21.59-3.468-28.466-4.439-2.665-9.74-5.43-14.442-8.04-4.297-2.383-11.273-6.218-9.49-12.812 1.028-3.802 5.475-6.284 8.909-6.297l-.006 16.324 8.803 4.93c.069-8.394-.095-17.107.04-25.357.039-2.402.697-3.159 2.519-3.615 1.223-.306.927-.123.923-1.528l-15.743.004.038 1.21Zm14.46 7.039.007 2.349c2.637 1.129 5.608 5.078 6.666 7.932.432 1.166.624 3.203 1.017 4.046l1.262.011c-.052-2.83.183-14.012-.138-14.868-2.307-.122-.941 2.024-4.12 1.959-1.831-.037-3.105-.993-4.694-1.429Zm-7.556-20.451c-6.627 1.258-4.827 11.296 1.939 10.06 2.48-.453 4.542-2.896 4.039-5.961-.417-2.542-2.969-4.67-5.978-4.1Z" fill="#002A64"/></svg>