<svg width="120" height="120" fill="none" xmlns="http://www.w3.org/2000/svg"><path fill-rule="evenodd" clip-rule="evenodd" d="M19.117 40.825c.038.933 1.323 4.44 1.631 5.355.602 1.786 1.207 3.542 1.715 5.198.883-.145 2.41-.76 3.375-1.06 3.83-1.189 7.876-1.671 12.035-1.424 5.267.313 8.857 3.681 8.527 9.317-1.54-.05-4.88-1.745-10.729-1.791-4.46-.035-7.386.211-11.1 1.521-6.199 2.188-10.51 7.399-9.636 15.849 1.426 13.778 19.978 16.858 29.798 8.551.257-.217 1.312-1.322 1.643-1.384l.013 4.975 10.038.014c.51 0 2.898.21 3.231-.144.291-.31.123-24.117.123-26.53 0-12.333-3.81-20.386-17.9-22.062-8.176-.973-16.37.827-22.764 3.615ZM46.586 66.53c-2.921-1.957-14.704-3.606-17.577 1.924-3.01 5.79 3.195 11.192 11.987 7.943 4.576-1.69 5.909-5.208 5.59-9.867ZM73.859 30.585c.427.419 4.55 3.356 6.478 5.119 7.407 6.775 10.858 13.392 11.018 24.243.18 12.11-5.466 20.416-14.124 27.05-1.003.768-2.381 1.66-3.368 2.482.128.542 5.478 8.486 6.02 9.017 1.622-.15 8.45-5.09 9.777-6.159 9.786-7.887 15.684-18.318 15.513-32.39-.173-14.303-5.505-24.175-15.518-32.215-1.482-1.19-8.242-6.006-9.772-6.228-.632.78-5.861 8.516-6.025 9.081Z" fill="#7C66A6"/></svg>