<svg width="120" height="120" fill="none" xmlns="http://www.w3.org/2000/svg"><path d="M120 0H0v120h120V0Z" fill="#00AEF0"/><path fill-rule="evenodd" clip-rule="evenodd" d="M14.427 53.115c1.97-.54 3.774-3.181 14.809-4.996 5.838-.961 12.233-1.287 18.354-1.35 11.633-.118 27.76 1.556 38.558-.749-1.431-.987-5.854-2.501-7.838-3.153-1.759-.578-8.271-.172-10.725-.221-7.192-.142-14.236-.717-21.458-.859-5.524-.109-38.592-.806-31.7 11.328ZM80.508 65.329c-6.627 0-45.206-2.301-51.33.776 1.602 1.047 3.263 1.998 4.954 2.902 3.078 1.645 2.09 1.84 5.866 1.127 12.075-2.278 25.35-.757 37.828-.812 6.856 0 25.318-.244 25.269-7.59-7.39 3.257-14.14 3.597-22.587 3.597Z" fill="#fff"/><path fill-rule="evenodd" clip-rule="evenodd" d="M35.503 17.902c4.098-.029 14.373-3.917 30.216-2.219 4.74.508 9.702 1.37 13.877 2.735 3.16 1.033 8.835 3.291 10.239 6.737-1.171-.357-2.63-1.166-3.848-1.67-10.713-4.433-21.538-5.522-33.277-5.017-7.355.316-16.605 1.42-23.406 3.91-3.032 1.11-8.005 6.14-8.918 7.837 2.164-.531 8.812-3.943 16.037-5.82 12.548-3.258 26.118-3.223 38.692-.27 4.12.969 13.243 3.755 15.772 5.908-.524 1.604-1.385 2.398-2.825 3.077-2.089.986-2.792.159-4.787-.57-19.546-7.143-45.196-6.677-64.382 1.38-2.305.969-2.134 1.05-3.3 3.042-.81 1.385-1.517 2.706-2.049 4.104 13.828-6.995 32.612-12.098 49.168-10.172 4.658.542 12.474 1.945 16.333 3.59-4.55.346-18.122-.68-25.847-.447-8.055.243-16.418.92-24.041 2.61-7.253 1.606-14.255 4.068-17.514 8.808-3.31 4.815-.395 8.485 0 9.973.37 1.384-3.289 4.525-.146 10.607.506.98 2.544 3.686 2.584 3.953.206 1.346-3.718 6.841 3.818 14.027 3.129 2.983 1.112.789 2.214 4.372 1.244 4.043 6.11 7.928 9.724 10.27 8.576 5.553 19.8 9.532 30.678 9.089 3.195-.13 8.954-.829 11.473-1.894-10.349-.217-19.556-.862-28.876-3.639-7.357-2.193-18.311-6.694-19.282-13.536 1.508.534 7.617 4.26 14.486 6.623 12.653 4.352 26.3 7.595 39.998 7.455 3.944-.041 6.07-1.667 9.532-4.03l1.545-1.285c-14.327 1.433-22.142 2.483-36.881-.728-8.167-1.779-22.44-6.523-28.345-11.662.031-2.374 1.577-4.187 2.942-5.167l7.775 3.97c2.827 1.27 5.434 2.395 8.407 3.548a124.228 124.228 0 0 0 18.347 5.527c7.48 1.631 14.301 2.115 22.274 1.516 2.315-.175 8.633-.678 10.518-1.311 1.048-.352 4.59-4.933 5.48-6.27-1.073.141-2.822.787-4.033 1.104-10.144 2.648-24.276 3.57-34.336 1.907a87.35 87.35 0 0 1-16.871-4.586c-3.049-1.17-12.902-5.388-14.574-7.066 1.762-1.24 7.362-1.816 9.938-2.027 2.171-.178 2.99.495 4.76 1.17 7.739 2.952 15.024 5.446 23.574 6.667 10.948 1.565 22.455.233 33.188-1.608 1.338-.23 1.194-.02 1.811-1.096.403-.703.678-1.415 1.018-2.16.459-1.002 1.509-3.22 1.607-4.238-10.492 5.568-30.49 7.192-42.882 4.863-2.84-.534-11.442-2.467-13.11-3.797 3.717-.31 8.873.176 12.691.335 10.992.458 39.237 2.546 45.212-6.064 1.814-2.613 2.831-6.83 1.201-10.16-.865-1.766-2.175-2.194-1.576-3.856.597-1.654.937-3.796.596-5.661-.326-1.787-1.369-3.27-2.257-4.307-2.696-3.15-2.1-1.616-1.712-3.904.69-4.059-1.574-7.558-3.52-9.396-.58-.547-1.004-.96-1.581-1.593-.747-.818-1.025-.796-1.85-1.56-.716-.661-1.549-3.026-2.386-4.203C83.87 10.247 47.955 8.71 35.503 17.902ZM20.463 81.79c-.894-1.032-1.557-1.575-2.243-3.214-.731-1.749-.436-2.997-.166-4.819l5.069 3.734c-1.034 1.418-1.596 2.368-2.66 4.3ZM19.746 71c.442-1.084 1.654-1.94 2.726-2.541 3.736-2.097 2.206-.086 10.044 3.35l-.983.604c-3.986 1.726-2.033.881-5.889 2.96-1.976-.802-4.259-3.433-5.898-4.374Zm-3.368-4.161c-1.277-1.433-2.372-4.466-.975-6.508.695.325.25.093.744.564l1.567 1.37c.769.655 1.4 1.156 2.086 1.815l-3.422 2.759Zm64.13-1.51c8.447 0 15.197-.339 22.587-3.596.049 7.346-18.413 7.59-25.269 7.59-12.479.055-25.753-1.467-37.828.813-3.776.712-2.789.517-5.866-1.128-1.691-.904-3.352-1.855-4.954-2.902 6.124-3.077 44.703-.776 51.33-.776Zm-62.554-7.832c2.423-2.8 14.069-3.81 18.66-4.005 17.128-.733 39.68 2.575 54.975-1.02.96-.225 3.704-1.212 4.412-.984.576.185 2.727 2.149 3.092 2.595-2.28 3.097-16.977 3.873-19.84 3.979-15.893.588-29.324-1.645-45.558 1.387-3.57.667-6.128 1.454-9.382 2.597-1.678.59-5.248-3.455-6.36-4.55Zm80.963-7.68c.735-.478 1.351-1.097 2.074-1.48.515.82.467 1.93.351 2.957-.583.012-1.909-.998-2.425-1.477Zm-84.49 3.299c-6.892-12.134 26.176-11.437 31.7-11.328 7.222.142 14.266.717 21.458.859 2.454.049 8.966-.357 10.725.22 1.984.653 6.407 2.167 7.838 3.154-10.798 2.305-26.925.63-38.558.75-6.12.062-12.515.388-18.354 1.348-11.035 1.816-12.84 4.456-14.809 4.997Zm70.08-11.225c.251-.158 5.159-1.421 6.333-1.887 1.418-.562 2.476.934 3.575 1.957l.612.417c-1.157.953-3.06 3.065-4.977 2.19l-5.542-2.677Zm12.17-6.92c.53 1.345 1.043 2.47.967 4.37l-2.933-1.655 1.967-2.715Z" fill="#fff"/><path fill-rule="evenodd" clip-rule="evenodd" d="M96.677 34.97c.53 1.345 1.043 2.47.967 4.371l-2.933-1.656 1.966-2.715ZM84.508 41.89c.087-.055 7.167-2.267 7.19-2.262l4.202 2.75c-1.157.952-3.933 3.064-5.85 2.19l-5.542-2.678ZM14.427 53.115c-6.892-12.134 26.176-11.437 31.7-11.328 7.222.142 14.266.717 21.458.859 2.454.049 8.966-.357 10.725.22 1.984.653 6.407 2.167 7.838 3.154-10.798 2.305-26.925.63-38.558.75-6.12.062-12.515.388-18.354 1.348-11.035 1.816-12.84 4.456-14.809 4.997ZM98.917 49.816c.735-.478 1.351-1.097 2.074-1.48.515.821.468 1.93.351 2.958-.582.011-1.909-1-2.425-1.478ZM17.954 57.496c2.423-2.8 14.069-3.81 18.66-4.005 17.128-.733 39.68 2.575 54.975-1.02.96-.225 3.704-1.212 4.412-.984.576.185 2.727 2.149 3.092 2.595-2.28 3.096-16.977 3.873-19.84 3.979-15.893.587-29.324-1.645-45.557 1.387-3.571.667-6.129 1.454-9.383 2.597-1.678.59-5.248-3.455-6.36-4.55ZM80.508 65.329c8.447 0 15.197-.34 22.587-3.597.049 7.346-18.413 7.59-25.269 7.59-12.479.055-25.753-1.467-37.828.812-3.776.713-2.788.519-5.866-1.127-1.691-.904-3.352-1.855-4.954-2.902 6.124-3.077 44.703-.776 51.33-.776ZM16.378 66.838c-1.277-1.433-2.372-4.466-.975-6.508.695.325.25.093.744.564l1.567 1.37c.769.655 1.4 1.156 2.086 1.815l-3.422 2.759ZM19.746 70.998c.442-1.083 1.654-1.939 2.726-2.54 3.736-2.097 2.206-.086 10.044 3.35l-.983.604c-3.986 1.726-2.033.881-5.889 2.96-1.976-.802-4.259-3.433-5.898-4.374ZM20.463 81.79c-.894-1.033-1.557-1.576-2.243-3.215-.73-1.748-.436-2.997-.166-4.818l5.069 3.734c-1.034 1.417-1.596 2.367-2.66 4.298Z" fill="#00AEF0"/></svg>