<svg width="120" height="120" fill="none" xmlns="http://www.w3.org/2000/svg"><path fill="#8B3FFD" d="M0 0h120v120H0z"/><path fill-rule="evenodd" clip-rule="evenodd" d="M102 60c0 16.569-13.163 30-29.4 30-13.531 0-24.927-9.328-28.35-22.025V83.57H32.7l-14.7-45h26.25v13.455C47.673 39.328 59.069 30 72.6 30 88.837 30 102 43.431 102 60Zm-18.9 0c0-5.917-4.701-10.714-10.5-10.714S62.1 54.083 62.1 60c0 5.917 4.701 10.714 10.5 10.714S83.1 65.917 83.1 60Z" fill="#fff"/><path fill="#8B3FFD" d="M0 0h120v120H0z"/><path fill-rule="evenodd" clip-rule="evenodd" d="M102 60c0 16.569-13.163 30-29.4 30-13.531 0-24.927-9.328-28.35-22.025V83.57H32.7l-14.7-45h26.25v13.455C47.673 39.328 59.069 30 72.6 30 88.837 30 102 43.431 102 60Zm-18.9 0c0-5.917-4.701-10.714-10.5-10.714S62.1 54.083 62.1 60c0 5.917 4.701 10.714 10.5 10.714S83.1 65.917 83.1 60Z" fill="#fff"/></svg>