<svg width="120" height="120" fill="none" xmlns="http://www.w3.org/2000/svg"><path fill-rule="evenodd" clip-rule="evenodd" d="M12.08 58.374c26.312-32.487 62.443-46.979 95.651 1.617l.194-48.271-95.805-.325-.04 46.979Z" fill="#201501"/><path fill-rule="evenodd" clip-rule="evenodd" d="M12.131 75.138c5.897-3.484 6.891-7.293 20.417-13.706 23.09-10.95 45.986-7.844 66.122 6.424 3.449 2.444 5.749 5.24 9.058 7.342.003-9.094-1.079-9.427-5.07-14.217-3.04-3.648-6.613-6.57-10.74-9.467C67.984 34.71 38.105 39.13 18.241 60.075c-5.103 5.381-6.349 5.302-6.11 15.063ZM12.084 100.313l-.038 7.855c10.444.462 90.558.797 95.909-.285l-.042-7.341c-18.643-7.068-77.874-7.717-95.829-.229Z" fill="#FF0300"/><path fill-rule="evenodd" clip-rule="evenodd" d="m12.084 83.546.006 8.08c3.264-.765 6.982-2.815 10.535-4.028 46.505-15.874 81.037 3.44 85.114 3.76l-.029-7.565C84.221 65.087 49.214 63.5 21.896 77.478c-3.661 1.874-6.876 4.61-9.812 6.068Z" fill="#FF0300"/></svg>