<svg width="120" height="120" fill="none" xmlns="http://www.w3.org/2000/svg"><path d="M120 0H0v120h120V0Z" fill="#E1E1E2"/><path fill-rule="evenodd" clip-rule="evenodd" d="M27.574 52.795c-.242 7.073-.477 11.543 3.677 15.779 4.098 4.179 7.396 4.708 14.807 4.709 5.186 0 14.448.52 19.113-.41 4.846-.968 9.388-4.372 10.397-8.78l-37.27-.06.068-24.95 37.377.034c-.867-4.896-5.688-8.607-10.948-9.536-4.898-.865-14.565-.31-19.982-.312-7.322-.003-11.225 1.618-14.533 5.762-3.807 4.77-2.473 11.02-2.706 17.764Z" fill="url(#a)"/><path fill-rule="evenodd" clip-rule="evenodd" d="M92.424 64.458c-.152-7.066-.307-10.334-4.498-13.957-4.482-3.873-14.731-4.004-14.731-4.004-8.158 0-20.78-.144-24.267 3.688-1.207 1.07-3.404 3.566-3.622 5.76l36.61.003-.006 8.6.008 16.325-36.835.011c.673 4.228 4.483 7.502 8.11 8.798 4.41 1.575 11.06 1.04 16.019 1.04 5.264 0 10.843.591 15.314-1.489 3.553-1.653 6.665-4.975 7.664-9.613.585-3.763.315-11.071.234-15.162Z" fill="url(#b)"/><defs><linearGradient id="a" x1="56.425" y1="72.996" x2="46.78" y2="29.528" gradientUnits="userSpaceOnUse"><stop stop-color="#EF4C3D"/><stop offset="1" stop-color="#D91E22"/></linearGradient><linearGradient id="b" x1="72.882" y1="90.49" x2="64.758" y2="46.816" gradientUnits="userSpaceOnUse"><stop stop-color="#22B36E"/><stop offset="1" stop-color="#047E76"/></linearGradient></defs></svg>