<svg width="120" height="120" fill="none" xmlns="http://www.w3.org/2000/svg"><path fill-rule="evenodd" clip-rule="evenodd" d="M112.477 108V12H7.522v96h104.955Z" fill="#7E1415"/><path fill-rule="evenodd" clip-rule="evenodd" d="m66.39 43.082-.204-.068c-.16-1.133.15-6.75-.08-7.178-.176-.082-4.473-.094-4.742-.012a.262.262 0 0 0-.016.04c-.063.225-.034.205-.035.717 0 .864.07 5.259-.055 5.399-.105.116-2.263.051-2.33.04-.19-.919.125-5.564-.076-6.272l-4.79.023-.024 7.167c-.326.207-1.994.754-3.164 1.467-4.212 2.565-7.92 6.513-9.067 11.466-.058.25-.168.474-.207.713-.227 1.398-.486 1.836-.372 3.43l17.66.007c.078-.993.01-7.675.009-9.238v-1.565c-.003-1.636-.264-1.513 1.19-1.51.368 0 .861-.045 1.162.055.23.809-.154 11.952.087 12.203.015.007.039-.002.048.017.03.06.957.037 1.021.037l1.102.001c.734 0 1.468-.003 2.203-.001 1.487.004 2.976.002 4.463 0 2.962-.002 5.993.064 8.946-.01.032-.698-.075-1.103-.184-1.696-.184-1.011-.167-1.311-.498-2.276-.067-.195-.139-.52-.197-.736a8.154 8.154 0 0 0-.49-1.368c-.43-.905-.553-1.433-1.214-2.5-.495-.8-.98-1.563-1.499-2.21-2.462-3.07-5.097-4.826-8.648-6.142Zm12.622 20.084-37.776-.012c-.098.91.457 2.682.766 3.613 1.832 5.516 5.318 9.36 10.676 11.766 6.405 2.876 15.154 1.496 20.295-3.502 2.794-2.717 4.971-6.09 5.726-9.976.07-.361.378-1.54.313-1.889Zm-8.118 5.516-21.561-.008c.033.387.637.955.874 1.203 1.352 1.417 1.641 1.65 3.362 2.727 3.496 2.186 9.46 2.271 13.048.012 1.914-1.204 2.654-1.786 4.096-3.552.13-.158.15-.177.181-.382Zm-4.708-14.19 5.467.03c-.058-.632-1.916-2.743-2.336-3.115-1.753-1.555-1.312-1.042-2.69-2.008-.166-.117-.173-.195-.413-.198-.11.406-.058 4.595-.028 5.291Zm-17.649.023 5.47.007.014-5.264c-.186.018-.753.33-.924.45-1.047.735-1.278.835-2.241 1.757-.441.422-.788.843-1.255 1.413-.214.26-.39.462-.56.775-.182.331-.448.56-.504.862Zm10.315-18.767c.201.708-.114 5.353.076 6.272.067.011 2.225.076 2.33-.04.126-.14.054-4.535.056-5.4 0-.511-.029-.491.034-.716a.253.253 0 0 1 .016-.04c.269-.082 4.566-.07 4.741.012.232.427-.08 6.045.08 7.178l.204.068c-.251-.515-.133-2.88-.133-3.603l-.02-3.585c-.124-.417-4.91-.155-4.932-.14-.206.149-.098 2.873-.098 3.088.001 1.008.023 2.056-.017 3.06-.274.075-1.893.08-2.18.015-.107-1.75.08-4.26.004-5.864-.015-.307.047-.236-.161-.304Z" fill="#F8F6F7"/></svg>