<svg width="120" height="120" fill="none" xmlns="http://www.w3.org/2000/svg"><path fill-rule="evenodd" clip-rule="evenodd" d="m27.749 38.713 9.067 9.471 2.265-2.779c.774-.975 1.773-1.573 2.4-2.687l-4.473-4.602c2.938-3.624 11.086-7.9 16.112-9.432 23.542-7.177 43.784 10.366 38.175 33.744-3.14 13.088-12.882 22.714-23.754 27.458-9.473 4.134-21.756 4.365-30.839-1.532-1.954-1.27-5.618-4.223-6.644-6.224.65-.948 4.305-3.336 5.915-4.848-.346-.877-1.099-1.724-1.575-2.636-.447-.858-.905-2.092-1.375-2.847-.707.258-2.427 1.732-3.057 2.217l-9.1 7.074c.607 1.627 2.073 3.84 3.013 5.123 1.935 2.645 2.206 2.503 3.87 4.352 2.186 2.428 6.876 5.1 10.168 6.492 8.638 3.654 19.498 3.235 28.365.213 14.911-5.08 28.142-18.19 31.913-34.7 6.765-29.62-20.652-51.465-51.627-38.347-7.602 3.22-14.885 9.363-18.82 14.49Z" fill="#890A04"/><path fill-rule="evenodd" clip-rule="evenodd" d="m81.07 63.205-37.102.004c-.145 1.847 1.255 5.737 2.543 6.268l23.666.003c-1.067 1.896-4.957 4.553-7.736 5.602-12.554 4.74-23.324-4.124-20.568-16.14 1.528-6.66 6.8-11.939 12.632-14.138 5.29-1.994 11.27-1.58 15.799 1.944.992.772 2.49 2.469 2.945 3.727-6.45.253-14.674.04-21.469.023-2.201-.006-2.39-.352-3.467.974-.823 1.014-3.043 3.54-3.298 5.32l37.098-.002c.806-5.685-2.777-11.981-6.937-15.55-4.02-3.45-10.894-5.278-17.708-4.006-11.13 2.078-20.747 11.333-22.66 22.466C32.436 73.5 42.495 83.684 55.79 83.169c6.534-.253 12.398-3.29 16.127-6.402 3.4-2.837 8.682-9.135 9.152-13.562Z" fill="#890A04"/><path fill-rule="evenodd" clip-rule="evenodd" d="M6.045 19.954v9.716l5.663.023c.227-3.329-.279-6.974.326-10.067l.212.367c1.584-4.582 4.643-7.991 10.447-8.032l56.064-.006c6.179.005 12.373-.043 18.55.007 5.528.045 9.313 3.547 10.461 8.289.697 2.877.201 31.378.283 37.002l.003-.032c1.967-.017 3.984-.914 5.9-1.049 0-7.611 1.085-33.657-.834-39.202a17.103 17.103 0 0 0-1.004-2.343c-.818-1.584-1.792-2.79-2.87-3.872-3.915-3.926-6.693-3.715-8.551-4.538-2.017-1.211-75.715-1.213-82.393.296C7.746 8.9 6.392 19.373 6.045 19.955Z" fill="#FED101"/><path fill-rule="evenodd" clip-rule="evenodd" d="M104.651 105.303c-3.352 2.044-3.542 2.738-8.4 2.735l-55.22-.011c-5.44 0-16.311.35-21.522-.415 2.091 1.478 31.817-.014 35.826.698-.35.999-3.292 4.583-3.731 5.644h18.498c.242-.535 1.44-.491 2.101-.672 2.555-.701 13.759-3.524 14.774-3.422.294.684.444 1.343.723 2.089.32.857.707 1.28.86 2.005h10.954c.53-.245 1.77-.354 2.533-.541 4.684-1.146 9.547-5.306 10.859-9.945l-8.255 1.835Z" fill="#F8A91A"/><path fill-rule="evenodd" clip-rule="evenodd" d="M6.773 102.121c-.041 2.654 3.335 6.605 4.744 7.841 4.27 3.746 7.65 3.406 8.784 3.992h31.303c.439-1.061 3.38-4.645 3.732-5.644-4.01-.711-33.736.78-35.827-.698-1.902-.737-3.117-1.326-4.455-2.67a10.13 10.13 0 0 1-1.566-2.015c-.367-.605-.863-1.991-1.114-2.317-1-.885-.376-.815-.849-1.933-1.545.142-3.407 1.442-4.838 1.73l.086 1.714Z" fill="#FED101"/><path fill-rule="evenodd" clip-rule="evenodd" d="m104.65 105.303 8.256-1.835c.25-.439.366-.93.498-1.474l.303-1.175c.673-1.64.247-31.025.247-35.385-1.132-.016-2.237.08-3.285.083-.981.004.141-.005-.977-.38-.333-.11-1.128-.224-1.522-.301l-.116-7.615-.003.032c-.17 12.657-.026 25.83-.012 38.576.008 6.527-1.256 6.271-3.389 9.474ZM6.045 52.83v18.972c1.338.234 2.066 1.024 3.047 1.772l2.501 2.152c.7.748.382 8.049.184 8.926l.033 5.486.171 8.026-.016-47.65-.121-.086-.04 4.335C9.905 54.53 7.83 53.1 6.044 52.83Z" fill="#F4851F"/><path fill-rule="evenodd" clip-rule="evenodd" d="M6.046 29.67v8.98c1.345.308 2.306.796 3.42 1.322.658.31.961.511 1.455.838.91.601.77.333.95 1.71l.096-.196c.005-3.731-.01-7.466-.006-11.198.005-3.702-.191-7.558.285-11.133l-.212-.368c-.605 3.093-.099 6.739-.326 10.067l-5.663-.022Z" fill="#F8A91A"/><path fill-rule="evenodd" clip-rule="evenodd" d="m6.045 83.347 5.732 1.305c.198-.877.516-8.178-.184-8.926l-2.501-2.152c-.98-.748-1.71-1.538-3.047-1.772v11.545Z" fill="#F4851F"/><path fill-rule="evenodd" clip-rule="evenodd" d="M6.046 100.029c.366.624.224.839.433 1.482l.294.61-.086-1.714c1.43-.288 3.293-1.587 4.838-1.73.473 1.118-.15 1.048.849 1.933l-.393-2.446-.17-8.026c-1.748-.366-4.09-1.225-5.766-1.358v11.249Z" fill="#FDBE0F"/><path fill-rule="evenodd" clip-rule="evenodd" d="m108.054 57.221.116 7.615c.395.077 1.189.19 1.522.302 1.118.374-.004.383.977.38 1.048-.004 2.154-.1 3.285-.084v-9.262c-1.916.135-3.933 1.032-5.9 1.05Z" fill="#F8A91A"/><path fill-rule="evenodd" clip-rule="evenodd" d="M70.102 113.954H88.56c-.152-.725-.54-1.148-.86-2.005-.278-.746-.429-1.405-.722-2.089-1.015-.102-12.22 2.721-14.774 3.422-.66.181-1.86.137-2.1.672Z" fill="#FED101"/><path fill-rule="evenodd" clip-rule="evenodd" d="m6.045 49.882 5.9-.63-.101 1.176.12.087.003-8.19-.096.196c-1.742.504-3.974.196-5.825.196v7.166Z" fill="#F4851F"/><path fill-rule="evenodd" clip-rule="evenodd" d="M6.045 88.78c1.675.133 4.018.992 5.765 1.358l-.034-5.486-5.73-1.305v5.433Z" fill="#F8A91A"/><path fill-rule="evenodd" clip-rule="evenodd" d="M6.045 52.83c1.786.27 3.861 1.7 5.758 1.933l.04-4.335-5.797-.507v2.91Z" fill="#FDBE0F"/><path fill-rule="evenodd" clip-rule="evenodd" d="M6.045 42.717c1.852 0 4.084.308 5.826-.197-.18-1.377-.04-1.109-.95-1.71-.494-.327-.798-.527-1.456-.838-1.113-.526-2.075-1.014-3.42-1.322v4.067ZM87.05 109.454l4.435-.94c.608-.22.357-.164.54-.294l-5.07-.033.094 1.267ZM6.045 49.882v.039l5.799.507.101-1.177-5.9.631Z" fill="#F4851F"/></svg>