<svg width="120" height="120" fill="none" xmlns="http://www.w3.org/2000/svg"><path fill-rule="evenodd" clip-rule="evenodd" d="M44.743 54.837c0 14.573-1.653 9.584 6.541 17.848 1.486 1.498 1.643 2.566 4.318 2.588 2.382.02 4.794-.044 7.186-.026 3.409.025 3.242.448 5.07-1.429 8.024-8.243 7.406-5.094 7.406-13.82 0-8.692.687-5.475-7.212-13.613-2.003-2.063-1.55-1.682-5.265-1.654-11.098.085-7.636-1.373-14.95 5.886-1.668 1.655-3.094 2.457-3.094 4.22Zm-2.64 8.622c.403-5.674-.336-34.912.362-36.84 1.097-3.027 5.465-4.12 7.887-1.759 1.325-.982 7.464-7.005 8.002-8.302-1.374-1.534-5.11-3.413-7.631-4.03-9.417-2.31-19.402 4.655-19.96 14.554-.383 6.787-.382 17.006-.074 23.816.077 1.725-.162 1.044.644 2.039l10.77 10.522Zm2.67-13.748c1.777-1.148 13.714-13.473 16.298-16.04 4.919-4.887 9.154-11.107 13.569-9.824 3.024.879 2.174 2.135 3.625 4.54l11.116-.011c.27-7.308-4.876-12.92-9.791-14.94-3.086-1.269-6.806-1.712-10.263-.843-7.238 1.82-14.48 10.977-20.182 16.697a192.046 192.046 0 0 1-2.994 2.957c-1.852 1.784-1.445 1.822-1.413 5.116.04 4.109-.068 8.246.034 12.349ZM41.89 91.61l-11.128-.005c-1.184 6.734 5.305 12.944 9.383 14.823 7.035 3.241 14.512.122 18.435-3.378 4.927-4.396 10.44-10.555 15.474-15.505 1.672-1.644 1.235-1.828 1.213-4.905-.03-4.147.073-8.337-.02-12.476-1.891 1.36-20.71 20.683-24.212 24.149-3.098 3.066-7.427 3.401-9.145-2.703Zm7.953-16.475c-1.09-1.872-14.169-14.491-16.026-16.35-2.71-2.715-5.16-5.312-7.942-7.94-3.904-3.685-3.033-7.513 2.4-9.11l.158-11.37c-11.288.33-18.459 10.654-15.848 20.309 1.049 3.877 2.5 5.425 4.595 7.67 4.964 5.315 10.468 10.249 15.258 15.319 1.758 1.86 1.656 1.498 4.923 1.464 4.142-.044 8.34-.037 12.482.008Zm41.776 2.984-.009 11.095c4.538 1.07 10.465-2.63 13.555-7.056 3.142-4.502 3.484-11.566.827-16.555-2.248-4.221-11.099-12.348-15.25-16.493-5.713-5.706-2.129-4.434-18.83-4.375l-1.74.013 24.1 24.257c3.306 3.297 3.299 7.558-2.653 9.114ZM69.696 95.133c-1.266 1.06-7.57 7.149-8.05 8.298.583.536 2.282 1.769 3.331 2.375 1.302.752 2.67 1.273 4.296 1.672 9.393 2.308 19.53-4.605 19.996-14.549.325-6.906.378-16.945.05-23.829-.1-2.085-.975-2.405-2.211-3.651-1.107-1.117-1.917-1.917-2.98-2.976-1.742-1.735-4.418-4.772-6.155-6.033-.115 4.07.34 34.91-.408 36.97-1.069 2.943-5.462 4.213-7.87 1.723Zm-6.132-17.226c-3.736-.074-35.068.342-36.931-.367-3.006-1.145-4.04-5.234-1.759-7.903-1-1.276-7.024-7.457-8.255-7.953-9.164 9.68-2.93 26.662 10.413 27.55 6.683.444 17.094.356 23.868.084 2.365-.095 4.13-2.685 6.625-5.191 1.585-1.592 5.019-4.658 6.039-6.22Zm-7.089-35.826c3.882.106 35.077-.32 36.936.352 3.073 1.11 4.095 5.49 1.727 7.917.986 1.33 2.574 2.708 3.863 4 1.246 1.249 2.842 3.338 4.435 4.002 1.844-1.894 3.509-5.162 4.129-7.966 1.498-6.77-1.45-12.957-6.768-16.878-2.635-1.942-6.066-2.802-9.826-2.802H69.132c-1.979 0-1.317-.088-3.628 2.237l-9.029 9.138Zm-3.41 16.328c0 4.44-.409 4.174 1.617 6.118 1.696 1.629 2.204 3.19 7.327 2.406 1.738-.266 4.594-3.408 4.864-4.561.137-.589.143-4.161.016-4.762-.208-.985-2.851-4.566-5.301-4.566-5.046 0-4.115-.35-6.504 2.038-1.069 1.068-2.019 1.39-2.019 3.328Zm10.826-5.821 3.473 3.475c1.964-.552 3.88-1.78 6.006-2.164-.763-1.887-5.424-6.526-7.268-7.266l-2.21 5.955Zm.06 14.791c.55 1.959 1.816 4.048 2.169 5.991 1.982-.82 3.946-3.34 5.533-4.876.25-.24.618-.567.795-.792 1.01-1.284.355-.203.923-1.605-2.026-.355-4.02-1.611-5.986-2.142L63.95 67.38Zm-17.278-1.258c.664 1.56 5.414 6.517 6.974 7.026 1.058-1.727 1.97-4.062 2.446-5.836l-3.434-3.382c-1.885.535-3.994 1.818-5.986 2.192Zm-.701-1.18c1.387-.416 5.528-1.428 5.89-2.958.26-1.102.52-4.056-1.144-5.062l-4.755-1.874.009 9.894Zm9.102 9.126 9.865-.009c-.346-1.155-.75-2.041-1.178-3.103-.059-.147-.542-1.41-.546-1.416-.49-.958-.298-.713-1.23-1.39-1.194-.264-4.044-.525-5.042 1.151l-1.869 4.767Zm2.94-22.218c4.532-.004 4.189.366 5.08-1.115l1.853-4.806-9.873.009c.423 1.322.638 1.839 1.171 3.092 1.33 3.126 1.02 2.833 1.77 2.82Zm10.148 6.163c.002 4.268-.398 4.119 1.141 5.047.337.203 1.014.437 1.38.588 1.214.502 2.008.856 3.386 1.276l-.009-9.865-4.486 1.747c-1.733.903-.692-.042-1.412 1.207ZM46.688 53.89c2.079.368 4.002 1.626 5.955 2.159l3.432-3.381c-.48-1.768-1.358-4.033-2.428-5.818l-6.959 7.04Z" fill="#005796"/></svg>