<svg width="120" height="120" fill="none" xmlns="http://www.w3.org/2000/svg"><path fill-rule="evenodd" clip-rule="evenodd" d="M30 120h60c16.523 0 30-13.477 30-30V30c0-16.523-13.477-30-30-30H30C13.477 0 0 13.477 0 30v60c0 16.523 13.477 30 30 30Z" fill="#006648"/><path fill-rule="evenodd" clip-rule="evenodd" d="M32.597 87.908c.488.224.773.603 1.13 1.032l2.593 2.36c11.241 9.007 26.676 11.432 40.17 5.574 4.056-1.761 8.796-4.78 11.892-7.865l.02-4.498c-1.245.643-3.141 2.528-4.002 2.86-.892-.727-2.913-2.513-3.846-2.867l-.113 5.171-4.004-.032.004-7.216c-1.393.648-2.621 2.39-4.073 3.075L68.5 82.387l-.053 7.293-3.965-.067-.012-9.264c-1.006.42-2.754 2.385-3.898 3.275-1.176-.842-3.089-2.917-4.105-3.313l.002 9.386-3.97.02.01-11.422c-1.138.391-2.22 2.21-3.939 3.452-.817-.683-3.497-3.244-4.157-3.451l.077 11.425-3.939-.015V76.19c-.835.284-2.472 2.699-3.982 3.685-.663-.502-3.673-3.264-3.811-3.682-.455.346-.38-.57-.384.571l.223 11.144Z" fill="#FBFAF8"/><path fill-rule="evenodd" clip-rule="evenodd" d="M53.948 22.15c-8.457 1.448-15.59 5.505-21.124 11.055-1.396 1.4-3.477 3.953-4.732 5.936-3.04 4.808-5.101 9.687-5.996 15.56-.737 4.842-.63 16.565 2.294 20.551 7.103-.1 13.993-2.57 19.288-6.806l6.8-6.735c.269-.3.228-.216.454-.494 1.698-2.091 3.774-5.025 5.05-7.334.976-1.766 4.642-8.775 4.706-10.628.515-.557.753-1.64.969-2.38.81-2.789 1.42-5.031 1.896-7.952l1.607-9.878c.136-.915-.06-.98.572-1.16l-1.645-.12c-3.69-.271-6.418-.252-10.14.385ZM99.272 70.33c.444-.927.76-3.175.741-4.359-11.284 1.296-24.024 3.559-35.61 5.096-3.366.446-6.815 1.138-10.169 1.451-.932.088-.99.126-1.314.436l.441.149c.052.007.108.017.168.021l22.494-1.593c3.917-.276 7.871-.527 11.787-.856l10.874-.794c.656.112.468-.217.588.449ZM100.394 59.845c-.023-1.143.012-3.951-.393-4.778l.04.741c-1.248.724-8.392 2.542-10.28 3.09l-25.955 7.568c-.878.246-1.788.539-2.65.787-1.21.35-1.912.122-2.088 1.385l41.326-8.793ZM100.269 64.905l.1-4.03c-3.19.932-7.165 1.599-10.52 2.309l-29.125 6.282c-.28.058-1.06.176-1.277.244-.888.277-.581.035-.75.988l41.572-5.793ZM100.003 54.877l-.96-4.37c.171.892.269.498-2.03 1.358l-7.644 2.837c-3.31 1.262-6.801 2.51-10.162 3.738-3.374 1.232-6.696 2.547-10.154 3.753l-7.507 2.782c-1.182.441-1.942.302-2.163 1.606 4.634-1.087 15.18-4.378 20.346-5.888 2.482-.726 19.26-5.814 20.274-5.816ZM97.906 74.783l1.153-3.821c-15.084 1.283-30.7 2.156-45.912 3.308l-3.172.498 47.931.015ZM98.993 50.155l-1.347-3.84c-.56.763-28.137 12.819-33.495 15.36l-3.555 1.585c-.756.358-.74.259-.867 1.169 1.468-.361 3.529-1.23 4.995-1.793 5.237-2.012 33.558-12.539 34.269-12.48ZM97.352 45.573l-1.737-3.657c.149.65-.615.697-1.954 1.453-5.132 2.897-10.862 5.729-15.952 8.62l-15.83 8.555c-.868.479-1.686.613-1.798 1.678.876-.175 17.25-7.741 18.572-8.333 2.336-1.045 17.66-8.243 18.699-8.316ZM95.301 41.354c-.51-1.018-1.193-2.28-1.982-3.062-.533.742-22.082 14.105-24.917 16.012l-7.353 4.65c-.638.43-.496.2-.627 1.055.883-.252 16.222-8.7 17.327-9.314 1.076-.598 16.746-9.14 17.552-9.34ZM92.776 37.58c-.388-.81-1.526-2.145-2.096-2.772-.308.692-6.453 5.037-7.438 5.76-5.96 4.378-15.052 10.921-20.804 15.393-.716.556-1.478.874-1.649 1.781.978-.347 14.53-9.198 16.004-10.096 2.684-1.638 5.265-3.334 7.91-5.044 1.384-.896 2.577-1.625 3.961-2.515 1.07-.688 2.99-2.03 4.112-2.506ZM90.159 34.275l-2.367-2.436c-.06.606-.204.618-1.416 1.575-.599.472-1.16.956-1.777 1.466l-5.01 4.322c-1.862 1.439-5.079 4.506-6.791 5.783l-9.347 7.99c-.956.806-2.118 1.647-2.296 2.475 1.146-.61 5.728-4.16 7.181-5.212C70.228 48.87 89.11 34.593 90.16 34.276Z" fill="#8C7148"/><path fill-rule="evenodd" clip-rule="evenodd" d="m32.597 87.908-.223-11.144c.005-1.14-.071-.225.384-.57.138.417 3.148 3.18 3.81 3.681 1.51-.986 3.148-3.4 3.983-3.685v13.516l3.94.016-.078-11.426c.934.293 1.316 1.014 2.063 1.701l2.094 1.75c1.72-1.241 2.801-3.061 3.939-3.452l-.01 11.423 3.97-.021-.002-9.385c.783.304 2.721 2.23 3.548 2.914l.556.398c.363-.281.629-.449.963-.757.36-.333.484-.546.856-.854 1.14-.94 1.296-1.336 2.08-1.664l.012 9.264 3.966.067.052-7.292 3.868 3.114c.863-.407 2.44-1.928 3.427-2.657.608-.45.024-.128.646-.418l-.004 7.216 4.004.033.113-5.172c.739.28 1.3.822 1.964 1.364.667.546 1.245.984 1.882 1.504.86-.333 2.757-2.218 4.002-2.86l-.02 4.497c1.34-.686 4.124-4.427 5.19-5.915 1.567-2.19 2.713-4.707 3.938-7.322l-57.132.11-15.85-.047c1.007 2.363 2.159 4.538 3.435 6.483.904 1.379 3.49 4.994 4.634 5.59Z" fill="url(#a)"/><path fill-rule="evenodd" clip-rule="evenodd" d="m87.302 31.409-2.398-1.868c-.555 1.067-6.163 5.902-7.212 7.193-1.025 1.262-3.23 3.32-4.456 4.497-.85.818-11.483 10.851-11.682 11.864 1.17-.705 13.615-11.737 15.896-13.552l8.833-7.549c.325-.262.254-.425 1.019-.585Z" fill="#8C7148"/><path fill-rule="evenodd" clip-rule="evenodd" d="M84.15 29.002c-.492-.581-1.298-1.11-2.09-1.439-1.96 2.553-7.902 8.66-10.07 11.473-.44.57-.814.793-1.27 1.395l-3.855 4.333c-.77.893-1.64 2.046-2.476 2.86-.488.473-2.228 2.395-2.486 3.055.604-.287 9.612-9.428 11.106-10.817.992-.923 1.853-1.77 2.807-2.718 1.208-1.203 7.487-7.72 8.334-8.142Z" fill="#977E59"/><path fill-rule="evenodd" clip-rule="evenodd" d="m81.072 26.928-1.944-1.043c-.404.901-13.092 17.337-14.583 19.232-.703.894-1.495 1.9-2.098 2.918l18.11-20.438.514-.67ZM78.238 25.358l-1.769-.872c-.235 1.104-8.414 13.119-9.746 15.186-1.067 1.655-2.322 3.366-3.232 5.005.267-.52 1.29-1.65 1.763-2.288.644-.868 1.28-1.682 1.899-2.478L77.76 25.95l.478-.593Z" fill="#A38C6B"/><path fill-rule="evenodd" clip-rule="evenodd" d="M43.678 68.446c-7.371 5.897-9.432 2.894-19.11 6.332-.278.278-.353-.424-.178.474l.139.583 15.849.047 57.132-.11.396-.99-47.93-.014 3.17-.498c15.213-1.152 30.83-2.025 45.913-3.308l.213-.632c-.12-.666.069-.337-.587-.449l-10.874.794c-3.917.329-7.87.58-11.788.856L53.53 73.124c-.06-.004-.116-.014-.168-.021l-.44-.15c.324-.309.381-.347 1.313-.434 3.354-.314 6.804-1.006 10.17-1.452 11.585-1.537 24.326-3.8 35.609-5.096.076-.172.182-.674.256-1.066l-41.572 5.794c.169-.954-.138-.711.75-.988.218-.068.998-.186 1.278-.244l29.123-6.283c3.356-.71 7.331-1.377 10.522-2.308l.024-1.03-41.326 8.792c.176-1.263.878-1.035 2.088-1.384.862-.249 1.772-.542 2.65-.787l25.956-7.568c1.887-.549 9.031-2.367 10.279-3.09l-.04-.741.003-.19c-1.015.001-17.793 5.09-20.275 5.815-5.166 1.51-15.712 4.801-20.346 5.888.222-1.304.981-1.164 2.164-1.606l7.506-2.781c3.458-1.206 6.78-2.521 10.154-3.754 3.36-1.227 6.853-2.475 10.163-3.738l7.643-2.837c2.299-.86 2.201-.466 2.03-1.358l-.05-.351c-.71-.058-29.031 10.468-34.27 12.48-1.465.563-3.526 1.432-4.994 1.794.127-.91.111-.811.867-1.17l3.555-1.584c5.358-2.542 32.936-14.597 33.495-15.361l-.294-.741c-1.038.073-16.363 7.27-18.698 8.315-1.323.592-17.697 8.159-18.573 8.334.113-1.066.93-1.2 1.8-1.679l15.828-8.554c5.09-2.892 10.82-5.724 15.952-8.62 1.34-.756 2.103-.804 1.954-1.454l-.313-.561c-.807.2-16.477 8.743-17.553 9.34-1.105.615-16.443 9.062-17.327 9.315.13-.856-.01-.625.627-1.054l7.354-4.652c2.834-1.906 24.383-15.27 24.916-16.011-.24-.504-.062-.333-.543-.712-1.121.476-3.041 1.819-4.112 2.507-1.384.89-2.577 1.618-3.962 2.514-2.644 1.71-5.225 3.407-7.91 5.044-1.472.898-15.025 9.75-16.003 10.097.171-.908.933-1.226 1.649-1.782 5.752-4.472 14.844-11.015 20.804-15.392.985-.724 7.13-5.068 7.438-5.76l-.52-.533c-1.05.316-19.932 14.594-21.824 15.963-1.453 1.051-6.035 4.602-7.18 5.211.177-.828 1.339-1.668 2.295-2.475l9.347-7.99c1.712-1.276 4.93-4.344 6.791-5.783l5.01-4.322c.617-.51 1.178-.994 1.777-1.466 1.212-.956 1.357-.968 1.416-1.574l-.665-.567s-.349.222-.844.722l-8.832 7.548C75.169 41.36 62.725 52.39 61.554 53.095c.199-1.013 10.832-11.046 11.683-11.863 1.224-1.177 3.43-3.235 4.455-4.497 1.049-1.292 6.658-6.127 7.212-7.194l-.754-.54c-.847.423-7.126 6.94-8.334 8.143-.954.949-1.815 1.796-2.807 2.718-1.494 1.39-10.502 10.53-11.106 10.817.258-.66 1.998-2.581 2.486-3.055.837-.814 1.706-1.967 2.476-2.86l3.855-4.333c.456-.602.83-.825 1.27-1.395 2.168-2.813 8.11-8.92 10.07-11.473l-.988-.635c-.011.003-.003.003-.516.67L62.447 48.035c.603-1.018 1.395-2.024 2.098-2.918 1.491-1.895 14.18-18.33 14.583-19.232l-.619-.37c-.109-.055-.22-.148-.27-.157l-.479.592-10.607 13.96c-.619.798-1.255 1.611-1.9 2.48-.472.637-1.494 1.767-1.761 2.288.909-1.64 2.165-3.35 3.232-5.006 1.331-2.067 9.51-14.082 9.746-15.186-3.664-.903-6.698-1.896-10.738-2.6-.632.18-.436.245-.572 1.16-3.42 21.034-5.35 29.42-21.481 45.4Z" fill="#FBFAF8"/><defs><linearGradient id="a" x1="24.529" y1="82.747" x2="97.51" y2="82.747" gradientUnits="userSpaceOnUse"><stop stop-color="#A38C6B"/><stop offset="1" stop-color="#8C7148"/></linearGradient></defs></svg>