<svg width="120" height="120" fill="none" xmlns="http://www.w3.org/2000/svg"><path fill-rule="evenodd" clip-rule="evenodd" d="M36.809 50.28c-1.647.29-2.122 1.55-2.96 2.782-.272.4-.479.744-.76 1.151-1.012 1.46-2.048 3.161-3.04 4.656-.637.959-2.639 3.794-2.89 4.75-.576 2.19 1.404 4.179 3.612 3.79 1.055-.184 1.694-.779 2.216-1.602.498-.785 1.011-1.53 1.505-2.31l2.663-4.047c.153-.225.229-.4.378-.604l1.51-2.31c.412-.626 1.196-1.616 1.39-2.43.543-2.256-1.345-4.226-3.624-3.826Z" fill="#20D9BC"/><path fill-rule="evenodd" clip-rule="evenodd" d="M12.802 50.282c-.877.184-1.362.554-1.836 1.076-.482.53-.706 1.35-.708 2.275-.003 1.949 0 3.898 0 5.848 0 .55-.027 1.517-.035 2.516v1.043c.01.934.051 1.774.166 2.18.923 3.271 6.117 3.015 6.127-1.122.005-1.95 0-3.9 0-5.848 0-1.23.145-4.799-.118-5.745-.38-1.362-1.76-2.609-3.596-2.223ZM24.242 56.713c.222-.353.467-.416.807-1.183.75-1.691.177-3.138-.854-4.292-.531-.408-.946-.76-1.834-.94a3.804 3.804 0 0 0-2.38.284c-4.045 1.964-1.915 8.002 2.41 7.097 1.146-.24 1.61-.849 1.85-.966Z" fill="#2B2A29"/><path fill-rule="evenodd" clip-rule="evenodd" d="M40.531 59.954c-2.74.266-4.238 3.125-2.969 5.554a3.468 3.468 0 0 0 1.388 1.444c1.115.65 2.657.706 3.74.064.185-.11.42-.265.556-.367.142-.106.375-.37.495-.492.583-.594 1-1.701.889-2.853-.149-1.528-1.157-2.695-2.502-3.166a3.571 3.571 0 0 0-1.597-.184ZM24.195 51.238c1.031 1.154 1.605 2.6.854 4.292-.34.767-.585.83-.807 1.183.47.37 1.008.796 1.828.967 1.077.224 2.18-.01 3.027-.627a3.75 3.75 0 0 0 1.558-3.05c-.001-.805-.247-1.595-.636-2.128-.923-1.262-2.226-1.89-3.92-1.575-.43.08-.716.224-1.027.39l-.624.424c-.212.165.005.096-.253.124Z" fill="#20D9BC"/><path fill-rule="evenodd" clip-rule="evenodd" d="m49.247 60.868.002 6.715 1.226.002v-1.45c.001-.654-.098-1.017.452-1.017 1.188 0 2.24.111 3.063-1.01.185-.252.336-.592.397-.962.294-1.765-.967-2.892-2.631-2.887l-2.016-.009c-.122-.002-.42 0-.49.01 0 0-.003.183-.003.608Zm1.228 2.99c.035.052.018.119.388.126l1.373-.04c1.15-.235 1.25-1.787.433-2.33-.435-.29-1.242-.21-1.86-.21-.325 0-.332.033-.334.345-.003.233-.004.48-.004.717l.004 1.392ZM58.83 67.47c2.483-1.256 1.648-5.162-1.213-5.23-2.093-.05-3.327 1.886-2.74 3.674.538 1.64 2.488 2.296 3.952 1.556Zm-1.712-4.053c-.48.15-.716.296-.968.66-.788 1.143.233 2.987 1.82 2.535 2.12-.604 1.166-3.825-.852-3.195ZM66.069 66.378l-.81-.525c-.027.023-.36.477-.713.638-2.026.92-3.144-1.862-1.731-2.791 1.473-.969 2.221.346 2.435.371l.83-.48c.12-.356-.919-1.333-2.192-1.358-1.142-.022-1.927.542-2.372 1.175-.916 1.304-.502 3.474 1.141 4.136 1.264.51 3.376-.461 3.412-1.165ZM68.138 63.523v4.128c0-.007 1.106 0 1.106 0v-4.12l1.714-.049v-1.034h-1.086c-.684-.002-3.42 0-3.42 0s-.003.4 0 .615c.003.357-.032.406.27.42.45.019 1.416.04 1.416.04ZM57.18 55.868l.002.597.462-.013c-.01-.64-.036-3.424-.036-3.424l-.388.001-.043.61c-.373-.327-.845-.959-1.942-.592-1.628.545-1.529 2.917-.038 3.387.387.122.78.154 1.187.012.521-.181.647-.478.797-.577Zm-1.724-2.395c-.633.196-1.138.81-.904 1.656.307 1.114 1.824 1.338 2.436.32.604-1.004-.272-2.365-1.532-1.975Z" fill="#1D1E1A"/><path fill-rule="evenodd" clip-rule="evenodd" d="M50.307 56.425c.28.075 1.84.062 2.142-.008 1.114-.26 1.582-1.867.402-2.61-.58-.364-1.305-.218-2.019-.237l-.036-1.441 2.328-.007-.012-.46-2.794.002-.01 4.761Zm.497-.423c.806-.01 2.253.257 2.244-.983-.008-1.227-1.42-.968-2.221-.975l-.023 1.958ZM61.01 54.51l-1.939.008s.015-1.463 0-1.489l-.47-.002-.003 3.434.473.001v-1.48l1.922-.008.023 1.486h.477l-.02-3.43-.442.004-.02 1.477ZM62.43 56.44l.457.012v-1.584l1.624 1.588.646.005c-.177-.336-1.75-1.794-1.75-1.794l1.698-1.63s-.617.005-.605.001l-1.622 1.463.002-1.465-.43-.004-.02 3.409Z" fill="#1D1E1A"/><path d="M76.974 66.757v.894h-1.512v-.894c-1.22-.045-2.078-.346-2.58-.902-.503-.557-.753-1.253-.753-2.089 0-.88.262-1.585.786-2.117.525-.533 1.374-.822 2.547-.866v-.757h1.512v.757c1.212.044 2.07.342 2.575.894.506.55.758 1.25.758 2.094 0 .84-.252 1.535-.754 2.09-.504.551-1.363.851-2.579.896Zm0-1.289c.403 0 .75-.067 1.042-.202.29-.135.495-.316.617-.545.123-.227.183-.56.183-1.001 0-1.099-.614-1.65-1.842-1.65v3.398Zm-1.512 0v-3.397c-.651 0-1.12.144-1.41.433-.289.29-.432.726-.432 1.31 0 1.102.614 1.654 1.842 1.654Zm6.022-3.344h1.406v3.474l2.247-3.474h1.437v5.527h-1.406v-3.523l-2.278 3.523h-1.406v-5.526Zm6.524 0h1.46v2.024h2.108v-2.023h1.459v5.526h-1.46V65.33h-2.108v2.321h-1.459v-5.526Zm7.582 1.704-1.32-.234c.149-.54.406-.939.77-1.198s.905-.389 1.622-.389c.652 0 1.138.077 1.457.231.318.154.544.35.673.587.13.238.195.673.195 1.309l-.021 1.703c0 .485.023.843.07 1.074.046.23.132.478.26.74h-1.448a5.414 5.414 0 0 1-.14-.426 1.764 1.764 0 0 0-.052-.17 2.613 2.613 0 0 1-.799.55 2.263 2.263 0 0 1-.906.185c-.566 0-1.014-.155-1.34-.464-.327-.307-.49-.697-.49-1.17 0-.31.074-.589.223-.833.15-.244.357-.432.627-.561.268-.13.655-.243 1.16-.34.682-.129 1.156-.25 1.419-.36v-.147c0-.284-.07-.486-.208-.609-.14-.12-.403-.18-.788-.18-.26 0-.463.051-.609.156-.147.103-.264.285-.355.546Zm1.96 1.182a9.252 9.252 0 0 1-.89.224c-.404.087-.67.172-.794.254-.19.136-.286.307-.286.515 0 .205.076.381.229.53a.798.798 0 0 0 .582.224c.263 0 .515-.087.754-.26a.921.921 0 0 0 .348-.484c.038-.124.057-.362.057-.711v-.291Zm2.813-2.886h1.459v2.024h2.108v-2.023h1.459v5.526h-1.459V65.33h-2.108v2.321h-1.459v-5.526Zm11.309 1.64-1.438.256c-.048-.286-.157-.5-.33-.646-.172-.144-.394-.217-.667-.217-.364 0-.655.126-.872.378-.216.252-.324.673-.324 1.264 0 .657.11 1.12.33 1.392.22.271.515.406.884.406.277 0 .504-.08.68-.238.177-.158.301-.43.374-.816l1.438.244c-.149.66-.435 1.16-.858 1.497-.422.337-.988.506-1.7.506-.806 0-1.45-.256-1.929-.765-.481-.511-.721-1.218-.721-2.121 0-.914.242-1.624.723-2.134.481-.509 1.132-.763 1.954-.763.671 0 1.205.146 1.602.435.396.29.68.73.854 1.322Z" fill="#2B2A29"/></svg>