<svg width="122" height="122" fill="none" xmlns="http://www.w3.org/2000/svg"><path d="M61 119.648c32.39 0 58.648-26.258 58.648-58.648S93.39 2.352 61 2.352 2.352 28.61 2.352 61 28.61 119.648 61 119.648Z" stroke="#00A0E3" stroke-width="3.2" stroke-miterlimit="22.926"/><mask id="a" style="mask-type:luminance" maskUnits="userSpaceOnUse" x="35" y="3" width="49" height="118"><path d="M58.074 3.905h.607a.3.3 0 0 1 .3.3V33.26a.3.3 0 0 1-.3.3h-.607a.3.3 0 0 1-.3-.3V4.205a.3.3 0 0 1 .3-.3Zm.089 86.907h.606a.3.3 0 0 1 .3.3v29.055a.3.3 0 0 1-.3.3h-.606a.3.3 0 0 1-.3-.3V91.112a.3.3 0 0 1 .3-.3Zm-3.711-1.428h.606a.3.3 0 0 1 .3.3v29.054a.3.3 0 0 1-.3.3h-.606a.3.3 0 0 1-.3-.3V89.683a.3.3 0 0 1 .3-.3Zm-3.711-1.43h.606a.3.3 0 0 1 .3.3v29.055a.3.3 0 0 1-.3.3h-.606a.3.3 0 0 1-.3-.3V88.255a.3.3 0 0 1 .3-.3Zm-3.697-1.761h.607a.3.3 0 0 1 .3.3v29.054a.3.3 0 0 1-.3.3h-.607a.3.3 0 0 1-.3-.3V86.493a.3.3 0 0 1 .3-.3Zm-3.77-1.763h.606a.3.3 0 0 1 .3.3v29.055a.3.3 0 0 1-.3.3h-.606a.3.3 0 0 1-.3-.3V84.73a.3.3 0 0 1 .3-.3Zm-3.77-1.762h.606a.3.3 0 0 1 .3.3v29.055a.3.3 0 0 1-.3.3h-.607a.3.3 0 0 1-.3-.3V82.968a.3.3 0 0 1 .3-.3Zm-3.818-1.841h.607a.3.3 0 0 1 .3.3v29.055a.3.3 0 0 1-.3.3h-.607a.3.3 0 0 1-.3-.3V81.127a.3.3 0 0 1 .3-.3Zm2.015-1.19h.607a.3.3 0 0 1 .3.3v29.054a.3.3 0 0 1-.3.3H37.7a.3.3 0 0 1-.3-.3V79.936a.3.3 0 0 1 .3-.3Zm3.715-1.747h.607a.3.3 0 0 1 .3.3v29.055a.3.3 0 0 1-.3.3h-.607a.3.3 0 0 1-.3-.3V78.19a.3.3 0 0 1 .3-.3Zm3.715-1.746h.607a.3.3 0 0 1 .3.3v29.054a.3.3 0 0 1-.3.3h-.607a.3.3 0 0 1-.3-.3V76.444a.3.3 0 0 1 .3-.3Zm3.715-1.588h.607a.3.3 0 0 1 .3.3v29.055a.3.3 0 0 1-.3.3h-.607a.3.3 0 0 1-.3-.3V74.856a.3.3 0 0 1 .3-.3Zm3.715-1.587h.607a.3.3 0 0 1 .3.3v29.054a.3.3 0 0 1-.3.3h-.607a.3.3 0 0 1-.3-.3V73.269a.3.3 0 0 1 .3-.3Zm3.715-1.85h.606a.3.3 0 0 1 .3.3v29.055a.3.3 0 0 1-.3.3h-.606a.3.3 0 0 1-.3-.3V71.419a.3.3 0 0 1 .3-.3Zm3.62-1.983h.606a.3.3 0 0 1 .3.3V98.49a.3.3 0 0 1-.3.3h-.606a.3.3 0 0 1-.3-.3V69.436a.3.3 0 0 1 .3-.3Zm3.876-1.89h.607a.3.3 0 0 1 .3.3v29.055a.3.3 0 0 1-.3.3h-.607a.3.3 0 0 1-.3-.3V67.546a.3.3 0 0 1 .3-.3Zm3.702-1.746h.606a.3.3 0 0 1 .3.3v29.055a.3.3 0 0 1-.3.3h-.606a.3.3 0 0 1-.3-.3V65.8a.3.3 0 0 1 .3-.3Zm3.614-1.746h.606a.3.3 0 0 1 .3.3v29.055a.3.3 0 0 1-.3.3h-.606a.3.3 0 0 1-.3-.3V64.054a.3.3 0 0 1 .3-.3Zm3.905-1.683h.607a.3.3 0 0 1 .3.3v29.055a.3.3 0 0 1-.3.3h-.607a.3.3 0 0 1-.3-.3V62.37a.3.3 0 0 1 .3-.3Zm3.76-1.65h.607a.3.3 0 0 1 .3.3v29.054a.3.3 0 0 1-.3.3h-.607a.3.3 0 0 1-.3-.3V60.72a.3.3 0 0 1 .3-.3Zm3.618-1.652h.607a.3.3 0 0 1 .3.3v29.055a.3.3 0 0 1-.3.3h-.606a.3.3 0 0 1-.3-.3V59.069a.3.3 0 0 1 .3-.3Zm-1.738-.911h.607a.3.3 0 0 1 .3.3v29.055a.3.3 0 0 1-.3.3h-.607a.3.3 0 0 1-.3-.3V58.158a.3.3 0 0 1 .3-.3Zm-3.76-1.772h.607a.3.3 0 0 1 .3.3v29.055a.3.3 0 0 1-.3.3h-.607a.3.3 0 0 1-.3-.3V56.386a.3.3 0 0 1 .3-.3Zm-3.76-1.659h.607a.3.3 0 0 1 .3.3v29.055a.3.3 0 0 1-.3.3h-.607a.3.3 0 0 1-.3-.3V54.727a.3.3 0 0 1 .3-.3Zm-3.76-1.666h.607a.3.3 0 0 1 .3.3v29.054a.3.3 0 0 1-.3.3h-.606a.3.3 0 0 1-.3-.3V53.061a.3.3 0 0 1 .3-.3Zm-3.76-1.667h.607a.3.3 0 0 1 .3.3v29.054a.3.3 0 0 1-.3.3h-.606a.3.3 0 0 1-.3-.3V51.394a.3.3 0 0 1 .3-.3Zm-3.76-2.096h.607a.3.3 0 0 1 .3.3v29.055a.3.3 0 0 1-.3.3h-.606a.3.3 0 0 1-.3-.3V49.298a.3.3 0 0 1 .3-.3Zm-3.759-1.35h.607a.3.3 0 0 1 .3.3v29.055a.3.3 0 0 1-.3.3h-.607a.3.3 0 0 1-.3-.3V47.95a.3.3 0 0 1 .3-.3Zm-3.579-1.904h.607a.3.3 0 0 1 .3.3v29.055a.3.3 0 0 1-.3.3h-.607a.3.3 0 0 1-.3-.3V46.044a.3.3 0 0 1 .3-.3Zm-3.888-1.492h.606a.3.3 0 0 1 .3.3v29.054a.3.3 0 0 1-.3.3h-.606a.3.3 0 0 1-.3-.3V44.552a.3.3 0 0 1 .3-.3Zm-3.649-2.096h.607a.3.3 0 0 1 .3.3v29.055a.3.3 0 0 1-.3.3h-.607a.3.3 0 0 1-.3-.3V42.456a.3.3 0 0 1 .3-.3ZM43.252 40.6h.606a.3.3 0 0 1 .3.3v29.055a.3.3 0 0 1-.3.3h-.606a.3.3 0 0 1-.3-.3V40.9a.3.3 0 0 1 .3-.3Zm-3.743-1.81h.607a.3.3 0 0 1 .3.3v29.055a.3.3 0 0 1-.3.3h-.607a.3.3 0 0 1-.3-.3V39.091a.3.3 0 0 1 .3-.3Zm-3.867-2.01h.606a.3.3 0 0 1 .3.3v29.055a.3.3 0 0 1-.3.3h-.606a.3.3 0 0 1-.3-.3V37.08a.3.3 0 0 1 .3-.3Zm2.042-.974h.606a.3.3 0 0 1 .3.3V65.16a.3.3 0 0 1-.3.3h-.606a.3.3 0 0 1-.3-.3V36.106a.3.3 0 0 1 .3-.3Zm3.651-1.635h.607a.3.3 0 0 1 .3.3v29.054a.3.3 0 0 1-.3.3h-.607a.3.3 0 0 1-.3-.3V34.471a.3.3 0 0 1 .3-.3Zm3.834-1.842h.606a.3.3 0 0 1 .3.3v29.055a.3.3 0 0 1-.3.3h-.606a.3.3 0 0 1-.3-.3V32.629a.3.3 0 0 1 .3-.3Zm3.579-1.841h.606a.3.3 0 0 1 .3.3v29.055a.3.3 0 0 1-.3.3h-.606a.3.3 0 0 1-.3-.3V30.788a.3.3 0 0 1 .3-.3Zm3.912-1.492h.607a.3.3 0 0 1 .3.3V58.35a.3.3 0 0 1-.3.3h-.607a.3.3 0 0 1-.3-.3V29.295a.3.3 0 0 1 .3-.3Zm3.61-1.493h.606a.3.3 0 0 1 .3.3v29.055a.3.3 0 0 1-.3.3h-.607a.3.3 0 0 1-.3-.3V27.803a.3.3 0 0 1 .3-.3Zm3.609-1.905h.606a.3.3 0 0 1 .3.3v29.055a.3.3 0 0 1-.3.3h-.606a.3.3 0 0 1-.3-.3V25.898a.3.3 0 0 1 .3-.3Zm3.91-1.722h.606a.3.3 0 0 1 .3.3V53.23a.3.3 0 0 1-.3.3h-.606a.3.3 0 0 1-.3-.3V24.175a.3.3 0 0 1 .3-.3Zm3.742-1.572h.607a.3.3 0 0 1 .3.3V51.66a.3.3 0 0 1-.3.3h-.607a.3.3 0 0 1-.3-.3V22.604a.3.3 0 0 1 .3-.3Zm3.742-1.905h.607a.3.3 0 0 1 .3.3v29.055a.3.3 0 0 1-.3.3h-.607a.3.3 0 0 1-.3-.3V20.699a.3.3 0 0 1 .3-.3Zm3.743-1.476h.606a.3.3 0 0 1 .3.3v29.054a.3.3 0 0 1-.3.3h-.606a.3.3 0 0 1-.3-.3V19.223a.3.3 0 0 1 .3-.3Zm3.897-1.969h.606a.3.3 0 0 1 .3.3V46.31a.3.3 0 0 1-.3.3h-.606a.3.3 0 0 1-.3-.3V17.254a.3.3 0 0 1 .3-.3Zm3.594-1.968h.606a.3.3 0 0 1 .3.3V44.34a.3.3 0 0 1-.3.3h-.606a.3.3 0 0 1-.3-.3V15.286a.3.3 0 0 1 .3-.3Zm-1.573-.794h.606a.3.3 0 0 1 .3.3v29.055a.3.3 0 0 1-.3.3h-.606a.3.3 0 0 1-.3-.3V14.492a.3.3 0 0 1 .3-.3Zm-4.081-1.715h.606a.3.3 0 0 1 .3.3v29.055a.3.3 0 0 1-.3.3h-.606a.3.3 0 0 1-.3-.3V12.777a.3.3 0 0 1 .3-.3Zm-3.675-1.714h.607a.3.3 0 0 1 .3.3v29.055a.3.3 0 0 1-.3.3h-.607a.3.3 0 0 1-.3-.3V11.063a.3.3 0 0 1 .3-.3Zm-3.674-1.714h.606a.3.3 0 0 1 .3.3v29.054a.3.3 0 0 1-.3.3h-.606a.3.3 0 0 1-.3-.3V9.35a.3.3 0 0 1 .3-.3Zm-3.81-1.715h.606a.3.3 0 0 1 .3.3V36.69a.3.3 0 0 1-.3.3h-.606a.3.3 0 0 1-.3-.3V7.634a.3.3 0 0 1 .3-.3Zm-3.81-1.714h.606a.3.3 0 0 1 .3.3v29.054a.3.3 0 0 1-.3.3h-.606a.3.3 0 0 1-.3-.3V5.92a.3.3 0 0 1 .3-.3Z" fill="#fff"/></mask><g mask="url(#a)"><path d="M87.317 2.186h-55.88v120h55.88v-120Z" fill="url(#b)"/></g><defs><linearGradient id="b" x1="31.438" y1="62.186" x2="87.318" y2="62.186" gradientUnits="userSpaceOnUse"><stop stop-color="#238FC5"/><stop offset="1" stop-color="#8FC378"/></linearGradient></defs></svg>