<svg width="120" height="120" fill="none" xmlns="http://www.w3.org/2000/svg"><path fill-rule="evenodd" clip-rule="evenodd" d="M17.21 33.24c.119 2.697-.033 5.89-.033 8.657v52.114c0 2.86.12 5.991-.018 8.819l69.508-.03c3.124.239 7.494-1.987 9.295-3.347 2.147-1.62 4.241-4.076 5.522-7.172 1.505-3.635 1.29-7.096 1.29-11.33V42.777c0-8.218 1.018-14.477-4.91-20.529-5.764-5.886-12.329-5.035-20.276-5.035H39.413c-4.277 0-7.782-.29-11.517 1.232-3.225 1.313-5.67 3.41-7.216 5.474-1.383 1.847-3.73 6.132-3.47 9.321Z" fill="#1C478B"/><path fill-rule="evenodd" clip-rule="evenodd" d="M31.99 49.777c-.007.016-.072.02-.362.036l-1.959.004-.002 6.802 3.873.003.005-3.126 8.536-.074.062 3.154 3.714.047.004-6.806-2.273-.014-.108-9.154-9.728-.019-1.762 9.147Zm4.103-.02 3.63-.002-.005-5.416-2.565.012-1.06 5.406ZM33.56 69.1c-.014-1.752.975-2.9 2.294-3.39 1.665-.618 3.453-.505 5.278-.609l.02-3.59c-2.385-.136-5.244.252-7.117 1.13-4.427 2.078-5.023 7.718-4.05 11.8 1.913 8.022 13.231 6.615 12.883-1.529-.109-2.561-1.494-4.351-3.222-5.126-2.642-1.185-4.736-.202-6.085 1.314Zm2.05 1.609c-3.328.828-2.318 6.474 1.383 5.557 3.106-.77 2.334-6.482-1.383-5.557ZM84.379 52.254l.012 1.277 3.834.016.098-12.912h-3.934l-.017 1.302c-.543-.265-1.048-1.273-2.77-1.55-6.701-1.077-8.853 9.355-3.694 12.617 1.437.909 3.508 1.221 5.163.278.623-.355.794-.706 1.308-1.028Zm-3.476-7.987c-3.256 1.063-1.933 6.839 1.73 5.563 3.04-1.06 1.905-6.75-1.73-5.563ZM56.38 52.25l.01 1.28 3.918.012.019-12.849-3.934-.063-.02 1.307c-.459-.248-.621-.638-1.203-.976-1.696-.984-3.733-.754-5.217.174-1.608 1.007-2.834 3.136-2.843 5.91-.018 5.504 4.637 8.098 7.956 6.235.635-.357.773-.684 1.314-1.03Zm-3.483-7.987c-1.666.585-2.08 2.228-1.726 3.72.316 1.326 1.687 2.452 3.458 1.84 3.122-1.082 1.794-6.797-1.731-5.56ZM54.244 78.175l.03 1.252 3.935.035.008-12.613-3.793-.007-.103 1.295c-.555-.302-.985-1.187-2.692-1.511-6.56-1.248-9.049 8.86-3.882 12.27.924.61 2.197.997 3.601.825 1.687-.208 2.022-.929 2.896-1.546Zm-3.301-7.835c-3.33.81-2.311 6.555 1.476 5.543 3.153-.843 2.253-6.449-1.476-5.543ZM69.454 71.212l-4.796.012V66.85l-3.876-.003-.001 12.587 3.863.03.016-4.584 4.802-.022-.002 4.56 3.865.047c.059-1.458.138-11.98-.072-12.618l-3.74-.002-.06 4.367ZM75.903 67.64c0 3.615-.105 8.336.018 11.817l3.91-.009.017-5.063c.315.162 2.963 3.281 3.582 3.987.481.549.548 1.092 1.567 1.092l4.187-.003c-.36-.67-4.922-5.79-5.546-6.53.179-.42 2.212-2.636 2.609-3.035l1.945-2.2c.387-.405.438-.346.697-.825l-4.921-.028c-.231.453-3.73 4.647-4.12 4.858l-.004-4.834-3.938-.023-.003.796ZM62.122 44.33l3.7.02.039 9.115 3.842.004.023-9.102 3.736-.03-.002-3.69-11.318-.016-.02 3.699Z" fill="#fff"/></svg>