<svg width="120" height="120" fill="none" xmlns="http://www.w3.org/2000/svg"><path fill-rule="evenodd" clip-rule="evenodd" d="M0 120h120V0H0v120Z" fill="#00275E"/><path fill-rule="evenodd" clip-rule="evenodd" d="m27.85 91.499 9.057 6.14c1.528 1.097 1.873.54 3.722-.085 9.954-3.36 19.106-7.485 26.895-13.892 1.512-1.244 3.364-3.548 4.442-5.866 1.263-2.713 1.066-6.071.383-9.028-4.55-19.71-32.54-20.599-31.848-29.269.406-5.086 7.35-9.17 10.437-9.979-5.159.476-21.964 8.279-9.221 17.602 3.355 2.456 7.36 4.717 11.073 6.975 5.335 3.243 11.71 7.84 13.563 13.633 2.548 7.967-4.088 12.117-10.7 15.319-3.835 1.857-8.778 3.628-13.209 4.843L27.85 91.5Z" fill="#FEFEFE"/><path fill-rule="evenodd" clip-rule="evenodd" d="M14.2 82.158c.535.52 11.895 8.309 12.356 8.471 1.423.503 14.542-3.142 16.72-3.783 4.899-1.445 10.953-3.589 14.926-5.944 4.005-2.375 9.395-5.643 7.579-12.376-2.327-8.624-14.865-14.392-22.395-19.32-3.585-2.347-9.507-6.314-5.926-12.472 3.121-5.366 11.193-6.712 13.127-7.796-7.894.476-22.084 6.86-16.003 16.65 3.218 5.181 12.203 9.733 17.543 13.628.921.672 1.657 1.335 2.484 1.97 1.929 1.479 7.503 7.732 3.704 11.63-6.652 6.825-34.719 8.485-44.115 9.342Z" fill="#FEFEFE"/><path fill-rule="evenodd" clip-rule="evenodd" d="m54.014 47.363 2.963.017.002-22.505c2.263-.213 6.911-.08 9.487-.078 8.756.006 13.892 10.225 6.575 17.28-2.486 2.397-4.392 1.849-8.115 2.418l-.006 2.826c15.812 1.576 19.98-20.036 5.888-24.834-3.246-1.106-12.603-.668-16.797-.65l.003 25.526Z" fill="#FEFEFE"/><path fill-rule="evenodd" clip-rule="evenodd" d="m73.718 66.998 3.037-.008c-.029-4.036-.66-16.253.779-19.015 1.822-3.496 6.298-4.807 9.86-2.23 1.299.94 1.234 1.609 2.276 2.856.911-1.153 1.088-1.97 2.13-2.768.903-.691 2.06-1.281 3.498-1.411 3.103-.281 5.399 1.493 6.434 3.391 1.229 2.254.808 6.206.808 9.015 0 3.376.051 6.792-.014 10.163l3.045-.004c-.123-10.264 2.474-22.651-7.172-25.208-4-1.061-6.203.402-8.73 1.906-1.655-.69-3.871-3.092-8.547-1.959-2.894.702-4.939 2.64-6.09 4.685-1.689 3.003-1.314 5.77-1.314 9.48v11.107ZM57.691 47.294l2.86.098.1-18.868c5.503-.339 10.412-.46 11.886 4.198.76 2.403-.02 4.626-1.4 6.042-2.115 2.17-2.875 1.662-6.19 2.015l-.04 2.84c6.894.942 12.967-5.257 10.326-12.192-1.015-2.663-3.15-4.8-6.133-5.588-1.556-.412-9.699-.537-11.365-.245l-.043 21.7Z" fill="#FEFEFE"/><path fill-rule="evenodd" clip-rule="evenodd" d="m77.457 66.998 3.038-.015c-.039-3.637-.009-7.254-.009-10.858 0-3.151-.865-8.041 2.855-8.072 4.137.076 3.148 11.433 2.984 18.914l2.784.04s.171-11.376.173-13.695c.002-2.504.116-3.956-1.137-5.742-2.21-3.15-6.6-3.472-9.28-.373-1.425 1.648-1.417 3.192-1.409 5.647.016 4.717 0 9.437 0 14.154ZM90.082 66.965l2.777.04c.176-10.646.176-8.653.176-10.646 0-3.38-.919-8.125 2.731-8.303 3.863-.19 3.035 4.833 3.035 7.835 0 3.693.03 7.399-.008 11.09l3.041.01c-.048-4.648-.017-9.291-.01-13.913.004-2.569-.047-3.892-1.301-5.697-2.03-2.922-6.96-3.087-9.283.002-1.351 1.798-1.232 3.198-1.231 5.695.002 3.452.073 13.887.073 13.887Z" fill="#FEFEFE"/></svg>