<svg width="120" height="120" fill="none" xmlns="http://www.w3.org/2000/svg"><path fill-rule="evenodd" clip-rule="evenodd" d="m37.186 113.289.203-3.873c.507-24.697 4.345-37.61 14.095-58.412 2.04-4.354 7.455-13.9 9.166-15.233 1.591 1.162 7.376 11.52 8.86 14.501 2.634 5.293 4.91 10.476 7.18 16.236 5.45 13.837 7.701 29.92 7.334 45.631.644-.699.753-1.736.989-2.765.233-1.021.45-2.08.644-3.092 5.558-29.007-.19-58.21-14.771-83.389-2.455-4.239-7.022-12.019-10.236-15.478-3.73 3.825-10.566 16.612-12.78 21-8.53 16.918-13.81 34.3-13.885 54.068-.02 5.504.276 10.855.875 16.252.28 2.529.586 4.992.98 7.442.37 2.315 1.093 5.028 1.346 7.112Z" fill="#1078BF"/><path fill-rule="evenodd" clip-rule="evenodd" d="M45.594 113.319c.8-12.865 4.656-37.456 15.043-46.534 10.135 9.2 15.288 33.145 15.164 46.468 3.126-20.72 3.94-32.154-6.538-51.043-1.518-2.737-6.622-10.786-8.626-12.557-1.762 1.286-6.568 9.662-8.111 12.47-9.776 17.79-9.988 31.247-6.932 51.196Z" fill="#1078BF"/></svg>