<svg width="120" height="120" fill="none" xmlns="http://www.w3.org/2000/svg"><path fill-rule="evenodd" clip-rule="evenodd" d="m81.197 48.032-14.209.01-.004 36.209-13.69-.03.001-20.945-.087-.002c-.026 1.643-.255.555-.29 1.638-.019.58.019 1.224.02 1.808.003.595-.025 1.204-.031 1.8-.01.926.264 1.206-.162 1.618l.042-2.45c-.72.21-.161.577-.932.12-.134 1.238-1.13-.213-2.03.254-.941.49.266.673-1.113 1.064-.613.173-.287-.161-.444.258-.676.24.194.056-.539.786-.017.017-.046.038-.064.055l-.063.057c-1.266 1.143-.398.744-1.51 1.252l-.083.038-.17.07c-.556.269-.166.07-.734.825-1.055.024-.692-.147-1.275.402-.515.485-.777.384-1.137.56-.272.131-.636.563-.934.735-.43.247-.642.218-1.002.556-.472.443-.175.286-1.002.673-.79.37-1.232.998-2.767 1.8l-3.103 1.94c-.692.586.102-.257-1.347.816l-1.95 1.323c-.389.175-.245.115-.556.274-.395.202-.714.355-1.185.413-.51.346-2.35 1.557-2.566 1.98.733-.442.331-.495 1.651-.447-.061-.484-.13-.392-.278-.765.656-.022.524-.283 1.172-.519.378-.138.138-.15.264.052.552-.028.031-.038.265.18-.22.251-.449.32-.506.67l.791.001c.018-.035.05-.122.062-.141.428-.631 1.325-.472 2.025-.472l.005.982c.336-.18.315-.032.788-.022.309-.662.798.053.9-.838l-.837-.001c-.01-.403-.098-.36.118-.594.289-.31.112-.057.207-.05.348.025.792.282 1.292.328.02-.034.003-.285.28-.62.344.614.16.168.115.831.107.005.377 0 .457.012.792.113.203.048.661.317l.078.041c.695.386.39.734 1.223 1.054.143.055.267.114.414.188 0 0 .294.16.312.173.257.187.628.76.922.334.29-.42-.261-.533.456-.579l.757.267c.02.008.06.021.087.039.001.161-.017.465-.002.608.043.416.324.868.623 1.171l1.126.676c.323.117.25.025.513.185.11 1.29-.172 2.13-.028 3.184.024.175.034.53.09.748.066.266.16.31.342.484.554.532.244.468.615 1.07.578-.158.404.021.531-.357.34.102.23.178.488.288.187.079.333.093.589.062.483-.057.668-.244 1.313-.238-.192-.282-.113-.149-.115-.597.592-.019.26.052.565-.158l.39-.324c-.08-.686-.061.146-.47-.579 1.287.02 1.233-.25 1.588.342.404-.253 1.089-.388 1.729-.373.088.206.107.413.191.587h.9c0 .455-.194.958.06 1.323l.505-.29a4.55 4.55 0 0 1 .082-.041l.422-.179c.33-.17.19-.144.43-.283l.596-.25c.444-.246-.064.005.375-.329l.827-.389c1.113-.497.19-.653 1.886-1.025.325-.071.378-.195.63-.404l3.252-2.034c.415-.268 1.058-.352 1.504-.65l1.036-.768c.025-.017.512-.317.514-.318a.914.914 0 0 1 .54.04c.346.151.64.635 1.087.844.514.24.074.314 1.214.835.58.265.763.1 1.287-.101-.125.518-.026.215.002.853l.954.013.03 1.43c-.425-.04-.934-.197-1.456-.152-.278.024.038-.025-.22.03-.269.057-.126.003-.28.106.136.281.025.085.244.258.237.188.588.298.688.513.086.185.056.33.06.538.542.128.78.463.965.971l-.71.145c.313.24.296.028.116.471-.368-.027-1.326-.021-1.757-.198-.49-.202-.194-.563-1.94.236-.296.136-.25.045-.503.186l.003.72c.302.171.147.02.422.139.543.233.238-.095.412.358l-.934.415c-.012.01-.306-.1-.117.338.127.293-.015.06.26.23l.174.08c-.2.606-.225.425-.213 1.303l1.653.257c.335.137.237-.09.247.583.43-.105.162-.111.594-.224.09.257.304.413.479.593.69-.172 1.258-1.07 1.688-.473.267.372.132 1.179.129 1.698l-.957.002.004.558c.017-.006.18-.096.198-.1.17-.041-.035-.067.156.003l.005.865c-.526.005-1.206-.036-1.71.003-.177.013-.14.008-.3.046l-.283.101c-.16.048-.37.082-.58.101-.006.392.06.34-.117.592-.053.073-.645.114-.401 1.067.082.324.03.066.111.377 2.523 9.612 31.978 9.396 39.696 15.034.142.057.097.03.219.102l.361.26.074.052c.01.41.223 1.519-.375 1.433-.402-.057-.184-.551-.375-.328-.127.148-.068.564-.067.815.628.312.384-.307.489.48h11.133l-.2-.294c-.059-.172.019-.078-.073-.392-.163-.56-.18-.138-.345-.634.126-.237.114-.273.326-.431.275.218.141.108.174.396.045.387-.053.281.1.524.226-.347.057-.328-.069-.691.611.172.086.074.669.376.014-.031.031-.116.038-.096.067.18-.009-.205.255-.438-.318-.315-.626-.109-.717-.72.398-.19.553.039.814.336.285.324.327.432.784.587-.005-.031-.024-.105-.029-.088l-.128-.363c-.257-.848.064-.721.655-1.072-.08-.747-.152-1.084.299-1.51.752-.71.8-.44 1.246-.434.064-.703.283-.839.743-.935V87.42c-.28.116-.315-.002-.84 0l-.24-.588-.47.674c-.145.213-.122.141-.25.251-.744-.356.179-.326-.867-.326l-.15.466c.219.383.074-.179.278.547l.162.282c.194.232.242.337.166.61-1.027-.087-.049.09-.561-.296-.238-.18-.06-.17-.495-.21l-.161.33c.105.058.308.103.316.108.341.226.123-.145.297.33-1.091.737-.101-.416-1.107.078-.212.104-.238.248-.559.301-.795.132.091.041-.559-.156-.062.153.031.143-.075.464l-.765-.328-.238.58-.392-.057.379.492.05.062.117.115c.186.197.129-.05.256.291a.41.41 0 0 1-.103.043c-.69.207-.581-.178-.955.49-.228.407-.238.452-.247 1.027-.027.023-.065.048-.086.063-.911.672-.299.377-.514 1.114-.064.22-.076.14-.177.264-.375.456-.316.578-.9.64-.009-.677.302-.837-.07-1.664-.488.051-.389.354-.549.697l-.714.017c.139-.273.387-.347.482-.585-.918-.525-1.067.658-1.088-1.266-.303-.116-.584-.034-.771-.294-.263.367-.06.24-1.144.24l-.096-3.33c.001-.014.011-.05.011-.063.012-.38-.075-.273-.452-.249-2.369.152-.435.263-1.679.393l-.134-.391c-.18-.729.134.223-.034-.209-.191-.49-.453-.255-.506-1.005-.015-.213.002-.51.002-.732-.171-.479-.036.108-.242-.299-.15-.296-.057-.057-.117-.408-.284-1.661-1.21-.551-1.559-1.333.201-.156.026-.054.325-.145.691-.21-.487.103.219-.045.346-.073.101.038.465-.1l.392-.2c.138-.088.178-.142.272-.23-.215-.126-.254-.149-.599-.174l.204-.376c.151-.485-.203-.735.282-.82-.011-.007-.347-.225-.359-.236l-.379-.595c-.735-1.173.259.84-.224-.319-.141-.736.314-1.465.37-2.165.048-.599.101-1.067.539-1.556.102-.114.057-.08.171-.191l.521-.327c.369-.222-.047.084.209-.156l.182-.238c.311.017 1.012.167 1.121-.179.013-.043.053-.04.079-.062.024.03.039.077.054.101.193.314.042.309.354.38.403.092.308-.088.391-.186.406-.479.508-1.303.854-1.685.558-.615.442-.57.491-1.046l.745-.531c.024-.01.057-.021.079-.032l.205-.124c.109-.084.06-.034.171-.166l.139-.202c.013-.021.028-.053.04-.075l.33-.8c-.36-.069-.491-.061-.705-.24.196-.413-.125-.341.715-.333-.231-.226-.095-.699-.129-1.331.532.01 2.19-.203 2.768-.508 1.727-.91-1.338-.583 1.17-.1l.957-.263c.575.04.051-.067.163.044-.031-.36-.414-.077-.491-.969l.903-.475c1.275.134.726.572 1.343-.137.016-.018.042-.044.058-.063.015-.018.041-.043.056-.063l.096-.136c.08-.141.022-.046.102-.248l.881-2.451c.056-.279.026-.469.028-.742l.079-.452c-.57-.01-1.225.039-1.647.157l-.561-.93.473-.24-.012-1.315.706-.005-.172-.576.003-.102c0-.022-.013-.322-.013-.35.417.1.177-.093.357.169-.298-.54-1.733.018-1.421-1.876.055-.332.086-.498.106-.865.253-.214-.229-.037.442-.24.012-1.14-.252-1.974-1.141-2.769l-2.485 1.69c-1.539 1.376-.69.164-2.441 1.638-.642.54-.697.28-1.396.654l-.864.682c-.522.345-1.218.614-1.573.964-.418.412.155.152-.598.435-.607.228-.256-.05-.6.424-.345.474-1.074.991-1.647 1.302-.024.012-.053.03-.077.043l-.563.281-.073.047c-.656.382-.771.143-1.318.747l-.558.504c-.308.217-.28.138-.64.293-.439.19-.678.596-1.891 1.251l-1.2.856c-1.01.78-.055.518-2.323.653-.863.993-1.768.654-2.393 1.236-.864.806-.5.325-1.094.694-.297.183-.678.608-1.005.675-.33.968-1.44.558-2.41 1.919-.464.65.019.254-.523.546-.159.086-.18-.04-.548.428-.696.884-2.324.763-3.096 2.067-.2.34-.123.26-.462.477-.157.1-.06.034-.226.133l-1.102.587c-.942.589-2.106 1.772-2.29 1.904l-1.22.819c-.323.16-.09-.01-.392.215-.485.362-.296.544-.647.786-.279.193-.252.011-.698.391-.122.105-.02.043-.248.23a3.466 3.466 0 0 1-.067.051l-1.367 1.035c-.214.174-.067.093-.384.188-.555.166-.374.034-.964.504l-1.506 1.233-.088.032-1.008.17c.002-.598-.02-.31.149-.648.466-.931.296-.445.763-.913 1.192-1.195.468-.37 1.44-1.083l3.034-2.72c.154-.118.339-.21.527-.322.444-.264.593-.573 1.095-.943.52-.383 1.16-.82 1.537-1.353.432-.609 1.207-.943 1.807-1.416.234-.184.216-.211.472-.364 1.166-.7 2.55-2.238 4.034-3.285l4.09-3.354c.286-.229.13-.121.366-.36.158-.16.272-.224.464-.368l2.01-1.708c.143-.12.012.006.193-.178.907-.924 1.828-1.369 2.75-2.171.539-.47 3.14-2.827 3.63-2.842l.09-.446c-.685.155-.512.483-.941.66-.353.146-.427.05-.744.11l-.502.203c-.162-.316-.083-.366.003-.685-2.072-.295-1.685.097-1.693-.737l-1.945-.04c.028.67-.103.396.034.984l-.956-.01-.009-1.3-.958-.012v-1.552c-.949.034-.115.246-.958.48-.005-.507-.076-.894.065-1.367.008-.028.024-.057.033-.084.009-.028.024-.056.033-.084.028-.092.037-.04.069-.277.021-.158.006-.398.005-.563l-.712-.001-.003-.958-.845-.004c-.097-.182-.102-.208-.23-.364-.66-.804-.268-.607-1.03-.592l-.003.96c-.205-.214-.237-.229-.288-.63a10.86 10.86 0 0 1-.014-.844c.034-.366.002-.14.093-.403.166-.483.153-.137.152-1.06h.717l-.021-.983c.444-.03.188.084.566-.277.025-.024.09-.097.114-.122l1.24-.562-.004-.606-.963.004c-.132-.472-.365-.56-.667-.897-.446-.497-.18-.509-.335-1.15-.215-.88-.908-.145-.92-2.049-1.278.009-.648-.035-1.503-.156-.288.086-.294.168-.473.343-.179-.116-.31-.218-.492-.354-.265-.197-.046-.157-.414-.21-.029-.005-.188 0-.217.006-.643.14.056.215-.723.34l.051-1.218c.329-.07-.05.08.355.214l.585-.814c-.313-.158-.484-.127-.834-.592l-.099-.146a3.527 3.527 0 0 1-.087-.157l-.11-.25c-.01-.03-.021-.06-.03-.092-.047-.184-.044-.245-.053-.44-.03-.628.12-.91-.344-.937-.53-.03-.029.185-.828.236-.086-.123-.01-.22-.411-.713-.574-.707.213.548-.128-.149.11-.304.176-.35.211-.754l-1.228-.446-.002-1.418c-.28 2.236.158 8.895-.037 10.908-.07.725.172.427-.248.622ZM83.11 19.56c-.42.065-1.597 1.472-2.103 1.924-.525.468-.617.811-1.82 1.904l-.522.552-.06.064-1.856 1.744c-.414.43-.725.662-1.11 1.05-1.742 1.756-2.106 1.758-3.368 2.988-.246.24-.376.288-.624.473L70.51 31.28c-.33.314-.199.225-.484.575-.544.67-3.924 3.231-4.782 3.894l15.961-.002-.009 12.286c.42-.195.178.103.248-.622.195-2.013-.243-8.672.037-10.908l.002 1.418 1.228.446c-.035.404-.1.45-.21.754.34.697-.447-.558.127.149.401.494.325.59.411.713.8-.05.298-.267.828-.236.464.027.314.309.344.937.009.195.006.256.054.44.008.032.02.062.029.092l.11.25c.017.033.068.126.087.157l.099.146c.35.465.52.434.834.592l-.585.814c-.405-.134-.026-.283-.355-.214l-.051 1.218c.779-.125.08-.2.723-.34.029-.007.188-.011.217-.007.368.053.149.014.414.21.183.137.313.24.492.355.179-.175.185-.257.473-.343.855.12.225.165 1.502.156.013 1.904.706 1.17.92 2.05.157.64-.11.652.336 1.15.302.337.535.424.667.896l.963-.004.003.606-1.239.562c-.024.025-.09.098-.114.122-.378.36-.122.246-.566.277l.02.982-.716.001c.001.923.014.577-.152 1.06-.09.263-.059.037-.093.403-.01.099.001.745.014.844.051.401.083.416.288.63l.003-.96c.762-.015.37-.212 1.03.592.128.156.133.182.23.364l.845.004.003.958.712.001c0 .166.016.405-.005.563-.032.237-.041.185-.07.277-.008.028-.023.056-.032.084-.009.027-.025.056-.033.084-.141.473-.07.86-.065 1.366.843-.233.01-.445.959-.48l-.001 1.553.958.011.009 1.3.956.011c-.137-.588-.006-.313-.034-.983l1.945.039c.008.834-.38.442 1.693.737-.086.32-.165.37-.003.685l.502-.204c.317-.06.391.037.744-.109.429-.177.256-.505.941-.66.946-.334 3.484-3.167 4.359-3.73 1.348-.867.297-.11 1.289-1.011.265-.241.355-.355.605-.593l1.392-1.01c.442-.324.716-.457.875-.891l.076-.202c.272-.453.622-.433.74-.462.551-.137.981-.44 1.408-.869.242-.243.332-.373.617-.575l2.549-2.132c.123-.106.165-.14.337-.26l.07-.047 2.994-2.174c.509-.454-.121-.797 1.479-2.005.263-.199.471-.251.722-.477.32-.289.252-.429.615-.599V0H99.11c-.222.563-1.389 1.695-1.659 2.154-.513.874-.758.877-1.65 2.326-.537.874-.547.687-1.196 1.683-.191.294-.29.383-.517.58L87.42 14.7c-.11.112-.106.105-.258.23-.724.587-.273.246-.77.785-.359.39-1.278 1.262-1.43 1.684-.334.284-.507.59-.852.947-.188.194-.305.273-.514.447-.436.364-.328.238-.487.766ZM120 53.493v-2.69l-.6.044c-.187.27-.269.599-.449.87-.013-.02-.024-.082-.027-.066-.003.015-.022-.054-.025-.066l-.099-.337c-1.164.747-1.029 1.294-1.464 1.766-.331.361-.342.116-.474.614.464-.156.064-.083.425-.183l.3-.05c.313-.08.293-.2.606-.194.543.011-.088-.01.481.178.343-.598-.134-.266.368-.471.182.398.447.298.144.818.629-.07.047-.202.814-.233Zm-1.713 10.16c.4-1.372.267-2.64-.866-3.192-.18-.262.06-.07-.357-.168 0 .027.013.327.013.349l-.003.102.172.576-.706.005.012 1.315-.473.24.561.93c.422-.118 1.077-.168 1.647-.157Zm-2.88-8.942c.889.795 1.153 1.628 1.141 2.769-.671.203-.189.026-.442.24-.02.367-.051.533-.106.865-.312 1.894 1.123 1.337 1.421 1.876 1.133.552 1.266 1.82.866 3.192l-.079.452c-.002.273.028.463-.028.742l-.881 2.451c-.08.202-.022.107-.102.248l-.096.136c-.015.02-.041.045-.056.063-.016.02-.042.045-.058.063-.617.709-.068.27-1.343.137l-.903.475c.077.892.46.609.491.969-.112-.11.412-.003-.163-.044l-.957.264c-2.508-.484.557-.812-1.17.099-.578.305-2.236.518-2.768.508.034.632-.102 1.105.129 1.33-.84-.007-.519-.079-.715.334.214.179.345.171.705.24l-.33.8c-.012.022-.027.054-.04.075l-.139.202c-.111.132-.062.082-.171.165l-.205.125c-.022.01-.055.022-.079.032l-.745.531c-.049.477.067.43-.491 1.046-.346.382-.448 1.206-.854 1.685-.083.098.012.278-.391.186-.312-.071-.161-.066-.354-.38-.015-.024-.03-.07-.054-.101-.026.021-.066.02-.079.062-.109.346-.81.196-1.121.179l-.182.238c-.256.24.16-.066-.209.156l-.521.327c-.114.11-.069.077-.171.191-.438.49-.491.957-.539 1.556-.056.7-.511 1.429-.37 2.165.483 1.159-.511-.854.224.319l.379.596c.012.01.348.228.359.235-.485.085-.131.335-.282.82l-.204.376c.345.025.384.048.599.174-.094.088-.134.142-.272.23l-.392.2c-.364.138-.119.027-.465.1-.706.148.472-.165-.219.045-.299.09-.124-.01-.325.145.349.782 1.275-.328 1.559 1.333.06.35-.033.112.117.408.206.407.071-.18.242.299 0 .223-.017.519-.002.732.053.75.315.514.506 1.005.168.432-.146-.52.034.209l.134.39c1.244-.13-.69-.24 1.679-.392.377-.024.464-.13.452.249 0 .012-.01.049-.011.063l.096 3.33c1.084 0 .881.127 1.144-.24.187.26.468.178.771.294.021 1.924.17.741 1.088 1.266-.095.238-.343.312-.482.585l.714-.017c.16-.343.061-.646.549-.697.372.827.061.987.07 1.664.584-.062.525-.184.9-.64.101-.123.113-.045.177-.264.215-.737-.397-.442.514-1.114.021-.015.059-.04.086-.063.009-.575.019-.62.247-1.027.374-.668.265-.283.955-.49a.41.41 0 0 0 .103-.043c-.127-.34-.07-.094-.256-.29l-.117-.116-.05-.062-.379-.492.392.058.238-.58.765.327c.106-.321.013-.311.075-.464.65.197-.236.288.559.156.321-.053.347-.197.559-.302 1.006-.493.016.66 1.107-.077-.174-.475.044-.104-.297-.33-.008-.005-.211-.05-.316-.108l.161-.33c.435.04.257.03.495.21.512.387-.466.209.561.296.076-.273.028-.378-.166-.61l-.162-.282c-.204-.726-.059-.164-.278-.547l.15-.466c1.046 0 .123-.03.867.326.128-.11.105-.038.25-.251l.47-.674.24.589c.525-.003.56.115.84-.001V53.493c-.767.031-.185.164-.814.233.303-.52.038-.42-.144-.818-.502.205-.025-.127-.368.47-.569-.187.062-.166-.481-.177-.313-.006-.293.114-.606.194l-.3.05c-.361.1.039.027-.425.183.132-.498.143-.253.474-.614.435-.472.3-1.02 1.464-1.766l.099.338c.003.01.022.08.025.065.003-.016.014.046.027.065.18-.27.262-.598.449-.869l.6-.044v-.33c-.516.241-1.304.246-1.735.598-.138.113-.336.452-.47.602-.529.595-1.831 1.704-2.388 3.038Zm-72.308-.488c-.34.168-1.186 1.008-1.596 1.098-.335.723-.477.488-1.138 1.005l-2.323 1.763c-.364.382.034.144-.484.461l-.618.458c.186.565-.083.145.46.392-.206.43-.022.413-.191.982-.009.03-.024.058-.033.087-.294.936.096.138-.371 1.06-.013.026-.032.054-.044.08-.165.397-.028.627-.326 1.232l-1.413-.102c-.017 1.084-.462.723-.617 1.404-.162.717.154-.128.035.272l-.78.102a.45.45 0 0 0-.092.043c.006.668.153.634.872.632l.006.316c.18.385.202-.092.207.612-.245.571.337-.52-.156.18-.124.177-.078.082-.176.315l-.41.789c-.348.636-.168.735-.106.996l-.95.692c-.069 1.913.37 2.117-.935 2.167l-.27.472c-.259-.182-.445-.27-.785-.219-.645.1-.503.616-.538.96-.037.364.004.12-.075.392-.008.028-.024.057-.032.085-.01.03-.024.058-.033.088-.243.817.093.162-.314.882-.013.024-.036.05-.049.075-.189.387-.096.773-.098 1.213-.567-.006-.67-.129-1.366-.129-.086-.173.024-.325-.106-.507-.237-.33-.27-.12-.666.046-.67.281-.406-.065-.798-.002-.51.083.044.09-.39.224-.258-.582.023-.406-.569-.621-.32-.117-.153-.032-.392-.194-.02-.014-.046-.04-.066-.054l-.335-.17c-.014-.823.038-.688-.26-1.256-.82.048-.32.164-.755.36-.192 1.276-.364.483-.867 1.126-.213.273-.168.895-.143 1.33.028.02.075.005.091.046.017.041.07.035.093.044.126.048.16.056.285.1.277.094.354.059.56.364l.128.238c.123.325.081.267.072.644.091.003.27 0 .354.014.032.005.071.01.103.017l.26.093c-.02.851-.013.205-.149.45-.012.022-.037.047-.05.07-.355.624-.035.422-.356.726-.38.36.346-.195-.145.094-.206.121.038-.072-.245.1-.004.298-.024.469.24.72-.027.018-.075.002-.087.042-.064.2-.23-.065-.38.292.374.18.172.16.26 1.069.144 1.454.015.986.312 1.106l.239-.947c0 .91.066.323.261.931l.096-.707 1.394-.033c-.092.154-.432.282.254.256.632-.023 2.252-.909 2.732-1.236.741-.505 4.55-2.144 5.322-2.72l1.834-.935c1.07-.473 2.602-1.7 3.767-1.74-.206.605-.121.332-1.305 1.103-.532.347-.91.578-1.437.956l-5.091 3.077c-.78.7-.328.166-1.323.949-.23.18.053.014-.402.242l-.93.482c-.59.41-.735.263-.923.692.471-.058.79-.211 1.185-.413.311-.16.167-.099.555-.274l1.95-1.323c1.45-1.073.656-.23 1.348-.816l3.103-1.94c1.535-.802 1.977-1.43 2.767-1.8.827-.387.53-.23 1.002-.673.36-.338.572-.31 1.002-.556.297-.172.662-.604.934-.736.36-.175.622-.074 1.137-.56.583-.548.22-.377 1.275-.4.568-.756.178-.557.733-.826l.17-.07.085-.038c1.11-.508.243-.109 1.509-1.252l.063-.057c.018-.016.047-.038.064-.055.733-.73-.137-.546.539-.786.157-.42-.169-.085.444-.258 1.38-.39.172-.575 1.114-1.064.899-.467 1.895.984 2.03-.254.77.457.21.09.93-.12l-.04 2.45c.425-.412.15-.692.16-1.618.008-.596.035-1.205.033-1.8-.002-.584-.04-1.229-.021-1.808.035-1.083.264.005.29-1.638l-.098-.963c-.342.313-.173-.265-.313.566-.086.51.08.331.125.364l-.02-.721c-.207-.16.236-.216-.619-.208-.024-1.037-.288-.162-.723-1.143l-.072-.17c-.012-.026-.026-.056-.04-.082l-.328-.513c-1.39-.026-1.8.286-3.037-.164.02-.467.022-.114.09-.338.064-.21.035.149.147-.474l-.842.014v-.97l-.918.03a2.04 2.04 0 0 1-.187-.476l-.963.003c.096-.285.232-.397.014-.736-.226-.353-.082-.171-.325.022-.016.012-.037.045-.054.059-.275.214-.333.096-.688.435-.191.183.265.228-.628.226-.018-1.09-.134-2.22.246-2.78.399.225-.402-.368.142.209.199.21-.064.12.333.263.037-1.287-.039-1.22.564-1.46.587-.233.302-.189.782-.545.118-.088.073-.045.212-.152.028-.021.102-.088.13-.108.157-.116-.163-.052.378-.203.299-.083.208-.06.55-.068-.01-1.018.26-.818 1.195-.854.377-.651.206-.246.539-.53l.257-.357c.07-.126.096-.2.172-.303.462-.629 1.02-.437.861-1.029-.492-.21-.803.424-1.287.725-.369.23-.129.053-.512.21-.477.197-.446.355-.748.696l-1.267.756c-1.692.576-1.865 1.456-3.178 1.718ZM26.803 120h19.738c.03-.603.493-.112.687-1.27-.317.011-.163.007-.383.065-.348.093-.069.017-.287.107l-.584.264c-.257.14-.468.318-.413.636-.174-1.131-.343.746-.404-2.731l-.878-.009c-.466.661.225.608-1.035.611.002-.286.02-.586-.165-.817-.344.197-.246.243-.554.426-.69.413-1.607.632-2.262 1.11-.982.715-.76.73-2.344.931l-.744-.907c.21-.072.41-.24.446-.489.073-.497-.053-.201-.174-.59-.284-.912.21-.846-.368-.931-.175.277-.022.594-.36.731-.263-.12-.163-.173-.286-.45l-.074-.194c-.44.096-.362.197-.812.238l.106-2.841c-.008-.025-.022-.059-.031-.084-.191-.512.004-.426-.561-.548 0-.789-.202-1.264-.232-2.143-.015-.448-.074-.725-.305-1.042-.285-.391-.29-.709-.648-1.145-.343-.418-.276-.876-.257-1.427-.176 0-.448.014-.615-.004-.036-.004-.071-.01-.102-.015-.029-.005-.07-.018-.093-.023l-.145-.515.983.026c-.009-.325.03-.895-.152-1.153a.686.686 0 0 0-.057-.069c-.166-.165-.547-.194-.767-.01-.027.023-.09.11-.115.135-.388.391-.4-.201-.424.657-.743.019-.844.207-.885-.382l-.324.342c-.033-.129-.073-.324-.11-.446l-.214-.512c-1.28.001-.713-.055-.96.591-.882-1.017-1.054-.203-1.574-.989l-1.446.358c.138-.656.244.278.38-.783l1.998.011c-.08-.262-.079-.365-.19-.677-.011-.033-.024-.062-.036-.093l-.074-.166c-.056-.164-.061.026-.056-.224.006-.374.242-.133.212-1.036.041-.023.202-.098.227-.114.21-.135.08-.047.242-.203.143-.068.386-.133.55-.21l.386-.224c.593-.358 1.213-.595 1.665-1.089.48-.524 1.363-.352 1.482-1.158.363.122-.073.115.332.08.32-.027.516-.264.798-.38.029-.012.063-.019.09-.031l.307-.195c-.027-.019-.075-.064-.092-.036-.017.029-.07-.027-.095-.033l-.2-.048c-.498-.117-.865-.309-.946-.843l.366-.129c.17-.026.41-.013.585-.014-.002-.362-.034-.837-.007-1.184l.24-.721c.38-.735.877-1.008 1.763-.995-.114.313-.046.165-.207.375-.235.306-.677.399-.777.628.179.108.442.131.759.066l.717-.588.072-.052a2.89 2.89 0 0 1 .072-.051c.022-.015.05-.036.072-.05.023-.014.05-.034.075-.048.025-.014.053-.032.08-.044.358-.172.35-.134.942-.124-.16-.01-.37.008-.543-.023-.877-.156.02-.046-.64-.254.08-.532.257-.504.227-1.352l-.36-.176c-.333-.146.029-.12-.588-.158l-.028-.699c-.429.735.043.71-.935.707.084-.424.1-.337.31-.71l.17-.307c.072-.157.067.096.117-.337-.262-.131-.27-.132-.514.032l-.128-.24c-.012-.034.04-.033-.04-.245l-1.117-.097-.443-1.008-2.186.027c.003-.104-.006-.273.03-.37.117-.327-.086-.135.216-.275-.3-.157-.624-.077-1.06-.085-.195-.216-.347-.576-.688-.699l.146.5c.626 1.002.52.695-.269 1.771-.298.407-.044-.21-.26.345l-.921-.536c-.037-.013-.147-.05-.18-.064-.184-.08-.134-.051-.246-.136.19-.264.449-.395.728-.6.034-.79-.154-.97-.47-1.548-.5.07-.357.168-.88.265l-.16-.204c-.618-.69-.753-.126-.86-.058-.283.182-.197.05-.483.225.28.935-.085.396-.318 1.228-.032.116-.024.165-.066.308l-.032.102c-.01.032-.03.074-.039.1-.009.025-.022.068-.042.098-.668-.167-.375-.34-.388-1.236-.76-.502-.406-.32-.507-1.52l-1.265-.01c-.018-.037-.03-.12-.038-.1l-.25-.375c-.086-.066-.46-.152-.559-.151-.669.003-.571.292-.833.71l-1.006.137c.188-.403.073-.155.279-.386.33-.37-.003-.17.33-.276l-.975.728c-.247.154-.068.066-.335.17-1.21.478-1.286.731-2.357 1.25l-1.123.745c-.623.628-.532.334-.967.725-.626.562-.662.393-1.698 1.078l-.677.393c-.272.253-.443.504-.973.84l-1.017.531c-.004.004-.132.17-.291.3l-4.198 2.547c-1.701.983-.267.141-1.494.688l-.152.08-.164.081-.316.15c-.018.013-.048.032-.064.045-.174.135-.145.169-.268.303l-2.57 1.788c-1.16.623-1.201 1.116-1.924 1.385V120h26.804ZM18.46 77.592l-.234-.165c-.686.03-.335.117-.892.39-.822.404-1.477.025-1.226 1.24.158.766-.182.364-.336.863l.413.488c.016.015.054.045.067.057.014.012.048.035.07.055-.078.234-.19.713-.364.957-.164.228-.29.12-.452.52-.178.445-.187.878-.165 1.314.045.918-.667.65-.108 2.045l.272.7c-.187.458.098.56-.407 1.039-.342.323-.843.331-1.386.656-.275.165-.401.224-.668.296-1.104.297-.813.553-1.639.51-1-.053.04-.126-.845-.28-.202.289-.123.35-.24.562-.714-.022.223-.174-1.227-.058-.018.66-.115.71-.01 1.182-.18.107-.08.062-.297.17-.494.247-.468.12-.704.411-.081.1-.085.161-.162.34-.653.103-1.443-.114-1.132.796l.187.055c.215.013-.004.04.286-.005.202-.031.31-.13.682-.17.682-.092 5.19-2.967 6.385-3.521l5.308-2.775c1.622-.674 3.584-2.106 4.276-2.399.55-.232.985-.477 1.553-.75.276-.133.44-.305.655-.405.99-.463.714-.183 2.395-1.1.858-.47 2.138-1.41 3.257-1.496-.016.321.032.433-.433.834-.712.615-1.458 1.108-2.539 1.142-.413 1-.984.983-1.507 1.404l-.859.582c-.333.26-.341.654-1.623 1.376l-1.955 1.045c-.473.308-.57.138-.986.572l-.696.746c-.707.615-.397.011-1.618.67-.12.064-.337.192-.44.273-.328.257-.417.417-.893.676l-1.159.644c-.023.012-.056.026-.079.039l-.074.043-.502.45c-.577.466-.186-.036-1.111.806-.419.382-.946.322-2.543 1.661-.796.667-1.142.759-2.26 1.468-.106.068-.375.188-.483.241l-1.112.569-.076.045-.566.284c-.212.097-.139.043-.324.149l-1.13.903-.141.097c-.144.104-.04.028-.201.153l-.203.162c-.283.187-.722.361-1.031.537-2.26 1.288-.35.537-2.51 1.916-.9.575-.996.918-2.718 1.978v.677c.723-.269.765-.762 1.925-1.385l2.569-1.788c.123-.134.094-.168.268-.303.016-.013.046-.032.064-.044l.316-.151.164-.081.152-.08c1.227-.547-.207.295 1.494-.688l4.198-2.547c.16-.13.287-.296.291-.3l1.017-.531c.53-.336.701-.587.973-.84l.677-.393c1.036-.685 1.072-.516 1.698-1.078.435-.391.344-.097.967-.725l1.123-.745c1.071-.519 1.148-.772 2.357-1.25.267-.104.088-.016.335-.17l.976-.728.58-.479a4.24 4.24 0 0 1 .544-.394c.332-.196.304-.137.616-.388 1.097-.884 1.489-.558 1.852-1.239.162-.305.006-.446.67-.797.316-.168.192-.1.455-.192.217-.424 2.056-1.635 2.566-1.98.188-.43.333-.283.924-.693l.93-.482c.454-.228.172-.062.4-.242.996-.783.545-.249 1.324-.95l5.091-3.076c.526-.378.905-.61 1.437-.956 1.184-.77 1.099-.499 1.305-1.103-1.166.04-2.696 1.267-3.767 1.74l-1.834.935c-.771.576-4.58 2.215-5.322 2.72-.48.327-2.1 1.213-2.732 1.236-.686.026-.346-.102-.254-.256l-1.394.033-.096.707c-.195-.608-.26-.022-.261-.931l-.239.947c-.297-.12-.168.348-.311-1.106-.09-.908.113-.89-.26-1.069.149-.357.315-.091.379-.292.012-.04.06-.024.087-.042-.264-.251-.244-.422-.24-.72.283-.172.039.021.245-.1.49-.289-.234.265.145-.094.321-.304.001-.102.356-.727.013-.022.038-.047.05-.069.136-.245.13.401.15-.45l-.26-.093c-.033-.007-.072-.012-.104-.017-.084-.014-.263-.011-.354-.014.01-.377.05-.319-.072-.644l-.129-.238c-.205-.305-.282-.27-.559-.365-.125-.043-.16-.05-.285-.1-.023-.008-.076-.002-.093-.043-.016-.04-.063-.026-.09-.046-.026-.435-.071-1.056.142-1.33.503-.643.675.15.867-1.127l.068-.652-1.351.045c.008.676.034.791-.18 1.298-.682.131-.939-.038-1.253.272-.177.173-.08.061-.163.294.165.118.21.118.368.195l.338.165c-.345 2.473.327.909.234 2.886-.788-.025-.526-.153-.844-.596-.292.292-.145.126-.499.333-.914.534-.623.826-.935 1.463-1.113-.113-.967-.152-1.346-1.014Zm10.46-11.854-.242.36c-.612.915-.525.503-1.363 1.073l-1.294.778c-.53.223-.174-.018-.638.294l-1.368.706c-.996.372-.47.271-1.167.721-.473.306-.903.41-1.377.674-.6.335-1.053.435-1.506.863l-.886.792c.286.123.479-.097 1.03.093.202.07.24.117.25.123l.235.149c.131.08.283.171.405.236-.13.816.16.247-.48.6 0 1.47.172.118-.16 1.562-.225.98-.075 1.197.52 1.198 0 1.492.003.639-1.08 1.2 0 .488.02.468-.12.84-.448.19-.5.1-.534.093l-.139-.063c-.028-.017-.144-.148-.174-.173-.269-.228.062-.036-.372-.265.38.862.233.901 1.346 1.014.311-.637.02-.93.935-1.463.354-.207.207-.041.499-.333.318.443.056.571.844.596.093-1.977-.579-.413-.234-2.886l-.338-.165c-.158-.077-.203-.077-.369-.195.083-.233-.013-.12.164-.294.314-.31.57-.14 1.253-.272.214-.507.188-.621.18-1.298l1.351-.045-.068.652c.436-.195-.066-.31.756-.359.297.568.245.433.259 1.256l.335.17c.02.013.046.04.066.054.239.162.071.077.392.194.592.215.311.04.569.621.434-.134-.12-.141.39-.224.392-.063.127.283.798.002.395-.166.43-.377.666-.046.13.182.02.334.106.507.695 0 .799.123 1.366.13.002-.44-.091-.827.098-1.214.013-.025.036-.05.05-.075.406-.72.07-.065.313-.882.01-.03.024-.059.033-.088.008-.028.024-.057.032-.085.079-.272.038-.028.075-.391.035-.345-.107-.862.538-.96.34-.053.526.036.785.218l.27-.472c1.304-.05.866-.254.935-2.166l.95-.693c-.062-.261-.242-.36.107-.996l.41-.789c.097-.233.05-.138.175-.315.492-.7-.09.391.156-.18-.005-.704-.027-.227-.207-.612l-.006-.316c-.719.002-.866.036-.872-.632a.45.45 0 0 1 .093-.043l.779-.102c.12-.4-.197.445-.035-.272.155-.681.6-.32.617-1.404l1.413.102c.298-.605.161-.835.326-1.231.012-.027.03-.055.044-.08.467-.923.077-.125.37-1.062.01-.028.025-.057.034-.086.17-.569-.016-.552.191-.982-.543-.247-.274.173-.46-.392l.618-.458c.518-.317.12-.08.484-.461l2.323-1.763c.66-.517.803-.282 1.138-1.005-.417.14-1.301.801-1.588 1.044-.747.635-2.546 1.734-2.926 2.122-.253.257-.333.45-.568.605-.187.122-.198.081-.393.229-1.271.958-.552.125-1.438 1.06-.557.586-.793.267-1.548.998-.401.39-.152.297-.682.582-.868.466.224.043-1.174.756-.725.37-1.403.666-1.185 1.362.448.165.805-.017 1-.028-.043.236-.067.072-.364.437-.443.546 0 .324-.537.487-.57.172-.982.263-1.18.763ZM5.753 85.768c-.705.129-.194.558-.97.865-.454.18-.952.094-1.499.317-3.269 1.333-1.97 1.557-1.632 2.45-.397.649-.935.75-1.653 1.042v4.643c.85-.204 2.928-1.27 3.903-1.778 2.874-1.502 3.165-1.163 3.572-1.328.498-.202.304-.17.468-.418-.372.04-.48.138-.682.17-.29.044-.071.017-.286.004l-.187-.055c-.311-.91.479-.693 1.132-.796.077-.179.08-.24.162-.34.236-.29.21-.164.704-.41.216-.109.116-.064.297-.171-.105-.472-.008-.523.01-1.182 1.45-.116.513.036 1.227.058.117-.212.038-.273.24-.561.886.153-.155.226.845.278.826.044.535-.212 1.639-.509.267-.072.393-.131.668-.296.543-.325 1.044-.333 1.386-.656.505-.478.22-.581.407-1.038l-.272-.7c-.559-1.396.153-1.128.108-2.046-.022-.436-.013-.87.165-1.314.161-.4.288-.291.452-.52.174-.244.286-.724.364-.957-.022-.02-.056-.043-.07-.055l-.067-.057-.413-.488c.154-.5.494-.097.336-.863-.251-1.215.404-.836 1.226-1.24.557-.273.206-.36.892-.39l-.466-.565c-.473.187.08.2-.829.226-.347.01-.74-.003-1.091-.026-.248.407.03.311-.497.443-.003 0-.457-.028-.41.61.048.673.197-.5.232 1.972-.314.209-.187.14-.613.267l.199 1.126-.278.187a1.84 1.84 0 0 1-.077.038l-.082.034-.274.084c-.747.255-.544.498-.754 1.333-.173.686-.135.027-.234.696-.796-.088-.423-.09-1.268.049-.884.145-.417-.337-1.168-.11-.439.134-.275.219-.508.355-.665.39-.915-.146-.924 1.236-.408.055-.716.242-.904.05-.17-.176-.162-.75.413-1.128l1.067-.744c.428-.293.366-.097.637-.564.164-.283.074-.146.196-.415l.114-.252.067-.178c.162-.456.145-.556.599-.94.543-.46.343-.26.4-.451-.195-.155-.054-.275-.375-.107l-1.14.979c-.193.34.01.685-.263 1.185-.203.37-.384.357-.803.655-.56.397-1.257.605-1.781 1.1-.711.674-.625.702-1.657 1.196ZM43.1 54.223c1.312-.261 1.485-1.142 3.177-1.718l1.267-.756c.302-.34.27-.5.748-.695.383-.158.143.019.512-.211.484-.3.796-.936 1.287-.725.16.592-.399.4-.861 1.03-.076.102-.102.176-.172.302l-.257.358c-.333.283-.162-.122-.539.529-.935.036-1.205-.164-1.195.854-.342.008-.251-.015-.55.068-.54.151-.221.087-.378.203-.028.02-.102.087-.13.108-.14.107-.094.064-.212.152-.48.356-.195.312-.782.545-.603.24-.527.173-.564 1.46-.397-.143-.134-.053-.333-.263-.544-.577.257.016-.142-.21-.38.562-.264 1.692-.246 2.781.893.002.437-.043.628-.226.355-.339.413-.22.688-.435.017-.014.038-.047.054-.06.243-.192.099-.374.325-.021.218.34.082.45-.014.736l.963-.003c.065.228.098.3.187.475l.919-.03-.001.97.842-.013c-.112.623-.083.263-.147.474-.068.224-.07-.129-.09.338 1.237.45 1.647.138 3.037.164l.328.513c.014.026.028.056.04.082l.072.17c.435.981.699.106.723 1.143.855-.008.412.048.618.208l.02.72c-.044-.032-.21.148-.124-.363.14-.831-.03-.253.313-.566l.098.963.087.002v-15.11l-14.41-.052c.162.128-.035.05.26.119.86.202 11.087-.217 12.928.111-.299.03-1.794 1.074-2.22 1.37-.02.015-.05.035-.07.048l-.073.047c-.727.476-.708.615-1.5 1.02-.298.152-.35.175-.586.392-.813.749-1.464.866-2.302 1.423-.439.291-2.078 1.331-2.224 1.58ZM5.754 85.768c1.032-.494.946-.522 1.657-1.195.524-.496 1.222-.704 1.78-1.101.42-.298.6-.285.804-.655.273-.5.07-.844.263-1.185l1.14-.979c.32-.168.18-.048.375.107-.057.19.143-.009-.4.45-.454.385-.437.485-.599.94l-.067.179-.114.252c-.122.269-.032.132-.196.415-.27.467-.21.272-.637.564l-1.067.744c-.575.379-.583.952-.413 1.127.188.193.496.007.904-.049.009-1.382.26-.846.924-1.236.233-.136.07-.221.508-.355.751-.227.284.255 1.168.11.845-.139.472-.137 1.268-.049.1-.669.061-.01.234-.696.21-.835.007-1.078.755-1.333l.273-.084.082-.034a1.84 1.84 0 0 0 .077-.038l.277-.187-.198-1.126c.426-.128.3-.058.613-.267-.035-2.472-.184-1.3-.233-1.971-.046-.64.408-.61.411-.611.527-.132.25-.036.497-.443.35.023.744.035 1.091.026.908-.026.356-.039.829-.226l.466.566.234.164c.434.23.103.037.372.265.03.025.146.156.174.173l.139.063c.034.007.086.096.534-.094.14-.371.12-.35.12-.839 1.083-.561 1.08.292 1.08-1.2-.595-.001-.745-.217-.52-1.198.332-1.444.16-.092.16-1.562.64-.353.35.216.48-.6a8.305 8.305 0 0 1-.405-.236l-.235-.149c-.01-.006-.048-.054-.25-.123-.551-.19-.744.03-1.03-.093l.886-.792c.453-.428.905-.528 1.506-.863.474-.264.904-.368 1.377-.674.697-.45.171-.349 1.167-.72l1.368-.707c.464-.312.108-.071.638-.294l1.294-.778c.838-.57.75-.158 1.363-1.074l.241-.36c-.602.178-.66.373-1.102.725l-3.14 1.774c-.207.111-.391.172-.569.277l-5.74 3.254c-.476.284-.645 1.13-1.6 1.628l-2.704 1.398c-1.434.93-.656.94-.27 1.16-.553.538-.998.695-1.685 1.082-.81.455-1.107.577-1.106 1.74.48.349.88.372.842 1.265-.217.227-.207.163-.444.354-1.774 1.433-1.258 1.062-1.546 2.026-.153.513-.347.441-.727.755-.904.747-1.532.969-1.78 1.213-1.285 1.26-.682.56-1.381 1.16-.171.147-.048.02-.213.22ZM59.574 120H104.325c-.105-.787.139-.168-.489-.48-.001-.251-.06-.667.067-.815.191-.223-.027.271.375.328.598.086.385-1.023.375-1.433l-.074-.052-.361-.26c-.122-.072-.077-.045-.219-.102-7.718-5.638-37.173-5.422-39.696-15.034-.081-.311-.029-.053-.111-.377-.243-.953.348-.994.4-1.067.179-.252.112-.2.118-.592.21-.019.42-.053.58-.101l.283-.101c.16-.038.123-.033.3-.046.504-.039 1.184.002 1.71-.003L67.578 99c-.191-.07.014-.044-.156-.004-.019.005-.181.095-.198.101l-.004-.558.957-.002c.003-.52.138-1.326-.13-1.698-.429-.596-.998.301-1.687.473-.175-.18-.39-.336-.479-.593-.432.113-.163.119-.594.224-.01-.673.088-.446-.247-.583l-1.653-.257c-.012-.877.012-.697.213-1.303l-.174-.08c-.275-.17-.133.063-.26-.23-.19-.438.105-.328.117-.338l.934-.415c-.174-.453.131-.124-.412-.358-.275-.119-.12.032-.422-.139l-.003-.72c.254-.141.207-.05.502-.186 1.747-.799 1.451-.438 1.941-.236.431.177 1.389.17 1.757.198.18-.443.197-.23-.116-.471l.71-.145c-.186-.508-.423-.843-.965-.971-.004-.208.026-.353-.06-.538-.1-.215-.451-.325-.688-.513-.22-.173-.108.023-.244-.258.154-.103.011-.049.28-.106.258-.055-.058-.006.22-.03.522-.044 1.03.112 1.457.152l-.03-1.43-.955-.013c-.028-.638-.127-.335-.002-.853-.524.201-.707.366-1.287.1-1.14-.52-.7-.593-1.214-.834-.446-.209-.741-.693-1.087-.844a.914.914 0 0 0-.54-.04c-.002 0-.489.301-.514.318l-1.036.767c-.446.299-1.089.383-1.504.65l-3.252 2.035c-.252.209-.305.333-.63.404-1.696.372-.773.528-1.886 1.025l-.827.39c-.44.333.07.082-.375.328l-.596.25c-.24.14-.1.113-.43.283l-.422.179a4.55 4.55 0 0 0-.082.04l-.505.29c-.254-.364-.06-.867-.06-1.322h-.9c-.084-.174-.103-.381-.191-.587-.64-.015-1.325.12-1.729.373-.355-.593-.3-.322-1.588-.342.409.725.39-.107.47.58l-.39.323c-.305.21.027.14-.565.158.002.448-.077.315.115.597-.645-.006-.83.181-1.313.238-.256.03-.402.017-.589-.062-.258-.11-.149-.186-.488-.288-.127.378.047.199-.531.357-.371-.602-.061-.538-.615-1.07-.183-.175-.276-.218-.343-.484-.055-.217-.065-.573-.089-.748-.144-1.055.138-1.894.028-3.184-.263-.16-.19-.068-.514-.185l-1.125-.676c-.3-.303-.58-.755-.623-1.171-.015-.143.003-.447.002-.608-.026-.018-.067-.03-.087-.04l-.757-.266c-.717.046-.166.159-.456.579-.294.425-.665-.147-.922-.334-.018-.013-.311-.172-.312-.173a4.22 4.22 0 0 0-.414-.188c-.832-.32-.528-.668-1.223-1.054-.023-.013-.055-.028-.078-.04-.458-.27.13-.205-.66-.318-.08-.011-.35-.007-.458-.012.044-.663.23-.217-.115-.832-.277.336-.26.587-.28.621-.5-.046-.944-.303-1.292-.328-.095-.007.082-.26-.207.05-.216.233-.128.191-.118.594l.837.001c-.102.891-.591.176-.9.838-.473-.01-.452-.158-.788.022l-.005-.982c-.7 0-1.597-.16-2.025.472-.013.02-.044.106-.062.141l-.79-.001c.056-.35.285-.419.505-.67-.234-.218.287-.208-.265-.18-.126-.202.114-.19-.264-.052-.648.236-.516.497-1.172.519.148.373.217.281.278.765-1.32-.048-.918.005-1.65.448-.264.092-.14.024-.457.192-.663.351-.507.492-.67.797-.362.68-.754.355-1.851 1.239-.312.25-.284.192-.616.388a4.24 4.24 0 0 0-.544.394l-.58.479c-.334.105 0-.094-.331.276-.206.23-.091-.017-.28.386l1.007-.137c.262-.418.164-.707.833-.71.1 0 .473.085.56.15l.25.375c.007-.019.02.064.037.1l1.265.012c.1 1.2-.253 1.017.507 1.519.013.895-.28 1.07.388 1.236.02-.03.033-.073.042-.098.01-.026.029-.068.04-.1l.031-.102c.042-.143.034-.192.066-.308.233-.832.598-.293.318-1.228.286-.175.2-.043.483-.225.107-.069.242-.632.86.058l.16.204c.523-.097.38-.196.88-.265.316.578.504.758.47 1.548-.28.205-.538.336-.728.6.112.085.062.057.245.136.034.015.144.051.18.064l.921.536c.217-.555-.037.063.261-.345.788-1.076.895-.769.269-1.772l-.146-.499c.341.123.493.483.688.699.436.008.76-.072 1.06.085-.302.14-.1-.052-.217.275-.035.097-.026.266-.029.37l2.186-.027.443 1.008 1.117.097c.08.212.028.211.04.244l.128.24c.244-.163.252-.162.514-.031-.05.433-.045.18-.118.337l-.17.307c-.208.373-.225.286-.309.71.978.003.506.028.935-.707l.028.699c.617.037.255.012.588.158l.36.176c.03.848-.148.82-.228 1.352.662.208-.236.098.64.254.174.031.385.013.544.023-.592-.01-.584-.048-.942.124-.026.012-.055.03-.08.044-.024.014-.052.034-.075.048-.023.014-.05.035-.072.05a2.89 2.89 0 0 0-.072.05l-.072.053-.717.588c-.317.065-.58.042-.759-.066.1-.229.542-.322.777-.628.161-.21.093-.062.207-.375-.886-.013-1.383.26-1.764.995l-.24.72c-.026.348.006.823.008 1.185-.176 0-.416-.013-.585.014l-.366.129c.08.534.447.726.945.843l.201.048c.024.006.078.062.095.033.017-.028.065.017.092.036l-.306.195c-.028.012-.062.02-.09.03-.283.117-.479.354-.799.382-.405.034.031.04-.332-.081-.12.806-1.002.634-1.482 1.158-.452.494-1.072.731-1.665 1.089l-.386.224c-.164.077-.407.142-.55.21-.162.156-.033.068-.242.203-.025.016-.186.091-.227.114.03.903-.206.662-.212 1.036-.005.25 0 .06.056.224l.074.166c.012.031.025.06.036.093.111.312.11.415.19.677L27 104.709c-.136 1.061-.242.127-.38.783l1.446-.358c.52.786.692-.028 1.574.989.247-.646-.32-.59.96-.591l.215.512c.036.122.076.317.11.446l.323-.342c.04.589.142.401.885.382.024-.858.036-.266.423-.657.026-.025.089-.112.116-.135.22-.184.602-.155.767.01.02.02.04.047.057.069.183.258.143.828.152 1.153l-.983-.026.145.515c.022.005.064.018.093.023.03.005.066.011.102.015.167.018.439.004.615.004-.019.551-.086 1.009.257 1.427.358.436.363.754.648 1.145.231.317.29.594.305 1.042.03.879.232 1.354.232 2.143.565.122.37.036.56.548.01.025.024.059.032.084l-.106 2.841c.45-.041.372-.142.812-.238l.074.194c.123.277.023.33.286.45.338-.137.185-.454.36-.731.579.085.084.019.368.931.121.389.247.093.174.59-.037.249-.236.417-.446.489l.744.907c1.584-.201 1.362-.216 2.344-.931.655-.478 1.573-.697 2.262-1.11.307-.183.21-.229.554-.426.184.231.167.531.165.817 1.26-.003.569.05 1.035-.611l.878.009c.06 3.477.23 1.6.404 2.731-.055-.318.156-.496.413-.636l.584-.264c.218-.09-.061-.014.287-.107.22-.058.066-.054.383-.065-.194 1.158-.658.667-.687 1.27h13.032Zm55.884 0h1.952c.236-.288-.129.029.269-.301.142-.117.113-.114.342-.179-.066-.118-.322-.259-.157-.739.188-.548.077-.198.216-.366.013.022.026.037.029.073l.211.547c.017-.026.027-.105.031-.089l.453-.746-.352-.066c-.225.012-.18.027-.381.09.077-.816.758-.465.279-1.211.459.142-.108-.034.292.155.318.151.196.087.382.116.58.093.03-.246.575.285.051-.586-.004-1.189.401-1.76v-1.688c-.46.096-.679.232-.743.935-.446-.006-.494-.276-1.246.434-.451.426-.379.763-.299 1.51-.591.351-.912.224-.655 1.072l.128.363c.005-.017.024.057.029.088-.457-.155-.499-.263-.784-.587-.261-.297-.416-.526-.814-.336.091.611.399.405.717.72-.264.233-.188.618-.255.438-.007-.02-.024.065-.038.096-.583-.302-.058-.204-.669-.376.126.363.295.344.069.691-.153-.243-.055-.137-.1-.524-.033-.288.101-.178-.174-.396-.212.158-.2.194-.326.431.165.496.182.074.345.634.092.314.014.22.073.392l.2.294Zm1.952 0H120v-4.191c-.405.571-.35 1.174-.401 1.76-.545-.531.005-.192-.575-.285-.186-.029-.064.035-.382-.116-.4-.189.167-.013-.292-.155.479.746-.202.395-.279 1.211.201-.063.156-.078.381-.09l.352.066-.453.746c-.004-.016-.014.063-.031.089l-.211-.547c-.003-.036-.016-.051-.029-.073-.139.168-.028-.182-.216.366-.165.48.091.621.157.739-.229.065-.2.062-.342.179-.398.33-.033.013-.269.301Z" fill="url(#a)"/><path fill-rule="evenodd" clip-rule="evenodd" d="m38.885 48.114 14.41.051v15.111l-.002 20.944 13.69.03.005-36.209 14.21-.009.008-12.286-15.96.002H38.897l-.013 12.366Z" fill="#000"/><defs><linearGradient id="a" x1="0" y1="60" x2="120" y2="60" gradientUnits="userSpaceOnUse"><stop stop-color="#E179B4"/><stop offset="1" stop-color="#7ACCFB"/></linearGradient></defs></svg>