<svg width="120" height="120" fill="none" xmlns="http://www.w3.org/2000/svg"><path fill-rule="evenodd" clip-rule="evenodd" d="M13.713 81.943c5.127 10.682 13.34 18.779 23.84 24.063 10.946 5.509 25.816 6.629 37.68 2.852 4.641-1.478 6.222-2.478 10.11-4.47 3.22-1.65 10.087-7.032 12.147-9.722.88-1.15 2.739-2.725 3.124-4.165-3.377 0-5.355-.348-8.679-.348-9.41 0-17.82 1.191-25.662 2.802-5.238 1.076-17.403 4.764-21.893 6.918l-.695 5.554c-55.771-26.761-27.708-94.795 13.191-93.376-.29.605-1.363 7.913-1.388 9.025 7.291-1.699 11.123-3.631 20.887-4.8 2.79-.334 4.952-.754 7.924-.754-23.449-14.135-49.108-4.016-61.747 9.76C8.499 40.6 4.677 63.12 13.712 81.942v.001Z" fill="#08315C"/><path fill-rule="evenodd" clip-rule="evenodd" d="m45.074 96.402 10.311-3.92c6.724-2.677 16.425-4.242 23.553-5.26 7.186-1.026 17.29-.789 24.452-.193 1.391-2.628 4.959-8.82 5.207-11.802-2.679-.06-7.352-1.041-12.496-1.041-8.953 0-14.236-.2-23.31 1.336-3.95.668-23.904 4.915-25.545 6.737-.501.556-2.172 12.236-2.172 14.143ZM47.503 78.351l9.85-3.34c10.857-3.653 28.056-5.973 39.79-5.34l12.843 1.044c.042-1.884 1.041-5.183 1.041-11.108-17.139-1.352-27.177-2.899-47.56 2.078l-12.74 3.574c-1.414.48-1.44.499-1.714 2.105l-1.51 10.987ZM49.934 61.69l9.327-3.17c3.22-.997 6.705-1.735 10.372-2.471 10.734-2.157 30.01-3.526 41.047-.955 0-1.83-.839-7.156-1.507-8.907-.49-1.284-.683-1.064-2.182-1.288-17.785-2.666-37.359.154-53.912 5.357-2.096.659-1.63-.03-2.347 4.942-.283 1.964-.798 4.642-.798 6.492Z" fill="#08315C"/><path fill-rule="evenodd" clip-rule="evenodd" d="M53.405 36.35c-.367 1.573-.503 3.375-.754 5.146-.223 1.57-.635 3.421-.635 5.267 5.266-1.227 8.816-3.056 16.863-4.659 9.754-1.942 23.185-3.08 33.525-1.991 1.497.157 3.602.402 4.805.402-.478-.903-.827-1.856-1.337-2.829l-3.03-5.301c-.691-1.071-.949-1.937-2.576-1.937-17.307 0-21.894-.23-39.02 3.677-2.754.629-5.323 1.638-7.841 2.224ZM55.14 23.159c0 1.53-.442 3.566-.634 4.92-.251 1.77-.388 3.572-.754 5.146.034-.003 14.829-4.113 20.458-4.881 9.082-1.24 15.222-1.367 24.32-1.367-.46-1.722-5.721-6.09-7.285-7.294-3.198-2.46-2.167-1.825-4.838-1.735-11.513.39-20.112 2.612-31.267 5.21Z" fill="#08315C"/></svg>