<svg width="120" height="120" fill="none" xmlns="http://www.w3.org/2000/svg"><path fill-rule="evenodd" clip-rule="evenodd" d="m110.863 56.651 2.413 13.034-23.495-8.78V48.143l21.082 8.51Z" fill="#012284" fill-opacity=".941"/><path fill-rule="evenodd" clip-rule="evenodd" d="m88.766 62.446 18.542 24.956-12.32 12.129-19.557-29.354 13.335-7.73ZM42.95 39.673l8.588-11.041-23.02-10.954-11.239 8.985 25.67 13.01Z" fill="#00AAFA" fill-opacity=".859"/><path fill-rule="evenodd" clip-rule="evenodd" d="M6.724 45.301v20.765l38.417-7.684-4.826-17.081-33.591 4Z" fill="#012284" fill-opacity=".941"/><path fill-rule="evenodd" clip-rule="evenodd" d="M16.884 74.004 33.267 92.8l26.098-25.59-14.224-14.67-28.257 21.464Z" fill="#00AAFA" fill-opacity=".859"/><path fill-rule="evenodd" clip-rule="evenodd" d="m67.748 66.066-14.606-7.303-14.01 25.208 18.873 9.844 9.742-27.75Z" fill="#C50083" fill-opacity=".859"/><path fill-rule="evenodd" clip-rule="evenodd" d="m61.27 69.686 2.286 39.116 23.75-3.429-6.985-35.688H61.27Z" fill="#012284" fill-opacity=".941"/><path fill-rule="evenodd" clip-rule="evenodd" d="m85.337 39.38 6.032 10.422h17.462l-7.302-11.121-16.192.698Z" fill="#00AAFA" fill-opacity=".859"/><path fill-rule="evenodd" clip-rule="evenodd" d="m78.986 35.442 10.986-3.683 7.112 7.716-12.192 4.766-5.906-8.799Z" fill="#C50083" fill-opacity=".859"/><path fill-rule="evenodd" clip-rule="evenodd" d="m89.495 26.87-5.969 10.096-12.382-8.509 7.842-8.445 10.51 6.858Z" fill="#012284" fill-opacity=".941"/><path fill-rule="evenodd" clip-rule="evenodd" d="m64.095 14.805-1.524 12.382 12.562 2.784 1.09-12.046-12.128-3.12Z" fill="#00AAFA" fill-opacity=".859"/><path fill-rule="evenodd" clip-rule="evenodd" d="m53.236 16.392 3.62 13.579h11.176l-4.763-13.579H53.236Z" fill="#C50083" fill-opacity=".859"/><path fill-rule="evenodd" clip-rule="evenodd" d="m33.73 13.675 13.335 16.563 12.07-3.8-12.703-15.24-12.703 2.477Z" fill="#012284" fill-opacity=".941"/><path fill-rule="evenodd" clip-rule="evenodd" d="m46.633 23.182-7.303 4.006 12.51 10.858 7.366-5.017-12.573-9.847Z" fill="#80BD01" fill-opacity=".859"/><path fill-rule="evenodd" clip-rule="evenodd" d="M25.375 29.97 19.882 41.3l26.226 5.715 2.571-11.208-23.304-5.836Z" fill="#C50083" fill-opacity=".859"/><path fill-rule="evenodd" clip-rule="evenodd" d="m76.35 38 2.636-9.511-7.144-3.969-4.508 7.938L76.35 38ZM81.844 44.586l1.27 8.89 14.033 1.541-1.397-8.272-13.906-2.159ZM67.748 60.859l6.54 19.621 11.05-2.794-6.732-18.923-10.858 2.096ZM51.047 45.873l-18.67 6.922L38.22 64.16l19.785-8.319-6.958-9.969Z" fill="#80BD01" fill-opacity=".859"/><path fill-rule="evenodd" clip-rule="evenodd" d="m87.305 55.017-6.35 7.43L99.94 80.48l5.08-11.859-17.716-13.604Z" fill="#C50083" fill-opacity=".859"/></svg>