<svg width="120" height="120" fill="none" xmlns="http://www.w3.org/2000/svg"><path fill-rule="evenodd" clip-rule="evenodd" d="M0 120h120V0H0v120Z" fill="#1F1760"/><path fill-rule="evenodd" clip-rule="evenodd" d="M52.678 42.702c1.178.913.58 10.105.583 11.538l.198 37.038 13.09.046.243-45.743c-.007-2.804-.024-2.17.538-2.831 6.754-7.88 37.709-.182 12.532 33.275a229.589 229.589 0 0 1-5.05 6.474c-2.657 3.29-3.397 2.902-2.616 8.962l20.629.037.354-6.603-9.823-.648C87.2 77.794 104.526 63.36 101.1 48.15c-1.474-6.544-7.277-12.08-12.142-14.705-8.672-4.68-13.368-2.91-22.16-.787l-.098-3.805-13.349-.01-.14 3.818c-8.845-2.166-13.489-3.868-22.17.787-4.78 2.563-10.663 8.138-12.155 14.742-2.415 10.695 5.828 21.091 11.567 28.391 1.93 2.456 4.688 5.022 6.2 7.657l-9.774.578.254 6.537 20.682.165c1.005-7.165-.9-6.48-7.657-15.52-2.855-3.819-6.763-9.413-8.558-14.98-6.542-20.284 15.01-24.913 21.078-18.316Zm2.452-5.353C40.017 23.393 6.665 42.051 28.976 70.868c2.245 2.899 3.837 4.93 6.249 7.665 1.641 1.862 5.57 5.9 6.674 7.828-2.104.22-4.143.436-6.291.663-1.727.182-4.962-.113-5.817 1.296l15.38.569c0-7.171-16.215-17.575-17.33-32.716-.599-8.13 3.29-13.879 8.398-16.583 8.7-4.608 13.361-2.106 19.372 1.274l.222 47.782 8.313.133.152-47.5c4.736-4.861 12.486-5.281 19.164-1.868 5.211 2.664 9.18 8.224 8.744 16.288-.375 6.91-4.283 13.24-7.437 17.56-3.79 5.192-9.926 11.486-9.913 15.603l14.328-.093c1.168-.284.347.072 1.05-.449-.866-1.377-10.148-1.76-12.126-1.946 4.205-6.863 21.746-20.187 20.419-36.002-1.23-14.638-22.104-24.047-33.656-13.003-.767.506-1.042.36-1.042.36l-.064-5.648-7.322.015-.425 5.659s-.32.259-.888-.406Z" fill="#F6FAFE"/></svg>