<svg width="120" height="120" fill="none" xmlns="http://www.w3.org/2000/svg"><path fill-rule="evenodd" clip-rule="evenodd" d="M26.364 60.633c3.354-14.162 21.338-22.977 35.2-24.121 0 0-6.625 27.558-7.283 28.55-15.533 3.338-21.283-.952-27.917-4.43Zm.916-11.912c-1.543 1.507-3.807 4.418-5.122 5.43-2.742-3.575-1.93-11.179-.825-15.593 2.995-11.962 14.751-23.061 27.68-25.511 5.881-1.372 15.456-1.628 16.92 3.683.753 2.732-2.664 15.79-3.927 18.092-12.092 1.803-23.967 3.14-34.726 13.9Zm9.629-35.667C18.36 20.802 4.803 44.775 18.33 59.69c-1.395 4.283-9.163 13.624-6.582 27.004 5.6 29.039 48.25 31.003 63.871 7.71l-1.864-3.708c-2.21 2.139-5.201 9.507-14.871 14.185-14.67 7.096-32.995.78-37.831-16.165-2.078-7.28-.251-18.59 3.22-24.387 3.292.183 5.255 3.384 16.085 4.218 5.937.195 8.166-.232 13.39-.825-1.488 7.557-3.399 7.007-6.115 10.117 2.625.376 5.325-.092 7.984.09 7.842.534 13.199 2.017 22.369-.101C87.36 75.663 93.965 71.543 97.94 65.2c2.198-3.509 3.559-8.467 2.334-13.383-1.153-4.63-3.75-7.552-6.588-9.892-6.002-4.95-16.084-7-25.68-6.925l4.808-19.225c13.863 1.915 22.76 7.116 35.958-1.216l-6.532-4.71c-13.356 13.236-40.69-7.992-65.331 3.205Zm23.373 50.61c7.311-3.692 7.843-8.328 10.983-14.194 1.254.412 1.39.77 2.596 1.297C72.373 60 63.015 64.41 59.395 66.521c0 0-.539 2.037-1.116 4.776-1.566 5.844 15.414 8.195 25.106 1.786 14.06-9.3 11.655-26.439-1.496-33.328-3.453-1.809-9.868-3.748-14.545-3.037l-7.062 26.947Z" fill="#1A3A85"/></svg>