<svg width="120" height="120" fill="none" xmlns="http://www.w3.org/2000/svg"><path fill-rule="evenodd" clip-rule="evenodd" d="m18.045 99.897 83.901.016.008-79.826H18.069l-.024 79.81Z" fill="#0271C1"/><path fill-rule="evenodd" clip-rule="evenodd" d="M46.3 58.893c5.892-3.432 19.923-7.881 19.084 2.243-.909 10.964-14.18 24.934-23.102 16.169-7.446-7.314-1.441-19.8 3.61-26.653.802-1.088 2.614-3.038 2.86-4.452-1.22.756-1.918 1.422-3.035 2.213-7.526 6.754-14.474 14.02-15.287 24.8-1.219 16.169 11.354 23.194 24.398 17.553 7.998-3.459 18.834-14.978 18.365-27.239-.542-14.18-14.391-13.4-23.853-7.029-.73.492-2.764 2.294-3.04 2.395Z" fill="#FCFDFE"/><path fill-rule="evenodd" clip-rule="evenodd" d="M75.821 53.87c9.38-1.568 20.97-18.912 8.152-23.047-9.77-3.152-35.83 4.745-37.514 1.164-.264-3.077 2.015-4.576 2.375-4.678-9.681 2.601-16.924 15.63-10.462 17.876 3.851 1.34 21.62-2.274 31.844-1.363 16.52 1.473 6.373 8.915 5.605 10.049Z" fill="#FCFDFE"/></svg>