<svg width="120" height="120" fill="none" xmlns="http://www.w3.org/2000/svg"><path fill-rule="evenodd" clip-rule="evenodd" d="M54.281 46.742c2.892.579 3.965.288 7.252 1.9 4.13 2.026 7.294 5.03 9.341 9.195 3.442 7.002 1.996 26.147 2.009 34.605l19.206.07c.89-6.208.89-27.38-1.313-35.758C87.31 43.578 76.948 32.96 63.88 29.162c-1.651-.48-6.025-1.59-7.773-1.365-.735-.499-25.565-.285-28.629-.237l-.004 19.148 26.807.034ZM27.61 92.461l18.832.05c.213-1.631.041-12.646.054-16.177-.002-3.112-.002-3.148-2.964-3.155-2.895-.01-15.401-.163-16.074.15-.146.951-.044 14.344-.044 16.77 0 .635-.223 1.966.196 2.362Zm22.65-.227c.132.263-.238.287.993.263 3.321-.064 16.509.129 17.948-.045-.262-27.358.01-27.85-1.538-32.383-2.035-4.525-6.546-8.313-12.001-9.344-2.557-.484-10.846-.289-13.958-.289-4.729 0-9.497-.06-14.22.005l-.003 19.137c3.826-.007 7.62 0 11.414 0 12.666 0 11.366.472 11.366 22.656Z" fill="#EB1C2E"/></svg>