<svg width="120" height="120" fill="none" xmlns="http://www.w3.org/2000/svg"><path fill-rule="evenodd" clip-rule="evenodd" d="M0 0h120v120H0V0Z" fill="#E3350E"/><path fill-rule="evenodd" clip-rule="evenodd" d="M0 120h120V0H44.166l27.32 39.375c-.451 1.066-7.61 11.21-8.505 12.358L54.32 63.932c-1.057 1.704-2.356 3.297-3.472 4.965-1.177 1.76-2.428 3.148-3.522 4.907-.433.697-.248.538-.836 1.279l-2.66 3.638H14.475c.47-.894 1.063-1.552 1.623-2.387l3.516-4.91c.58-.844 1.03-1.663 1.692-2.542L38.58 44.446c1.186-1.831 2.365-3.126 3.493-5.07l-6.854-9.902c-.642-.916-.872-1.475-1.609-2.384L14.73 0H0v120Zm76.07 0h29.462c-.608-1.6-24.117-34.43-27.329-39.375 9.217-13.128 18.572-26.244 27.619-39.477-8.036.209-16.972-.03-25.197-.047-4.465-.009-3.828-.752-6.732 3.733l-2.13 3.024C68.766 52.01 63.91 59.305 61.29 62.696c-3.16 4.09-7.467 10.963-10.584 14.962-1.234 1.583-2.098 2.324-1.737 2.921 1.373 2.272 21.257 30.544 27.1 39.421Z" fill="#141515"/></svg>