<svg width="120" height="120" fill="none" xmlns="http://www.w3.org/2000/svg"><path fill-rule="evenodd" clip-rule="evenodd" d="m45.317 47.789-.084-7.682-18.605-.008.03 79.695 18.425-.004.043-28.027c1.972 1.105 4.7 5.353 13.948 7.864 10.814 2.936 24.809.014 30.687-11.347 2.61-5.042 3.607-11.755 3.61-18.56.009-13.892-3.905-24.842-14.977-28.996-8.96-3.362-18.857-2.382-27.018 2.381-1.687.985-5.422 3.604-6.059 4.684Zm11.254 6.358c-4.994.712-7.783 1.629-9.66 5.416-1.602 3.235-1.942 8.87-1.578 13.225.885 10.582 6.424 13.239 17.634 12.237 4.658-.416 7.948-2.011 9.572-5.462 2.222-4.725 3.138-19.808-3.334-23.695-2.952-1.773-8.85-2.26-12.634-1.721Z" fill="#143254"/><path fill-rule="evenodd" clip-rule="evenodd" d="m26.742 8.046-.086 19.84 64.161-6.135c.058.22.144-21.545.144-21.545l-64.22 7.84Z" fill="#E31B40"/></svg>