<svg width="120" height="120" fill="none" xmlns="http://www.w3.org/2000/svg"><path d="M120 0H0v120h120V0Z" fill="url(#a)"/><path fill-rule="evenodd" clip-rule="evenodd" d="M62.729 95.454c.272.05 1.633-.476 1.976-.624 2.043-.884 7.664-3.242 9.483-3.852l11.542-4.7c1.167-.569 2.274-1.125 3.108-2.228.235-.312.27-.463.512-.835.217-.335.291-.48.47-.87.324-.7.495-1.826.7-1.886l.06-36.368c-.006-.923.18-4.356-.41-4.615-.236-1.63-3.062-3.485-4.343-4.048l-12.803-5.551L64.5 26.14c-1.5-.66-2.857-1.237-4.355-1.883-2.662-1.147-5.272-2.36-7.932-3.52L40.86 15.75c-1.265-.53-2.54-1.064-3.724-1.625-1.258-.597-2.46-1.374-4.261-1.178-3.7.402-3.68 4.563-3.332 7.562.327.225.755.305 1.1.465.395.184.762.436 1.067.56C49.288 28.72 66.522 36.513 83.945 43.98c-.05.1-.087.238-.138.385-.397-.023-5.743 2.219-6.955 2.68-.267.1-.59.214-.897.333-1.312.512-.454.832-2.501-.147-1.003-.48-2.274-.924-3.357-1.44-9.502-4.17-19.377-8.003-28.684-12.465-.547-.263-1.134-.468-1.745-.721-2.018-.836-4.524-2.061-6.718-2.945-.85-.343-2.96-1.345-3.416-1.358-.142 1.686-.025 9.444-.025 11.785 0 3-.3 8.747.54 11.294.365 1.106 1.667 2.641 2.576 3.305 1.808 1.32 2.366 1.385 4.515 2.169l5.77 2.242c.305.156 1.655.816 1.9.838-.406.282-1.575.714-2.182.926-.767.268-1.464.574-2.2.91-2.533 1.157-6.459 2.088-8.375 3.974C31.16 66.624 30 68 29.5 69v1l.003 3.79.008 13.126c0 3.658-.149 14.56.102 17.414.23.209.973 2.682 3.585 2.75 1.258.033 1.752-.209 2.624-.628.498-.24.623-.198 1.197-.395.38-.13.73-.367 1.098-.529l9.23-3.596c.19-.433-.132-.084.398-.337l14.004-5.599c.562-.295.692-.19.98-.542Z" fill="#FFF4F4"/><path fill-rule="evenodd" clip-rule="evenodd" d="M56.99 64.986c-.1 3.437-.015 7.816-.023 11.363-.003.92-.18.862-.929 1.129l-1.536.54-.067 3.25 2.455-1.017.016 2.338-2.446 1.101-.017 3.207 2.441-.958.022 4.417 3.983-1.446.05-4.6 5.258-2.207-.024-3.238-5.185 2.036.002-2.319c2.754-1.364 5.183-1.69 7.507-3.977 2.269-2.232 2.96-5.446 2.843-8.716-.316-8.788-10.305-3.18-14.35-.903Z" fill="#FE0024"/><mask id="b" style="mask-type:luminance" maskUnits="userSpaceOnUse" x="54" y="61" width="18" height="30"><path d="M56.99 64.986c-.1 3.437-.015 7.816-.023 11.363-.003.92-.18.862-.929 1.129l-1.536.54-.067 3.25 2.455-1.017.016 2.338-2.446 1.101-.017 3.207 2.441-.958.022 4.417 3.983-1.446.05-4.6 5.258-2.207-.024-3.238-5.185 2.036.002-2.319c2.754-1.364 5.183-1.69 7.507-3.977 2.269-2.232 2.96-5.446 2.843-8.716-.316-8.788-10.305-3.18-14.35-.903Z" fill="#fff"/></mask><g mask="url(#b)"><path fill-rule="evenodd" clip-rule="evenodd" d="M60.948 66.318c-.005 1.001 0 9 0 9 .404.023 2.054-.818 2.466-.957 1.206-.407 2.747-1.807 3.338-3.212.43-1.02.449-1.896.45-3.21 0-1.868-.359-3-2.369-2.958-1.075.023-3.2.82-3.885 1.337Z" fill="#FFF4F4"/></g><defs><linearGradient id="a" x1="0" y1="6000" x2="12000" y2="6000" gradientUnits="userSpaceOnUse"><stop stop-color="#E8151E"/><stop offset="1" stop-color="#F9444D"/></linearGradient></defs></svg>