<svg width="120" height="120" fill="none" xmlns="http://www.w3.org/2000/svg"><path fill-rule="evenodd" clip-rule="evenodd" d="M0 120h120V0H0v120Z" fill="#DC0532"/><path fill-rule="evenodd" clip-rule="evenodd" d="M24.008 95.813c3.919.526 15.098-2.594 18.869-3.72 9.082-2.709 23.418-9.718 27.841-17.86 5.373-9.892-3.338-14.03-4.456-15.213 4.114.342 8.839 2.456 11.748 4.295 2.968 1.876 5.98 4.661 7.331 8.855 2.29 7.108.357 15.985-4.376 21.688-.696.838-1.345 1.308-1.845 2.097l16.817.033.054-71.777c-3.739-.3-15.191 2.784-18.832 3.967-9.755 3.168-22.724 9.256-27.824 18.107-3.707 6.435.373 13.046 4.948 14.771-3.636-.116-9.154-2.557-11.813-4.149-10.67-6.386-10.415-19.855-4.87-28.445.87-1.349 2.655-3.7 3.487-4.393l-17.024-.058-.055 71.802Z" fill="#FFFEFE"/></svg>