<svg width="120" height="120" fill="none" xmlns="http://www.w3.org/2000/svg"><path fill-rule="evenodd" clip-rule="evenodd" d="M20.134 83.298h21.632c-.442-3.236-1.036-6.19-1.352-9.56-3.017-23.28 6.814-38.908 30.738-38.797-12.384-2.858-26.974-2.77-37.47 5.007-3.596 2.665-6.237 5.963-8.47 9.805-5.887 10.129-5.458 22.244-5.078 33.545Z" fill="#31745F"/><path fill-rule="evenodd" clip-rule="evenodd" d="M57.8 38.981c-3.6 1.583-6.176 3.631-8.508 6.616-1.417 1.813-2.637 4.005-3.564 6.513-.593 1.606-1.981 6.447-1.814 8.246.02-.751 2.265-5.361 2.68-6.212 2.627-5.388 8.206-11.78 15.648-11.445 7.193.324 12.62 6.579 14.397 12.692.876 3.014.937 4.618.827 8.234H98.68c.202-10.674-6.089-17.84-13.955-22.304-4.734-2.687-10.391-4.152-15.808-4.342-3.457-.121-7.903.589-11.118 2.002ZM66.817 74.662c-.132 8.356.84 7.299-2.213 7.553v.822c2.466.216 11.434.294 13.521-.407 4.065-1.365 4.382-6.396.012-7.735l-1.935-.332c.683-.422 3.709-.286 4.393-2.587.612-2.062-1.143-3.65-2.578-4.134-1.709-.578-6.423-.436-6.423-.436l-6.986.066v.886c2.216.162 2.216-.284 2.212 2.136-.001 1.383.028 2.788-.003 4.168ZM70.8 81.55c1.055.703 2.273.961 3.773.458 1.197-.401 1.929-1.511 2.089-2.955.453-4.087-2.402-4.218-5.808-4.162L70.8 81.55Zm.007-12.345-.002 4.725c1.047.041 3.257.155 4.11-.253.846-.405 1.588-1.517 1.36-2.93-.18-1.123-1.013-2.031-2.094-2.236-.947-.18-2.974-.167-3.374.694ZM48.469 78.52c-.84 1.624-1.559 3.232-3.52 3.63l-.35 4.63 1.206-.01c.291-4.85 15.916-5.215 15.917.011l1.169-.02v-4.599c-1.181-.159-2.316-.36-2.316-.36-.23-2.824-.166-5.208-.165-8.027.002-6.6-.332-5.142 2.142-5.428v-.894l-14.2-.001v.928c.862 0 1.817-.033 2.555.188.574 2.463-1.334 7.817-2.438 9.952Zm-.062 3.366 7.888.017-.054-13.376s-1.862-.089-2.564-.064c-1.002.035-1.31.323-1.497 1.226-.43 2.081-1.7 6.381-2.492 8.293-.36.868-1.241 3.255-1.281 3.904ZM85.583 74.896c-.12 7.439.841 7.293-2.147 7.294v.874c2.192-.002 4.384.002 6.576 0 2.83-.003 8.434.68 9.732-3.424 2.04-6.45-6.295-6.33-10.186-6.168l.054-4.624s3.583-.255 4.647-.018c2.365.527 3.156.783 3.156 2.424l1.096.012-.102-3.813-14.97-.002v.93c2.3-.002 2.149-.053 2.148 2.23 0 1.42.03 2.87-.004 4.285Zm4-.496-.016 7.222c2.134 1.265 5.59 1.008 5.784-3.04.086-1.772-.328-2.963-1.457-3.647-.995-.603-2.982-.886-4.312-.535Z" fill="#31745F"/></svg>