<svg width="120" height="120" fill="none" xmlns="http://www.w3.org/2000/svg"><path fill-rule="evenodd" clip-rule="evenodd" d="M104.378 64.323c-3.639 40.448-54.234 54.697-78.902 25.74-6.761-7.937-12.565-19.538-11.005-34.061 2.471-22.997 22.862-42.573 48.84-40.191 23.45 2.15 43.401 22.585 41.069 48.512h-.002Zm-93.184-7.922c0 7.84-.084 14.538 2.92 21.679 6.77 16.089 23.651 30.437 41.692 30.437 22.97 0 37.879-8.406 47.954-28.761 3.686-7.45 4.992-19.253 3.617-27.013-3.371-11.626-5.612-19.051-15.07-27.84-17.115-15.905-41.826-16.099-60.93-3.77-4.317 3.35-5.224 4.027-8.626 8.05-3.143 3.718-4.099 4.375-6.833 9.844-1.96 3.922-4.723 11.764-4.723 17.374h-.001Z" fill="#FF141F"/><path fill-rule="evenodd" clip-rule="evenodd" d="M70.88 65.066c3.024-2.586 6.315-6.437 9.269-9.34 2.637-2.59 1.799-2.464 1.822-7.25.026-5.149.111-4.136-2.623-6.861-5.837-5.822-5.926-7.599-11.025-7.553-6.223.058-12.463-.01-18.689.006.414 1.249 1.81 2.187 2.815 3.172 7.499 7.367 7.163 5.427 7.093 12.91-.045 4.704-.584 3.291 4.555 8.376 1.734 1.714 5.02 5.474 6.783 6.54ZM33.257 45.562l.046 28.705c1.853-1.135 6.928-6.656 8.83-8.6 2.956-3.023 5.857-5.613 8.856-8.659 2.172-2.207 2.946-1.717 2.902-6.015-.03-2.997.56-6.224-1.026-7.913-2.83-3.014-6.042-6.035-9.15-8.846L35.35 42.2c-1.099 1.089-2.093 1.415-2.093 3.361Z" fill="#FF1D1D"/><path fill-rule="evenodd" clip-rule="evenodd" d="M64.8 67.658c-1.064-2.687-7.799-6.737-7.993-9.188-.22-2.78.077-1.578.604-2 0 0 .001-.002-.774-.76-1.53 2.894-29.381 29.032-29.797 29.216.677 1.027-.108.298 1.017.723 3.25-3.602 13.937-2.562 18.366-2.489.969.017 2.737.387 3.786-.422 7.296-5.627 12.432-11.65 14.791-15.08Z" fill="url(#a)"/><path fill-rule="evenodd" clip-rule="evenodd" d="M84.154 58.555c-1.034 1.15-1.26 2.137-1.589 3.53l-.127 21.058-11.133-.003c-4.727.071-10.862-.99-14.779 2.072l-.492.51 28.629-.2.074-28.107c-.84.68-.644-.458-.583 1.14Z" fill="#FF1B1D"/><path fill-rule="evenodd" clip-rule="evenodd" d="M46.224 83.16c-4.429-.073-15.117-1.113-18.366 2.49 5.517-.58 18.968.248 21.683-.134 2.557-.36 16.464-15.46 18.775-17.776-.764-2.09-5.86-6.166-8-8.347-.577-.59-.903-.889-1.464-1.464a98.604 98.604 0 0 0-2.214-2.219c-.032.058-.05-.02.17 2.76.194 2.451 6.929 6.501 7.993 9.188-2.858 4.157-13.038 15.595-18.577 15.502Z" fill="#FF1D1D"/><defs><linearGradient id="a" x1="30.311" y1="79.863" x2="61.33" y2="61.496" gradientUnits="userSpaceOnUse"><stop stop-color="#DEC09E"/><stop offset="1" stop-color="#F4EADE"/></linearGradient></defs></svg>