<svg width="120" height="120" fill="none" xmlns="http://www.w3.org/2000/svg"><path fill-rule="evenodd" clip-rule="evenodd" d="m41.099 82.145-3.972-4.815s-2.453 2.406-5.132 3.408c-2.43.909-5.14.844-7.503-.032-9.27-3.435-9.249-17.608-.126-21.117a11.01 11.01 0 0 1 7.467-.14c3.119 1.047 4.001 2.702 5.294 3.486l3.97-4.857c-1.227-2.117-4.82-4.644-8.185-5.565-3.876-1.061-8.44-.49-11.82.85-6.197 2.459-10.76 8.12-10.786 16.65-.044 14.402 12.973 20.266 22.472 17.78 3.232-.846 7.38-3.651 8.32-5.648ZM64.86 45.75l-.002 6.77-6.07.067-.005 6.618 6.08.063c.003 4.38-.002 8.737-.002 13.094 0 4.09-.517 8.779 1.365 11.99 1.646 2.812 4.915 4.502 9.505 3.55a11.18 11.18 0 0 0 2.51-.832c1.205-.552 1.076-.565 1.394-1.934.421-1.808 1.012-3.567 1.356-5.355-1.847.8-3.555 2.186-6.269 1.912-2.88-.29-2.78-2.711-2.778-5.613.003-5.611.038-11.238-.006-16.847l7.257-.03.06-6.62-7.278-.02-.034-10.776c-.811.202-4.266 2.155-5.46 2.796-1.017.546-1.304.533-1.622 1.168Z" fill="#23316D"/><path fill-rule="evenodd" clip-rule="evenodd" d="m40.617 46.912 7.09.002c2.224-.003 1.87-1.582 6.965-4.75 4.022-2.499 9-4.195 14.74-4.189 7.454.009 15.197 3.375 19.852 8.277.943.993 2.219.649 4.02.648 1.607 0 3.264.04 4.863-.016-.495-1.36-3.843-4.894-4.95-5.934-10.89-10.241-27.284-12.348-41.105-4.69-2.012 1.116-5.095 3.24-6.383 4.568-1.049 1.081-4.708 4.689-5.092 6.084Z" fill="#EF221D"/><path fill-rule="evenodd" clip-rule="evenodd" d="m45.257 87.609 7.185-.005.048-.958-.009-33.264.01-.855-7.24.02.006 35.062ZM86.53 87.61l7.155-.008.046-.956-.008-33.264.006-.824-7.205-.012.007 35.064Z" fill="#23316D"/><path fill-rule="evenodd" clip-rule="evenodd" d="M105.979 41.225a3.715 3.715 0 1 1 0 7.43 3.715 3.715 0 0 1 0-7.43Zm0 .5a3.215 3.215 0 1 1 0 6.43 3.215 3.215 0 0 1 0-6.43Z" fill="#1F2E6B"/><path d="M104.375 46.73v-3.58h1.522c.383 0 .661.032.834.096a.82.82 0 0 1 .417.343c.104.165.157.352.157.564a.96.96 0 0 1-.236.666c-.158.175-.393.285-.706.33.156.091.284.191.385.3.102.11.238.304.41.582l.437.699h-.865l-.518-.782a5.012 5.012 0 0 0-.382-.525.563.563 0 0 0-.218-.148 1.212 1.212 0 0 0-.366-.04h-.146v1.495h-.725Zm.725-2.066h.535c.346 0 .562-.014.649-.044a.386.386 0 0 0 .202-.151.467.467 0 0 0 .074-.27.434.434 0 0 0-.097-.292.438.438 0 0 0-.272-.14 5.927 5.927 0 0 0-.527-.012h-.564v.91Z" fill="#1F2E6B"/></svg>