<svg width="120" height="120" fill="none" xmlns="http://www.w3.org/2000/svg"><path fill-rule="evenodd" clip-rule="evenodd" d="M58.033 27.532c.22.298 1.001.125 1.834.122 9.023-.037 16.537 2.857 23.594 8.18.422.319.766.577 1.165.953 3.092 2.912 4.446 4.156 6.939 7.901a37.275 37.275 0 0 1 5.16 11.798c2.379 9.681.516 20.415-3.935 27.812-2.464 4.094-2.896 4.396-5.44 7.278-1.558 1.766-4.939 4.512-6.968 5.748-1.84 1.12-3.443 2.052-5.608 2.973-8.932 3.797-19.152 4.028-28.39.485-2.132-.818-3.85-1.705-5.703-2.775-1.4-.807-3.814-2.479-4.96-3.517-1.512-1.37-3.007-2.62-4.294-4.182-4.12-5.002-6.99-10.02-8.464-16.972-1.977-9.333-.273-19.636 4.713-27.553 1.72-2.732 4.256-6.08 6.713-8.126l1.157-1.078.038-3.497c-1.036.584-4.037 3.371-4.83 4.228-4.773 5.158-8.064 10.577-9.976 17.58-2.845 10.426-1.062 22.06 3.705 30.278 3.063 5.28 5.425 7.806 9.277 11.282 2.68 2.418 6.64 4.722 9.982 6.234 9.144 4.136 21.116 4.519 30.734.707 3.413-1.352 6.026-2.74 8.901-4.766 4.294-3.026 8.525-7.367 11.191-11.912 5.341-9.106 7.394-19.12 5.073-29.866-1.359-6.288-4.34-12.378-8.205-17.013-.253-.304-.32-.408-.519-.65-.199-.242-.366-.373-.553-.61-.898-1.142-3.605-3.652-4.688-4.528-6.562-5.31-16.066-9.638-27.571-9.11l-.072 2.596Zm11.676 46.323c.25.41.298 8.025.066 8.754l-3.59-.038c-.281-.966.157-7.254-.145-8.28h-1.398l-.033 26.559c.28-.027.575-.067.859-.107.025-.003.357-.059.365-.062.284-.099.202-.013.339-.241V84.18l3.61-.045.007 15.622c.598-.113 1.804-.48 2.212-.742v-9.702c0-1.724-.306-5.676.506-6.863a2.635 2.635 0 0 1 1.52-1.052l-1.81-10.006 3.678-.002.544 10.4c.066.628-.026.336.277.475.3-.15.218.38.288-1.108.15-3.183.45-6.682.533-9.767h3.849l-2.049 9.985c2.363.677 2.055 2.673 2.055 5.288 0 2.367-.098 4.953.013 7.292.404-.17 1.137-.873 1.53-1.178.557-.431 1.036-.892 1.543-1.292V71.33l10.703-.02.19-1.453-25.013-.004c.011.323.05.434.11.71.008.034.073.345.073.355.008.508.048.2-.123.458-.957-2.48-7.14-2.311-9.04-1.11-.828.524-1.138 1.215-1.663 2.263-.838-2.067-1.82-2.994-4.362-3.183-2.02-.15-5.467-.12-7.514-.01l-.026 29.685 1.58.535.01-28.65c1.395-.106 3.105-.019 4.53-.02 1.405-.001 2.844-.01 3.667.876.852.918.757 2.366.757 3.773V89.42c.005 3.929-1.68 3.953-5.272 3.893v7.021c.213.358 1.146.373 1.583.417l.012-5.875c2.541-.012 3.784-.773 4.724-2.358l.042 8.637 1.514-.019c.131-1.466.02-18.75.02-20.725 0-1.73.001-3.462-.001-5.192-.002-1.647.207-3.218 1.466-3.782 1.033-.463 3.586-.494 4.807-.304 1.556.241 2.447 1.04 2.457 2.722ZM61.125 54.52c-.22.438-.62.542-.642 1.305-.021.805.413.99.642 1.417-1.062 1.188-1.061 3.461-.276 4.912 1.7 3.143 6.202 3.33 8.126.346 1.157-1.793.89-3.225.085-5.099l16.306.002v.932l-1.596.053-.023 1.397 1.593.008.03 1.397-1.62.057v2.598l1.614.039.002-1.197h2.384v1.192l1.616.015V61.23l-1.616-.005.011-1.433 1.605-.008-.007-1.402-1.609-.005v-.962c.81-.038 3.01.095 3.61-.09 1.012-.31 1.03-2.155.336-2.705-.657-.522-6.096-.252-7.35-.252H69.073c.697-1.825 1.136-3.169-.065-5.036-1.929-3-6.237-2.938-8.121.198-.83 1.382-.822 3.85.238 4.99Zm-15.34 27.374c.154-1.73.025-4.035.027-5.829.005-3.945-.742-6.088-3.104-8.695l-5.941-5.822c-2.415-2.124-5.31-5.087-6.849-7.886-.356-.648-.614-1.4-.975-1.996-.074 3.61-.239 7.736.782 10.987 1.471 4.684 4.378 6.64 7.69 9.902.524.516.973.95 1.496 1.47.52.518.911 1.022 1.46 1.507 1.345 1.19 3.963 3.734 4.896 5.38.178.316.307.73.519.982Zm0 14.962c.146-1.766.027-4.03.027-5.849 0-1.85-.097-3.569-.68-5.189-.605-1.683-1.259-2.526-2.206-3.619l-5.886-5.774c-.438-.532-.917-.948-1.443-1.415-.54-.48-.991-.945-1.508-1.462-.977-.977-1.849-1.876-2.8-3.029-1.139-1.38-2.093-3.185-2.346-3.48-.126 5.98-.173 11.66 4.299 16.047l4.448 4.349c.258.245.439.43.692.684.254.254.445.53.7.783 1.938 1.931 4.114 3.658 5.667 5.99.386.58.625 1.444 1.037 1.964Zm1.644-60.689c.667-.286 1.457-1.432 1.99-1.916l4.964-4.787c.345-.343.612-.692.965-1.048 1.179-1.188 1.101-.435 1.101-2.687V13.994l-1.35-.027v8.69c0 .555-.59.997-1.154 1.444l-.04-10.107-1.377-.027v11.34c0 .51-.954 1.17-1.185 1.278l-.007-12.565-1.35-.053v13.67c0 .536-.209.59-.507.848-.261.225-.416.437-.7.617V13.967h-1.35v22.201Zm-10.266-9.166c0 .696.218.598.94 1.311l3.508 3.382c.772.733 1.459 1.584 2.258 2.295.69.614 1.66 1.771 2.314 2.225l.013-22.247-1.364.01v15.15c-.163-.088-.993-.8-1.083-.949-.257-.428-.109-5.338-.109-6.052v-8.146l-1.377-.013v12.65a9.09 9.09 0 0 1-.917-.805c-.412-.407-.28-.738-.276-1.46V14.007l-1.35-.04-.006 10.167c-.392-.24-1.178-.805-1.207-1.575-.083-2.125.007-6.259.007-8.539l-1.348-.053-.003 13.035Zm9.014 39.096c.02-.862.115-5.386-.017-5.9-.1-.383-5.55-5.556-5.938-5.922-.788-.74-2.292-2.509-3.066-2.914-.018.822-.12 5.497.058 5.906.127.29 5.32 5.292 5.975 5.91.502.475 2.62 2.745 2.988 2.92Zm1.239-5.821v5.788c.621-.374 8.935-8.65 8.992-8.812.115-.328.041-5.115.041-5.89-.69.426-3.688 3.57-4.515 4.37-.652.631-4.272 3.95-4.518 4.544Zm0-16.69c.562-.23.275-.178.78-.705l2.266-2.184c.993-.996 1.966-1.864 2.967-2.86.486-.484.897-1.008 1.404-1.456.242-.214 1.393-1.279 1.506-1.46.323-.517.11-4.73.11-5.708-.994.675-3.398 3.3-4.398 4.278l-2.98 2.85c-.282.272-.501.439-.77.712-1.264 1.276-.885 1.157-.885 3.512v3.02Zm-1.233 7.483c0-.902.165-5.282-.089-5.743l-1.407-1.45c-.529-.527-.982-.933-1.524-1.443-.52-.49-.928-.922-1.45-1.412-.952-.894-3.958-4.035-4.55-4.377-.04.882-.197 5.243.136 5.713l8.884 8.713Zm1.233 2.107.01 5.298c.584-.313 5.006-4.871 5.939-5.76.516-.493.93-.922 1.441-1.42 2.28-2.218 1.643-.584 1.643-7.225l-8.001 7.755c-.58.576-1.032.837-1.032 1.352Zm-1.233 5.325c0-7.322.749-4.84-3.033-8.637-.512-.514-.948-.894-1.472-1.39l-4.528-4.372v2.928c0 .764-.243 2.304.168 2.834l2.969 2.863c1.43 1.578 2.895 2.852 4.386 4.303.483.47.982 1.037 1.51 1.47Zm1.233-12.743.015 5.285 4.461-4.252c.49-.49.94-1.04 1.444-1.523l2.97-2.858c.337-.462.143-4.788.143-5.766l-8.617 8.312c-.282.238-.416.283-.416.802Zm-1.246-2.14c.041-.847.161-5.266-.067-5.719l-5.892-5.762c-.527-.465-.968-1.022-1.459-1.506-.383-.379-1.169-1.198-1.596-1.411-.02.902-.197 5.24.154 5.71.13.173.515.483.7.681l8.16 8.007Zm17.439 10.724-.244.317c-.256.341-.394.703-.405 1.173-.02.89.35 1.079.649 1.583-.43 1.016-1.48 1.843-.874 3.386.377.96 1.558 1.884 3 1.425 1.043-.332 1.919-1.365 1.659-2.79-.226-1.24-1.09-2.389-1.097-3.503-.009-1.268.777-2.194 1.063-3.427.338-1.455-.526-2.6-1.552-2.936-1.435-.47-2.6.36-3.033 1.322-.68 1.512.37 2.458.834 3.45ZM53.085 90.2h1.61l-.008-16.186h-1.602V90.2Zm22.784 7.193c.416-.153 1.418-.661 1.655-.887V84.352l-.383-.055-1.273.01v13.086Zm12.809-11.26.01.451c.563-.518 1.78-2.268 1.784-3.093.008-1.624-.006-3.255-.006-4.881l-1.788-.04v7.564Zm-6-3.874-.007-10.187c-.141.523-1.71 8.029-1.68 8.465.022.345 1.346 1.467 1.686 1.722Zm6-6.603h.967l.741-.015.213.001c1.647 0 2.158.214 3.284.855l.694-2.274-5.903-.01.004 1.443ZM66.04 74.292c.302 1.025-.136 7.313.145 8.279l3.59.038c.232-.728.184-8.344-.066-8.754l.044 8.65h-3.525l.008-7.825c-.072-.665.02-.21-.196-.388Z" fill="#1D6F27"/></svg>