<svg width="120" height="120" fill="none" xmlns="http://www.w3.org/2000/svg"><path fill-rule="evenodd" clip-rule="evenodd" d="M58.312 34.377c-6.242.425-12.059 2.528-16.576 6.264-.445.368-.61.722-1.326.724-2.85.008-5.187-.135-7.916.522-4.552 1.096-7.932 3.955-9.936 6.653-2.668 3.593-3.751 7.514-3.535 13.13.35 9.042 7.445 16.359 16.142 17.102 1.276.108 5.635-.045 6.017.198l1.148.948c10.007 7.6 24.536 7.807 34.495.44l1.754-1.39c.593-.392 4.916.29 8.768-.669 4.52-1.125 7.916-3.984 9.891-6.702 2.657-3.656 3.754-7.508 3.484-13.161-.429-8.998-7.456-16.293-16.213-17.009-1.345-.11-2.748-.067-4.1-.067-2.204 0-1.24.104-2.977-1.172-1.521-1.117-3.236-2.288-5.223-3.16-4.084-1.792-8.76-3-13.897-2.651Z" fill="#C0A252"/><path fill-rule="evenodd" clip-rule="evenodd" d="M57.853 34.872c-5.578.389-11.093 2.45-15.073 5.519l-1.68 1.374c-.26.247-.317.268-.8.27-2.614.008-5.392-.178-7.874.395-4.667 1.078-7.97 3.76-10.003 6.536-2.56 3.492-3.729 7.584-3.364 13.04.595 8.917 7.699 16.024 16.922 16.172 1.368.022 2.765.014 4.134.003 1.222-.01 1.134.357 2.629 1.482 9.03 6.797 22.037 7.536 31.748 1.694 2.294-1.38 2.414-1.643 4.163-3.026.593-.47 5.088.265 8.763-.572 3.986-.907 7.674-3.379 9.957-6.585 2.583-3.63 3.697-7.491 3.309-13.059-.618-8.871-7.76-15.966-16.992-16.084a205.981 205.981 0 0 0-4.137.002c-.803.006-.6-.018-1.386-.674a33 33 0 0 0-1.147-.918c-1.356-1.046-3.367-2.313-5.183-3.082-4.31-1.825-8.644-2.86-13.986-2.487Z" fill="url(#a)"/><path fill-rule="evenodd" clip-rule="evenodd" d="m51.065 51.866-.246-5.772H34.454l-.013.76c3.627.248 3.119 1.7 3.119 6.595l.004 2.788c-.042.383.042.161-.114.33-.276.147-5.838.13-6.527.053-.06-1.137.854-2.732 1.341-3.382.635-.846 1.56-1.73 2.613-2.264-2.043.057-6.117 1.196-7.652 2.435-.582.47-.56.521-.556 1.477.006 1.377.002 2.757 0 4.134-.001.836-.086.99.294 1.65 2.698 4.686 6.87 3.39 10.568 3.628.162 1.009.066 4.733-.032 5.86-.256 2.953-1.417 2.391-3.285 2.805v.681c.74.116 8.904.059 10.214.028 2.563-.06 4.808-.584 6.35-2.551.202-.258.357-.544.568-.78.013.018.03.025.035.055l1.05 2.904c.43.99.851 1.812 1.37 2.675 3.15 5.253 9.314 5.512 12.485.323.287-.469.488-.835.744-1.327.187-.358.387-1.136.759-1.292h8.356c2.805 0 4.972-.22 6.747-1.711 2.968-2.494 3.492-8.257.55-11.26-.215-.22-.395-.306-.568-.525l5.99-.263c.144 1.506-.188 2.914-.635 4.135 2.9-.671 4.107-4.885 5.008-7.17.24-.61 1.018-2.417 1.091-2.982-2.148-.578-2.282-.727-4.763-.865-3.397-.19-7.32.06-10.723.337-1.37.112-3.868.504-5.101.44v-6.192c1.5-.155 5.41-.08 6.782.282 2.524.666 2.454 3.192 2.777 3.964.117.28.034.246.662.245l-.234-5.973-15.547-.049-.222-6.077-.492-.002c-.28.77-.388 2.848-1.439 2.62-.327-.072-1.438-1.221-2.421-1.803-2.057-1.216-4.638-.931-6.473.346-3.24 2.258-4.794 6.063-5.794 9.838l-.241.783c-.008.017-.02.047-.034.069Zm2.79 3.958c2.787-.172 5.603-.474 8.364-.754 1.407-.143 7.327-.71 8.246-.902 0-1.492.059-3.11-.046-4.582-.125-1.749-.49-2.424-2.2-2.635l.218 6.075c-.71 0-.407.12-.786-1.694-.401-1.927-.89-3.873-1.759-5.598-3.31-6.574-11.208-5.165-12.037 10.09Zm-.06 7.31c-.3 1.378.75 6.591 1.186 7.974.805 2.55 1.942 4.427 3.673 5.585.97.65 2.267 1.056 3.699.78 1.243-.24 2.401-1.08 2.91-1.75 1.15-1.515 1.71-2.648 2.49-4.43.207-.469.458-1.236.706-1.627.604.58.43.63.14 1.486-.192.57-.41 1.13-.595 1.67.954.012 1.841-.355 2.151-1.282.504-1.504.31-8.378.31-10.271l-16.67 1.864Zm19.948-2.204-.002 11.088c2.25.54 4.09.322 5.559-.859 1.247-1.002 2.174-2.35 2.264-4.77.085-2.295-.701-4.093-1.978-5.058-.928-.702-1.286-.829-2.63-.712-1.02.089-2.233.138-3.213.311Zm-32.907-4.404 9.618-.428.589-4.002-.61.022c-.133-.925-.43-1.93-.825-2.68-.452-.859-.848-1.221-1.974-1.536-1.655-.462-4.939-.325-6.798-.3v8.924Zm.001 7.62v7.89c1.299.202 2.443.462 3.745.079 1.073-.316 2.124-1.116 2.61-1.705 1.578-1.917 1.758-3.947 1.122-6.806l-7.477.541Z" fill="#356D3E"/><path fill-rule="evenodd" clip-rule="evenodd" d="M26.93 54.996c-.101.876-.12 3.953-.032 4.833.095.95 1.568 2.442 2.09 2.858 2.115 1.683 5.333 1.459 8.43 1.358 12.583-.407 23.563-2.139 35.85-3.327 5.953-.576 12.608-1.239 18.625-.936l2.176-5.72c-1.85-.435-1.596-.547-3.85-.74-3.737-.321-9.326.093-13.02.434-12.062 1.115-21.517 2.453-33.94 2.934-2.992.116-5.984.184-8.985.204-3.135.02-5.799.097-7.343-1.898Z" fill="#F6C22D"/><path d="m33.357 58.398-.045.751-.092-.01c-.026-.248-.093-.412-.197-.49-.103-.078-.297-.132-.58-.162l-.57-.062-.144 1.342.135.014c.415.045.717.104.907.178.189.073.337.19.444.353a.824.824 0 0 1 .125.556.926.926 0 0 1-.35.635c-.207.17-.539.231-.996.182l-1.433-.154.01-.092c.209.016.346-.003.41-.058.064-.053.109-.192.133-.417l.231-2.155c.018-.172.02-.29 0-.353a.225.225 0 0 0-.104-.14.973.973 0 0 0-.3-.084l.01-.092 2.406.258Zm-1.807 3.033c.145.04.258.063.339.072a.86.86 0 0 0 .578-.145c.18-.119.283-.3.31-.542.026-.25-.04-.444-.2-.584-.16-.139-.374-.223-.641-.252a1.414 1.414 0 0 0-.23-.004l-.156 1.455Zm3.793-2.68-.092 1.345.75.051c.194.014.326-.007.395-.06.092-.071.15-.203.173-.396l.092.006-.08 1.187-.093-.007a1.312 1.312 0 0 0-.048-.325.316.316 0 0 0-.14-.148.758.758 0 0 0-.312-.072l-.75-.051-.076 1.123c-.01.151-.01.243 0 .276a.159.159 0 0 0 .065.083.422.422 0 0 0 .19.042l.575.04c.192.013.333.009.422-.012a.619.619 0 0 0 .26-.141c.111-.097.228-.246.351-.448l.103.008-.352.832-2.624-.18.006-.092.121.008a.48.48 0 0 0 .233-.042.208.208 0 0 0 .117-.113 1.17 1.17 0 0 0 .052-.328l.151-2.214c.015-.216.003-.35-.038-.402-.056-.071-.153-.112-.295-.121l-.12-.009.006-.092 2.625.18-.016.752-.097-.007c-.023-.183-.053-.31-.091-.38a.408.408 0 0 0-.179-.168 1.146 1.146 0 0 0-.35-.062l-.934-.064Zm4.933.237-1.055-.03-.028.956c-.028.965-.13 1.589-.304 1.872-.175.283-.408.42-.7.411a.413.413 0 0 1-.284-.1.284.284 0 0 1-.094-.217.226.226 0 0 1 .07-.16.213.213 0 0 1 .16-.063c.052.002.112.03.177.082.074.058.14.087.202.09.145.004.267-.114.367-.354.1-.24.16-.697.18-1.374l.02-.715c.007-.224-.018-.368-.075-.43-.057-.062-.192-.1-.403-.113l.003-.092 2.743.08-.003.093c-.21.001-.344.03-.405.09-.06.058-.093.2-.1.426l-.064 2.167c-.007.225.018.37.075.431.057.063.19.1.398.113l-.002.093-1.462-.043.003-.093c.21 0 .344-.03.404-.09.06-.058.094-.2.1-.426l.078-2.604Zm4.362-.247.032.798-.092.002a.78.78 0 0 0-.113-.385.406.406 0 0 0-.233-.18 1.459 1.459 0 0 0-.39-.029l-.958.025.067 2.604c.006.226.039.368.098.427.06.06.194.09.405.09l.002.093-1.462.038-.002-.092c.21-.013.342-.05.399-.112.057-.062.082-.206.076-.431l-.056-2.167c-.005-.226-.038-.368-.098-.427-.06-.06-.195-.09-.404-.09l-.003-.093 2.732-.07Zm2.169-.299c.438-.057.84.06 1.204.352.365.292.58.687.646 1.186.067.514-.04.962-.32 1.344-.279.381-.649.602-1.11.662a1.57 1.57 0 0 1-1.236-.344c-.36-.29-.573-.698-.642-1.224-.07-.536.056-.999.377-1.386a1.63 1.63 0 0 1 1.08-.59Zm-.025.185a.896.896 0 0 0-.682.432c-.19.31-.251.733-.18 1.273.071.552.244.962.519 1.23a.88.88 0 0 0 .76.246.987.987 0 0 0 .737-.475c.175-.275.227-.679.157-1.213-.075-.58-.246-.997-.51-1.252-.212-.203-.478-.283-.8-.24Zm7.906-1.287c.438-.054.84.066 1.202.36.363.295.575.692.636 1.192.063.514-.047.961-.33 1.34-.282.38-.654.598-1.114.654a1.57 1.57 0 0 1-1.234-.354c-.358-.292-.568-.701-.633-1.227-.066-.538.064-.999.387-1.384a1.63 1.63 0 0 1 1.086-.581Zm-.026.184a.896.896 0 0 0-.685.426c-.193.309-.257.732-.191 1.272.068.553.237.965.51 1.234a.88.88 0 0 0 .759.252.987.987 0 0 0 .74-.469c.177-.274.232-.677.166-1.212-.07-.58-.238-.999-.5-1.255-.21-.205-.476-.287-.799-.248Zm9.51-1.245.196 1.144-.077.008c-.14-.334-.312-.568-.519-.699a1.078 1.078 0 0 0-.711-.156c-.224.023-.421.102-.59.235-.17.133-.293.33-.37.592-.078.26-.098.577-.059.95.032.307.109.568.23.783.122.215.288.372.496.472.21.1.44.136.693.11.219-.023.408-.09.565-.202.159-.111.323-.317.495-.618l.083.043c-.138.32-.314.56-.525.724-.212.162-.474.26-.784.293-.56.058-1.017-.105-1.368-.49a1.805 1.805 0 0 1-.459-1.06 1.967 1.967 0 0 1 .13-.958c.121-.3.307-.54.555-.724.25-.184.53-.292.845-.325.244-.025.49.01.741.105a.39.39 0 0 0 .155.04.167.167 0 0 0 .112-.06.387.387 0 0 0 .073-.197l.092-.01Zm2.883-.282c.44-.041.838.09 1.191.396.354.305.555.708.601 1.21.048.515-.074.958-.368 1.33a1.578 1.578 0 0 1-1.133.62 1.57 1.57 0 0 1-1.223-.39c-.35-.302-.548-.717-.597-1.245-.05-.539.092-.996.427-1.371a1.63 1.63 0 0 1 1.102-.55Zm-.03.184a.896.896 0 0 0-.698.406c-.202.302-.278.724-.228 1.266.051.554.21.97.474 1.247a.88.88 0 0 0 .75.274.987.987 0 0 0 .755-.446c.184-.27.251-.67.201-1.207-.054-.582-.209-1.006-.464-1.27-.204-.21-.467-.3-.79-.27Zm6.417 2.665.09 1.067-.087.007a1.405 1.405 0 0 0-.383-.652c-.187-.182-.46-.259-.818-.228l-2.298.194-.008-.093c.208-.024.34-.069.392-.134.053-.065.07-.21.051-.435l-.182-2.16c-.02-.225-.06-.365-.123-.42-.064-.056-.2-.078-.41-.067l-.007-.093 1.457-.123.008.093c-.208.024-.339.069-.392.134-.053.065-.07.21-.051.435l.191 2.268c.014.159.031.252.052.28.021.029.122.036.305.02l.872-.073c.213-.018.326-.044.34-.078.014-.034.013-.144-.003-.33l-.187-2.22c-.019-.224-.06-.365-.124-.42-.063-.055-.203-.077-.418-.066l-.008-.092 1.467-.124.008.092c-.208.025-.339.07-.392.135-.053.065-.07.21-.05.435l.182 2.17c.02.232.06.374.118.426.059.053.195.07.408.052Zm3.052-3.547.087.747-.092.006c-.07-.24-.164-.39-.28-.448-.115-.059-.315-.079-.6-.06l-.572.04.093 1.346.135-.01c.417-.028.724-.022.924.017a.904.904 0 0 1 .499.27c.132.141.206.317.22.526a.927.927 0 0 1-.234.687c-.174.203-.49.321-.948.353l-1.438.098-.007-.092c.209-.021.34-.064.394-.129.054-.063.074-.208.058-.434l-.148-2.162c-.012-.173-.032-.289-.061-.348a.224.224 0 0 0-.128-.12.972.972 0 0 0-.31-.03l-.006-.092 2.414-.166Zm-1.25 3.301c.15.013.265.017.346.012a.86.86 0 0 0 .544-.244c.157-.148.227-.344.21-.587-.017-.251-.116-.431-.298-.54-.182-.11-.408-.155-.675-.136-.075.005-.15.017-.227.035l.1 1.46Zm4.766-1.235-1.32.075-.198.546a.867.867 0 0 0-.069.302c.003.051.03.096.082.133.051.035.16.055.324.058l.005.092-1.074.06-.005-.092c.14-.033.23-.07.27-.113.081-.085.166-.254.256-.506l1.04-2.873.085-.004 1.345 2.768c.108.222.203.365.285.429a.533.533 0 0 0 .332.096l.005.092-1.343.076-.006-.093c.135-.014.226-.042.272-.083a.174.174 0 0 0 .063-.145c-.004-.074-.044-.188-.12-.344l-.229-.474Zm-.087-.18-.652-1.343-.512 1.408 1.164-.065Zm3.166-.639 1.58-.04-.024-.982c-.004-.174-.018-.287-.041-.342a.227.227 0 0 0-.11-.104.461.461 0 0 0-.23-.055l-.12.003-.003-.092 1.462-.037.002.093-.12.003a.478.478 0 0 0-.229.063.208.208 0 0 0-.106.124 1.172 1.172 0 0 0-.021.332l.055 2.208c.004.172.018.286.04.34a.227.227 0 0 0 .107.106.476.476 0 0 0 .234.054l.12-.003.003.093-1.462.036-.002-.092.12-.003c.14-.004.24-.047.303-.13.04-.056.058-.185.053-.39l-.026-1.039-1.58.04.026 1.04c.004.172.018.285.041.34a.22.22 0 0 0 .108.105.459.459 0 0 0 .23.055l.123-.003.002.092-1.462.037-.002-.093.12-.003c.142-.003.243-.047.306-.13.039-.055.055-.184.05-.389l-.055-2.208c-.004-.173-.018-.287-.041-.341a.23.23 0 0 0-.107-.105.476.476 0 0 0-.233-.054l-.12.003-.003-.093 1.462-.036.002.092-.123.004a.475.475 0 0 0-.226.063.214.214 0 0 0-.105.123 1.16 1.16 0 0 0-.022.332l.024.983Zm6.763 1.846-.005.093-.877-.051c-.087-.158-.27-.458-.552-.899-.28-.44-.453-.686-.517-.736a.55.55 0 0 0-.3-.09l-.058 1.018c-.014.225.006.37.06.433.054.064.187.106.397.125l-.005.092-1.46-.085.005-.092c.208.005.344-.02.406-.076.063-.057.1-.198.113-.425l.126-2.164c.013-.225-.008-.37-.062-.434-.055-.064-.187-.105-.395-.124l.005-.092 1.46.084-.006.093c-.21-.005-.347.02-.408.078-.061.056-.098.198-.11.423l-.056.95c.183.01.31.005.38-.014a.672.672 0 0 0 .246-.14 1.04 1.04 0 0 0 .224-.25c.056-.09.13-.239.222-.448.087-.195.157-.33.209-.405a.586.586 0 0 1 .241-.189.795.795 0 0 1 .381-.062c.257.015.38.113.37.295a.221.221 0 0 1-.086.162.25.25 0 0 1-.178.06.641.641 0 0 1-.231-.095.566.566 0 0 0-.199-.085c-.054-.003-.1.023-.143.076-.041.054-.11.194-.208.419-.185.42-.405.68-.66.781.15.035.347.257.594.662.261.43.455.72.581.866.126.146.29.23.496.246ZM50.602 59.882l.14.987c.031.213.073.341.127.386.073.064.174.087.301.068l.13-.018.012.092-1.447.206-.013-.091.127-.018c.143-.02.239-.082.287-.184.026-.055.025-.18-.002-.372l-.313-2.187c-.03-.212-.07-.34-.123-.385-.076-.064-.177-.087-.306-.068l-.127.018-.013-.092 1.238-.177c.303-.043.545-.045.729-.008a.995.995 0 0 1 .486.252c.14.13.225.297.254.499a.894.894 0 0 1-.176.712c-.157.198-.402.322-.734.369-.081.012-.17.018-.266.02-.096.002-.2-.001-.311-.01Zm-.02-.143c.09.004.17.006.238.004.069-.001.128-.005.175-.012a.594.594 0 0 0 .417-.264.733.733 0 0 0 .114-.544.943.943 0 0 0-.148-.395.624.624 0 0 0-.293-.244.748.748 0 0 0-.385-.04c-.085.012-.19.044-.319.094l.2 1.4ZM57.6 57.007l2.698-.3.01.089c-.203.029-.328.075-.378.139-.05.064-.063.204-.039.419l.201 1.808c.039.35.083.564.132.642.05.079.183.105.402.081l.114 1.024-.084.01a1.451 1.451 0 0 0-.295-.547.794.794 0 0 0-.395-.25 1.457 1.457 0 0 0-.495-.02l-.83.093c-.363.04-.619.169-.768.384-.148.215-.226.44-.235.674l-.083.01-.114-1.024c.254-.05.445-.23.574-.534a3.1 3.1 0 0 0 .217-1.096 7.298 7.298 0 0 0-.021-1.04c-.018-.16-.05-.276-.1-.346-.048-.072-.1-.114-.158-.127a1.41 1.41 0 0 0-.343 0l-.01-.09Zm.808.095c.065.954.064 1.63-.006 2.025-.069.396-.187.713-.35.954l1.205-.134c.214-.023.34-.057.378-.099.038-.042.046-.167.023-.374l-.275-2.48-.975.108Z" fill="#2B2A29"/><defs><linearGradient id="a" x1="100.641" y1="62.486" x2="19.112" y2="57.604" gradientUnits="userSpaceOnUse"><stop stop-color="#FEF5AE"/><stop offset=".471" stop-color="#F4DF43"/><stop offset="1" stop-color="#FAF1A9"/></linearGradient></defs></svg>