<svg width="120" height="120" fill="none" xmlns="http://www.w3.org/2000/svg"><mask id="a" style="mask-type:luminance" maskUnits="userSpaceOnUse" x="13" y="26" width="94" height="68"><path d="M13.308 93.108h93.384V26.893H13.308v66.215Z" fill="#fff"/></mask><g mask="url(#a)" fill="#BD0D31"><path d="M55.47 74.009a.943.943 0 0 1-.916.642.822.822 0 0 1-.909-.559.83.83 0 0 1-.032-.381.984.984 0 0 1 .46-.871 12.521 12.521 0 0 0 2.475-3.44 8.826 8.826 0 0 0 1.078-4.15V37.737h-9.034a13.179 13.179 0 0 0-5.48 1.147 13.476 13.476 0 0 0-8.3 12.495c0 1.793.215 3.578.643 5.32a11.462 11.462 0 0 0 1.857 4.218 9.171 9.171 0 0 0 3.508 2.774 11.924 11.924 0 0 0 5.227 1.055 9.725 9.725 0 0 0 2.958-.482 8.432 8.432 0 0 0 2.774-1.444 7.403 7.403 0 0 0 2.064-2.568c.548-1.19.8-2.497.733-3.806a8.022 8.022 0 0 0-1.467-5.227 4.717 4.717 0 0 0-3.898-1.812 9.76 9.76 0 0 0-2.59.39 2.633 2.633 0 0 0-1.835 1.926h.413a2.463 2.463 0 0 1 1.765.78 2.657 2.657 0 0 1 .733 1.902 2.726 2.726 0 0 1-.664 1.927 2.087 2.087 0 0 1-1.65.756 2.447 2.447 0 0 1-1.812-.756 2.62 2.62 0 0 1-.688-1.927v-.16a6.879 6.879 0 0 1 1.421-4.242 6.628 6.628 0 0 1 4.93-1.765 6.49 6.49 0 0 1 2.59.435 5.823 5.823 0 0 1 2.294 1.583 8.549 8.549 0 0 1 1.627 2.682 9.858 9.858 0 0 1 .665 3.76 10.824 10.824 0 0 1-.986 4.838 8.868 8.868 0 0 1-2.522 3.072 9.304 9.304 0 0 1-3.37 1.674 14.53 14.53 0 0 1-3.623.504 17.543 17.543 0 0 1-12.45-4.08 14.881 14.881 0 0 1-4.333-11.465 13.118 13.118 0 0 1 1.605-6.511 15.208 15.208 0 0 1 4.31-4.815 20.45 20.45 0 0 1 6.214-3.073 24.186 24.186 0 0 1 7.337-1.077h9.034a9.657 9.657 0 0 0-.963-3.92 8.668 8.668 0 0 0-2.293-3.142.804.804 0 0 1-.642-.87.828.828 0 0 1 .848-.941.781.781 0 0 1 .803.458h8.987a.783.783 0 0 1 .803-.458.832.832 0 0 1 .707.233.825.825 0 0 1 .233.707.8.8 0 0 1-.642.871 8.668 8.668 0 0 0-2.293 3.141 9.653 9.653 0 0 0-.963 3.921h9.034c2.501-.017 4.99.347 7.383 1.077a20.645 20.645 0 0 1 6.236 3.073 15.48 15.48 0 0 1 4.31 4.906 13.117 13.117 0 0 1 1.605 6.512A14.818 14.818 0 0 1 86.4 62.797a17.655 17.655 0 0 1-12.472 4.081 14.653 14.653 0 0 1-3.623-.505 9.31 9.31 0 0 1-3.37-1.673 8.873 8.873 0 0 1-2.523-3.073 10.818 10.818 0 0 1-.893-4.929 9.844 9.844 0 0 1 .642-3.76 8.55 8.55 0 0 1 1.627-2.683 5.757 5.757 0 0 1 2.293-1.582 6.393 6.393 0 0 1 2.545-.435 6.625 6.625 0 0 1 4.93 1.765 6.88 6.88 0 0 1 1.421 4.242v.16a2.617 2.617 0 0 1-.757 1.926 2.455 2.455 0 0 1-1.811.757 2.084 2.084 0 0 1-1.65-.757 2.727 2.727 0 0 1-.665-1.926 2.653 2.653 0 0 1 .78-1.948 2.452 2.452 0 0 1 1.764-.78h.413a2.638 2.638 0 0 0-1.834-1.926 9.758 9.758 0 0 0-2.591-.344 4.724 4.724 0 0 0-3.898 1.812 8.023 8.023 0 0 0-1.467 5.227 8.119 8.119 0 0 0 .825 3.806 7.402 7.402 0 0 0 2.064 2.568 8.427 8.427 0 0 0 2.774 1.444 9.723 9.723 0 0 0 2.957.482c1.8.048 3.588-.313 5.228-1.055a9.17 9.17 0 0 0 3.44-2.866 11.46 11.46 0 0 0 1.834-4.127c.396-1.713.589-3.468.573-5.227a13.532 13.532 0 0 0-3.852-9.676 13.32 13.32 0 0 0-4.357-2.912 13.18 13.18 0 0 0-5.41-1.077h-9.034v27.513a8.827 8.827 0 0 0 1.078 4.15 12.511 12.511 0 0 0 2.475 3.279.983.983 0 0 1 .46.871.827.827 0 0 1-.918.94.959.959 0 0 1-.94-.642l-8.987.092Z"/><path d="M48.34 56.95a9.171 9.171 0 0 1-2.292 6.008 13.136 13.136 0 0 1-6.878 4.035 20.651 20.651 0 0 1 4.769 2.155 15.27 15.27 0 0 1 3.76 3.119 13.066 13.066 0 0 1 2.293 3.943c.577 1.46.865 3.017.848 4.586a10.598 10.598 0 0 1-1.032 4.585 11.092 11.092 0 0 1-3.049 3.76 14.1 14.1 0 0 1-4.86 2.5 21.62 21.62 0 0 1-6.627.917H15.12a.943.943 0 0 1-.872.573.822.822 0 0 1-.718-.24.827.827 0 0 1-.222-.724.939.939 0 0 1 .573-.916 9.582 9.582 0 0 0 2.454-3.394 9.721 9.721 0 0 0 .94-4.081V54.52a7.136 7.136 0 0 0-.321-2.04c-.212-.7-.496-1.377-.849-2.018a19.949 19.949 0 0 0-1.1-1.811 17.806 17.806 0 0 0-1.124-1.49c-.344-.115-.573-.413-.573-.872a.825.825 0 0 1 .918-.94.852.852 0 0 1 .825.528h14.123a42.867 42.867 0 0 1 7.177.595c2.12.333 4.181.966 6.121 1.88a11.859 11.859 0 0 1 4.288 3.417 8.394 8.394 0 0 1 1.582 5.181ZM28.578 75.042a1.725 1.725 0 0 1 .596-1.33 2.11 2.11 0 0 1 2.797 0 1.861 1.861 0 0 1 .424 2.07 1.85 1.85 0 0 1-.424.613c-.405.354-.929.543-1.467.527a5.047 5.047 0 0 1-3.898-1.513 5.411 5.411 0 0 1-1.399-3.852 4.917 4.917 0 0 1 1.858-3.83 8.092 8.092 0 0 1 5.456-1.672h.734c1.66.002 3.305-.325 4.838-.964a10.298 10.298 0 0 0 3.233-2.292 8.398 8.398 0 0 0 1.788-2.775 8.97 8.97 0 0 0 .55-3.003 7.13 7.13 0 0 0-1.192-4.15 9.632 9.632 0 0 0-3.21-2.912 16.067 16.067 0 0 0-4.585-1.743 25.093 25.093 0 0 0-5.503-.688h-7.245v36.25c0 3.805 2.293 6.144 6.65 6.992h6.762a11.96 11.96 0 0 0 4.93-.917 10.419 10.419 0 0 0 3.394-2.292 9.77 9.77 0 0 0 1.948-3.348c.42-1.146.637-2.356.642-3.577a12.382 12.382 0 0 0-.985-4.723 13.27 13.27 0 0 0-2.798-4.126 14.076 14.076 0 0 0-9.927-4.036 6.398 6.398 0 0 0-4.219 1.17 3.573 3.573 0 0 0-1.26 2.843c.002.638.103 1.272.297 1.88a2.292 2.292 0 0 0 1.215 1.398ZM77.941 49.04v34.736c0 3.806 2.293 6.145 6.65 6.993h5.594a12.566 12.566 0 0 0 7.383-1.972 10.892 10.892 0 0 0 3.943-4.86 13.754 13.754 0 0 0 .871-6.305 17.109 17.109 0 0 0-1.788-6.283 13.758 13.758 0 0 0-4.104-4.883 9.883 9.883 0 0 0-6.076-1.949 10.55 10.55 0 0 0-2.866.39c-.85.223-1.66.57-2.408 1.032a5.869 5.869 0 0 0-1.605 1.582 3.509 3.509 0 0 0-.573 1.948c.007.774.107 1.544.298 2.293a2.565 2.565 0 0 0 1.4 1.811A2.29 2.29 0 0 1 85.3 71.9a2.009 2.009 0 0 1 1.502-.67 2.015 2.015 0 0 1 1.502.67 2.5 2.5 0 0 1 .596 1.673 2.295 2.295 0 0 1-.596 1.674 2.063 2.063 0 0 1-1.56.642 5.063 5.063 0 0 1-4.172-1.857 7.562 7.562 0 0 1-1.467-4.838 5.183 5.183 0 0 1 .985-2.843 8.165 8.165 0 0 1 3.21-2.545 14.21 14.21 0 0 1 5.181-1.238 20.102 20.102 0 0 1 7.109.917 14.72 14.72 0 0 1 5.525 4.15 15.774 15.774 0 0 1 3.026 5.915c.558 2.148.683 4.385.367 6.58a13.434 13.434 0 0 1-2.292 6.123 14.198 14.198 0 0 1-5.388 4.585 18.643 18.643 0 0 1-8.53 1.765H71.132a.871.871 0 0 1-.894.573c-.62 0-.917-.297-.917-.94a.894.894 0 0 1 .573-.916 9.879 9.879 0 0 0 2.453-3.394 9.719 9.719 0 0 0 .94-4.081V54.52a7.114 7.114 0 0 0-.32-2.04 12.076 12.076 0 0 0-.85-2.019c-.344-.642-.733-1.238-1.1-1.811-.367-.573-.78-1.055-1.123-1.49a.824.824 0 0 1-.528-.872.853.853 0 0 1 .243-.697.85.85 0 0 1 .698-.243.935.935 0 0 1 .825.528h29.806c-.007-.406.141-.8.412-1.101a1.204 1.204 0 0 1 .986-.459 1.313 1.313 0 0 1 .986.39 1.382 1.382 0 0 1 .413 1.009 1.143 1.143 0 0 1-.39.871c-.25.232-.559.391-.894.459a35.14 35.14 0 0 1-4.906.481l-7.819.207c-3.278 0-5.8.206-7.589.39-1.44.062-2.86.373-4.196.916Z"/></g></svg>