<svg width="120" height="120" fill="none" xmlns="http://www.w3.org/2000/svg"><path fill-rule="evenodd" clip-rule="evenodd" d="M0 0h120v120H0V0Zm55.254 24.325.909-1.1-.503 1.011c-1.215 3.293-5.75 12.366-3.555 15.635 4.203 6.259 13.892-.379 14.456-1.145l-9.088 24.897c-.986 2.012-3.887 5.384-5.796 6.038-8.928 3.06-7.143-9.15-4.823-13.317 2.95-5.302 7.363-5.68 10.87-6.485 1.05-.24 1.598.216 2.9-3.595-26.522.371-23.413 22.752-18.769 26.337 2.812 2.17 9.202 1.7 12.97-1.008l-6.96 19.688c-2.075 5.675-4.25 15.026-14.313 13.254l.54.799c3.286 1.79 6.024 2.071 10.035.82 12.7-3.962 12.87-23.779 16.261-25.719 1.116-.638 3.877-.453 5.03-.041 5.685 2.03-1.813 15.325-5.831 26.455l8.173.014c1.141-3.253 3.392-9.344 3.392-9.344 1.206-.761 2.672-1.518 3.541-2.16 1.975 3.053 6.211 9.512 8.044 11.486l7.344.007c-3.143-4.671-8.487-13.319-10.215-15.867 3.695-3.078 10.74-9.918 14.238-13.522-1.332 0-7.614.001-7.57-.009-.033.009-9.888 9.448-12.696 11.379 1.235-4.33 3.396-9.305-1.301-11.375-4.367-1.925-8.904.438-12.059 2.04-.003-3.059 6.644-18.735 8.507-23.067 1.493-3.47 2.009-4.21 4.526-6 9.1-6.472 11.275 8.308 2.831 15.938-2.238 2.022-4.877 2.37-8.485 2.5l-1.284 4.109c6.239-.05 9.021-.192 13.794-2.996 13.87-8.15 12.125-30.893-7.883-23.211l-.117-.122c.014-1.979 4.882-15.674 5.968-18.524 1.066-2.798 2.23-5.99 3.478-8.794 1.52-3.413 4-4.131 8.53-4.096.878-.417.871-.419 1.706-.925-5.383-1.329-10.802-2.54-15.538 1.86-1.638 1.36-2.56 4.219-3.553 6.63-1.887 4.585-4.51 10.124-5.74 14.935-9.509 1.66-9.092 2.158-4.018-12.473 1.416-4.083 3.095-8.114 4.291-12.184H56.686c-.836 1.603-8.808 13.328-9.537 13.936-.1-2.646-.067-5.363-.049-8.015.03-4.468.477-3.866-2.275-5.921h-8.476l-10.451 28.29 7.17-.019 7.144-18.875.144 18.902c2.38-.078 2.529-.804 4.483-3.548l6.95-9.15c.94-1.21 2.552-3.498 3.466-4.354Z" fill="#841F2D"/></svg>