<svg width="108" height="80" fill="none" xmlns="http://www.w3.org/2000/svg"><path fill-rule="evenodd" clip-rule="evenodd" d="M75.563 79.78c-.026-.015-6.594-1.447-7.48-1.713C46.308 71.56 33.913 46.402 43.31 24.446c2.793-6.523 6.727-11.53 12.237-15.905C65.122.975 73.906.996 75.588.254 74.754-.2 50.302.095 47.1.095 36.848.101 30.976-.012 22.422 4.213-7.319 18.905-6.92 61.242 22.31 75.775c8.461 4.205 14.451 4.149 24.575 4.149 3.1 0 28.013.245 28.678-.144Z" fill="#CD1F3B"/><path fill-rule="evenodd" clip-rule="evenodd" d="M62.4 9.923c2.768 1.069 7.188 4.798 8.682 6.466 5.207 5.821 3.002 5.683 9.801 5.683h22.954c1.191.005 2.649.184 3.427-.583 2.246-2.22-3.949-7.07-5.724-8.492-.635-.511-1.402-1.11-2.246-1.652-9.899-6.303-23.276-7.397-34.285-2.88-.511.21-.823.348-1.34.603l-.86.476c-.48.369-.056-.03-.409.379ZM62.477 70.25c1.734 1.612 8.676 3.33 11.684 3.71 4.589.572 9.893.286 14.303-.671 4.2-.91 12.027-4.589 15.065-7.893 2.052-2.226 5.443-4.517 3.612-6.671-.747-.88-1.724-.757-3.085-.747H80.883c-7.08.005-4.543-.005-9.776 5.53-4.752 5.023-7.29 5.535-8.63 6.742ZM89.984 29.444c-5.192 1.012-9.858 6.369-8.328 12.957 1.181 5.08 6.297 9.69 12.876 8.17 5.11-1.177 9.714-6.21 8.251-12.815-1.156-5.228-6.215-9.602-12.799-8.312Z" fill="#CD1F3B"/></svg>