<svg width="120" height="120" fill="none" xmlns="http://www.w3.org/2000/svg"><g clip-path="url(#a)"><path d="M120 0H0v120h120V0Z" fill="#1DA9A1"/><path fill-rule="evenodd" clip-rule="evenodd" d="M46.242 69.94c3.535 0 7.07-.011 10.605.022 3.685.035 2.448.26 6.646-3.937 4.13-4.13 30.22-30.69 32.279-32.068v62.654h-62.23l7.62-8.467H29.276c-2.728.147-15.032 13.006-15.096 14.866-.048 1.372 1.406 3.337 2.852 3.337h84.667c1.875 0 4.233-2.717 4.233-5.926V17.447c0-2.063-1.416-3.816-3.325-3.687-2.364.16-55.999 54.808-56.365 56.18Z" fill="#FEFEFE"/><path fill-rule="evenodd" clip-rule="evenodd" d="M14.068 80.947c0 1.976.988 2.964 2.964 2.964h56.726s7.197-6.425 7.197-6.774c0-4.12-5.107-2.963-9.313-2.963h-38.1l43.92-44.133c6.466-6.465 5.61-3.975 5.61-13.864 0-1.143.002-1.193.002-2.116-3.401-.793-2.822-.78-6.882 3.28l-58.42 58.844c-1.053 1.053-3.704 3.106-3.704 4.762Z" fill="#FEC98B"/></g><defs><clipPath id="a"><path fill="#fff" d="M0 0h120v120H0z"/></clipPath></defs></svg>