<svg width="120" height="120" fill="none" xmlns="http://www.w3.org/2000/svg"><path fill-rule="evenodd" clip-rule="evenodd" d="M58.774 18.095c-3.161.698-21.16 11.757-25.325 14.174-13.275 7.706-10.376 5.667-10.376 29.23 0 4.112-.616 15.965.686 18.908 1.17 2.646 2.679 3.13 5.305 4.709 8.259 4.965 16.68 9.763 24.999 14.637 7.973 4.621 8.813 1.697 20.408-4.978 24.37-14.03 22.5-7.302 22.5-36.611 0-4.13.63-15.734-.772-18.69-1.21-2.55-2.752-3.156-5.33-4.683L72.157 23.863c-2.885-1.753-9.634-6.597-13.382-5.768ZM34.44 69.272c-1.753 4.224 2.66 10.35 6.995 7.654l21.49-12.591c3.535-2.026 8.58-5.882 11.3-5.093.894 1.714 1.055 5.137.408 7.486-.618 2.246-3.738 5.028-5.717 6.196-4.37 2.58-8.763 5.13-13.077 7.664-1.75 1.028-6.033 2.709-4.11 4.792.283.306 6.055 3.571 6.662 3.761 3.79 1.441 24.885-11.685 26.634-14.198 1.573-2.262.864-15.89.864-19.743 0-10.351-.152-10.276-6.481-14.13-4.593-2.658-8.483-5.005-13.075-7.673-7.433-4.32-7.241-3.297-14.18.905-4.398 2.662-8.712 5.038-13.083 7.66-2.358 1.416-4.384 2.129-4.825 5.138-.302 2.063-1.101 8.773 1.713 8.556.946-.073 16.73-9.533 19.618-11.263 3.453-2.068 3.876-2.101 7.511.026 1.666.975 6.39 2.82 3.894 5.43L35.88 68.033c-1.315.803-.772.245-1.442 1.239Z" fill="#F17E00"/></svg>