<svg width="120" height="120" fill="none" xmlns="http://www.w3.org/2000/svg"><path fill="#294678" d="M0 0h120v120H0z"/><path fill-rule="evenodd" clip-rule="evenodd" d="M30.804 44.283 30 36l-.804 8.283L25.5 40.5l2.56 5.082L21 46.5l7.06.918-2.53 3.539A22.401 22.401 0 0 0 21 64.5C21 76.926 31.074 87 43.5 87S66 76.926 66 64.5 55.926 42 43.5 42c-4.13 0-8 1.113-11.327 3.055l2.014-4.555-3.383 3.783Zm-1.494 5.609L30 57l.804-8.283L34.187 51l-2.247-3.582L39 46.5l-4.789-.623c2.663-1.504 5.784-2.377 9.289-2.377 12 0 19.5 10.23 19.5 21S54.27 84 43.5 84 24 75.27 24 64.5c0-5.417 1.897-10.697 5.31-14.608Z" fill="#fff"/><path d="M50.997 39c-2.997 9 3 34.5 3 34.5l9 1.5s8.664-22.02 6-33c8.664-5.52 9-21 9-21s-23.78 8.334-27 18Z" fill="#294678"/><path fill-rule="evenodd" clip-rule="evenodd" d="m65.576 40.623 1.81-1.153c3.331-2.123 5.335-6.41 6.454-10.784a38.2 38.2 0 0 0 .653-3.094 101.61 101.61 0 0 0-7.407 3.446c-3.086 1.6-6.171 3.445-8.64 5.416-2.543 2.029-4.076 3.913-4.603 5.494-.568 1.707-.782 4.53-.644 8.124.135 3.503.587 7.414 1.141 11.108a190.971 190.971 0 0 0 2.146 11.693l4.558.76a127.56 127.56 0 0 0 3.053-9.788c.896-3.36 1.693-6.996 2.108-10.418.421-3.47.418-6.488-.123-8.72l-.506-2.084ZM77.998 21s-.029 1.31-.282 3.302c-.618 4.86-2.575 13.784-8.719 17.698 2.664 10.98-6 33-6 33l-9-1.5S48 48 50.998 39c2.499-7.504 17.389-14.205 23.926-16.827A82.02 82.02 0 0 1 77.998 21Z" fill="#fff"/><path d="M48 69c-4.024-.79-6.54-1.063-10.5 0 9 4.5 13.416 16.161 25.5 19.5 5.113 1.413 13.5 1.5 13.5 1.5s4.5 4.5 7.5 6l6-6c-4.5-1.5-12-3-12-3s-5.61-5.76-7.5-9c7.5-9 9-18 6-31.5 12-9 18-21 18-21l-21.636 9.273c-4.807 2.06-7.21 3.09-8.668 5.096-1.457 2.006-1.694 4.61-2.168 9.819L60 72s-7.622-2.14-12-3Z" fill="#fff"/></svg>