<svg width="120" height="120" fill="none" xmlns="http://www.w3.org/2000/svg"><path d="M120 0H0v120h120V0Z" fill="#C12240"/><path fill-rule="evenodd" clip-rule="evenodd" d="M44.068 60.341c.209-.148-.15-.027.416-.24 1.28-.482 4.45-.564 6.076.975.885.837 1.258.943 2.65 1.473 1.418.54.793 1.211 2.533 1.396.898 2.956.282 7.715 1.015 11.05l7.175.328c-.007-3.148-.54-8.289.383-11.096.522-1.59 4.36-4.277 6.887-4.25.195-.146.019-.103.383-.218.103-.032.44-.081.557-.095l3.276.125c1.18.205 2.413.638 3.336 1.165 1.663.949 5.156 4.301 3.6 5.477-1.1 1.802-4.432 3.198-7.647 3.24-4.234.057-5.563-1.086-8.368-2.598.036 2.302-.307 4.077-.32 6.175-.01 1.983 1.164 3.88.493 5.364-1.272 2.815-5.565 3.495-5.397 7.471 1.474 1.08 1.536 1.504 4.14 1.075 3.872-.639 3.798-1.147 5.394-2.268 1.857-1.304.525-4.234 2.893-4.753l.57.15c.359 1.26-.13 1.759-.305 3.056l-.372.233-.144-.03c-.386.618-.626 1.576-1.092 2.302-.439.683-1.074 1.213-1.617 1.725-.941.886-2.97 1.938-4.722 2.242-3.29.207-4.422-.088-6.267-2.012-1.438.589-2.15 1.324-4.33 1.49-4.775.36-10.02-3.43-10.582-6.626.3-.39 1.042-1.149 1.831-.863.842.306.653 1.845 3.734 4.51 2.435 2.105 6.553-.488 8.68-1.015-.59-3.12-3.697-5.374-4.507-7.288-.419-.988.246-8.59-.715-10.712-3.836.885-.283 2.576-9.793 1.923-3.676-.252-6.079-1.997-7.823-3.828.65-1.889 5.202-4.939 7.979-5.053Zm35.96-23.605c-2.034 4.408-4.244 8.128-8.172 9.969l-.02.097c-.388 1.597.698-1.33 0 0-5.767.653-16.157 2.315-25.804-.006l-.399-.423c-.21-.216-.06.007-.314-.317-2.24-.594-3.811-4.356-4.934-6.365-.786.655-1.67 3.392-2.009 4.315-.597 1.63-1.102 3.125-1.701 4.778-1.302 3.592-2.581 5.321-3.228 9.569-1.195 7.863-.114 15.296 2.663 22.085 1.211 2.96 2.911 5.556 4.938 7.816 1.162 1.295 2.056 1.525 4.009 2.274 7.455 2.858 13.888 2.902 21.549.724 1.793-.51 3.274-1.214 4.96-1.763l2.341-1.302c.148-.156.247-.281.533-.494.27-.2.303-.181.571-.407.513-.432.73-.6 1.182-.979l3.905-4.337c.374-.474.572-.742.926-1.23l.638-.942c.168-.202.183-.19.346-.341.185-.469 1.244-2.812 1.479-3.184 1.661-7.038 2.793-13.46 1.503-21.158-.533-3.178-1.636-6.255-2.28-9.507-.404-2.044-1.415-8.151-2.31-9.449l-.371.577Z" fill="#FFFDFD"/><path fill-rule="evenodd" clip-rule="evenodd" d="M51.538 94.029c-.727-.06-1.363-.204-2.026-.26-1.066-.09-1.076.218-1.59-.438-2.36-.132-5.502-1.37-7.598-2.387-.884-.43-1.299-.91-1.893-1.235.045 1.254.13 2.509.22 3.762.148 2.07.275 25.294.952 26.529h67.683c.936-.702-18.677-27.388-17.838-27.954-.267-2.025-2.432-3.716-3.197-5.217-.646-1.268-1.196-2.92-1.569-4.352-.456-1.838-.003-1.642-1.068-3.236-.789.783-.178-.386-1.115 1.796-4.531 10.548-19.9 14.085-30.96 12.992Z" fill="#E46400"/><path fill-rule="evenodd" clip-rule="evenodd" d="M61.637 80.146c-.42.528-1.332 1.853-1.847 2.144-1.25-.627-2.184-2.662-2.701-3.882 2.042-.86 3.726-.561 5.784-.264-.364.74-.799 1.222-1.236 2.002Zm12.475.14-.57-.15c-2.367.52-1.035 3.45-2.892 4.754-1.596 1.121-1.522 1.629-5.395 2.267-2.603.43-2.665.007-4.138-1.074-.17-3.976 4.124-4.656 5.396-7.47.671-1.485-.504-3.382-.493-5.365.013-2.098.356-3.873.32-6.175 2.805 1.512 4.134 2.655 8.368 2.598 3.215-.043 6.547-1.439 7.648-3.24 1.555-1.176-1.938-4.528-3.601-5.477-.923-.527-2.156-.96-3.336-1.166l-3.276-.124a5.231 5.231 0 0 0-.557.095c-.364.115-.188.072-.383.219-2.526-.028-6.365 2.66-6.888 4.248-.922 2.808-.389 7.949-.383 11.097l-7.174-.328c-.733-3.335-.116-8.094-1.015-11.05-2.27-1.284-6.055-5.57-11.26-3.844-4.356 1.074-7.301 2.122-8.395 5.293 1.745 1.83 4.148 3.575 7.824 3.828 9.51.653 5.957-1.038 9.793-1.923.96 2.123.296 9.724.715 10.713.81 1.913 3.137 4.697 4.19 7.375-2.127.528-5.928 3.032-8.363.927-3.08-2.665-2.892-4.204-3.734-4.51-.789-.286-1.53.473-1.831.863.562 3.197 5.807 6.987 10.582 6.625 2.18-.165 2.892-.9 4.33-1.489 1.845 1.924 2.977 2.219 6.267 2.011 4.454-.406 9.845-5.945 8.251-9.527ZM40.127 65.395c.49-.888 1.83-1.205 3.152-1.418l.277 3.035c-1.51-.22-2.987-.615-3.43-1.617Zm39.737.588c-.145.134-.12.131-.364.27l-.847.33c-.557.17-.764.211-1.405.235-.107-1.31-.174-1.688.208-2.763 1.11.074 2.147.96 2.408 1.928ZM52.86 64.8c-.847.955-1.447 1.495-3.086 1.82-.046-1.723-.613-2.352-.816-3.74 1.72.133 3.327.858 3.902 1.92Zm14.805-.583c.64-.755 3.424-1.614 4.639-1.8-.34 1.903-.302 2.271.024 4.203-2.206-.103-4.043-.89-4.662-2.403Z" fill="#181716"/><path fill-rule="evenodd" clip-rule="evenodd" d="M38.949 54.592c6.913 2.822 11.073-2.303 13.712-2.326.478 1.838-1.152 2.862-1.866 4.34.46.852 1.179.747 2.487.303 6.718-1.12 6.08-3.139 9.153-4.362-.143 3.086-.414 3.02-1.214 5.64 2.175 1.359 8.122-5.045 9.265-7.221.699-1.33.962-2.567 1.35-4.164-4.701.93-8.69.688-13.505.583-5.004-.11-2.886.85-6.264.421-1.808-.23-4.274-.538-5.479-1.42l-1.27-.33c.255.324.105.101.315.317l.399.423c-1.147 1.584-.314 1.657-2.94 4.451-2.508 2.67-3.185 1.206-4.143 3.345Z" fill="#E46400"/><path fill-rule="evenodd" clip-rule="evenodd" d="m73.907 88.187-2.34 1.302c-1.687.549-3.169 1.253-4.961 1.763-7.66 2.178-14.095 2.134-21.55-.724-1.952-.75-2.847-.979-4.008-2.274-2.027-2.26-3.727-4.856-4.938-7.816-2.778-6.79-3.859-14.222-2.663-22.085.646-4.248 1.926-5.977 3.228-9.57.599-1.652 1.103-3.148 1.7-4.777.339-.923 1.224-3.66 2.01-4.315 1.122 2.008 2.694 5.771 4.934 6.365l1.27.33c1.204.882 3.67 1.191 5.478 1.42 3.378.43 1.26-.53 6.264-.421 4.815.105 8.804.347 13.504-.582l.021-.098c3.928-1.84 6.138-5.56 8.172-9.969l.373-.576c.894 1.297 1.905 7.404 2.309 9.448.644 3.252 1.747 6.329 2.28 9.507 1.29 7.698.158 14.12-1.503 21.158-1.242 1.971-1.859 3.757-3.39 5.697l-3.904 4.338c-.452.379-.67.546-1.182.978-.269.226-.302.207-.571.407-.287.213-.385.338-.533.494ZM69.45 44.199c-4.511-.247-16.11.401-18.294.184-5.736-.571-5.73-1.015-8.088-5.45-.948-1.782-.634-3.29-2.222-4.648-.64-.546-1.665-.789-2.404-.05-.8.8.02 1.377-.407 2.523-1.297 3.473-2.281 4.94-3.859 9.691-.572 1.725-1.038 3.574-1.64 5.224-.653 1.791-1.343 3.13-1.724 5.159a44.204 44.204 0 0 0-.55 12.77c.421 4.128 1.519 10.114 3.369 13.706.476.925 1.018 1.103 1.367 1.97.616 1.528-.188 4.057 1.242 6.813-.702 7.619-.783 26.553-.383 27.909h3.746c-.677-1.235-.804-24.46-.952-26.53-.09-1.252-.176-2.507-.22-3.76.594.323 1.01.804 1.893 1.234 2.096 1.018 5.237 2.255 7.597 2.387.515.656.525.347 1.591.438.663.057 1.299.2 2.026.26 11.06 1.092 26.43-2.444 30.96-12.992.938-2.182.327-1.013 1.116-1.796 1.065 1.594.611 1.398 1.068 3.236 3.51 13.344 22.055 34.502 22.603 37.523h4.166c-.458-1.364-11.059-13.22-18.292-24.999-5.124-8.345-7.61-17.516-7.815-19.05-.98-1.199-.296-1.635.154-3.102 1.226-3.993 1.54-7.933 1.454-12.166-.254-12.298-1.285-7.793-2.538-15.786-.484-3.092-1.113-4.441-1.877-7.146-.799-2.828-1.223-4.644-3.315-5.697-2.813 1.062-1.095 3.563-4.112 7.635-2.314 3.124-3.784 3.533-5.66 4.51Z" fill="#181716"/><path fill-rule="evenodd" clip-rule="evenodd" d="M67.665 64.216c.62 1.512 2.456 2.3 4.663 2.404-.326-1.933-.364-2.3-.025-4.204-1.215.186-4 1.045-4.638 1.8ZM49.774 66.62c1.639-.325 2.238-.865 3.085-1.82-.575-1.063-2.18-1.788-3.901-1.92.203 1.387.77 2.016.816 3.74ZM40.127 65.394c.442 1.002 1.918 1.398 3.429 1.617l-.277-3.034c-1.322.212-2.662.53-3.153 1.417ZM77.248 66.817c.64-.023.848-.064 1.404-.235l.848-.33c.244-.138.219-.136.364-.27-.261-.969-1.299-1.853-2.408-1.928-.382 1.075-.315 1.453-.208 2.763Z" fill="#FFFDFD"/><path fill-rule="evenodd" clip-rule="evenodd" d="m61.637 80.147-1.498 1.884c-.277.245-.026.077-.349.26-1.25-.628-2.184-2.663-2.702-3.882 2.043-.86 3.727-.562 5.785-.264-.364.74-.799 1.221-1.236 2.002Z" fill="#FEFEFE"/></svg>