<svg width="120" height="120" fill="none" xmlns="http://www.w3.org/2000/svg"><path fill-rule="evenodd" clip-rule="evenodd" d="m0 119.151.054.849 119.904-.002L120 .083 119.153 0 .003.014 0 119.151Z" fill="#003570"/><path fill-rule="evenodd" clip-rule="evenodd" d="M68.227 43.823a139.049 139.049 0 0 1-3.124 3.44c-2.38 2.534-3.574 5.393-4.328 8.709-.427 1.88-.402 4.097-.368 6.239.04 2.497 1.213 8.1 2.754 9.667 1.277 1.3 5.317-2.672 6.243-3.82.94-1.167.59-1.476 1.283-1.722.13-1.634-.156-1.112-.445-2.37-2.789-12.126 12.156-21.317 21.365-12.63 6.73 6.347 5.494 16.927-2.799 21.446-5.022 2.737-8.542.36-9.57 1.427-1.032 1.072-6.668 6.594-6.762 6.98 1.343 1.717 7.056 2.718 9.388 2.766 25.869.54 32.06-33.175 11.373-43.274l-4.315-1.972c.395-1.212 2.956-3.64 3.863-5.056-2.363-2.406-7.278-7.495-7.278-7.495-4.676 4.465-12.689 12.42-17.28 17.665ZM55.627 73.28c-1.477-1.025-7.103-5.983-7.21-6.028-.484.224-1.503 1.804-2.045 2.395-4.03 4.397-11.459 5.341-16.573 1.71-7.881-5.595-7.805-18.163 2.197-22.886 3.27-1.544 4.233-.816 8.136-1.093 1.66-2.461 6.357-6.632 7.17-7.347-25.681-9.16-40.837 16.296-28.967 33.282 2.346 3.358 4.21 4.91 7.724 7.178 4.715 3.04 12.752 3.917 18.24 1.754 3.454-1.361 10.71-5.348 11.329-8.964Z" fill="#F5F5F5"/><path fill-rule="evenodd" clip-rule="evenodd" d="M43.355 44.939c-6.292 6.484-8.81 19.805-3.073 27.206 2.639.018 5.602-3.06 7.06-5.126.537-.762.625-.9.272-1.994-2.362-7.309 1.694-15.903 9.578-17.175 7.354-1.186 3.25 2.53 9.187-4.18 1.537-1.738 2.886-3.528 3.28-3.764-11.589-2.529-17.345-4.2-26.305 5.033ZM50.264 80.203c-.574.373-.473.148-.658.76.622 1.126 4.074 1.768 4.992 1.978 8.292 1.897 15.487-.506 21.123-6.085.89-.882 2.227-2.278 2.644-3.471-.701-.433-1.484-.584-2.28-1.114-1.644-1.093-4.001-3.196-4.474-5.015l-.657.044-.534.845c-.215.309-.4.556-.597.793-4.977 6.03-9.865 4.239-13.27 4.734-.694 1.972-4.86 5.652-6.289 6.531Z" fill="#F5F5F5"/></svg>