<svg width="120" height="120" fill="none" xmlns="http://www.w3.org/2000/svg"><path fill-rule="evenodd" clip-rule="evenodd" d="M65.882 78.438c.895 1.804 1.667 2.992 2.87 4.358 5.347 6.079 13.211 8.156 21.087 5.786 4.822-1.451 9.177-5.476 11.419-9.995 2.877-5.797 2.553-12.066-.062-17.591-2.195-4.637-6.653-8.278-11.632-9.9-3.341-1.089-3.986-.663-5.49-.985l-.289-.094c-.401-.147-.169-6.37-.168-7.275 0-2.576.104-4.42-.87-6.47-3.523-7.408-13.92-8.007-17.967.003-1.662 3.289-.397 10.061-.919 13.862l-7.728.037c-.363-1.42.064-2.86-1.07-6.238-1.709-5.094-5.613-9.553-10.437-11.67-9.992-4.384-20.568-.188-25.368 8.187-1.96 3.42-2.95 7.937-2.423 12.057.282 2.205.835 3.95 1.614 5.823 1.55 3.732 5.365 7.708 9.034 9.406 2.07.958 2.986 1.446 5.44 1.852.601.1.928.23 1.553.256.624.026 1.28-.037 1.888.093.523 6.692-1.992 14.41 4.947 18.314 2.975 1.674 6.128 1.754 9.302.28 2.435-1.132 4.953-4.23 5.15-6.45.722-1.038.266-9.935.399-12.07 1.06-.11 6.748-.149 7.638.031.024 2.728.883 5.973 2.083 8.392ZM35.721 46.367c-5.489 1.305-3.278 8.57 1.355 7.675 5.26-1.017 3.452-8.818-1.355-7.675Zm46.816 19.794c-5.113 1.53-2.65 8.908 2.143 7.445 5.01-1.529 2.774-8.916-2.143-7.445Z" fill="#6299D2"/><path d="M95.314 45.513a7.572 7.572 0 1 0 0-15.143 7.572 7.572 0 0 0 0 15.143Z" fill="#6299D2"/></svg>