<svg width="120" height="120" fill="none" xmlns="http://www.w3.org/2000/svg"><path fill-rule="evenodd" clip-rule="evenodd" d="M59.992 75.93c-6.212-3.273-10.06-14.309-12.6-20.363 0 0-4.77 8.593-3.942 11.181 2.678 8.364 11.183 22.875 16.542 28.256 4.195-3.796 14.219-21.607 16.465-28.256.92-2.72-3.366-10.742-3.736-11.18-2.262 4.758-8.158 18.393-12.729 20.362Z" fill="#FF5B01"/><path fill-rule="evenodd" clip-rule="evenodd" d="M59.992 71.72c4.482-2.462 9.929-13.36 12.333-19.097 1.407-3.357-4.877-12.883-4.877-12.883-.991 3.521-5.173 11.064-7.456 12.33-2.363-.598-7.557-12.12-7.761-12.33 0 0-3.972 6.531-4.632 8.07-1.45 3.378-.825 3.946 1.646 9.167 2.352 4.97 7.195 12.952 10.747 14.742Z" fill="#FF5B01"/><path fill-rule="evenodd" clip-rule="evenodd" d="M59.992 48.39c2.565-1.286 7.128-9.737 7.426-11.588.506-3.144-5.64-10.9-7.426-11.806-2.689 1.825-7.54 9.237-7.362 11.551.258 3.33 5.637 10.694 7.362 11.844Z" fill="#FF5B01"/></svg>