<svg width="120" height="120" fill="none" xmlns="http://www.w3.org/2000/svg"><path d="M120 0H0v120h120V0Z" fill="#283944"/><path fill-rule="evenodd" clip-rule="evenodd" d="M67.964 80.73s31.274-4.855 33.628 3.928c.784 2.731-.499 5.229-2.44 6.297-3.066 1.688-27.96.776-27.96.776 1.357 5.591 2.845 11.073 4.345 16.624 0 0 2.085.172 4.672.172 8.727 0 20.56 1.38 27.284-2.591 12.507-8.653 15.329-30.569-.441-39.503-8.447-3.833-27.635-2.515-27.635-2.515l10.626-45.893-14.35.017c-1.728 5.117-11.68 45.876-11.68 45.876l3.95 16.811ZM27.096 18.291s-11.976-.06-14.767 0l-.11 14.374s9.419 39.008 13.288 54.308l.68 21.404 14.668.077-.684-21.353s-2.783-11.291-6.058-23.764c-4.157-15.834-6.875-30.672-6.875-30.672l-.142-14.374Zm25.794 90.223 14.282-.001-11.518-44.877c.061.638 11.35-45.345 11.37-45.596l-14.347.002c-.094.25-11.846 45.141-11.846 45.141l12.059 45.331Z" fill="#FDFDFD"/></svg>