<svg width="120" height="120" fill="none" xmlns="http://www.w3.org/2000/svg"><path fill-rule="evenodd" clip-rule="evenodd" d="M86.915 82.947c5.203.681 6.157 5.77 4.643 8.813-1.98 3.978-5.756 3.54-10.431 2.465-13.232-3.046-40.558-12.54-52.463-6.342-1.689.879-1.533.979-2.617 1.684-.27.176-.163.14-.393.2-.216.42-.02.099-.25.395-.681.875-1.14.921-2.024 2.662-.504.992-1.103 2.746-.929 4.103l4.467.008c-.043-4.075 7.836-4.172 10.692-4.068 4.461.163 8.818 1.182 12.745 2.167 7.93 1.987 16.076 3.96 24.023 5.911 9.066 2.227 18.034 2.488 22.022-4.88 4.773-8.815-2.168-18.034-9.423-17.49l-.062 4.372ZM33.92 23.66c-5.782 1.346-9.532 7.331-8.783 14.74.598 5.918 5.34 12.864 12.148 11.284 5.574-1.292 9.52-7.835 8.635-14.822-.442-3.483-1.734-6.239-3.588-8.225-1.648-1.766-4.723-3.835-8.412-2.977Zm.62 4.232c-8.403 2.227-6.11 19.207 1.938 17.586 3.628-.73 5.57-5.371 5.304-9.824-.232-3.871-3.085-8.864-7.242-7.762ZM71.156 77.191c2.789.004 4.929-1.29 6.269-2.613 3.364-3.323 4.526-7.215 3.98-13.442-.83-4.08-2.789-7.175-5.625-8.935-3.866-2.398-7.979-1.407-10.876 1.248-4.141 3.795-5.402 11.077-3.018 16.772 1.6 3.823 4.892 6.964 9.27 6.97Zm-1.415-21.81c-8.28 2.977-5.126 19.794 2.814 17.376 3.362-1.024 5.327-5.686 4.847-10.178-.393-3.67-3.366-8.743-7.661-7.198ZM49.303 51.662 30.266 75.135c-1.27 1.59-5.454 6.57-6.262 7.83l5.713.056c8.456-9.944 16.505-20.375 24.777-30.474 2.134-2.605 4.1-5.089 6.197-7.617 7.35-9.05 14.87-17.985 21.948-27.212l-5.745.034c-.266.1-24.277 29.88-27.592 33.91Z" fill="#56AE3D"/><path fill-rule="evenodd" clip-rule="evenodd" d="M22.385 80.192c.966-.607 22.483-27.664 25.819-31.602.864-1.02.565-2.019.563-3.6a200.336 200.336 0 0 0-.035-4.159c-.287.448-.963 2.914-1.798 4.525-.747 1.44-1.768 2.82-2.714 3.731-5.288 5.095-12.733 5.045-17.72-.34-.796-.86-1.959-2.418-2.631-3.81-.38-.785-1.568-4.053-1.377-4.859-.36 2.348-.184 37.847-.107 40.114ZM57.885 53.78l-.005 4.674c.01.196.014.32.048.514l.273.188c.064-.139.072-.142.122-.265.585-1.444.603-2.06 1.584-3.802 5.614-9.975 17.548-9.326 22.649.207.327.612.657 1.337.922 2.135l.784 2.492.014-39.347c-.916.59-5.755 6.867-6.793 8.142-2.286 2.803-4.374 5.43-6.678 8.212L59.15 51.282c-.62.77-1.265 1.13-1.264 2.498ZM22.496 33.203c-.199-.588 1.023-4.038 1.328-4.7 3.62-7.836 13.23-11.1 20.374-4.28.98.937 1.928 2.256 2.725 3.74.385.72.676 1.435.982 2.254.247.661.52 1.8.794 2.377l.07-14.861-26.383-.037c-.12 2.077-.136 13.875.11 15.507ZM57.88 82.99l26.39.03.02-14.758-.462 1.068c-.115.402-.218.799-.362 1.246-2.853 8.87-13.584 13.459-21.278 5.622-2.041-2.08-3.34-5.053-4.237-8.415l-.072 15.207ZM33.466 82.96l15.26.006c.188-4.899-.02-11.234.021-16.45.018-2.154 0-2.592 0-2.592-.084.586-13.533 16.594-15.281 19.037ZM51.03 83.018l4.494.007.022-4.48-4.486-.034-.03 4.507ZM73.168 17.715l-15.284-.038-.007 18.848 15.29-18.81ZM26.918 96.935l-4.467-.008c-.174-1.356.425-3.11.929-4.103.884-1.74 1.343-1.787 2.024-2.662.23-.296.034.025.25-.396-1.194.25-2.115 1.795-2.677 2.86-.507.962-1.334 3.157-.75 4.564.18.192 2.957.204 3.557.21.852.009.91.09 1.134-.465Z" fill="#56AE3D"/></svg>