<svg width="120" height="120" fill="none" xmlns="http://www.w3.org/2000/svg"><path fill="#28BF53" d="M0 0h120v120H0z"/><path d="M48.436 45.265c3.544-.86 7.415 1.62 8.357 5.237.33 5.466.008 10.953.133 16.428.032 1.05.777 2.263 1.877 2.267 3.328-1.798 6.256-4.3 9.416-6.38 1.492-.913.48-3.41-1.731-2.594-3.677.8-6.46 2.647-8.345-.667-1.103-4.198 3.925-4.286 6.504-4.893 5.033-1.182 10.508 2.437 9.833 7.698-.2 4.04-4.004 5.98-6.865 7.899-3.439 2.335-7.486 6.5-11.87 3.923-7.23-3.839-3.834-13.967-4.317-20.634 0-1.261-.669-2.473-2.226-2.251-7.552 4.812-14.755 10.166-22.217 15.115-.98.825-.786 3.249 2.069 2.501 5.852-1.034 11.7-2.137 17.506-3.418 1.523-.465 3.642.275 3.878 2.089.589 1.454-.805 3.066-2.104 3.454-6.684 1.386-13.416 2.534-20.113 3.875-4.847.226-8.32-5.248-6.9-9.895 1.83-4.17 6.355-5.564 9.617-8.27 5.954-3.56 11.186-8.663 17.498-11.484ZM78.142 45.136c1.947-.68 3.6 1.297 3.39 3.515.072 6.198-.038 12.396.013 18.594-.098 1.002 1.036 1.77 1.876 1.859 3.493-1.891 9.311-5.7 9.836-6.82.525-1.12 0-2.517-2.15-2.142-2.888.635-6.438 2.557-8.342-.675-1.177-4.315 3.82-4.448 6.48-4.925 3.684-.66 8.063.295 9.19 4.206 1.801 4.11-.992 7.686-4.31 10.142-3.748 2.594-7.29 6.553-12.066 5.903-3.666-.607-6.108-4.275-5.99-7.956-.063-6.198-.004-12.396-.031-18.594-.087-1.378.844-2.679 2.104-3.107Z" fill="#ECF9F0"/></svg>