<svg width="120" height="120" fill="none" xmlns="http://www.w3.org/2000/svg"><path fill-rule="evenodd" clip-rule="evenodd" d="M46.031 32.812c0 4.458.498 6.482 2.813 9.938-.363.542-.772.976-.938 1.687.595.398 1.686 1.138 2.438 1.313.865-1.634 1.17-1.669 2.062-3-3.17-4.734-3.562-4.72-3.562-10.875h3c.094-1.126.887-1.735 1.125-2.625-1.4-.116-5.553-.519-6.484.266-.44.37-.454 2.583-.454 3.296Zm4.5 23.625c4.538 0 6.147-1.005 9.563-2.812.53.46.92.759 1.687.937.37-.698 1.14-1.697 1.313-2.437-.757-.176-2.618-1.54-3-2.063-4.859 3.254-5.2 3.563-11.25 3.563 0-3.51.218-2.661-1.186-3.314-.62-.288-.857-.56-1.627-.624 0 6.368-.28 6.419 1.867 6.571.96.069 1.45.18 2.633.18Zm-9.75-13.687c2.385 3.56 6.86 7.306 11.438 7.687 0 .978.2 1.12.375 1.875.855-.07 2.01-.424 2.625-.75-.02-.877-.278-1.222-.36-2.077-.19-1.98-.191-1.521-1.813-1.75-.211-.03-.87-.172-1.09-.223-.698-.16-1.298-.28-1.914-.523-2.124-.838-4.557-2.536-5.698-4.24l1.916-2.021c-.15-.508-.774-2.24-.979-2.666-1.306.692-3.798 3.362-4.5 4.688Zm19.125-10.875-.748-.564c-.351-.204-.483-.267-.94-.374-.369.699-1.14 1.698-1.312 2.438.757.176 2.618 1.54 3 2.063 4.819-3.227 5.06-3.563 11.25-3.563 0 3.51-.217 2.661 1.186 3.314.62.288.857.56 1.627.623 0-1.828.061-3.928-.156-5.468-.165-1.164-.403-1.01-1.71-1.103-3.059-.217-4.762-.418-8.03.614-1.574.496-2.794 1.294-4.167 2.02Zm-7.687 3.187c-.658.055-1.58.332-2.063.563.333.692.385 1.676.75 2.437.848 0 1.475-.247 2.114-.323.972-.116 1.488.232 1.757-.68.318-1.076.027-1.755.948-4.116.587-1.507 1.847-3.407 2.91-4.402l1.46-1.166c.593.887 1.419.871 1.687 1.875 1.24-.028 1.837-.653 3-.75-.34-1.272-3.952-4.254-4.875-4.5-3.255 2.179-7.688 6.912-7.688 11.062ZM64.78 33.75c0 .995.252 1.296.345 2.092.374 3.193.615 1.002 4.83 2.67 2.15.85 4.546 2.515 5.7 4.238l-1.916 2.022c.15.508.775 2.24.979 2.665 1.318-.697 3.792-3.349 4.5-4.687-1.278-1.91-2.855-3.477-4.659-4.904-1.378-1.09-4.558-2.599-6.779-2.784 0-.977-.199-1.12-.375-1.874-.945.078-1.68.483-2.625.562Zm2.813 9c3.17 4.734 3.562 4.72 3.562 10.875h-3a5.217 5.217 0 0 1-.495 1.38c-.267.53-.488.714-.63 1.245 4.502.374 2.296.167 6.563-.188.446-1.913.375-3.1.375-5.062 0-3.432-1.428-6.183-2.813-8.25.363-.542.772-.976.938-1.688-.692-.463-1.52-1.098-2.438-1.312-.865 1.634-1.17 1.668-2.062 3Zm-7.688 15.375c-.594-.888-1.42-.871-1.687-1.875-1.24.028-1.838.653-3 .75.34 1.272 3.952 4.253 4.875 4.5 3.254-2.18 7.687-6.912 7.687-11.063.658-.054 1.58-.33 2.063-.562-.332-.692-.385-1.676-.75-2.438-.848 0-1.475.248-2.114.324-2.321.278-1.384-.393-2.088 2.787-.391 1.769-1.253 3.814-2.408 5.092-1.108 1.226-.351.715-1.852 1.898-.327.258-.38.355-.726.587Z" fill="#01499A"/><path d="M46.223 71.203V69.78h3.455V68.5h-5.192v7.112h2.997c1.839 0 2.957-.833 2.957-2.205 0-1.382-1.118-2.204-2.957-2.204h-1.26Zm2.48 2.204c0 .61-.499.874-1.444.874h-1.036v-1.748h1.036c.945 0 1.443.244 1.443.874Zm7.416-4.907h-2.235l-2.967 7.112h1.89l.548-1.463h3.292l.56 1.463h1.889L56.119 68.5Zm-1.118 1.32 1.169 3.049h-2.327l1.158-3.048Zm5.02 5.792h1.737v-3.079h3.474v3.079h1.738V68.5h-1.737v2.703h-3.475V68.5H60.02v7.112ZM75.26 68.5h-1.992l-2.936 3.21V68.5h-1.737v7.112h1.737v-1.748l1.148-1.25 2.114 2.998h2.031l-3.058-4.176 2.693-2.936ZM24.612 86.615l2.194-3.16v4.45h1.677v-7.112h-1.657l-2.733 4.075-2.723-4.075h-1.656v7.112h1.677v-4.45l2.194 3.16h1.027Zm7.234-3.119v-1.422H35.3v-1.28h-5.192v7.112h2.997c1.84 0 2.957-.834 2.957-2.205 0-1.382-1.118-2.205-2.957-2.205h-1.26Zm2.479 2.205c0 .61-.498.874-1.443.874h-1.036v-1.748h1.036c.945 0 1.443.244 1.443.874Zm7.417-4.907h-2.236l-2.966 7.112h1.89l.548-1.464h3.292l.559 1.464h1.89l-2.977-7.113Zm-1.118 1.32 1.168 3.048h-2.326l1.158-3.048Zm7.925 3.018v-1.189h-3.384v1.189h3.384Zm6.289 1.483 2.194-3.16v4.45h1.677v-7.111h-1.657l-2.733 4.074-2.723-4.074h-1.656v7.112h1.677v-4.45l2.194 3.16h1.027Zm12.964-2.265c0-2.093-1.473-3.678-3.942-3.678-2.459 0-3.932 1.585-3.932 3.678s1.473 3.678 3.932 3.678c2.469 0 3.942-1.585 3.942-3.678Zm-6.116 0c0-1.433.853-2.327 2.174-2.327 1.33 0 2.174.894 2.174 2.327 0 1.432-.843 2.326-2.174 2.326-1.321 0-2.174-.894-2.174-2.326Zm6.929 0c0 2.225 1.635 3.678 4.053 3.678 1.545 0 2.632-.671 3.384-1.91l-.986-.56c-.508.681-1.33 1.118-2.438 1.118-1.2 0-2.256-.802-2.256-2.326s.996-2.327 2.195-2.327c.894 0 1.646.427 1.87 1.26h1.726c-.325-1.534-1.585-2.611-3.555-2.611-2.419 0-3.993 1.453-3.993 3.678Zm15.392-3.556h-1.991l-2.936 3.21v-3.21h-1.738v7.112h1.738v-1.748l1.148-1.25 2.113 2.998h2.032l-3.058-4.176 2.692-2.936Zm1.179 7.112h3.271c2.236 0 3.17-.854 3.17-2.093 0-.823-.589-1.453-1.554-1.646.721-.193 1.127-.773 1.127-1.433 0-1.158-.954-1.94-2.936-1.94h-3.078v7.112Zm4.694-2.144c0 .61-.508.914-1.575.914h-1.412v-1.829h1.412c1.067 0 1.575.316 1.575.915Zm-.315-2.936c0 .538-.488.833-1.423.833h-1.25v-1.636h1.25c.935 0 1.423.244 1.423.803Zm7.742-2.032h-2.236l-2.966 7.112h1.89l.548-1.463h3.292l.559 1.463h1.89l-2.977-7.112Zm-1.118 1.32 1.169 3.049h-2.327l1.158-3.048Z" fill="#01499A"/></svg>