<svg width="120" height="120" fill="none" xmlns="http://www.w3.org/2000/svg"><path fill="#FFF200" d="M0 0h120v120H0z"/><g clip-path="url(#a)" fill-rule="evenodd" clip-rule="evenodd"><path d="M20.571 20.234h79.185v79.184H20.57V20.234Z" fill="#000"/><path d="M22.862 22.522h74.604v74.606H22.862V22.522Z" fill="#FFF200"/><path d="m26.82 82.054 9.732 9.92 22.802-23.133 23.564 23.61 9.874-9.778L69.465 59.35l4.485-4.341v-9.254l2.815-2.384v7.25l3.626 2.957 10.827-10.828L94.7 45.42c2.052-7.584-9.826-24.804-19.653-15.264l-11.45 11.352 2.339 2.815-5.82 5.676-5.628-5.534 2.957-2.672-12.545-12.115c-9.444-7.776-19.128 4.056-19.463 15.598l3.434-2.861 10.541 11.354 3.768-3.148v-6.965l2.337 1.764v9.111l4.579 4.58L26.82 82.053Z" fill="#000"/></g><defs><clipPath id="a"><path fill="#fff" transform="translate(24 24)" d="M0 0h72v72H0z"/></clipPath></defs></svg>