<svg width="120" height="120" fill="none" xmlns="http://www.w3.org/2000/svg"><path d="M120 0H0v120h120V0Z" fill="#AC172B"/><path fill-rule="evenodd" clip-rule="evenodd" d="M39.68 96.314c4.992 1.17 26.778.169 31.968-1.242 27.598-7.5 27.218-40.053 29.424-62.92.239-2.475.942-4.823.709-7.302 0 0-5.193.046-7.65.044-3.795-.002-6.521-.033-6.618.117-1.538 2.365-2.362 36.145-6.945 44.945-4.51 8.658-10.213 11.601-22.005 11.623-20.635.039-17.355-1.835-18.359 6.944-.228 1.994-.867 5.806-.523 7.79Z" fill="#FDFDFD"/><path fill-rule="evenodd" clip-rule="evenodd" d="M32.695 96.263c1.198-1.105 1.072-2.85 1.296-4.873.222-2.003.392-3.796.633-5.868 1.102-9.482 1.754-26.662 4.947-33.87 4.695-17.52 39.38-12.444 39.38-12.444.87-1.694 1.932-12.002 1.957-14.314 0 0-14.812-.378-18.034-.38-16.419-.01-28.15 4.917-35.984 20.12-6.218 12.071-5.87 32.675-7.996 47.73-.737 5.212-.226 4.191 4.819 4.18 2.331-.005 7.18.429 8.982-.281Z" fill="#FDFDFD"/><path fill-rule="evenodd" clip-rule="evenodd" d="M76.316 46.744c.077.422-16.148-.408-18.994.005-5.687.825-9.298 3.848-11.716 8.028-2.59 4.479-2.519 11.565.837 15.362 3.964 4.484 7.775 4.369 15.354 4.378 8.158.01 9.9-.343 10.908-8.422.442-3.556.285-2.723-6.597-2.723-2.05 0-8.395.371-9.733-.31-1.964-1.003-1.907-4.987 1.48-5.285 2.922-.258 7.009-.022 10.05-.012 3.91.013 5.34-.456 7.05-2.744 1.247-1.668 1.897-5.776 1.36-8.277Z" fill="#FDFDFD"/></svg>