<svg width="70" height="70" fill="none" xmlns="http://www.w3.org/2000/svg"><path fill-rule="evenodd" clip-rule="evenodd" d="m36.533.84.01 9.571c5.67.99 8.502 1.275 13.404 5.134 9.901 7.794 12.457 22.718 5.35 33.098-1.115 1.628-3.066 4.086-4.455 4.885-1.409-6.059-2.638-12.19-4.01-18.33-3.943-17.652-3.432-12.051-.196-17.061-6.41.008-14.045-.384-20.297.015-6.583.42-7.35 7.919-7.298 13.077 3.372-1.297-2.4-1.6 9.702-1.6-.064.865-8.393 23.03-9.122 24.31-3.195-1.903-6.512-6.851-7.866-10.765-3.664-10.587.236-20.793 8.017-27.416 4.146-3.53 7.182-4.27 13.615-5.344l.07-9.579C29.708.308 22.907 2.66 20.054 4.05 8.661 9.603.627 22.035.897 35.538c.6 30.022 36.738 44.92 57.915 23.82C70.176 48.036 72.74 29.943 63.45 16.204c-3.36-4.97-7.96-9.29-13.432-12.005C47.247 2.825 40.161.324 36.533.84Z" fill="#004785"/><path d="M28.719 23.202a1.288 1.288 0 1 0 0-2.577 1.288 1.288 0 0 0 0 2.577Z" fill="#FEFEFE"/></svg>