<svg width="120" height="120" fill="none" xmlns="http://www.w3.org/2000/svg"><path fill-rule="evenodd" clip-rule="evenodd" d="M65.216 13.273 87.27 87.805H65.4l-.185-74.532Z" fill="#FEFEFE" stroke="#7494A1" stroke-width=".64" stroke-miterlimit="22.926"/><path fill-rule="evenodd" clip-rule="evenodd" d="m65.656 16.669 20.703 70.53H65.85l-.193-70.53Z" fill="#009152" stroke="#7494A1" stroke-width=".64" stroke-miterlimit="22.926"/><path fill-rule="evenodd" clip-rule="evenodd" d="M56.679 4.36 34.804 81.893h45.502L56.679 4.36Z" fill="#FEFEFE" stroke="#7494A1" stroke-width=".64" stroke-miterlimit="22.926"/><path fill-rule="evenodd" clip-rule="evenodd" d="M56.72 6.027 35.866 80.909h43.376L56.719 6.026Z" fill="#009152" stroke="#7494A1" stroke-width=".64" stroke-miterlimit="22.926"/><path fill-rule="evenodd" clip-rule="evenodd" d="M37.523 86.25H57.61s6.643-5.176 6.643-15.97c0-10.793-4.088-7.334-6.862-22.647-2.774-15.312-.188-30.626-.188-30.626l-.999.898-18.68 68.346Z" fill="#FEFEFE" stroke="#7494A1" stroke-width=".64" stroke-miterlimit="22.926"/><path fill-rule="evenodd" clip-rule="evenodd" d="M52.912 104.175h3.678l-.268.547c-1.599 3.268-4.406 4.669-7.985 4.669-2.564 0-4.749-.918-6.517-2.777-1.768-1.861-2.632-4.095-2.632-6.66 0-2.538.925-4.708 2.71-6.509 1.785-1.802 3.948-2.736 6.487-2.736 1.669 0 3.272.358 4.72 1.202 1.471.858 2.535 2.092 3.223 3.649l.236.534h-3.506l-.114-.153c-1.145-1.538-2.714-2.195-4.607-2.195-1.674 0-3.055.662-4.205 1.87-1.161 1.22-1.788 2.65-1.788 4.338 0 1.714.577 3.194 1.723 4.466 1.148 1.275 2.549 1.959 4.27 1.959 1.807 0 3.377-.559 4.461-2.048l.114-.156Zm10.844-8.74-4.672 13.621h-3.286l6.53-18.011h2.808l6.53 18.011h-3.234l-4.676-13.621Zm11.126-1.498v4.056h1.465c1.582 0 3.278.269 4.585 1.223 1.421 1.039 1.953 2.588 1.953 4.309 0 1.72-.532 3.27-1.953 4.308-1.307.954-3.003 1.223-4.585 1.223h-4.501V91.045h10.2v2.892h-7.164Zm0 6.949v5.278h1.465c.785 0 1.846-.081 2.527-.516.734-.469.926-1.298.926-2.123 0-.813-.174-1.681-.903-2.148-.662-.426-1.787-.491-2.55-.491h-1.465Z" fill="#7494A1" stroke="#FEFEFE" stroke-width=".64" stroke-miterlimit="22.926"/><path d="M53.105 104.555h2.876c-1.454 2.971-4.002 4.456-7.644 4.456-2.476 0-4.556-.886-6.241-2.659-1.686-1.773-2.528-3.906-2.528-6.397 0-2.412.866-4.493 2.6-6.242 1.733-1.75 3.805-2.624 6.217-2.624 1.71 0 3.219.384 4.529 1.15 1.373.799 2.396 1.957 3.066 3.475h-2.73c-1.167-1.566-2.804-2.349-4.913-2.349-1.725 0-3.218.663-4.48 1.99-1.262 1.325-1.893 2.858-1.893 4.6 0 1.805.607 3.378 1.82 4.72 1.247 1.389 2.764 2.084 4.553 2.084 2.109 0 3.698-.735 4.768-2.204Zm10.65-10.29-4.943 14.411H56.34l6.254-17.251h2.276l6.253 17.251h-2.42l-4.947-14.412Zm8.47 14.411V91.425h9.44v2.132h-7.163v4.816h1.845c1.853 0 3.306.383 4.36 1.15 1.198.879 1.797 2.213 1.797 4.002 0 1.789-.599 3.122-1.797 4.001-1.054.767-2.507 1.15-4.36 1.15h-4.121Zm2.277-8.17v6.038h1.845c1.23 0 2.14-.192 2.731-.575.735-.464 1.102-1.278 1.102-2.444 0-1.182-.36-2.005-1.078-2.468-.575-.368-1.493-.551-2.755-.551h-1.845Z" fill="#009152" stroke="#D4DADE" stroke-width=".64" stroke-miterlimit="22.926"/></svg>