<svg width="120" height="120" fill="none" xmlns="http://www.w3.org/2000/svg"><path d="M60 104.503c24.579 0 44.503-19.925 44.503-44.503S84.579 15.497 60 15.497c-24.578 0-44.503 19.925-44.503 44.503S35.422 104.503 60 104.503Z" fill="#1A549F"/><path fill-rule="evenodd" clip-rule="evenodd" d="M31.992 55.768c1.211-.331 2.32-1.954 9.101-3.07 3.589-.59 7.519-.79 11.28-.83 7.15-.072 17.06.957 23.697-.46-.88-.606-3.597-1.537-4.817-1.938-1.08-.355-5.083-.105-6.592-.135-4.42-.088-8.748-.44-13.187-.528-3.394-.067-23.717-.495-19.482 6.961ZM75.062 48.87l3.406 1.646c1.178.537 2.884-.761 3.596-1.346l-.22-.247c-.676-.629-2.02-1.558-2.89-1.212-.722.286-3.738 1.062-3.892 1.16ZM81.332 46.286l1.803 1.017c.047-1.168-.268-1.859-.594-2.686l-1.209 1.669ZM83.917 53.741c.317.294 1.132.915 1.49.908.072-.63.101-1.313-.215-1.818-.445.236-.823.617-1.275.91ZM34.16 58.461c.683.673 2.877 3.158 3.908 2.796 2-.703 3.572-1.186 5.766-1.596 9.976-1.864 18.23-.492 27.999-.853 1.759-.065 10.791-.542 12.193-2.445-.225-.274-1.547-1.481-1.9-1.595-.436-.14-2.122.466-2.712.605-9.4 2.209-23.26.176-33.786.627-2.822.12-9.98.74-11.468 2.461ZM33.191 64.202l2.103-1.695c-.42-.405-.81-.713-1.281-1.116l-.964-.841c-.303-.29-.03-.147-.457-.347-.859 1.255-.185 3.118.6 4ZM35.26 66.76c1.009.578 2.411 2.194 3.626 2.687 2.37-1.277 1.17-.758 3.62-1.819l.603-.372c-4.817-2.11-3.876-3.347-6.173-2.058-.659.37-1.403.896-1.675 1.561ZM35.702 73.39c.654-1.186 1-1.77 1.634-2.64l-3.115-2.296c-.166 1.12-.347 1.887.102 2.962.422 1.007.83 1.34 1.379 1.975ZM72.604 63.275c-4.073 0-27.782-1.414-31.546.477a40.066 40.066 0 0 0 3.044 1.783c1.892 1.012 1.285 1.131 3.606.693 7.42-1.4 15.578-.465 23.248-.5 4.213 0 15.56-.149 15.53-4.664-4.542 2.002-8.691 2.21-13.882 2.21Z" fill="#fff"/><path fill-rule="evenodd" clip-rule="evenodd" d="M44.945 34.128c2.519-.018 8.834-2.407 18.57-1.364 2.912.313 5.962.842 8.528 1.681 1.942.635 5.43 2.023 6.292 4.14-.72-.219-1.615-.716-2.364-1.026-6.584-2.724-13.237-3.394-20.451-3.084-4.52.195-10.205.873-14.385 2.404-1.863.682-4.92 3.774-5.48 4.816 1.33-.327 5.415-2.423 9.856-3.576 7.711-2.003 16.05-1.982 23.778-.166 2.532.595 8.14 2.307 9.693 3.63-.322.986-.851 1.474-1.736 1.892-1.283.605-1.716.097-2.942-.351-12.012-4.39-27.776-4.104-39.567.848-1.417.595-1.312.645-2.029 1.87-.497.85-.931 1.663-1.258 2.522 8.498-4.3 20.042-7.435 30.217-6.251 2.863.333 7.666 1.194 10.038 2.206-2.797.212-11.138-.418-15.885-.275-4.95.15-10.09.566-14.775 1.603-4.457.988-8.76 2.501-10.763 5.414-2.035 2.96-.244 5.215 0 6.129.226.851-2.022 2.78-.09 6.519.31.602 1.563 2.265 1.588 2.43.126.827-2.286 4.204 2.346 8.62 1.923 1.833.684.485 1.36 2.687.765 2.484 3.755 4.872 5.977 6.311 5.27 3.413 12.168 5.858 18.854 5.586 1.963-.08 5.503-.509 7.05-1.163-6.36-.134-12.018-.53-17.746-2.237-4.52-1.348-11.253-4.114-11.85-8.32.927.33 4.681 2.619 8.903 4.071 7.776 2.675 16.163 4.668 24.581 4.582 2.424-.025 3.73-1.025 5.858-2.477l.95-.79c-8.805.881-13.608 1.526-22.666-.447-5.02-1.093-13.791-4.009-17.42-7.167.02-1.46.969-2.573 1.808-3.175l4.778 2.44c1.738.78 3.34 1.471 5.167 2.18a76.34 76.34 0 0 0 11.276 3.397c4.597 1.002 8.789 1.3 13.689.931 1.422-.107 5.305-.416 6.463-.806.644-.216 2.821-3.03 3.369-3.853-.66.087-1.735.484-2.48.678-6.233 1.628-14.918 2.195-21.101 1.172a53.689 53.689 0 0 1-10.369-2.817c-1.873-.72-7.929-3.312-8.956-4.343 1.082-.763 4.524-1.117 6.107-1.246 1.335-.11 1.838.304 2.926.719 4.756 1.814 9.233 3.347 14.487 4.098 6.73.96 13.8.142 20.397-.989.822-.14.734-.012 1.113-.673.248-.433.416-.87.626-1.327.282-.617.927-1.98.987-2.605-6.448 3.421-18.738 4.42-26.354 2.988-1.745-.328-7.032-1.516-8.057-2.333 2.284-.191 5.453.108 7.8.206 6.755.281 24.113 1.564 27.786-3.727 1.115-1.606 1.74-4.198.737-6.245-.53-1.085-1.336-1.347-.968-2.369.367-1.017.576-2.333.367-3.48-.201-1.097-.842-2.008-1.388-2.646-1.656-1.935-1.29-.993-1.052-2.4.424-2.494-.967-4.644-2.163-5.773-.356-.337-.617-.591-.972-.98-.459-.503-.63-.49-1.137-.958-.44-.407-.951-1.86-1.466-2.583-6.726-9.453-28.8-10.397-36.452-4.748Z" fill="#fff"/><path fill-rule="evenodd" clip-rule="evenodd" d="M82.541 44.617c.326.827.64 1.518.594 2.687l-1.803-1.018 1.21-1.669ZM75.062 48.87c.154-.097 3.17-.873 3.892-1.16.87-.345 2.214.584 2.89 1.213l.22.247c-.712.585-2.417 1.883-3.596 1.346l-3.406-1.646ZM31.992 55.768c-4.235-7.456 16.088-7.028 19.482-6.961 4.439.087 8.768.44 13.187.528 1.509.03 5.511-.22 6.592.136 1.22.4 3.937 1.331 4.817 1.937-6.636 1.417-16.547.388-23.697.46-3.761.04-7.691.24-11.28.83-6.781 1.116-7.89 2.739-9.1 3.07ZM83.917 53.741c.452-.293.83-.674 1.275-.91.316.505.287 1.187.216 1.818-.359.007-1.174-.614-1.491-.908ZM34.16 58.461c1.489-1.72 8.646-2.34 11.468-2.462 10.526-.45 24.386 1.583 33.786-.626.59-.139 2.276-.745 2.711-.605.354.114 1.676 1.32 1.9 1.595-1.4 1.903-10.433 2.38-12.192 2.445-9.768.361-18.023-1.01-27.999.853-2.194.41-3.766.893-5.766 1.596-1.031.362-3.225-2.123-3.908-2.796ZM72.604 63.275c5.191 0 9.34-.209 13.881-2.21.03 4.514-11.316 4.664-15.53 4.664-7.669.034-15.826-.901-23.247.5-2.32.437-1.714.318-3.605-.694a40.066 40.066 0 0 1-3.045-1.783c3.764-1.891 27.473-.477 31.546-.477ZM33.191 64.202c-.784-.88-1.458-2.744-.599-4 .427.2.154.058.457.348l.964.841c.472.403.86.71 1.281 1.116l-2.103 1.695ZM35.26 66.76c.273-.666 1.017-1.193 1.676-1.562 2.297-1.289 1.356-.053 6.173 2.058l-.604.372c-2.45 1.06-1.25.542-3.62 1.82-1.214-.493-2.616-2.11-3.624-2.689ZM35.702 73.39c-.55-.633-.957-.967-1.379-1.974-.45-1.075-.268-1.842-.102-2.962l3.115 2.295c-.635.871-.98 1.455-1.634 2.642Z" fill="#1A549F"/></svg>