<svg width="120" height="120" fill="none" xmlns="http://www.w3.org/2000/svg"><path fill-rule="evenodd" clip-rule="evenodd" d="M0 120h120V0H0v120Z" fill="#005E9E"/><path fill-rule="evenodd" clip-rule="evenodd" d="M57.243 25.007C38.722 26.5 23.367 42.504 25.003 62.949c1.469 18.34 17.609 33.68 37.924 32.042 18.36-1.48 33.719-17.624 32.067-37.899-1.49-18.297-17.57-33.712-37.751-32.085Zm-17.94 21.63.258 18.856c.328-.405-.025.176.367-.503.075-.129.27-.646.343-.829l4.963-11.524c11.18-.597 7.152 3.898 3.589 12.593-.838 2.045-5.18 11.137-4.815 13.036.275 1.423 2.072 2.608 3.87 1.957 1.565-.566 4.006-4.986 5.045-6.682l9.272-14.636c.75-1.207 1.504-2.382 2.278-3.579.894-1.381 1.994-2.758 3.472-.72.314 1.636-2.09 6.62-2.746 8.248-1.002 2.487-6.34 14.335-5.77 16.207.872 2.864 6.195 2.009 9.248 2.046l-4.714 11.565c2.37-2.041 15.506-17.287 16.475-17.817l-.407-21.068c-.626.859-1.153 2.456-1.53 3.383-.535 1.312-3.81 10.324-4.674 10.488-2.369-.004-5.71.437-6.32-1.845-.434-1.62 1.278-5.083 1.858-6.532 1.604-4.004 3.193-8.005 4.813-12.066.717-1.797 2.29-4.514.922-6.3-1.696-2.214-4.204-.777-5.33.962L56.912 62.774c-1.366 2.254-2.305 4.584-4.037 4.114-2.45-.665-.384-3.972.25-5.562 1.623-4.074 3.294-7.872 4.929-11.951 1.425-3.557 5.627-10.226-1.337-10.207l-5.634-.005 5.246-12.735c-.76.405-2.454 2.58-3.362 3.567-3.688 4.009-8.11 9.524-11.849 13.705-.743.83-1.816 1.569-1.817 2.936Z" fill="#FEFEFE"/></svg>