<svg width="120" height="120" fill="none" xmlns="http://www.w3.org/2000/svg"><path fill-rule="evenodd" clip-rule="evenodd" d="M69.12 89.626c1.01-.324 3.039-1.874 3.932-2.412v-3.262c.923-.823 2.767-1.903 3.782-2.584l27.044-18.087c-.485-.735-15.138-10.257-17.131-11.596-2.227-1.497-16.487-11.22-17.65-11.565l.022 49.506Zm3.926-9.586L98.32 63.318c-.497-.715-10.9-7.433-12.54-8.527-1.593-1.064-11.967-8.164-12.739-8.341l.006 33.59ZM8.759 59.752c.382.745-.036.194.594.714l11.386 7.575c4.062 2.707 8.025 5.37 12.149 8.095 4.075 2.692 8.043 5.385 12.145 8.103 2.022 1.34 3.969 2.65 6.009 4.008 1.417.943 5.018 3.583 6.278 4.055.097-7.14.863-5.587-4.355-8.96l-34.86-23.47 2.26-1.511 27.542 18.32c1.57 1.04 8.296 5.778 9.44 6.112l-.03-3.53-34.007-22.72c.89-.934 3.082-2.2 4.216-2.95l26.08-17.398c4.526-3.02 3.727-1.272 3.726-8.543-1.687.61-46.12 31.056-48.573 32.1Z" fill="#80001F"/><path fill-rule="evenodd" clip-rule="evenodd" d="M61.251 94.937c1.192-.418 2.722-1.833 3.902-2.424l.03-58.62c.847.195 8.937 5.774 10.425 6.774l31.084 20.69c.859-.32 3.824-2.355 4.549-2.977-.203-.274-.035-.097-.337-.36L67.684 29.2c-1.18-.779-5.39-3.824-6.442-4.136l.01 69.874Z" fill="#80001F"/></svg>