<svg width="120" height="120" fill="none" xmlns="http://www.w3.org/2000/svg"><path fill-rule="evenodd" clip-rule="evenodd" d="M18.092 58.598c-.003 15.175 8.735 27.584 17.91 33.68 5.183 3.443 10.88 6.051 18.624 6.995 8.227 1.003 16.005-.925 24.262-.92 7.084.002 11.756 1.141 17.338 4.041 2.837 1.474 6.35 3.845 8.818 5.996.661.576 1.896 2.122 2.941.953.387-.859-1.304-2.487-1.848-3.114-.901-1.037-1.544-1.775-2.423-2.647-5.599-5.552-11.106-8.556-19.41-10.609-5.387-1.332-9.838-2.164-14.412-5.624-1.967-1.487-3.685-3.13-5.108-4.905-1.608-2.004-2.243-3.096-3.501-5.172-.263-.433-.297-.514-.854-.56-.3.863-.259 2.032-.257 3.11.002 1.058.485 5.277.365 5.657-14.748.862-28.411-11.566-28.392-27.148.01-8.262 3.424-14.875 7.9-19.353 2.11-2.11 4.915-4.248 7.983-5.615 3.83-1.705 7.229-2.502 11.905-2.496 11.558.015 21.53 7.98 25.123 17.836.723 1.984 1.048 3.524 1.433 5.782.232 1.365.59 5.533.027 6.656l-5.226-.078c-.614-.001-3.344-.038-3.761.186-.424.227-.105-.012-.3.286.342.53.389.342 1.614.595.554.115 1.11.273 1.655.451 1.312.428 2.136.679 3.221 1.186 5.32 2.485 8.318 6.535 10.004 12.022.308 1.003.456 2.758.782 3.609.719.102.706-.391 1.49-1.828 6.085-11.157 6.314-24.887 1.164-36.428-3.883-8.702-11.378-16.463-20.144-20.446C49.242 8.078 18.098 27.63 18.092 58.598Z" fill="#FF8B00"/><path fill-rule="evenodd" clip-rule="evenodd" d="M79.721 82.22c-1.009.291-1.595.732-1.781 1.887-.49 3.045 2.663 5.906 5.588 4.893 4.396-1.525-.174-7.828-3.807-6.78ZM91.398 81.9c1.681-2.147-.483-7.445-2.987-6.575-1.766.615-.226 4.14 1.151 5.698.487.55.837.985 1.836.877Z" fill="#FF8B00"/></svg>