<svg width="120" height="120" fill="none" xmlns="http://www.w3.org/2000/svg"><path fill="#FFDD2D" d="M0 0h120v120H0z"/><path fill-rule="evenodd" clip-rule="evenodd" d="m97.969 54.682-3.259.103c-.277 0-2.278-.057-4.221-1.46.145.014.29.035.438.035 1.998 0 3.935-1.197 4.71-2.913l1.402-3.096c-1.76.023-3.367-.198-3.367-.198-.013-.001-1.28-.164-2.746-1.655-1.05-1.067-2.352-1.633-3.76-1.633-.617 0-1.167.11-1.643.26.075-.25.144-.505.184-.767.45-2.9-1.423-5.108-1.424-5.106l-2.454-3.023-1.52 3.551c-.004.01-.39.844-1.075 1.248-.206-1.043-.716-2.217-1.805-3.337-2.052-2.113-4.549-2.43-5.855-2.43-.605 0-1.037.066-1.142.083l-2.96.579c.17-.657.535-1.805 1.2-2.837l1.633-2.531-4.11.465-1.31-2.767-2.535 1.3-2.343-2.303-2.338 2.303-2.54-1.3-1.307 2.767-4.11-.466 1.637 2.533c.665 1.031 1.028 2.176 1.197 2.832l-2.825-.553-.097-.017a7.443 7.443 0 0 0-1.179-.087c-1.305 0-3.803.316-5.85 2.428-1.089 1.12-1.6 2.295-1.808 3.339-.682-.402-1.064-1.221-1.064-1.221L38.2 35.236l-2.49 3.041c-.306.392-1.805 2.47-1.398 5.084.042.26.11.514.184.765a5.342 5.342 0 0 0-1.64-.261c-1.409 0-2.71.566-3.763 1.633-1.461 1.485-2.455 1.589-2.71 1.652-.253.063-1.333.238-3.396.2l1.396 3.097c.775 1.716 2.713 2.913 4.708 2.913.151 0 .294-.021.442-.035-1.939 1.403-3.94 1.46-4.182 1.461l-3.32-.104 1.006 3.14c.506 1.617 2.198 4.296 5.435 4.585-.352 1.469-1.133 3.116-2.849 3.826l-2.473 1.013 1.349 2.339c.76 1.26 2.55 2.735 5.095 2.735a7.807 7.807 0 0 0 1.592-.165c.131.576.294 1.153.488 1.727.757 2.244.105 3.809.097 3.826l-1.221 2.546 2.726.715c.034.01.857.236 1.888.236.468 0 .917-.049 1.334-.148.317-.073.622-.172.914-.29.354.63.782 1.205 1.281 1.72 1.747 1.784 4.223 2.688 7.358 2.688h.01l2.239-.03-4.624 1.915 3.51 1.689c1.278.619 2.788 1.35 4.33 1.91l-.44 1.194 1.212.549c.107.049 2.435 1.084 6.302 1.305 0 0 .935.043 1.45.043.513 0 1.435-.046 1.435-.046 3.845-.226 6.154-1.253 6.261-1.302l1.213-.551-.442-1.195c1.583-.577 3.152-1.338 4.375-1.933l3.445-1.665-4.608-1.913 2.247.03c3.14 0 5.616-.906 7.36-2.691a8.248 8.248 0 0 0 1.28-1.717c.294.118.601.217.919.292a5.86 5.86 0 0 0 1.331.145 7.825 7.825 0 0 0 1.868-.229l2.737-.721-1.192-2.499c-.028-.064-.681-1.629.078-3.876.191-.573.353-1.15.486-1.725a7.914 7.914 0 0 0 1.605.166 5.945 5.945 0 0 0 5.096-2.762l1.336-2.314-2.473-1.009c-1.72-.712-2.499-2.358-2.847-3.826 3.196-.277 4.91-2.959 5.434-4.587l.985-3.14Z" fill="#FEFEFE"/><path fill-rule="evenodd" clip-rule="evenodd" d="M65.408 33.898c-1.491-.826-3.425-1.297-5.401-1.297-1.966 0-3.9.47-5.395 1.297a13.178 13.178 0 0 0-.584-1.583l.562.066.59.062.254-.536.744-1.582 1.38.71.535.271.425-.418 1.489-1.47 1.492 1.47.427.418.535-.27 1.373-.711.754 1.582.249.536.591-.062.564-.066c-.259.577-.45 1.129-.584 1.583Zm-5.401 1.965c-2.62.003-4.583.857-5.01 1.862l5.01 1.97 5.011-1.97c-.423-1.005-2.388-1.859-5.011-1.862Zm.053 52.094H59.958c-1.585.01-3.773-.315-4.825-.62l-1.266 3.411c.834.295 3.665.864 6.145.864 2.475 0 5.306-.569 6.14-.864l-1.265-3.411c-1.056.305-3.24.63-4.827.62Zm5.314-1.696c1.224-.37 3.33-1.168 4.272-1.699l-.63 2.05 2.134.706c-1.29.644-2.853 1.246-4.748 1.76l-1.028-2.817Zm-15.002-1.699.631 2.05-2.135.706c1.289.644 2.859 1.246 4.746 1.76l1.03-2.817c-1.221-.37-3.33-1.168-4.272-1.699ZM90.152 50.9c.257.088.517.127.775.127 1.118 0 2.196-.719 2.569-1.541 0 0-2.048-.123-4.252-2.348-.7-.721-1.443-.936-2.079-.936-.989 0-1.73.518-1.73.518 1.435.76 2.254 1.77 2.942 2.618.586.722 1.077 1.327 1.774 1.562Zm-60.293 0a2.3 2.3 0 0 1-.77.127c-1.116 0-2.197-.719-2.565-1.54 0 0 2.046-.124 4.247-2.349.704-.722 1.445-.936 2.085-.936.983 0 1.727.519 1.727.519-1.432.76-2.252 1.767-2.941 2.613-.59.724-1.083 1.331-1.782 1.566Zm59.49 16.236c-2.058-1.01-3.357-3.69-3.671-4.655-.342 5.314-2.949 9.003-5.997 12.554-1.582 1.841-2.133 3.632-2.133 3.632s.305-2.029 1.672-3.68c2.844-3.399 5.547-7.631 5.748-12.526.137-3.416-.744-6.185-2.122-8.469.77 2.378.661 5.289-1.954 8.007 0 0 5.208-6.21-2.072-12.578-2.069-1.72-4.277-2.974-5.97-3.935-.693-.393-1.3-.737-1.775-1.045 5.93 1.926 8.826-.194 8.826-.194-1.893 1.633-4.346 1.606-5.865 1.37.413.2.841.41 1.302.656 5 2.703 9.494 7.151 10.26 13.31v-.047c1.164 6.049 3.752 7.6 3.752 7.6Zm1.523-7.047c.047.003.086.003.133.003 2.787 0 3.731-2.97 3.731-2.97h-.054c-.511 0-4.656-.121-7.585-3.825a104.24 104.24 0 0 1-.244-.31c-1.82-2.308-3.397-4.307-6.385-5.114l-.308-.053-.066-.312c-.087-.473.241-.919.982-1.398 4.308-2.807 1.382-6.388 1.382-6.388s-1.23 2.864-3.982 2.864l-.1-.002a3.539 3.539 0 0 0-.104-.002l-.06-.003c-.292-.015-.574-.03-.858-.089l-.506-.099s.784-2.124-1.11-4.073c-1.427-1.472-3.162-1.722-4.164-1.722a4.63 4.63 0 0 0-.825.064c.951 1.237 1.639 3.292.541 4.56-.368.42-.94.687-1.504.949-.894.415-1.765.82-1.765 1.814 0 .689.647 1.49 1.805 2.21 3.485 2.184 6.945 5.084 8.385 8.968 1.796 4.845-.229 8.06-3.119 9.906 0 0 .907.83 2.221.936.268.025.529.038.773.038 2.775 0 4.21-1.296 4.21-1.296s-.236 1.79-1.68 3.452c-1.333 1.534-3.082 2.438-5.75 2.475 0 0-.084 1.234 1.096 2.3.758.674 2.503.892 2.503.892s-3.27.66-3.63 5.465c-.196 2.604-.865 3.509-.865 3.509h.058c7.587 0 7.394-6.475 7.394-6.475s.526 1.916 2.644 2.417c.255.065.528.091.788.091.68 0 1.273-.158 1.273-.158s-1.11-2.327-.008-5.581c.91-2.702.764-4.702.764-4.702s1.022 1.537 3.555 1.552h.027c2.11 0 3.03-1.593 3.03-1.593-5.06-2.09-4.56-8.833-4.56-8.833s.658.487 1.937.533ZM34.337 62.48c.345 5.315 2.95 9.004 5.998 12.554 1.581 1.842 2.14 3.631 2.14 3.631s-.31-2.028-1.683-3.676c-2.838-3.401-5.54-7.635-5.74-12.528-.142-3.417.74-6.186 2.12-8.469-.77 2.379-.664 5.289 1.954 8.008 0 0-5.209-6.212 2.076-12.58 2.067-1.719 4.271-2.971 5.964-3.933.692-.393 1.299-.738 1.775-1.046-5.927 1.926-8.824-.194-8.824-.194 1.892 1.634 4.344 1.606 5.866 1.37l-.035.017c-.402.195-.823.4-1.268.64-5.002 2.702-9.493 7.151-10.263 13.31v-.048c-1.16 6.048-3.748 7.6-3.748 7.6 2.057-1.01 3.354-3.691 3.668-4.656Zm9.721 10.492c-.757.674-2.505.892-2.505.892s3.273.658 3.632 5.465c.196 2.604.86 3.508.86 3.508h-.054c-7.59 0-7.394-6.475-7.394-6.475s-.53 1.917-2.645 2.418a3.198 3.198 0 0 1-.788.091c-.68 0-1.27-.158-1.27-.158s1.103-2.326.004-5.581c-.91-2.702-.762-4.703-.762-4.703s-1.02 1.538-3.556 1.554h-.025c-2.11 0-3.031-1.594-3.031-1.594 5.055-2.089 4.56-8.833 4.56-8.833s-.656.488-1.939.533c-.047.004-.089.004-.133.004-2.788 0-3.733-2.972-3.733-2.972h.056c.515 0 4.655-.12 7.583-3.824l.246-.311c1.821-2.307 3.398-4.305 6.38-5.112l.314-.055.067-.31c.087-.474-.24-.92-.98-1.399-4.307-2.807-1.383-6.387-1.383-6.387s1.223 2.863 3.983 2.863l.097-.001.104-.002.08-.004c.283-.016.562-.031.838-.089l.508-.099s-.788-2.124 1.11-4.073c1.426-1.472 3.162-1.723 4.162-1.723.508 0 .824.065.824.065-.949 1.237-1.636 3.292-.539 4.558.368.422.94.688 1.503.95.892.416 1.762.82 1.762 1.815 0 .688-.645 1.49-1.803 2.21-3.486 2.184-6.945 5.085-8.384 8.968-1.795 4.846.23 8.062 3.123 9.906 0 0-.908.83-2.225.936a8.168 8.168 0 0 1-.775.038c-2.772 0-4.208-1.295-4.208-1.295s.24 1.79 1.674 3.452c1.341 1.533 3.089 2.438 5.758 2.475 0 0 .084 1.233-1.096 2.299ZM58.295 50h3.575v1.22c-.42-.511-1.239-.406-1.239-.406v1.759s.032.867.336 1.241H59.198c.309-.374.337-1.241.337-1.241v-1.76s-.817-.104-1.24.408V50Zm-3.897.184c.124.132.246.276.365.422l.016.02a11.087 11.087 0 0 1 .431.595l.014.02.007.01.005.007.005.008c.127.19.247.389.366.593 1.095 1.88 2.845 3.004 4.4 3.006 1.556-.002 3.305-1.127 4.403-3.006a10.898 10.898 0 0 1 .766-1.157l.047-.06.025-.03a7.872 7.872 0 0 1 .401-.459 4.547 4.547 0 0 1 2.128-1.275l-.387-.224h-.02l-1.541-.89-1.582-.902-4.228 2.29-.012-.01-.008.01-4.229-2.29-1.581.902-1.544.89h-.017l-.39.224c.87.24 1.533.668 2.092 1.236l.027.029c.013.014.025.028.041.04Zm4.261-6.798v-1.148l-2.079-.871s.019.667.954 1.39c.507.398.82.5.89.523a.13.13 0 0 1 .014.005l.221.101Zm.983-2.906v7.152l-3.368-1.766-1.206-6.928 4.574 1.542Zm1.715 1.758 2.08-.871s-.018.667-.956 1.39c-.508.4-.822.502-.89.523a.126.126 0 0 0-.013.005l-.22.101v-1.148Zm2.386 3.628 1.202-6.928-4.57 1.542v7.152l3.368-1.766ZM54.435 64.4c-.275 0-.816-.032-1.26-.194-.492-.18-1.223-1.077-1.055-2.064.212-.13.704-.405 1.164-.405.354 0 .596.166.766.522.148.309.414.514.6.63a7.072 7.072 0 0 1-.111 1.134 2.792 2.792 0 0 1-.092.344l-.005.015-.007.018Zm6.395-1.514-.096.093-.036.036-.102.1-5.253-.083a5.307 5.307 0 0 1-.17 1.281l-.042.166 6.25 1.118c.649-.451 2.438-1.752 3.133-2.262-.505-.733-.553-1.605-.438-2.22a3.1 3.1 0 0 1-.786-.701c-.723.783-2.036 2.06-2.46 2.471v.001Zm-.236-7.02c1.037-.103 2.197-.546 3.408-1.74h7.9c-.344.906-.629 1.886-.629 2.86l.003 6.295c-1.322-.221-1.479-1.637-1.484-1.698l-.023-.29-.284-.024c-.576-.055-.955-.296-1.277-.607-.648-.646-.649-1.69-.648-1.699v.004l-.005.009a.681.681 0 0 1-.019.035c-.117.215-.602 1.101.129 2.06.342.45.841.728 1.486.838.151.784.738 1.894 2.125 2.062v3.083h-3.9c-1.797-.998-1.034-2.75-1-2.825l.152-.331-.344-.13c-1.947-.719-1.411-2.651-1.385-2.736l.078-.28-.264-.125c-1.608-.743-1.39-2.74-1.37-2.823-.493.398-.672 1.212-.331 2.01-.174.2-.405.437-.66.7l-.042.043a2.177 2.177 0 0 1-1.718-2.015l-.004-.234-.218-.085c-.65-.24-1.097-.599-1.316-1.081-.247-.534-.16-1.095-.092-1.364a5.555 5.555 0 0 0 1.134.118h.026c.193 0 .382-.01.572-.03Zm-7.087 1.144-.107 4.007.46.07 1.118-3.845-.568-1.183-.903.951Zm2.206 14.593c-.008.131.087.241.217.244a.231.231 0 0 0 .247-.213.23.23 0 0 0-.22-.242.229.229 0 0 0-.244.212Zm10.244 3.806a.379.379 0 0 0-.434.184c.152.404.19.693.224.955.038.292.072.551.253.897.216.413.574.761.793.974l.105.104s-.051.368-.104.645l-.488 2.522c-.31.043-.637.065-.975.08l.512-2.426c.074-.35-.35-.584-.915-.895-.594-.327-1.345-.74-1.837-1.466-.47.525-1.352.682-2.24.682-.809 0-1.617-.13-2.11-.227a2.524 2.524 0 0 0-.361-.033c-.284 0-.543.088-.723.386l-.14.238-2.65-.622-.66 1.089c-.091.175-.098.323.052.487l.178.194c-.123.384-.674.965-.674.965l-.393-.489c-.312-.347-.26-.983.062-1.57l1.051-1.764 2.245.321-.348-.79c-.327-.731-.078-1.6.129-2.319.09-.311.17-.594.193-.825-.025.231-.24.284-.489.284-.12 0-.25-.012-.37-.023-.102-.011-.198-.02-.276-.02-.067 0-.123.007-.153.028l-.609.369-.478-.421c-.059-.081-.077-.273.063-.415l1.11-1.239-1.31-1.525 1.836.918.561-.676c.154.149.087.542.087.542.571.015 2.18.898 2.266 2.965.003.063.003.133.003.203l.044.067c.113.155.427.552.824.59l2.54.25h.008c.108 0 .256-.048.438-.107.29-.095.669-.218 1.107-.218.386 0 .817.098 1.277.386 0 0 .231-.181.605-.201.029-.002.062-.002.087-.002.957 0 1.444.722 1.938 1.457.093.14.188.28.285.415.458.65 1.074 1.612 1.074 1.612-.227.266-.437.416-.79.416-.097 0-.208-.008-.329-.033-.702-.128-1.058-1.009-1.367-1.772-.228-.563-.43-1.063-.727-1.147ZM52.313 77.69s.879-.36.957-.615l-.118-.293c-.083-.19-.07-.395.089-.508l.948-.651 1.583.302s-.286-.356-.258-.834L54 74.773l-1.424.863a1.374 1.374 0 0 0-.454 1.64l.19.414Zm12.144 4.095c-.343 0-.657.004-.94.017l.744-2.306c.078-.215-.164-.471-.404-.726-.116-.123-.232-.245-.31-.362.366.228 1.314.73 1.77.93-.045.075-.86 2.447-.86 2.447Z" fill="#fff"/><path fill-rule="evenodd" clip-rule="evenodd" d="M66.27 67.053H48.744V56.987c0-.976-.287-1.956-.626-2.861h7.898c.751.742 1.486 1.205 2.186 1.46-.09.357-.211 1.097.126 1.835.276.595.774 1.053 1.496 1.359.077.734.547 1.84 1.837 2.328-.567.568-1.116 1.104-1.339 1.319l-5.243-.083c-.118-.059-.321-.193-.412-.38-.005-.014-.012-.025-.02-.036-.006-.01-.013-.02-.018-.031l.855.137c.019.002.037.002.056.002.165 0 .31-.113.336-.281a.34.34 0 0 0-.283-.39l-1.054-.166 1.169-4.015-1.107-2.316-1.772 1.865-.108 4.173-1.19-.188a.34.34 0 0 0-.393.283.346.346 0 0 0 .284.39l.5.076c-.178.101-.296.182-.31.193l-.102.07-.028.125c-.29 1.17.365 2.282 1.074 2.78l-.026.147a.66.66 0 0 0 .122.503c.103.15.259.24.438.271a.668.668 0 0 0 .758-.511c.265.033.507.038.672.038h.138l6.879 1.238.118-.078c.546-.38 2.637-1.894 3.321-2.398.188.162.399.307.654.428-.223.74-.237 1.88.64 2.78Zm-17.526.68h22.532l.004 8.434c0 2.796-1.649 4.748-4.249 5.385l.436-2.257.005-.032c.023-.126.047-.267.065-.387.123.051.254.094.393.12.163.03.312.046.45.046.664 0 1.051-.348 1.309-.645l.334-.388-.273-.424c-.025-.041-.63-.992-1.094-1.643a9.95 9.95 0 0 1-.266-.392c-.529-.788-1.19-1.773-2.516-1.773l-.12.002a1.924 1.924 0 0 0-.557.114 3.055 3.055 0 0 0-1.294-.294c-.548 0-1.01.15-1.318.254l-.078.024c-.057.017-.108.034-.151.04l-2.478-.242c-.031-.005-.133-.064-.257-.21v-.013l.536-.213c-.15-1.779-1.865-2.872-2.822-3.242a1.01 1.01 0 0 0-.278-.501l-.533-.502-.468.557-.23.286-3.473-1.42 2.26 2.823-.89 1.343c-.327.346.032.69.032.69l.922.633.954-.356c.023 0 .044.004.065.008a.5.5 0 0 0 .03.003c-.027.081-.058.294-.086.494a5.21 5.21 0 0 1-.06.374l-1.658-.323-1.74.978a2.044 2.044 0 0 0-.684 2.476l.192.42.274.593.61-.25a.039.039 0 0 0 .021-.01c-.218.696-.129 1.358.26 1.791l.372.463.491.618.54-.576c.158-.157.675-.733.834-1.224l.116-.376-.263-.29-.045-.05.298-.488 2.163.507.486.112.258-.425.141-.231c.027-.05.033-.058.133-.058.076 0 .153.008.236.026.817.154 1.57.23 2.236.23.649 0 1.036-.025 1.497-.177 0 0 1.16 1.313 1.2 1.361l-.71 2.186-.032.13c-1.346.11-2.002.404-2.794 1.191-1.15-1.136-1.967-1.255-5.059-1.255-3.701 0-6.21-2.161-6.21-5.61v-8.436Z" fill="#FFDD2D"/><path fill-rule="evenodd" clip-rule="evenodd" d="m55.18 32.443-.59-.062-.562-.067c.258.58.448 1.129.584 1.584 1.495-.825 3.43-1.296 5.395-1.296 1.976 0 3.91.47 5.4 1.296.136-.455.327-1.005.585-1.584l-.564.067-.591.062-.25-.535-.753-1.583-1.373.71-.535.272-.427-.42-1.492-1.469-1.49 1.469-.425.42-.535-.271-1.379-.711-.744 1.583-.254.535Zm10.752 2.784c-1.168-.928-3.283-1.8-5.925-1.8-2.638 0-4.745.872-5.92 1.8 0 0-.346-2.079-1.53-3.912l2.127.241 1.112-2.354 2.143 1.097 2.068-2.04 2.075 2.04 2.138-1.097 1.114 2.354 2.13-.24c-1.186 1.832-1.532 3.91-1.532 3.91Zm-9.974 36.165a.228.228 0 0 0-.244.212c-.01.13.087.24.217.243a.232.232 0 0 0 .247-.213.231.231 0 0 0-.22-.242Zm10.445 17.687-1.029-2.819c1.224-.37 3.33-1.167 4.272-1.699l-.628 2.051 2.133.705c-1.29.645-2.854 1.246-4.748 1.762Zm-6.39 2.533c-2.48 0-5.311-.568-6.146-.863l1.267-3.412c1.05.305 3.239.629 4.825.619h.101c1.586.01 3.77-.314 4.828-.62l1.264 3.413c-.834.295-3.665.863-6.14.863Zm-11.145-4.295 2.136-.705-.633-2.05c.942.53 3.05 1.328 4.272 1.698l-1.03 2.818c-1.886-.516-3.457-1.117-4.745-1.761Zm22.379-.626-1.299-.495.359-1.335.394-1.455s-2.3 1.242-5.54 2.174c-.92.263-1.616.382-1.616.382v.991s-1.734.3-3.485.3h-.101c-1.753 0-3.484-.3-3.484-.3v-.991s-.697-.12-1.616-.382c-3.241-.932-5.538-2.174-5.538-2.174l.389 1.454.364 1.337-1.301.494-1.444.537.492.239c1.6.773 3.658 1.77 5.556 2.286l-.495 1.347s2.662 1.207 7.097 1.218l.013.002H60.039c4.44-.011 7.1-1.22 7.1-1.22l-.497-1.347c1.914-.521 3.993-1.529 5.594-2.306l.452-.219-1.441-.537ZM93.495 68.39s-.92 1.593-3.03 1.593h-.026c-2.535-.015-3.555-1.553-3.555-1.553s.145 2.001-.767 4.7c-1.098 3.258.01 5.582.01 5.582s-.593.159-1.273.159a3.23 3.23 0 0 1-.79-.091c-2.116-.502-2.643-2.419-2.643-2.419s.194 6.477-7.393 6.477h-.06s.67-.906.867-3.509c.36-4.805 3.63-5.466 3.63-5.466s-1.746-.219-2.5-.892c-1.185-1.067-1.1-2.3-1.1-2.3 2.67-.036 4.419-.941 5.75-2.474 1.445-1.662 1.68-3.451 1.68-3.451s-1.434 1.294-4.21 1.294c-.243 0-.504-.011-.772-.038-1.313-.105-2.221-.936-2.221-.936 2.889-1.843 4.916-5.061 3.119-9.906-1.44-3.882-4.9-6.782-8.385-8.967-1.159-.72-1.804-1.522-1.804-2.21 0-.995.87-1.4 1.763-1.814.564-.262 1.137-.529 1.505-.95 1.097-1.268.409-3.321-.541-4.559 0 0 .32-.065.825-.065 1.003 0 2.738.25 4.164 1.723 1.893 1.949 1.108 4.074 1.108 4.074l.508.097c.289.062.577.076.874.09l.044.002.102.002.103.002c2.75 0 3.98-2.863 3.98-2.863s2.925 3.58-1.381 6.387c-.741.48-1.068.926-.982 1.399l.067.312.306.054c2.986.805 4.561 2.802 6.38 5.105l.01.014.006.007.002.002.006.007.005.008.004.004.217.275c2.93 3.705 7.072 3.825 7.584 3.825h.056s-.946 2.97-3.732 2.97c-.048 0-.088 0-.133-.002-1.28-.046-1.937-.533-1.937-.533s-.499 6.743 4.56 8.834Zm-2.49-7.388c3.417 0 4.56-3.46 4.607-3.608l.382-1.22-1.28.04h-.005c-.452 0-4.223-.099-6.895-3.48l-.252-.313-.013-.017c-1.742-2.204-3.397-4.299-6.352-5.255.087-.077.209-.172.377-.28 1.572-1.028 2.486-2.278 2.715-3.729.337-2.181-1.063-3.922-1.125-3.993l-.95-1.17-.595 1.389c-.05.11-1.052 2.31-3.141 2.31h-.158l-.11-.005c-.104-.006-.207-.011-.306-.02.073-.99-.108-2.525-1.508-3.966-1.682-1.733-3.744-1.994-4.822-1.994-.508 0-.865.055-.972.072l-.03.004-1.436.284.888 1.162c.693.897 1.325 2.551.577 3.414-.226.26-.677.474-1.122.685l-.08.037c-.966.443-2.289 1.062-2.289 2.634 0 1.016.793 2.08 2.231 2.985 4.254 2.662 6.88 5.442 8.013 8.508 1.755 4.719-.535 7.41-2.755 8.828l-.999.638.872.798c.123.107 1.188 1.039 2.762 1.173.3.019.585.036.852.036 1.01 0 1.871-.158 2.571-.371-.192.335-.43.679-.726 1.022-1.271 1.465-2.834 2.13-5.08 2.167l-.836.014-.063.832c-.008.169-.072 1.714 1.399 3.029.224.204.496.371.782.507-.998.893-2.011 2.45-2.207 5.114-.166 2.225-.698 3.047-.705 3.056l-.923 1.403 1.668.023c2.756 0 4.865-.757 6.328-2.257.865-.887 1.359-1.89 1.65-2.776a4.468 4.468 0 0 0 2.91 1.063c.757 0 1.396-.156 1.496-.18l.007-.002 1.064-.282-.47-.988-.002-.004c-.057-.133-.906-2.103.035-4.892.412-1.226.622-2.322.724-3.176.672.347 1.57.635 2.73.639 2.597 0 3.764-1.903 3.847-2.038l.003-.005.52-.9-.963-.395c-3.142-1.298-3.837-4.784-3.976-6.67.284.054.608.104.974.114l.162.006Zm-1.76-13.864c-.701-.722-1.443-.937-2.08-.937-.989 0-1.73.52-1.73.52 1.436.76 2.255 1.77 2.943 2.617.586.722 1.077 1.327 1.774 1.561.257.089.516.128.775.128 1.117 0 2.196-.72 2.569-1.54 0 0-2.048-.124-4.25-2.349Zm-1.576 2.77c-.651-.802-1.394-1.708-2.668-2.383l-1.309-.7 1.216-.852.015-.01c.159-.101 1.052-.67 2.242-.67 1.014 0 1.956.416 2.734 1.204 1.891 1.923 3.592 2.078 3.653 2.08l1.321.077-.546 1.206c-.542 1.202-1.974 2.07-3.4 2.07-.366 0-.724-.055-1.06-.17-.94-.31-1.543-1.048-2.175-1.822l-.023-.03Zm-2.07 9.628v.046c-.767-6.158-5.26-10.606-10.26-13.31-.462-.246-.89-.454-1.303-.654 1.52.235 3.973.262 5.865-1.37 0 0-2.895 2.119-8.826.193.476.307 1.082.651 1.774 1.044 1.694.962 3.902 2.215 5.97 3.935 7.281 6.368 2.073 12.578 2.073 12.578 2.615-2.718 2.724-5.628 1.954-8.006 1.379 2.284 2.26 5.053 2.122 8.468-.201 4.895-2.903 9.127-5.748 12.527-1.367 1.651-1.671 3.68-1.671 3.68s.552-1.79 2.134-3.632c3.046-3.551 5.654-7.238 5.994-12.554.316.965 1.614 3.645 3.673 4.655 0 0-2.588-1.551-3.75-7.6ZM38.596 76.361s-.194 6.477 7.394 6.477h.054s-.664-.906-.859-3.509c-.36-4.806-3.632-5.466-3.632-5.466s1.747-.218 2.504-.892c1.18-1.067 1.097-2.3 1.097-2.3-2.67-.036-4.418-.941-5.759-2.474-1.435-1.661-1.673-3.451-1.673-3.451s1.435 1.294 4.207 1.294c.25 0 .508-.011.776-.038 1.316-.105 2.225-.936 2.225-.936-2.893-1.843-4.92-5.06-3.124-9.906 1.44-3.882 4.898-6.782 8.385-8.967 1.158-.72 1.802-1.522 1.802-2.21 0-.995-.869-1.4-1.76-1.814-.564-.263-1.137-.53-1.505-.951-1.096-1.267-.41-3.321.538-4.558 0 0-.314-.065-.822-.065-1.002 0-2.736.25-4.163 1.723-1.899 1.949-1.11 4.074-1.11 4.074l-.507.097c-.282.06-.567.075-.854.09l-.065.003-.103.002-.098.001c-2.759 0-3.982-2.862-3.982-2.862s-2.924 3.58 1.382 6.386c.741.48 1.067.925.98 1.399l-.066.312-.313.054c-2.984.807-4.562 2.805-6.384 5.113l-.244.309C29.99 57 25.85 57.12 25.335 57.12h-.057s.946 2.97 3.734 2.97c.044 0 .086 0 .133-.002 1.282-.046 1.939-.533 1.939-.533s.495 6.743-4.56 8.834c0 0 .92 1.592 3.03 1.592h.025c2.537-.014 3.556-1.552 3.556-1.552s-.147 2.001.762 4.7c1.1 3.258-.003 5.582-.003 5.582s.588.159 1.27.159c.264 0 .534-.025.788-.092 2.115-.5 2.644-2.418 2.644-2.418Zm8.199 5.953.002.005.924 1.403-1.669.023c-2.756 0-4.863-.758-6.33-2.257-.861-.887-1.357-1.89-1.647-2.776a4.464 4.464 0 0 1-2.91 1.063 6.62 6.62 0 0 1-1.501-.181l-1.068-.282.472-.989.004-.007c.066-.157.9-2.118-.037-4.89a16.034 16.034 0 0 1-.725-3.175c-.671.347-1.568.635-2.722.638-2.62 0-3.789-1.929-3.856-2.04l-.52-.903.96-.394c3.141-1.298 3.838-4.784 3.98-6.67a6.185 6.185 0 0 1-.974.114l-.165.006c-3.419 0-4.56-3.46-4.604-3.608l-.392-1.22 1.287.04c.452 0 4.23-.099 6.9-3.48l.252-.313.017-.023c1.74-2.202 3.393-4.294 6.349-5.25a2.898 2.898 0 0 0-.375-.28c-1.572-1.027-2.488-2.277-2.715-3.728-.334-2.14 1.01-3.856 1.112-3.987l.004-.006.961-1.17.593 1.389c.038.087 1.034 2.31 3.143 2.31h.155l.105-.005c.105-.006.207-.011.309-.02-.072-.991.111-2.524 1.512-3.967 1.682-1.732 3.74-1.993 4.82-1.993a6.113 6.113 0 0 1 .997.076l1.444.284-.891 1.162c-.696.896-1.328 2.551-.578 3.414.223.257.666.468 1.107.678l.094.044c.967.443 2.286 1.062 2.286 2.634 0 1.016-.787 2.08-2.225 2.985-4.26 2.662-6.882 5.442-8.015 8.509-1.751 4.718.529 7.408 2.758 8.827l.997.638-.874.798c-.118.104-1.186 1.038-2.764 1.173-.297.019-.58.036-.852.036a8.752 8.752 0 0 1-2.568-.371c.195.335.432.678.727 1.022 1.27 1.464 2.836 2.13 5.076 2.167l.841.014.056.832c.01.169.074 1.714-1.395 3.029a3.147 3.147 0 0 1-.783.507c1 .893 2.012 2.45 2.211 5.114.164 2.142.66 2.983.7 3.051ZM30.77 47.137c.704-.72 1.445-.937 2.085-.937.983 0 1.728.52 1.728.52-1.431.76-2.251 1.767-2.94 2.614-.59.724-1.084 1.33-1.784 1.565-.25.089-.51.127-.77.127-1.116 0-2.197-.719-2.566-1.539 0 0 2.048-.124 4.247-2.35ZM29.09 51.93a3.28 3.28 0 0 0 1.062-.17c.942-.31 1.546-1.05 2.178-1.825l.02-.026.02-.023c.65-.796 1.382-1.692 2.646-2.36l1.311-.702-1.218-.851-.017-.01c-.16-.103-1.05-.67-2.237-.67-1.015 0-1.958.415-2.736 1.204-1.892 1.924-3.588 2.079-3.65 2.08l-1.32.077.543 1.206c.544 1.202 1.975 2.07 3.398 2.07Zm8.082 2.062c-1.38 2.284-2.26 5.052-2.118 8.469.197 4.895 2.899 9.127 5.738 12.526 1.373 1.65 1.682 3.68 1.682 3.68s-.558-1.79-2.138-3.633c-3.047-3.55-5.653-7.239-5.998-12.553-.315.965-1.612 3.645-3.668 4.655 0 0 2.586-1.551 3.747-7.6v.047c.77-6.16 5.262-10.607 10.264-13.31.411-.221.801-.412 1.173-.594l.129-.063c-1.52.237-3.973.264-5.865-1.368 0 0 2.896 2.119 8.824.193-.475.307-1.08.65-1.77 1.043-1.694.962-3.901 2.215-5.97 3.937C33.918 55.788 39.129 62 39.129 62c-2.622-2.72-2.727-5.63-1.957-8.008ZM58.296 50v1.22c.423-.511 1.24-.406 1.24-.406v1.76s-.028.866-.337 1.24H60.968c-.304-.374-.336-1.24-.336-1.24v-1.76s.82-.105 1.239.407V50h-3.575Zm.13-6.719c-.068-.022-.383-.124-.891-.524-.937-.723-.955-1.39-.955-1.39l2.08.87v1.15l-.221-.1c-.001-.002-.006-.003-.014-.006Zm4.055-.524c.94-.723.958-1.39.958-1.39l-2.081.87v1.15l.22-.1c.001-.002.006-.003.014-.006.067-.022.382-.124.889-.524Zm-7.484-5.032 5.01 1.97 5.012-1.97c-.424-1.005-2.388-1.858-5.012-1.86-2.62.002-4.583.855-5.01 1.86Zm5.378 9.906 3.369-1.764 1.2-6.93-4.569 1.544v7.15Zm6.995 1.022-1.54-.89-1.583-.902-4.228 2.291-.012-.01-.008.01-4.228-2.29-1.582.902-1.543.89h-.017l-.39.225a4.54 4.54 0 0 1 2.16 1.304c.123.133.246.278.364.422l.015.02a11.043 11.043 0 0 1 .392.538l.04.056a11.16 11.16 0 0 1 .398.64c1.094 1.88 2.844 3.004 4.399 3.006 1.557-.002 3.306-1.126 4.403-3.006.12-.21.244-.413.37-.602.02-.026.04-.055.057-.082.108-.163.221-.32.34-.473l.038-.049.033-.042c.122-.15.248-.296.376-.433l.03-.028a4.536 4.536 0 0 1 2.124-1.271l-.388-.226h-.02Zm3.903 8.333c0-.975.285-1.955.63-2.86h-7.901c-1.21 1.194-2.37 1.637-3.409 1.74-.187.019-.378.031-.57.031h-.027c-.193 0-.386-.012-.572-.032a4.032 4.032 0 0 1-.563-.087c-.067.269-.154.829.093 1.363.22.483.666.843 1.316 1.081l.22.085.003.235c0 .07.051 1.592 1.716 2.014l.01-.01c.268-.275.511-.524.692-.731-.34-.799-.162-1.613.334-2.012-.022.085-.24 2.08 1.368 2.822l.265.127-.079.281c-.026.084-.562 2.016 1.385 2.735l.344.128-.152.334c-.034.075-.797 1.828 1 2.822h3.9v-3.08c-1.385-.168-1.974-1.277-2.125-2.064-.644-.109-1.143-.387-1.486-.838-.73-.959-.246-1.845-.129-2.06.014-.025.023-.041.024-.047 0 .01 0 1.055.649 1.7.32.31.702.55 1.276.605l.284.026.025.288c.005.062.16 1.477 1.482 1.698l-.003-6.294Zm-3.806 22.309-.436 2.257c2.6-.637 4.25-2.589 4.25-5.385l-.005-8.434H48.743v8.434c0 3.451 2.509 5.61 6.21 5.61 3.093 0 3.908.12 5.06 1.255.791-.786 1.446-1.08 2.793-1.19l.032-.131.71-2.183c-.04-.051-1.2-1.363-1.2-1.363-.461.152-.849.178-1.496.178-.668 0-1.421-.078-2.237-.23a1.053 1.053 0 0 0-.235-.026c-.1 0-.106.007-.134.056l-.14.231-.258.426-.488-.112-2.161-.507-.297.487.044.052.262.289-.117.376c-.158.491-.675 1.066-.832 1.223l-.54.578-.492-.62-.37-.462c-.389-.433-.479-1.095-.26-1.791a.051.051 0 0 1-.022.01l-.61.25-.274-.592-.193-.42a2.046 2.046 0 0 1 .684-2.478l1.74-.977 1.658.325c.018-.072.04-.224.062-.384.028-.197.057-.406.083-.486a.638.638 0 0 1-.031-.005c-.02-.003-.041-.007-.064-.007l-.953.355-.922-.63s-.358-.347-.033-.692l.89-1.343-2.258-2.822 3.472 1.42.231-.286.469-.558.531.503c.151.145.237.322.28.5.954.37 2.67 1.465 2.822 3.243l-.537.215v.01c.124.147.224.206.256.212l2.479.242c.041-.008.089-.023.142-.039l.087-.026c.307-.103.77-.255 1.319-.255.445 0 .876.101 1.292.295.153-.057.34-.1.558-.114l.12-.002c1.325 0 1.985.983 2.513 1.77l.002.002c.088.138.175.264.267.393.464.65 1.068 1.6 1.093 1.643l.273.425-.334.387c-.258.297-.646.644-1.31.644a2.42 2.42 0 0 1-.449-.045 1.97 1.97 0 0 1-.392-.12c-.02.13-.048.285-.071.418ZM53.27 77.073l-.117-.292c-.084-.19-.073-.395.088-.507l.948-.651 1.583.302s-.286-.358-.258-.835l-1.512-.318-1.425.863a1.372 1.372 0 0 0-.453 1.641l.188.413s.88-.36.958-.616Zm13.037 4.617.487-2.524c.054-.276.105-.645.105-.645l-.096-.094c-.219-.212-.583-.566-.803-.981-.18-.347-.215-.606-.253-.9a3.899 3.899 0 0 0-.222-.954s.097-.198.323-.198c.034 0 .073.005.11.014.296.084.498.583.726 1.146.308.763.665 1.644 1.368 1.773.12.024.23.032.327.032.355 0 .565-.148.791-.416 0 0-.615-.96-1.073-1.61a16.26 16.26 0 0 1-.284-.413c-.495-.736-.982-1.461-1.939-1.461-.026 0-.06 0-.087.004-.375.017-.606.2-.606.2a2.365 2.365 0 0 0-1.276-.386c-.439 0-.818.123-1.109.218-.181.06-.33.108-.436.108h-.01l-2.538-.251c-.397-.037-.712-.434-.825-.591l-.043-.068c0-.068 0-.139-.004-.201-.086-2.066-1.694-2.95-2.267-2.965 0 0 .068-.392-.087-.543l-.56.677-1.837-.918 1.312 1.525-1.11 1.24c-.14.141-.123.332-.065.412l.48.422.609-.366c.03-.023.086-.03.151-.03a3.1 3.1 0 0 1 .277.02c.12.011.25.023.371.023.248 0 .462-.052.488-.283-.023.231-.104.514-.193.825-.206.718-.456 1.587-.128 2.317l.349.791-2.246-.323-1.05 1.767c-.325.587-.375 1.223-.065 1.57l.394.489s.551-.581.674-.965l-.178-.194c-.15-.166-.143-.313-.05-.489l.657-1.087 2.65.621.142-.237c.18-.297.438-.386.722-.386.117 0 .237.013.361.033.492.097 1.3.226 2.11.226.888 0 1.771-.159 2.24-.681.492.725 1.242 1.138 1.836 1.465.566.311.99.544.916.895l-.512 2.425c.338-.014.665-.036.976-.079Zm-2.79.11c.282-.011.599-.015.94-.015 0 0 .816-2.373.862-2.448a19.62 19.62 0 0 1-1.772-.931c.079.118.195.242.311.365.24.254.481.51.402.724l-.743 2.305Zm-10.01-24.79-.106 4.006.458.07 1.119-3.846-.568-1.182-.903.952Zm1.143 5.879c-.186-.118-.452-.323-.6-.632-.169-.356-.411-.52-.765-.52-.461 0-.953.275-1.165.404-.168.988.564 1.884 1.054 2.064.445.161.985.195 1.262.195l.013-.04c.008-.025.018-.054.027-.087a3.31 3.31 0 0 0 .064-.25c.077-.398.105-.846.11-1.134Zm6.73 2.707c.65-.452 2.44-1.753 3.134-2.262-.505-.734-.553-1.606-.44-2.218a3.171 3.171 0 0 1-.784-.704c-.768.833-2.2 2.22-2.528 2.537a52 52 0 0 0-.064.063l-.102.102-5.252-.084c-.004.52-.088.96-.17 1.283l-.026.098-.017.068 6.25 1.117Zm-3.179-10.013c-.698-.253-1.434-.716-2.186-1.459h-7.898c.34.906.626 1.886.626 2.861v10.066H66.27c-.876-.9-.862-2.039-.642-2.777a2.958 2.958 0 0 1-.651-.43c-.686.503-2.775 2.017-3.323 2.398l-.117.077-6.878-1.235h-.14c-.165 0-.406-.007-.67-.039a.668.668 0 0 1-.759.51.658.658 0 0 1-.44-.272.655.655 0 0 1-.12-.501l.025-.15c-.708-.496-1.363-1.607-1.073-2.778l.028-.125.102-.07c.013-.012.132-.092.31-.192l-.5-.077a.343.343 0 0 1-.284-.39c.032-.185.208-.32.393-.284l1.19.189.11-4.173 1.771-1.865 1.106 2.316-1.167 4.014 1.051.165c.186.03.312.202.284.392a.336.336 0 0 1-.337.281c-.019 0-.036 0-.055-.002l-.854-.137c.005.012.011.022.018.031.007.01.014.022.02.036.09.188.293.32.412.38l5.242.083.021-.021c.235-.228.77-.748 1.318-1.3a2.815 2.815 0 0 1-1.838-2.327c-.72-.306-1.219-.764-1.496-1.358-.336-.738-.217-1.477-.126-1.837Zm1.441-15.104-4.574-1.544 1.206 6.93 3.368 1.765v-7.15Zm.376-5.721c3.257 0 6.209 1.57 6.209 3.314l-.064.43-1.301 7.431 1.301.755 3.386 1.964h-.012s.761.389 1.109.629c1.294.888 1.565 2.187.817 2.724-.187-1.059-1.026-2.164-2.6-2.164-1.134 0-1.997.579-2.7 1.455-.175.22-.345.456-.506.709-.197.32-.392.6-.586.87h8.71c-.643 1.28-1.25 2.637-1.25 4.11v19.182c0 4.643-3.582 6.857-7.465 6.857l-.636-.001c-2.434-.009-2.895-.01-4.418 1.507-1.53-1.518-1.99-1.516-4.423-1.507l-.636.001c-3.88 0-7.468-2.214-7.468-6.858v-19.18c0-1.474-.607-2.83-1.248-4.111h8.71c-.196-.27-.393-.55-.589-.87a6.806 6.806 0 0 0-.51-.709c-.695-.873-1.56-1.455-2.694-1.455-1.575 0-2.415 1.105-2.6 2.164-.747-.537-.473-1.836.814-2.724.353-.24 1.113-.629 1.113-.629h-.012l3.38-1.964 1.308-.755-1.302-7.431-.065-.43c0-1.745 2.952-3.314 6.209-3.314h.019Z" fill="#231F20"/></svg>