<svg width="120" height="120" fill="none" xmlns="http://www.w3.org/2000/svg"><path fill-rule="evenodd" clip-rule="evenodd" d="M7.994 69.155c1.467 2.092 3.929 3.91 5.806 5.4 23.39 18.565 73.087 18.457 98.412 1.777 1.1-.724 1.442-.994 2.161-1.967v-.784c-.772-1.127-1.109-1.443-2.942-1.442-3.384.004-5.754-.478-7.549 1.013a27.493 27.493 0 0 1-2.44 1.794c-21.515 14.072-59.73 13.892-82.182 2.055-2.915-1.536-5.14-3.18-7.396-5.297-.717-.672-1.706-1.405-1.913-2.319.984.213 1.178.688 1.735 1.212 1.418 1.335 2.683 2.248 4.375 3.35 2.1 1.365 4.476 2.515 6.954 3.536 18.66 7.69 47.167 7.365 65.073-2.27.618-.333.99-.556 1.639-.938 3.148-1.85-1.177-2.802-3.445-1.792-1.013.45-2.21 1.315-3.271 1.885-16.243 8.73-43.778 9.225-60.921 1.827-19.931-8.6-20.41-23.493-.31-32.334 16.593-7.298 43.811-7.342 60.914 1.535 2.502 1.298 4.136 3.068 7.827 2.207.628-1.461.02-1.62-2.864-3.123-19.363-10.09-51.17-9.94-70.154.623-1.502.836-2.684 1.678-3.975 2.646-1.31.983-2.927 2.77-3.6 2.728.444-1.822 6.777-6.23 9.397-7.595 3.703-1.93 7.629-3.608 12.044-4.895 21.196-6.176 51.514-5.262 70.339 7.17 3.156 2.083 2.224 2.62 5.857 2.608 5.385-.018 5.583.592 6.808-1.599v-.473c-1.414-2.397-6.599-4.822-9.008-6.041-3.355-1.698-6.973-3.003-10.758-4.143-20.718-6.237-49.35-6.342-68.88 1.912C13.863 42.434-1.58 55.507 7.993 69.155Z" fill="#00457C"/><path fill-rule="evenodd" clip-rule="evenodd" d="m16.092 55.325-1.081-.11V65.98h2.208l-.013-3.324c.01-.232.02-.292.061-.514l.119-.278c.223-.323 2.081-.742 2.35.304.319 1.238-.093 4.156 4.85 4.049 1.575-.034 2.534-.642 3.142-1.51.906-1.294.67-2.388.67-4.063 0-3.375-.26-5.5-3.813-5.617-6.288-.205-3.748 4.338-5.374 4.695a2.538 2.538 0 0 1-.513.067c-.463.02-.79-.025-1.226-.134-.592-1.493.532-3.758-1.38-4.33ZM98.135 66.164c2.808-.014 2.409-1.551 2.392-4.6-.002-.353-.023-.78-.011-1.122.025-.746-.108-.59.241-1.029.609.202.478.26.761 1.02l1.664 4.214 2.118-.005c.368-.964 1.653-5.26 2.437-5.136 1.039 1.72-1.56 6.647 2.588 6.658V55.262l-3.292.063c-.973 2.342-1.713 4.368-2.78 6.664-.577-1.134-2.159-5.231-2.828-6.613-1.36-.221-1.837-.128-3.284-.114l-.006 10.902ZM75.18 65.428l.035.692 2.312-.001c.31-3.187-.904-3.585 2.07-3.545 1.635.022 3.586.12 4.398-2.13.652-1.806.34-5.182-3.294-5.182h-5.52v10.166ZM86.045 66.073c3.2 0 1.945.613 4.773-3.408.436-.62 1.935-3.284 2.613-3.182.98 2.26-1.383 7.002 2.497 6.636v-10.8l-2.543-.04-4.028 6.11c-.379.522-.312.51-.95.6-.062-1.549.038-3.127-.024-4.66-.068-1.683-.638-2.164-2.346-2.206l.008 10.95ZM42.62 66.073c3.18 0 1.942.608 4.78-3.401.655-.925 1.941-3.283 2.606-3.189.974 2.245-1.362 6.997 2.497 6.636v-10.8l-2.543-.03c-.338.7-4.127 6.531-4.98 6.878-.052-.08-.017-4.296-.015-4.659-.024-1.8-.531-2.34-2.353-2.385l.008 10.95ZM30.476 66.073h2.291c.174-.79.1-1.67.089-2.488-.03-2.19-.632-1.882 4.051-1.882 1.786 0 .91 1.182 1.141 2.78.185 1.28 1 1.678 2.355 1.681V55.262h-2.392c0 5.356.975 4.37-4.232 4.37-2.508 0 .963-4.401-3.312-4.508l.009 10.95ZM62.68 66.119c-.146-3.083-3.7-1.177-5.076-2.065-.97-.626-.603-5.603-.306-6.606 2.423-1.011 4.568.718 5.175-2.175-1.868-.04-4.648-.352-6.151.49-1.68.942-1.656 2.571-1.658 5.065-.005 6.11 2.43 5.291 8.016 5.291ZM63.52 57.056l3.726.038c.434 2.011 0 6.64.136 8.956l2.347.055c.137-2.372-.297-7 .139-8.923 2.006-.474 3.418.422 3.795-1.864l-8.051-.056c-1.406 0-1.863.525-2.093 1.794Z" fill="#00457C"/><path fill-rule="evenodd" clip-rule="evenodd" d="M22.049 58.988v3.496c0 2.521 4.093 2.837 4.093-.184 0-3.217.542-5.427-2.115-5.427-1.35 0-1.978.79-1.978 2.115ZM77.573 58.068c0 3.084-.36 2.714 2.576 2.714 1.796 0 1.794-.785 1.794-2.162 0-1.856-1.042-1.563-3.266-1.563-1.045 0-1.104-.028-1.104 1.011Z" fill="#fff"/></svg>