<svg width="120" height="120" fill="none" xmlns="http://www.w3.org/2000/svg"><path fill-rule="evenodd" clip-rule="evenodd" d="M33.12 31.813c1.204-1.798 5.986-4.293 8.038-5.33 9.874-4.994 23.042-3.026 31.777 2.71 11.263 7.397 16.526 21.59 13.427 34.94-.24 1.03-.558 1.797-.645 2.841 4.913-5.653 6.412-16.316 5.811-23.538.788.907 1.13 2.742 1.399 3.833 2.374 9.638-.198 21.58-6.273 28.488-3.932 4.47-6.304 6.373-11.785 9.137-3.862 1.948-11.604 4.116-17.63 2.712-.03-1.378-.293-1.75-.29-4.94.002-2.137.025-3.476.271-5.25.254-1.816.51-2.891.989-4.533.487-1.673 1.273-3.186 1.355-4.165-.997-.479-2.49-.394-3.487-.872-.526.785-1.154 1.427-1.745 2.323-5.39 8.175-6.101 12.834-6.101 23.54-2.714-.227-9.509-5.285-11.554-7.335-4.902-4.913-7.893-10.744-9.124-17.901-.68-3.96-.42-10.163.59-13.742 1.044-3.702 2.594-7.473 4.892-10.508 2.411-3.183 4.445-5.346 7.64-7.762 5.202-3.935 10.236-5.33 16.897-6.06 2.796-.305 5.015.25 7.513.25-2.814-2.447-12.657-3.869-16.522-3.445-2.997.328-5.62.734-8.353 1.526-2.81.815-6.39 2.894-7.09 3.08ZM16.557 59.419c0 6.462.192 10.912 3.195 16.855 2.11 4.175 3.581 6.049 6.757 9.225 5.63 5.63 13.138 9.953 22.013 9.953.225.97.375 1.854.598 2.888.464 2.15 1.951 5.802 2.889 7.573h13.948c-3.487-5.208-6.116-6.727-8.137-15.401 1.655.385 3.28 1.053 5.017 1.376 11.273 2.093 21.11-.367 29.496-7.837 7.697-6.86 11.691-15.241 11.691-26.376 0-12.73-8.085-23.486-16.144-28.316-4.002-2.399-1.746-.873-4.282-3.855-5.946-6.99-14.77-11.998-24.615-11.998-8.06 0-12.61.847-19.527 5.173-12.796 8.004-14.02 19.266-15.505 21.4l-2.34 3.181c-2.445 3.64-5.054 10.212-5.054 16.159Z" fill="#009B36"/></svg>