<svg width="88" height="88" fill="none" xmlns="http://www.w3.org/2000/svg"><path fill-rule="evenodd" clip-rule="evenodd" d="m.406 39.01 87.206.04-.09-20.442c-.602-6.795-3.1-10.516-6.774-13.818C76.821 1.26 71.348.26 64.8.268H23.753C17.11.268 11.498 1.081 7.42 4.64 3.883 7.724 1.165 11.545.527 18.341c-.262 2.784-.23 17.38-.12 20.669Z" fill="#3D9A1A"/><path fill-rule="evenodd" clip-rule="evenodd" d="M.336 62.355C.1 72.477 1.55 81.159 11.328 85.75c4.65 2.184 9.372 1.977 15.306 1.977H61.2c6.145 0 10.495.207 15.354-1.923 8.492-3.725 11.598-11.619 11.078-23.574l-87.296.125Z" fill="#69B127"/><path d="m7.72 53.376 2.385-6.219h.905l2.532 6.219h-.937l-.72-1.885H9.268l-.674 1.885H7.72Zm1.789-2.554h2.12l-.65-1.724a21.881 21.881 0 0 1-.445-1.298c-.085.405-.2.803-.343 1.197l-.682 1.825Zm4.65 2.553v-6.218h2.334c.475 0 .856.062 1.144.188.286.126.51.32.673.582.164.26.245.534.245.82 0 .266-.073.516-.216.75-.143.235-.36.425-.652.57.377.11.666.298.868.564.202.265.303.579.303.94 0 .293-.062.564-.185.814s-.275.443-.456.58a1.932 1.932 0 0 1-.68.306 4.14 4.14 0 0 1-1.005.104H14.16Zm.826-3.604h1.345c.365 0 .627-.024.784-.072a.869.869 0 0 0 .474-.311.898.898 0 0 0 .159-.545c0-.207-.05-.39-.15-.546a.749.749 0 0 0-.423-.324c-.184-.058-.5-.087-.946-.087h-1.243v1.885Zm0 2.875h1.549c.266 0 .453-.01.562-.03.188-.034.347-.09.474-.17a.909.909 0 0 0 .314-.347c.083-.152.123-.327.123-.526 0-.233-.06-.434-.18-.606a.936.936 0 0 0-.494-.362c-.21-.07-.514-.104-.91-.104h-1.438v2.145Zm6.003.73v-5.49h-2.05v-.729h4.925v.73h-2.05v5.489h-.825Zm3.082-3.027c0-1.03.277-1.839.832-2.422.554-.583 1.27-.874 2.147-.874.574 0 1.091.137 1.553.41.46.274.812.657 1.054 1.147.241.49.363 1.045.363 1.666 0 .63-.127 1.194-.382 1.691a2.6 2.6 0 0 1-1.082 1.13 3.096 3.096 0 0 1-1.51.383 2.949 2.949 0 0 1-1.571-.424 2.726 2.726 0 0 1-1.048-1.157 3.499 3.499 0 0 1-.356-1.55Zm.85.014c0 .749.202 1.338.604 1.768.403.43.908.645 1.516.645.62 0 1.128-.217 1.529-.651.399-.434.599-1.051.599-1.85 0-.505-.086-.947-.256-1.323a1.969 1.969 0 0 0-.75-.876c-.33-.207-.7-.311-1.109-.311-.582 0-1.083.2-1.503.6-.42.399-.63 1.065-.63 1.998Zm7.738 3.013v-5.49h-2.05v-.729h4.925v.73h-2.05v5.489h-.825Zm3.081-3.027c0-1.03.278-1.839.833-2.422.554-.583 1.27-.874 2.146-.874.575 0 1.092.137 1.554.41.46.274.812.657 1.053 1.147.242.49.364 1.045.364 1.666 0 .63-.128 1.194-.382 1.691a2.6 2.6 0 0 1-1.082 1.13 3.096 3.096 0 0 1-1.51.383 2.95 2.95 0 0 1-1.571-.424 2.726 2.726 0 0 1-1.048-1.157 3.499 3.499 0 0 1-.356-1.55Zm.852.014c0 .749.201 1.338.603 1.768.403.43.908.645 1.516.645.62 0 1.127-.217 1.528-.651.4-.434.6-1.051.6-1.85 0-.505-.086-.947-.257-1.323a1.968 1.968 0 0 0-.75-.876c-.33-.207-.699-.311-1.108-.311-.582 0-1.083.2-1.503.6-.42.399-.63 1.065-.63 1.998Zm6.156 3.013v-6.219h2.348c.412 0 .728.02.947.06.305.05.561.147.768.289.207.143.374.343.5.6.125.255.188.538.188.846 0 .527-.168.974-.505 1.339-.336.366-.946.549-1.826.549h-1.595v2.536h-.825Zm.825-3.266h1.607c.532 0 .909-.099 1.133-.297.223-.198.335-.476.335-.836 0-.26-.066-.482-.197-.668a.926.926 0 0 0-.52-.367c-.139-.037-.395-.056-.767-.056h-1.59v2.224Zm4.985-2.953h4.022v.73h-3.197v5.489h-.825v-6.219Z" fill="#545D62"/><path fill-rule="evenodd" clip-rule="evenodd" d="M53.359 46.914h1.306v6.704h-1.306v-6.704Z" fill="#B1C903"/><path d="M56.808 47.146h4.647l-.665 1.051h-2.723v1.442h1.678c.462 0 .847.056 1.15.17.306.112.567.32.782.626.216.304.325.662.325 1.071 0 .42-.109.78-.327 1.08-.218.298-.465.504-.744.614-.278.11-.675.165-1.189.165h-2.934v-6.219Zm1.26 5.168h1.22c.389 0 .664-.019.822-.057a.782.782 0 0 0 .414-.257.72.72 0 0 0 .175-.494c0-.285-.103-.492-.307-.622-.206-.129-.554-.194-1.05-.194h-1.275v1.624Zm10.227 1.05H66.94l-.537-1.415h-2.494l-.517 1.416H62.06l2.414-6.219h1.33l2.491 6.219Zm-2.301-2.466-.864-2.301-.84 2.301h1.704Zm2.972 2.467v-6.219h1.259v2.45h2.45v-2.45h1.259v6.219h-1.26v-2.719h-2.449v2.719h-1.26Z" fill="#2B2A29"/><path fill-rule="evenodd" clip-rule="evenodd" d="M75.348 47.304v6.082h1.054v-1.612l1.284-1.284 1.296 2.799h1.236l-1.733-4.059 1.672-2.023H78.74l-2.29 3.126v-3.186h-1.12l.018.157Z" fill="#2B2A29"/></svg>