<svg width="120" height="120" fill="none" xmlns="http://www.w3.org/2000/svg"><path fill-rule="evenodd" clip-rule="evenodd" d="M28.085 4.77h63.83c13.219 0 24 10.782 24 24v62.46c0 13.218-10.781 23.999-24 23.999h-63.83c-13.219 0-24-10.781-24-24V28.771c0-13.219 10.781-24 24-24Z" fill="#00FD00"/><path fill-rule="evenodd" clip-rule="evenodd" d="M46.655 17.24c-6.449.593-11.698 2.203-16.061 5.229-2.248 1.56-4.219 2.994-5.799 4.784-9.512 10.774-8.54 20.188-8.521 33.854.005 3.269-.225 7.662.109 10.8 2.067 19.446 15.706 30.097 33.41 30.112 3.89.004 18.602.196 21.26-.171 6.81-.942 10.664-1.794 15.868-5.332 9.912-6.737 13.696-15.821 14.18-28.036.139-3.502.105-17.978-.253-21.054-1.05-9.015-3.622-16.018-9.938-21.78-6.078-5.547-14.195-8.575-23.16-8.556-6.583.014-14.758-.433-21.095.15Z" fill="#FDFFFD"/><path fill-rule="evenodd" clip-rule="evenodd" d="M50.972 31.352c-2.65 1.295-4.972 1.98-7.651 3.598-13.26 8.013-17.685 25.922-9.553 39.468 2.164 3.604 7.898 10.037 12.111 11.037l2.678-7.376s-5.142-3.416-7.61-7.638c-8.909-15.23 3.575-29.196 9.995-29.937.119 3.857.572 29.002.572 29.002C56.344 56.88 65.556 31.59 65.556 31.59l-14.483-8.297-.1 8.06Z" fill="#4C4E52"/><path fill-rule="evenodd" clip-rule="evenodd" d="M68.875 41.183c.635.559 1.36.922 2.087 1.458 9.134 6.736 11.765 19.642 4.26 29.628-1.316 1.752-5.515 6.12-8.825 6.449-.1-5.149-.544-28.759-.544-28.759S54.148 81.195 51.891 87.832c2.462 1.133 14.396 7.808 14.396 7.808l.059-7.969c4.092-2.25 8.581-2.75 13.802-8.75 9.395-10.798 10.072-26.619 1.147-37.26-.957-1.141-1.809-1.888-2.74-2.924-1.12-1.249-4.766-4.358-6.871-4.713l-2.809 7.159Z" fill="#00FD00"/></svg>