<svg width="120" height="120" fill="none" xmlns="http://www.w3.org/2000/svg"><path fill-rule="evenodd" clip-rule="evenodd" d="M11.2 84.349c5.472.431 12.6.049 18.253.049h36.642c5.005 0 13.252.482 17.823-.472 11.403-2.38 13.424-9.102 16.707-19.963.591-1.955 7.995-26.84 8.174-28.374-5.822-.3-12.374-.034-18.276-.034H53.88c-9.597 0-22.57-1.506-28.107 8.53-2.195 3.98-3.592 8.475-5.213 13.108-1.59 4.546-3.102 9.061-4.687 13.63-1.505 4.338-3.502 9.276-4.674 13.526Zm29.035-8.543c5.99-.022 11.982-.022 17.972-.02 6.32.003 10.027-1.046 13.236-4.61 2.395-2.66 4.3-8.077 5.382-12.41 1.189-4.762 2.784-9.886 3.668-14.618-5.986.021-11.974.02-17.96.025-12.584.012-14.492 7.601-17.877 17.77l-4.421 13.863Z" fill="#133E75"/><path fill-rule="evenodd" clip-rule="evenodd" d="M47.376 70.394c1.744.346 9.242.201 11.352.086 7.682-.418 8.668-6.533 10.793-12.38 1.019-2.804 2.271-5.764 3.103-8.5-2.208-.337-8.931-.2-11.374-.06-7.594.439-8.449 6.413-10.703 12.481-1.018 2.739-2.276 5.653-3.171 8.373Z" fill="#FBB800"/></svg>