<svg width="120" height="120" fill="none" xmlns="http://www.w3.org/2000/svg"><path fill-rule="evenodd" clip-rule="evenodd" d="m107.807 59.86-17.096-.003c-.637 2.772.088 4.266-1.694 9.782-.915 2.833-2.357 5.555-3.802 7.69-2.714 4.005-7.272 8.133-12.482 10.501-13.085 5.948-26.64 1.427-34.308-6.04-3.744-3.648-6.97-9.33-8.236-14.714-2.994-12.737 2.22-24.853 12.2-32.1 4.79-3.476 10.335-5.312 17.57-5.594l.005-17.3C38.837 11.768 22.58 25.807 16.25 40.228c-4.313 9.828-5.313 19.032-3.035 30.618.937 4.772 3.015 9.108 5.064 12.883 4.107 7.565 10.793 13.734 17.975 17.957 15.162 8.916 34.54 8.047 49.244-1.083 9.296-5.773 16.243-14.7 19.897-25.142 1.066-3.046 3.266-12.143 2.412-15.602Z" fill="#006648"/><path fill-rule="evenodd" clip-rule="evenodd" d="M57.251 38.955c-3.43.636-5.179 1.017-7.96 2.68-7.146 4.274-11.482 12.226-10.279 21.423 1.392 10.647 11.6 19.761 24.063 18.003C73.793 79.55 82.924 69.695 81.18 57.035 79.53 45.08 67.929 36.976 57.25 38.955Z" fill="#52AD30"/><path fill-rule="evenodd" clip-rule="evenodd" d="M84.867 21.099c-16.16 3.232-11.272 26.956 4.463 23.945 5.808-1.111 11.101-6.724 9.74-14.077-1.114-6.02-6.831-11.342-14.203-9.868Z" fill="#006648"/></svg>