<svg width="120" height="120" fill="none" xmlns="http://www.w3.org/2000/svg"><path fill-rule="evenodd" clip-rule="evenodd" d="M0 120h120V0H62.303c2.587 5.498 4.344 4.989 4.314 9.374-.01 1.46.098 2.961-.076 4.41L58.073 0h-6.067c1.153 2.392 3.065 5.178 4.469 7.507l8.929 14.746c1.327 2.147 1.22 1.627 1.21 4.7-.005 1.87.104 4.022-.057 5.854-.744-.731-1.982-3.12-2.626-4.165-.88-1.428-1.595-2.601-2.489-4.068C58.992 20.554 47.902 2.617 46.59 0h-6.803c.583 1.206 1.344 2.27 2.015 3.438 3.83 6.67 9.59 15.814 13.638 22.453l9.845 16.168c.883 1.46 1.355 1.687 1.338 3.873-.02 2.573.295 8.023-.11 10.23L32.351 0H0v120Z" fill="#F2CD12"/><path fill-rule="evenodd" clip-rule="evenodd" d="M80.86 94.087h17.578c7.026 0 12.114-2.647 12.114-9.712 0-5.046-2.915-7.6-7.127-8.76 2.541-1.55 5.427-2.05 5.427-7.646 0-6.398-5.164-8.438-11.352-8.438H80.86v34.556Zm8.203-6.717c5.507 0 12.839 1.314 12.855-3.928.016-5.322-8.365-3.886-12.753-3.886l-.102 7.814Zm0-14.171h7.03c2.446 0 4.341-1.01 4.439-3.365.103-2.48-2.032-3.506-4.438-3.506h-7.032v6.87ZM44.767 94.145h7.967l.006-22.637c1.366 1.604 12.74 22.36 13.354 22.609l8.17.03.083-34.542-7.902.007-.046 19.006c-.061-.046-.13-.184-.153-.143L54.6 59.605h-9.776l-.057 34.54ZM10.679 68.203c0 8.134 3.922 9.545 12.103 11.449 2.982.694 6.65 1.45 7.661 3.573 1.89 3.972-2.601 5.135-5.6 5.135-4.096 0-6.928-1.464-7.03-5.493H9.374c.756 9.687 7.213 12.216 15.937 12.216 7.722 0 13.88-3.613 13.88-11.41 0-12.492-17.232-9.067-19.774-13.559-2.04-3.606 3.002-5.701 7.499-4.469 2.026.556 2.787 1.509 3.362 3.422h7.69c.274-6.484-5.888-10.473-12.422-10.473-6.976 0-14.868 1.698-14.868 9.61ZM39.786 0h-7.435l34.16 56.162c.406-2.207.09-7.657.11-10.23.018-2.186-.454-2.413-1.337-3.873l-9.845-16.168C51.392 19.252 45.63 10.107 41.8 3.438 41.131 2.27 40.37 1.206 39.786 0ZM52.006 0H46.59c1.313 2.617 12.403 20.554 14.853 24.574.894 1.467 1.61 2.64 2.49 4.068.643 1.044 1.882 3.433 2.625 4.165.161-1.832.052-3.984.058-5.854.008-3.073.116-2.553-1.211-4.7L56.475 7.507C55.071 5.178 53.16 2.392 52.006 0ZM62.303 0h-4.23l8.468 13.783c.175-1.447.066-2.948.076-4.41.03-4.384-1.727-3.875-4.314-9.373Z" fill="#165492"/></svg>