<svg width="120" height="120" fill="none" xmlns="http://www.w3.org/2000/svg"><path fill-rule="evenodd" clip-rule="evenodd" d="M0 22.957v72.565c.803 2.45-1.073 15.821 13.377 22.365 4.298 1.946 8.453 1.501 9.793 2.113H96.83c1.746-.797 15.336.48 21.256-13.844.57-1.381.995-3.013 1.262-4.569.186-1.085.452-4.902.651-5.407V23.17c-.394-.861-.487-3.916-.719-5.117-1.762-9.146-8.541-15.95-17.803-17.407-1.104-.173-4.412-.367-5.08-.645H23.17c-.918.42-3.734.48-5.07.715C10.652 2.019 5.049 6.716 2.057 13.512.106 17.943.73 21.424 0 22.957Z" fill="#004A8D"/><path fill-rule="evenodd" clip-rule="evenodd" d="m60.53 77.799-.02-12.704-15.363-.05.003 28.263 47.931-.047.029-48.034-47.927.02.025 15.371h32.743l.004 17.15c.012-.055-15.746.025-17.425.03ZM93.048 26.314l-47.71-.091-.187 15.29 48.015.007-.118-15.206ZM26.388 93.042l15-.01.022-47.733-14.957.018-.065 47.725Z" fill="#FEFEFF"/></svg>