<svg width="120" height="120" fill="none" xmlns="http://www.w3.org/2000/svg"><path fill-rule="evenodd" clip-rule="evenodd" d="M47.255 54.468 35.026 66.649h-2.544c2.971-2.556 14.3-13.747 14.3-13.747l.473 1.566Z" fill="#B6985C"/><path fill-rule="evenodd" clip-rule="evenodd" d="M69.512 40.613c.557.799.497 1.822.659 2.852l-9.524-9.227L26.416 66.65h-3.08l37.311-34.757s3.343 3.192 4.417 4.251l3.696 3.713c.652.607 0 0 .752.756Z" fill="#B6985C"/><path fill-rule="evenodd" clip-rule="evenodd" d="M51.69 40.613c-.556.799-.496 1.822-.658 2.852l9.524-9.227L94.787 66.65h3.08L60.555 31.893s-3.343 3.192-4.417 4.251l-3.695 3.713c-.652.607 0 0-.752.756Z" fill="#B6985C"/><path fill-rule="evenodd" clip-rule="evenodd" d="m40.536 51.943.012 2.322-.066 4.793-.154 4.264-.102 3.318 4.247-.061c-.275-4.286-.328-8.952-.328-13.365 0-3.252-.276-10.52.208-13.243l3.119-.023c-.124.834-.505 1.735-.705 2.64-1.37 6.2-.649 14.754 3.66 19.278 3.924 4.12 9.186 5.837 15.304 4.329 2.192-.54 3.264-1.433 4.872-1.99l-.11 2.428c3.672-.272 7.73.379 11.192-.292 4.14-.802 4.792-1.71 6.825-4.245l.757-1.84c.295-3.848-.259-6.02-2.548-7.693-3.452-2.524-8.21-2.488-12.322-2.463l.055-9.863h13.192l-.05-2.76c-5.843.435-11.16.358-17.09.004l.212 4.282.017 2.342c.262 1.362.203 15.823-.167 16.429-.562 1.153-3.793 3.162-5.69 3.748-2.82.871-5.455.393-7.723-.917-3.331-1.924-5.982-6.821-6.379-12.162l-.147-2.442.405-5.296c1.525-9.729 10.023-16.637 18.478-8.065.615.624.386.722 1.378.78.626-.847 1.063-3.014 1.101-4.276-2.322-.851-3.34-1.665-6.384-2.064-2.531-.33-5.201-.302-7.65.344-7.008 1.847-8.877 7.104-9.42 7.415-4.228.614-12.25.174-16.72-.118l.057 2.77c1.701-.185 7.038-.59 8.503-.183l.16 11.875Zm42.18 11.237c.484-1.804-7.05-7.542-8.276-8.234l.017 9.35c2.88.179 6.17.3 8.259-1.116Zm2.55-4.635c.481-6.585-6.018-6.098-10.779-6.412l-.035.87c.593 2.154 8.11 10 9.555 9.087.78-.935 1.207-2.076 1.258-3.545Z" fill="#012D6A"/><path fill-rule="evenodd" clip-rule="evenodd" d="m16.125 76.335 88.906.022-5.041-4.807H24.073c-1.924-.003-3.126 0-3.126 0-1.683 1.47-3.273 3.17-4.822 4.785ZM74.44 54.946l8.275 8.234a4.952 4.952 0 0 0 1.292-1.09c-2.97-2.557-9.555-9.188-9.555-9.188l-.012 2.044Z" fill="#B6985C"/><path d="M13.224 83.628v-.708H17.2v.708h-1.62v6.558h-.738v-6.558h-1.62Zm5.028-.708H19.7c.83 0 1.391.035 1.681.108a1.86 1.86 0 0 1 1.017.63c.265.317.397.717.397 1.198 0 .484-.129.882-.387 1.198-.256.313-.61.524-1.06.634-.331.079-.947.118-1.85.118h-.519v3.38h-.728V82.92Zm.728.708v2.47l1.232.015c.497 0 .862-.046 1.093-.137.23-.091.413-.236.544-.439.132-.202.198-.43.198-.68 0-.242-.066-.467-.198-.669a1.096 1.096 0 0 0-.523-.432c-.215-.086-.568-.128-1.06-.128H18.98Zm8.236-.708 3.39 7.266h-.78l-1.135-2.388h-3.15l-1.128 2.388h-.81l3.431-7.266h.183Zm-.09 1.524-1.25 2.645h2.494l-1.245-2.645Zm4.59-1.524h.73v3.046h3.703V82.92h.729v7.266h-.729v-3.512h-3.704v3.512h-.729V82.92Zm13.695 1.34-.574.44a3.121 3.121 0 0 0-1.138-.935 3.322 3.322 0 0 0-1.46-.32c-.578 0-1.114.14-1.608.42a2.99 2.99 0 0 0-1.147 1.12 3.108 3.108 0 0 0-.409 1.585c0 .887.304 1.627.911 2.22.608.593 1.373.89 2.3.89 1.017 0 1.867-.398 2.551-1.194l.574.435c-.363.46-.815.818-1.356 1.07a4.26 4.26 0 0 1-1.815.377c-1.272 0-2.276-.423-3.01-1.27-.615-.713-.924-1.577-.924-2.587 0-1.063.373-1.959 1.119-2.684.747-.727 1.681-1.09 2.805-1.09.678 0 1.29.134 1.837.4.546.269.995.643 1.344 1.124Zm8.228 0-.574.44a3.121 3.121 0 0 0-1.139-.935 3.322 3.322 0 0 0-1.459-.32c-.578 0-1.114.14-1.608.42a2.99 2.99 0 0 0-1.148 1.12 3.108 3.108 0 0 0-.408 1.585c0 .887.304 1.627.911 2.22.607.593 1.373.89 2.299.89 1.017 0 1.867-.398 2.552-1.194l.574.435c-.363.46-.815.818-1.357 1.07a4.26 4.26 0 0 1-1.815.377c-1.271 0-2.275-.423-3.009-1.27-.615-.713-.924-1.577-.924-2.587 0-1.063.373-1.959 1.119-2.684.747-.727 1.681-1.09 2.805-1.09.678 0 1.29.134 1.836.4.547.269.995.643 1.345 1.124Zm.738-.632v-.708h3.978v.708h-1.62v6.558h-.738v-6.558h-1.62Zm5.028-.708h1.45c.83 0 1.39.035 1.68.108a1.86 1.86 0 0 1 1.018.63c.265.317.396.717.396 1.198 0 .484-.128.882-.386 1.198-.256.313-.61.524-1.061.634-.33.079-.946.118-1.849.118h-.52v3.38h-.728V82.92Zm.729.708v2.47l1.231.015c.498 0 .862-.046 1.093-.137.231-.091.413-.236.545-.439.132-.202.197-.43.197-.68 0-.242-.065-.467-.197-.669a1.096 1.096 0 0 0-.523-.432c-.216-.086-.568-.128-1.06-.128h-1.286Zm8.725-.89c1.1 0 2.021.367 2.761 1.1.74.735 1.112 1.639 1.112 2.712 0 1.064-.37 1.966-1.108 2.707-.74.74-1.641 1.111-2.706 1.111-1.076 0-1.985-.37-2.726-1.106a3.638 3.638 0 0 1-1.111-2.677c0-.698.169-1.345.506-1.942a3.683 3.683 0 0 1 1.381-1.4 3.708 3.708 0 0 1 1.891-.505Zm.032.708c-.536 0-1.045.14-1.528.42-.48.28-.857.656-1.128 1.13a3.156 3.156 0 0 0-.405 1.587c0 .862.299 1.59.897 2.184.599.596 1.32.893 2.164.893.565 0 1.087-.137 1.566-.41.48-.273.855-.648 1.123-1.122.268-.474.403-1 .403-1.58 0-.577-.135-1.098-.403-1.564a3.013 3.013 0 0 0-1.135-1.118 3.071 3.071 0 0 0-1.554-.42Zm11.028 6.74h-.76v-5.583l-4.794 5.583H74.2V82.92h.729v5.665l4.825-5.665h.164v7.266Zm-4.605-9.017h.648c.113.172.263.3.452.386.187.086.413.13.673.13.265 0 .48-.039.641-.115.162-.076.315-.209.46-.401h.628c-.073.297-.258.545-.555.744-.299.199-.692.298-1.18.298-.483 0-.878-.098-1.183-.293-.307-.196-.501-.446-.584-.75Zm6.362 9.017V82.92h3.644v.708h-2.915v2.328h.34c.902 0 1.558.079 1.966.24a2.028 2.028 0 0 1 .695 3.362c-.415.419-.994.628-1.734.628h-1.996Zm.729-3.502v2.794h.889c.528 0 .914-.053 1.159-.155a1.306 1.306 0 0 0 .806-1.206c0-.338-.103-.623-.309-.857a1.463 1.463 0 0 0-.772-.464c-.307-.075-.764-.112-1.37-.112h-.403Zm8.044-3.764 3.39 7.266h-.78l-1.136-2.388h-3.15l-1.127 2.388h-.81l3.43-7.266h.183Zm-.091 1.524-1.25 2.645h2.495l-1.245-2.645Zm4.59-1.524h.73v3.046h3.704V82.92h.728v7.266h-.728v-3.512h-3.704v3.512h-.73V82.92Zm6.925 0h.739v2.725l2.913-2.725h.978l-3.502 3.258 3.775 4.008h-.97l-3.194-3.394v3.394h-.739V82.92Z" fill="#012D6A"/><path fill-rule="evenodd" clip-rule="evenodd" d="m50.667 49.436.134 2.088 9.755-9.452L70.89 52.096l.003-2.234-10.337-10.134s-3.344 3.191-4.418 4.25l-3.695 3.713c-.652.607-1.023.989-1.776 1.745Z" fill="#B6985C"/></svg>