<svg width="120" height="120" fill="none" xmlns="http://www.w3.org/2000/svg"><path fill-rule="evenodd" clip-rule="evenodd" d="M90.167 18.505H41.97c-.446.648-.619 1.238-.626 2.429-1.161.159-1.281-.074-2.167.442l-.505.36c-.077-1.627-.033-2.223-.731-3.23-5.856 0-12.409 1.622-15.057 4.271-5.733 5.733-5.441 12.3-5.441 20.062V82.59c0 7.83.316 10.713 4.754 15.06 3.99 3.911 9.42 3.737 16.307 3.737 4.556 0 38.305.342 39.604-.199.91-.706.588-1.238.761-2.39 2.093-.017 2.444-.039 2.454-2.221.008-1.525-.019-3.064-.022-4.591L81.3 36.093c.001-2.157.384-4.33-1.192-5.837-.311-.297-.383-.285-.693-.528l-.768-.726c8.126-.138 13.475-.935 13.472 8.054v42.885c0 2.243.433 8.415-.69 9.908-.796 1.06-3.03 1.06-4.39 1.048-2.646-.024-2.925-.262-2.962 2.483-1.33.11-1.39.023-2.369.472-.334.92-.563 6.405.17 7.135.822.819 5.689.296 6.924.013 2.704-.62 5.803-2.355 7.428-4.186 3.069-3.46 6.423-5.365 6.386-13.018l-.004-46.499c0-7.433-.14-12.22-6.69-16.557-2.598-1.721-4.567-1.636-5.755-2.235Zm-40.91 30.209 5.763-5.758c3.748-3.704 8.333-7.073 12.785-9.917 2.419-1.545 5.28-3.186 7.984-4.007l-26.511-.038-.02 19.72Zm33.706 46.188-.036 5.038 4.444-.131c4.03.183 8.738-3.776 10.464-7.896 1.506-3.595.917-12.958.917-17.513 0-12.288-.003-24.575 0-36.862 0-5.115-.662-9.569-5.601-12.828-4.87-3.214-9.696-2.412-16.25-2.412-2.899 0-34.94-.212-36.883.086-.013 3.024-.268 63.38.123 65.084.629 2.735 4.804 2.808 5.254-.408 1.331-9.508-3.307-16.376 6.743-30.613C56.824 49.81 64.523 42.72 72 39.042l.076 55.652H40.92c-4.581 0-10.964.918-14.006-1.746-3.702-3.243-2.772-7.279-2.772-13.007 0-4.224-.37-44.603.309-46.801 1.712-7.696 10.262-3.97 10.273-5.437l.042-5.39c-16.32-.183-16.051 9.478-16.051 22.212V82.59c0 5.232-.327 10.507 4.673 14.361 5.056 3.899 8.514 3.17 15.841 3.17 2.926 0 36.357.209 38.273-.076.24-10.12.007-20.55.007-30.706 0-10.279-.02-20.56 0-30.838.005-2.31.282-5.015-2.1-5.46-5.315-.995-15.465 8.058-19.313 11.443-2.347 2.066-5.493 5.648-7.321 8.115l-3.273 4.718-.045-29.603c10.182.105 20.371.036 30.478.005 4.262-.012 10.768-.82 13.93 1.228 3.948 2.559 3.514 6.063 3.514 11.722l.002 45.535c.01 7.517-4.66 8.355-10.418 8.697ZM38.15 24.503h-2.032s.624 5.948-1.98 5.948c-1.71 0-5.763-.563-5.75 1.326.416 56.884.173 46.36.173 55.976 0 0 0 4.94 4.794 4.94h6.922c-1.609-.447-1.963-.545-2.254-2.103l.127-66.087Zm31.845 18.675v49.514H44.976c14.216-9.432-9.907-24.848 25.02-49.514Z" fill="#0572BB"/><path fill-rule="evenodd" clip-rule="evenodd" d="M41.971 18.505h-4.03c.699 1.008.655 1.604.731 3.232l.506-.36c.886-.517 1.006-.284 2.166-.443.008-1.191.18-1.78.627-2.429Z" fill="#FAFAFA"/></svg>