<svg width="120" height="120" fill="none" xmlns="http://www.w3.org/2000/svg"><path d="M120 0H0v120h120V0Z" fill="url(#a)"/><path fill-rule="evenodd" clip-rule="evenodd" d="M40.031 45.417h-.799l-.498-.972-10.02-19.53-1.327-2.584 27.842-.2 15.775 24.687c1.023-3.364 2.04-6.729 3.055-10.094.802-2.66 1.601-5.322 2.39-7.986.507-1.708 1.028-3.426 1.492-5.145l.357-1.322 22.926-.007-20.954 51.83H69.273l-.523-.853c-4.192-6.838-8.387-13.672-12.581-20.508l11.78 22.73 13.106.232 11.427 22.178-27.06-.097-.525-.815c-5.093-7.893-10.195-15.78-15.29-23.67L43.523 97.8l-24.337-.025.499-2.184c.234-1.028.71-2.228 1.074-3.223a331.435 331.435 0 0 1 2.19-5.787c2.082-5.38 4.222-10.74 6.382-16.09 2.214-5.482 4.45-10.96 6.749-16.407.8-1.897 1.606-3.795 2.446-5.675.363-.814.935-2.22 1.456-2.926l.05-.067Z" fill="#FEFEFE"/><path fill-rule="evenodd" clip-rule="evenodd" d="m21.429 95.99 20.695.02 6.743-27.164L66.4 95.991l23.143.082-9.589-18.608-13.102-.233-15.879-30.637-9.551-.05c-1.427 1.936-19.175 45.86-19.993 49.445Z" fill="#0662B1"/><path fill-rule="evenodd" clip-rule="evenodd" d="M40.325 43.629h12.359l17.59 28.677h8.79L98.57 24.053l-18.903.006c-1.138 4.213-8.083 26.99-8.083 26.99L54.254 23.927l-23.95.171 10.021 19.53Z" fill="#0662B1"/><defs><linearGradient id="a" x1="67.696" y1="119.504" x2="52.304" y2=".496" gradientUnits="userSpaceOnUse"><stop stop-color="#72A3D0"/><stop offset="1" stop-color="#FCFBFE"/></linearGradient></defs></svg>