<svg width="120" height="120" fill="none" xmlns="http://www.w3.org/2000/svg"><path fill-rule="evenodd" clip-rule="evenodd" d="M102.955 57.5c-.325-1.216-6.098-10.212-7.667-11.91-8.537-9.245-20.039-7.667-32.074-7.667h-19.87c.352 1.509 6.247 10.506 7.668 11.91 1.847 1.826 3.215 3.127 5.49 4.444 7.874 4.557 16.69 3.224 26.583 3.224h19.87Z" fill="#FF8400"/><path fill-rule="evenodd" clip-rule="evenodd" d="M17.045 37.923c0 7.932 4.605 13.66 8.89 20.623l5.663 9.24c.947 1.51 4.937 8.355 5.902 9 6.424-9.593 12.111-18.767 4.914-30.629-.97-1.6-1.796-2.885-2.774-4.53L28.276 23.185c-.59-.987-2.343-4.03-3.049-4.548-.797 1.506-1.531 2.748-2.46 4.26-.91 1.477-1.904 2.808-2.705 4.309-1.562 2.927-3.017 6.365-3.017 10.717Z" fill="#00A9EA"/><path fill-rule="evenodd" clip-rule="evenodd" d="M28.44 101.333c7.777 0 14.035.433 19.669-1.957 8.484-3.598 11.365-9.56 15.673-16.761 1.708-2.855 11.923-18.866 12.29-20.439-13.866 0-23.2-.459-31.211 12.037L36.64 87.615c-1.23 2.069-7.915 12.5-8.199 13.718Z" fill="#06B"/></svg>