<svg width="120" height="120" fill="none" xmlns="http://www.w3.org/2000/svg"><path fill-rule="evenodd" clip-rule="evenodd" d="M0 120h120V0H0v120Z" fill="#B61B58"/><path fill-rule="evenodd" clip-rule="evenodd" d="M52.352 112.392c1.206-.296 3.251-2.76 4.1-3.661l33.792-34.118c2.363-2.438 5.12-4.606 6.88-8.19 2.25-4.585 1.851-7.551 1.851-13.214 0-2.156.373-13.89-.173-14.798-.366.629-.609 1.645-1.044 2.524-1.451 2.934-2.521 4.072-4.853 6.376-12.487 12.592-24.92 25.238-37.47 37.766-3.933 3.926-3.032 1.635-3.043 12.109-.006 5.047-.133 10.169-.04 15.206Z" fill="#FDFDFD"/><path fill-rule="evenodd" clip-rule="evenodd" d="M52.246 61.81c.752-.287 14.488-14.43 16.517-16.44 4.666-4.618 12.036-6.496 18.51-4.142 3.377 1.228 3.347 1.793 5.494 2.927 2.607-1.475 4.602-7.176 4.617-10.993.02-4.93-1.367-9.162-3.672-12.161-4.821-6.272-14.62-7.803-22.198-2.63-2.482 1.695-14.467 14.058-17.73 17.415-.71.73-1.453 1.138-1.522 2.317-.145 2.5.007 5.434-.016 7.993-.043 4.703-.402 11.205 0 15.714ZM50.217 94.314c.118-1.947-.015-4.022.02-5.983.023-1.396.206-1.367.963-2.102.57-.554.884-.86 1.52-1.491.862-.857 1.972-1.989 3.014-3.03 4.13-4.125 3.864-2.435-1.77-8.24L39.463 58.873c-1.388-1.348-13.015-12.997-14.277-14.602-2.159-2.744-2.725-5.448-3.494-6.155-.19 6.78-.223 14.362-.051 21.138.168 6.641 3.963 10.523 7.366 13.953 1.275 1.285 20.344 20.875 21.211 21.107ZM27.88 43.817c1.017-.478 8.934-8.763 10.233-10.125.616-.647.968-.725.995-2.021.157-7.574.208-15.805.024-23.369-.904.321-6.048 5.738-7.085 6.817-2.699 2.806-4.47 4.114-6.266 7.529-2.31 4.391-3.424 11.892-.844 17.116.724 1.466 1.736 3.48 2.943 4.053Z" fill="#FDFDFD"/></svg>