<svg width="41" height="40" viewBox="0 0 41 40" fill="none" xmlns="http://www.w3.org/2000/svg">
<path fill-rule="evenodd" clip-rule="evenodd" d="M20.5 40C31.5457 40 40.5 31.0457 40.5 20C40.5 8.95433 31.5457 0 20.5 0C9.45433 0 0.5 8.95433 0.5 20C0.5 31.0457 9.45433 40 20.5 40Z" fill="#0468FF"/>
<path fill-rule="evenodd" clip-rule="evenodd" d="M12.0785 17.1282C11.7115 17.1282 11.4142 16.8283 11.4142 16.4582C11.4142 16.0882 11.7115 15.7881 12.0785 15.7881C12.445 15.7881 12.7425 16.0882 12.7425 16.4582C12.7425 16.8283 12.445 17.1282 12.0782 17.1282H12.0785ZM12.0785 15.0002C11.2783 15.0002 10.6297 15.6543 10.6297 16.4616C10.6292 16.7799 10.7324 17.0897 10.9239 17.344L11.0202 17.4785L12.0782 18.766L13.2328 17.3438C13.4242 17.0894 13.5274 16.7796 13.5267 16.4613C13.5267 15.6543 12.8782 15 12.0782 15L12.0785 15.0002ZM12.6312 21.7897V19.3374H11.5582V20.4892L10.486 19.1894L7.5 22.8085L8.49327 23.6426L10.486 21.2277L12.4787 23.6426L13.4717 22.8085L12.6312 21.7897Z" fill="white"/>
<path fill-rule="evenodd" clip-rule="evenodd" d="M19.2119 19.3341H18.2603V22.6766H16.3794V19.3343H15.4281V23.5647H18.9319V24.4135H19.794V22.677H19.2119V19.3338V19.3341ZM21.411 22.1822V19.3341H20.4597V23.5645H21.411L23.4037 20.7164V23.5645H24.3552V19.3341H23.4039L21.4112 22.1822H21.411ZM32.5542 19.3341V20.9963H30.6118V19.3341H29.6603V23.5645H30.6118V21.8902H32.5542V23.5645H33.5V19.3341H32.5542ZM27.7923 21.7782C27.7923 22.1103 27.6991 22.3701 27.5155 22.5506C27.3295 22.7333 27.0596 22.8258 26.7132 22.8258C26.2798 22.8258 26.0411 22.6289 26.0411 22.2709C26.0411 21.8978 26.3533 21.675 26.8759 21.675H27.7921V21.7782H27.7923ZM26.9981 19.2534C26.5009 19.2534 26.0727 19.3877 25.7595 19.6415C25.4666 19.8787 25.2932 20.2106 25.2697 20.5762H26.2077C26.2504 20.3797 26.4584 20.0737 26.9981 20.0737C27.4953 20.0737 27.7921 20.3731 27.7921 20.8748V20.8957H26.8351C26.2686 20.8957 25.831 21.025 25.5342 21.28C25.25 21.5244 25.106 21.8714 25.106 22.312C25.106 22.6918 25.254 23.0326 25.5235 23.2715C25.7992 23.5166 26.1825 23.6461 26.6318 23.6461C27.3354 23.6461 27.7183 23.2998 27.85 23.1513L27.9152 23.5137L27.9242 23.564H28.7275V20.8748C28.7275 19.8747 28.0647 19.2534 26.9981 19.2534Z" fill="white"/>
</svg>
