<svg width="120" height="120" viewBox="0 0 120 120" fill="none" xmlns="http://www.w3.org/2000/svg">
<rect width="120" height="120" fill="#BAA76A"/>
<path fill-rule="evenodd" clip-rule="evenodd" d="M52.7264 28.1782C52.4009 27.2585 52.556 25.7751 51.3476 25.7082C50.0084 25.6341 50.3121 27.2815 50.4533 28.1684C49.1136 27.3533 48.3198 26.3172 46.1306 27.1335C44.0205 27.9202 44.2199 29.5197 44.0211 30.323C43.7052 31.5991 44.3578 29.4128 43.9188 30.6444L43.7724 30.951C43.3622 30.3067 42.9604 29.5443 42.1381 29.2374C39.9363 29.3846 40.9587 30.645 41.4836 31.6676C39.8502 31.2756 39.0081 30.4667 37.2939 31.8002C35.626 33.0976 36.0328 33.9069 36.086 35.8754C35.3451 35.2612 34.712 34.34 33.6206 35.0661C32.7025 36.4543 34.3694 37.0665 34.8825 37.9425C32.874 37.5941 31.7295 37.6371 30.5504 38.9193C29.128 40.4664 30.025 41.7347 30.4377 43.3016C29.0261 42.6941 28.89 42.0603 27.7713 43.4228C27.9394 45.0342 29.4791 44.9153 30.1155 45.9812C28.8768 46.0456 27.1327 45.9044 26.3205 47.9105C25.2943 50.4449 26.9805 51.3027 27.4049 52.2508C26.1728 51.8862 25.258 51.76 25.2594 53.3656C25.6478 54.0653 27.7675 54.8419 28.4606 55.1866C28.3306 55.2498 25.953 55.6543 25.2183 57.5589C24.5483 59.2959 25.5273 60.9382 26.7075 61.6608C26.6752 61.6989 26.6125 61.6968 26.5954 61.7602C26.4924 62.1425 25.4376 62.276 25.4645 63.077C25.8052 63.893 26.0657 64.0597 26.9212 64.2403C27.6055 64.3849 28.7603 64.5731 29.4801 64.6069C29.4801 64.6069 29.4801 64.6069 28.6163 65.3527C28.3668 65.5439 28.0864 65.7912 27.885 66.0469C25.3812 69.225 29.3297 71.2432 29.6572 71.5746L29.1663 72.7549C30.0433 73.3256 30.8655 73.4066 33.1914 73.505C32.7821 74.573 31.1254 75.2653 31.8532 77.4308C32.4068 79.0779 33.3511 79.8447 35.459 79.9707C35.4246 80.7989 34.9481 82.0797 36.5344 81.9076C36.6215 81.8981 38.7171 81.0949 38.9441 80.9908C37.8573 85.0784 40.4417 86.8087 43.2601 86.0488C43.1487 86.6767 42.895 87.2008 43.5195 87.6368C44.5891 88.3835 46.0128 86.7513 47.7783 85.6486C47.8354 87.9741 47.2514 88.9429 49.3351 90.1976C51.5423 91.5268 52.8089 90.0107 54.0123 89.2004C53.8093 90.1503 53.6388 92.3 55.3389 91.4964C56.1865 91.0957 56.1351 89.4537 56.7301 88.6032C56.8938 88.9216 57.3414 92.3059 60.4232 92.2359C63.387 92.1687 63.8689 89.0082 64.1012 88.5431C65.2988 88.2122 66.0506 88.0267 67.5216 88.0267C66.9907 86.2729 60.4086 80.4607 58.3131 69.7612C57.5804 66.0201 57.046 61.2722 57.8739 57.3717C58.6607 53.6641 58.8883 49.0698 62.7554 48.3745C62.5155 45.5943 60.6664 43.6409 61.4979 40.0987C61.9186 38.3069 62.6901 38.391 62.4596 36.164C62.2775 34.4056 62.1886 33.2578 62.1886 31.3721C62.9626 31.8755 63.2926 32.3915 64.0925 32.7525C67.49 34.285 65.8623 31.2482 67.5674 35.8489C67.9535 36.8905 68.3392 37.2676 68.7805 38.0471C70.0153 40.2292 70.1627 40.6665 70.2274 43.6816C71.1105 43.202 71.0285 42.8803 71.5401 41.6133C72.4956 39.2467 73.8242 37.2436 75.7041 35.6272C76.3493 35.0725 77.0403 34.8484 77.167 33.752C77.5254 30.6535 75.2353 28.7077 71.4352 30.3454C71.6528 29.1383 72.036 29.2699 71.4557 28.1482C70.1058 27.8195 70.0847 28.215 69.3351 29.1578C69.1581 29.3803 69.1759 29.377 69.0062 29.5393C68.7863 28.0283 67.9361 26.7047 66.5389 26.2778C64.1894 25.56 63.4736 27.0229 62.4091 27.5565C62.3818 26.4018 62.4494 26.307 62.0208 25.5014C59.9342 25.0824 60.4439 25.907 60.0184 27.2555C59.5671 27.0555 60.0188 27.3626 59.6663 26.9925C59.1558 26.4568 58.156 24.7853 56.1456 25.023C53.3347 25.3553 53.6444 27.4805 52.7264 28.1782ZM71.7331 86.2184C74.964 86.2184 74.1343 90.6931 77.1442 92.3607C79.2012 93.5004 84.2839 93.4881 84.5014 89.1764C83.5895 88.2257 82.2836 87.6968 80.5292 85.7798C74.9975 79.7356 80.7543 74.2962 86.7768 75.2355C90.5192 75.8192 94.7049 75.3335 97.163 72.3311C97.3467 72.1069 97.4019 72.0238 97.6201 71.7645C98.6533 70.5369 99.6495 68.7044 100.131 66.9382C100.562 65.3563 100.127 65.6341 101.524 64.6867C104.801 62.465 101.781 59.5025 100.506 58.8335C99.9166 59.0659 100.019 59.1841 99.4747 59.634C99.0639 59.9737 98.7453 60.1152 98.0425 60.163C96.8509 60.2441 95.6673 60.1459 94.5417 59.8926C93.4791 59.6535 89.2865 58.6518 88.8565 57.6184C91.0858 57.7305 91.5922 59.5359 98.2452 59.5359C99.3577 59.5359 100.524 58.3972 99.4783 57.2229C98.6903 56.827 98.351 58.2698 96.3895 58.3471C92.5824 58.4972 88.0058 55.0964 86.1195 55.0964C84.9519 55.0964 84.2595 55.6589 83.272 55.9918C82.0084 56.4178 79.3878 56.8769 78.1111 56.1981C78.3935 55.5863 82.742 52.2242 83.7648 51.4516C84.4144 50.9608 85.0722 50.1382 86.1217 50.5332L85.5448 51.2341C85.5163 51.2605 85.4523 51.3016 85.4127 51.3424C85.8789 52.8315 85.7924 52.9636 85.7428 54.4782C86.5176 54.5554 86.4809 54.6676 87.158 54.3773C86.8608 53.6869 85.9638 53.2403 86.3251 52.3927C86.7967 52.5738 87.7834 53.9896 87.8398 54.1007C88.1205 54.6538 87.8337 54.3349 88.0926 55.0624C89.6007 55.6063 96.0255 59.5328 98.1951 57.0074C97.731 56.2459 96.5301 55.435 95.9252 54.6446C93.9775 52.1001 91.3776 51.3608 88.5701 47.3214C87.2139 45.3703 85.3321 43.6151 83.8506 42.2382L78.5152 37.7229C76.4802 38.157 74.9954 40.9125 74.1443 42.9626C71.6104 49.0669 64.8392 49.6367 63.0382 51.4736C61.6953 52.8433 61.1182 56.9722 60.8284 59.0778C59.8089 66.4861 62.546 75.5856 66.9119 81.5856L70.0758 85.7595C70.7216 86.5249 70.6413 86.2184 71.7331 86.2184ZM69.6779 88.5361C70.8989 86.3442 69.1626 85.9663 66.5593 82.1416C61.9137 75.3166 58.6746 65.7133 60.4784 57.3055C62.1943 49.3074 62.4831 51.0587 67.5348 48.6095C75.0942 44.9446 73.2119 39.789 77.5563 37.4328C78.2235 37.071 78.8613 36.953 78.8914 36.1513C78.9209 35.367 78.2882 34.9894 77.4215 35.2419C73.9802 36.2443 71.8349 42.9651 70.7468 44.2832C67.6053 48.0891 62.7404 48.042 60.8074 50.0979C59.22 51.7863 58.5864 55.5981 58.319 58.2337C57.2455 68.8151 60.4764 78.2019 66.9153 86.0321C67.3036 86.5043 67.7364 87.0374 68.0977 87.4998C68.5793 88.1163 68.6932 88.6306 69.6779 88.5361ZM29.1856 62.0655C29.3795 62.372 29.1259 62.2452 29.5815 62.4612C29.9375 62.6298 29.8019 62.5356 30.2225 62.5927L34.7371 63.077C39.2213 63.5931 43.2085 63.3468 47.6828 62.9755C49.4586 62.8281 52.146 62.8383 52.4913 61.1548C53.0171 58.5916 49.3817 59.131 48.0982 59.1312C43.4134 59.1322 40.5815 58.777 36.2034 57.7433C34.2746 57.2879 32.8104 56.6508 31.0082 56.1925C31.586 57.3411 32.4937 58.0892 31.8159 59.8069C31.3005 61.1135 30.7576 61.5082 29.1856 62.0655ZM28.6618 52.7587C30.4234 53.8307 35.1752 55.2058 37.3926 55.7675C41.5774 56.8277 45.0709 57.033 49.7424 57.033C51.0869 57.033 52.01 56.724 51.9343 55.4087C51.8616 54.1464 50.8558 54.0091 49.6409 53.8152C47.544 53.4804 45.3039 52.9429 43.3504 52.3354C39.486 51.1338 32.8455 47.5325 32.5194 47.4792C33.344 49.5282 33.0739 51.6657 30.8486 52.537C29.7635 52.9618 29.0327 52.6303 28.6618 52.7587ZM32.3205 44.4618C33.4678 45.8572 39.519 48.572 41.4733 49.3403C43.0192 49.9481 51.4428 52.861 52.5521 51.2652C53.8336 49.4217 50.5203 48.5062 49.2827 47.9309C47.517 47.1101 46.1215 46.4909 44.5846 45.4903C43.0729 44.5061 41.6656 43.6299 40.3482 42.5809C39.0844 41.5747 37.5788 40.1584 36.3772 39.3845C36.7613 40.8922 37.1015 41.7512 36.0166 43.0953C35.2818 44.0058 34.1156 44.7225 32.3205 44.4618ZM32.5999 65.0307C32.9161 65.8745 34.0509 65.9988 34.0977 67.9366C34.1485 70.0434 33.1553 70.1843 32.3658 71.2425C36.0287 71.3258 51.449 69.2695 52.6132 67.1153C53.2733 65.894 52.7832 64.379 49.7447 64.8965C46.0268 65.5297 35.4057 65.8046 32.5999 65.0307ZM38.1089 37.8453C39.2741 39.3571 51.1158 48.1442 53.3415 46.3789C55.0172 45.0499 52.8752 43.6414 52.0745 42.9771C49.3913 40.751 48.1073 39.5828 45.786 37.0259C44.9279 36.0807 43.8007 34.38 42.9543 33.7378C42.6171 37.9757 41.0465 37.7108 38.1089 37.8453ZM36.8894 73.1048C37.0502 73.6872 38.1341 74.1932 38.5839 75.4609C39.259 77.3638 38.2771 77.6338 38.0547 78.8289C40.5038 78.1874 43.6155 77.0124 46.1009 76.1164C47.3703 75.6587 48.7267 75.2343 50.0922 74.7854C51.4663 74.3336 53.1458 74.2275 53.5146 72.6762C53.9159 70.9882 52.4089 70.1493 50.8399 70.4613C49.4256 70.7424 47.9511 71.313 46.4411 71.6173C43.3264 72.2452 40.3213 72.9322 36.8894 73.1048ZM63.4567 47.9389C65.0131 47.5664 65.9833 47.0286 67.2749 46.3538C68.6881 45.6156 69.4479 45.2189 69.7192 43.2596C69.9279 41.7515 69.1375 39.8113 68.5767 38.8536C68.2743 38.3372 67.847 37.7634 67.5648 37.2154C67.1674 36.4437 67.0916 36.0737 66.5951 35.4299C65.1587 37.5169 64.0499 41.3954 64.9602 44.2073C65.6798 46.4302 65.3815 45.5785 65.08 45.9036C64.2149 44.3312 63.7628 42.5831 64.1627 40.3052C64.3464 39.2582 64.6171 38.4489 64.9417 37.5673C65.2209 36.8091 65.8009 35.876 65.8752 35.2259C64.5535 35.4253 62.4777 38.2427 62.0627 40.2564C61.4928 43.0217 62.6385 45.8663 63.4567 47.9389ZM43.4647 79.465C45.7998 81.8733 45.451 80.3908 45.3961 84.3439C46.259 84.0288 47.3939 83.1708 48.2268 82.6288L54.107 79.5373C55.2405 79.0525 56.5262 78.5967 56.4606 77.2633C56.3803 75.6259 54.9535 75.5627 53.5863 76.0076C52.3911 76.3967 51.3863 76.7538 50.2089 77.1284C49.0289 77.5039 44.2251 79.0042 43.4647 79.465ZM45.6353 33.3208C46.3117 34.6848 53.3751 42.153 55.0229 41.9285C56.2068 41.7672 56.733 40.47 56.1442 39.3663L52.6593 33.8924C52.0573 32.8646 51.7617 31.5954 51.181 30.7184L50.9822 30.9445C49.8074 32.7381 50.2497 34.2434 45.6353 33.3208ZM97.7743 67.7304L97.4592 68.6126C94.8981 68.0915 93.3439 67.9926 91.014 66.3604C90.3831 65.9183 89.9681 65.3919 89.1257 65.059C89.3263 66.2661 91.3614 67.4261 92.5005 67.9222C93.2351 68.2422 94.1887 68.5835 94.774 68.7569C95.661 69.0196 96.6236 68.9058 97.0119 69.5514C96.3901 70.6573 95.5646 70.278 94.3998 69.944C92.2019 69.3137 91.3826 69.0466 89.4808 67.8716C88.7444 67.4166 88.1384 66.6131 87.3194 66.4888C87.5245 67.4083 88.1153 67.7275 88.9158 68.2235C89.7036 68.7116 90.1588 69.0165 91.0233 69.4028C93.5189 70.5177 95.2198 70.5822 95.9229 70.9676C94.5535 73.9813 87.9618 68.5912 87.0183 68.9444C87.5807 70.6098 92.5996 71.8903 93.9476 72.3839C92.2969 75.5789 80.9904 69.9442 77.1962 77.5479C75.963 80.0194 75.9035 84.2148 78.1042 85.4656C78.4384 84.77 77.0544 83.4196 76.9552 81.8843C76.6536 77.2158 79.7277 73.9405 85.503 74.0378C90.8745 74.1283 95.2631 74.9782 98.0809 68.7726C98.4371 67.988 99.2038 66.2834 98.6562 65.445C98.2723 65.8545 98.5177 68.2582 93.8471 65.7841C91.9578 64.7834 91.9632 64.2784 91.0753 64.2728C91.9516 66.6843 96.9713 67.2032 97.7743 67.7304ZM69.8132 84.1718C70.8613 83.846 70.1589 83.4974 71.4534 80.5859C71.9119 79.5546 72.6979 77.9083 73.6621 77.4065C73.6381 77.9862 72.2891 82.6184 73.5827 83.8905C74.1663 83.2068 73.6733 82.7411 73.6733 80.8813C73.6733 79.7847 74.1638 78.0017 74.5293 77.1331C75.6693 74.4233 76.468 74.6502 78.9413 72.1963C79.4011 71.7401 79.6616 71.3884 80.1362 70.9461C80.6159 70.499 80.8971 70.2455 81.3438 69.7074C82.3614 68.4816 84.9266 65.956 86.1862 64.9634C89.1516 62.6267 89.8812 61.7604 93.9293 61.7604C96.3398 61.7604 98.9388 64.265 100.663 63.4197C101.591 62.9649 102.679 61.1247 100.425 61.7298C99.6656 61.9338 99.3767 61.8142 99.1199 62.2677C99.6178 62.6793 100.142 62.5671 100.801 62.3969C99.6552 65.5962 94.5658 56.2891 85.2019 65.0086L82.3375 67.8499C81.8333 68.382 81.3985 68.7229 80.8915 69.261L76.5736 73.5135C75.3889 74.5735 74.635 75.1564 73.6288 76.2746C71.8128 78.292 70.1953 80.6498 69.8132 84.1718ZM53.8447 31.0912C54.3768 32.5403 57.1317 37.6125 58.0453 38.1123C60.0309 39.1984 60.2892 36.8138 60.0973 35.2111C59.8878 33.463 59.9269 31.6671 59.9269 29.7398C59.2982 30.1077 59.2268 31.3108 57.6299 31.7605C55.5689 32.3407 55.0492 31.366 53.8447 31.0912ZM63.9361 61.6608L64.7799 62.4376C68.4156 64.4035 70.8636 64.6665 75.1608 64.5929C73.6915 66.7866 69.4948 66.8216 67.1987 66.8216C66.1404 66.8216 63.293 65.9506 62.6143 66.3142C62.9368 67.132 70.2253 68.5584 74.5797 65.8697C78.628 63.3699 75.3099 65.1187 79.2629 63.774C82.5009 62.6724 82.8943 62.135 86.6374 61.1315C87.44 60.9164 89.1271 60.7855 89.5094 60.6493C88.9281 58.7919 80.0129 63.0165 77.1657 63.7114C69.5513 65.5695 65.0758 61.1789 63.9361 61.6608ZM51.3018 83.4823C53.3498 85.2963 52.9417 82.9127 54.6512 87.1775C55.1582 86.7148 56.0474 84.4985 58.0375 82.3752C58.3616 82.0294 59.2395 81.3913 58.7681 80.6972C57.9385 79.4756 53.1448 82.7064 51.3018 83.4823ZM41.6743 34.5499C41.6705 31.255 36.7302 31.7621 37.0229 34.7105C37.3102 37.6062 41.6774 37.4201 41.6743 34.5499ZM35.1505 78.7315C36.4908 78.7315 37.5638 77.8975 37.5638 76.6325C37.5638 74.4285 35.1598 73.5401 33.7081 74.8067C32.1458 76.1695 32.8597 78.7315 35.1505 78.7315ZM50.77 89.442H51.1819C53.8636 89.442 54.2108 85.11 51.1751 84.9889C47.8088 84.8548 48.077 89.442 50.77 89.442ZM55.6205 26.3579C52.8754 27.7547 54.4158 31.6235 57.4487 30.5892C58.3549 30.2801 59.1978 28.9067 58.6357 27.5959C58.291 26.792 56.9117 25.7009 55.6205 26.3579ZM46.7686 28.1802C45.945 28.4565 45.8266 28.4013 45.4673 29.144C44.5358 31.0684 46.243 33.2184 48.3802 32.3795C51.0691 31.324 49.6899 27.2001 46.7686 28.1802ZM29.6023 66.1119C27.0161 67.5353 28.6996 71.3733 31.6215 70.161C34.3294 69.0374 32.4047 64.5696 29.6023 66.1119ZM39.8256 82.7023V82.9045C39.8256 85.8484 44.4382 85.7698 44.3456 82.712C44.2573 79.7945 39.8256 79.7366 39.8256 82.7023ZM58.0782 88.7719C58.0838 91.7253 62.7324 91.8994 62.6188 88.5748C62.5195 85.6686 58.0725 85.7994 58.0782 88.7719ZM26.2876 58.626C26.2876 60.1641 27.1711 61.0258 28.5607 61.043C31.3909 61.0783 31.72 56.5258 28.5779 56.4907C27.1834 56.4752 26.2876 57.376 26.2876 58.626ZM31.0023 41.0241C31.0023 42.3383 31.9595 43.3752 33.0953 43.3752C35.1705 43.3752 36.393 40.9791 35.0207 39.5314C33.664 38.0999 31.0023 38.8423 31.0023 41.0241ZM72.7612 31.049C70.1253 32.3682 71.8715 36.2358 74.7599 35.0912C77.4794 34.0137 75.6941 29.5812 72.7612 31.049ZM29.1103 47.1872C27.7599 47.4958 27.0297 48.0817 27.3365 49.9051C27.5342 51.0802 28.8118 51.8773 30.0759 51.5742C32.9256 50.8907 32.0965 46.5045 29.1103 47.1872ZM63.2161 29.4918C63.2161 32.7251 67.726 32.6542 67.726 29.4918C67.726 26.6427 63.2161 26.6539 63.2161 29.4918ZM79.2699 55.86C80.6488 56.0053 82.6911 55.5979 83.8767 55.1787C84.7143 54.8823 85.0084 54.6833 85.2243 53.665C85.39 52.8836 85.1437 52.0828 84.6809 51.556C84.2939 51.7628 79.4186 55.5331 79.2699 55.86ZM88.9242 76.2006C88.8811 77.1614 89.4694 77.0245 89.1317 78.345C88.9435 79.0807 88.5393 79.7827 88.3169 80.7163C90.0282 80.0566 92.2688 77.5612 92.9937 75.7079L88.9242 76.2006ZM28.8901 47.8097C26.6451 48.6521 28.0618 51.5166 30.0708 50.9914C32.1384 50.4509 31.3245 46.8962 28.8901 47.8097ZM73.9938 34.6889C76.414 34.6889 75.6777 30.8405 73.4553 31.3477C71.5071 31.7924 71.4497 34.6889 73.9938 34.6889ZM42.9954 84.3477C46.1163 80.5389 39.1581 80.1009 40.4123 83.3541C40.8377 84.4574 41.6205 84.459 42.9954 84.3477ZM47.2761 28.6304C46.3749 28.6304 45.588 29.5974 45.8212 30.6561C45.993 31.4353 46.8261 32.1307 47.7821 31.9691C49.8876 31.6132 49.7595 28.6304 47.2761 28.6304ZM29.8986 66.5986C27.8485 67.6028 29.3089 70.5687 31.4388 69.5757C33.4297 68.6476 31.9731 65.5826 29.8986 66.5986ZM59.9318 87.1989C59.0756 87.5881 58.3202 87.8483 58.7727 89.346C59.0579 90.2899 60.2002 90.6653 61.0958 90.271C62.9948 89.4352 61.8941 86.3074 59.9318 87.1989ZM55.8237 26.9648C53.7769 27.7977 54.8618 30.8219 57.2395 29.9981C59.2279 29.3091 57.9742 26.0895 55.8237 26.9648ZM37.7694 34.1451V34.5499C37.7694 36.9008 40.8684 36.6817 41.072 34.7195C41.3219 32.3101 37.7694 32.4106 37.7694 34.1451ZM35.1505 78.1256C37.6555 78.1256 37.3899 74.9176 35.3496 74.8593C32.9735 74.7914 32.9228 78.1256 35.1505 78.1256ZM65.3619 31.2496H65.5674C67.7109 31.2496 67.6435 28.1242 65.5657 28.0054C63.0999 27.8645 63.2252 31.2496 65.3619 31.2496ZM50.4118 85.7594C48.0726 86.6543 49.7269 89.7165 51.8781 88.6746C53.3858 87.9444 52.7575 84.8621 50.4118 85.7594ZM31.6178 41.0241C31.6178 43.3377 34.8617 43.2442 34.9552 41.2229C35.0039 40.1735 34.3159 39.5284 33.4578 39.4161C32.5369 39.2956 31.6178 40.1145 31.6178 41.0241ZM26.9032 58.626C26.9032 60.3819 27.8551 60.3904 29.4784 60.3173C29.8131 59.7361 30.1802 59.4825 30.1802 58.626C30.1802 56.5687 26.9032 56.5697 26.9032 58.626ZM77.2753 55.3727C77.8927 55.237 82.229 51.6852 83.239 50.7184C83.681 50.2952 83.7303 50.2833 83.8318 49.7521C82.9121 49.835 82.5526 50.4594 82.0069 50.9306L78.69 53.737C78.0642 54.1788 77.3076 54.4711 77.2753 55.3727ZM82.3025 86.4251L83.1038 87.3056C83.398 87.5475 83.5371 87.6344 83.7936 87.9837C84.6177 87.4556 85.3182 86.1298 85.3276 85.0865C84.0207 85.5496 83.9028 86.187 82.3025 86.4251Z" fill="white"/>
</svg>
