<svg width="120" height="120" viewBox="0 0 120 120" fill="none" xmlns="http://www.w3.org/2000/svg">
<rect width="120" height="120" fill="#005EA1"/>
<path fill-rule="evenodd" clip-rule="evenodd" d="M51.193 75.4609C52.2228 75.5695 59.1707 75.4846 60.808 75.4846C64.0583 75.4846 66.4179 75.4026 68.9453 73.9667C73.639 71.2998 75.2447 63.3086 70.5922 61.8302C70.8128 61.616 71.5037 61.2906 71.854 61.019C73.1034 60.0502 74.0316 59.0239 74.5671 57.356C75.4758 54.5257 74.6992 52.4342 72.7105 51.3827C70.7165 50.3283 67.6478 50.5047 65.1691 50.5047C62.3703 50.5047 59.5715 50.5047 56.7728 50.5047L51.193 75.4609ZM58.4412 70.2624C60.1398 70.2648 62.3098 70.3832 63.9385 70.2275C65.5714 70.0713 66.6433 69.2678 67.0917 67.8471C67.6795 65.9847 67.0655 64.7996 65.2536 64.5762C64.4505 64.4772 60.4816 64.4545 59.7383 64.5756L58.4412 70.2624ZM60.6751 60.3041C61.6596 60.4498 64.3166 60.3692 65.4198 60.3313C66.8687 60.2815 67.8837 59.4253 68.27 58.3105C68.8461 56.6478 68.1856 55.645 66.5645 55.5467C65.2924 55.4697 63.0148 55.4568 61.7562 55.5525L60.6751 60.3041Z" fill="white"/>
<path fill-rule="evenodd" clip-rule="evenodd" d="M21 59.8128L23.2038 57.6732C24.5557 56.2945 29.374 52.8012 30.7715 51.9307C34.3613 49.6945 38.0596 47.6476 42.3189 45.8031C50.1749 42.4008 61.1951 39.0551 70.8469 39.0551C76.3289 39.0551 82.0111 39.6885 85.9212 42.6001C88.7676 44.7198 90.143 47.8355 89.2618 51.6632C88.8601 53.4078 88.429 53.8673 88.0864 54.9493C88.3202 54.8364 88.1294 54.9611 88.3194 54.792C88.3629 54.7533 88.4367 54.6627 88.4781 54.6119L90.6706 51.9263C93.1978 48.3754 95.3653 43.5915 92.9472 39.3255C90.1685 34.4231 82.3647 33 76.936 33C69.7387 33 64.4221 33.8852 57.6942 35.8073C48.477 38.4405 38.155 43.14 30.5781 49.1556C30.091 49.5423 29.6539 49.8734 29.2075 50.267L27.8392 51.4592C26.0983 52.9398 24.3775 54.8286 22.9672 56.6833C22.5037 57.2928 21.2404 59.0532 21 59.8128Z" fill="#EF2D3D"/>
<path fill-rule="evenodd" clip-rule="evenodd" d="M36.8927 67.0702L31.5966 67.0686C31.486 67.0673 31.2837 67.0586 31.1825 67.0671C31.0064 67.082 31.2006 67.0539 31.027 67.0867C30.829 67.1243 30.9222 67.0998 30.8157 67.1534C30.492 68.0993 30.4982 70.0535 30.7344 71.1033C31.5871 74.8923 35.528 76.0782 39.3319 75.9961C44.9464 75.8748 48.9648 73.4419 50.5209 69.2308C51.4338 66.7603 51.6375 64.2992 49.6714 62.4399C48.1173 60.9702 45.7901 60.4328 43.3761 59.7355C42.3026 59.4254 40.9544 59.0957 40.2394 58.4186C38.6816 56.9434 41.2564 54.2122 44.7247 55.2163C46.0399 55.5971 46.6272 56.4484 46.3229 58.0337H52.2609C52.4595 57.9848 52.4272 58.1132 52.5346 57.2109C53.2212 51.4418 48.2076 49.477 43.1087 50.0964C34.3348 51.1622 31.8916 58.8187 34.3225 62.0701C37.3291 66.0917 46.7754 64.9433 44.4392 69.1535C43.2787 71.245 39.336 71.3318 37.9057 70.4251C36.74 69.6862 36.766 68.7403 36.8927 67.0702Z" fill="white"/>
<path fill-rule="evenodd" clip-rule="evenodd" d="M73.3264 75.4605L79.4182 75.4854L85.0083 50.5059L78.9057 50.5047L73.3264 75.4605Z" fill="white"/>
</svg>
