<svg width="120" height="120" viewBox="0 0 120 120" fill="none" xmlns="http://www.w3.org/2000/svg">
<rect width="120" height="120" fill="#559C31"/>
<path d="M42.1576 39.6082L42.169 39.5994C46.3165 36.4006 52.0236 34.2762 57.784 33.8747C63.3141 33.4892 67.8069 34.5656 72.2295 36.4389C74.1411 37.2485 76.226 38.5639 77.6326 39.6497M42.1576 39.6082L77.0216 40.4413M42.1576 39.6082L42.1465 39.6173L40.467 40.9914L40.4379 41.0151L40.4186 41.0335C40.3847 41.0342 40.3448 41.0346 40.2963 41.0347L42.1576 39.6082ZM77.6326 39.6497L77.0216 40.4413M77.6326 39.6497C77.6326 39.6496 77.6325 39.6496 77.6325 39.6496L77.0216 40.4413M77.6326 39.6497C78.1059 40.0149 78.3661 40.221 78.8099 40.5913L78.81 40.5914C79.0008 40.7506 79.1409 40.8781 79.24 40.9683C79.2528 40.9799 79.265 40.991 79.2764 41.0014C79.2894 41.0132 79.301 41.0236 79.3112 41.0327M77.0216 40.4413C77.4877 40.8009 77.7375 40.9989 78.1693 41.3591C78.3428 41.504 78.4681 41.618 78.5667 41.7076C78.9146 42.0241 78.9294 42.0376 79.5552 42.0329C80.9286 42.0227 82.3197 42.0137 83.6924 42.0313C92.9246 42.1491 100.066 49.2441 100.684 58.1157C101.072 63.6831 99.9583 67.5452 97.3747 71.1742M79.3112 41.0327C79.2638 41.0318 79.2371 41.0303 79.2194 41.0284C79.2114 41.0275 79.2308 41.029 79.2647 41.0394C79.3021 41.0509 79.3367 41.0669 79.3639 41.0829C79.3739 41.0888 79.3807 41.0938 79.3809 41.0936C79.3811 41.0933 79.3632 41.0791 79.3112 41.0327ZM79.3112 41.0327C79.3618 41.0336 79.4359 41.0338 79.5477 41.033L79.5477 41.033C80.9203 41.0228 82.321 41.0137 83.7052 41.0313C93.4726 41.156 101.028 48.6704 101.681 58.0462C102.083 63.8173 100.922 67.9151 98.1893 71.7542L97.3747 71.1742M97.3747 71.1742C95.092 74.3804 91.4037 76.8521 87.4183 77.7593C85.2943 78.2428 82.8966 78.2015 81.1363 78.1713C79.8507 78.1492 78.9051 78.1329 78.6546 78.3311C78.2262 78.6701 77.8955 78.9417 77.6067 79.1791C76.7167 79.9102 76.2234 80.3155 74.4918 81.3573L75.0073 82.2142C76.8037 81.1334 77.3469 80.6871 78.2537 79.942C78.5155 79.7269 78.8077 79.4869 79.169 79.1994M97.3747 71.1742L98.1893 71.7542C95.7627 75.1626 91.8623 77.7733 87.6402 78.7344C85.6768 79.1813 83.5299 79.2031 81.8686 79.1827C81.5945 79.1794 81.3371 79.1749 81.096 79.1708C80.5834 79.1619 80.1446 79.1544 79.7758 79.1611C79.5072 79.166 79.3169 79.1783 79.1912 79.1961C79.1833 79.1973 79.1759 79.1984 79.169 79.1994M79.169 79.1994C79.2033 79.1722 79.2382 79.1445 79.2738 79.1163C79.1977 79.1763 79.133 79.2027 79.1081 79.2112M79.169 79.1994C79.1388 79.2042 79.1191 79.2084 79.1081 79.2112M79.1081 79.2112C79.1006 79.213 79.0972 79.2141 79.0972 79.2143C79.0973 79.2144 79.1011 79.2135 79.1081 79.2112Z" fill="#559C31" stroke="white" stroke-width="2"/>
<path fill-rule="evenodd" clip-rule="evenodd" d="M51.0648 51.8658L50.8192 46.0942L34.4536 46.0948L34.4412 46.8541C38.0683 47.1028 37.5598 48.5536 37.5599 53.4491L37.5642 56.2375C37.522 56.6203 37.6058 56.3985 37.4497 56.5665C37.1741 56.7141 31.6118 56.698 30.9228 56.6205C30.8622 55.4831 31.777 53.8882 32.2645 53.238C32.899 52.3919 33.8246 51.508 34.877 50.974C32.8344 51.0307 28.7604 52.1706 27.2252 53.4095C26.6435 53.8789 26.6644 53.9304 26.6689 54.8862C26.6753 56.2633 26.6714 57.6429 26.6693 59.0202C26.6678 59.8561 26.5826 60.0107 26.9628 60.6708C29.6614 65.3562 33.8334 64.0611 37.5312 64.2985C37.6932 65.3073 37.5973 69.0317 37.4994 70.1575C37.2431 73.1113 36.0822 72.5496 34.2139 72.9631V73.6444C34.9546 73.7603 43.1184 73.7031 44.428 73.6722C46.9908 73.612 49.2364 73.0884 50.778 71.1209C50.9796 70.8636 51.1353 70.5771 51.3458 70.3419C51.3593 70.3589 51.3767 70.3661 51.3814 70.3966L52.431 73.2999C52.8613 74.29 53.2823 75.1117 53.8003 75.975C56.9516 81.228 63.1151 81.4875 66.2864 76.2982C66.5729 75.8293 66.7741 75.4637 67.0304 74.9716C67.2173 74.613 67.4173 73.8348 67.7888 73.6788C70.5743 73.6788 73.3597 73.6779 76.1451 73.6788C78.9498 73.6798 81.1168 73.4596 82.8916 71.9682C85.8603 69.4739 86.3835 63.7114 83.4418 60.7084C83.2269 60.4889 83.0466 60.4021 82.8739 60.1829L88.8645 59.9199C89.0082 61.4266 88.676 62.8345 88.2295 64.0557C91.1294 63.3839 92.3362 59.1703 93.2374 56.8845C93.4776 56.2752 94.2552 54.468 94.3283 53.9028C92.1796 53.3249 92.0457 53.1761 89.5648 53.0377C86.1684 52.8481 82.2455 53.0977 78.8419 53.3755C77.4716 53.4874 74.9735 53.8795 73.7406 53.8146V47.623C75.2407 47.4678 79.1512 47.5423 80.523 47.9047C83.0468 48.5713 82.9765 51.0971 83.2997 51.8693C83.4172 52.15 83.3336 52.1154 83.9616 52.1147L83.7277 46.1409L68.1808 46.0926L67.9586 40.015L67.4675 40.0127C67.1868 40.7833 67.0788 42.8614 66.0282 42.6325C65.7011 42.5614 64.59 41.412 63.6067 40.8307C61.55 39.6145 58.9686 39.8989 57.1344 41.1767C53.8939 43.434 52.3396 47.239 51.3401 51.0147L51.099 51.7968C51.0914 51.8139 51.0781 51.8439 51.0648 51.8658ZM53.8549 55.8246C56.6422 55.6518 59.4578 55.3505 62.2189 55.0702C63.6262 54.9274 69.5455 54.3611 70.4649 54.1681C70.4649 52.6768 70.5238 51.0574 70.4188 49.5867C70.2941 47.8373 69.9282 47.1619 68.2189 46.9513L68.4366 53.0267C67.7263 53.0268 68.0296 53.1469 67.6512 51.3321C67.2496 49.4055 66.7607 47.4592 65.8923 45.7345C62.5819 39.1606 54.6841 40.5691 53.8549 55.8246ZM53.7953 63.1336C53.4954 64.5123 54.5446 69.7257 54.9811 71.1084C55.7863 73.6575 56.9232 75.5352 58.6537 76.693C59.6243 77.3423 60.9208 77.7497 62.3527 77.4732C63.5962 77.2332 64.7544 76.3932 65.2627 75.7233C66.4122 74.2086 66.9721 73.0755 67.7536 71.2942C67.9595 70.8247 68.2108 70.0572 68.4588 69.666C69.0632 70.2471 68.8896 70.2969 68.5999 71.1526C68.4071 71.7223 68.1886 72.2817 68.0041 72.8217C68.9584 72.8341 69.8452 72.4669 70.1554 71.5398C70.6586 70.0362 70.4649 63.1619 70.4649 61.2691L53.7953 63.1336ZM73.7426 60.9304L73.741 72.0183C75.9908 72.5586 77.8304 72.3402 79.2997 71.1595C80.5474 70.1572 81.4741 68.8095 81.564 66.3894C81.6493 64.0944 80.8626 62.2962 79.5859 61.3312C78.6581 60.6298 78.3 60.5026 76.9554 60.6195C75.9368 60.7081 74.7234 60.7576 73.7426 60.9304ZM40.8361 56.526L50.4541 56.0987L51.043 52.0961L50.4329 52.1187C50.3004 51.1932 50.0034 50.1882 49.6079 49.4374C49.1558 48.5794 48.7598 48.2167 47.6336 47.9023C45.9792 47.4405 42.6953 47.5773 40.8361 47.6027V56.526ZM40.8371 64.1458L40.8366 72.0369C42.1358 72.2383 43.2799 72.498 44.5823 72.1151C45.6552 71.7996 46.7064 70.9995 47.1918 70.41C48.7702 68.4931 48.9505 66.4631 48.3137 63.6039L40.8371 64.1458Z" fill="white"/>
<path fill-rule="evenodd" clip-rule="evenodd" d="M26.9306 54.9965C26.8289 55.8717 26.8099 58.9486 26.8979 59.8294C26.9929 60.7796 28.4663 62.2707 28.9889 62.6867C31.103 64.3696 34.3212 64.1456 37.4189 64.0451C50.0009 63.6377 60.9805 61.9061 73.2677 60.7176C79.2212 60.1418 85.8756 59.4792 91.8928 59.7821L94.0692 54.0615C92.2186 53.6271 92.4728 53.515 90.2195 53.3216C86.4815 53.0007 80.893 53.4147 77.1998 53.7562C65.1372 54.8715 55.6824 56.2088 43.2592 56.6898C40.2665 56.8058 37.2745 56.874 34.2739 56.8938C31.139 56.9145 28.4752 56.9908 26.9306 54.9965Z" fill="white"/>
<path d="M33.3568 58.3984L33.3124 59.1497L33.2204 59.1398C33.1935 58.891 33.1274 58.7268 33.0234 58.6492C32.9196 58.5716 32.7262 58.5172 32.4429 58.4868L31.8729 58.4256L31.729 59.767L31.8639 59.7814C32.2794 59.8259 32.5811 59.885 32.7708 59.959C32.9597 60.0318 33.1077 60.1495 33.2145 60.312C33.3207 60.4735 33.3628 60.6594 33.3405 60.8683C33.3134 61.1209 33.1967 61.332 32.9892 61.503C32.7828 61.6733 32.451 61.7344 31.9944 61.6854L30.561 61.5317L30.571 61.4395C30.7799 61.455 30.9166 61.436 30.981 61.3817C31.0455 61.3282 31.0898 61.1888 31.1139 60.9644L31.345 58.8092C31.3635 58.6369 31.3641 58.5194 31.3457 58.4563C31.3283 58.3932 31.2936 58.3463 31.241 58.3156C31.1882 58.2841 31.0884 58.257 30.9408 58.2325L30.9507 58.1404L33.3568 58.3984ZM31.5504 61.4315C31.6948 61.4704 31.8078 61.4945 31.8888 61.5032C32.0937 61.5252 32.2862 61.4767 32.4671 61.3582C32.6474 61.2394 32.7504 61.0588 32.7765 60.8165C32.8032 60.5665 32.7369 60.3721 32.5767 60.2323C32.4164 60.0935 32.2028 60.0094 31.9356 59.9807C31.8615 59.9728 31.7848 59.9714 31.7066 59.9759L31.5504 61.4315ZM35.343 58.7506L35.251 60.0964L36.001 60.1476C36.1954 60.1609 36.3266 60.1406 36.3956 60.0869C36.4883 60.0158 36.5454 59.8838 36.569 59.691L36.6614 59.6974L36.5802 60.8839L36.4878 60.8777C36.4761 60.7099 36.4594 60.6013 36.4395 60.5526C36.4136 60.4924 36.367 60.4428 36.3009 60.4046C36.2345 60.3666 36.1304 60.3422 35.9884 60.3326L35.2384 60.2813L35.1616 61.4046C35.1513 61.5552 35.1519 61.6472 35.1626 61.6807C35.1741 61.7142 35.1953 61.7423 35.2274 61.7634C35.2594 61.7854 35.323 61.7993 35.4162 61.8055L35.9925 61.845C36.1842 61.8581 36.3248 61.8539 36.4138 61.8332C36.5021 61.8127 36.5896 61.7653 36.6747 61.692C36.7853 61.5955 36.9023 61.4461 37.0252 61.2446L37.1279 61.2517L36.776 62.0843L34.152 61.9049L34.1583 61.8125L34.279 61.8206C34.3596 61.8262 34.4372 61.8116 34.5116 61.7782C34.5674 61.7552 34.607 61.7174 34.6294 61.6649C34.6528 61.6123 34.6697 61.5034 34.6811 61.3373L34.8324 59.1234C34.8472 58.9076 34.8348 58.7735 34.7945 58.7208C34.7384 58.6499 34.6406 58.6097 34.4992 58.6001L34.3786 58.5917L34.3848 58.4993L37.0097 58.6788L36.9944 59.4312L36.8967 59.4245C36.874 59.2414 36.844 59.1148 36.8058 59.0441C36.7677 58.9735 36.7077 58.9178 36.6273 58.8763C36.562 58.8468 36.4448 58.8258 36.2762 58.8143L35.343 58.7506ZM40.2765 58.9885L39.2214 58.9573L39.1931 59.9137C39.1646 60.8795 39.0628 61.5032 38.8888 61.7866C38.7138 62.0689 38.4815 62.2063 38.1898 62.1977C38.0655 62.194 37.9703 62.1602 37.9053 62.0975C37.8401 62.0336 37.8089 61.9614 37.8112 61.8808C37.8131 61.8182 37.836 61.7648 37.8812 61.7206C37.9263 61.6765 37.98 61.6558 38.0418 61.6576C38.0933 61.6591 38.1526 61.6866 38.2181 61.7392C38.2918 61.7971 38.3588 61.8266 38.4196 61.8284C38.5655 61.8328 38.6874 61.7153 38.7873 61.4753C38.8862 61.2353 38.9462 60.7777 38.9662 60.101L38.9873 59.3866C38.9939 59.1618 38.969 59.0185 38.9116 58.9559C38.855 58.8941 38.7204 58.8566 38.5089 58.8436L38.5116 58.7509L41.2546 58.832L41.2518 58.9247C41.0423 58.9254 40.9076 58.9548 40.8474 59.014C40.7872 59.0723 40.754 59.2147 40.7472 59.4403L40.6832 61.6069C40.6764 61.8325 40.7014 61.9765 40.758 62.0383C40.8146 62.101 40.9474 62.1384 41.1564 62.1515L41.1537 62.2441L39.6921 62.2008L39.6948 62.1083C39.9044 62.1076 40.0391 62.078 40.0992 62.0189C40.1594 61.9606 40.1927 61.8182 40.1994 61.5925L40.2765 58.9885ZM44.6378 58.7416L44.6703 59.539L44.5778 59.5414C44.5666 59.3802 44.529 59.2517 44.4647 59.1563C44.3997 59.0602 44.3225 59.0003 44.2318 58.9769C44.141 58.9526 44.0111 58.943 43.8412 58.9475L42.884 58.9722L42.9512 61.5766C42.9569 61.8022 42.9898 61.9446 43.0488 62.0033C43.1088 62.0626 43.2435 62.0927 43.4537 62.0941L43.4561 62.1866L41.9944 62.2244L41.9921 62.1318C42.2013 62.1196 42.3342 62.0826 42.3909 62.0202C42.4476 61.9586 42.4732 61.8146 42.4673 61.589L42.4114 59.4222C42.4055 59.1966 42.3728 59.054 42.3129 58.9955C42.253 58.9361 42.1184 58.9061 41.9087 58.9048L41.9064 58.812L44.6378 58.7416ZM46.8066 58.4425C47.2449 58.3854 47.6469 58.5026 48.0112 58.7944C48.3765 59.0861 48.5914 59.4812 48.6566 59.9807C48.7235 60.4946 48.6173 60.942 48.3374 61.3238C48.0584 61.7053 47.6883 61.9259 47.2278 61.9858C46.7633 62.0464 46.351 61.9314 45.9914 61.6417C45.6316 61.3519 45.4176 60.9445 45.3491 60.4187C45.2792 59.8818 45.4049 59.4197 45.7257 59.0326C46.0047 58.6968 46.365 58.5001 46.8066 58.4425ZM46.7823 58.6276C46.4811 58.6668 46.2532 58.8107 46.1004 59.0591C45.9098 59.3687 45.849 59.7928 45.9194 60.3322C45.9914 60.8844 46.1642 61.2947 46.4387 61.5617C46.6496 61.7644 46.9024 61.8466 47.1994 61.8079C47.5168 61.7665 47.7618 61.6082 47.9363 61.3337C48.1107 61.0583 48.1629 60.6542 48.0932 60.1199C48.0176 59.5404 47.8472 59.1229 47.583 58.8684C47.3714 58.6657 47.1048 58.5854 46.7823 58.6276ZM54.6879 57.3398C55.1265 57.2861 55.5278 57.4064 55.8898 57.701C56.2527 57.9954 56.4646 58.3922 56.5258 58.8923C56.5888 59.4067 56.4792 59.8532 56.1964 60.2328C55.9143 60.6122 55.5425 60.8299 55.0817 60.8863C54.6166 60.9432 54.2054 60.8251 53.8479 60.5327C53.4904 60.2401 53.2797 59.831 53.2151 59.3047C53.1492 58.7672 53.2787 58.3062 53.6025 57.9215C53.884 57.5879 54.2459 57.3941 54.6879 57.3398ZM54.6621 57.5245C54.3608 57.5616 54.1317 57.7037 53.977 57.9508C53.7838 58.259 53.7198 58.6826 53.786 59.2225C53.8538 59.7755 54.0234 60.1868 54.2958 60.4561C54.5051 60.6604 54.7574 60.7446 55.0547 60.7081C55.3724 60.6691 55.6186 60.5128 55.7951 60.2396C55.9718 59.9656 56.027 59.5619 55.9613 59.027C55.8904 58.4471 55.7231 58.0284 55.4609 57.7717C55.2509 57.5674 54.985 57.485 54.6621 57.5245ZM64.1711 56.2792L64.3679 57.4235L64.2912 57.4314C64.1519 57.0973 63.9792 56.8634 63.7722 56.7323C63.5652 56.6004 63.3285 56.5482 63.0606 56.5762C62.837 56.5994 62.6398 56.6778 62.4708 56.811C62.3018 56.9442 62.1783 57.1409 62.1002 57.4027C62.023 57.6635 62.0034 57.9805 62.0422 58.3526C62.0742 58.6598 62.1507 58.9211 62.2722 59.1361C62.3939 59.3513 62.5595 59.5082 62.7683 59.6081C62.978 59.7079 63.2087 59.7443 63.4605 59.718C63.6798 59.6952 63.8687 59.6281 64.0262 59.5168C64.1846 59.4053 64.3494 59.1991 64.5208 58.8983L64.6038 58.9416C64.4655 59.2606 64.2903 59.5013 64.0787 59.6648C63.8672 59.8276 63.6054 59.9255 63.2949 59.9579C62.7341 60.0163 62.278 59.8534 61.9272 59.468C61.6654 59.1812 61.5119 58.8281 61.4681 58.4081C61.4328 58.0693 61.4764 57.7498 61.5978 57.4507C61.7194 57.1507 61.9048 56.9098 62.1531 56.726C62.4022 56.5421 62.6835 56.4342 62.9975 56.4016C63.2416 56.376 63.4884 56.4108 63.7391 56.5062C63.8122 56.5358 63.8645 56.5494 63.8944 56.5463C63.9387 56.5416 63.9764 56.5212 64.0064 56.4863C64.0451 56.4365 64.0694 56.371 64.0788 56.2888L64.1711 56.2792ZM67.0552 55.9972C67.4952 55.9562 67.8928 56.0881 68.2461 56.3932C68.6002 56.6981 68.8005 57.1008 68.8472 57.6024C68.8952 58.1185 68.7726 58.5617 68.4789 58.9328C68.1858 59.3039 67.8078 59.5106 67.3456 59.5536C66.879 59.5969 66.4714 59.4668 66.1227 59.1641C65.7738 58.8613 65.575 58.4462 65.5259 57.9182C65.4758 57.3792 65.6184 56.922 65.9534 56.547C66.2445 56.2217 66.6119 56.0384 67.0552 55.9972ZM67.0241 56.1811C66.7217 56.2092 66.4887 56.3447 66.3268 56.5872C66.1248 56.8896 66.0485 57.3112 66.0989 57.8528C66.1505 58.4074 66.3082 58.8236 66.5727 59.1007C66.7757 59.311 67.0256 59.4025 67.3238 59.3747C67.6425 59.345 67.8932 59.1959 68.0776 58.9279C68.2622 58.6591 68.329 58.2574 68.2791 57.7207C68.225 57.1388 68.07 56.7155 67.8154 56.4514C67.6114 56.241 67.348 56.151 67.0241 56.1811ZM73.4424 58.8457L73.5326 59.9129L73.4453 59.9202C73.3775 59.6676 73.2489 59.4503 73.062 59.268C72.8746 59.0857 72.602 59.0096 72.2436 59.0399L69.9461 59.2338L69.9383 59.1415C70.1464 59.117 70.2771 59.0724 70.33 59.0068C70.383 58.9421 70.4001 58.7968 70.3811 58.572L70.1987 56.4121C70.1798 56.1871 70.1387 56.0467 70.0755 55.9919C70.0122 55.9361 69.876 55.914 69.6668 55.9248L69.6591 55.8325L71.1161 55.7095L71.1238 55.8018C70.9158 55.8262 70.7853 55.8708 70.7322 55.9366C70.6791 56.0011 70.662 56.1466 70.681 56.3713L70.8724 58.639C70.8858 58.7981 70.9032 58.8913 70.9238 58.9196C70.945 58.9481 71.0465 58.955 71.2294 58.9396L72.1007 58.866C72.3136 58.848 72.4268 58.8221 72.4413 58.7881C72.4547 58.7544 72.454 58.6441 72.4383 58.4586L72.2508 56.2388C72.232 56.014 72.1908 55.8736 72.1269 55.8187C72.0635 55.7629 71.9238 55.7411 71.7087 55.7525L71.7009 55.6601L73.1682 55.5362L73.1759 55.6285C72.968 55.653 72.8374 55.6975 72.7844 55.7633C72.7313 55.828 72.7143 55.9732 72.7331 56.1982L72.9164 58.3675C72.9359 58.6 72.9755 58.7422 73.0341 58.794C73.0929 58.8468 73.2294 58.8637 73.4424 58.8457ZM76.4938 55.2988L76.5813 56.0461L76.4889 56.0526C76.419 55.8122 76.3253 55.6621 76.2094 55.6038C76.0936 55.5456 75.8936 55.5257 75.6093 55.5451L75.0375 55.5844L75.1299 56.9302L75.2651 56.9209C75.6821 56.8922 75.9894 56.8979 76.1892 56.9376C76.388 56.9764 76.5541 57.0664 76.6876 57.2078C76.8203 57.3482 76.8944 57.5239 76.9088 57.7336C76.926 57.987 76.848 58.2152 76.6737 58.4198C76.5002 58.6235 76.184 58.7416 75.7259 58.773L74.2877 58.8716L74.2814 58.7794C74.4898 58.7581 74.6211 58.7154 74.6751 58.6507C74.7292 58.5868 74.7485 58.4419 74.733 58.2167L74.5846 56.0542C74.5727 55.8812 74.5528 55.7657 74.5238 55.7065C74.4957 55.6474 74.4533 55.6073 74.396 55.5863C74.3386 55.5646 74.2356 55.5552 74.0861 55.5569L74.0796 55.4644L76.4938 55.2988ZM75.2445 58.6006C75.3933 58.6135 75.5088 58.6176 75.5902 58.612C75.7956 58.5979 75.9767 58.5167 76.1343 58.3682C76.291 58.2199 76.361 58.0241 76.3443 57.7811C76.327 57.53 76.2279 57.3503 76.0457 57.2406C75.8636 57.1319 75.6385 57.0863 75.3706 57.1048C75.2962 57.1098 75.2205 57.1218 75.1443 57.1399L75.2445 58.6006ZM80.01 57.3655L78.6898 57.44L78.492 57.9866C78.443 58.1218 78.4194 58.2228 78.423 58.2878C78.426 58.3392 78.4533 58.3842 78.5052 58.4208C78.5564 58.4564 78.665 58.4761 78.8292 58.479L78.8344 58.5715L77.76 58.6321L77.7549 58.5396C77.8956 58.5066 77.9855 58.469 78.0252 58.4263C78.1064 58.3409 78.1913 58.172 78.2812 57.9203L79.3216 55.0477L79.4064 55.0429L80.751 57.8111C80.859 58.0336 80.9538 58.1761 81.0358 58.2402C81.1175 58.3036 81.2276 58.3351 81.3677 58.336L81.3729 58.4285L80.0296 58.5041L80.0243 58.4117C80.1593 58.3972 80.2497 58.3697 80.2956 58.3284C80.3414 58.2871 80.3619 58.2388 80.3586 58.183C80.3546 58.1094 80.3146 57.9948 80.2388 57.8392L80.01 57.3655ZM79.9226 57.1849L79.2711 55.8421L78.7592 57.2504L79.9226 57.1849ZM83.0892 56.5465L84.6695 56.5072L84.6449 55.524C84.6406 55.3507 84.6267 55.2371 84.6038 55.1827C84.5858 55.1419 84.5496 55.1066 84.4948 55.0781C84.4217 55.0396 84.3449 55.0217 84.2642 55.0237L84.1432 55.0267L84.1409 54.9341L85.6029 54.8976L85.605 54.9902L85.4841 54.9932C85.4034 54.9953 85.3276 55.016 85.2564 55.0565C85.2032 55.0843 85.1673 55.1256 85.1498 55.1802C85.1313 55.2347 85.1247 55.3456 85.1288 55.512L85.1838 57.7201C85.1883 57.8926 85.2022 58.0063 85.2249 58.0607C85.2431 58.1023 85.2783 58.1374 85.3314 58.1662C85.4062 58.2047 85.4838 58.2226 85.5646 58.2205L85.6856 58.2175L85.6878 58.31L84.226 58.3465L84.2237 58.254L84.3447 58.2509C84.4846 58.2474 84.5848 58.2037 84.6471 58.1206C84.6878 58.0656 84.705 57.9364 84.6999 57.7321L84.6741 56.6924L83.0939 56.7318L83.1198 57.7716C83.1242 57.944 83.1382 58.0577 83.161 58.1122C83.1783 58.1538 83.2144 58.189 83.2692 58.2176C83.3422 58.2562 83.4182 58.274 83.4989 58.272L83.6216 58.2689L83.6238 58.3615L82.162 58.398L82.1598 58.3054L82.2808 58.3024C82.4223 58.2989 82.5234 58.2551 82.5856 58.1719C82.6246 58.117 82.6412 57.9878 82.636 57.7836L82.5809 55.5755C82.5766 55.4023 82.5627 55.2884 82.5399 55.2341C82.5216 55.1933 82.4865 55.1581 82.4333 55.1294C82.3586 55.0909 82.2809 55.073 82.2003 55.0751L82.0793 55.0781L82.0769 54.9856L83.5388 54.9491L83.541 55.0416L83.4184 55.0447C83.3378 55.0468 83.2628 55.0675 83.1917 55.1078C83.14 55.1358 83.105 55.177 83.0866 55.2317C83.0681 55.2862 83.0606 55.397 83.0648 55.5635L83.0892 56.5465ZM89.8523 58.3925L89.8469 58.485L88.9696 58.434C88.8833 58.276 88.6996 57.9766 88.4184 57.5356C88.1372 57.0947 87.9648 56.849 87.9009 56.7989C87.8367 56.7487 87.7369 56.7188 87.6017 56.7094L87.5426 57.7271C87.5295 57.9523 87.5494 58.097 87.6034 58.1603C87.6573 58.2245 87.7897 58.2658 88.0001 58.285L87.9947 58.3774L86.535 58.2925L86.5404 58.2C86.7482 58.2052 86.8836 58.1795 86.9463 58.1239C87.0088 58.0674 87.0462 57.926 87.0594 57.699L87.1852 55.5352C87.1983 55.3098 87.1774 55.165 87.1227 55.1016C87.068 55.0374 86.9363 54.9964 86.7276 54.9773L86.733 54.8848L88.1927 54.9696L88.1873 55.062C87.9762 55.0567 87.8399 55.0822 87.7788 55.1399C87.718 55.1964 87.6814 55.3379 87.6683 55.5631L87.613 56.514C87.7956 56.5229 87.9222 56.5182 87.9939 56.4992C88.0654 56.481 88.1472 56.4342 88.2393 56.3587C88.3313 56.2832 88.4057 56.1998 88.4626 56.1095C88.5185 56.02 88.5934 55.8704 88.6854 55.6618C88.7724 55.4665 88.8423 55.3314 88.8938 55.2562C88.9463 55.1809 89.0266 55.1177 89.1352 55.0673C89.2438 55.0177 89.3705 54.9967 89.5161 55.0052C89.7731 55.0201 89.8962 55.1184 89.8858 55.3C89.8821 55.3634 89.8532 55.4176 89.7999 55.4617C89.7459 55.5059 89.6871 55.5257 89.6219 55.5218C89.5747 55.5191 89.4975 55.488 89.391 55.4276C89.2971 55.3733 89.2308 55.3445 89.1922 55.3422C89.1382 55.3391 89.0912 55.3648 89.0494 55.4182C89.0076 55.4725 88.9385 55.612 88.8412 55.8367C88.656 56.2565 88.4355 56.5171 88.1804 56.6183C88.3305 56.6537 88.5281 56.875 88.7753 57.2804C89.0365 57.7108 89.2304 57.9995 89.356 58.1461C89.4816 58.2926 89.6469 58.3754 89.8523 58.3925Z" fill="#559C31"/>
<path d="M50.6018 59.8815L50.7429 60.8694C50.7732 61.0818 50.815 61.2102 50.869 61.2545C50.9423 61.3186 51.0426 61.3415 51.1702 61.3233L51.2992 61.3049L51.3123 61.3966L49.8647 61.6035L49.8516 61.5118L49.9791 61.4936C50.1218 61.4732 50.218 61.4117 50.2659 61.3104C50.2917 61.2548 50.2912 61.13 50.2637 60.938L49.9512 58.7514C49.921 58.539 49.8801 58.4105 49.8279 58.366C49.7518 58.3023 49.6506 58.2795 49.5224 58.2978L49.3949 58.3161L49.3818 58.2243L50.6204 58.0473C50.9228 58.0041 51.1652 58.0016 51.349 58.0385C51.532 58.0756 51.694 58.16 51.8349 58.2906C51.9759 58.4213 52.0602 58.5879 52.0893 58.79C52.1288 59.0661 52.0698 59.3033 51.9126 59.5018C51.7556 59.7002 51.5114 59.8235 51.1792 59.8709C51.0976 59.8826 51.0093 59.8892 50.9134 59.8907C50.8167 59.8932 50.713 59.8899 50.6018 59.8815ZM50.5812 59.7388C50.6712 59.7434 50.7513 59.7449 50.8203 59.7429C50.8886 59.7417 50.9478 59.7376 50.9955 59.7308C51.1678 59.7062 51.3062 59.618 51.4119 59.4666C51.5177 59.3156 51.5559 59.1341 51.5256 58.9226C51.5048 58.7764 51.4556 58.6448 51.3783 58.5284C51.301 58.412 51.2027 58.3307 51.085 58.2843C50.9667 58.2378 50.8382 58.2242 50.6996 58.244C50.6147 58.2562 50.5091 58.2876 50.3811 58.338L50.5812 59.7388Z" fill="#559C31"/>
<path d="M57.6002 57.0067L60.2976 56.707L60.3076 56.7956C60.1055 56.8246 59.9796 56.871 59.9302 56.9347C59.8799 56.9991 59.8673 57.1386 59.8912 57.3535L60.092 59.1616C60.1307 59.5111 60.1745 59.7255 60.2241 59.8039C60.2734 59.8824 60.4067 59.9091 60.6257 59.8848L60.7395 60.9086L60.6558 60.9178C60.582 60.6868 60.4828 60.5043 60.361 60.3717C60.2382 60.2384 60.107 60.1558 59.9661 60.1216C59.8253 60.0883 59.6602 60.0817 59.4714 60.1027L58.6413 60.195C58.2777 60.2353 58.022 60.3633 57.8733 60.5792C57.7245 60.7942 57.6465 61.0187 57.6384 61.2531L57.5547 61.2624L57.4409 60.2385C57.6953 60.1879 57.8864 60.0097 58.0154 59.7046C58.1441 59.3989 58.2166 59.0344 58.2317 58.6092C58.2476 58.1839 58.2406 57.8374 58.2108 57.5692C58.1931 57.4092 58.1603 57.2932 58.1117 57.2223C58.0631 57.1513 58.0102 57.1089 57.9532 57.0962C57.896 57.0826 57.7815 57.0829 57.61 57.0952L57.6002 57.0067ZM58.408 57.1012C58.4733 58.0557 58.472 58.7311 58.4021 59.1267C58.3331 59.5223 58.2155 59.8401 58.0514 60.0811L59.2566 59.9472C59.4707 59.9234 59.5974 59.8902 59.6351 59.8478C59.6735 59.8053 59.6812 59.6806 59.6583 59.4739L59.3826 56.993L58.408 57.1012Z" fill="#559C31"/>
</svg>
