<svg width="120" height="120" viewBox="0 0 120 120" fill="none" xmlns="http://www.w3.org/2000/svg">
<rect width="120" height="120" fill="#F79417"/>
<path d="M41.3333 53.3333C41.3333 60.6971 35.3638 66.6667 28 66.6667V40C35.3638 40 41.3333 45.9695 41.3333 53.3333Z" fill="white"/>
<path d="M60 66.6667C67.3638 66.6667 73.3333 60.6971 73.3333 53.3333C73.3333 45.9695 67.3638 40 60 40C52.6362 40 46.6667 45.9695 46.6667 53.3333C46.6667 60.6971 52.6362 66.6667 60 66.6667Z" fill="white"/>
<path d="M78.6667 53.3333C78.6667 60.6971 84.6362 66.6667 92 66.6667V40C84.6362 40 78.6667 45.9695 78.6667 53.3333Z" fill="white"/>
<path d="M92 80V72H28V80H92Z" fill="white"/>
</svg>
