<svg width="120" height="120" viewBox="0 0 120 120" fill="none" xmlns="http://www.w3.org/2000/svg">
<rect width="120" height="120" fill="#4986E9"/>
<path fill-rule="evenodd" clip-rule="evenodd" d="M49.1589 55.9955C49.1589 65.8787 48.0384 62.4955 53.592 68.1C54.5987 69.1158 54.7054 69.8399 56.5181 69.8552C58.1329 69.8687 59.7676 69.8251 61.3887 69.8372C63.6991 69.8545 63.5861 70.1415 64.8243 68.8685C70.2633 63.2778 69.8441 65.4136 69.8442 59.4962C69.8442 53.6007 70.3098 55.7823 64.9562 50.2633C63.5992 48.8642 63.9063 49.1224 61.3881 49.1417C53.8661 49.1994 56.2129 48.2108 51.2558 53.1333C50.1251 54.2561 49.1589 54.8001 49.1589 55.9955ZM47.3689 61.8429C47.6426 57.9946 47.142 38.1656 47.6152 36.8584C48.3585 34.8051 51.3187 34.0637 52.9602 35.6655C53.8585 34.9993 58.0191 30.9141 58.3835 30.0349C57.4524 28.9948 54.9199 27.7203 53.2114 27.3012C46.8295 25.7357 40.0618 30.4585 39.6837 37.1725C39.4246 41.7753 39.4253 48.7058 39.6334 53.3241C39.6861 54.4941 39.5239 54.032 40.0702 54.707L47.3689 61.8429ZM49.1785 52.5195C50.3832 51.7407 58.474 43.3819 60.2249 41.6411C63.5588 38.3265 66.4294 34.1082 69.4213 34.9781C71.4711 35.5741 70.8947 36.4262 71.878 38.0575L79.4123 38.0496C79.5952 33.0933 76.1077 29.2873 72.7761 27.9169C70.685 27.0569 68.1632 26.7566 65.8207 27.3456C60.9147 28.5796 56.0067 34.7905 52.1423 38.6698C51.4034 39.4116 50.8479 39.9665 50.1133 40.6748C48.8577 41.8852 49.1334 41.9109 49.1552 44.1449C49.1823 46.9312 49.1092 49.7369 49.1785 52.5195ZM47.2252 80.9338L39.6833 80.9306C38.8804 85.4975 43.2787 89.7097 46.0423 90.9837C50.8105 93.1821 55.8778 91.0666 58.5368 88.6925C61.8757 85.7113 65.6123 81.5346 69.0239 78.1774C70.1575 77.062 69.8612 76.9377 69.8464 74.8511C69.8262 72.0382 69.896 69.197 69.833 66.3898C68.5508 67.3125 55.7962 80.4166 53.4228 82.7672C51.3233 84.8464 48.3891 85.074 47.2252 80.9338ZM52.6154 69.7607C51.876 68.491 43.0125 59.9331 41.7538 58.6717C39.9173 56.8311 38.2561 55.0695 36.3708 53.288C33.7251 50.7883 34.3153 48.1922 37.9974 47.1089L38.1043 39.3976C30.4544 39.6216 25.5944 46.6234 27.3639 53.1714C28.0745 55.801 29.0577 56.8509 30.4778 58.3726C33.8422 61.9777 37.5728 65.324 40.8192 68.7625C42.0105 70.0242 41.9415 69.7786 44.1559 69.7553C46.9631 69.726 49.808 69.7306 52.6154 69.7607ZM80.9286 71.7843L80.9227 79.3093C83.9981 80.0347 88.0155 77.5259 90.1098 74.5237C92.2392 71.4709 92.471 66.6796 90.6703 63.2964C89.1465 60.4334 83.1478 54.9222 80.335 52.1111C76.4626 48.241 78.8915 49.1034 67.5721 49.144L66.3933 49.1524L82.7272 65.6035C84.9676 67.8396 84.9628 70.7294 80.9286 71.7843ZM66.0703 83.3251C65.2128 84.0437 60.94 88.1735 60.6143 88.9525C61.0096 89.3159 62.1612 90.1524 62.8725 90.5634C63.7547 91.073 64.6822 91.4265 65.7839 91.6974C72.15 93.2626 79.0201 88.5742 79.3364 81.8302C79.5561 77.1462 79.5922 70.3382 79.3698 65.6693C79.3024 64.2551 78.7089 64.0383 77.8712 63.1929C77.1214 62.4361 76.5723 61.8933 75.8518 61.1752C74.671 59.9981 72.8579 57.9383 71.6802 57.0835C71.6026 59.8434 71.9106 80.7592 71.4037 82.1564C70.6796 84.1522 67.7019 85.0134 66.0703 83.3251ZM61.9146 71.6425C59.3829 71.5923 38.1474 71.8744 36.8845 71.3932C34.8472 70.617 34.1465 67.8437 35.6928 66.0338C35.0151 65.1684 30.9323 60.9763 30.0979 60.6398C23.8866 67.2045 28.1117 78.7216 37.155 79.3237C41.6845 79.6251 48.7406 79.5653 53.3315 79.3809C54.9345 79.3164 56.1303 77.56 57.8215 75.8605C58.8958 74.781 61.223 72.7014 61.9146 71.6425ZM57.1104 47.3453C59.741 47.4171 80.8835 47.1284 82.1437 47.584C84.2263 48.3369 84.9185 51.3071 83.3138 52.9532C83.9819 53.8553 85.0586 54.7893 85.9322 55.6659C86.7766 56.5129 87.858 57.9298 88.9381 58.3801C90.1872 57.0958 91.3157 54.8789 91.7362 52.9777C92.7517 48.3865 90.7535 44.19 87.1493 41.5311C85.3632 40.2135 83.0381 39.6307 80.4896 39.6307H65.6885C64.3472 39.6307 64.7955 39.5711 63.2294 41.1476L57.1104 47.3453ZM54.799 58.419C54.799 61.4302 54.522 61.2492 55.8948 62.5679C57.0445 63.6725 57.3888 64.732 60.8605 64.1996C62.0386 64.019 63.9744 61.8883 64.157 61.1062C64.2501 60.7071 64.2543 58.2844 64.1682 57.8765C64.0274 57.2085 62.2358 54.7805 60.5753 54.7805C57.1557 54.7805 57.7864 54.5431 56.1672 56.1624C55.443 56.8867 54.799 57.105 54.799 58.419ZM62.1365 54.4706L64.4901 56.8278C65.8211 56.4535 67.1203 55.621 68.5604 55.3597C68.0434 54.0802 64.8846 50.934 63.6346 50.4321L62.1365 54.4706ZM62.1766 64.5024C62.5498 65.8304 63.4075 67.2473 63.6467 68.5654C64.9901 68.0094 66.3216 66.2996 67.3971 65.2585C67.5661 65.095 67.816 64.8735 67.9359 64.721C68.6204 63.8502 68.1763 64.5834 68.5613 63.6327C67.1882 63.3922 65.8372 62.5399 64.5041 62.1798L62.1766 64.5024ZM50.4668 63.6488C50.9169 64.7067 54.1359 68.0686 55.1931 68.414C55.9106 67.2426 56.5287 65.6591 56.8511 64.4563L54.5242 62.1622C53.2464 62.5253 51.8169 63.3952 50.4668 63.6488ZM49.9916 62.8484C50.9316 62.5663 53.7381 61.8801 53.9831 60.8427C54.1599 60.0953 54.336 58.0917 53.2084 57.4097L49.9855 56.1387L49.9916 62.8484ZM56.1608 69.038L62.8462 69.0321C62.6119 68.2486 62.3382 67.6476 62.0482 66.9272C62.0083 66.8278 61.6805 65.9713 61.6784 65.9671C61.3459 65.3174 61.4761 65.4838 60.8445 65.0237C60.0354 64.8452 58.1036 64.6683 57.4275 65.8053L56.1608 69.038ZM58.1532 53.9697C61.2247 53.9674 60.9921 54.2178 61.5965 53.2133L62.8521 49.9538L56.1608 49.9601C56.447 50.8568 56.593 51.2072 56.9543 52.057C57.8555 54.1776 57.6454 53.9788 58.1532 53.9697ZM65.0309 58.1497C65.0324 61.0439 64.761 60.9429 65.8046 61.5724C66.0328 61.71 66.4918 61.8687 66.7401 61.9714C67.5625 62.3118 68.1004 62.5519 69.0343 62.8365L69.0285 56.1462L65.9878 57.331C64.8136 57.9433 65.5189 57.3027 65.0309 58.1497ZM50.4772 55.3526C51.8858 55.6019 53.1895 56.4555 54.513 56.8167L56.8387 54.5237C56.5139 53.3245 55.9184 51.7887 55.1931 50.5779L50.4772 55.3526Z" fill="white"/>
</svg>
