<svg width="120" height="120" viewBox="0 0 120 120" fill="none" xmlns="http://www.w3.org/2000/svg">
<g clip-path="url(#clip0_273_707)">
<path fill-rule="evenodd" clip-rule="evenodd" d="M0 120H120V0H0V120Z" fill="#4C9564"/>
<path d="M23.0046 42C48.3357 42.0093 73.6667 42.0093 98.9977 42C98.9954 42.3475 98.9954 42.695 98.9954 43.0425C73.6667 43.0309 48.3357 43.0309 23.007 43.0425C23.007 42.695 23.0046 42.3475 23.0046 42Z" fill="#F7FCF8"/>
<path d="M23.3082 47.1246C25.7176 47.1362 28.1293 47.1107 30.5387 47.1408C30.5363 47.5462 30.534 47.9516 30.5317 48.3594C29.1903 48.3756 27.8466 48.3687 26.5052 48.3687C26.5099 49.3672 26.5099 50.3657 26.5076 51.3642C27.9995 51.3433 29.5425 51.2507 30.9464 51.8623C31.4978 53.1202 31.1873 54.5381 31.2406 55.8679C31.2823 56.7783 30.2467 57.0911 29.5262 57.2185C27.4644 57.4409 25.3863 57.3019 23.3174 57.3506C23.2943 53.9427 23.3151 50.5348 23.3082 47.1246ZM26.5238 52.5179C26.5006 53.7203 26.5076 54.9203 26.5145 56.1227C26.9941 56.1227 27.4759 56.1204 27.9578 56.1204C27.9856 54.9667 27.981 53.8129 27.9833 52.6615C27.4945 52.6337 27.008 52.5828 26.5238 52.5179Z" fill="#F7FCF8"/>
<path d="M34.8986 47.164C36.4878 47.0643 38.0864 47.157 39.678 47.1269C40.4008 50.5441 41.3367 53.9126 41.9854 57.3459C40.9452 57.3459 39.905 57.3436 38.8648 57.3436C38.6818 56.5003 38.5173 55.6524 38.3644 54.8022C37.6207 54.7975 36.8771 54.7975 36.1334 54.8022C36.0106 55.6571 35.8368 56.505 35.6654 57.3506C34.6229 57.3459 33.578 57.339 32.5332 57.3506C33.3904 53.9705 34.0252 50.5348 34.8986 47.164ZM37.3103 48.4266C36.8423 50.0251 36.6546 51.6885 36.3164 53.3148C36.9489 53.3148 37.5837 53.3149 38.2184 53.3172C37.8756 51.6931 37.6786 50.0436 37.3103 48.4266Z" fill="#F7FCF8"/>
<path d="M43.6257 47.1223C44.6822 47.1293 45.7363 47.1269 46.7927 47.1246C46.7927 48.466 46.7973 49.8074 46.7834 51.1511C47.2537 51.158 47.7263 51.165 48.1966 51.1719C48.192 49.8306 48.1966 48.4869 48.1897 47.1455C49.2623 47.1223 50.3373 47.12 51.4122 47.1339C51.4099 50.5372 51.4145 53.9404 51.4099 57.3437C50.3373 57.346 49.2669 57.346 48.1943 57.3367C48.1943 55.7845 48.1897 54.2323 48.1989 52.6824C47.731 52.6801 47.263 52.6778 46.795 52.6732C46.7881 54.2277 46.8043 55.7799 46.7788 57.3321C45.7293 57.3483 44.6775 57.3414 43.6257 57.3483C43.6257 53.9381 43.6257 50.5302 43.6257 47.1223Z" fill="#F7FCF8"/>
<path d="M53.8217 47.1246C54.8504 47.1223 55.879 47.1269 56.9099 47.1362C56.9076 48.4799 56.8891 49.8213 56.9146 51.1627C57.6397 49.8583 58.2212 48.4845 58.8745 47.1431C59.9031 47.1223 60.9318 47.12 61.9627 47.1362C61.2167 48.7301 60.334 50.2661 59.7016 51.9063C60.4406 53.7806 61.4762 55.5227 62.3311 57.3437C61.3302 57.3437 60.3294 57.346 59.3263 57.3413C58.5108 55.8285 57.7949 54.2624 56.9099 52.789C56.896 54.3088 56.9099 55.8262 56.903 57.346C55.8744 57.3437 54.8481 57.3437 53.8194 57.3437C53.8194 53.9381 53.8171 50.5302 53.8217 47.1246Z" fill="#F7FCF8"/>
<path d="M54.3128 61.8149C55.3414 61.8149 56.37 61.8056 57.401 61.801C57.4172 63.1817 57.4102 64.5625 57.4079 65.9433C57.8782 65.9433 58.3508 65.9433 58.8234 65.9456C58.8188 64.5741 58.8095 63.2003 58.8373 61.8288C59.9077 61.8125 60.9757 61.8033 62.0483 61.8056C62.0715 65.2413 62.0599 68.6793 62.053 72.1173C60.9734 72.1382 59.8938 72.1382 58.8165 72.0594C58.8211 70.5165 58.8142 68.9735 58.8281 67.4306C58.3532 67.426 57.8805 67.4236 57.4079 67.4213C57.4102 68.9897 57.4218 70.5582 57.3963 72.1289C56.3608 72.1196 55.3275 72.1196 54.2919 72.1243C54.2896 68.6886 54.2502 65.2506 54.3128 61.8149Z" fill="#F7FCF8"/>
<path d="M23.3359 72.1243C24.0842 68.6747 24.8094 65.2159 25.6805 61.7941C27.272 61.8196 28.8659 61.7918 30.4599 61.8196C31.2221 65.2529 32.0491 68.6724 32.7349 72.122C31.6993 72.1382 30.6614 72.1336 29.6258 72.0571C29.4776 71.1907 29.3177 70.3265 29.137 69.467C28.4211 69.4694 27.703 69.4694 26.9871 69.4601C26.7763 70.3428 26.6048 71.237 26.4218 72.1266C25.3932 72.1197 24.3646 72.1197 23.3359 72.1243ZM28.0528 63.1818C27.6636 64.7919 27.4388 66.4368 27.0913 68.0585C27.7261 68.0608 28.3609 68.0654 28.9957 68.077C28.6598 66.4507 28.4049 64.8058 28.0528 63.1818Z" fill="#F7FCF8"/>
<path d="M34.2848 72.013C34.3728 68.6075 34.1504 65.1903 34.4029 61.7917C36.7984 61.9307 39.2773 61.4743 41.594 62.2851C42.1222 63.3832 41.923 64.6482 41.8697 65.8228C41.6612 66.5873 40.7415 66.6267 40.0882 66.6267C40.6928 66.7842 41.4249 66.8074 41.8697 67.3008C41.9879 68.5519 41.967 69.8214 41.8929 71.0748C41.3716 71.9852 40.16 72.0339 39.2263 72.1057C37.5792 72.1173 35.925 72.1984 34.2848 72.013ZM37.4517 63.0867C37.4517 64.0597 37.4517 65.0328 37.4517 66.0058C37.9151 65.9919 38.3784 65.9803 38.8418 65.9641C38.8441 65.0235 38.8464 64.0806 38.8441 63.14C38.3807 63.1215 37.9151 63.1029 37.4517 63.0867ZM37.4425 67.4282C37.4564 68.5889 37.4494 69.7496 37.4564 70.9126C37.9151 70.8871 38.3761 70.8639 38.8371 70.8361C38.851 69.7033 38.851 68.5704 38.8232 67.4375C38.3622 67.4329 37.9012 67.4282 37.4425 67.4282Z" fill="#F7FCF8"/>
<path d="M45.4211 61.8126C47.0104 61.801 48.602 61.8126 50.1936 61.8033C50.9928 65.239 51.8292 68.6678 52.5752 72.1174C51.5048 72.1498 50.4322 72.1406 49.3665 72.0131C49.2229 71.2069 49.0653 70.4007 48.9657 69.5875C48.1989 69.569 47.4297 69.569 46.6652 69.5968C46.5355 70.4424 46.3826 71.2834 46.2204 72.122C45.1918 72.122 44.1631 72.1243 43.1345 72.1197C43.8573 68.6747 44.6775 65.2529 45.4211 61.8126ZM46.8621 68.0724C47.4784 68.0678 48.0946 68.0678 48.7109 68.0678C48.4699 66.4322 48.2197 64.7942 47.8421 63.1818C47.4089 64.7896 47.1911 66.4414 46.8621 68.0724Z" fill="#F7FCF8"/>
<path d="M64.7147 61.801C66.7835 61.8102 68.8524 61.8102 70.9212 61.801C70.949 62.2388 70.9791 62.6767 71.0069 63.1145C69.9273 63.1215 68.85 63.1215 67.7704 63.1169C67.782 65.7927 67.7658 68.4662 67.7843 71.142C67.7241 71.4501 67.8886 71.8648 67.6106 72.0965C66.6515 72.1706 65.69 72.1034 64.7309 72.1312C64.6799 68.6886 64.7124 65.2436 64.7147 61.801Z" fill="#F7FCF8"/>
<path d="M70.2866 72.1197C71.065 68.6747 71.818 65.2182 72.6821 61.7941C74.2366 61.8149 75.7935 61.8126 77.3503 61.7964C77.8739 63.7054 78.2422 65.656 78.7241 67.5766C79.0624 69.0941 79.5025 70.5883 79.7249 72.129C78.6963 72.1197 77.6677 72.1174 76.6391 72.1336C76.4537 71.2787 76.2267 70.4308 76.1363 69.5597C75.4135 69.4948 74.6791 69.3975 73.9563 69.5018C73.7015 70.3613 73.5648 71.2509 73.3794 72.1266C72.3485 72.1197 71.3176 72.122 70.2866 72.1197ZM74.9896 63.154C74.5656 64.7687 74.3849 66.4321 74.042 68.0631C74.6838 68.0654 75.3255 68.0654 75.9672 68.0677C75.6012 66.4368 75.4367 64.7664 74.9896 63.154Z" fill="#F7FCF8"/>
<path d="M81.0987 64.2104C81.0755 63.4042 81.1172 62.598 81.1914 61.7964C82.8733 61.8265 84.5576 61.7871 86.2395 61.8103C86.9507 61.8659 87.743 61.8844 88.3269 62.3501C88.7972 62.7462 88.7022 63.4088 88.7253 63.9556C88.6975 65.0352 88.7763 66.1217 88.679 67.199C88.5979 67.8129 88.0118 68.2114 87.4419 68.3156C86.3901 68.5404 85.3105 68.4639 84.2448 68.4709C84.2494 69.657 84.2471 70.8409 84.2587 72.027C83.2347 72.0317 82.0578 72.3977 81.1288 71.9135C81.0593 69.3466 81.1334 66.7773 81.0987 64.2104ZM84.2471 63.0845C84.2494 64.4722 84.2564 65.8576 84.2378 67.243C84.8263 67.2476 85.4217 67.2731 86.0055 67.1735C86.2696 65.8599 86.0356 64.4931 86.0959 63.1563C85.4773 63.1262 84.861 63.1076 84.2471 63.0845Z" fill="#F7FCF8"/>
<path d="M90.7038 70.0045C90.7617 67.2707 90.676 64.5347 90.7432 61.801C93.2313 61.8102 95.7195 61.8079 98.2077 61.8033C98.2447 64.8405 98.2192 67.88 98.2216 70.9173C98.4138 70.9173 98.8031 70.9196 98.9953 70.9196C98.9953 71.7281 98.9953 72.539 98.9953 73.3475C97.9829 73.3429 96.9705 73.3429 95.9581 73.3475C95.9558 72.9374 95.9558 72.5297 95.9581 72.1196C94.6608 72.122 93.3657 72.122 92.0707 72.1196C92.0707 72.5297 92.0707 72.9374 92.0707 73.3475C91.0583 73.3452 90.0459 73.3429 89.0334 73.3475C89.0334 72.5552 89.0334 71.7652 89.0334 70.9752C89.6729 70.9219 90.6714 70.8524 90.7038 70.0045ZM93.8221 63.1192C93.8175 65.4127 93.8522 67.704 93.8128 69.9975C93.8406 70.3914 93.4978 70.6439 93.2939 70.9335C94.0677 70.9126 94.8391 70.9196 95.6129 70.9196C95.6291 68.3202 95.6083 65.7185 95.6245 63.1192C95.0222 63.1215 94.4221 63.1215 93.8221 63.1192Z" fill="#F7FCF8"/>
<path d="M23.0116 77.279C48.338 77.2929 73.6644 77.2929 98.9907 77.279C98.993 77.6288 98.9954 77.9763 99 78.3285C73.6667 78.3192 48.3333 78.3192 23 78.3285C23.0046 77.9763 23.0069 77.6265 23.0116 77.279Z" fill="#F7FCF8"/>
</g>
<defs>
<clipPath id="clip0_273_707">
<rect width="120" height="120" fill="white"/>
</clipPath>
</defs>
</svg>
