<svg width="120" height="120" viewBox="0 0 120 120" fill="none" xmlns="http://www.w3.org/2000/svg">
<rect width="120" height="120" fill="#36765B"/>
<path fill-rule="evenodd" clip-rule="evenodd" d="M34 29.2876C34.0046 29.2848 34.0046 30.1198 34.0046 30.1198C34.2473 30.3913 35.0186 29.8291 36.6974 30.729C40.2753 32.6635 39.3938 37.0657 39.3938 40.9702V75.1523C39.3938 77.2307 39.6692 81.5717 39.0256 83.2263C37.5736 86.958 34.0046 86.6914 34.0046 86.6914V87.9165L49.5839 87.9335L49.62 86.5268C46.5703 86.488 42.6995 86.114 42.49 81.6515C42.2872 77.3288 42.424 45.607 42.6475 45.178L46.858 57.087C49.0746 63.411 52.7057 75.8076 56.1874 80.6101C65.6948 93.7246 82.383 87.7428 85.469 75.446C87.238 68.3971 84.4508 61.8176 79.1309 57.8337C76.636 55.9653 74.3807 55.6447 73.8143 55.0326C74.4511 54.6837 75.3367 54.4169 75.9857 54.0693C76.7737 53.6473 77.4488 53.2083 78.0988 52.7177C85.3593 47.2378 84.7947 34.9616 75.9654 30.5034C72.1738 28.589 68.5476 29.0515 63.7596 29.0699C63.7423 29.4872 63.771 30.0686 63.7481 30.0166C63.7481 30.0166 64.648 30.0474 65.8052 30.5588C69.0636 31.9987 68.9057 35.0831 68.9053 38.1579C68.9045 44.0857 69.0877 80.1653 68.762 80.8553C68.2313 79.993 58.5056 50.2424 57.8962 48.4128C54.6565 38.6879 53.9107 30.4012 44.7296 29.1532C44.2284 29.085 34.7943 28.7798 34.0002 29.2876H34Z" fill="white"/>
</svg>
