<svg width="120" height="120" viewBox="0 0 120 120" fill="none" xmlns="http://www.w3.org/2000/svg">
<rect width="120" height="120" fill="#1E4022"/>
<path d="M61.6044 51.1577C62.0366 51.0676 62.4846 51.1042 62.9168 51.0092C63.3441 50.9964 63.7726 50.9983 64.2006 51.0068C64.5013 51.0713 64.8087 51.0902 65.1142 51.1236C66.2422 51.3172 67.319 51.7865 68.2387 52.4664C69.8664 53.5846 70.9267 55.4765 71.0351 57.4456C69.9315 57.4578 68.8273 57.4456 67.7231 57.4523C67.6172 57.4481 67.4924 57.4645 67.4182 57.372C67.2563 56.5088 66.821 55.6713 66.1131 55.1326C65.6414 54.7588 65.1228 54.4332 64.5494 54.2402C64.0892 54.0588 63.5858 54.1185 63.1031 54.1148C62.1559 54.1653 61.2502 54.6079 60.5837 55.2762C59.9056 55.9397 59.5117 56.8339 59.2859 57.7427C59.1836 58.0403 59.2086 58.3617 59.1295 58.6643C59.0844 59.0003 59.1082 59.3411 59.1002 59.679C59.1106 60.0265 59.0753 60.3814 59.1678 60.7211C59.2183 61.4552 59.4429 62.1814 59.8276 62.8108C60.2775 63.6106 60.9714 64.2875 61.8187 64.6533C62.5656 64.9717 63.3965 65.0569 64.1987 64.9479C65.1179 64.7951 66.0078 64.3368 66.5983 63.6051C67.0201 63.0567 67.3068 62.3956 67.3908 61.7078C67.5217 61.6907 67.6531 61.6707 67.7864 61.6719C68.8973 61.6755 70.0082 61.6737 71.1191 61.6725C71.1337 61.9251 71.1136 62.1765 71.0424 62.4194C70.8896 63.5272 70.3308 64.545 69.5797 65.3612C69.1907 65.7642 68.8127 66.1824 68.372 66.5312C67.3482 67.432 66.0358 67.9878 64.6857 68.1491C64.3777 68.1454 64.0819 68.2538 63.7733 68.2361C63.3648 68.2221 62.9485 68.2751 62.5473 68.1777C61.0073 68.1156 59.4405 67.6706 58.2182 66.7028C56.8669 65.5992 55.907 64.0446 55.4572 62.364C55.3336 61.8612 55.1924 61.3584 55.1674 60.8392C55.1558 60.6547 55.0828 60.4794 55.0895 60.2932C55.0761 59.6236 55.0639 58.9534 55.0998 58.2844C55.1869 57.957 55.1668 57.6106 55.266 57.2856C55.4584 56.3208 55.8607 55.4034 56.4116 54.5896C57.1147 53.5816 57.948 52.618 59.0424 52.0233C59.827 51.5625 60.7188 51.33 61.6044 51.1577Z" fill="#FEFFFF"/>
<path d="M34.8866 51.2436C35.1265 51.2052 35.3681 51.2953 35.5605 51.4347C35.9543 51.7445 35.9586 52.411 35.5836 52.7367C35.2829 53.0149 34.7868 53.0057 34.4697 52.7586C34.1799 52.5218 34.0436 52.0823 34.2237 51.7403C34.3333 51.4682 34.6151 51.3111 34.8866 51.2436ZM34.9018 51.3793C34.603 51.4712 34.3011 51.7238 34.3443 52.069C34.2828 52.4317 34.5896 52.7385 34.9225 52.811C35.2445 52.8676 35.5483 52.621 35.6676 52.3356C35.7571 52.0422 35.6719 51.6903 35.4065 51.5169C35.2555 51.4304 35.0826 51.3209 34.9018 51.3793Z" fill="#FEFFFF"/>
<path d="M15.0015 51.3148C16.096 51.3075 17.1904 51.3099 18.2843 51.3136C18.2977 54.2037 18.2867 57.0938 18.2904 59.9833C18.2867 62.63 18.2971 65.2766 18.2855 67.9233C17.1911 67.9287 16.0966 67.9342 15.0022 67.9208C14.9985 62.3853 15.0003 56.8497 15.0015 51.3148Z" fill="#FEFFFF"/>
<path d="M19.8984 51.3117C21.526 51.3123 23.1531 51.3063 24.7808 51.3148C24.7765 56.8503 24.7826 62.3859 24.7777 67.9214C23.1519 67.9342 21.526 67.9269 19.8996 67.9251C19.8886 62.3877 19.8917 56.8491 19.8984 51.3117Z" fill="#FEFFFF"/>
<path d="M26.5499 51.3129C28.7455 51.3099 30.9417 51.3087 33.1373 51.3135C33.1465 56.8509 33.1446 62.3883 33.1385 67.9257C30.9423 67.9306 28.7461 67.9263 26.5499 67.9275C26.5432 62.3895 26.5426 56.8509 26.5499 51.3129Z" fill="#FEFFFF"/>
<path d="M39.8701 51.3166C42.3993 51.3044 44.929 51.3123 47.4582 51.3123C47.947 51.3172 48.4425 51.2983 48.9203 51.4195C49.7755 51.5217 50.6101 51.8084 51.3496 52.2503C52.2889 52.8067 53.093 53.6522 53.4509 54.6979C53.6335 55.3048 53.7406 55.9391 53.7175 56.5752C53.7035 56.9221 53.7498 57.2782 53.6518 57.6167C53.5757 58.4682 53.2512 59.2961 52.7369 59.9784C52.2219 60.6632 51.4939 61.1672 50.7075 61.4947C49.8267 61.8825 48.8631 62.0535 47.9068 62.0925C47.7991 62.1107 47.6938 62.1424 47.5842 62.143C46.2724 62.1527 44.9595 62.1296 43.6483 62.1546C43.6416 63.8656 43.6483 65.5761 43.6447 67.2871C43.641 67.5221 43.6629 67.7607 43.6069 67.992C42.3627 67.9926 41.1192 67.9957 39.8756 67.9902C39.8555 64.6515 39.8725 61.3133 39.8671 57.9746C39.8689 55.7553 39.8622 53.5359 39.8701 51.3166ZM43.6447 54.5245C43.6477 55.9732 43.6428 57.4225 43.6471 58.8712C43.9405 58.9284 44.24 58.8986 44.537 58.9047C45.5511 58.8949 46.5677 58.9376 47.5793 58.8511C47.9847 58.7665 48.4078 58.6996 48.7584 58.4622C49.3598 58.1359 49.6209 57.4097 49.6069 56.7572C49.6325 56.157 49.4955 55.4874 49.011 55.0863C48.5898 54.7052 48.0109 54.6237 47.474 54.5305C46.578 54.4636 45.6783 54.4983 44.7805 54.4904C44.4019 54.4971 44.0202 54.4642 43.6447 54.5245Z" fill="#FEFFFF"/>
<path d="M72.8319 51.3166C74.2399 51.3026 75.6484 51.3148 77.0563 51.3111C77.4222 51.8857 77.701 52.5103 78.0364 53.1025C78.6986 54.3498 79.3658 55.594 80.0268 56.8412C80.1017 56.98 80.1626 57.1279 80.2636 57.2509C80.3586 57.2935 80.4767 57.2831 80.5759 57.2545C80.8394 56.8369 81.047 56.3871 81.2826 55.9537C82.0934 54.4046 82.937 52.8725 83.7308 51.3148C85.1095 51.3063 86.4882 51.3123 87.8675 51.3117C87.8407 51.5485 87.6995 51.7445 87.5875 51.9472C86.3999 54.1367 85.2045 56.322 84.012 58.509C83.8464 58.7744 83.6541 59.0885 83.7935 59.4087C85.2379 61.9896 86.6635 64.5821 88.1074 67.1636C88.2401 67.4119 88.405 67.6481 88.4756 67.9245C87.0726 67.9336 85.6695 67.922 84.2664 67.93C83.6882 66.9542 83.1939 65.9304 82.6479 64.9357C82.0136 63.736 81.3623 62.5448 80.7323 61.3432C80.501 61.3395 80.2703 61.3383 80.0402 61.3413C79.4772 62.3457 78.9677 63.3799 78.4065 64.3855C77.7789 65.5304 77.1757 66.6888 76.5584 67.8393C76.5018 67.9592 76.3588 67.916 76.2541 67.9281C74.9368 67.9245 73.6202 67.9324 72.303 67.9245C72.3468 67.6092 72.5647 67.3614 72.7072 67.0863C73.3938 65.8214 74.1242 64.5803 74.8145 63.3172C75.5583 61.9884 76.2949 60.6553 77.0472 59.3314C77.189 59.0581 76.9389 58.8195 76.8238 58.5912C75.59 56.3768 74.3653 54.1574 73.132 51.943C73.0206 51.7397 72.8855 51.5449 72.8319 51.3166Z" fill="#FEFFFF"/>
<path d="M90.955 51.3136C95.2348 51.3099 99.514 51.3081 103.794 51.3142C103.791 52.3721 103.802 53.4306 103.788 54.4886C101.082 54.4922 98.3751 54.4892 95.6682 54.4904C95.3706 54.4922 95.0711 54.4727 94.7771 54.5257C94.782 55.524 94.7686 56.5228 94.7838 57.5217C95.8289 57.5461 96.8747 57.5254 97.9204 57.5321C98.5285 57.54 99.1384 57.5096 99.7459 57.5613C100.045 57.5741 100.352 57.5449 100.644 57.6289C101.394 57.6776 102.145 57.8729 102.798 58.2546C103.611 58.7458 104.301 59.4678 104.686 60.3425C104.941 60.9804 105.026 61.6731 104.994 62.3573C105.055 63.7323 104.658 65.1725 103.699 66.1909C102.821 67.0784 101.627 67.6037 100.407 67.807C99.8512 67.9299 99.2778 67.9208 98.7117 67.9269C96.1266 67.9281 93.5414 67.9287 90.9562 67.9263C90.9508 62.3889 90.9532 56.8509 90.955 51.3136ZM94.7771 60.3723C94.7795 61.7747 94.7728 63.1778 94.7813 64.5803C94.9122 64.6009 95.0431 64.6277 95.1782 64.6259C96.2946 64.6241 97.4116 64.6253 98.5291 64.6253C99.0197 64.646 99.5189 64.523 99.9401 64.2686C100.437 63.9423 100.781 63.3963 100.882 62.8126C100.982 62.4839 100.969 62.1223 100.851 61.7997C100.726 61.3389 100.37 60.9877 99.9967 60.7144C99.5262 60.4119 98.9552 60.3418 98.408 60.3345C97.515 60.3352 96.6221 60.3352 95.7291 60.3352C95.4114 60.337 95.0918 60.3169 94.7771 60.3723Z" fill="#FEFFFF"/>
<path d="M34.76 51.6039C34.995 51.5942 35.2567 51.5534 35.4357 51.7433C35.4363 51.8121 35.4369 51.8809 35.4369 51.9502C35.2671 51.8395 35.107 51.6842 34.8872 51.7165C34.6827 51.89 34.6291 52.2747 34.8872 52.4232C35.0735 52.5352 35.2512 52.3502 35.4125 52.2747C35.3839 52.3629 35.3547 52.4512 35.3261 52.5395C35.1575 52.5851 34.9791 52.6046 34.8075 52.565C34.6541 52.467 34.5707 52.2911 34.5196 52.1231C34.5171 51.9259 34.6504 51.7579 34.76 51.6039Z" fill="#FEFFFF"/>
</svg>
