<svg width="120" height="120" viewBox="0 0 120 120" fill="none" xmlns="http://www.w3.org/2000/svg">
<rect width="120" height="120" fill="#C2A368"/>
<path fill-rule="evenodd" clip-rule="evenodd" d="M50.5732 36.9078C47.9581 37.3739 43.7561 40.3823 42.1414 42.3004C40.4169 44.3493 36.9469 44.5994 34.3696 45.5998C33.0278 46.2032 32.0411 46.6818 30.8395 47.5925C29.2646 48.786 27.8479 50.0241 26.7326 51.8253C26.2522 52.6011 25.0327 54.655 24.9125 55.6078C25.7758 55.9662 32.2048 55.7543 33.6486 55.7685C34.1527 55.7734 35.3768 55.6908 35.5647 55.709C37.6635 55.912 39.9068 55.6369 42.2057 55.8231C42.0099 55.607 42.3979 55.7756 41.9333 55.5826C42.1636 54.763 41.9632 54.5263 41.9847 53.6266C42.0735 49.9101 42.269 48.9227 45.2329 48.9365C45.8318 48.9393 46.7078 48.8942 47.1808 48.9162C50.3432 49.0627 57.6365 48.7822 59.9231 49.0069C59.8227 49.2919 59.2734 49.8526 58.9772 50.2658C57.6771 52.0788 55.5416 54.454 54.3593 56.0729C54.1053 56.4207 54.0727 56.4277 53.7684 56.7386L51.9563 58.9968C51.881 59.1092 51.8964 59.0816 51.8416 59.1829C51.7556 59.3422 51.8083 59.2348 51.7481 59.3867C51.2822 59.7531 50.3981 60.8888 50.0766 61.4188L48.7436 62.9921C48.2372 63.6245 47.8855 64.0698 47.4522 64.6263C45.4097 67.2491 42.8674 70.1636 40.6893 72.6756C40.4463 72.9561 40.2677 73.2006 40.0346 73.4801C39.1174 74.5802 38.6867 74.799 37.9128 75.8466L36.5548 77.4142C34.7207 79.2392 32.8548 80.1435 30.533 78.1445C30.1677 77.83 29.5451 76.8696 29.3598 76.2876C28.7779 74.4582 28.9454 73.0393 28.362 71.3432L13.0893 71.3089C11.9657 73.6977 16.2228 78.3653 17.7827 79.8463C24.7503 83.3903 30.6964 80.7317 35.2688 82.3663C35.7823 82.5498 35.9399 82.7039 36.5769 82.7547C38.3611 82.8967 39.0829 83.0891 41.2713 82.9863C42.1553 82.9448 43.5974 82.767 44.3992 82.6497L46.9931 82.0584C47.5236 81.8129 47.4879 81.7183 48.1498 81.5794C48.426 81.5214 48.4716 81.5148 48.7425 81.3692C49.2392 81.102 50.6083 80.4687 50.9718 80.1565C51.177 79.9802 50.875 80.1865 51.2192 79.9679C57.0006 76.3 61.5847 92.0414 81.0818 79.0435C94.8818 69.0812 86.2447 56.0267 70.6911 57.19C70.7053 57.1684 70.7329 57.1133 70.7405 57.1301C70.748 57.147 70.78 57.0835 70.7903 57.071L71.0642 56.6507C71.2512 56.2742 70.878 56.6846 71.1902 56.5023C71.5385 56.2991 71.3338 56.3605 71.599 56.0963C71.6162 56.0792 71.6402 56.0601 71.658 56.0437L71.7788 55.9496C71.7952 55.9357 71.8207 55.9185 71.8367 55.9046L73.4526 53.7684C73.4673 53.7516 73.4885 53.7289 73.5034 53.7124L75.4142 51.3839C75.7496 50.8613 76.1422 50.557 76.3403 50.3138C76.4999 50.1177 76.6493 49.9054 76.8104 49.7255C78.2477 48.1187 91.1639 49.0717 94.0743 48.9934C102.207 48.9934 104.355 41.8804 105.837 36.6753C100.252 36.5758 50.9822 37.2148 50.5733 36.9079L50.5732 36.9078ZM31.4874 53.6075L36.9301 53.6623C36.879 51.899 37.6815 49.806 37.7627 49.0243C37.5125 49.0873 37.4357 49.1178 37.2244 49.1769L36.6729 49.3526C35.2295 49.9474 33.5927 50.8781 32.5826 52.0478C32.3007 52.3744 31.6472 53.1463 31.4874 53.6075ZM47.5252 43.6155C48.0836 43.7684 59.5229 43.7433 61.409 43.7199C64.9404 43.7595 64.1644 43.991 65.4702 42.3512C67.0238 40.2897 67.0238 40.2897 67.0238 40.2897L55.5647 40.2173C52.9713 40.2773 51.7186 40.4255 49.8483 41.7579L47.8402 43.4165C47.511 43.7129 47.6837 43.6775 47.5252 43.6155ZM71.2724 43.7352L95.8788 43.7858C96.1516 43.0874 97.8793 40.7032 97.8838 40.357L75.2832 40.2873C74.2163 40.2972 74.0365 39.885 72.9885 41.5083C72.5958 42.1164 71.5058 43.1443 71.2724 43.7352ZM66.6146 49.1661C66.3587 49.6872 63.0867 53.4987 62.4296 54.3412C62.2008 54.6345 62.0293 54.8612 61.7227 55.2033L58.9751 58.6175C58.7111 59.0911 57.3832 60.5958 56.9355 61.1631C56.6997 61.4619 56.5237 61.7608 56.2622 62.0518C56.0245 62.3161 55.779 62.6504 55.6181 62.8242C55.7825 62.884 58.2671 62.6112 58.8075 62.6103C59.5134 62.6092 59.5635 62.4182 59.9083 61.9511C60.1715 61.5946 60.4803 61.3275 60.7981 60.9551L68.791 51.1013C69.3551 50.5689 70.0276 49.8004 70.5185 49.0241C69.6551 48.9952 67.1311 48.8615 66.6144 49.1659L66.6146 49.1661ZM66.3692 63.5524C66.322 64.0036 66.5595 63.8509 67.0025 63.9836C67.2013 64.0431 67.5923 64.2376 67.7271 64.3302C69.2133 65.0862 70.6474 66.0571 71.6921 67.3605C72.2675 68.0784 72.657 68.5868 73.052 69.4512C73.803 71.0943 74.3247 71.9253 73.4147 72.0006L67.4478 71.9742C66.5154 71.9459 66.6265 72.0697 66.3521 70.6066C65.915 68.9794 65.581 68.4085 64.1505 67.3735C63.7759 67.1025 63.816 67.0631 63.4201 67.2424L56.2492 76.1708C56.3032 76.7512 57.8331 77.403 58.2855 77.6365C61.2628 79.1725 63.6509 79.4531 67.1291 79.1828C70.0883 78.9527 72.8011 78.0924 75.1332 76.5399C78.2926 74.4368 80.6608 71.5455 79.8702 67.334C79.0003 62.6984 74.5972 61.0995 70.4888 60.9387C69.8408 60.9132 69.2362 61.013 68.606 60.9618C68.209 61.1397 67.7392 61.9132 67.4538 62.2886C67.0909 62.766 66.6903 63.0757 66.369 63.5524H66.3692ZM52.6582 70.1874L52.6905 70.5753C52.9767 70.4537 53.4776 69.7365 53.7487 69.4501C54.1379 69.0392 54.47 68.6807 54.783 68.3012C55.1848 67.8138 55.4469 67.4905 55.7848 67.1062L56.7139 65.8825C55.1734 66.0076 54.7783 66.4456 53.9508 67.2591C53.3674 67.8325 52.6094 69.0663 52.6581 70.1874H52.6582ZM40.961 79.8291C40.9998 79.9264 40.9182 80.1422 41.6122 79.9821C42.443 79.7904 42.8391 79.5512 43.5784 79.2186C45.123 78.5235 46.3799 77.4903 47.6337 76.3766C49.9864 74.2868 49.6358 74.8806 49.2033 73.368C49.1254 73.0955 49.0318 72.2858 48.8397 72.0467L45.0622 76.1089C44.4421 76.8248 41.6446 79.5613 40.961 79.829V79.8291ZM27.1783 79.6151C26.875 79.252 26.5113 78.9741 26.1575 78.5529C25.9772 78.3384 25.8428 78.26 25.6605 77.9999C25.4712 77.73 25.3878 77.6168 25.1912 77.3342C24.6902 76.6138 24.3979 75.9117 24.1387 75.1691C23.791 74.1727 24.7519 74.0957 18.6675 74.2623C18.9265 75.465 20.8342 77.3409 21.9042 78.0077C23.1831 78.8046 25.5325 79.6324 27.1784 79.6151H27.1783Z" fill="white"/>
</svg>
