<svg width="120" height="120" viewBox="0 0 120 120" fill="none" xmlns="http://www.w3.org/2000/svg">
<rect width="120" height="120" fill="url(#paint0_linear_273_732)"/>
<path fill-rule="evenodd" clip-rule="evenodd" d="M41 69.7478C41 74.1788 55.1927 75.0133 58.8198 75.0395L64.3194 74.7315C67.2853 74.6021 76.9428 73.1618 76.9428 69.8988C76.9428 67.7489 72.2419 66.4005 70.2486 65.9839C63.2363 64.5183 50.3285 64.2223 43.8221 67.1811C42.9433 67.5806 41 68.585 41 69.7478Z" fill="#EE7938"/>
<path fill-rule="evenodd" clip-rule="evenodd" d="M41 82.5819C41 83.7559 42.676 84.2457 43.5419 84.5274C44.6562 84.8897 45.8287 85.0472 47.1522 85.2359C52.5721 86.0086 69.3238 86.1784 74.4008 84.5274C74.9764 84.3402 76.9428 83.6517 76.9428 82.7328C76.9428 81.8577 76.4892 81.5172 75.9086 81.2173C75.2877 80.8967 74.7391 80.662 73.9758 80.4644C69.8785 79.4042 63.5333 79.2487 59.1214 79.2576C55.2457 79.2656 47.8871 79.5512 44.2066 80.406C43.0315 80.6789 41 81.2832 41 82.5819Z" fill="#EE7938"/>
<path fill-rule="evenodd" clip-rule="evenodd" d="M41 91.6411C41 92.3936 42.2515 92.4947 43.0104 92.6171C43.7948 92.7437 45.1109 92.8559 45.8978 92.8526C48.0116 92.8435 49.7702 93 51.9908 93H65.952C67.5809 93 73.2558 92.8675 74.8057 92.6393C78.281 92.1273 77.3491 90.6961 73.9645 90.4411C69.4414 90.1006 61.3283 90.1313 56.4465 90.1313C53.7733 90.1313 44.8595 90.2046 42.2908 90.6885C41.6579 90.8078 41 90.9621 41 91.6411Z" fill="#EE7938"/>
<path d="M58.9714 60.5392C68.8967 60.5392 76.9428 52.3596 76.9428 42.2696C76.9428 32.1796 68.8967 24 58.9714 24C49.0461 24 41 32.1796 41 42.2696C41 52.3596 49.0461 60.5392 58.9714 60.5392Z" fill="#EE7938"/>
<defs>
<linearGradient id="paint0_linear_273_732" x1="92.5" y1="7" x2="-65.5" y2="227.5" gradientUnits="userSpaceOnUse">
<stop stop-color="#2147CB"/>
<stop offset="1" stop-color="#53A3F3"/>
</linearGradient>
</defs>
</svg>
