<svg width="120" height="120" viewBox="0 0 120 120" fill="none" xmlns="http://www.w3.org/2000/svg">
<path fill-rule="evenodd" clip-rule="evenodd" d="M0 120H120V0.00012207H0V120Z" fill="#862031"/>
<path fill-rule="evenodd" clip-rule="evenodd" d="M46.0449 28.5003C47.7395 28.7326 49.1204 28.4045 50.1905 29.4537C51.3033 30.5449 54.3178 38.0734 55.2208 39.8895C55.7639 40.9816 56.2524 42.1922 56.7994 43.3798C57.3736 44.6263 61.4337 53.3501 61.5274 53.9593C60.2756 54.1275 58.9656 54.0986 57.6399 54.2027C56.3516 54.3039 55.2772 54.5515 54.0774 54.7484C52.0551 55.0802 49.5992 56.0217 47.7811 56.7503C42.1925 58.9897 35.4945 64.9011 31.9993 70.0955L31.1676 71.3107C29.7416 73.8358 28.8026 74.9283 27.3396 78.0433C26.9079 78.9627 25.0094 83.1087 25 84.0446L40.6993 84.0444L40.7453 82.1047C40.742 81.2417 40.6125 81.4714 38.7622 81.1144C36.0001 80.5814 36.1332 81.2888 36.61 78.0331C36.9081 75.997 38.6302 73.2308 39.5572 71.5233L43.6018 66.1236C46.8737 62.772 48.5373 61.5622 52.6484 59.5603C55.5349 58.1547 59.6612 57.2558 63.0766 57.2299L64.543 60.4174C66.0564 63.5999 67.5594 67.3281 69.029 70.2707C71.1989 74.6159 72.4692 78.6366 76.2628 82.2117C79.1811 84.9617 83.5761 85.652 87.5296 84.3959C90.9701 83.3028 94.016 80.4544 93.9999 76.4904C93.9884 73.6462 92.8979 71.0051 91.8629 69.0613C89.6816 64.9645 86.3081 61.6842 82.4525 59.3059C80.6772 58.2108 77.947 56.9141 75.9718 56.2539L74.5175 55.774C74.0703 55.6005 74.5922 55.7654 74.2351 55.6714C70.7132 54.7443 71.9086 55.9182 70.2528 52.3514L59.7869 29.2898C59.2396 28.1016 58.89 27.0861 58.3237 26.0001L46.0325 26.0074L46.0449 28.5003ZM72.8891 57.9438L73.7622 60.0689C75.8024 63.7419 79.5733 73.7455 81.269 75.6893C83.052 77.7332 84.9183 79.5409 87.7427 79.8434C89.2947 80.0097 90.8521 79.2588 91.6579 78.5219C93.9758 76.4024 92.8208 73.0435 91.7519 70.691C89.2158 65.1101 82.8402 60.6245 77.0194 58.981C76.1218 58.7275 73.82 57.9304 72.8891 57.9438Z" fill="white"/>
</svg>
