<svg width="120" height="120" viewBox="0 0 120 120" fill="none" xmlns="http://www.w3.org/2000/svg">
<rect width="120" height="120" fill="#8B3FFD"/>
<path fill-rule="evenodd" clip-rule="evenodd" d="M102 60C102 76.5685 88.8372 90 72.6 90C59.0688 90 47.6726 80.6722 44.25 67.9745V83.5714H32.7L18 38.5714H44.25V52.0255C47.6726 39.3278 59.0688 30 72.6 30C88.8372 30 102 43.4315 102 60ZM83.1 60C83.1 54.0827 78.399 49.2857 72.6 49.2857C66.801 49.2857 62.1 54.0827 62.1 60C62.1 65.9173 66.801 70.7143 72.6 70.7143C78.399 70.7143 83.1 65.9173 83.1 60Z" fill="white"/>
<rect width="120" height="120" fill="#8B3FFD"/>
<path fill-rule="evenodd" clip-rule="evenodd" d="M88 59.5C88 71.3741 78.598 81 67 81C57.3348 81 49.1947 74.3151 46.75 65.215V76.3929H38.5L28 44.1429H46.75V53.785C49.1947 44.6849 57.3348 38 67 38C78.598 38 88 47.6259 88 59.5ZM74.5 59.5C74.5 55.2592 71.1421 51.8214 67 51.8214C62.8579 51.8214 59.5 55.2592 59.5 59.5C59.5 63.7408 62.8579 67.1786 67 67.1786C71.1421 67.1786 74.5 63.7408 74.5 59.5Z" fill="white"/>
</svg>
