<svg width="120" height="120" viewBox="0 0 120 120" fill="none" xmlns="http://www.w3.org/2000/svg">
<path fill-rule="evenodd" clip-rule="evenodd" d="M0 120H120V0H0V120Z" fill="#FBC115"/>
<path fill-rule="evenodd" clip-rule="evenodd" d="M62.4392 30.5453C62.4821 32.3874 62.8602 32.8103 61.5762 34.1338C59.9707 35.7885 55.3149 38.6888 53.2104 40.1572C51.3972 41.4223 48.9733 42.9357 48.0404 44.5384C45.852 48.2978 46.0906 57.0142 46.0252 61.6989C45.9428 67.618 45.8558 72.6831 49.3708 77.4132C50.468 78.8898 52.7251 80.7835 54.9967 81.4436C60.6698 83.0922 66.3444 80.8802 69.012 77.4012C72.0565 73.4309 72.4909 67.1165 71.5729 61.3872C70.7122 56.0162 67.8128 52.4557 62.1668 51.759C58.967 51.3643 56.5264 51.8441 54.1516 53.169C51.2739 54.7745 50.8387 56.0803 49.7268 58.3991L48.6792 58.4529C48.613 57.0789 48.8485 54.2406 49.2663 53.1403C49.8053 51.7205 51.0428 50.6766 52.1447 49.9495C54.3781 48.476 57.4601 47.1279 60.056 45.8982C61.1494 45.3803 63.0258 44.4682 63.8939 43.8077C68.2651 40.482 66.0087 34.3094 64.8325 30L62.4392 30.5451V30.5453Z" fill="#020202"/>
<path fill-rule="evenodd" clip-rule="evenodd" d="M50.078 88.1728L50.1447 85.8403L49.5874 85.6961C40.0981 83.392 39.3149 76.9072 39.0818 68.1465C39.003 65.1857 38.9008 52.0124 39.1602 49.7667C39.9848 42.6271 38.8165 35.4282 50.6407 33.2579L51 30.0774C48.238 29.6175 42.82 31.3146 40.7711 32.3238C37.8235 33.7754 35.4737 35.7203 34.035 38.1523C30.7734 43.6665 30.0044 51.4576 30 58.9343C29.9957 66.2251 30.5067 74.626 33.6343 80.227C36.3245 85.0448 42.2777 89.1871 50.024 88.9935L50.0779 88.1728L50.078 88.1728Z" fill="#020202"/>
<path fill-rule="evenodd" clip-rule="evenodd" d="M69 85.7388L69.099 88.9405C72.1308 89.332 76.8569 87.7059 78.9152 86.5579C81.6359 85.0405 83.7768 82.8918 85.2131 80.4622C88.3269 75.1948 89.0037 66.5512 89 59.593C88.9961 52.3565 88.3664 44.0688 85.3485 38.7111C82.7182 34.0414 76.7748 29.6978 69.1363 30.0165C69.2095 30.7908 69.3536 31.3983 69.4787 32.1524C69.857 34.4335 69.969 32.2966 74.1071 34.7422C76.1862 35.971 77.5985 37.7015 78.5026 40.0827C80.1395 44.3947 79.9998 52.7433 79.9987 57.9187C79.9974 63.838 80.2601 70.8808 79.1722 76.3813C78.1238 81.6828 74.3364 84.7742 69.0001 85.7387L69 85.7388Z" fill="#020202"/>
<path fill-rule="evenodd" clip-rule="evenodd" d="M58.2902 55.0885C57.3177 55.2629 56.7208 55.9214 56.2645 56.8482C54.5575 60.3145 54.785 70.9954 55.7342 74.6025C56.2491 76.5595 57.487 78.5007 59.7988 77.8834C61.5345 77.42 62.4445 74.7429 62.6081 73.0502C62.6653 72.4583 62.8194 71.8649 62.852 71.4287C63.0674 68.5373 63.1473 60.4767 62.38 58.3902C61.7776 56.7519 61.415 54.5278 58.2902 55.0885Z" fill="#FBC115"/>
</svg>
