<svg width="120" height="120" viewBox="0 0 120 120" fill="none" xmlns="http://www.w3.org/2000/svg">
<g clip-path="url(#clip0_273_1040)">
<path d="M120 0H0V120H120V0Z" fill="#01008A"/>
<path fill-rule="evenodd" clip-rule="evenodd" d="M31.6323 43.3388C32.352 44.4784 33.5695 42.3997 33.5661 47.0058L33.5693 81.4232C33.5734 83.0929 33.0466 83.8495 31.585 84.3191C30.9664 84.5178 31.0003 84.0345 31.0003 85.9975H49.0184L49.0383 84.238C48.3476 83.2496 46.9479 85.0569 46.9556 80.9949C46.9598 78.7338 46.8496 65.8075 46.9956 64.7309L49.6518 69.4987C52.3035 74.2512 55.0624 79.671 57.7486 84.238C57.6126 84.3644 57.8374 84.4166 57.0896 84.4178L57.0421 86H72.2581C72.2636 84.3559 72.365 84.5976 71.8881 84.4103C71.8057 84.3779 71.4312 84.3059 71.2993 84.271C70.905 84.1671 70.6718 84.0394 70.3351 83.8334C69.7326 83.4645 69.4629 83.0219 69.0652 82.2791C68.4409 81.1132 67.7394 79.8883 67.1164 78.7224C65.8385 76.3315 64.491 73.8578 63.1606 71.5282C62.123 69.7115 56.191 59.1098 55.2813 57.1805C55.9673 56.5896 56.7594 55.9761 57.4273 55.3989L70.5462 44.5208C71.625 43.6393 71.9297 43.7298 73.3915 43.2717L73.3883 41.8768L62.3525 41.8364L62.3244 43.4016C63.5106 43.4922 65.4262 43.9613 64.4865 45.3794C64.3524 45.5819 48.8005 58.626 46.9711 59.909C46.7484 57.6637 46.9583 49.7135 46.9539 46.44C46.9514 44.5466 46.9654 44.0442 48.7901 43.6752L48.8187 41.8719L31.6915 41.8367L31.6323 43.3388ZM34.9952 83.1464H37.3015L37.2973 43.9197H35.0146L34.9952 83.1464ZM48.3535 62.9423L56.9941 78.953C57.9415 80.6911 59.0716 82.6169 59.9101 84.3506L62.039 84.3518L50.0235 61.5631C49.6749 61.7802 48.6066 62.6001 48.3535 62.9423Z" fill="#FDFDFD"/>
<path fill-rule="evenodd" clip-rule="evenodd" d="M57.2641 57.5275L68.0904 57.5733C70.3984 57.5748 73.1572 57.2279 74.9632 58.3394C76.1612 59.0767 77.8516 60.8722 78.0607 62.7436C77.7188 62.3345 76.5285 61.3695 75.8414 60.9875C74.8126 60.4152 73.8883 60.0989 72.47 60.0989C68.2814 60.0989 62.5001 59.9909 58.5019 60.1158L60.3985 63.4417C61.1037 64.2756 64.8945 63.3331 67.5951 63.999C69.6669 64.51 70.9247 65.676 71.5628 67.5119C72.2827 69.5825 72.1248 71.8612 71.3007 73.7645C70.8899 74.7134 70.5156 75.338 69.9939 76.1237C68.8902 77.7858 68.7759 77.2666 69.3139 78.4704C70.3992 77.9617 71.6636 76.1417 72.2677 75.0064C74.4344 70.9353 74.0797 65.7915 70.7197 63.2786C70.0429 62.7722 69.3389 62.6054 68.709 62.0962C68.709 62.0962 70.0411 61.9727 71.0572 61.978C75.708 62.0024 76.9342 67.772 76.4589 71.1599C75.847 75.5215 73.6978 77.3512 70.3864 79.3339C70.3582 79.3507 70.3219 79.3727 70.2951 79.3899L70.0328 79.584L70.8047 80.8216C72.1249 80.5892 74.4464 79.5476 75.5046 78.9443C78.9528 76.979 85.0102 73.8942 86.9331 70.3299C89.5686 65.4454 87.7816 53.8825 78.686 53.8825H61.945C61.3744 53.8825 61.0713 54.3498 60.6667 54.6823L58.337 56.5904C58.0839 56.8107 58.0315 56.8364 57.7836 57.0344C57.5312 57.2361 57.4624 57.354 57.2641 57.5275ZM72.8093 55.6087C72.8093 55.6087 73.4704 55.9251 73.9882 56.0667C75.0379 56.3538 76.4669 57.3197 77.1397 57.9984C79.1069 59.9833 79.9014 62.3001 80.2379 65.1936C80.3537 66.1883 80.6752 67.0304 80.7635 68.1707C80.9265 70.2748 80.7074 72.4516 80.0034 74.1758C84.6162 72.2312 84.8427 55.5101 76.71 55.4357C75.913 55.4283 72.8093 55.6087 72.8093 55.6087Z" fill="#FDFDFD"/>
<path fill-rule="evenodd" clip-rule="evenodd" d="M39.6133 39.4798C40.6236 39.7086 72.207 39.5542 74.8718 39.5542C76.6367 39.5542 79.1096 39.4115 80.7905 39.5845C82.8861 39.8002 83.1909 40.7598 83.6788 42.575H84.9846L85.04 35.9297L39.6529 35.9304L39.6133 39.4798Z" fill="#FDFDFD"/>
<path fill-rule="evenodd" clip-rule="evenodd" d="M46.9266 33.5901C48.8934 33.7863 76.2967 33.6263 79.6751 33.6263C85.3604 33.6263 86.5645 32.8911 87.6437 36.6452H88.9341L89 30L46.9772 30.0004L46.9266 33.5901Z" fill="#FDFDFD"/>
</g>
<defs>
<clipPath id="clip0_273_1040">
<rect width="120" height="120" fill="white"/>
</clipPath>
</defs>
</svg>
