<svg width="120" height="120" viewBox="0 0 120 120" fill="none" xmlns="http://www.w3.org/2000/svg">
<g clip-path="url(#clip0_273_440)">
<rect width="120" height="119.909" transform="translate(0 0.0456543)" fill="#194281"/>
<path fill-rule="evenodd" clip-rule="evenodd" d="M0 119.954H120V0.0456543H0V119.954Z" fill="#194281"/>
<path d="M14.5098 46.0595C15.2881 45.9507 16.1828 45.9297 16.7703 46.5459C17.892 47.5054 17.6669 49.4951 16.3335 50.1532C14.9981 51.0975 12.8921 49.8595 13.0142 48.2532C12.8883 47.2765 13.617 46.3647 14.5098 46.0595Z" fill="white"/>
<path d="M21.4135 52.5339C23.3498 51.0688 25.8888 50.8494 28.2314 51.0192C30.3927 51.3168 32.5808 52.1333 34.105 53.7509C33.1512 54.554 32.1993 55.3629 31.2474 56.1679C30.4442 55.5384 29.5782 54.9584 28.59 54.6628C27.6801 54.3232 26.6919 54.4186 25.7419 54.4358C25.0438 54.4491 24.46 54.8879 23.9144 55.2732C23.9144 55.7234 23.8648 56.185 23.9717 56.6295C24.5897 57.2686 25.4978 57.4536 26.3219 57.6825C28.5996 58.1728 31.0642 58.4666 32.9814 59.9087C35.2419 61.6695 35.0512 65.4618 32.8917 67.2245C31.791 68.184 30.3298 68.5026 28.9506 68.8364C29.2195 69.6052 29.6392 70.4178 29.3836 71.2496C29.0765 72.066 28.5214 72.7566 28.0597 73.4872C27.6114 74.0919 27.2509 74.9427 26.3924 74.9999C26.3905 74.4067 26.4115 73.8134 26.4039 73.222C25.6485 72.7604 24.708 72.3407 24.4257 71.4231C24.1205 70.5743 24.4619 69.6948 24.8549 68.9394C23.8019 68.5598 22.6764 68.4034 21.6577 67.9284C20.7535 67.503 19.9103 66.9364 19.1854 66.2497C18.9546 66.0856 18.8421 65.6736 19.1339 65.5114C19.9561 64.8018 20.847 64.178 21.7226 63.5389C22.8977 64.5385 24.3379 65.397 25.927 65.3798C26.8789 65.3836 27.8365 65.4237 28.7865 65.3245C29.3321 65.2043 29.8319 64.8781 30.1791 64.4412C30.2954 63.951 30.2878 63.4359 30.2115 62.9419C29.7575 62.2398 28.8743 62.0262 28.1246 61.7877C25.8831 61.1964 23.4528 61.0247 21.4479 59.7657C20.1335 58.9625 19.5002 57.3773 19.5422 55.8836C19.6891 54.5807 20.3148 53.2893 21.4135 52.5339Z" fill="white"/>
<path d="M36.3177 51.5763C38.708 51.5515 41.0983 51.5725 43.4866 51.5668C44.1905 51.563 44.883 51.3436 45.5907 51.4447C46.6132 51.6221 47.6776 51.5706 48.6639 51.9388C49.9916 52.3508 51.2277 53.276 51.7199 54.6133C52.1396 55.7674 52.0824 57.1618 51.3365 58.1729C50.9778 58.7032 50.4742 59.1038 49.9859 59.5082C51.0999 60.0881 52.1739 60.9523 52.5287 62.2075C52.6432 63.4513 52.7195 64.7981 52.0423 65.9102C50.9683 67.9628 48.5284 68.7678 46.3576 68.9281C43.0116 68.9376 39.6656 68.9548 36.3216 68.9185C36.3063 63.1384 36.312 57.3564 36.3177 51.5763ZM40.3352 54.8117C40.3314 55.8456 40.3295 56.8776 40.3371 57.9115C42.1494 57.9287 43.9616 57.9192 45.7738 57.9192C46.327 57.8829 47.0004 57.9898 47.401 57.5109C47.9218 57.0703 47.8188 56.3187 47.733 55.7159C47.3953 55.0825 46.6342 54.7888 45.9474 54.804C44.0761 54.7983 42.2047 54.7888 40.3352 54.8117ZM40.3447 61.1507C40.3161 62.6024 40.3409 64.0541 40.3295 65.5077C42.3344 65.5459 44.3393 65.5325 46.3442 65.5172C47.7005 65.5573 48.847 64.1113 48.4598 62.797C48.2442 61.7573 47.1664 61.1679 46.1706 61.1507C44.2287 61.1354 42.2867 61.1469 40.3447 61.1507Z" fill="white"/>
<path d="M13.2564 51.5782C14.586 51.5592 15.9156 51.5534 17.2453 51.5821C17.2472 57.282 17.2643 62.9839 17.2376 68.6839C17.1728 68.743 17.043 68.8632 16.9801 68.9224C15.8889 68.9605 14.7978 68.9338 13.7066 68.9376C13.3594 68.9815 13.1725 68.5981 13.245 68.3005C13.2602 62.7264 13.2411 57.1523 13.2564 51.5782Z" fill="white"/>
<path d="M59.2797 51.5801C60.5884 51.5477 61.897 51.5744 63.2056 51.561C63.7875 52.595 64.1861 53.7167 64.6859 54.7906C66.6107 59.1515 68.5088 63.5237 70.4527 67.8731C70.5881 68.2127 70.6702 68.5694 70.7465 68.928C69.3348 68.949 67.9251 68.928 66.5134 68.9414C65.8019 67.6747 65.4757 66.2345 64.7375 64.9812C62.3567 64.9869 59.976 64.9716 57.5953 64.9888C56.9906 66.286 56.508 67.6328 55.9185 68.9357C54.5088 68.93 53.1009 68.9586 51.6931 68.9166C51.798 68.5751 51.9087 68.2356 52.0517 67.9075C54.4649 62.4669 56.8819 57.0264 59.2797 51.5801ZM58.9726 61.5303C60.3976 61.8756 61.897 61.6295 63.3525 61.6753C63.1217 60.7501 62.7135 59.8859 62.3472 59.0103C61.9504 58.0679 61.628 57.0951 61.2236 56.1527C60.3862 57.9077 59.8081 59.7734 58.9726 61.5303Z" fill="white"/>
<path d="M71.4085 51.5725C72.7095 51.6069 74.0277 51.4657 75.3172 51.6374C77.345 54.1593 79.2851 56.7556 81.2862 59.3003C82.1389 60.3552 82.8848 61.4941 83.8119 62.4861C83.7737 58.8482 83.7737 55.2085 83.7928 51.5687C85.0823 51.5649 86.3719 51.5573 87.6614 51.5745C87.6767 57.3164 87.6633 63.0603 87.6691 68.8022C86.4787 68.806 85.2845 68.8499 84.0961 68.7946C83.6516 68.4989 83.3769 68.0201 83.045 67.6138C81.0019 64.9545 78.9245 62.322 76.8757 59.6685C76.3607 59.0104 75.9162 58.2893 75.2791 57.7418C75.2752 61.4292 75.2867 65.1186 75.281 68.806C73.9895 68.8194 72.6961 68.8232 71.4047 68.8041C71.4028 63.0603 71.3913 57.3164 71.4085 51.5725Z" fill="white"/>
<path d="M90.0937 51.5668C91.3889 51.5649 92.6842 51.5629 93.9795 51.5687C94.0024 54.0619 93.9871 56.5533 93.9719 59.0466C94.9619 58.2663 95.6964 57.2305 96.6025 56.3644C98.1553 54.8364 99.5421 53.1425 101.129 51.6507C102.657 51.4542 104.244 51.6011 105.795 51.5916C105.305 52.532 104.428 53.1615 103.731 53.936C102.694 55.052 101.591 56.105 100.542 57.2095C100.225 57.4613 100.406 57.8829 100.593 58.1538C102.879 61.7001 105.215 65.212 107.468 68.7773C105.936 69.1169 104.346 68.8556 102.789 68.9376C100.887 66.2383 99.1873 63.3978 97.335 60.6642C96.2782 61.3071 95.5628 62.3601 94.6605 63.188C94.1722 63.5905 93.9928 64.2162 93.9871 64.8286C93.9814 66.1544 93.9948 67.4821 93.9871 68.8079C92.688 68.8193 91.387 68.8174 90.086 68.8098C90.0879 63.0621 90.0746 57.3144 90.0937 51.5668Z" fill="white"/>
</g>
<defs>
<clipPath id="clip0_273_440">
<rect width="120" height="119.909" fill="white" transform="translate(0 0.0456543)"/>
</clipPath>
</defs>
</svg>
