<svg width="120" height="120" viewBox="0 0 120 120" fill="none" xmlns="http://www.w3.org/2000/svg">
<rect width="120" height="120" fill="#00624D"/>
<path fill-rule="evenodd" clip-rule="evenodd" d="M37.9615 72.437L37.9986 70.8186L37.9999 68.8932L37.9984 68.4615C37.9615 68.1937 38.0404 68.6232 37.984 68.3937L37.9615 68.3323V70.4256L34.314 68.5658C34.1115 68.4633 33.9901 68.3798 33.7876 68.2775L29.5878 66.1163C28.8725 65.7521 28.1859 65.4014 27.4816 65.0422L21.2014 61.7809L22.3424 61.3727C22.7355 61.2325 23.1062 61.1209 23.4859 60.9672C23.9574 60.7762 23.8336 60.8047 24.5663 61.1783L35.8937 66.9546C36.2494 67.1359 36.5765 67.3027 36.9212 67.4785L37.9615 68.0217C38.0692 67.8505 38.001 66.2519 37.9986 65.9067C37.9698 65.7272 37.9615 65.5138 37.9615 65.5138C36.7437 64.8566 35.1759 64.0933 33.9031 63.4443L22.7041 57.7335C22.5307 57.645 22.3745 57.5654 22.1903 57.4715C22.0316 57.3905 21.7941 57.3111 21.7023 57.1834C21.888 57.1676 23.6193 56.5514 23.9419 56.4418C24.6479 56.2018 24.4047 56.184 25.003 56.4891C25.3521 56.6672 25.6555 56.8219 26.0047 56.9999L33.9673 61.0604C34.6503 61.4088 35.2877 61.7337 35.9708 62.0821L37.9615 63.1098V60.7591C37.7732 60.7145 37.1974 60.3695 36.9597 60.2483L27.8155 55.5068C27.1025 55.1444 21.948 52.4085 21.7023 52.3501V52.2715C21.857 52.2584 22.6366 51.9735 22.8436 51.9031C23.0043 51.8484 24.4163 51.3439 24.5074 51.3538C24.6664 51.3712 27.4853 52.9043 27.9953 53.1622C28.345 53.3392 28.6479 53.4951 28.9971 53.673C30.9656 54.6766 32.9804 55.7828 34.9563 56.7904L36.9469 57.8251C37.3075 58.0091 37.6145 58.1874 37.9615 58.3593C38.0405 58.2309 37.9986 56.3917 37.9986 56.2403L38.0002 55.6901C37.8018 55.6431 34.2156 53.78 33.9287 53.6337L23.7314 48.4338C23.5361 48.334 21.8043 47.5017 21.7023 47.3597L59.9968 34.2897L98.2977 47.3597C97.8425 47.9936 81.9776 55.7294 81.9776 55.7294L81.9915 58.3622L95.6188 51.3587C95.576 51.3455 95.6637 51.3527 95.6188 51.3587C96.0755 51.524 98.2464 52.3198 98.2464 52.3198C94.046 54.5464 89.8204 56.7687 85.5829 58.912C85.0242 59.1946 82.2827 60.6919 82.0001 60.7591L81.9915 63.1168C82.6549 62.8002 83.302 62.4063 83.9872 62.1179L88.0105 60.0912C88.6784 59.7506 89.3462 59.41 90.014 59.0695L95.5105 56.3018C95.7112 56.2023 95.8469 56.3246 96.0581 56.4025L98.2977 57.1834C98.2977 57.1834 83.7686 64.6108 81.9915 65.5138V68.0287C86.4915 65.7408 90.9878 63.4454 95.4851 61.1521C96.1961 60.7895 95.9836 60.7913 96.5975 61C96.8086 61.0717 98.7763 61.7659 98.9527 61.7809C97.756 62.6073 81.9915 70.4256 81.9915 70.4256L81.9895 72.4296C89.324 68.6755 96.668 64.9489 103.961 61.1128C103.961 61.1914 98.9141 59.3053 98.9141 59.3053C98.9141 59.3053 103.899 56.651 103.961 56.6726L98.4518 54.7078L104 51.8393L98.4133 50.0318L104 47.0453L59.9968 32L16 47.0453C16 47.0453 21.5079 50.0449 21.5482 50.0318L16 51.8393L21.5482 54.7864L16 56.7511L21.0783 59.3206L16 61.1128C16.0572 61.0926 37.9615 72.437 37.9615 72.437Z" fill="white"/>
<path fill-rule="evenodd" clip-rule="evenodd" d="M37.9986 56.2403C37.9986 56.3917 38.0405 58.2309 37.9615 58.3593L37.9612 58.6766C37.9665 58.6849 37.971 58.6974 37.973 58.7039L37.9979 58.7963C38.0025 58.8294 38.002 58.9127 38.0019 58.9493C38.0018 59.0415 37.9997 59.1342 37.9997 59.2267L38.0429 59.4577C38.0535 59.5739 38.0575 59.5842 38.0766 59.6985C38.2699 60.8531 38.4916 61.5264 39.0144 62.5929C39.3221 63.2207 39.4791 63.4298 39.8259 63.9658C39.9768 64.1991 40.1219 64.3752 40.2897 64.593L40.802 65.2101C41.8793 66.3516 43.0186 67.3677 44.3589 68.184C44.8207 68.4652 45.2551 68.7424 45.7569 68.998C47.9465 70.1127 49.6543 70.7906 52.0933 71.3769C54.6055 71.9807 55.387 71.9593 57.7322 72.2274L59.8843 72.2724C63.3447 72.2724 66.1822 71.909 69.4231 70.9592C71.0418 70.4847 72.5874 69.8422 74.089 69.077L76.1203 67.8479C77.0069 67.2451 77.2106 67.0336 77.96 66.4234L79.0716 65.3173C79.3314 64.9701 79.6321 64.7348 80.0503 64.115C80.6992 63.1531 81.1598 62.3712 81.5326 61.2258C81.6821 60.7661 81.9227 59.9627 81.9227 59.3839L81.9618 61.0741C81.9727 63.0179 81.0513 65.1242 80.0022 66.5808C79.837 66.8103 79.6856 66.9928 79.5122 67.2207C79.0902 67.775 78.497 68.3398 77.9836 68.8051C75.4887 71.0661 72.0079 72.7224 68.7763 73.5609C67.435 73.909 66.4269 74.1381 65.0356 74.3433C64.3769 74.4404 63.6732 74.5363 63.0027 74.5885L61.3855 74.6682C61.1807 74.6744 61.0956 74.7107 60.8479 74.7093C58.9184 74.698 57.4864 74.6958 55.5086 74.4166C54.3889 74.2587 53.7564 74.1543 52.6243 73.9003C51.5783 73.6655 50.0986 73.2649 49.1184 72.8784L47.4833 72.2277C47.2291 72.1215 46.9792 71.9925 46.7207 71.8659L44.5129 70.6596C43.8137 70.23 43.1628 69.7413 42.5243 69.2298L41.9199 68.7067C41.8053 68.588 41.7418 68.5564 41.6307 68.4516L41.0528 67.8619C40.6761 67.4821 39.8692 66.4384 39.572 65.9537C38.8902 64.842 38.3068 63.5344 38.1213 62.2069C38.0916 61.8912 37.9612 61.1069 37.9612 61.1069C37.9612 61.4386 37.9615 62.8386 37.9615 63.1098C37.9615 63.6165 38.0139 64.1078 38.0786 64.6082C38.249 65.8849 38.766 67.1082 39.4087 68.2029C39.948 69.1217 40.6236 69.8991 41.3614 70.6515C41.5303 70.8238 41.7233 71.0499 41.9075 71.195L42.4913 71.6997C43.3198 72.364 44.1571 72.9647 45.0667 73.5135C45.7701 73.9379 46.4913 74.2849 47.2461 74.6308C51.2193 76.4511 55.5834 77.1843 59.9612 77.1843C60.3209 77.1843 60.6804 77.1842 61.0401 77.1843C61.4419 77.1843 61.7049 77.1453 62.0816 77.1462C62.4005 77.147 62.7633 77.0745 63.0821 77.0664C64.3063 77.0352 66.5632 76.5696 67.773 76.3101C69.176 76.0091 70.5885 75.5368 71.9112 74.9899L73.0387 74.4895C73.6666 74.2251 74.2503 73.8755 74.8467 73.5434C75.704 73.0659 77.0236 72.1711 77.7134 71.5159C77.8236 71.4113 77.9005 71.3623 78.0032 71.2614L78.8316 70.4558C78.9454 70.3385 78.9816 70.2593 79.1 70.1402C79.8002 69.436 80.4751 68.4346 80.9082 67.5441C81.163 67.0201 81.3503 66.5761 81.5423 65.9903C81.6885 65.5444 81.9227 64.7208 81.9227 64.1384L81.9618 65.8287C81.97 67.2851 81.4703 68.7162 80.87 69.9415C80.4114 70.8778 79.692 71.8995 78.9656 72.636L78.1188 73.5013C77.0651 74.5355 75.4052 75.6604 74.1011 76.3195C73.9589 76.3914 73.8766 76.4538 73.7295 76.5299C72.1448 77.3508 70.5013 77.9324 68.7891 78.4465C67.5843 78.8082 66.2947 79.051 65.0309 79.2504C64.3599 79.3561 63.6702 79.4252 62.9992 79.4967C62.6499 79.5338 62.2671 79.5268 61.9542 79.5706C61.6195 79.6173 59.6225 79.6186 59.1904 79.6208L56.5099 79.4468L54.501 79.1772C53.2455 78.9618 51.9802 78.6831 50.7869 78.3285L49.0722 77.7588C47.9632 77.3885 46.9482 76.8707 45.911 76.3461C44.9374 75.8537 44.0078 75.237 43.1406 74.5741C42.6481 74.1975 42.0434 73.7102 41.6117 73.2648L41.0331 72.6761C40.9223 72.5585 40.8852 72.4828 40.764 72.3611L40.2561 71.7395C39.7495 71.0544 39.3184 70.3586 38.9373 69.5874C38.5402 68.7842 38.271 67.8642 38.1207 66.9622L38.0393 66.1809C38.0395 66.0903 38.049 65.9851 37.9986 65.9067C38.001 66.2519 38.0692 67.8505 37.9615 68.0217V68.3323L37.984 68.3937C38.0404 68.6232 37.9615 68.1937 37.9984 68.4615L37.9999 68.8932C38.0711 69.0074 38.1227 69.662 38.1613 69.8286C38.3581 70.6796 38.6058 71.5317 39.0141 72.2989C39.0857 72.4334 39.1324 72.5098 39.207 72.6523L40.537 74.5966C40.5867 74.6594 40.6147 74.6786 40.6673 74.7389C40.7354 74.8168 40.7354 74.8363 40.8031 74.9147C41.3018 75.4922 41.8897 76.0161 42.4605 76.5251C43.0561 77.056 43.69 77.4904 44.3646 77.9232C45.1598 78.4337 45.979 78.8832 46.8223 79.3068C46.9467 79.3692 47.0604 79.4068 47.1955 79.4763C47.9054 79.8415 48.7755 80.1627 49.5437 80.4214L52.086 81.1688C53.2551 81.4669 54.5318 81.7403 55.7651 81.8568L57.7322 82.0511L59.8843 82.0961C60.2438 82.0961 60.6034 82.0961 60.963 82.0961C61.3602 82.0962 61.6444 82.0541 62.0039 82.0574C62.8247 82.0652 65.1377 81.7256 65.9057 81.5965C68.0429 81.2373 70.9957 80.3848 72.9846 79.3854L74.0879 78.8209C74.3484 78.6862 74.5468 78.5817 74.7874 78.4342C75.4652 78.0186 76.1413 77.5989 76.7708 77.1169C77.0791 76.8808 77.3937 76.655 77.6748 76.3885C78.7732 75.3468 79.1818 74.9762 80.0404 73.8106C80.8611 72.6964 81.9227 70.4862 81.9227 69.0503L81.9618 70.7405C81.97 72.197 81.4703 73.6281 80.87 74.8532C80.6193 75.3651 80.3114 75.8223 79.996 76.2803C79.8511 76.4906 79.6777 76.7221 79.5054 76.9194C79.3126 77.14 79.1723 77.3383 78.9656 77.5478L77.5185 78.9404L76.5363 79.707C76.3082 79.8654 76.1 80.0167 75.8737 80.1707L74.1011 81.2314C73.9589 81.3032 73.8766 81.3656 73.7295 81.4418C73.4679 81.5773 73.2338 81.6745 72.9716 81.8084C72.1798 82.2128 71.3653 82.5232 70.5231 82.8084C69.9559 83.0006 69.3925 83.1771 68.7891 83.3584C66.9302 83.9164 64.9389 84.2019 62.9992 84.4085C62.6499 84.4457 62.2671 84.4386 61.9542 84.4823C61.7692 84.5083 61.5737 84.4891 61.3853 84.4915C61.1628 84.4943 61.0949 84.5344 60.8483 84.5333L56.5155 84.3529L54.5067 84.0833C53.8361 83.969 53.2377 83.8377 52.6054 83.704C51.7008 83.5126 50.829 83.2554 49.9487 82.9556L47.4668 81.9895C46.9292 81.7527 46.4423 81.4892 45.9368 81.2317C44.6522 80.5771 42.9544 79.4606 41.9208 78.4115L40.7837 77.2528C40.6688 77.1375 40.6357 77.0765 40.5327 76.9587C40.4368 76.8488 40.3566 76.7433 40.273 76.6342C39.3941 75.4868 38.725 74.2402 38.321 72.8094C38.2414 72.5274 38.1612 72.1583 38.1213 71.8734C38.0956 71.6889 38.0807 71.5435 38.0541 71.3526C38.0328 71.2004 38.0622 71.0263 38.0215 70.8744L37.9986 70.8186L37.9615 72.437C37.9615 74.0845 38.1258 75.1911 38.5942 76.3816C38.8198 76.9549 39.0479 77.4426 39.3411 77.9384C40.6083 80.0819 42.1644 81.4215 44.1951 82.8114C44.3198 82.8967 44.4315 82.9591 44.5496 83.0393L45.2819 83.4712C46.442 84.0822 47.1022 84.4546 48.3583 84.9313L50.0453 85.5291C54.0798 86.8732 57.8976 87.0943 62.1586 86.97L63.1952 86.8874C63.5224 86.8623 63.8978 86.8083 64.2347 86.7688C66.4841 86.5056 69.4406 85.8308 71.5529 84.959C72.0912 84.7368 72.6306 84.5368 73.1505 84.27C73.4933 84.0941 73.9209 83.9267 74.2866 83.6996C74.9468 83.2897 75.2765 83.1569 76.074 82.6147C76.6501 82.2231 77.4542 81.6158 78.0021 81.1233C78.1201 81.0172 78.1753 80.9365 78.301 80.8387C78.9895 80.3028 80.1314 78.7743 80.6206 77.9782C81.5397 76.4829 82.1728 74.1995 81.9895 72.4296L81.9915 70.4256V68.0287V65.5138V63.1168L82.0001 60.7591L81.9915 58.3622L81.9776 55.7294C81.8507 56.2173 82.162 57.2742 81.2844 59.5188C80.8622 60.5989 79.9004 62.1442 79.0814 62.9697C78.8596 63.1931 78.7012 63.402 78.5265 63.5432L77.658 64.3471C76.542 65.3034 75.2564 66.1429 73.9473 66.8106C69.7985 68.926 65.1096 69.9541 60.2695 69.9541C59.9099 69.9541 59.5503 69.954 59.1907 69.9541C58.7773 69.9542 58.5151 69.9162 58.1105 69.9161C57.5567 69.916 55.6708 69.6954 55.0613 69.6074C54.7231 69.5585 54.4131 69.502 54.0995 69.4487C51.5128 69.0101 48.7988 68.1717 46.4633 66.9808C45.5415 66.5107 44.8457 66.1354 43.9793 65.5453C43.3805 65.1375 42.9252 64.7633 42.3699 64.3182C42.101 64.1027 41.1458 63.2094 40.9442 62.9431C40.7498 62.6863 40.4866 62.4263 40.1738 61.9998C39.5673 61.1724 39.3674 60.838 38.8984 59.882C38.4262 58.9196 38.1866 57.8683 38.0486 56.78L38.0364 56.3601C38.0346 56.3479 38.0327 56.3377 38.0304 56.3266C38.0282 56.3163 38.024 56.3049 38.0215 56.296L37.9986 56.2403Z" fill="white"/>
<path fill-rule="evenodd" clip-rule="evenodd" d="M27.4044 47.91L38.3391 53.4661C38.422 52.6517 39.4937 50.8151 40.0419 50.0712C40.5132 49.4314 40.8909 49.0285 41.4578 48.4502C42.2897 47.6019 43.8138 46.4228 44.8847 45.8152C47.4566 44.3558 49.1584 43.6813 52.0783 42.9353C54.1467 42.4069 57.033 42.0158 59.2293 42.0158C62.174 42.0158 63.3482 42.0852 66.2033 42.5656C68.7587 42.9958 71.633 43.9989 73.7804 45.0939C75.2063 45.821 76.2083 46.4877 77.4537 47.4775C77.6427 47.6277 77.8066 47.787 77.9986 47.9434C78.0987 48.0249 78.1576 48.1029 78.2521 48.1957C78.4976 48.4367 78.711 48.5583 79.0109 48.9543C79.0977 49.069 79.1636 49.1153 79.2552 49.216C79.346 49.3162 79.3882 49.3848 79.4858 49.4917C80.1891 50.262 80.9954 51.6978 81.3779 52.6702C81.4724 52.9104 81.5534 53.2385 81.6531 53.4506L92.5877 47.8945L59.9935 36.7354L27.4044 47.91Z" fill="white"/>
<path fill-rule="evenodd" clip-rule="evenodd" d="M77.2994 55.7294C77.2994 56.9136 77.1114 57.5552 76.5933 58.5459C76.3832 58.9478 75.7629 59.7812 75.4604 60.1018C75.2982 60.2736 74.9028 60.7193 74.7564 60.7591V63.5884C75.0952 63.4961 76.5987 62.2422 76.9622 61.8692C77.3589 61.4623 77.7267 61.0587 78.0704 60.6025C79.9856 58.06 80.363 55.0251 78.7032 52.2151C78.3369 51.5949 77.8235 50.8999 77.3283 50.3952C77.0901 50.1524 76.7814 49.7946 76.5345 49.5937C75.8023 48.9979 75.5752 48.744 74.7564 48.1849C74.7564 49.0231 74.7588 49.8616 74.7564 50.6997C74.7544 51.3929 74.7541 51.1044 75.171 51.5344C75.3876 51.7578 75.6135 51.9502 75.7968 52.1929L76.6708 53.502C76.9967 54.095 77.2994 54.9041 77.2994 55.7294Z" fill="white"/>
</svg>
