<svg width="120" height="120" viewBox="0 0 120 120" fill="none" xmlns="http://www.w3.org/2000/svg">
<g clip-path="url(#clip0_273_317)">
<path d="M120 0H0V120H120V0Z" fill="#0073C0"/>
<path fill-rule="evenodd" clip-rule="evenodd" d="M25.9376 53.0323C25.4929 55.5258 23.9589 57.6339 25.029 62.5151C25.266 63.5956 25.6961 64.4181 25.9253 65.3379C24.8669 66.8947 23.297 67.9457 23.2031 71.4432C23.0306 77.8694 29.4206 82.2215 35.3939 78.7483C36.7006 77.9885 37.4056 77.2028 37.9086 76.9445C44.4258 80.2536 50.7244 80.7561 57.5755 77.4295C58.1002 77.1748 59.6862 76.1906 59.9526 76.1057C60.4964 75.9327 62.8907 77.5137 64.7094 78.16C68.776 79.605 72.8653 79.9193 77.1252 78.9113C80.1155 78.2037 81.2237 77.3649 82.4763 77.0413C83.3437 78.3752 85.6573 79.8378 88.1237 79.986C94.3297 80.359 99.0405 73.1907 96.1056 68.1141C95.4067 66.9055 94.6747 66.5926 94.099 65.6873C96.1418 60.07 95.395 58.4041 94.0975 53.6409C95.4011 51.839 96.7381 50.6691 96.812 47.5359C96.9482 41.7588 91.3861 36.6222 84.6349 40.2398C83.5298 40.832 82.9171 41.6298 82.1142 42.0685C73.9786 38.1388 67.7966 38.3017 59.8346 43.0082C58.1681 42.4666 55.2073 39.7995 49.2324 39.4877C42.1872 39.1202 39.4212 41.5698 37.5245 41.9554C36.6777 40.6384 34.3738 39.1463 31.8798 39.0116C29.1913 38.8664 27.0332 40.1018 25.7185 41.4299C22.2578 44.9261 21.8579 49.9199 25.9376 53.0324V53.0323ZM30.0047 49.9915C30.2091 50.302 31.0489 51.031 31.3298 51.3049C33.3128 49.4112 33.3843 49.0671 36.0927 47.136C37.7335 45.9659 39.9548 44.7606 42.109 43.9973C48.0131 41.9052 51.9481 43.2181 56.8108 45.3787C57.1273 45.1425 57.2267 45.0468 57.5456 44.7585L58.2737 43.9581C57.2626 43.5489 56.2437 42.87 54.9781 42.3756C48.023 39.6588 41.1363 41.2561 35.2826 45.2875C33.6286 46.4266 30.753 48.6449 30.005 49.9915H30.0047ZM72.0353 76.0027L71.8584 76.0028C66.9787 76.0066 65.0181 74.1211 63.1942 73.6654L61.7784 74.9403C63.7679 76.7181 69.0177 77.9773 72.2122 77.9773C76.1671 77.9773 79.9455 76.6026 82.685 74.9815C85.0279 73.5951 89.0454 70.7789 90.0255 69.0071L88.8829 67.7376C88.3319 67.9683 88.5251 67.9065 88.0248 68.3893C86.0199 70.3247 84.4556 71.7375 81.7846 73.22C79.0148 74.7573 75.9348 75.9996 72.0354 76.0027H72.0353ZM40.2074 74.1836C39.7281 74.5951 39.2853 75.1393 39.007 75.6806C43.3064 78.1944 48.9907 78.8711 54.3497 77.03C56.779 76.1954 58.7676 75.0419 60.5285 73.7077C61.9352 72.6419 64.2786 70.4214 65.1865 68.8296L63.7627 67.5466C62.4652 68.8614 61.8513 70.164 59.6065 71.9217C58.0706 73.1242 56.3428 74.2064 54.2127 74.9758C50.6407 76.2661 47.1926 76.5063 43.4249 75.4304C42.2139 75.0846 41.2588 74.493 40.2074 74.1835V74.1836ZM54.8149 50.3839C55.4156 50.6973 55.7083 51.0756 56.232 51.4674C56.9541 50.7958 57.4318 49.9451 58.1721 49.2029C58.8538 48.5192 59.4848 47.7987 60.3396 47.153C61.9754 45.9174 63.4894 44.9229 65.7086 44.0741C67.8815 43.2431 70.4639 42.7365 73.1012 42.9366C76.1695 43.1694 77.3794 43.9118 79.8155 44.8213L81.071 43.3465C74.5095 39.4039 65.504 40.5524 59.3914 45.3466C58.3473 46.1656 55.1643 49.0932 54.815 50.3839H54.8149ZM77.961 49.8753C78.479 50.3486 78.7757 50.7398 79.4618 51.0527C80.1509 50.4003 80.6531 49.6556 81.2386 48.9353C82.9504 46.8298 84.7708 44.0263 87.0992 43.0173C89.5798 41.9421 91.6589 43.1058 92.573 44.7149C94.264 47.6919 92.2812 49.7157 91.9801 50.6728C92.3011 51.1216 92.7672 51.853 93.2539 52.0576C97.1529 48.3584 94.908 40.3486 88.6927 40.6191C84.7152 40.7923 82.2283 44.4844 80.2008 47.0367C79.4962 47.9237 78.5234 48.998 77.961 49.8753ZM42.0595 68.9166C41.5122 68.6495 41.1476 68.2504 40.5611 67.9421C38.1404 70.3382 36.0428 74.5585 32.9427 75.978C30.4027 77.1408 28.4585 75.9175 27.5115 74.3744C26.0595 72.0085 26.9484 70.3312 28.0392 68.4806L27.1535 67.2256C26.7942 66.8998 27.1432 67.1304 26.6892 66.886C25.3885 68.8656 23.9104 71.2855 25.3286 74.4426C27.6837 79.6855 33.4483 79.7094 37.6368 74.6719C38.3532 73.8103 41.8294 69.6664 42.0594 68.9166H42.0595ZM85.7727 62.1629C86.2776 63.1426 92.7217 69.241 93.0992 70.2046C94.2807 73.2208 90.6525 78.7862 85.4737 75.2265L83.8384 76.2827C88.9542 81.8559 97.4119 75.3869 94.9572 69.4167C94.3484 67.9363 92.6343 66.7968 91.1604 65.1383C90.9541 64.906 87.5072 61.1257 87.0652 60.9041L85.7727 62.163V62.1629ZM32.9764 58.1299L34.2612 56.8306C33.7189 56.0057 33.0097 55.5117 32.3668 54.7518C31.3002 53.4911 27.2916 49.8494 26.8661 48.6538C26.0426 46.3402 27.6542 44.2825 28.8583 43.4826C31.357 41.823 32.7209 42.669 34.5492 43.7781C35.0735 43.504 35.5925 43.103 36.1448 42.8688C34.5612 39.2727 25.5953 39.7668 24.7159 46.7225C24.2721 50.2324 26.4645 51.2479 29.2622 54.3244L32.9765 58.1298L32.9764 58.1299ZM75.7777 69.0042L74.5109 67.5167C68.8699 68.8201 64.6838 64.8207 63.9465 60.5894C63.4577 57.7842 64.3282 57.2998 64.8113 55.3867C64.4018 54.7785 64.1065 54.5961 63.7918 53.9078C62.4331 54.6787 61.6893 58.1435 61.8771 60.0555C62.6716 68.1472 71.8098 71.7241 75.7777 69.0043V69.0042ZM44.2592 49.9745C45.2991 52.4939 46.3024 50.8031 48.9887 51.2672C52.4132 51.8587 55.0787 54.6203 55.923 57.8508C56.6589 60.6668 55.8459 61.5135 55.2023 63.5921C55.546 64.1944 55.9934 64.6005 56.4325 65.0988C59.3062 61.2343 58.3416 56.5026 55.7149 53.1716C53.1058 49.8627 47.7328 47.969 44.2592 49.9744V49.9745ZM64.1828 46.4571C64.5655 47.4323 65.7554 48.0911 66.3054 49.1733C69.9328 48.3513 70.7118 46.692 76.456 48.9315C76.9654 48.5967 78.4899 46.7241 78.7537 46.1042C74.9968 44.7286 72.2471 43.7317 67.5236 45.1691C66.2515 45.5562 65.2261 46.1484 64.1829 46.4571H64.1828ZM43.5671 70.0661C43.0875 70.3805 41.5227 72.3196 41.2663 72.9045C43.5761 73.9077 45.6172 74.5639 48.6996 74.4544C51.965 74.3384 53.412 73.3999 55.8412 72.5425C55.4153 71.5737 54.2587 70.9044 53.6859 69.8356C50.902 70.492 48.5445 72.3383 43.567 70.0661H43.5671ZM57.4532 52.7677C58.6593 54.9085 59.6349 56.4746 59.733 59.575C59.8639 63.7195 57.846 65.6247 57.5417 66.5882C58.316 67.2742 59.2903 68.4677 59.9356 69.2093C60.8128 68.8342 62.0754 67.0377 62.5896 66.3232C61.4393 64.0779 60.4475 62.8061 60.285 59.5787C60.2135 58.1591 60.4798 56.7187 60.8815 55.5498C61.3773 54.1068 62.055 53.4676 62.4729 52.4171C61.5691 51.6193 60.8095 50.1788 59.7589 49.7915C59.2848 50.3804 57.7914 52.0094 57.4532 52.7677ZM64.47 72.3128C65.3556 73.3936 69.4542 74.2485 71.3462 74.3362C74.4571 74.4804 76.4751 73.7812 78.9199 72.8759C78.5176 72.0652 77.5406 71.2161 77.0412 70.3816C75.0508 70.7987 74.2598 71.6026 71.5485 71.3646C69.1259 71.1519 68.4041 70.4935 66.5539 69.8954C66.0536 70.3352 65.9844 70.5671 65.5187 71.1228C65.1807 71.5264 64.7773 71.9436 64.4698 72.3128H64.47ZM41.0973 46.1164C41.4409 46.8776 42.475 47.7986 42.9479 48.6199C45.5667 48.0497 46.8546 46.8737 51.0733 48.1483C51.9705 48.4194 52.6886 48.8808 53.4692 49.1C53.9734 48.6531 55.0814 47.2292 55.4974 46.6572C55.3563 46.512 55.4371 46.5607 55.1769 46.3882L52.4149 45.2551C47.5362 43.8717 45.1329 44.8135 41.0974 46.1164H41.0973ZM84.2131 47.8794C85.2092 49.537 91.6787 52.8983 91.6721 59.7511C91.6692 62.8818 90.4677 62.5091 92.7019 64.4217C94.2013 62.8951 93.9877 56.548 92.0336 53.4464L88.946 49.6866C88.0408 48.8826 86.1385 46.7956 85.234 46.471C84.9294 46.9704 84.5164 47.3743 84.2131 47.8792V47.8794ZM34.8036 72.533C35.1098 71.9888 35.5245 71.628 35.8061 71.0992C35.5803 70.7751 34.5808 69.8783 34.1907 69.5371C32.9167 68.4229 30.3786 65.8676 29.625 64.4381C28.8539 62.9755 28.3372 61.2149 28.3424 59.2272C28.3501 56.2485 29.4314 56.2841 27.2696 54.5839C26.4956 55.5874 26.2891 58.7795 26.38 60.2841C26.5026 62.3116 27.1448 64.0858 27.9728 65.5482C28.9022 67.1902 33.3357 71.7852 34.8037 72.5331L34.8036 72.533ZM36.6284 62.0208C37.4931 63.2274 41.6818 66.8534 43.002 67.8162C45.2149 69.4299 49.6465 70.4546 52.3914 68.4804C52.1501 67.893 51.6376 67.3874 51.1706 66.9613C45.9434 68.6091 44.1043 66.3906 40.6117 63.1946C39.7733 62.4273 38.7205 61.2302 37.9088 60.6355L36.6284 62.0207V62.0208ZM67.574 50.4379C67.9252 51.1312 68.3365 51.6237 68.8526 52.056C74.0743 50.2189 76.23 52.9713 79.3867 55.8073C80.1912 56.5302 81.3392 57.8604 82.1144 58.3557L83.4221 56.9881C82.3919 55.7636 78.3929 52.1929 76.9944 51.1851C73.8055 48.8869 71.2694 49.1474 67.5741 50.4379H67.574ZM30.701 62.8938C30.9115 63.5404 31.2338 64.0996 31.7201 64.5506C33.1137 63.5809 34.3774 61.6987 35.339 60.8777L41.2714 54.6883C40.9927 54.1692 40.4776 53.5836 40.0307 53.207C38.9357 54.1026 38.4275 54.7094 37.6041 55.6103C35.4032 58.0177 32.8311 60.4343 30.701 62.8939V62.8938ZM78.7494 64.2904C78.9443 64.7194 79.5692 65.4581 79.9924 65.8093L89.3063 56.0849C89.0248 55.4016 88.7954 54.9005 88.303 54.4518C87.6899 54.7604 87.6561 54.9605 87.0836 55.5771L81.1368 61.7528C80.5413 62.2593 79.2141 63.668 78.7494 64.2904ZM72.5957 62.3699C72.9827 63.1686 79.7757 71.0257 80.2874 72.0425C81.039 71.8649 81.5735 71.4416 82.1077 71.1593C81.8123 70.5059 74.5798 61.6608 73.8036 60.9249C73.3622 61.2149 72.8547 61.971 72.5957 62.3699ZM66.919 63.5921C67.2746 64.1723 67.7458 64.6511 68.3698 64.9717C69.2267 63.806 75.8987 55.93 76.1794 54.9657C75.5875 54.6708 75.3663 54.4801 74.9164 53.9654C74.1325 54.27 73.6658 55.2375 72.7697 56.2856L66.919 63.592V63.5921ZM37.9073 47.8328C38.1422 48.3987 41.3204 52.1856 41.96 52.958L46.2195 58.0745C46.4511 57.9146 46.3134 58.026 46.5285 57.8015C46.6772 57.6463 46.7595 57.5342 46.8605 57.4074C47.1701 57.0192 47.2179 56.9759 47.4187 56.6087C46.6475 55.3264 40.266 48.0263 39.7072 46.9659C38.8076 47.1794 38.5953 47.5199 37.9075 47.8329L37.9073 47.8328ZM49.5931 62.1638C49.8256 62.7515 56.4042 70.9679 57.3593 71.4931C58.0271 71.1 58.3899 70.7659 58.9325 70.415L54.8834 65.6835C53.9667 64.5796 51.6185 61.4056 50.7666 60.8138C50.3367 61.3694 50.1728 61.6275 49.5931 62.1638ZM61.0865 48.7772C63.5081 50.8686 68.312 57.6236 69.2759 58.1807C69.667 57.6426 69.9079 57.3423 70.4282 56.8229C70.1066 56.0976 63.4677 48.015 62.664 47.5099C62.0407 47.8049 61.4137 48.248 61.0865 48.7772ZM43.8704 63.7666C44.1271 64.2285 44.1227 64.1712 44.4631 64.451L45.3354 65.0234C46.0803 64.2744 46.5565 63.5867 47.2684 62.7088C47.9337 61.888 48.5647 61.0836 49.222 60.2698L53.0876 55.3867C52.5895 54.6935 52.3576 54.5727 51.7325 54.0689L43.8704 63.7667V63.7666ZM81.0569 67.0263C81.2836 67.601 83.09 69.7783 83.529 70.0837C84.6724 69.4476 86.9001 67.4294 87.4529 66.3854C87.0263 65.8141 86.6075 65.4153 86.1111 64.879C85.7984 64.5412 84.8531 63.6563 84.5611 63.4507L81.0569 67.0263ZM32.5603 52.5931L35.4957 55.5524L37.9933 52.844C38.3641 52.424 38.5879 52.3203 38.9591 51.9639C38.7064 51.387 36.9874 49.3098 36.4944 48.9111C35.3648 49.4344 33.241 51.5938 32.5603 52.5931ZM74.8819 59.5766C75.3953 60.3066 77.0774 62.4355 77.6939 62.9605C78.2624 62.6626 78.8861 61.8423 79.3122 61.345C79.8376 60.7318 80.5274 60.2429 80.9111 59.5767C80.4688 58.7813 78.3203 56.7156 77.517 56.252C76.9618 56.7529 75.1713 58.9273 74.8819 59.5767V59.5766ZM39.1082 59.4019C39.5007 60.2908 40.1211 60.3649 40.7566 61.1302C41.383 61.8844 41.7574 62.3696 42.5063 62.7446C43.2747 62.0321 44.507 60.0992 45.1663 59.6426C44.8114 58.8601 42.9615 56.6382 42.3294 56.0446L39.1082 59.4019ZM80.8317 52.0694C81.1769 52.6729 84.1831 55.5154 84.5898 55.7558C84.8774 55.5465 86.939 53.4602 87.1356 53.1169L83.1752 49.2905C82.7211 49.5694 81.1399 51.5833 80.8317 52.0694ZM32.879 65.8615C33.3664 66.6655 36.1894 69.2693 36.848 69.7188C37.3097 69.4219 37.1155 69.5167 37.4706 69.0906L39.1871 66.9091L35.4336 63.2404L32.8791 65.8616L32.879 65.8615ZM86.6093 45.2605C87.3431 46.1076 87.8826 46.4642 88.6872 47.157C89.1557 47.5605 89.2583 47.8432 89.6964 48.2489C90.1788 48.6959 90.43 48.9316 90.7786 49.247C93.3595 46.8648 89.7054 41.8347 86.6093 45.2605ZM33.4079 73.7179C32.8937 72.974 32.1423 72.6391 31.3781 71.7888C30.9993 71.3673 29.7244 70.0523 29.2446 69.7697C28.0912 70.7248 28.269 72.9616 29.155 73.984C30.129 75.1081 32.4873 74.9708 33.4079 73.718V73.7179ZM28.7215 48.7365C29.1637 48.5064 30.2291 47.2144 30.8645 46.6878C31.4632 46.1916 32.631 45.3082 33.1153 44.7166C30.5496 43.1261 27.362 45.7738 28.7215 48.7365ZM86.9217 74.2691C89.7048 76.0772 92.9373 72.4523 91.2439 70.2905C90.7768 70.5748 89.8863 71.7549 89.1902 72.3173C88.449 72.9161 87.6059 73.5092 86.9217 74.2691ZM51.968 59.5211C52.1901 59.9055 52.6662 60.4435 52.9469 60.7893C53.4242 61.3772 53.5838 61.7984 54.1253 61.9878C54.743 59.8634 54.6859 59.1421 54.0066 57.1186C53.4406 57.4225 52.3451 58.9507 51.9681 59.5211H51.968ZM66.2574 61.8784C66.7246 61.0423 67.7311 60.2213 68.0167 59.4019C67.7244 58.96 66.3881 57.2784 66.0235 57.0129C65.5583 57.5588 65.458 58.5498 65.4738 59.405L66.2573 61.8784H66.2574ZM46.646 52.8587C47.0476 53.696 47.9148 54.5737 48.5182 55.2101C49.0091 54.7823 49.8329 53.8863 50.1137 53.246C49.2267 52.9349 47.7611 52.5081 46.6461 52.8587H46.646ZM69.9504 65.687C70.8491 66.2544 72.1176 66.3114 73.2004 66.156L71.5051 63.802C70.9783 64.2333 70.1913 65.0801 69.9504 65.687ZM46.9387 65.8432C48.509 66.0238 48.6777 65.912 50.1003 65.6666C49.8133 64.9441 49.1012 63.9992 48.4339 63.713C48.0181 64.5042 47.3 65.0436 46.9387 65.8432ZM69.9419 53.466C70.1902 53.9156 70.8611 54.721 71.3282 55.2165C71.925 54.9411 72.8245 53.6529 73.0367 53.1811C72.0645 53.0056 70.6599 52.9162 69.9419 53.466ZM30.096 60.9859C30.673 60.673 31.4861 59.8708 31.743 59.1746C31.5443 59.0111 31.1508 58.7046 30.9189 58.4572C30.5078 58.0184 30.6371 57.9911 30.0953 57.6562C29.9065 58.976 29.9442 59.6669 30.096 60.9859ZM88.2699 59.834C89.1156 60.2534 89.0829 60.8514 89.9298 61.3415C90.1224 59.4038 90.1662 59.9379 89.914 58.0093C89.3718 58.3289 88.5896 59.1624 88.2699 59.834Z" fill="#FDFEFE"/>
</g>
<defs>
<clipPath id="clip0_273_317">
<rect width="120" height="120" fill="white"/>
</clipPath>
</defs>
</svg>
