<svg width="120" height="120" viewBox="0 0 120 120" fill="none" xmlns="http://www.w3.org/2000/svg">
<rect width="120" height="120" fill="#1C1A7B"/>
<path fill-rule="evenodd" clip-rule="evenodd" d="M32.6643 40.5055C32.6643 40.5055 52.8407 27 59.5686 27C66.2965 27 86.7988 40.5055 86.7988 40.5055L72.162 49.2926H47.4087L32.6643 40.5055Z" fill="#7372C0"/>
<path fill-rule="evenodd" clip-rule="evenodd" d="M90 46.0523L74.7834 54.7044L63.3094 74.3028V93C63.3331 93.0092 71.6396 88.5931 79.0415 83.6217C83.093 80.9005 90 76.7158 90 71.6698C90 61.2727 90 46.0523 90 46.0523Z" fill="#7372C0"/>
<path fill-rule="evenodd" clip-rule="evenodd" d="M30 46.0523L45.2166 54.7044L56.6906 74.3028V93C56.6669 93.0092 48.3604 88.5931 40.9585 83.6217C36.907 80.9005 30 76.7158 30 71.6698C30 61.2727 30 46.0523 30 46.0523Z" fill="#7372C0"/>
<path fill-rule="evenodd" clip-rule="evenodd" d="M54.5282 53.6083H66.9099C67.7242 53.6083 68.4232 54.007 68.8357 54.7063C69.2478 55.4054 69.2568 56.2079 68.8601 56.9161L62.7388 67.8435C62.3355 68.5635 61.6271 68.9801 60.7992 68.9841C59.9715 68.9881 59.2592 68.5784 58.849 67.8623L52.5885 56.9346C52.1831 56.2271 52.1862 55.42 52.5971 54.7155C53.0078 54.011 53.7101 53.6083 54.5282 53.6083Z" fill="#FEA30C"/>
</svg>
