<svg width="120" height="120" viewBox="0 0 120 120" fill="none" xmlns="http://www.w3.org/2000/svg">
<g clip-path="url(#clip0_273_652)">
<path fill-rule="evenodd" clip-rule="evenodd" d="M0 120H120V0H0V120Z" fill="#DC0532"/>
<path fill-rule="evenodd" clip-rule="evenodd" d="M33 85.8686C35.9396 86.2633 44.3263 83.9221 47.1548 83.0783C53.9682 81.0454 64.7222 75.787 68.0406 69.6779C72.0713 62.257 65.5365 59.1524 64.6974 58.2649C67.7838 58.5214 71.3284 60.1075 73.5106 61.4872C75.7374 62.895 77.9967 64.9842 79.0103 68.1305C80.7284 73.4634 79.278 80.1236 75.7277 84.4017C75.2058 85.0307 74.7187 85.3833 74.3437 85.975L86.9593 86L87 32.1497C84.1949 31.9253 75.6038 34.2388 72.8723 35.1261C65.5543 37.5031 55.8251 42.0703 51.9998 48.7105C49.2183 53.5389 52.2797 58.4986 55.7113 59.7926C52.9833 59.7052 48.8444 57.8744 46.8492 56.6801C38.8449 51.8888 39.0362 41.7841 43.1957 35.3392C43.8489 34.3272 45.1881 32.5627 45.8123 32.043L33.0408 32L33 85.8686Z" fill="#FFFEFE"/>
</g>
<defs>
<clipPath id="clip0_273_652">
<rect width="120" height="120" fill="white"/>
</clipPath>
</defs>
</svg>
