<svg width="120" height="120" viewBox="0 0 120 120" fill="none" xmlns="http://www.w3.org/2000/svg">
<g clip-path="url(#clip0_273_1099)">
<path d="M120 0H0V120H120V0Z" fill="#324A59"/>
<path fill-rule="evenodd" clip-rule="evenodd" d="M63.2877 69.0093C63.2877 69.0093 82.5242 66.0666 83.9718 71.3908C84.4546 73.0465 83.6654 74.5603 82.4712 75.2081C80.5856 76.2312 65.2735 75.6781 65.2735 75.6781C66.1079 79.0675 67.0234 82.3902 67.946 85.7549C67.946 85.7549 69.2283 85.8594 70.8194 85.8593C76.1874 85.8593 83.4657 86.696 87.6017 84.2886C95.2944 79.0436 97.0307 65.759 87.3307 60.3437C82.1348 58.0201 70.3325 58.8191 70.3325 58.8191L76.8686 31L68.0418 31.0106C66.9786 34.1124 60.8575 58.8191 60.8575 58.8191L63.2877 69.0093ZM38.1503 31.162C38.1503 31.162 30.7841 31.1254 29.0674 31.162L29 39.8751C29 39.8751 34.7931 63.5203 37.1731 72.7947L37.5914 85.7687L46.6135 85.8157L46.1922 72.8724C46.1922 72.8724 44.4805 66.0279 42.4664 58.4676C39.9093 48.8691 38.2376 39.8751 38.2376 39.8751L38.1503 31.162ZM54.0158 85.8518L62.8006 85.8512L55.7159 58.6487C55.7537 59.0351 62.6971 31.162 62.7101 31.01L53.8848 31.0111C53.827 31.162 46.5987 58.3741 46.5987 58.3741L54.0158 85.8518H54.0158Z" fill="#FDFDFD"/>
</g>
<defs>
<clipPath id="clip0_273_1099">
<rect width="120" height="120" fill="white"/>
</clipPath>
</defs>
</svg>
