<svg width="120" height="120" viewBox="0 0 120 120" fill="none" xmlns="http://www.w3.org/2000/svg">
<g clip-path="url(#clip0_273_1015)">
<path fill-rule="evenodd" clip-rule="evenodd" d="M0 120H120V0H0V120Z" fill="black"/>
<path fill-rule="evenodd" clip-rule="evenodd" d="M16.0879 71.1825C20.0376 71.484 26.7608 71.798 29.2636 69.7122C32.4103 67.0898 31.7851 61.6038 28.7205 59.5232C29.7565 58.3467 30.8838 57.491 30.8791 54.8567C30.8751 52.6603 29.9824 51.0446 28.6436 49.976C26.5173 48.2787 19.3063 48.5189 16.0939 48.7927L16.0879 71.1825Z" fill="#FEFEFE"/>
<path fill-rule="evenodd" clip-rule="evenodd" d="M66.3208 71.2047L70.4386 71.2097C70.4386 71.2097 70.4386 71.2097 70.4386 56.8806C78.4859 71.179 78.4859 71.179 78.4859 71.179L83.4881 71.1762L83.4867 48.7583H79.3848C79.3845 51.1595 79.3848 63.0238 79.3848 63.0238C79.3848 62.979 70.4386 48.7583 70.4386 48.7731L66.3377 48.778L66.3208 71.2047Z" fill="#FEFEFE"/>
<path fill-rule="evenodd" clip-rule="evenodd" d="M47.0562 71.2095L51.3736 71.2255L52.4057 68.1663L60.3879 68.2722L61.475 71.1693L65.7039 71.2359L57.9652 48.7583H54.6219L47.0562 71.2095Z" fill="#FEFEFE"/>
<path fill-rule="evenodd" clip-rule="evenodd" d="M108.529 59.9718L104.432 59.978C103.889 67.9652 95.4694 69.2956 91.5756 65.3665C87.9056 61.6634 88.3616 53.3983 96.8588 52.4402L96.8883 48.3755C91.7448 48.0611 87.861 51.8041 86.3566 55.0294C84.0345 60.0076 85.7637 65.204 88.5752 68.1336C95.576 75.4286 108.479 70.6022 108.529 59.9718Z" fill="#FEFEFE"/>
<path fill-rule="evenodd" clip-rule="evenodd" d="M33.1719 71.1643L46.4344 71.2302L46.4411 67.3075C45.6702 67.3069 37.4068 67.3469 37.2884 67.2411C37.2884 67.2411 37.3245 51.3431 37.2884 48.7844L33.1767 48.7556L33.1719 71.1643Z" fill="#FEFEFE"/>
<path fill-rule="evenodd" clip-rule="evenodd" d="M20.3584 61.6883C20.3384 61.691 20.3561 67.4983 20.3946 67.5066C26.6275 68.8499 29.9718 60.3792 20.3584 61.6883Z" fill="black"/>
<path fill-rule="evenodd" clip-rule="evenodd" d="M20.3584 52.6205V57.8439C26.9594 59.054 28.7633 50.9267 20.3584 52.6205Z" fill="black"/>
<path fill-rule="evenodd" clip-rule="evenodd" d="M59.015 64.1224L56.493 56.5928C55.4852 59.0516 54.3966 61.5765 53.6582 64.1224C53.6505 64.1493 59.015 64.1224 59.015 64.1224Z" fill="black"/>
</g>
<defs>
<clipPath id="clip0_273_1015">
<rect width="120" height="120" fill="white"/>
</clipPath>
</defs>
</svg>
