<svg width="120" height="120" viewBox="0 0 120 120" fill="none" xmlns="http://www.w3.org/2000/svg">
<rect width="120" height="120" fill="#69B127"/>
<path d="M20 58.6712L24.2544 47.1924H25.8678L30.3826 58.6712H28.7125L27.4297 55.1923H22.7598L21.5568 58.6712H20ZM23.1909 53.9577H26.9703L25.8138 50.7756C25.4651 49.8082 25.2019 49.0093 25.0186 48.3788C24.8665 49.1268 24.6624 49.8616 24.4067 50.5883L23.1909 53.9577ZM31.4851 58.6712V47.1924H35.6464C36.4932 47.1924 37.1723 47.3072 37.6859 47.5398C38.1969 47.7721 38.5972 48.1303 38.8863 48.6138C39.178 49.0946 39.3226 49.5998 39.3226 50.129C39.3226 50.6177 39.1934 51.0802 38.9377 51.5129C38.6822 51.9458 38.295 52.2956 37.7761 52.5629C38.4473 52.766 38.9636 53.1134 39.3226 53.6048C39.6839 54.0938 39.8646 54.6735 39.8646 55.3417C39.8646 55.8814 39.7535 56.3809 39.5342 56.8433C39.3149 57.3055 39.0437 57.6608 38.721 57.912C38.3982 58.1605 37.993 58.35 37.5077 58.4784C37.0199 58.6067 36.4234 58.6708 35.716 58.6708L31.4851 58.6712ZM32.9567 52.0181H35.3547C36.0054 52.0181 36.4727 51.9726 36.7539 51.8844C37.1282 51.7694 37.4096 51.5772 37.5981 51.3098C37.7864 51.0427 37.8821 50.7086 37.8821 50.3052C37.8821 49.923 37.7943 49.5863 37.6161 49.2977C37.4407 49.0064 37.1878 48.8062 36.8599 48.6991C36.532 48.5923 35.9692 48.5389 35.1742 48.5389H32.9567V52.0181ZM32.9567 57.3245H35.7188C36.1938 57.3245 36.5269 57.3059 36.7205 57.2685C37.0561 57.2071 37.34 57.1029 37.5671 56.9559C37.7943 56.8089 37.9802 56.595 38.1273 56.3146C38.2742 56.034 38.3466 55.7107 38.3466 55.3445C38.3466 54.9143 38.2406 54.543 38.0265 54.2251C37.8149 53.907 37.5206 53.6853 37.1437 53.5569C36.7693 53.4286 36.2272 53.3647 35.5224 53.3647H32.9565L32.9567 57.3245ZM43.662 58.6712V48.5391H40.0069V47.1926H48.789V48.5391H45.1336V58.6712H43.662ZM49.158 53.0841C49.158 51.1817 49.6536 49.6907 50.6424 48.6138C51.631 47.5371 52.9064 47 54.4706 47C55.4954 47 56.417 47.2538 57.2405 47.7588C58.0614 48.2638 58.6887 48.9691 59.1198 49.8751C59.5507 50.7782 59.7678 51.8042 59.7678 52.9504C59.7678 54.1127 59.5406 55.1548 59.0861 56.0712C58.6319 56.9905 57.989 57.685 57.1578 58.1554C56.324 58.6282 55.4256 58.8636 54.4629 58.8636C53.4174 58.8636 52.4855 58.6016 51.662 58.0807C50.8411 57.5597 50.2164 56.8488 49.793 55.9457C49.3698 55.0453 49.158 54.0914 49.158 53.0841ZM50.676 53.1109C50.676 54.4922 51.035 55.5797 51.7524 56.3733C52.4699 57.1669 53.3709 57.5651 54.4552 57.5651C55.5599 57.5651 56.466 57.1643 57.1811 56.3627C57.8934 55.5611 58.2498 54.4228 58.2498 52.948C58.2498 52.0154 58.0976 51.2005 57.793 50.5056C57.4882 49.8108 57.0417 49.2713 56.4557 48.8893C55.8672 48.5072 55.2089 48.3148 54.4783 48.3148C53.4407 48.3148 52.5474 48.6836 51.7989 49.4209C51.0504 50.1582 50.676 51.3874 50.676 53.1109ZM64.4737 58.6712V48.5391H60.8186V47.1926H69.6007V48.5391H65.9453V58.6712H64.4737ZM69.9697 53.0841C69.9697 51.1817 70.4653 49.6907 71.4541 48.6138C72.4427 47.5371 73.718 47 75.2823 47C76.3071 47 77.2287 47.2538 78.0522 47.7588C78.8731 48.2638 79.5004 48.9691 79.9315 49.8751C80.3624 50.7782 80.5795 51.8042 80.5795 52.9504C80.5795 54.1127 80.3523 55.1548 79.8978 56.0712C79.4436 56.9905 78.8007 57.685 77.9695 58.1554C77.1357 58.6282 76.2373 58.8636 75.2746 58.8636C74.2291 58.8636 73.2972 58.6016 72.4737 58.0807C71.6528 57.5597 71.0281 56.8488 70.6047 55.9457C70.1815 55.0453 69.9697 54.0914 69.9697 53.0841ZM71.4877 53.1109C71.4877 54.4922 71.8467 55.5797 72.5641 56.3733C73.2816 57.1669 74.1826 57.5651 75.2669 57.5651C76.3716 57.5651 77.2777 57.1643 77.9928 56.3627C78.7051 55.5611 79.0615 54.4228 79.0615 52.948C79.0615 52.0154 78.9092 51.2005 78.6047 50.5056C78.2999 49.8108 77.8534 49.2713 77.2674 48.8893C76.6789 48.5072 76.0206 48.3148 75.29 48.3148C74.2524 48.3148 73.3591 48.6836 72.6106 49.4209C71.8621 50.1582 71.4877 51.3874 71.4877 53.1109ZM82.4666 58.6712V47.1924H86.6537C87.3892 47.1924 87.952 47.2299 88.342 47.3019C88.8867 47.3957 89.3435 47.5746 89.7127 47.8364C90.0819 48.1008 90.3788 48.4697 90.6032 48.9425C90.8279 49.4154 90.939 49.9365 90.939 50.5056C90.939 51.4783 90.6394 52.304 90.038 52.9773C89.439 53.6534 88.3523 53.9901 86.7829 53.9901H83.9381V58.6714L82.4666 58.6712ZM83.9381 52.6434H86.8035C87.7535 52.6434 88.4247 52.4616 88.8248 52.0957C89.2225 51.7294 89.4212 51.2165 89.4212 50.5512C89.4212 50.0729 89.3049 49.6614 89.07 49.3194C88.8353 48.9773 88.5254 48.7501 88.1433 48.6406C87.8955 48.5737 87.4387 48.5389 86.7752 48.5389H83.9381V52.6434ZM92.8286 47.1926H100V48.5391H94.2999V58.6712H92.8286V47.1926Z" fill="white"/>
<path d="M20 64.1366H28.184L27.0139 66.1415H22.218V68.8919H25.1728C25.9861 68.8919 26.6644 68.9999 27.1998 69.215C27.7377 69.4303 28.1965 69.8281 28.5766 70.4107C28.9565 70.9908 29.1477 71.6729 29.1477 72.4543C29.1477 73.2551 28.9565 73.9426 28.5715 74.5142C28.1889 75.0831 27.7531 75.4754 27.2611 75.6852C26.7717 75.8951 26.0728 76 25.1679 76H20.0002L20 64.1366ZM22.218 73.9953H24.3673C25.0531 73.9953 25.5374 73.9593 25.8154 73.8874C26.0933 73.8157 26.3381 73.6528 26.5445 73.396C26.7509 73.1419 26.8531 72.8271 26.8531 72.4543C26.8531 71.9102 26.6721 71.5152 26.3125 71.2669C25.9503 71.021 25.3361 70.8966 24.4642 70.8966H22.218V73.9953ZM40.2332 76H37.8444L36.8985 73.2993H32.5056L31.5954 76H29.2497L33.5023 64.1364H35.8456L40.2332 76ZM36.1796 71.2944L34.6574 66.9038L33.1785 71.2944H36.1796ZM41.4137 76V64.1364H43.6319V68.809H47.9459V64.1364H50.1639V76H47.9459V70.8139H43.6319V76H41.4137Z" fill="#2B2A29"/>
<path fill-rule="evenodd" clip-rule="evenodd" d="M52.8191 64.4359V76H54.7991V72.936L57.2112 70.4943L59.6462 75.8157H61.9672L58.7132 68.0987L61.8535 64.2517H59.1912L54.89 70.1949V64.1364H52.7869L52.8191 64.4359Z" fill="#2B2A29"/>
</svg>
