<svg width="120" height="120" viewBox="0 0 120 120" fill="none" xmlns="http://www.w3.org/2000/svg">
<rect width="120" height="120" fill="#017439"/>
<path fill-rule="evenodd" clip-rule="evenodd" d="M28.6723 68.6841C35.5698 68.6399 47.6866 70.7113 47.1377 60.6744C47.0349 58.7948 46.2652 56.4599 44.5267 55.6679L43.6401 55.2393C46.8008 53.3313 47.2185 47.1412 43.3303 45.2794C41.1749 44.2475 31.7746 44.6556 28.6704 44.6936L28.6723 68.6841ZM35.0529 63.6346C37.8538 63.6904 40.8639 63.8801 40.9364 60.8605C41.0109 57.756 37.8548 57.9826 35.1166 58.0115L35.0529 63.6346ZM35.0662 53.759C36.5145 53.7546 39.5914 54.0379 39.8834 51.4552C40.1883 48.7558 37.3995 48.9222 35.11 48.9659L35.0662 53.759Z" fill="white"/>
<path fill-rule="evenodd" clip-rule="evenodd" d="M57.9267 61.886C58.6371 65.5338 51.4227 63.3405 50.5802 63.1996L49.4522 67.7232C51.5111 69.1537 56.804 69.0181 59.2689 68.2178C62.3596 67.2143 63.8553 65.4798 64.8712 62.2085C65.5612 59.9865 70.3834 45.7683 70.3829 44.8411L63.9138 44.8353C63.0595 46.5761 61.1427 56.0544 60.4132 57.3546L56.1445 44.8695L48.8257 44.8347C48.9151 46.016 51.4659 52.9281 52.0717 54.4929C52.6829 56.0719 53.2762 57.5681 54.1031 58.9895C54.9641 60.4694 55.7168 61.7331 57.9267 61.886Z" fill="white"/>
<path fill-rule="evenodd" clip-rule="evenodd" d="M72.6711 45.1781L73.5424 49.9915C75.2381 49.6636 84.2864 47.1056 82.3528 52.4525C81.4245 55.0197 77.8851 53.7115 75.5902 54.0341C75.5809 54.4887 75.5341 57.3339 75.6169 57.5508C76.0473 58.6774 83.2352 56.4977 83.8287 60.5621C84.1515 62.7723 81.7033 63.6116 79.5361 63.6685C76.26 63.7545 74.5261 62.7052 73.0041 62.607L72.8351 67.7183C75.8157 68.9915 84.174 69.5838 87.8404 66.9413C91.7063 64.155 91.0159 56.6734 86.2797 55.2323C87.5209 53.92 88.8936 52.8126 89.0237 50.1962C89.1521 47.6142 87.845 46.1363 86.2025 45.193C82.9465 43.3231 76.289 43.9124 72.6711 45.1781Z" fill="white"/>
<path fill-rule="evenodd" clip-rule="evenodd" d="M28 77.9831L90.9544 78L91 74.4697L28.0344 74.4486L28 77.9831Z" fill="white"/>
</svg>
