<svg width="120" height="120" viewBox="0 0 120 120" fill="none" xmlns="http://www.w3.org/2000/svg">
<rect width="120" height="120" fill="#00BEF6"/>
<path d="M18 59.8144C18 42.0379 29.354 26.8767 45.3 21L51.6 34.1884C40.6327 37.6826 32.7 47.8349 32.7 59.8144C32.7 71.7939 40.6327 81.9461 51.6 85.4403L46.35 99C29.8547 93.4122 18 77.9787 18 59.8144Z" fill="white"/>
<path d="M68.4 34.1884C79.3673 37.6826 87.3 47.8349 87.3 59.8144C87.3 71.7939 79.3673 81.9461 68.4 85.4403L74.7 98.6287C90.646 92.752 102 77.5909 102 59.8144C102 42.0379 90.646 26.8767 74.7 21L68.4 34.1884Z" fill="white"/>
</svg>
