<svg width="120" height="120" viewBox="0 0 120 120" fill="none" xmlns="http://www.w3.org/2000/svg">
<g clip-path="url(#clip0_273_776)">
<rect width="120" height="120" fill="#E0192E"/>
<path fill-rule="evenodd" clip-rule="evenodd" d="M48.266 41.1167C43.6192 41.8086 39.8757 45.43 40.7152 50.9636C41.404 55.5038 45.7431 58.8291 51.2073 57.9989C55.722 57.3131 59.4308 53.4298 58.5403 48.1455C57.7919 43.7046 53.6176 40.3199 48.266 41.1167ZM48.7014 44.9684C42.9248 46.0957 44.3657 55.3973 50.6 54.1536C56.2843 53.0196 54.9001 43.7588 48.7014 44.9684Z" fill="white"/>
<path fill-rule="evenodd" clip-rule="evenodd" d="M78.4853 57.8523L82.6037 57.8501L82.6637 49.6834C83.3198 50.2765 85.7901 54.8942 86.7508 56.1693L88.7391 56.1671C89.3717 55.3898 90.2318 53.7128 90.7552 52.8328C91.4096 51.7326 92.1236 50.5943 92.792 49.4862L92.8535 57.8473L96.9614 57.8516L97 41.3175L93.3719 41.2845C92.6183 42.7558 91.5007 44.5167 90.6238 45.946C90.3296 46.4256 88.184 50.2487 87.7595 50.6154L84.8978 45.9431C84.4435 45.1986 83.9286 44.3315 83.4797 43.5833C81.7686 40.7317 82.8331 41.2866 78.5012 41.2867L78.4853 57.8523Z" fill="white"/>
<path fill-rule="evenodd" clip-rule="evenodd" d="M23.8491 78.9029C26.3961 79.017 30.0785 79.0512 32.5635 78.8909C39.777 78.4258 39.6647 71.4204 36.2893 69.4158C34.1866 68.167 31.0536 68.5796 28.3071 68.5142L28.2531 66.0133L37.3216 66.0067L37.3215 62.3568L23.8845 62.3555L23.8491 78.9029ZM28.2495 75.4308C29.3562 75.4699 30.8334 75.5089 31.9055 75.428C33.0954 75.3383 33.982 74.9718 34.017 73.7586C34.0856 71.372 30.2039 71.8942 28.2577 71.9575L28.2495 75.4308Z" fill="white"/>
<path fill-rule="evenodd" clip-rule="evenodd" d="M60.7993 78.8863L65.1501 78.9202L65.2102 72.4463L71.6186 72.4206L71.6303 78.88L75.9798 78.919L76.0391 62.3609L71.6523 62.361L71.6231 68.565L65.2102 68.5754L65.2014 62.3582L60.8239 62.3602L60.7993 78.8863Z" fill="white"/>
<path fill-rule="evenodd" clip-rule="evenodd" d="M39.7795 78.9083L44.2622 78.9158L45.5753 75.7896C45.6668 75.6363 45.6734 75.6327 45.754 75.5394L52.5372 75.5286L53.9156 78.9215L58.4934 78.917C58.4417 78.5282 51.5182 62.9382 51.119 62.3591L47.0677 62.3553C46.4912 63.7272 39.9216 78.0897 39.7795 78.9083ZM47.1895 71.97L50.9784 71.9826C50.6339 70.6885 49.638 68.568 49.0674 67.3449C49.0405 67.5427 48.3239 69.1528 48.1656 69.5338C47.8234 70.3587 47.4258 71.1634 47.1895 71.97Z" fill="white"/>
<path fill-rule="evenodd" clip-rule="evenodd" d="M80.3815 78.8796L84.5866 78.9188C85.0453 75.8834 83.8588 73.3567 85.4115 72.7348C86.0421 73.3352 86.7677 74.3287 87.3022 74.9975L90.1884 78.4925C90.6499 79.1032 90.8802 78.9257 91.8021 78.9195C93.1702 78.9102 94.7079 78.9899 96.0514 78.8976L88.5834 69.8413C88.8245 69.2973 91.4647 66.7715 92.075 66.1033C93.0955 64.9862 95.0595 63.285 95.6848 62.366C94.3781 62.2686 92.873 62.3454 91.5421 62.3383C89.4688 62.3271 90.3859 62.3119 88.8023 63.7538C88.1059 64.3878 87.2977 65.218 86.7075 65.826C86.0613 66.4917 85.3547 67.3567 84.665 67.8872L84.6307 62.3503L80.3886 62.3468L80.3815 78.8796Z" fill="white"/>
<path fill-rule="evenodd" clip-rule="evenodd" d="M28.7805 49.298C28.5607 49.9933 23.299 57.064 23 57.8328L28.0126 57.844C28.8678 56.8844 30.5742 54.0444 31.1995 53.2836C31.2235 53.2545 31.2965 53.1728 31.3216 53.1478C31.479 52.9926 31.392 53.0659 31.5347 52.9796C32.1432 53.6803 32.718 54.6329 33.2614 55.4075C33.818 56.201 34.3885 57.1238 34.9946 57.8383L40.0856 57.8458C40.0148 57.4953 37.6503 54.126 37.2239 53.5392L34.2995 49.2003C34.6408 48.5688 35.1854 47.877 35.604 47.2747C36.7519 45.6234 38.8323 42.7797 39.6994 41.3285L34.5251 41.2838C33.8336 42.5297 32.0514 44.7396 31.5787 45.7151C31.0728 45.3745 28.7337 41.7326 28.4367 41.2913L23.3447 41.2915L28.7805 49.298Z" fill="white"/>
<path fill-rule="evenodd" clip-rule="evenodd" d="M65.6467 53.2109C64.8355 54.7528 63.6745 54.3226 61.8892 54.0617L60.8414 57.5135C63.4379 58.2839 65.1238 58.6744 67.3168 57.0358C68.9104 55.8452 69.6374 54.0296 70.7062 52.0933C71.1536 51.2825 76.2531 41.9613 76.4431 41.2923L72.0708 41.2863C71.4094 42.6019 70.7542 43.8694 70.0724 45.2308C69.7245 45.9254 69.4026 46.5115 69.0454 47.1915C68.8517 47.5603 68.7084 47.8522 68.5221 48.2284C68.3322 48.612 68.222 48.931 67.9043 49.2364L64.0206 41.297L59.3182 41.2872L65.6467 53.2109Z" fill="white"/>
</g>
<defs>
<clipPath id="clip0_273_776">
<rect width="120" height="120" fill="white"/>
</clipPath>
</defs>
</svg>
