<svg width="120" height="120" viewBox="0 0 120 120" fill="none" xmlns="http://www.w3.org/2000/svg">
<g clip-path="url(#clip0_273_363)">
<rect width="120" height="120" fill="#00ADEF"/>
<path d="M69.5466 76.8294L69.5874 76.803C69.9423 76.574 70.323 76.1697 70.7111 75.6097C71.0954 75.0552 71.4675 74.3765 71.8146 73.6306C72.5089 72.1387 73.0854 70.4164 73.4516 68.9718L73.9362 69.0947L73.4516 68.9718C74.3652 65.3689 75.02 61.6311 75.6786 57.872C76.0815 55.5723 76.4858 53.2646 76.9516 50.9749C77.2659 45.7897 75.9196 42.9685 73.7089 41.4009C71.44 39.792 68.136 39.402 64.3027 39.405C63.4206 39.4056 62.5446 39.3858 61.6848 39.3659L61.6334 39.3647C60.7894 39.3452 59.9617 39.326 59.1487 39.3259C57.4884 39.3256 55.9142 39.4049 54.4461 39.7146C51.5479 40.3258 49.0252 41.8392 47.133 45.5527C46.7606 46.2836 46.274 47.4759 45.8594 48.7594C45.4435 50.0468 45.1127 51.3874 45.0323 52.4221L45.0298 52.4545L45.0231 52.4864L42.5955 64.0215C42.018 67.8494 41.7278 71.6735 42.6477 74.5834C43.1035 76.0251 43.8505 77.2218 44.9932 78.0888C46.1372 78.9569 47.7197 79.5264 49.9013 79.6389C52.2737 79.7612 54.7618 79.7254 57.2367 79.6897L69.5466 76.8294ZM69.5466 76.8294L69.5116 76.8631C67.212 79.0785 64.7451 79.664 60.9757 79.6562L69.5466 76.8294ZM59.9972 48.3435L59.8714 48.4216L59.8084 48.5557C59.0095 50.2573 58.7582 51.6314 58.4228 53.4651C58.3442 53.895 58.261 54.3502 58.165 54.8408C58.1648 54.8415 58.1647 54.8423 58.1645 54.843L57.0179 60.4386C56.8847 60.8733 56.4565 62.8015 56.0954 64.8064C55.9086 65.8437 55.7367 66.9184 55.6302 67.8407C55.5265 68.7381 55.4749 69.5627 55.5644 70.0567L55.5869 70.181L55.6658 70.2797C56.4743 71.2917 57.8686 71.4121 58.9067 70.6444C59.4397 70.2502 59.6934 69.6928 59.8528 69.1117C59.9517 68.7515 60.0261 68.3273 60.102 67.8949C60.1425 67.6639 60.1834 67.4307 60.2287 67.2037C60.2287 67.2036 60.2287 67.2035 60.2287 67.2034L63.1289 52.7359C63.1291 52.7351 63.1293 52.7342 63.1294 52.7334C63.2943 51.9509 63.4207 51.1815 63.4666 50.4956C63.5117 49.821 63.4833 49.1738 63.2978 48.6665C63.2028 48.4067 63.0586 48.1615 62.8411 47.9733C62.6182 47.7804 62.3455 47.6713 62.0394 47.6469C61.4586 47.6007 60.7758 47.8597 59.9972 48.3435ZM39.7656 72.9186L39.7668 72.9465L39.7711 72.974C40.2049 75.7533 41.024 77.7526 42.1112 79.1847C43.203 80.6227 44.5423 81.4583 45.9599 81.9443C47.3673 82.4268 48.8486 82.5634 50.228 82.6168C50.702 82.6352 51.1575 82.6439 51.5944 82.6523C52.2528 82.6649 52.8692 82.6768 53.4437 82.7195C53.4391 82.7431 53.4345 82.7674 53.4296 82.7924C53.3589 83.1572 53.2564 83.6696 53.1314 84.2855C52.8816 85.5168 52.5426 87.157 52.1895 88.8467C51.5732 91.7958 50.9168 94.8817 50.6154 96.2115C48.8048 95.7573 47.6311 94.4407 46.5405 93.1271L46.5402 93.1268C44.6405 90.8421 42.7371 88.5353 40.8293 86.223C36.4225 80.882 31.9918 75.512 27.5259 70.3189L27.5259 70.3189C27.1169 69.8434 26.7266 69.4042 26.3571 68.9885C25.2032 67.6903 24.2523 66.6204 23.5709 65.3857C22.6982 63.8041 22.275 61.945 22.6201 59.0009C22.8577 57.2047 23.8752 55.7683 25.2459 54.4407C25.9314 53.7767 26.6939 53.1505 27.4771 52.5242C27.6208 52.4092 27.7654 52.2941 27.9103 52.1788C28.5492 51.6703 29.1941 51.1569 29.7956 50.6308L29.7956 50.6308C35.7656 45.4077 41.8513 40.3485 47.9382 35.2884C50.3815 33.2573 52.825 31.2259 55.2613 29.1838L55.2619 29.1833C55.8831 28.6609 56.4996 28.1108 57.1191 27.5581C58.2612 26.5391 59.4132 25.5112 60.6234 24.6318C62.3135 23.4036 64.0074 22.5544 65.7489 22.5025C65.7205 22.7687 65.673 23.0977 65.6093 23.4768C65.4998 24.128 65.3484 24.8924 65.1852 25.672C65.029 26.4181 64.86 27.1863 64.7085 27.8751C64.5471 28.6089 64.4056 29.2525 64.3203 29.6834L64.3203 29.6834C64.2774 29.9003 64.212 30.2814 64.131 30.7532C64.1056 30.9008 64.0788 31.0574 64.0506 31.2205C63.9312 31.9113 63.7862 32.7338 63.6277 33.5456C63.4689 34.359 63.298 35.1535 63.1275 35.7904C63.0421 36.1093 62.959 36.3803 62.8802 36.5907C62.8473 36.6785 62.8178 36.7483 62.7926 36.8027C61.5606 36.9281 60.3513 36.8983 59.1096 36.8677C58.7807 36.8596 58.4495 36.8515 58.1149 36.8461C56.4537 36.8196 54.7405 36.8652 52.9756 37.3818C51.5002 37.8136 50.3196 38.3746 49.1487 39.304L49.1486 39.304C46.8597 41.1211 45.4661 43.5867 44.3356 46.4566C43.6883 48.0997 42.784 51.758 41.9597 55.5505C41.1321 59.3578 40.3735 63.3562 40.0223 65.7097C39.6478 68.2195 39.6526 70.3278 39.7656 72.9186ZM62.5421 90.7926L62.5006 90.8277L62.4676 90.8709C62.0932 91.3604 61.3459 92.0491 60.5133 92.7526C59.8118 93.3454 59.0802 93.9237 58.5189 94.3674C58.4228 94.4434 58.3316 94.5154 58.2465 94.5829C57.616 95.0827 56.7167 95.5986 55.7288 95.9699C54.9387 96.2669 54.1149 96.4628 53.3443 96.4952L54.2576 92.0469L54.2607 92.032L54.2628 92.017C54.4195 90.9198 54.6499 89.8457 54.884 88.7547C55.0046 88.1928 55.1261 87.6264 55.239 87.0499L55.239 87.0499C55.375 86.3551 55.4811 85.7672 55.5716 85.2652C55.6935 84.5894 55.7873 84.0694 55.8883 83.654C56.0659 82.9238 56.2197 82.7536 56.3751 82.6762C56.4735 82.6272 56.6272 82.5886 56.8966 82.5755C57.1657 82.5624 57.5057 82.5759 57.9591 82.6018C58.0736 82.6084 58.1942 82.6156 58.3211 82.6233C59.1884 82.6754 60.3512 82.7454 61.9044 82.7281C66.7596 82.6742 69.6774 80.929 71.4867 79.0509C72.3843 78.1191 72.998 77.1664 73.4379 76.4027C73.5785 76.1585 73.7069 75.9235 73.8176 75.721C73.876 75.6141 73.9295 75.5162 73.9771 75.4308C74.1324 75.153 74.2199 75.022 74.2681 74.9741L74.3453 74.8971L74.3835 74.795C75.6613 71.3783 76.3962 67.6044 77.1133 63.9217C77.3522 62.6949 77.5891 61.4783 77.8434 60.2883C77.9564 59.7596 78.0744 59.2235 78.1936 58.6822C78.9028 55.4605 79.6534 52.051 79.6369 48.8699C79.6173 45.1195 78.5331 41.6098 75.0533 39.0146L74.7544 39.4154L75.0533 39.0146C72.0727 36.7918 69.5912 36.8009 66.0926 36.8136C65.8916 36.8144 65.6872 36.8151 65.4792 36.8155L65.5112 36.4561L68.2452 22.7965C68.3641 22.8383 68.5057 22.9006 68.6719 22.9893C69.0557 23.1945 69.5158 23.5112 70.0451 23.9352C71.1025 24.7823 72.3875 26.0176 73.8199 27.5268C76.6819 30.5426 80.0899 34.6068 83.3737 38.7279C86.656 42.8473 89.8076 47.015 92.1554 50.2332C93.3295 51.8426 94.301 53.2123 94.9866 54.2184C95.3297 54.722 95.5987 55.1307 95.785 55.4312C95.8784 55.582 95.9479 55.7005 95.9947 55.7874C96.0304 55.8537 96.0427 55.8834 96.0449 55.8874L96.0648 55.9791L96.1347 56.069C96.2637 56.2348 96.3706 56.5048 96.4347 56.883C96.4976 57.2544 96.5127 57.6902 96.4901 58.1496C96.4448 59.071 96.2512 60.025 96.0509 60.6307C95.5463 62.1559 94.1777 63.7583 92.5235 65.2944C91.2975 66.4327 89.963 67.4926 88.7835 68.4294C88.3801 68.7499 87.9948 69.0559 87.6382 69.3457L87.9535 69.7337L87.6382 69.3457C82.5665 73.4678 77.5032 77.8692 72.4603 82.2527C69.1442 85.1352 65.837 88.01 62.5421 90.7926Z" fill="white" stroke="#00ADEF"/>
</g>
<defs>
<clipPath id="clip0_273_363">
<rect width="120" height="120" fill="white"/>
</clipPath>
</defs>
</svg>
