<svg width="120" height="120" viewBox="0 0 120 120" fill="none" xmlns="http://www.w3.org/2000/svg">
<rect width="120" height="120" fill="#E5011A"/>
<path fill-rule="evenodd" clip-rule="evenodd" d="M33.6812 82.9458C36.3305 86.6405 36.3516 84.8581 39.5648 83.1584C40.9703 83.7056 42.043 84.767 43.7207 85.6562C68.6868 98.8853 95.0014 73.6046 85.6911 48.6918C84.3784 45.1791 83.8554 45.8371 85.047 44.0395C86.5115 41.8305 85.4819 40.6935 84.678 39.0488C83.8035 39.9689 84.2915 39.8757 83.6933 41.1131C83.0109 42.5249 74.4323 50.2721 73.2561 51.3037C60.856 62.1787 54.4166 68.1321 40.926 78.3674C39.7084 79.2913 38.7596 79.9685 37.496 80.8707C33.9917 83.3727 34.5068 82.4126 33.6812 82.9458Z" fill="white"/>
<path fill-rule="evenodd" clip-rule="evenodd" d="M34.8763 78.0227L53.2395 52.2281C54.3754 50.7051 59.0173 44.9477 59.26 43.5542C55.4455 41.6264 52.9088 39.5774 53.7534 38.317C58.4746 35.263 71.7271 36.7331 76.8992 36.1815C75.955 34.652 70.7517 31.87 68.6023 31.0521C64.8303 29.6169 61.1328 28.8407 56.4348 29.0274C36.5296 29.8175 23.121 50.1587 29.6821 69.0694C30.6742 71.9294 32.9964 76.8281 34.8763 78.0227Z" fill="white"/>
</svg>
