<svg width="120" height="120" viewBox="0 0 120 120" fill="none" xmlns="http://www.w3.org/2000/svg">
<rect width="120" height="120" fill="#BD0D31"/>
<path d="M56.9701 66.9636C56.9201 67.1134 56.8235 67.2436 56.6945 67.3342C56.5652 67.4248 56.4106 67.4713 56.2531 67.4671C56.1531 67.4824 56.0511 67.474 55.9548 67.4422C55.8589 67.4103 55.7712 67.3567 55.6999 67.2847C55.6285 67.2131 55.5747 67.1255 55.5429 67.0289C55.5115 66.9328 55.5029 66.83 55.5181 66.7296C55.5129 66.5943 55.5433 66.46 55.6064 66.3399C55.6691 66.2198 55.7622 66.1189 55.8768 66.0465C56.67 65.264 57.3245 64.3519 57.8122 63.3487C58.3554 62.3497 58.6447 61.232 58.6547 60.0938V38.5138H51.5929C50.1175 38.5024 48.6566 38.809 47.3096 39.4131C45.382 40.2181 43.7366 41.5794 42.5816 43.3244C41.4262 45.0693 40.8137 47.1192 40.8212 49.2138C40.8209 50.6198 40.9893 52.0205 41.3235 53.386C41.579 54.576 42.0729 55.702 42.775 56.6948C43.4961 57.636 44.4381 58.3835 45.5171 58.8707C46.7998 59.4524 48.1965 59.7355 49.6037 59.6981C50.389 59.6929 51.169 59.5652 51.9157 59.3202C52.7024 59.0818 53.438 58.6973 54.0843 58.1872C54.7657 57.646 55.3173 56.9577 55.6973 56.1733C56.126 55.2393 56.3226 54.215 56.2708 53.1879C56.375 51.729 55.9693 50.2794 55.1237 49.0879C54.7639 48.626 54.3005 48.2564 53.7707 48.0097C53.241 47.7626 52.6605 47.6454 52.0767 47.6671C51.3911 47.6772 50.7099 47.78 50.0515 47.9728C49.7004 48.0744 49.3828 48.268 49.131 48.5336C48.8789 48.799 48.7019 49.1267 48.6178 49.4835C48.6178 49.4835 48.7251 49.4835 48.9402 49.4835C49.1996 49.4867 49.4555 49.5423 49.6927 49.6472C49.9301 49.7524 50.1435 49.9047 50.3201 50.095C50.5091 50.2935 50.6567 50.5276 50.7553 50.7839C50.8536 51.04 50.9008 51.313 50.8936 51.5874C50.9216 52.1394 50.7352 52.6809 50.3738 53.0983C50.2172 53.2882 50.02 53.4401 49.7966 53.5429C49.573 53.6457 49.3292 53.6966 49.0837 53.6914C48.8195 53.6959 48.5574 53.645 48.3139 53.5429C48.0701 53.4409 47.85 53.2896 47.6675 53.0983C47.4814 52.8955 47.3379 52.6575 47.2454 52.3979C47.153 52.138 47.1137 51.8626 47.1299 51.5875V51.4616C47.1205 50.2594 47.5117 49.0884 48.2411 48.1347C48.756 47.6534 49.3633 47.2824 50.0259 47.0443C50.6884 46.8063 51.3923 46.7063 52.0945 46.7501C52.7859 46.7242 53.475 46.8405 54.12 47.0917C54.8086 47.3536 55.4236 47.7796 55.9122 48.3326C56.4621 48.9493 56.8934 49.6624 57.1845 50.4366C57.5478 51.3764 57.7243 52.3782 57.7043 53.3859C57.7423 54.6932 57.4785 55.9919 56.9338 57.1802C56.4669 58.1228 55.7926 58.9468 54.9621 59.5901C54.1824 60.2033 53.2858 60.6497 52.3276 60.903C51.4039 61.1538 50.4525 61.2871 49.4958 61.2985C45.9615 61.5328 42.4737 60.3856 39.7636 58.0976C38.5951 56.9259 37.6885 55.5182 37.1047 53.9679C36.5205 52.4173 36.2722 50.7601 36.3763 49.1056C36.3462 47.3231 36.7788 45.5632 37.6309 43.9983C38.4714 42.512 39.6205 41.224 41.0004 40.2219C42.471 39.1471 44.1138 38.3321 45.8574 37.8119C47.7147 37.2362 49.649 36.951 51.5928 36.9669H58.6547C58.6225 35.9002 58.3659 34.8523 57.9018 33.8917C57.4982 32.945 56.885 32.1026 56.1095 31.4282C55.956 31.3974 55.8194 31.3105 55.7266 31.1842C55.6335 31.0576 55.5914 30.9008 55.6076 30.7448C55.5946 30.6511 55.6021 30.5556 55.6298 30.4649C55.6574 30.3743 55.7042 30.2911 55.7677 30.2205C55.8308 30.1504 55.9088 30.095 55.9956 30.0579C56.0825 30.0211 56.1764 30.0039 56.2708 30.0073C56.3998 29.9924 56.5306 30.019 56.6433 30.0838C56.7561 30.1484 56.8454 30.2478 56.8982 30.3668H63.9237C63.9766 30.2478 64.0659 30.1485 64.1786 30.0838C64.2917 30.019 64.4221 29.9924 64.5511 30.0073C64.6511 29.9921 64.7531 30.0008 64.8495 30.0322C64.9457 30.0641 65.033 30.118 65.1043 30.1897C65.1761 30.2613 65.2296 30.3493 65.2613 30.4455C65.2927 30.542 65.3013 30.6444 65.2861 30.7448C65.3027 30.9009 65.2603 31.0576 65.1671 31.1842C65.0744 31.3105 64.9378 31.3974 64.7843 31.4282C64.0086 32.1027 63.3958 32.945 62.992 33.8917C62.5278 34.8523 62.2712 35.9002 62.2391 36.9669H69.3009C71.2561 36.9538 73.2022 37.239 75.0721 37.8119C76.821 38.3331 78.4695 39.1477 79.947 40.2219C81.3304 41.2496 82.4789 42.5618 83.3166 44.0703C84.1688 45.635 84.6012 47.395 84.5712 49.1775C84.674 50.8348 84.4219 52.4951 83.8315 54.0461C83.2407 55.597 82.3257 57.003 81.148 58.1696C78.4286 60.4539 74.937 61.6002 71.3979 61.3705C70.4412 61.3577 69.49 61.2248 68.5661 60.9746C67.608 60.7216 66.7113 60.2749 65.9315 59.6621C65.1011 59.0187 64.4271 58.1948 63.9598 57.2521C63.4287 56.0362 63.1894 54.7118 63.2612 53.3858C63.2353 52.3791 63.4056 51.3773 63.7629 50.4365C64.054 49.6623 64.4854 48.9492 65.0352 48.3325C65.5226 47.7778 66.1378 47.3519 66.8275 47.0916C67.4607 46.8431 68.1377 46.7269 68.8172 46.7501C69.5193 46.7061 70.2232 46.8062 70.8857 47.0442C71.5483 47.2823 72.1556 47.6533 72.6705 48.1346C73.3999 49.0883 73.791 50.2593 73.7817 51.4615V51.5874C73.7907 51.8664 73.743 52.1442 73.6414 52.4041C73.5396 52.6636 73.3861 52.8999 73.1903 53.0982C73.0074 53.2895 72.7877 53.4408 72.5439 53.5428C72.3004 53.6449 72.0383 53.6958 71.7742 53.6913C71.5286 53.6965 71.2848 53.6456 71.0613 53.5428C70.8378 53.44 70.6405 53.2881 70.484 53.0982C70.1226 52.6808 69.9362 52.1393 69.9642 51.5874C69.957 51.3042 70.0074 51.0229 70.1123 50.7603C70.217 50.4973 70.374 50.2589 70.5737 50.059C70.7503 49.8686 70.9641 49.7164 71.201 49.6112C71.4383 49.5063 71.6942 49.4506 71.9536 49.4475C72.1687 49.4475 72.2763 49.4475 72.2763 49.4475C72.1922 49.0908 72.0149 48.7631 71.7631 48.4976C71.511 48.2322 71.1934 48.0384 70.8423 47.9367C70.1821 47.756 69.501 47.6654 68.8171 47.6671C68.2332 47.6454 67.6527 47.7626 67.1231 48.0097C66.5936 48.2564 66.1297 48.626 65.7701 49.0879C64.9245 50.2794 64.5188 51.729 64.6229 53.1879C64.5936 54.2209 64.8147 55.2455 65.2682 56.1733C65.6484 56.9577 66.1998 57.646 66.8813 58.1872C67.5276 58.6973 68.2629 59.0818 69.0499 59.3202C69.7965 59.5652 70.5767 59.6929 71.3619 59.6981C72.7691 59.7355 74.166 59.4524 75.4484 58.8707C76.5158 58.3558 77.4394 57.5834 78.1367 56.6228C78.824 55.6501 79.3113 54.5496 79.5707 53.3859C79.8807 52.0418 80.0311 50.6653 80.0187 49.2856C80.0414 47.8838 79.7869 46.4913 79.2703 45.1888C78.7532 43.8863 77.9842 42.6994 77.0075 41.6969C76.0342 40.7169 74.8768 39.9402 73.6021 39.4129C72.2675 38.8347 70.8258 38.5468 69.3725 38.5675H62.3108V60.1476C62.3207 61.2853 62.6101 62.4034 63.1533 63.4025C63.6526 64.361 64.3069 65.2299 65.0887 65.9743C65.2028 66.0465 65.2963 66.1477 65.3591 66.2678C65.4218 66.3878 65.4525 66.5221 65.4474 66.6577C65.4619 66.7564 65.4533 66.8567 65.4229 66.9515C65.3922 67.0467 65.3402 67.1333 65.2708 67.2045C65.2015 67.2757 65.1165 67.3302 65.0228 67.3631C64.929 67.3963 64.829 67.407 64.7303 67.3949C64.5703 67.4004 64.413 67.3544 64.2809 67.2638C64.1485 67.1731 64.0489 67.043 63.9954 66.8914L56.9701 66.9636Z" fill="white"/>
<path d="M51.3964 53.5841C51.3853 55.3202 50.7487 56.9936 49.6041 58.2959C48.1822 59.8841 46.3032 60.9904 44.2275 61.4608C45.5366 61.8632 46.7892 62.4314 47.9553 63.1511C49.0596 63.8031 50.0522 64.6288 50.8946 65.597C51.6683 66.5147 52.2749 67.5618 52.6869 68.6902C53.1384 69.8346 53.3637 71.0561 53.3502 72.2867C53.353 73.5311 53.0774 74.7602 52.5436 75.8835C51.9753 77.0306 51.1613 78.0377 50.1601 78.8328C49.033 79.7283 47.7422 80.3945 46.3602 80.7927C44.6814 81.3008 42.9338 81.5434 41.1805 81.5122H25.4264C25.3698 81.6461 25.275 81.7603 25.1539 81.8405C25.0325 81.9204 24.8904 81.9627 24.7452 81.9617C24.6438 81.978 24.5397 81.9689 24.4417 81.9363C24.3441 81.9038 24.2555 81.8482 24.1837 81.7744C24.1117 81.7004 24.0585 81.6103 24.0282 81.5114C23.9981 81.4128 23.9919 81.308 24.0105 81.2061C24.0022 81.0549 24.0409 80.9043 24.1212 80.7756C24.2012 80.6469 24.3192 80.5458 24.4585 80.487C25.2855 79.7524 25.9404 78.8436 26.3764 77.8252C26.8498 76.8247 27.1009 75.7323 27.111 74.6243V51.6776C27.1054 51.1347 27.0206 50.5956 26.8602 50.0769C26.695 49.5277 26.4725 48.9973 26.197 48.4945C25.9355 48.0062 25.6482 47.5318 25.3365 47.0739C25.0644 46.669 24.7713 46.279 24.4584 45.9049C24.1893 45.8149 24.0104 45.5811 24.0104 45.2215C23.996 45.1229 24.0042 45.0222 24.0349 44.9274C24.0653 44.8325 24.1173 44.7459 24.1867 44.6747C24.2564 44.6035 24.3412 44.5491 24.435 44.5158C24.5285 44.483 24.6288 44.4719 24.7275 44.484C24.8644 44.4778 25 44.5141 25.1155 44.5882C25.2311 44.6622 25.3207 44.7702 25.3725 44.8979H36.4132C38.2928 44.8955 40.1693 45.0519 42.023 45.3654C43.6799 45.626 45.2914 46.1226 46.8082 46.8399C48.1187 47.4582 49.2668 48.3757 50.1601 49.5193C51.0085 50.6996 51.4434 52.1294 51.3964 53.5841ZM35.9472 67.773C35.9441 67.5758 35.9841 67.3799 36.0644 67.1997C36.1451 67.0193 36.264 66.8592 36.4131 66.7301C36.7145 66.4622 37.1034 66.3142 37.5063 66.3142C37.9092 66.3142 38.2982 66.4622 38.5996 66.7301C38.7409 66.8661 38.8538 67.0295 38.9307 67.21C39.0075 67.3911 39.0472 67.5855 39.0472 67.782C39.0472 67.9786 39.0075 68.1731 38.9307 68.354C38.8538 68.5351 38.7409 68.6983 38.5996 68.8339C38.283 69.1122 37.8732 69.26 37.4525 69.2478C36.8897 69.28 36.3264 69.1907 35.8004 68.9859C35.2748 68.7814 34.7993 68.4657 34.4053 68.0609C33.6604 67.2366 33.2676 66.1514 33.3122 65.0395C33.3142 64.4617 33.4456 63.8917 33.6967 63.3718C33.9481 62.8518 34.313 62.3953 34.7641 62.0362C35.9798 61.0936 37.4959 60.6267 39.0295 60.7237H39.603C40.901 60.7258 42.1865 60.4693 43.3849 59.9683C44.335 59.5387 45.1934 58.928 45.9119 58.1699C46.5168 57.5446 46.992 56.8051 47.3101 55.9941C47.5867 55.2393 47.7319 54.4424 47.7402 53.6382C47.7722 52.4826 47.4467 51.3455 46.808 50.3832C46.1555 49.4406 45.2975 48.6596 44.299 48.0993C43.1808 47.4622 41.9721 47.0013 40.7143 46.7324C39.3048 46.3937 37.8622 46.2126 36.413 46.1929H30.7493V74.6247C30.7493 77.6099 32.5416 79.4444 35.9471 80.1095H41.234C42.5549 80.1455 43.8679 79.9005 45.0874 79.3904C46.0817 78.973 46.9833 78.3616 47.7403 77.592C48.4176 76.8277 48.9356 75.9348 49.2636 74.9662C49.5913 74.0675 49.7613 73.1184 49.7654 72.1609C49.7534 70.8874 49.4912 69.6288 48.995 68.4565C48.4762 67.2485 47.7344 66.1502 46.8081 65.2196C44.7385 63.1789 41.9491 62.0416 39.0476 62.0544C37.875 61.9617 36.7076 62.2862 35.7499 62.9718C35.4289 63.2448 35.1736 63.5874 35.0029 63.9736C34.8321 64.3595 34.7504 64.7795 34.7642 65.2016C34.7667 65.7021 34.8453 66.1993 34.9971 66.6761C35.0705 66.9153 35.1933 67.1364 35.3567 67.3253C35.5202 67.5143 35.7213 67.6665 35.9472 67.773Z" fill="white"/>
<path d="M74.5355 47.3796V74.6244C74.5355 77.6098 76.3278 79.4441 79.7331 80.1096H84.1063C86.1436 80.2075 88.1603 79.6671 89.8775 78.5627C91.2546 77.6222 92.3265 76.2964 92.96 74.7503C93.5694 73.178 93.8026 71.484 93.6411 69.8051C93.4946 68.0877 93.02 66.4148 92.2433 64.8774C91.4877 63.3662 90.3889 62.054 89.0349 61.0471C87.664 60.0248 85.9934 59.4872 84.2855 59.5185C83.5281 59.5168 82.7742 59.6196 82.0451 59.8242C81.3812 59.9993 80.7471 60.2719 80.1631 60.6335C79.6689 60.9618 79.2429 61.3834 78.9084 61.8744C78.6122 62.3284 78.4563 62.8603 78.4604 63.403C78.4656 64.0096 78.5439 64.6133 78.6935 65.2013C78.754 65.5069 78.8839 65.7941 79.0737 66.0404C79.2633 66.2872 79.5075 66.4861 79.7868 66.6217C79.7782 66.3805 79.8183 66.1398 79.9045 65.9141C79.9906 65.6888 80.1213 65.4828 80.2886 65.3092C80.4366 65.1437 80.6173 65.0112 80.8198 64.921C81.0219 64.8303 81.2409 64.7836 81.4626 64.7836C81.6841 64.7836 81.903 64.8303 82.1052 64.921C82.3076 65.0112 82.4887 65.1437 82.6366 65.3092C82.9467 65.6746 83.1126 66.1418 83.1025 66.6217C83.1157 66.8608 83.0815 67.1 83.0015 67.3252C82.9216 67.5509 82.7975 67.7578 82.6366 67.9346C82.4801 68.1 82.2908 68.2302 82.0808 68.3169C81.8708 68.4038 81.6449 68.445 81.4178 68.4381C80.7984 68.4686 80.1805 68.3526 79.6142 68.0997C79.0476 67.8463 78.5478 67.4636 78.1561 66.9817C77.3511 65.8861 76.9462 64.5466 77.0089 63.1869C77.0404 62.3837 77.3084 61.6076 77.7795 60.957C78.4334 60.0885 79.297 59.4016 80.2888 58.961C81.566 58.3842 82.9403 58.0544 84.3391 57.99C86.2194 57.8939 88.1011 58.1375 89.8954 58.7091C91.5722 59.4351 93.0528 60.5507 94.2147 61.9643C95.3224 63.325 96.1288 64.9064 96.5806 66.6038C97.0162 68.2883 97.1138 70.0427 96.8673 71.7651C96.6731 73.4894 96.0575 75.1386 95.0753 76.5668C93.9962 78.1032 92.5473 79.3403 90.8632 80.1632C88.7809 81.1466 86.496 81.621 84.196 81.5481H69.2123C69.1616 81.6899 69.0654 81.8107 68.9392 81.892C68.8126 81.9733 68.6629 82.0104 68.5136 81.9975C68.0294 81.9975 67.7966 81.764 67.7966 81.2601C67.7828 81.1078 67.819 80.9549 67.9 80.8249C67.9807 80.6951 68.1017 80.5954 68.2445 80.5411C69.066 79.8016 69.7199 78.8938 70.1623 77.8793C70.6358 76.8788 70.887 75.7864 70.8969 74.6784V51.6779C70.8915 51.1348 70.807 50.5958 70.6463 50.0774C70.4734 49.5306 70.2513 49.0009 69.983 48.4946C69.714 47.9911 69.4094 47.5236 69.1228 47.0741C68.8359 46.6246 68.5135 46.2467 68.2444 45.905C68.1095 45.8538 67.9955 45.7587 67.9209 45.6348C67.8462 45.5109 67.8151 45.3656 67.8323 45.2216C67.821 45.1219 67.832 45.0213 67.8648 44.9264C67.8979 44.8316 67.9514 44.7457 68.0221 44.6748C68.0927 44.6039 68.1787 44.5499 68.2728 44.517C68.3673 44.4837 68.468 44.4726 68.5674 44.4844C68.7023 44.4869 68.834 44.527 68.9478 44.6C69.0616 44.673 69.153 44.7762 69.2123 44.898H92.5121C92.5069 44.5796 92.6224 44.2712 92.8345 44.0346C92.9255 43.9176 93.0427 43.8242 93.1766 43.7616C93.3108 43.6989 93.4577 43.6692 93.6053 43.6751C93.7481 43.6692 93.8903 43.6935 94.023 43.7459C94.1557 43.7986 94.2762 43.8786 94.3762 43.9806C94.4807 44.0837 94.5634 44.2069 94.6189 44.3428C94.6741 44.4788 94.7014 44.6249 94.6985 44.772C94.6999 44.9011 94.673 45.0291 94.6206 45.1471C94.5679 45.2648 94.4906 45.37 94.3941 45.4555C94.1986 45.6375 93.9564 45.7621 93.6951 45.8151C92.4269 46.031 91.1454 46.1569 89.8597 46.1926L83.7479 46.3545C81.1848 46.3545 79.2135 46.5165 77.8153 46.6605C76.689 46.7096 75.5798 46.9534 74.5355 47.3796Z" fill="white"/>
</svg>
