<svg width="120" height="120" viewBox="0 0 120 120" fill="none" xmlns="http://www.w3.org/2000/svg">
<rect width="120" height="120" fill="url(#paint0_linear_273_897)"/>
<path fill-rule="evenodd" clip-rule="evenodd" d="M41.7944 53.2092L52.5603 53.3699C52.5343 55.6664 31.1736 84.2441 31.738 86.9844C33.1421 86.9844 47.2379 86.9844 50.3897 86.9256L51.2484 86.6782C51.8326 85.9694 52.0681 85.8675 52.6105 85.0049L61.4162 71.6515L68.4555 86.9844C68.4555 86.9844 75.9541 87.0522 86.8102 86.9048C88.4152 86.8826 79.4197 64.5741 75.7761 64.5741L66.1196 64.5566C67.5833 61.192 91.9705 30.9999 85.8993 31.0365L68.1552 31.0484C65.862 31.5915 59.0236 43.7445 57.3482 46.2795L50.93 33.0437C50.1993 31.4284 49.7823 30.9988 47.5906 31L31.692 31.0946C30.4794 31.8566 31.1178 32.5743 31.668 33.7447C33.1098 36.8115 40.0295 52.4066 41.7944 53.2092Z" fill="#FEFEFE"/>
<defs>
<linearGradient id="paint0_linear_273_897" x1="1.6697" y1="45.9439" x2="118.208" y2="74.5551" gradientUnits="userSpaceOnUse">
<stop stop-color="#00D6D9"/>
<stop offset="0.521569" stop-color="#5885DF"/>
<stop offset="1" stop-color="#EC02EB"/>
</linearGradient>
</defs>
</svg>
