<svg width="120" height="120" viewBox="0 0 120 120" fill="none" xmlns="http://www.w3.org/2000/svg">
<g clip-path="url(#clip0_273_174)">
<path fill-rule="evenodd" clip-rule="evenodd" d="M0 120H120V0H0V120Z" fill="#B61B58"/>
<path fill-rule="evenodd" clip-rule="evenodd" d="M54.031 101C54.9334 100.78 56.4629 98.9482 57.0975 98.2779L82.3758 72.9137C84.1434 71.1014 86.2053 69.4895 87.5216 66.8252C89.206 63.4163 88.9068 61.2115 88.907 57.0019C88.907 55.399 89.1859 46.6746 88.7777 46C88.5037 46.4679 88.322 47.2231 87.9967 47.8765C86.9107 50.0578 86.1104 50.904 84.3662 52.6169C75.0255 61.9778 65.7254 71.3793 56.3377 80.6929C53.3954 83.612 54.0692 81.9087 54.0609 89.6949C54.0568 93.4472 53.9617 97.2553 54.0309 101L54.031 101Z" fill="#FDFDFD"/>
<path fill-rule="evenodd" clip-rule="evenodd" d="M54.1417 63C54.7054 62.7845 65.0093 52.1513 66.5312 50.6411C70.0308 47.1687 75.5592 45.757 80.4151 47.5266C82.9489 48.4499 82.9259 48.8748 84.5362 49.7276C86.492 48.6184 87.9884 44.3324 87.9998 41.4634C88.0146 37.7563 86.9746 34.5748 85.2456 32.3205C81.629 27.6053 74.2789 26.4545 68.5944 30.3439C66.7328 31.6176 57.7424 40.912 55.295 43.4355C54.7631 43.9839 54.2049 44.2913 54.1535 45.1778C54.0445 47.0577 54.1582 49.2629 54.141 51.1864C54.1094 54.7223 53.8398 59.6103 54.1416 63H54.1417Z" fill="#FDFDFD"/>
<path fill-rule="evenodd" clip-rule="evenodd" d="M52.6974 88C52.7867 86.5098 52.6859 84.922 52.7117 83.4216C52.73 82.3539 52.8683 82.376 53.4409 81.8132C53.8723 81.3894 54.1095 81.1547 54.5899 80.6723C55.2422 80.0172 56.0818 79.1509 56.8698 78.3545C59.9936 75.1978 59.792 76.4908 55.5317 72.0495L44.5632 60.8821C43.5137 59.8505 34.7205 50.937 33.7656 49.7091C32.1331 47.6096 31.705 45.541 31.1232 45C30.9799 50.1875 30.9546 55.9887 31.0844 61.1736C31.2117 66.2549 34.0817 69.225 36.6557 71.8495C37.6202 72.8329 52.0419 87.8217 52.6973 87.9998L52.6974 88Z" fill="#FDFDFD"/>
<path fill-rule="evenodd" clip-rule="evenodd" d="M35.3625 50C36.1352 49.6364 42.1497 43.3378 43.1363 42.3021C43.6047 41.8103 43.872 41.7513 43.8924 40.7656C44.0118 35.0078 44.0508 28.7499 43.9106 23C43.2243 23.2442 39.3163 27.3624 38.5283 28.1823C36.4777 30.3155 35.1322 31.3096 33.7676 33.9062C32.0132 37.2446 31.1664 42.9473 33.1265 46.9185C33.6765 48.0329 34.4455 49.5645 35.3625 50Z" fill="#FDFDFD"/>
</g>
<defs>
<clipPath id="clip0_273_174">
<rect width="120" height="120" fill="white"/>
</clipPath>
</defs>
</svg>
