<svg width="120" height="120" viewBox="0 0 120 120" fill="none" xmlns="http://www.w3.org/2000/svg">
<rect width="120" height="120" fill="url(#paint0_linear_273_853)"/>
<path d="M58.3339 7H58.8764C59.0242 7 59.1448 7.12024 59.1448 7.26767V33.1911C59.1448 33.3386 59.0242 33.4588 58.8764 33.4588H58.3339C58.1861 33.4588 58.0656 33.3386 58.0656 33.1911V7.26767C58.0656 7.12024 58.1861 7 58.3339 7ZM58.4133 84.5412H58.9558C59.1037 84.5412 59.2242 84.6614 59.2242 84.8089V110.732C59.2242 110.88 59.1037 111 58.9558 111H58.4133C58.2655 111 58.145 110.88 58.145 110.732V84.8089C58.145 84.6614 58.2655 84.5412 58.4133 84.5412ZM55.0938 83.2664H55.6362C55.7841 83.2664 55.9046 83.3867 55.9046 83.5341V109.458C55.9046 109.605 55.7841 109.725 55.6362 109.725H55.0938C54.9459 109.725 54.8254 109.605 54.8254 109.458V83.5341C54.8254 83.3867 54.9459 83.2664 55.0938 83.2664ZM51.7742 81.9917H52.3167C52.4645 81.9917 52.585 82.1119 52.585 82.2594V108.183C52.585 108.33 52.4645 108.451 52.3167 108.451H51.7742C51.6264 108.451 51.5058 108.33 51.5058 108.183V82.2594C51.5058 82.1119 51.6264 81.9917 51.7742 81.9917ZM48.4678 80.4194H49.0103C49.1581 80.4194 49.2786 80.5396 49.2786 80.6871V106.611C49.2786 106.758 49.1581 106.878 49.0103 106.878H48.4678C48.32 106.878 48.1994 106.758 48.1994 106.611V80.6871C48.1994 80.5396 48.32 80.4194 48.4678 80.4194ZM45.0951 78.8471H45.6375C45.7854 78.8471 45.9059 78.9673 45.9059 79.1148V105.038C45.9059 105.186 45.7854 105.306 45.6375 105.306H45.0951C44.9472 105.306 44.8267 105.186 44.8267 105.038V79.1148C44.8267 78.9673 44.9472 78.8471 45.0951 78.8471ZM41.7223 77.2748H42.2648C42.4126 77.2748 42.5332 77.3951 42.5332 77.5425V103.466C42.5332 103.613 42.4126 103.734 42.2648 103.734H41.7223C41.5745 103.734 41.454 103.613 41.454 103.466V77.5425C41.454 77.3951 41.5745 77.2748 41.7223 77.2748ZM38.308 75.632H38.8505C38.9983 75.632 39.1188 75.7522 39.1188 75.8996V101.823C39.1188 101.971 38.9983 102.091 38.8505 102.091H38.308C38.1602 102.091 38.0396 101.971 38.0396 101.823V75.8996C38.0396 75.7522 38.1602 75.632 38.308 75.632ZM40.1105 74.5695H40.653C40.8008 74.5695 40.9214 74.6898 40.9214 74.8372V100.761C40.9214 100.908 40.8008 101.028 40.653 101.028H40.1105C39.9627 101.028 39.8422 100.908 39.8422 100.761V74.8372C39.8422 74.6898 39.9627 74.5695 40.1105 74.5695ZM43.4335 73.0115H43.976C44.1238 73.0115 44.2444 73.1317 44.2444 73.2792V99.2026C44.2444 99.3501 44.1238 99.4703 43.976 99.4703H43.4335C43.2857 99.4703 43.1652 99.3501 43.1652 99.2026V73.2792C43.1652 73.1317 43.2857 73.0115 43.4335 73.0115ZM46.7566 71.4534H47.2991C47.4469 71.4534 47.5674 71.5737 47.5674 71.7211V97.6446C47.5674 97.792 47.4469 97.9122 47.2991 97.9122H46.7566C46.6088 97.9122 46.4882 97.792 46.4882 97.6446V71.7211C46.4882 71.5737 46.6088 71.4534 46.7566 71.4534ZM50.0796 70.037H50.6221C50.7699 70.037 50.8904 70.1573 50.8904 70.3047V96.2282C50.8904 96.3756 50.7699 96.4958 50.6221 96.4958H50.0796C49.9318 96.4958 49.8112 96.3756 49.8112 96.2282V70.3047C49.8112 70.1573 49.9318 70.037 50.0796 70.037ZM53.4026 68.6206H53.9451C54.0929 68.6206 54.2135 68.7409 54.2135 68.8883V94.8118C54.2135 94.9592 54.0929 95.0794 53.9451 95.0794H53.4026C53.2548 95.0794 53.1343 94.9592 53.1343 94.8118V68.8883C53.1343 68.7409 53.2548 68.6206 53.4026 68.6206ZM56.7256 66.9705H57.2681C57.4159 66.9705 57.5365 67.0907 57.5365 67.2382V93.1616C57.5365 93.3091 57.4159 93.4293 57.2681 93.4293H56.7256C56.5778 93.4293 56.4573 93.3091 56.4573 93.1616V67.2382C56.4573 67.0907 56.5778 66.9705 56.7256 66.9705ZM59.9633 65.2007H60.5058C60.6536 65.2007 60.7742 65.3209 60.7742 65.4683V91.3918C60.7742 91.5392 60.6536 91.6595 60.5058 91.6595H59.9633C59.8155 91.6595 59.695 91.5392 59.695 91.3918V65.4683C59.695 65.3209 59.8155 65.2007 59.9633 65.2007ZM63.4308 63.5151H63.9733C64.1211 63.5151 64.2417 63.6353 64.2417 63.7828V89.7062C64.2417 89.8537 64.1211 89.9739 63.9733 89.9739H63.4308C63.283 89.9739 63.1625 89.8537 63.1625 89.7062V63.7828C63.1625 63.6353 63.283 63.5151 63.4308 63.5151ZM66.7418 61.957H67.2843C67.4321 61.957 67.5527 62.0773 67.5527 62.2247V88.1482C67.5527 88.2956 67.4321 88.4159 67.2843 88.4159H66.7418C66.594 88.4159 66.4735 88.2956 66.4735 88.1482V62.2247C66.4735 62.0773 66.594 61.957 66.7418 61.957ZM69.9748 60.399H70.5173C70.6651 60.399 70.7857 60.5192 70.7857 60.6667V86.5901C70.7857 86.7376 70.6651 86.8578 70.5173 86.8578H69.9748C69.827 86.8578 69.7065 86.7376 69.7065 86.5901V60.6667C69.7065 60.5192 69.827 60.399 69.9748 60.399ZM73.4682 58.8975H74.0107C74.1585 58.8975 74.279 59.0177 74.279 59.1651V85.0886C74.279 85.2361 74.1585 85.3563 74.0107 85.3563H73.4682C73.3204 85.3563 73.1998 85.2361 73.1998 85.0886V59.1651C73.1998 59.0177 73.3204 58.8975 73.4682 58.8975ZM76.8314 57.4244H77.3739C77.5217 57.4244 77.6422 57.5447 77.6422 57.6921V83.6156C77.6422 83.763 77.5217 83.8832 77.3739 83.8832H76.8314C76.6835 83.8832 76.563 83.763 76.563 83.6156V57.6921C76.563 57.5447 76.6835 57.4244 76.8314 57.4244ZM80.068 55.9514H80.6105C80.7583 55.9514 80.8788 56.0716 80.8788 56.2191V82.1425C80.8788 82.29 80.7583 82.4102 80.6105 82.4102H80.068C79.9202 82.4102 79.7996 82.29 79.7996 82.1425V56.2191C79.7996 56.0716 79.9202 55.9514 80.068 55.9514ZM78.5129 55.1384H79.0554C79.2032 55.1384 79.3238 55.2587 79.3238 55.4061V81.3296C79.3238 81.477 79.2032 81.5972 79.0554 81.5972H78.5129C78.3651 81.5972 78.2446 81.477 78.2446 81.3296V55.4061C78.2446 55.2587 78.3651 55.1384 78.5129 55.1384ZM75.1498 53.5576H75.6923C75.8401 53.5576 75.9606 53.6778 75.9606 53.8252V79.7487C75.9606 79.8962 75.8401 80.0164 75.6923 80.0164H75.1498C75.002 80.0164 74.8814 79.8962 74.8814 79.7487V53.8252C74.8814 53.6778 75.002 53.5576 75.1498 53.5576ZM71.7866 52.0775H72.3291C72.4769 52.0775 72.5974 52.1977 72.5974 52.3451V78.2686C72.5974 78.416 72.4769 78.5363 72.3291 78.5363H71.7866C71.6388 78.5363 71.5182 78.416 71.5182 78.2686V52.3451C71.5182 52.1977 71.6388 52.0775 71.7866 52.0775ZM68.4234 50.5903H68.9659C69.1137 50.5903 69.2343 50.7105 69.2343 50.858V76.7814C69.2343 76.9289 69.1137 77.0491 68.9659 77.0491H68.4234C68.2756 77.0491 68.1551 76.9289 68.1551 76.7814V50.858C68.1551 50.7105 68.2756 50.5903 68.4234 50.5903ZM65.0603 49.1031H65.6028C65.7506 49.1031 65.8711 49.2234 65.8711 49.3708V75.2943C65.8711 75.4417 65.7506 75.5619 65.6028 75.5619H65.0603C64.9124 75.5619 64.7919 75.4417 64.7919 75.2943V49.3708C64.7919 49.2234 64.9124 49.1031 65.0603 49.1031ZM61.6971 47.2332H62.2396C62.3874 47.2332 62.5079 47.3534 62.5079 47.5009V73.4243C62.5079 73.5718 62.3874 73.692 62.2396 73.692H61.6971C61.5493 73.692 61.4287 73.5718 61.4287 73.4243V47.5009C61.4287 47.3534 61.5493 47.2332 61.6971 47.2332ZM58.3339 46.0294H58.8764C59.0242 46.0294 59.1448 46.1497 59.1448 46.2971V72.2206C59.1448 72.368 59.0242 72.4882 58.8764 72.4882H58.3339C58.1861 72.4882 58.0656 72.368 58.0656 72.2206V46.2971C58.0656 46.1497 58.1861 46.0294 58.3339 46.0294ZM55.1326 44.3298H55.6751C55.8229 44.3298 55.9435 44.4501 55.9435 44.5975V70.521C55.9435 70.6684 55.8229 70.7886 55.6751 70.7886H55.1326C54.9848 70.7886 54.8643 70.6684 54.8643 70.521V44.5975C54.8643 44.4501 54.9848 44.3298 55.1326 44.3298ZM51.6546 42.9983H52.1971C52.3449 42.9983 52.4654 43.1186 52.4654 43.266V69.1895C52.4654 69.3369 52.3449 69.4571 52.1971 69.4571H51.6546C51.5068 69.4571 51.3862 69.3369 51.3862 69.1895V43.266C51.3862 43.1186 51.5068 42.9983 51.6546 42.9983ZM48.3909 41.1286H48.9334C49.0812 41.1286 49.2018 41.2488 49.2018 41.3963V67.3198C49.2018 67.4672 49.0812 67.5874 48.9334 67.5874H48.3909C48.2431 67.5874 48.1226 67.4672 48.1226 67.3198V41.3963C48.1226 41.2488 48.2431 41.1286 48.3909 41.1286ZM45.0755 39.7406H45.618C45.7658 39.7406 45.8864 39.8608 45.8864 40.0083V65.9317C45.8864 66.0792 45.7658 66.1994 45.618 66.1994H45.0755C44.9277 66.1994 44.8072 66.0792 44.8072 65.9317V40.0083C44.8072 39.8608 44.9277 39.7406 45.0755 39.7406ZM41.7279 38.1258H42.2704C42.4182 38.1258 42.5388 38.246 42.5388 38.3935V64.3169C42.5388 64.4644 42.4182 64.5846 42.2704 64.5846H41.7279C41.5801 64.5846 41.4596 64.4644 41.4596 64.3169V38.3935C41.4596 38.246 41.5801 38.1258 41.7279 38.1258ZM38.2683 36.332H38.8108C38.9587 36.332 39.0792 36.4522 39.0792 36.5996V62.5231C39.0792 62.6705 38.9587 62.7908 38.8108 62.7908H38.2683C38.1205 62.7908 38 62.6705 38 62.5231V36.5996C38 36.4522 38.1205 36.332 38.2683 36.332ZM40.0948 35.4628H40.6373C40.7851 35.4628 40.9057 35.583 40.9057 35.7305V61.6539C40.9057 61.8014 40.7851 61.9216 40.6373 61.9216H40.0948C39.947 61.9216 39.8265 61.8014 39.8265 61.6539V35.7305C39.8265 35.583 39.947 35.4628 40.0948 35.4628ZM43.361 34.0038H43.9035C44.0513 34.0038 44.1718 34.124 44.1718 34.2715V60.1949C44.1718 60.3424 44.0513 60.4626 43.9035 60.4626H43.361C43.2132 60.4626 43.0926 60.3424 43.0926 60.1949V34.2715C43.0926 34.124 43.2132 34.0038 43.361 34.0038ZM46.7899 32.3608H47.3324C47.4803 32.3608 47.6008 32.4811 47.6008 32.6285V58.552C47.6008 58.6994 47.4803 58.8196 47.3324 58.8196H46.7899C46.6421 58.8196 46.5216 58.6994 46.5216 58.552V32.6285C46.5216 32.4811 46.6421 32.3608 46.7899 32.3608ZM49.9918 30.7179H50.5343C50.6821 30.7179 50.8026 30.8381 50.8026 30.9855V56.909C50.8026 57.0564 50.6821 57.1767 50.5343 57.1767H49.9918C49.844 57.1767 49.7234 57.0564 49.7234 56.909V30.9855C49.7234 30.8381 49.844 30.7179 49.9918 30.7179ZM53.4914 29.3864H54.0339C54.1817 29.3864 54.3022 29.5066 54.3022 29.654V55.5775C54.3022 55.725 54.1817 55.8452 54.0339 55.8452H53.4914C53.3436 55.8452 53.223 55.725 53.223 55.5775V29.654C53.223 29.5066 53.3436 29.3864 53.4914 29.3864ZM56.7197 28.0549H57.2622C57.41 28.0549 57.5306 28.1751 57.5306 28.3226V54.246C57.5306 54.3935 57.41 54.5137 57.2622 54.5137H56.7197C56.5719 54.5137 56.4514 54.3935 56.4514 54.246V28.3226C56.4514 28.1751 56.5719 28.0549 56.7197 28.0549ZM59.9481 26.3552H60.4906C60.6384 26.3552 60.7589 26.4754 60.7589 26.6229V52.5463C60.7589 52.6938 60.6384 52.814 60.4906 52.814H59.9481C59.8003 52.814 59.6797 52.6938 59.6797 52.5463V26.6229C59.6797 26.4754 59.8003 26.3552 59.9481 26.3552ZM63.446 24.8184H63.9885C64.1363 24.8184 64.2568 24.9387 64.2568 25.0861V51.0096C64.2568 51.157 64.1363 51.2772 63.9885 51.2772H63.446C63.2982 51.2772 63.1776 51.157 63.1776 51.0096V25.0861C63.1776 24.9387 63.2982 24.8184 63.446 24.8184ZM66.7934 23.4162H67.3359C67.4837 23.4162 67.6042 23.5364 67.6042 23.6838V49.6073C67.6042 49.7547 67.4837 49.875 67.3359 49.875H66.7934C66.6456 49.875 66.525 49.7547 66.525 49.6073V23.6838C66.525 23.5364 66.6456 23.4162 66.7934 23.4162ZM70.1408 21.7165H70.6833C70.8311 21.7165 70.9516 21.8367 70.9516 21.9841V47.9076C70.9516 48.055 70.8311 48.1753 70.6833 48.1753H70.1408C69.9929 48.1753 69.8724 48.055 69.8724 47.9076V21.9841C69.8724 21.8367 69.9929 21.7165 70.1408 21.7165ZM73.4881 20.399H74.0306C74.1785 20.399 74.299 20.5192 74.299 20.6667V46.5901C74.299 46.7376 74.1785 46.8578 74.0306 46.8578H73.4881C73.3403 46.8578 73.2198 46.7376 73.2198 46.5901V20.6667C73.2198 20.5192 73.3403 20.399 73.4881 20.399ZM76.9743 18.6427H77.5168C77.6646 18.6427 77.7852 18.7629 77.7852 18.9103V44.8338C77.7852 44.9812 77.6646 45.1015 77.5168 45.1015H76.9743C76.8265 45.1015 76.706 44.9812 76.706 44.8338V18.9103C76.706 18.7629 76.8265 18.6427 76.9743 18.6427ZM80.1892 16.8863H80.7317C80.8795 16.8863 81 17.0066 81 17.154V43.0775C81 43.2249 80.8795 43.3451 80.7317 43.3451H80.1892C80.0414 43.3451 79.9208 43.2249 79.9208 43.0775V17.154C79.9208 17.0066 80.0414 16.8863 80.1892 16.8863ZM78.7822 16.1781H79.3246C79.4725 16.1781 79.593 16.2983 79.593 16.4457V42.3692C79.593 42.5166 79.4725 42.6369 79.3246 42.6369H78.7822C78.6343 42.6369 78.5138 42.5166 78.5138 42.3692V16.4457C78.5138 16.2983 78.6343 16.1781 78.7822 16.1781ZM75.1315 14.6484H75.674C75.8218 14.6484 75.9424 14.7686 75.9424 14.9161V40.8395C75.9424 40.987 75.8218 41.1072 75.674 41.1072H75.1315C74.9837 41.1072 74.8632 40.987 74.8632 40.8395V14.9161C74.8632 14.7686 74.9837 14.6484 75.1315 14.6484ZM71.8448 13.1187H72.3873C72.5351 13.1187 72.6556 13.2389 72.6556 13.3864V39.3099C72.6556 39.4573 72.5351 39.5775 72.3873 39.5775H71.8448C71.697 39.5775 71.5764 39.4573 71.5764 39.3099V13.3864C71.5764 13.2389 71.697 13.1187 71.8448 13.1187ZM68.558 11.589H69.1005C69.2483 11.589 69.3689 11.7093 69.3689 11.8567V37.7802C69.3689 37.9276 69.2483 38.0478 69.1005 38.0478H68.558C68.4102 38.0478 68.2897 37.9276 68.2897 37.7802V11.8567C68.2897 11.7093 68.4102 11.589 68.558 11.589ZM65.15 10.0594H65.6925C65.8403 10.0594 65.9608 10.1796 65.9608 10.327V36.2505C65.9608 36.3979 65.8403 36.5182 65.6925 36.5182H65.15C65.0022 36.5182 64.8816 36.3979 64.8816 36.2505V10.327C64.8816 10.1796 65.0022 10.0594 65.15 10.0594ZM61.742 8.52968H62.2845C62.4323 8.52968 62.5528 8.64991 62.5528 8.79735V34.7208C62.5528 34.8682 62.4323 34.9885 62.2845 34.9885H61.742C61.5941 34.9885 61.4736 34.8682 61.4736 34.7208V8.79735C61.4736 8.64991 61.5941 8.52968 61.742 8.52968Z" fill="white"/>
<defs>
<linearGradient id="paint0_linear_273_853" x1="4" y1="146.5" x2="125" y2="26.5" gradientUnits="userSpaceOnUse">
<stop stop-color="#3C9BB4"/>
<stop offset="1" stop-color="#82BD82"/>
</linearGradient>
</defs>
</svg>
