<svg width="120" height="120" viewBox="0 0 120 120" fill="none" xmlns="http://www.w3.org/2000/svg">
<g clip-path="url(#clip0_273_1259)">
<rect width="120" height="120" fill="#BBAA86"/>
<path d="M120 0H0V120H120V0Z" fill="#BBAA86"/>
<path fill-rule="evenodd" clip-rule="evenodd" d="M65.4245 63.3222C58.9561 64.8337 61.0803 74.846 67.5901 73.4539C73.7967 72.1267 72.055 61.7726 65.4245 63.3222Z" fill="#FEFEFE"/>
<path fill-rule="evenodd" clip-rule="evenodd" d="M50.3599 63.3474C43.6751 65.0799 46.4465 75.157 52.7908 73.4047C55.0201 72.789 57.0392 70.2414 56.3481 67.19C55.7887 64.72 53.38 62.5646 50.3599 63.3474Z" fill="#FEFEFE"/>
<path fill-rule="evenodd" clip-rule="evenodd" d="M58.2151 73.6771C51.524 74.8658 53.387 85.0914 59.8901 83.8893C62.3325 83.4378 64.4143 81.0229 63.8921 77.8027C63.4937 75.3454 61.1606 73.1538 58.2151 73.6771Z" fill="#FEFEFE"/>
<path fill-rule="evenodd" clip-rule="evenodd" d="M57.7498 32.2187C51.2307 34.0089 53.9634 43.9631 60.2759 42.202C66.5837 40.4425 64.131 30.4666 57.7498 32.2187Z" fill="#FEFEFE"/>
<path fill-rule="evenodd" clip-rule="evenodd" d="M50.329 42.5741C43.7352 44.3109 46.4121 54.3333 52.7508 52.6042C54.9994 51.9909 57.0477 49.6351 56.3603 46.4261C55.8367 43.9813 53.3546 41.7771 50.329 42.5741Z" fill="#FEFEFE"/>
<path fill-rule="evenodd" clip-rule="evenodd" d="M58.1443 52.8792C51.5793 54.1349 53.3628 64.197 59.8428 63.0819C62.3549 62.6496 64.3855 60.2343 63.8987 57.0327C63.5226 54.5602 61.1129 52.3115 58.1443 52.8792Z" fill="#FEFEFE"/>
<path fill-rule="evenodd" clip-rule="evenodd" d="M65.3912 42.5471C58.8763 44.2355 61.2186 54.0292 67.5312 52.661C69.9587 52.1348 71.9477 49.669 71.379 46.5119C70.9364 44.0545 68.4158 41.7632 65.3912 42.5471Z" fill="#FEFEFE"/>
<path fill-rule="evenodd" clip-rule="evenodd" d="M72.9232 32.1539C66.5583 33.5305 68.5185 43.7311 75.0732 42.2617C77.4359 41.7319 79.5033 39.2206 78.8913 36.1687C78.3795 33.616 76.0118 31.4859 72.9232 32.1539Z" fill="#FEFEFE"/>
<path fill-rule="evenodd" clip-rule="evenodd" d="M43.0355 32.1188C36.5764 33.4121 38.4271 43.5318 44.897 42.2917C51.165 41.0905 49.6925 30.7857 43.0355 32.1188Z" fill="#FEFEFE"/>
<path fill-rule="evenodd" clip-rule="evenodd" d="M73.0297 73.7312C66.3843 75.1429 68.6784 85.3967 75.1247 83.8395C77.4666 83.2738 79.4813 80.7528 78.8851 77.7148C78.3909 75.1956 76.0131 73.0975 73.0297 73.7312Z" fill="#FEFEFE"/>
<path fill-rule="evenodd" clip-rule="evenodd" d="M42.8817 73.766C36.1985 75.4907 38.9015 85.4834 45.2662 83.8028C47.547 83.2006 49.5053 80.6128 48.8376 77.5596C48.306 75.1283 45.8259 73.0062 42.8817 73.766Z" fill="#FEFEFE"/>
</g>
<defs>
<clipPath id="clip0_273_1259">
<rect width="120" height="120" fill="white"/>
</clipPath>
</defs>
</svg>
