<svg width="120" height="120" viewBox="0 0 120 120" fill="none" xmlns="http://www.w3.org/2000/svg">
<rect width="120" height="120" fill="#FF0300"/>
<path fill-rule="evenodd" clip-rule="evenodd" d="M34.018 56.6134C48.2844 38.9011 67.874 31 85.879 57.4951L85.9841 31.177L34.0402 31L34.018 56.6134Z" fill="white"/>
<path fill-rule="evenodd" clip-rule="evenodd" d="M34.0463 65.7534C37.2436 63.8541 37.7823 61.7775 45.1156 58.2807C57.6351 52.3109 70.0488 54.0042 80.9659 61.7835C82.8357 63.116 84.0829 64.6401 85.8773 65.7861C85.8788 60.8282 85.2918 60.6464 83.1281 58.0351C81.4801 56.0463 79.5426 54.4532 77.3055 52.8736C64.3288 43.7114 48.1286 46.1211 37.3589 57.5411C34.5922 60.4749 33.9166 60.4318 34.0463 65.7534Z" fill="white"/>
<path fill-rule="evenodd" clip-rule="evenodd" d="M34.0208 79.4794L34 83.7621C39.6624 84.0138 83.099 84.1964 86 83.6066L85.9772 79.6045C75.8695 75.7505 43.7553 75.3967 34.0208 79.4794Z" fill="white"/>
<path fill-rule="evenodd" clip-rule="evenodd" d="M34.0206 70.3377L34.0239 74.743C35.7935 74.3262 37.8096 73.2085 39.736 72.5473C64.95 63.8922 83.6727 74.4228 85.8832 74.5965L85.8671 70.4727C73.1322 60.2739 54.1516 59.408 39.3404 67.0295C37.3555 68.0509 35.6125 69.5428 34.0206 70.3377Z" fill="white"/>
</svg>
