<svg width="120" height="120" viewBox="0 0 120 120" fill="none" xmlns="http://www.w3.org/2000/svg">
<g clip-path="url(#clip0_273_370)">
<path fill-rule="evenodd" clip-rule="evenodd" d="M0 120H120V0H0V120Z" fill="#1F1760"/>
<path fill-rule="evenodd" clip-rule="evenodd" d="M55.1245 45.1719C55.9893 45.8415 55.5506 52.5884 55.5529 53.64L55.6984 80.8236L65.308 80.858L65.486 47.2847C65.4811 45.2265 65.4688 45.6923 65.8812 45.2066C70.8396 39.4234 93.5644 45.0729 75.0809 69.629C73.7983 71.3331 72.6568 72.7934 71.3745 74.3804C69.4236 76.7949 68.88 76.5109 69.4534 80.9583L84.5976 80.9852L84.8579 76.139L77.6464 75.6636C80.4679 70.9274 93.1879 60.3345 90.6728 49.1699C89.5908 44.3672 85.3302 40.3036 81.7591 38.3773C75.3924 34.9426 71.9448 36.2411 65.4909 37.7996L65.4188 35.007L55.6191 35L55.516 37.8018C49.0225 36.2126 45.6136 34.9631 39.2405 38.3796C35.7319 40.2605 31.412 44.3523 30.3171 49.1999C28.5441 57.0489 34.5956 64.6795 38.8086 70.0374C40.2257 71.8394 42.2504 73.7233 43.3598 75.6569L36.1851 76.0811L36.3717 80.8791L51.5544 81C52.2928 75.7413 50.8939 76.2446 45.9331 69.6095C43.8372 66.8064 40.9686 62.7006 39.6508 58.6154C34.8481 43.7272 50.6703 40.3294 55.1245 45.1719ZM56.9248 41.2429C45.8296 30.9995 21.3456 44.694 37.7245 65.8437C39.3723 67.9716 40.5416 69.4622 42.3117 71.4699C43.5167 72.8366 46.4017 75.8001 47.2113 77.2152C45.667 77.3768 44.1699 77.5354 42.593 77.7017C41.3251 77.8354 38.9505 77.6186 38.323 78.653L49.6133 79.0702C49.6142 73.8072 37.71 66.1717 36.8913 55.0586C36.4518 49.0917 39.3071 44.8722 43.0561 42.8875C49.4437 39.5059 52.8651 41.3422 57.2782 43.8226L57.4409 78.8922L63.5438 78.9902L63.6556 44.1279C67.1319 40.5593 72.8217 40.2511 77.7242 42.7564C81.5499 44.7115 84.4641 48.792 84.1433 54.7104C83.8682 59.7817 80.9992 64.429 78.6839 67.5989C75.9008 71.4095 71.3964 76.0288 71.4063 79.0509L81.9245 78.9825C82.782 78.7741 82.1799 79.0355 82.6957 78.6531C82.06 77.6422 75.246 77.3607 73.7939 77.2244C76.8809 72.1877 89.7584 62.4087 88.7836 50.8013C87.8814 40.0574 72.5564 33.1515 64.0761 41.2575C63.5129 41.6289 63.311 41.521 63.311 41.521L63.2639 37.3766L57.8884 37.3872L57.5768 41.5405C57.5768 41.5405 57.3412 41.7306 56.9249 41.2429L56.9248 41.2429Z" fill="#F6FAFE"/>
</g>
<defs>
<clipPath id="clip0_273_370">
<rect width="120" height="120" fill="white"/>
</clipPath>
</defs>
</svg>
