<svg width="120" height="120" viewBox="0 0 120 120" fill="none" xmlns="http://www.w3.org/2000/svg">
<rect width="120" height="120" fill="#0A3782"/>
<path d="M76.533 27.2849C77.7307 26.6069 79.0346 25.8297 80.4685 26.0329C81.6331 26.1486 82.774 27.2258 82.6134 28.4494C82.1953 29.9589 80.8181 30.9062 79.6039 31.7636C75.9401 34.1755 73.0771 37.5913 70.5542 41.1346C68.7353 43.6787 67.0581 46.3244 65.4754 49.0221C64.3723 50.9118 62.9242 52.6528 62.329 54.7953C63.6778 54.6418 64.9439 54.1174 66.2455 53.763C67.1125 53.4678 68.2274 53.4205 68.6739 52.478C71.0479 48.3276 73.592 44.2598 76.5283 40.4826C79.5307 36.618 83.2039 33.077 87.7914 31.1896C89.7922 30.3062 92.1473 29.888 94.2521 30.651C96.1347 31.407 97.5946 33.1715 97.8733 35.1936C98.2607 37.2983 97.5804 39.4763 96.3946 41.2173C94.7576 43.6456 92.4001 45.4409 90.1725 47.2929C87.1229 49.8323 83.8748 52.1614 80.3267 53.9615C78.0118 55.1213 75.6944 56.2788 73.3204 57.3111C72.522 57.6513 71.733 58.1048 71.2322 58.8371C70.481 60.0017 70.155 61.367 69.5833 62.6166C68.4329 65.2056 67.3818 67.8561 66.7392 70.6222C66.5243 71.7892 66.3046 73.0081 66.6046 74.1821C66.7983 75.2168 67.8022 76.0199 68.8511 76.0034C70.0983 76.1215 71.2629 75.5947 72.3613 75.0774C73.9818 74.2553 75.3779 73.0671 76.6795 71.8152C81.5882 67.1143 86.1992 62.1182 90.6686 57.004C92.2182 55.2111 93.6142 53.2882 94.8686 51.278C95.5985 50.2244 96.5647 49.0528 97.9537 49.0032C98.2017 49.4095 98.5891 49.7992 98.5395 50.3166C98.4993 50.9803 98.1781 51.5827 97.9064 52.1733C96.3072 55.3953 93.9143 58.1119 91.8662 61.0434C87.574 66.4812 83.4165 72.0443 78.6259 77.064C75.7629 80.0971 72.6212 83.0971 68.6644 84.6184C66.8597 85.379 64.7006 85.5444 62.9124 84.6515C61.3723 83.9475 60.262 82.5019 59.7541 80.9097C58.9274 78.5782 58.9581 76.0105 59.5935 73.6364C60.7108 68.9309 62.903 64.5867 64.7715 60.1529C63.5833 60.2001 62.5534 60.8521 61.4171 61.1143C60.673 61.3316 59.8959 61.497 59.225 61.8962C58.4431 62.4655 58.1785 63.4482 57.777 64.2797C55.0391 70.7616 51.184 76.6908 47.0832 82.3814C44.6005 85.8255 41.8201 89.1373 38.3146 91.587C36.1602 93.0893 33.8051 94.5705 31.1145 94.75C28.4051 95.0736 25.7239 93.6823 24.0633 91.5893C22.0814 89.1492 21.4979 85.6932 22.4404 82.7097C22.9176 81.0255 23.8105 79.4924 24.8475 78.0916C27.9799 73.8892 31.5846 70.0104 35.7634 66.8285C38.6973 64.5182 41.9926 62.7371 45.2761 60.9867C47.4635 59.8434 49.7596 58.9292 52.084 58.1072C52.7997 57.8166 53.5533 57.5804 54.1864 57.1292C54.836 56.6686 55.2588 55.9788 55.6746 55.315C58.6486 50.4606 61.7077 45.6582 64.8282 40.896C63.8408 41.2669 62.8746 41.7866 61.7951 41.8031C59.6266 41.9188 57.4817 40.8558 56.1848 39.1291C54.7155 37.3007 54.2643 34.7708 52.4171 33.2282C50.4045 31.6243 47.643 31.9361 45.2666 32.3022C41.6524 33.0936 38.0524 34.7471 35.6571 37.6503C33.9232 39.7173 33.172 42.7315 34.2209 45.2779C35.0051 47.3 36.9752 48.7504 39.1154 49.0008C41.0973 49.1709 43.2162 49.0126 44.9194 47.8858C46.4595 46.8087 47.2013 44.9827 48.5619 43.7236C49.4596 42.8921 50.5887 42.2047 51.8478 42.2023C53.3336 42.1031 54.7887 43.1897 55.1431 44.6307C55.5754 46.0173 55.0439 47.5291 54.1793 48.637C53.062 50.0543 51.6045 51.1622 50.0785 52.1048C46.4194 54.4245 41.943 55.3528 37.6555 54.8379C35.2791 54.4552 32.9075 53.5906 31.1169 51.9323C28.6625 49.674 27.3019 46.0645 28.2184 42.7811C29.1373 39.1669 31.672 36.2424 34.398 33.8211C38.4114 30.4101 43.6839 28.9526 48.8241 28.3975C50.9974 28.1896 53.2627 28.3408 55.299 29.1746C58.2234 30.4573 59.2982 33.9227 62.1282 35.3353C63.9093 36.1716 66.0754 35.9802 67.7881 35.0589C69.8526 34.0101 71.466 32.2951 72.9708 30.5754C74.0172 29.3424 75.0991 28.0786 76.533 27.2849ZM85.9984 36.7125C83.974 38.2503 82.5165 40.3551 80.9645 42.3322C79.6157 44.1252 78.2385 45.8968 76.8519 47.6591C76.0866 48.7291 75.1487 49.7496 74.8653 51.0748C76.6204 50.5362 78.2102 49.5866 79.833 48.7457C83.6929 46.5961 87.489 44.2598 90.7985 41.3094C92.1001 40.0858 93.4701 38.6897 93.7536 36.8448C93.5103 35.4936 92.1544 34.6149 90.8316 34.6314C89.0055 34.5912 87.3969 35.6495 85.9984 36.7125ZM45.6209 67.7096C43.5398 68.9734 41.4611 70.2561 39.5359 71.7537C36.4579 74.1538 33.4082 76.7002 31.1736 79.9412C30.2263 81.3207 29.3192 82.8491 29.2389 84.5664C29.2082 85.6554 29.5578 86.8885 30.5476 87.4814C31.7074 88.1925 33.1886 87.9515 34.3649 87.4058C36.4957 86.4302 37.998 84.5593 39.4508 82.7924C41.043 80.8341 42.576 78.8239 44.0548 76.7782C45.8312 74.3167 47.3147 71.664 48.9044 69.0821C49.7359 67.6458 50.6643 66.2403 51.1745 64.6482C49.1596 65.3403 47.428 66.6159 45.6209 67.7096Z" fill="white"/>
</svg>
