<svg width="120" height="120" viewBox="0 0 120 120" fill="none" xmlns="http://www.w3.org/2000/svg">
<rect width="120" height="120" fill="#326C55"/>
<path fill-rule="evenodd" clip-rule="evenodd" d="M92.9757 59.0577L83.265 59.0881C82.7223 59.2741 82.9819 60.699 82.8859 61.8687C82.6895 64.2586 81.9063 66.8831 81.0303 68.9358C77.4336 77.364 68.9572 82.9886 59.4536 82.9911C52.2258 82.993 46.4593 79.8119 42.7282 75.9803C40.9532 74.1575 39.0183 71.5455 37.9748 68.956C37.1418 66.8894 37.0748 66.7088 36.4934 64.5181C36.0396 62.8079 36.1342 60.8981 35.9613 59.1018C35.2177 58.9643 26.777 58.9662 26.0501 59.1068C25.8223 61.5311 26.4235 64.5747 26.8063 66.7305C27.2208 69.0647 28.027 71.0084 28.8812 73.0814C30.3956 76.7561 33.1832 80.5205 35.728 83.0718C41.1931 88.5509 49.4436 93.0056 59.4534 93C69.426 92.9943 77.8897 88.5632 83.2474 83.1314C86.0223 80.3179 88.1998 77.1466 90.0982 73.1701C91.7517 69.7067 93.2072 63.7262 92.9757 59.0577Z" fill="white"/>
<path fill-rule="evenodd" clip-rule="evenodd" d="M73.9999 59.9983C73.9682 51.9417 67.2031 45.8607 59.2682 46.0024C51.4218 46.1426 44.9623 52.279 45.0002 60.0946C45.0369 67.6732 51.4429 73.9741 59.4678 73.9999C67.561 74.026 74.0302 67.7067 73.9999 59.9983Z" fill="white"/>
<path fill-rule="evenodd" clip-rule="evenodd" d="M36 35.9701C36.0798 36.1513 42.4826 42.7844 42.9247 42.9879C43.362 42.805 43.9988 42.0181 44.4653 41.6251C48.6704 38.0806 53.7173 36.0943 59.4816 36.1064C70.2751 36.1291 75.6269 42.9447 76.0386 42.9995C76.376 43.0446 79.4083 39.761 79.5922 39.5709C80.1642 38.9798 80.6747 38.4619 81.3163 37.8239C81.7173 37.4252 82.8241 36.4722 83 35.97C82.5662 35.1743 79.3376 32.6673 78.5093 32.0786C76.8111 30.8717 75.1513 29.9273 73.234 29.031C62.4632 23.9948 50.1556 25.3958 40.5194 32.0365C39.6958 32.6039 36.2951 35.2153 36 35.9701Z" fill="white"/>
</svg>
