<svg width="120" height="120" viewBox="0 0 120 120" fill="none" xmlns="http://www.w3.org/2000/svg">
<rect width="120" height="120" fill="#133E75"/>
<path fill-rule="evenodd" clip-rule="evenodd" d="M25 77.8495C28.9244 78.1657 34.0375 77.8855 38.0916 77.8855C46.8517 77.8855 55.6117 77.8855 64.3717 77.8855C67.9611 77.8855 73.8766 78.2387 77.1548 77.5396C85.3335 75.7952 86.7826 70.867 89.1376 62.9052C89.5615 61.4717 94.8717 43.2292 95 42.1048C90.8242 41.8844 86.1252 42.0801 81.8918 42.0801H55.6117C48.7286 42.0801 39.4236 40.9756 35.4527 48.333C33.878 51.2504 32.8766 54.5462 31.714 57.9425C30.5734 61.2749 29.4889 64.5849 28.352 67.934C27.2727 71.1138 25.8406 74.7337 25 77.8495ZM45.8241 71.5867C50.1199 71.571 54.4183 71.5712 58.7143 71.5727C63.2465 71.5746 65.9058 70.8052 68.2073 68.1931C69.9253 66.2435 71.2912 62.2715 72.0672 59.0957C72.9201 55.6046 74.0643 51.848 74.6983 48.379C70.405 48.3949 66.1102 48.3932 61.8168 48.3974C52.7911 48.4063 51.4233 53.9697 48.9953 61.4249L45.8241 71.5867Z" fill="white"/>
<path fill-rule="evenodd" clip-rule="evenodd" d="M50.946 67.6196C52.197 67.8729 57.575 67.7669 59.0878 67.6828C64.5979 67.3761 65.3051 62.8935 66.8288 58.6072C67.5597 56.5516 68.4579 54.382 69.0547 52.376C67.4709 52.1287 62.6488 52.2287 60.8966 52.3321C55.45 52.6536 54.8372 57.0331 53.2202 61.4817C52.4904 63.4893 51.5881 65.6257 50.946 67.6196Z" fill="#FBB800"/>
</svg>
