<svg width="120" height="120" viewBox="0 0 120 120" fill="none" xmlns="http://www.w3.org/2000/svg">
<g clip-path="url(#clip0_273_1009)">
<path d="M120 0H0V120H120V0Z" fill="#2356B0"/>
<path fill-rule="evenodd" clip-rule="evenodd" d="M37.3935 34.542C40.224 33.9376 46.7762 29.7831 57.9759 28.6984C61.3257 28.3739 64.881 28.2625 67.9637 28.6109C70.2964 28.8745 74.5432 29.6274 76.0055 31.8107C75.1447 31.7308 74.0211 31.379 73.106 31.2039C65.0646 29.6657 57.4223 30.4559 49.3754 32.4792C44.3337 33.747 38.0931 35.8292 33.7447 38.5215C31.8055 39.722 29.0839 43.9102 28.6941 45.2138C30.1151 44.5374 34.2262 41.2299 38.9563 38.9019C47.17 34.8589 56.56 32.9477 65.6779 33.1978C68.6652 33.2797 75.3728 33.9055 77.429 35.0339C77.2949 36.218 76.8128 36.8904 75.914 37.5654C74.6098 38.5447 74.0052 38.073 72.5217 37.8534C57.9846 35.7008 40.3102 39.6806 28.19 47.9894C26.7334 48.9877 26.8631 49.019 26.3408 50.5639C25.9781 51.6369 25.6777 52.6514 25.5094 53.6943C34.076 46.8843 46.3395 40.6767 58.0647 39.6478C61.3642 39.3583 66.9697 39.2137 69.8734 39.8011C66.7755 40.6898 57.2425 41.9155 51.933 43.1782C46.3965 44.4947 40.709 46.1557 35.6771 48.4109C30.8904 50.5562 26.3986 53.258 24.8207 57.0005C23.2174 60.8029 25.7569 62.9259 26.2429 63.8982C26.6955 64.8034 24.6131 67.4969 27.6538 71.2553C28.1435 71.861 29.939 73.4421 30.0052 73.6208C30.3392 74.5227 28.4088 78.8829 34.6461 82.7783C37.2353 84.3954 35.5277 83.1652 36.8007 85.4861C38.2373 88.1051 42.1567 90.0986 44.9904 91.2022C51.7141 93.8203 60.0439 94.9719 67.505 93.1143C69.6957 92.5689 73.5796 91.2642 75.17 90.1683C67.9813 91.4941 61.5211 92.3608 54.6791 91.7689C49.2784 91.3016 41.0599 89.7503 39.413 85.1565C40.5322 85.3109 45.2887 87.0167 50.3766 87.6714C59.7481 88.8774 69.65 89.1742 79.1033 87.1238C81.8253 86.5334 83.0636 85.1053 85.1213 82.9774L86.0069 81.8685C76.3021 84.9023 71.0466 86.7431 60.3946 86.6243C54.4923 86.5589 43.9442 85.3125 39.1272 82.6003C38.8102 80.9538 39.6208 79.48 40.4254 78.6073L46.3689 80.244C48.5051 80.72 50.4685 81.126 52.689 81.4993C56.9846 82.2214 61.5381 82.6533 66.1672 82.7058C71.5735 82.7671 76.36 82.1294 81.7888 80.5775C83.3647 80.1271 87.6631 78.8781 88.876 78.1712C89.5506 77.7781 91.347 74.1052 91.7729 73.0534C91.0504 73.3039 89.9328 74.0004 89.1401 74.3918C82.5023 77.6699 72.8595 80.3233 65.6641 80.6071C61.4578 80.7731 57.2484 80.4839 53.3417 79.8415C51.0664 79.4673 43.6499 77.9544 42.2541 77.0326C43.2959 75.9232 47.0875 74.7264 48.8386 74.2132C50.315 73.7803 50.9769 74.1291 52.2975 74.3436C58.0709 75.2816 63.4657 75.968 69.553 75.5935C77.3484 75.114 85.1166 72.552 92.2779 69.7485C93.1701 69.3991 93.1008 69.5641 93.3738 68.7324C93.5523 68.1884 93.6407 67.6567 93.77 67.0937C93.9445 66.3344 94.3546 64.6504 94.2769 63.9329C87.8144 69.2799 74.2152 73.2546 65.3119 73.4113C63.2714 73.4471 57.0467 73.3368 55.7027 72.6547C58.2293 71.91 61.8652 71.5107 64.5284 71.0763C72.1964 69.826 92.0288 67.2421 94.9341 60.4351C95.816 58.3691 95.9179 55.3072 94.3152 53.2363C93.4657 52.1386 92.4984 52.0299 92.6758 50.795C92.8527 49.5653 92.7825 48.0358 92.2808 46.7943C91.8002 45.6048 90.8679 44.7281 90.1053 44.137C87.792 42.3436 88.4225 43.3194 88.3649 41.6811C88.263 38.7757 86.1981 36.6783 84.5906 35.6849C84.1113 35.3889 83.7592 35.1635 83.2696 34.8083C82.6364 34.349 82.4471 34.4039 81.7678 33.9938C81.1784 33.6378 80.2652 32.1213 79.518 31.4269C69.7553 22.3499 44.6948 26.4085 37.3935 34.542ZM36.1017 80.8731C35.3363 80.2868 34.8001 80.0055 34.0925 78.9699C33.3373 77.8647 33.3632 76.959 33.2904 75.6609L37.3283 77.5207C36.8158 78.6484 36.5627 79.3857 36.1017 80.8731ZM34.0669 73.5119C34.2185 72.7 34.9345 71.935 35.5901 71.366C37.8755 69.3831 37.1039 70.9921 43.015 72.2504L42.4213 72.809C39.9105 74.5707 41.1404 73.7083 38.7703 75.6961C37.2889 75.4233 35.3353 73.9292 34.0669 73.5119ZM31.1446 71.1148C30.0569 70.3055 28.8669 68.3642 29.542 66.7529C30.0689 66.8783 29.7279 66.7816 30.1371 67.0369L31.4163 67.7606C32.0412 68.1042 32.5498 68.3606 33.1178 68.719L31.1446 71.1148ZM75.2839 60.926C81.1258 59.7215 85.7462 58.524 90.3926 55.2171C91.4742 60.2911 78.7399 63.0923 73.9983 64.07C65.3754 65.8882 55.9774 66.7284 47.9508 70.0266C45.4411 71.0576 46.0961 70.7825 43.7329 70.0833C42.4344 69.6991 41.1503 69.2785 39.8929 68.7824C43.6895 65.7812 70.7004 61.871 75.2839 60.926ZM30.902 64.4288C32.1788 62.1471 40.0897 59.7881 43.2373 58.9977C54.9789 56.0484 71.0487 55.12 81.1142 50.4531C81.746 50.16 83.5032 49.0865 84.0255 49.1431C84.4501 49.189 86.218 50.2405 86.5342 50.4968C85.3987 52.9638 75.3442 55.5966 73.3797 56.0781C62.4708 58.7511 52.863 59.1224 42.068 63.5344C39.6936 64.505 38.0367 65.4137 35.9489 66.6685C34.8726 67.3157 31.8266 65.0273 30.902 64.4288ZM85.8038 47.5719C86.2442 47.1364 86.5815 46.6202 87.0271 46.252C87.5004 46.7466 87.6259 47.521 87.6918 48.2476C87.2905 48.3389 86.2292 47.829 85.8038 47.5719ZM27.8382 61.9015C21.3414 54.4923 44.3118 50.2587 48.1472 49.5466C53.1631 48.6151 58.1166 48.0078 63.1108 47.0806C64.8153 46.7644 69.2616 45.5549 70.5606 45.704C72.0259 45.8718 75.3005 46.2889 76.4309 46.7672C69.2913 49.901 57.8987 51.0428 49.8698 52.7838C45.6456 53.6998 41.2694 54.8372 37.368 56.3343C29.9948 59.1635 29.1235 61.2471 27.8382 61.9015ZM74.7078 44.1445C74.8584 43.9998 78.0726 42.4262 78.8183 41.9366C79.7186 41.3455 80.6639 42.2297 81.5697 42.7805L82.0529 42.9814C81.3882 43.8051 80.3737 45.5375 78.9224 45.206L74.7078 44.1445ZM82.1379 37.623C82.6962 38.4778 83.2112 39.1824 83.4298 40.5082L81.1649 39.781L82.1379 37.623Z" fill="white"/>
</g>
<defs>
<clipPath id="clip0_273_1009">
<rect width="120" height="120" fill="white"/>
</clipPath>
</defs>
</svg>
