<svg width="120" height="120" viewBox="0 0 120 120" fill="none" xmlns="http://www.w3.org/2000/svg">
<g clip-path="url(#clip0_273_1284)">
<rect width="120" height="120" fill="#1D5EA2"/>
<path fill-rule="evenodd" clip-rule="evenodd" d="M35.4031 44.9564L34.7143 37.8569L34.0255 44.9564L30.8571 41.7141L33.0513 46.0697L27 46.8569L33.0513 47.6442L30.8835 50.6772C28.4456 53.9067 27 57.9273 27 62.2855C27 72.9367 35.6345 81.5712 46.2857 81.5712C56.9369 81.5712 65.5714 72.9367 65.5714 62.2855C65.5714 51.6343 56.9369 42.9998 46.2857 42.9998C42.7457 42.9998 39.4284 43.9536 36.5769 45.6182L38.3032 41.7141L35.4031 44.9564ZM34.1231 49.7643L34.7143 55.8569L35.4031 48.7575L38.3032 50.7141L36.3773 47.6442L42.4286 46.8569L38.3239 46.3229C40.606 45.0337 43.2813 44.2855 46.2857 44.2855C56.5714 44.2855 63 53.0545 63 62.2855C63 71.5166 55.5168 78.9998 46.2857 78.9998C37.0547 78.9998 29.5714 71.5166 29.5714 62.2855C29.5714 57.6425 31.1977 53.1165 34.1231 49.7643Z" fill="white"/>
<path d="M52.7117 40.4285C50.1426 48.1427 55.2837 69.9998 55.2837 69.9998L62.9974 71.2855C62.9974 71.2855 70.4238 52.4115 68.1403 42.9999C75.5666 38.2687 75.8551 24.9999 75.8551 24.9999C75.8551 24.9999 55.4711 32.143 52.7117 40.4285Z" fill="#1D5EA2"/>
<path fill-rule="evenodd" clip-rule="evenodd" d="M65.2079 41.8193L66.7587 40.8312C69.6146 39.0117 71.332 35.3367 72.2914 31.5881C72.5301 30.6558 72.7122 29.7568 72.8509 28.9357C71.0482 29.691 68.8026 30.6968 66.5019 31.8899C63.8571 33.2613 61.2126 34.8429 59.096 36.5321C56.9171 38.271 55.6028 39.8856 55.1514 41.241C54.6641 42.7042 54.4806 45.1233 54.5993 48.2045C54.7149 51.2072 55.1025 54.5598 55.5773 57.7256C56.0508 60.8833 56.6043 63.8106 57.0402 65.951C57.1803 66.6389 57.308 67.2442 57.4166 67.7484L61.3237 68.3997C61.4366 68.0828 61.5598 67.7322 61.691 67.3515C62.3376 65.4753 63.1748 62.8826 63.9405 60.0098C64.7081 57.1298 65.3916 54.0134 65.7474 51.0805C66.108 48.1067 66.1055 45.5192 65.6414 43.6062L65.2079 41.8193ZM75.8551 24.9999C75.8551 24.9999 75.8307 26.1221 75.6134 27.8302C75.0836 31.9955 73.4069 39.6446 68.1403 42.9999C70.4238 52.4115 62.9974 71.2855 62.9974 71.2855L55.2837 69.9998C55.2837 69.9998 50.1426 48.1427 52.7117 40.4285C54.8537 33.9966 67.6166 28.2531 73.22 26.0052C74.8349 25.3574 75.8551 24.9999 75.8551 24.9999Z" fill="white"/>
<path d="M50.1428 66.1426C46.6939 65.4658 44.5374 65.2314 41.1428 66.1426C48.8571 69.9998 52.6425 79.9953 63 82.8569C67.3825 84.0678 74.5714 84.1426 74.5714 84.1426C74.5714 84.1426 78.4285 87.9998 81 89.2855L86.1428 84.1426C82.2857 82.8569 75.8571 81.5712 75.8571 81.5712C75.8571 81.5712 71.0492 76.6336 69.4285 73.8569C75.8571 66.1426 77.1428 58.4284 74.5714 46.8569C84.8571 39.1426 90 28.8569 90 28.8569L71.4548 36.8049C67.3343 38.5708 65.2741 39.4537 64.025 41.173C62.776 42.8924 62.573 45.1246 62.1672 49.5891L60.4285 68.7141C60.4285 68.7141 53.8951 66.8791 50.1428 66.1426Z" fill="white"/>
</g>
<defs>
<clipPath id="clip0_273_1284">
<rect width="120" height="120" fill="white"/>
</clipPath>
</defs>
</svg>
