<svg width="120" height="120" viewBox="0 0 120 120" fill="none" xmlns="http://www.w3.org/2000/svg">
<rect width="120" height="120" fill="#A38959"/>
<path d="M60.3549 36.5987L59.8238 36.0897L59.3039 36.6097L28.7492 66.8069H30.8179L59.846 38.17L88.9958 66.8069H91.0865L60.3549 36.5987Z" fill="white"/>
<path d="M59.9551 33.2462L93.6737 66.7962H95.9303L59.933 31L23.8138 66.8072H26.0374L59.9551 33.2462Z" fill="white"/>
<path d="M103 73.9669L99.1613 70.0719H20.9383L17 74L103 73.9669Z" fill="white"/>
<path d="M48.3513 66.6744V66.6964H45.3534V66.6744C45.7738 65.7781 45.9065 65.2913 45.9065 64.0962V57.4792L44.8445 57.5345C44.2029 57.5787 43.1519 59.1943 42.4772 60.1348L42.2891 60.0684L42.809 57.0918H50.8847L51.4157 60.0684L51.2166 60.1348C50.5307 59.1943 49.524 57.5787 48.8713 57.5345L47.8093 57.4792V64.0962C47.8093 65.2913 47.931 65.7781 48.3513 66.6744Z" fill="white"/>
<path d="M66.8365 61.175L66.3719 65.0699C65.7634 65.5347 63.2633 66.7076 60.4202 66.7076C55.3868 66.7076 52.3004 63.034 52.3004 58.3534C52.3004 53.6727 55.7297 50.0433 60.896 50.0433C63.1085 50.0433 65.1661 50.652 66.2724 51.1166L66.759 54.6796L66.4936 54.746C64.7457 51.8802 63.2523 50.7182 60.6968 50.7182C56.3272 50.7182 54.3801 53.9825 54.3801 58.3534C54.3801 62.7241 56.2829 66.0326 60.4423 66.0326C63.6173 66.0326 65.2768 64.1294 66.5931 61.1086L66.8365 61.175Z" fill="white"/>
<path d="M74.9123 63.7088C74.9123 65.4018 73.6069 66.7076 70.8191 66.7076H67.5004V66.6854C67.9208 65.7892 68.0536 65.3023 68.0536 64.0962V59.7032C68.0536 58.5082 67.9208 58.0102 67.5004 57.114V57.0918H73.8392L74.3481 59.6148L74.1489 59.6812C73.4631 58.984 72.4785 57.5897 71.8811 57.5566L69.9341 57.4569V61.1527H71.0404C74.0051 61.1527 74.9123 62.3036 74.9123 63.731V63.7088ZM70.6421 61.5622H69.9341V66.2539C70.2107 66.2761 70.443 66.2761 70.6311 66.2761C72.3347 66.2761 72.9543 65.0146 72.9543 63.731C72.9543 62.1819 72.0582 61.5622 70.6421 61.5622Z" fill="white"/>
</svg>
