<svg width="120" height="120" viewBox="0 0 120 120" fill="none" xmlns="http://www.w3.org/2000/svg">
<path fill-rule="evenodd" clip-rule="evenodd" d="M0 120H120V0H0V120Z" fill="#005E9E"/>
<path fill-rule="evenodd" clip-rule="evenodd" d="M57.2426 25.0068C38.7219 26.5001 23.3669 42.5041 25.0036 62.9488C26.4719 81.2899 42.6116 96.6295 62.9271 94.9913C81.2876 93.5106 96.646 77.3674 94.9943 57.0922C93.5038 38.7954 77.4245 23.3795 57.2426 25.0068ZM39.3023 46.6364L39.5613 65.4926C39.8889 65.0875 39.5357 65.6688 39.9284 64.9902C40.0033 64.861 40.1985 64.3435 40.2706 64.1614L45.2337 52.6367C56.4137 52.0398 52.3856 56.5348 48.8227 65.2303C47.9847 67.2753 43.6427 76.3672 44.0084 78.2657C44.2826 79.6888 46.0802 80.874 47.8783 80.2234C49.4432 79.6571 51.884 75.2366 52.9232 73.5408L62.1947 58.9052C62.9441 57.6982 63.6992 56.5231 64.4733 55.326C65.3665 53.9449 66.4671 52.5678 67.9447 54.6052C68.2588 56.2423 65.8544 61.226 65.1989 62.854C64.1974 65.3408 58.8584 77.1887 59.4289 79.0613C60.3014 81.9253 65.6242 81.0698 68.6773 81.1069L63.9631 92.6716C66.3329 90.6305 79.4687 75.3854 80.4379 74.8552L80.0308 53.7869C79.4051 54.6456 78.8776 56.2433 78.5002 57.1697C77.9655 58.4819 74.6917 67.4938 73.8274 67.6582C71.4583 67.6543 68.1167 68.0951 67.5064 65.8129C67.0731 64.1929 68.7847 60.7298 69.3651 59.2808C70.9691 55.2768 72.5575 51.276 74.1776 47.2153C74.8948 45.4178 76.4681 42.701 75.1004 40.9154C73.4041 38.7011 70.8955 40.1384 69.7691 41.8766L56.9132 62.7742C55.5473 65.0282 54.6083 67.3579 52.8759 66.8876C50.4256 66.2227 52.4924 62.9158 53.1259 61.3256C54.7492 57.2516 56.4205 53.4538 58.055 49.375C59.4802 45.8179 63.6824 39.149 56.7181 39.1678L51.0839 39.1626L56.3303 26.4276C55.5697 26.8333 53.8755 29.0077 52.9677 29.9948C49.2803 34.004 44.8579 39.5188 41.1193 43.6997C40.376 44.5308 39.3035 45.269 39.3023 46.6364Z" fill="#FEFEFE"/>
</svg>
