<svg width="120" height="120" viewBox="0 0 120 120" fill="none" xmlns="http://www.w3.org/2000/svg">
<g clip-path="url(#clip0_273_957)">
<rect width="120" height="120" fill="#B80180"/>
<path fill-rule="evenodd" clip-rule="evenodd" d="M65.516 69.5826C65.5082 63.364 65.3037 52.5093 65.6218 47.3122C71.8746 48.6141 80.3977 60.8405 71.1006 71.4985C70.26 72.5755 69.7924 73.1973 69.7923 75.0121C69.7922 76.5055 69.6615 86.0548 69.8921 86.7688C74.2144 91.088 103.541 61.0889 79.8674 40.5162C75.4387 36.6676 73.891 35.8027 68.1093 32.9891C64.6163 31.2894 64.7933 33.2362 64.7995 26.4968L64.8026 22.8188C64.8035 21.853 64.8788 21.3027 64.0621 21.0725C63.2173 20.8343 62.6398 21.2307 62.1516 21.5711C59.2268 23.6112 56.3115 25.6584 53.3773 27.6887C51.9777 28.6561 51.9737 29.0325 51.8551 31.0638C51.7658 32.5957 50.3034 32.8298 49.0281 33.3188C25.1203 42.4846 21.3578 74.2282 44.6002 87.3285C47.9064 89.192 49.3964 86.7404 51.2211 85.2629L61.646 75.712C63.3082 74.1466 65.5201 72.9813 65.516 69.5826ZM52.506 70.2831L52.5102 49.4408C52.5113 46.8731 50.9934 46.5932 49.0699 48.4324C45.6941 51.6604 41.6279 56.6537 42.6323 62.1176C43.4268 66.4394 44.495 68.8656 46.7668 71.492C47.7544 72.6336 48.8437 74.108 50.3942 74.7197C53.0251 75.7578 52.5059 72.1567 52.506 70.2831Z" fill="#FCFDFC"/>
</g>
<defs>
<clipPath id="clip0_273_957">
<rect width="120" height="120" fill="white"/>
</clipPath>
</defs>
</svg>
