<svg width="120" height="120" viewBox="0 0 120 120" fill="none" xmlns="http://www.w3.org/2000/svg">
<g clip-path="url(#clip0_273_1051)">
<path d="M120 0H0V120H120V0Z" fill="#00ADEF"/>
<path fill-rule="evenodd" clip-rule="evenodd" d="M68.2851 50.8196C67.9546 48.6337 69.1788 47.3551 66.6984 47.3818C60.5571 47.448 61.4476 46.4952 61.4476 50.9134C61.4474 53.3358 61.4459 76.7636 61.4459 76.7636L68.5371 76.7981C68.5371 76.7981 68.5403 61.9963 68.5371 58.5879C68.5353 56.6289 68.5371 56.7456 69.5984 55.8437C70.7879 54.9435 72.5595 53.709 74.3645 53.1628C80.4225 51.3296 79.6909 57.9071 79.6909 62.1301C79.6909 64.6809 79.6909 76.7883 79.6909 76.7883H86.8019C86.8019 76.7883 86.9445 65.8646 86.9445 63.6059C86.9445 56.7669 88.3241 45.7703 77.3316 46.5514C73.5847 46.8175 70.2135 49.2342 68.2851 50.8196Z" fill="white"/>
<path fill-rule="evenodd" clip-rule="evenodd" d="M40.0979 76.807C40.4624 75.6906 40.2076 55.9309 40.2547 52.9022H44.9852C44.9454 52.9402 44.9852 47.3094 44.9852 47.308C44.9852 47.3004 40.2547 47.308 40.2547 47.308C40.2287 45.5961 40.0872 43.3233 41.013 42.1369C42.5185 40.2075 45.0374 41.5017 46.0429 40.9204C46.5818 40.5559 46.9514 38.3271 47.1302 37.6812C47.6504 35.8017 47.971 35.6338 45.8171 35.3339C43.2429 34.9754 40.2004 35.0783 37.9592 36.027C33.0362 38.111 33.0024 42.6477 33.0024 48.6995L33.0007 75.1193C32.9817 77.4602 33.3475 76.9513 35.6905 76.9504C36.9063 76.9499 39.1172 77.1078 40.0979 76.807Z" fill="white"/>
<path fill-rule="evenodd" clip-rule="evenodd" d="M47.8633 52.9022C47.728 52.9022 51.7561 52.9022 51.7561 52.9022V76.8114C52.5606 77.0592 58.4246 77.0864 58.9029 76.7502C58.9029 76.8036 58.9029 47.308 58.9029 47.308H47.7857L47.8633 52.9022Z" fill="white"/>
<path fill-rule="evenodd" clip-rule="evenodd" d="M49.6128 42.3754C49.6374 42.3458 49.6673 42.2567 49.6764 42.2792L50.1597 41.409C50.8238 40.489 51.7826 39.8271 52.6146 39.1047C53.6352 38.2185 55.1944 37.0508 55.1857 35.2167L54.0107 35C53.3393 35.8056 53.6277 36.5296 51.1142 38.364C49.7 39.5298 48.5891 39.9158 49.6128 42.3754Z" fill="white"/>
<path fill-rule="evenodd" clip-rule="evenodd" d="M54.2705 44.8475C54.6601 44.3209 54.4529 43.9502 55.6597 42.6965C57.1116 41.1881 60.7877 38.8428 57.1073 36.0998C57.9361 38.6284 57.0621 38.9426 55.6088 40.5793C54.6732 41.6331 53.2731 42.8294 54.2705 44.8475Z" fill="white"/>
<path fill-rule="evenodd" clip-rule="evenodd" d="M55.2101 45.1979C55.9753 45.3981 57.5076 44.0161 57.7791 43.6084C58.2503 42.9011 58.8695 41.6244 58.7709 40.4571C58.2446 42.7739 54.4768 43.9523 55.2101 45.1979Z" fill="white"/>
<path fill-rule="evenodd" clip-rule="evenodd" d="M49.2406 38.9988C49.8334 38.7059 50.8721 37.6226 51.3702 37.1419L53.3284 35.1026C51.4012 35.2898 49.3943 36.5944 49.2406 38.9988Z" fill="white"/>
</g>
<defs>
<clipPath id="clip0_273_1051">
<rect width="120" height="120" fill="white"/>
</clipPath>
</defs>
</svg>
