<svg width="120" height="120" viewBox="0 0 120 120" fill="none" xmlns="http://www.w3.org/2000/svg">
<rect width="120" height="120" fill="#9E1010"/>
<path fill-rule="evenodd" clip-rule="evenodd" d="M28.0088 27.1313C27.9978 30.9106 27.9995 34.6902 28.0013 38.4698C28.0024 40.832 28.0035 43.1942 28.0014 45.5562C28.0027 51.2439 28.002 56.9316 28.0013 62.6193C28.0003 71.6248 27.9992 80.6303 28.0056 89.6359C33.5669 89.645 39.1284 89.6439 44.6899 89.6429C49.4085 89.642 54.1271 89.6411 58.8455 89.6464C59.0889 89.6714 59.304 89.7901 59.5184 89.9084C59.6187 89.9638 59.7189 90.0191 59.8217 90.0646C62.5067 91.3866 65.4008 92.303 68.3705 92.6907C68.709 92.787 69.057 92.7937 69.4052 92.8003C69.5587 92.8033 69.7122 92.8062 69.8648 92.8168C71.3287 93.0491 72.8304 93.069 74.2943 92.8273C74.4957 92.8047 74.699 92.8015 74.9023 92.7983H74.9023C75.2452 92.7929 75.5879 92.7876 75.921 92.6886C82.5331 91.8185 88.833 88.4011 92.9965 83.1657C95.6079 79.908 97.3713 75.9641 97.9714 71.8279C98.2856 69.6032 98.2877 67.328 97.9714 65.1044C97.4249 61.3423 95.9232 57.7305 93.6838 54.6619C91.643 51.8561 89.0085 49.4917 86.024 47.7262C82.8641 45.8473 79.3058 44.6556 75.6635 44.1858C75.3529 44.1727 75.0467 44.1266 74.741 44.0806L74.7406 44.0805C74.6307 44.064 74.5209 44.0474 74.4109 44.0324C73.6192 44.0067 72.8273 44.0102 72.0353 44.0137C71.4018 44.0165 70.7682 44.0193 70.1349 44.0072C70.1222 41.1521 70.1247 38.2968 70.1272 35.4414V35.4392C70.1297 32.6348 70.1322 29.8304 70.1202 27.0262C69.2471 26.9937 68.3729 26.9986 67.4986 27.0036C66.9628 27.0067 66.427 27.0098 65.8915 27.0042L53.63 27.0039C45.4557 27.0037 37.2813 27.0035 29.107 27.0042C28.8949 27.0078 28.686 27.0397 28.477 27.0717C28.3214 27.0954 28.1658 27.1192 28.0088 27.1313ZM47.8308 29.7519C42.1461 29.7492 36.4613 29.7465 30.7769 29.7647C30.7548 31.869 30.758 33.9737 30.7612 36.0783V36.0783V36.0783V36.0784V36.0784C30.7632 37.3812 30.7651 38.6839 30.7611 39.9865V70.882C30.7643 72.9219 30.7628 74.9618 30.7612 77.0016C30.7587 80.2916 30.7562 83.5815 30.7737 86.8709C32.231 86.887 33.6887 86.8846 35.1466 86.8822C36.0772 86.8807 37.0079 86.8792 37.9385 86.8825C40.0875 86.8793 42.2365 86.881 44.3855 86.8826C47.8775 86.8854 51.3696 86.8881 54.8617 86.8699C54.6799 86.6629 54.4792 86.4737 54.2743 86.2908C50.0666 82.6023 47.1231 77.4352 46.3287 71.8771C46.2089 71.3759 46.1763 70.8631 46.1773 70.3492C46.1094 69.8244 46.0689 69.2959 46.0284 68.768C46.0207 68.6669 46.0129 68.5659 46.005 68.465C46.0196 68.2932 46.0323 68.1211 46.045 67.949C46.077 67.5158 46.1089 67.0824 46.1721 66.6522C46.1753 66.5662 46.1777 66.4801 46.18 66.394C46.1918 65.9699 46.2035 65.5459 46.3118 65.1327C47.0243 60.0665 49.5138 55.3102 53.1236 51.7037C54.2743 50.5319 55.5773 49.5273 56.8983 48.5574C56.2867 48.2571 55.6292 48.0718 54.974 47.8872L54.9739 47.8872C54.8174 47.8431 54.6611 47.799 54.5055 47.7534C53.3894 47.4708 52.2577 47.2175 51.1091 47.1292C50.9769 47.1127 50.8458 47.0878 50.7147 47.0629C50.4881 47.0199 50.2615 46.9768 50.0298 46.9768C48.835 46.9653 47.6401 46.9684 46.4453 46.9747C46.2079 46.9697 45.9747 47.0066 45.7413 47.0435L45.7413 47.0435C45.5378 47.0758 45.3341 47.108 45.1275 47.1124C45.1139 45.5277 45.1191 43.944 45.1244 42.3604C45.2851 42.3499 45.4459 42.3425 45.6078 42.3404C49.4102 42.3427 53.2131 42.3422 57.0158 42.3418H57.0198H57.0199H57.02H57.0201H57.0202C58.5412 42.3416 60.0622 42.3415 61.583 42.3415C62.3062 42.3367 63.0296 42.3395 63.7529 42.3422H63.7532C64.9395 42.3468 66.1258 42.3513 67.3113 42.3226C67.3185 40.9114 67.3172 39.5007 67.3159 38.0901V38.0882V38.0881V38.0881V38.088V38.0879C67.3151 37.2145 67.3143 36.3411 67.3155 35.4677C67.3099 34.7455 67.313 34.023 67.3161 33.3003V33.3003V33.3002V33.3001V33.3V33.2998C67.321 32.1206 67.326 30.9412 67.2935 29.7626C65.4512 29.747 63.6085 29.7495 61.7656 29.7519H61.7656H61.7654H61.7653H61.7652H61.7651C60.6185 29.7534 59.472 29.7549 58.3254 29.7521C54.8274 29.7553 51.3292 29.7536 47.831 29.7519H47.831H47.8309H47.8309H47.8308ZM55.6077 45.1533C56.009 45.0945 56.4147 45.0972 56.8194 45.0999C56.9362 45.1007 57.0528 45.1014 57.1693 45.1007L58.5874 45.1009H58.5919C60.0093 45.101 61.4266 45.1012 62.844 45.0997C62.9227 45.1003 63.0021 45.099 63.0817 45.0976H63.0817H63.0818H63.0818C63.3944 45.0923 63.7107 45.0869 64.0063 45.2016C62.679 45.5715 61.4054 46.1106 60.1632 46.7022C59.9965 46.8205 59.8207 46.7385 59.6545 46.6608C59.6081 46.6392 59.5625 46.6179 59.518 46.6014C58.2591 46.0066 56.9371 45.5621 55.6077 45.1533ZM69.6565 46.8687C69.2819 46.9306 68.9073 46.9925 68.5251 46.9947C66.664 47.3267 64.784 47.7177 63.0564 48.5069C63.2856 48.6896 63.5254 48.8579 63.7653 49.0263L63.7654 49.0264C63.829 49.071 63.8925 49.1156 63.9559 49.1605C67.3639 51.5912 70.177 54.873 71.9719 58.6603C73.1815 61.174 73.9118 63.9147 74.163 66.6879C74.1798 67.9469 74.1766 69.2068 74.1661 70.4658C74.1726 70.7224 74.131 70.9736 74.0893 71.2251C74.0502 71.4607 74.0111 71.6965 74.0117 71.937C73.6964 73.9999 73.1342 76.0312 72.2893 77.9427C70.6436 81.7269 67.9849 85.0466 64.722 87.5634C64.5612 87.6919 64.3939 87.812 64.2265 87.9321L64.2264 87.9321L64.2263 87.9322C63.9517 88.1292 63.677 88.3263 63.4315 88.5607C63.8613 88.7751 64.3216 88.9201 64.7798 89.0619C66.0209 89.436 67.2871 89.7429 68.5734 89.9079C68.9441 90.0112 69.3248 90.0261 69.7058 90.041C70.0419 90.0541 70.3782 90.0673 70.7077 90.1412C71.5978 90.2105 72.4942 90.1885 73.3864 90.1611C73.8645 90.0897 74.3437 90.0235 74.8303 90.0361C79.7126 89.4938 84.4741 87.5024 88.1479 84.2143C88.8383 83.6468 89.4804 83.0215 90.0521 82.3343C92.7055 79.3708 94.5477 75.6592 95.1656 71.7216C95.1821 71.4976 95.2225 71.2766 95.2629 71.0558L95.2629 71.0557L95.2629 71.0556C95.3176 70.7564 95.3722 70.4575 95.3674 70.1516C95.381 68.9925 95.3821 67.8334 95.3653 66.6743C95.1204 64.2341 94.4878 61.8224 93.4107 59.6124C91.6473 55.9155 88.7774 52.7849 85.341 50.576C82.3976 48.6792 79.0274 47.4623 75.5648 46.9789C75.2646 46.9825 74.9707 46.9295 74.6769 46.8764L74.6768 46.8764C74.369 46.8209 74.0614 46.7654 73.7468 46.775C73.3637 46.7761 72.9805 46.7747 72.5972 46.7733H72.5971H72.5971H72.5969C71.7955 46.7703 70.9939 46.7674 70.1928 46.7866C70.0134 46.8097 69.835 46.8392 69.6565 46.8687ZM59.5968 50.1679C59.6142 50.1583 59.6316 50.1484 59.649 50.1385C59.7602 50.0753 59.8733 50.011 60.0014 49.9882C60.2986 50.0914 60.5646 50.2606 60.8299 50.4293L60.8299 50.4293C60.9295 50.4927 61.0291 50.5559 61.1301 50.6156C65.2484 53.1871 68.5639 57.0911 70.2253 61.6718L70.2397 61.7113C70.4011 62.1534 70.5642 62.6001 70.6183 63.0715C70.3545 62.9037 70.1228 62.6959 69.8912 62.4881C69.7197 62.3343 69.5482 62.1804 69.3636 62.0427C67.2041 60.354 64.5044 59.4576 61.7974 59.1865C60.7108 59.1381 59.621 59.135 58.5355 59.1917C55.9283 59.4671 53.3337 60.3099 51.2225 61.8946C50.8834 62.1366 50.5763 62.4163 50.2695 62.6958C50.0314 62.9125 49.7936 63.1292 49.5411 63.328C49.6972 62.4708 50.0163 61.6523 50.3318 60.8433L50.3345 60.8364C52.1157 56.3733 55.4911 52.6259 59.5968 50.1679ZM70.1523 73.9028C69.9253 74.1273 69.6981 74.3518 69.4436 74.5465C67.2178 76.2899 64.4288 77.2525 61.623 77.4469C60.8496 77.594 60.0541 77.5898 59.2722 77.5257C58.9438 77.4538 58.6096 77.4265 58.2756 77.3993C57.9557 77.3732 57.636 77.3472 57.3218 77.2819C55.5059 76.9666 53.73 76.3508 52.1558 75.3851C51.1774 74.806 50.3315 74.0431 49.5339 73.2413C49.5255 73.4326 49.5349 73.6238 49.5622 73.814C50.1055 75.7813 50.9378 77.6686 52.0234 79.3973C53.9654 82.5026 56.7113 85.0793 59.8733 86.9162C60.0867 87.055 60.3767 87.0938 60.611 86.9877C65.2748 84.2702 68.9633 79.8313 70.5491 74.6484C70.5801 74.5396 70.6138 74.4311 70.6475 74.3225C70.7577 73.9676 70.8682 73.6117 70.8875 73.2392C70.6223 73.4381 70.3874 73.6704 70.1523 73.9028Z" fill="white"/>
</svg>
