<svg width="120" height="120" viewBox="0 0 120 120" fill="none" xmlns="http://www.w3.org/2000/svg">
<rect width="120" height="120" rx="60" fill="#51B2BD"/>
<path fill-rule="evenodd" clip-rule="evenodd" d="M0 120H120V0H0V120Z" fill="#319AA6"/>
<path fill-rule="evenodd" clip-rule="evenodd" d="M62.7287 53.9522C63.1953 54.0363 63.9597 53.4791 64.5402 53.1999C65.2348 52.8658 65.7819 52.6337 66.4769 52.3564C72.8426 49.8165 83.4723 47.9112 89.3159 51.8201C93.3041 54.4879 93.6891 57.5203 94.6116 57.6756C95.1766 57.1787 95.035 56.8896 94.7535 55.2336C93.2727 46.5195 85.8801 41.8634 78.0015 39.1603C75.7999 38.4049 70.8261 36.8611 68.5153 36.7371C68.0889 40.0535 67.3221 43.0802 66.2946 46.0647C64.885 50.1589 63.1348 52.614 62.8047 53.4397L62.7287 53.9522ZM69.206 47.557C75.7383 46.4452 76.9185 45.549 84.3448 46.3353C83.349 44.2697 72.3469 40.6789 70.7225 40.9613C70.5196 42.0009 69.1758 47.2959 69.206 47.557Z" fill="white"/>
<path fill-rule="evenodd" clip-rule="evenodd" d="M25.3874 57.6654C26.0466 57.5414 25.7153 57.3753 26.544 56.0546C29.3103 51.6462 34.1619 49.6748 39.5914 49.5815C42.9184 49.5244 46.3815 50.1248 49.3932 50.9187C51.1599 51.3843 53.8071 52.3672 55.4504 53.2073C56.0439 53.5108 56.8104 54.0445 57.2907 53.9493C57.3297 53.4164 56.758 52.8465 56.4349 52.2168C56.1088 51.5816 55.7374 50.9084 55.4369 50.2518C53.2474 45.4681 52.275 42.3012 51.4528 36.7854C46.6413 36.9491 38.2112 40.4158 34.0827 43.0454C29.4329 46.007 25.486 50.6676 25.0562 56.3853C24.9885 57.2868 24.8897 57.2327 25.3874 57.6654ZM35.6611 46.3309C39.9564 45.9322 43.0311 45.9498 47.2658 46.7958C48.3362 47.0096 49.8568 47.4648 50.8842 47.5373C50.5545 45.7741 49.8549 44.6479 49.2726 40.9656C47.6557 40.6592 36.596 44.3233 35.6611 46.3309Z" fill="white"/>
<path fill-rule="evenodd" clip-rule="evenodd" d="M56.7521 82L56.8529 81.1309C56.444 80.7912 55.5077 80.377 55.0223 80.0572C51.6542 77.8386 51.0215 73.052 51.5912 69.1921C52.0931 65.79 52.8267 66.214 52.1968 64.3846C50.7569 64.6721 46.0108 68.7168 37.7923 68.5903C33.6481 68.5264 29.3471 66.3499 26.9647 63.3601C26.3242 62.5562 26.3026 62.322 25.6498 62.1375C25.0205 62.7464 25.1169 62.0505 25.2184 63.097C25.4495 65.4796 27.7622 69.0547 29.0772 70.7985C29.6691 71.5833 31.4808 73.2721 32.3379 73.9354C33.5338 74.8612 34.8115 75.7361 36.2847 76.552C41.8729 79.647 49.2975 81.865 56.7521 82ZM35.2795 72.121C35.31 72.1613 35.3576 72.1678 35.376 72.2376C35.4819 72.6382 38.0486 73.8132 38.3641 73.9566C40.8471 75.0858 46.8852 77.1756 49.3127 77.2577C48.6261 74.9209 48.5744 72.7517 48.609 70.1662C42.2313 71.9071 42.5384 71.941 35.2795 72.121Z" fill="white"/>
<path fill-rule="evenodd" clip-rule="evenodd" d="M67.8667 64.3353C67.03 65.7575 67.7488 65.4913 68.3307 68.915C69.076 73.2999 68.3271 77.91 64.4757 80.3711C63.2678 81.143 63.0008 80.5478 63.2403 81.9985C73.813 81.4988 88.787 76.7687 93.5094 66.817C93.8671 66.0631 94.1577 65.2729 94.4087 64.4175C94.8054 63.0667 95.1362 62.7067 94.1218 62.1559C92.6769 63.6238 92.4695 64.7642 89.423 66.642C87.407 67.8847 84.7906 68.5336 82.0459 68.5588C78.1143 68.595 74.3155 67.6535 70.8632 66.0145C69.742 65.4822 68.8359 64.8148 67.8667 64.3353ZM70.6914 77.2798C73.0738 77.4277 83.7423 73.5301 84.768 72.2047C82.3091 71.999 80.0385 72.4669 77.3746 71.9639C75.0218 71.5195 73.4066 70.7728 71.3611 70.2357C71.3476 73.0742 71.4302 74.6534 70.6914 77.2798Z" fill="white"/>
<path fill-rule="evenodd" clip-rule="evenodd" d="M53.7208 59.2664C53.7736 58.103 53.0999 57.6926 51.8572 56.8429C48.8704 54.8006 45.665 53.6011 41.8809 53.1912C36.8884 52.6503 30.0375 54.2978 29.4545 58.6849C28.7638 63.8815 36.2853 65.4159 41.0742 64.8147C45.0799 64.3118 51.1169 61.6714 53.7208 59.2664ZM48.7744 58.516C47.2709 57.2904 42.7962 56.286 40.4094 56.221C38.0047 56.1554 32.598 56.8089 32.673 59.1723C32.75 61.5982 38.6011 61.7743 40.9807 61.4059C42.7862 61.1263 48.0156 59.6526 48.7744 58.516Z" fill="white"/>
<path fill-rule="evenodd" clip-rule="evenodd" d="M67.2857 60.0598C67.8329 60.4331 68.1181 60.607 68.6949 60.9514C71.6665 62.7257 74.726 64.2109 78.3312 64.7396C83.0775 65.4356 90.4927 64.1914 90.5352 59.3413C90.5763 54.653 83.8036 52.7959 78.9848 53.1096C76.3726 53.2797 73.9005 53.9191 71.705 54.8341C69.9641 55.5596 64.252 57.99 67.2857 60.0598ZM71.1442 58.4835C71.8537 59.7136 76.9664 61.0756 78.8872 61.3965C81.1521 61.7748 87.2183 61.6388 87.2825 59.1722C87.3789 55.4652 75.1523 55.443 71.1442 58.4835Z" fill="white"/>
<path fill-rule="evenodd" clip-rule="evenodd" d="M59.7353 60.856C57.065 62.4959 54.1256 69.9345 56.6988 75.0584C57.2321 76.1203 58.6537 77.9399 60.4098 77.5782C64.3965 76.7574 66.0845 68.2545 61.3788 62.0768C61.0939 61.7028 60.4533 60.4152 59.7353 60.856ZM59.9994 73.59C62.0197 72.2608 61.4784 67.3164 59.9994 65.9858C58.5042 67.358 57.7814 72.8034 59.9994 73.59Z" fill="white"/>
<path fill-rule="evenodd" clip-rule="evenodd" d="M64.7932 36.1729C61.6632 35.8809 58.323 36.018 55.1824 36.1541C54.8283 38.6889 58.3817 50.6869 60.0006 50.6272C60.5338 50.6076 60.305 50.6373 60.643 50.088C60.7746 49.8741 60.9213 49.6039 61.0545 49.3481C61.3048 48.867 61.5946 48.2957 61.878 47.7076C63.0816 45.2094 64.9476 38.5114 64.7932 36.1729ZM59.9996 44.7851C60.6318 44.0433 61.5867 40.6794 61.4187 39.4449L58.6099 39.4192C58.4511 40.8839 59.2574 43.8807 59.9996 44.7851Z" fill="white"/>
</svg>
