<svg width="120" height="120" viewBox="0 0 120 120" fill="none" xmlns="http://www.w3.org/2000/svg">
<rect width="120" height="120" fill="#CD212A"/>
<path fill-rule="evenodd" clip-rule="evenodd" d="M37.7565 43.121C37.9452 43.108 38.1477 43.1016 38.3653 43.1017H42.2109L42.2936 43.1018H43.9451C44.4928 43.0632 44.9912 42.9402 45.5619 42.5956C47.342 41.5205 47.4741 38.794 45.6189 37.5606C44.6702 36.93 43.5773 37.0302 42.2982 37.0302C37.5583 37.0302 33.7487 36.4249 30.5952 40.6376C29.6257 41.9328 29 43.5954 29.0179 46.2449C30.8543 45.4325 33.744 43.2554 37.7565 43.121Z" fill="white"/>
<path fill-rule="evenodd" clip-rule="evenodd" d="M37.5322 43.14C37.5322 43.14 35.2256 43.14 35.2256 45.7163C35.2256 48.2927 35.3217 66.191 35.3217 66.191C35.3217 66.191 34.9268 72.9633 42.7124 75.4825C42.7124 75.4825 29 71.7829 29 66.5714C29 61.3599 29 46.2449 29 46.2449C29 46.2449 33.9804 43.14 37.5322 43.14Z" fill="white"/>
<path fill-rule="evenodd" clip-rule="evenodd" d="M89.687 64.0858C89.687 64.0858 91.1354 69.1162 87.8008 74.2665C86.1119 76.8752 83.7793 79.5163 80.0385 80.8052C76.3942 82.0609 71.3924 81.9997 65.8627 81.904C64.7152 81.8841 63.6807 81.9019 62.9799 81.6512C60.9392 80.9209 60.5686 78.5126 61.5348 77.2207C62.4609 75.9823 63.5478 75.9126 63.5478 75.9126C64.7851 75.6152 72.2516 75.763 75.4351 75.763C78.6187 75.763 82.4141 71.1561 82.4141 71.1561L89.687 64.0858Z" fill="white"/>
<path fill-rule="evenodd" clip-rule="evenodd" d="M73.0719 43.1768C73.0719 43.1768 83.5268 42.8832 84.8688 46.7079C86.2108 50.5326 84.4214 54.0781 84.1405 54.893C84.1405 54.893 85.3322 55.4652 86.5763 57.1256C87.8668 58.8478 89.6905 61.4185 89.6905 64.3052C89.6905 69.7821 81.8903 71.9754 81.8903 71.9754C81.8903 71.9754 87.8938 63.8033 77.7452 57.5327C77.1195 57.1461 76.6604 55.8049 77.5063 54.6518C79.4985 51.9356 79.7653 45.3353 73.0719 43.1768Z" fill="white"/>
<path fill-rule="evenodd" clip-rule="evenodd" d="M29.1628 67.5573C29.1628 67.5573 29.2396 69.5861 30.3511 72.0924C32.0361 75.8916 35.8979 80.9715 44.1302 81.94C45.0643 82.0498 46.054 81.9753 47.1038 81.9753C51.48 81.9753 58.5395 78.6479 61.2446 72.4431C63.3347 67.649 62.7058 58.5491 62.7058 58.5491L62.7114 43.14L73.0182 43.1484C79.0419 44.1183 84.8688 46.7079 84.8688 46.7079C84.5846 45.5352 83.9451 44.2343 83.3645 43.2558C81.2296 39.6575 78.4721 37.9304 74.7606 37.2907C73.215 37.0243 71.5156 37.012 69.6079 37.0268C65.4521 37.0592 56.4787 37.0522 56.4787 37.0522C56.4752 37.0271 56.5732 54.8326 56.5267 63.4404C56.5115 66.2648 56.2975 67.6743 56.301 67.6994C56.3059 67.7356 55.9311 70.06 54.0917 72.2224C50.7376 76.1655 43.2098 79.5678 29.1628 67.5573Z" fill="white"/>
</svg>
