<svg width="120" height="120" viewBox="0 0 120 120" fill="none" xmlns="http://www.w3.org/2000/svg">
<rect width="120" height="120" fill="#1F3063"/>
<path fill-rule="evenodd" clip-rule="evenodd" d="M15.0801 61.4743C19.034 63.2498 51.9124 84.9022 52.9188 85.0129C53.5907 85.087 70.0601 74.6044 72.2731 73.2979C75.5837 71.3434 78.5793 69.3635 81.8706 67.3766C84.9011 65.5471 88.9079 63.2771 91.5716 61.2978L53.3775 37.7076C53.2129 37.6685 17.9689 59.4382 15.0802 61.4742L15.0801 61.4743Z" fill="#F2CEA6"/>
<path fill-rule="evenodd" clip-rule="evenodd" d="M21.8765 61.4228C25.668 63.3117 52.0318 80.8072 53.1773 80.7001C54.4736 80.5787 80.4939 63.509 84.7071 61.498C84.2337 60.7854 84.7163 61.2929 83.9698 60.6674L53.1941 41.9253C53.1923 41.9252 24.7466 59.372 21.8765 61.4229V61.4228ZM34.9821 61.3602L53.0682 72.7577C53.0682 72.1674 53.0682 68.5729 53.0682 68.5513C49.5599 66.4175 44.9479 63.7833 41.7809 61.3604C42.7266 60.6374 48.9313 56.5474 50.0704 56.3934L50.0901 60.8947C51.3294 60.1087 51.8761 59.8476 53.0673 59.1595L53.1092 50.3803C52.7802 50.4473 37.6826 59.0834 35.5195 60.8382C35.1124 61.1685 35.2037 61.1006 34.9821 61.3605V61.3602ZM56.3731 55.8768C57.8215 56.7003 59.5703 57.7061 60.7635 58.6625C59.3855 59.803 57.9466 60.8144 56.3729 61.6778C56.3729 61.6778 56.3504 63.3478 56.3776 65.679C57.7972 65.3421 65.5373 59.9451 67.5423 58.8493C66.1712 58.0117 57.6664 52.5613 56.3726 51.9444L56.3731 55.8768Z" fill="#1F3063"/>
<path fill-rule="evenodd" clip-rule="evenodd" d="M58.3429 36.033C59.9259 37.9366 95.7348 58.8851 98.1407 61.0122C98.1883 61.0543 98.28 61.1496 98.318 61.1848C98.356 61.2198 98.4374 61.2992 98.4928 61.3606L58.2896 86.2162C59.2515 87.388 60.4012 88.5678 60.4012 88.5678C60.4012 88.5678 65.3468 86.0487 70.0545 83.2103L93.4221 68.8192C97.0517 66.5965 102.069 63.9088 105.269 61.3606C91.1399 52.5573 75.3929 42.3489 61.2564 34.0649C61.2564 34.0649 60.2413 34.7026 58.3429 36.0331V36.033Z" fill="#F2CEA6"/>
</svg>
