<svg width="120" height="120" viewBox="0 0 120 120" fill="none" xmlns="http://www.w3.org/2000/svg">
<rect width="120" height="120" fill="#D3E6EE"/>
<path fill-rule="evenodd" clip-rule="evenodd" d="M61.856 57.4097C62.7201 58.989 63.994 61.0414 64.8973 62.6393C67.9225 67.8299 70.9422 73.0237 73.9671 78.2143C74.5501 79.1524 74.9046 79.8881 75.6616 80.6506C76.3838 81.3782 77.0735 81.8538 78.1252 82.3337C83.3831 84.7328 89.9927 80.3598 88.8751 73.9179C88.6574 72.6634 88.252 71.8631 87.6946 70.958C87.157 70.0855 86.7202 69.1841 86.1758 68.3391C80.3605 59.3107 74.7867 49.0153 69.4672 39.6903L66.4266 34.3835C65.6634 33.0903 64.9159 31.7771 63.736 30.7764C60.3533 27.9068 55.065 28.6382 52.5565 32.0748C49.3899 36.4128 51.6802 39.9258 53.9026 43.729C56.4989 47.1688 59.7582 53.5753 61.8559 57.4096L61.856 57.4097Z" fill="#0135A9"/>
<path fill-rule="evenodd" clip-rule="evenodd" d="M55.8584 57.4097C54.9715 58.989 53.664 61.0414 52.7369 62.6393C49.6321 67.8299 46.533 73.0237 43.4284 78.2143C42.8301 79.1524 42.4662 79.8881 41.6894 80.6506C40.9481 81.3782 40.2404 81.8538 39.1609 82.3337C33.7646 84.7328 26.9811 80.3598 28.1282 73.9179C28.3517 72.6634 28.7675 71.8631 29.3396 70.958C29.8915 70.0855 30.3398 69.1841 30.8985 68.3391C36.8668 59.3107 42.5874 49.0153 48.0467 39.6903L51.1674 34.3835C51.9506 33.0903 52.7178 31.7771 53.9287 30.7764C57.4005 27.9068 62.828 28.6382 65.4027 32.0748C68.6524 36.4128 66.3019 39.9258 64.021 43.729C61.3563 47.1688 58.0113 53.5753 55.8585 57.4096L55.8584 57.4097Z" fill="#00A2E2"/>
<path d="M58.5 83C62.6421 83 66 79.6421 66 75.5C66 71.3579 62.6421 68 58.5 68C54.3579 68 51 71.3579 51 75.5C51 79.6421 54.3579 83 58.5 83Z" fill="#F8AD2D"/>
</svg>
