<svg width="120" height="120" viewBox="0 0 120 120" fill="none" xmlns="http://www.w3.org/2000/svg">
<g clip-path="url(#clip0_273_843)">
<rect width="120" height="120" fill="#A7CF4D"/>
<path fill-rule="evenodd" clip-rule="evenodd" d="M57.9975 85.9155L71.9914 85.9684L72.0318 90L75.8966 89.9839L75.9071 85.9666L89.9904 85.9667L89.9917 72.011L57.9975 72.0125V85.9155ZM61.6956 82.3594L72.0318 82.38L72.0214 75.5774L61.7709 75.5784L61.6956 82.3594ZM75.8907 82.3792H86.2897L86.2766 75.5773L75.8907 75.6078V82.3792Z" fill="white"/>
<path fill-rule="evenodd" clip-rule="evenodd" d="M47.28 61.237L61.4794 61.2337L61.4781 29.0913L60.8711 29.042L47.3621 29.0503L47.28 61.237ZM51.0033 57.0807L51.0483 57.672L57.7255 57.6692L57.7761 32.6378L51.0021 32.6172L51.0033 57.0807Z" fill="white"/>
<path fill-rule="evenodd" clip-rule="evenodd" d="M29.484 38.992C29.484 42.1051 29.3773 59.6357 29.5435 61.2396L43.6108 61.2346L43.6624 29.1119C43.6624 29.1119 40.3413 29.0482 39.0099 29.0503C38.3791 29.0512 29.484 37.5757 29.484 38.992ZM33.1869 40.2958C33.1869 43.2297 33.0691 55.7618 33.2398 57.6725L39.9192 57.6678L39.9592 32.7088C38.7935 33.9092 33.1869 39.194 33.1869 40.2958Z" fill="white"/>
<path fill-rule="evenodd" clip-rule="evenodd" d="M89.6863 29.0398C84.8413 29.1008 84.6201 28.7325 83.2785 30.4419C82.6011 31.2244 79.785 34.1596 79.2831 34.4687L79.2728 29.0913C79.2728 29.0913 74.483 28.7931 73.8676 29.2745L68.2328 35.1664C67.5687 35.7251 67.2873 36.0094 66.7501 36.6004C66.3392 37.0524 65.68 37.6953 65.351 38.1256C64.8228 38.8163 65.0955 47.893 65.0955 49.4216C65.0955 53.3501 65.0955 57.2786 65.0955 61.2072L68.7988 61.2401C68.7988 55.343 68.7988 49.4489 68.7988 43.5549C68.7988 42.3834 68.473 40.213 69.079 39.4368C70.5313 37.8632 75.5102 32.7193 75.5102 32.7193L75.5717 61.237L79.2738 61.2233C79.2736 55.3565 79.2736 49.5371 79.2736 43.7179C79.2736 37.7412 78.5889 41.0095 83.75 34.9832L85.9261 32.8003L85.9719 61.2261L89.7628 61.2337L89.6863 29.0398Z" fill="white"/>
<path fill-rule="evenodd" clip-rule="evenodd" d="M29.484 90H32.559L33.187 89.9839L33.1975 85.9666L54.3799 85.9654V72.0425L29.647 72.011H29.484V90ZM33.1811 82.3792H50.84L50.8582 75.6292L33.2778 75.5776L33.1811 82.3792Z" fill="white"/>
<path fill-rule="evenodd" clip-rule="evenodd" d="M29.4841 67.8362L29.5154 68.4487L89.8288 68.4481L90 67.8367L89.9918 64.8818H29H29.4841V67.8362Z" fill="white"/>
</g>
<defs>
<clipPath id="clip0_273_843">
<rect width="120" height="120" fill="white"/>
</clipPath>
</defs>
</svg>
