<svg width="120" height="120" viewBox="0 0 120 120" fill="none" xmlns="http://www.w3.org/2000/svg">
<rect width="120" height="120" fill="#0271C1"/>
<path fill-rule="evenodd" clip-rule="evenodd" d="M18.0454 99.8965L101.946 99.9127L101.954 20.0874H18.0686L18.0454 99.8965Z" fill="#0271C1"/>
<path fill-rule="evenodd" clip-rule="evenodd" d="M46.2999 58.8936C52.1918 55.4617 66.2234 51.012 65.384 61.1364C64.475 72.0998 51.2049 86.0701 42.2821 77.3052C34.8361 69.9912 40.8406 57.5053 45.8923 50.6527C46.6943 49.5645 48.5065 47.6146 48.7523 46.2002C47.5324 46.9566 46.8343 47.6226 45.7174 48.4135C38.191 55.1674 31.243 62.4326 30.4301 73.2135C29.2111 89.3822 41.7844 96.4069 54.8277 90.7663C62.8259 87.3074 73.6623 75.7884 73.1935 63.5274C72.6512 49.3468 58.802 50.1279 49.34 56.4986C48.6094 56.9905 46.5761 58.7928 46.2999 58.8936Z" fill="#FCFDFE"/>
<path fill-rule="evenodd" clip-rule="evenodd" d="M75.8214 53.8708C85.2003 52.3021 96.7903 34.9579 83.9732 30.8229C74.2026 27.6708 48.1428 35.5678 46.4595 31.9868C46.1948 28.9104 48.4744 27.4108 48.8337 27.3091C39.1528 29.9103 31.9105 42.939 38.3722 45.1854C42.223 46.5242 59.9912 42.9106 70.2156 43.8222C86.7356 45.2949 76.5886 52.7367 75.8214 53.8708Z" fill="#FCFDFE"/>
</svg>
