<svg width="120" height="120" viewBox="0 0 120 120" fill="none" xmlns="http://www.w3.org/2000/svg">
<g clip-path="url(#clip0_273_261)">
<rect width="120" height="120" fill="#006648"/>
<circle cx="60" cy="60" r="35" fill="white"/>
<path d="M53.8394 25.6068C55.9241 25.2091 58.0512 25.1112 60.1664 25.0015C61.6775 24.9776 63.1723 25.2493 64.6769 25.3471C66.7626 25.4557 68.7448 26.16 70.7487 26.6838C71.6646 26.9033 72.539 27.2619 73.4036 27.6271C74.6792 28.2313 75.9668 28.8095 77.2239 29.4507C78.3426 30.0397 79.3576 30.7928 80.3989 31.5025C81.8282 32.473 83.19 33.55 84.373 34.8117C85.0936 35.5409 85.871 36.2147 86.5415 36.9928C87.4617 38.0144 88.2108 39.1685 89.0372 40.2629C89.53 40.8965 89.8593 41.63 90.2736 42.3136C90.8493 43.2623 91.2712 44.2937 91.7684 45.2848C92.4662 46.5987 93.0702 47.98 93.3973 49.4362C93.8574 51.1805 94.5573 52.8791 94.6718 54.6983C94.6969 55.8547 94.916 56.9947 95 58.1466C93.1977 58.3586 91.4457 58.8519 89.6598 59.1595C88.2184 59.3921 86.8021 59.7561 85.3619 59.9963C84.2846 60.1615 83.2336 60.4527 82.1575 60.619C81.0727 60.8407 79.978 61.0113 78.9008 61.2678C77.72 61.5232 76.5109 61.6417 75.3454 61.9699C74.4437 62.2296 73.5006 62.2709 72.588 62.4785C71.5337 62.7089 70.4729 62.9153 69.4109 63.1066C68.1593 63.3218 66.9338 63.6706 65.6734 63.8413C64.7216 63.9641 63.8014 64.2401 62.8616 64.4216C58.1592 65.2573 53.4949 66.293 48.7958 67.1407C47.6161 67.4004 46.4277 67.6156 45.2382 67.8242C44.2362 67.9981 43.2571 68.2839 42.2508 68.4383C40.6077 68.6958 38.9985 69.1664 37.3379 69.3153C37.6639 68.8523 38.2178 68.6687 38.7063 68.4328C39.3452 68.1275 40.044 67.9894 40.7353 67.8547C41.7045 67.6634 42.6498 67.3722 43.6115 67.1505C44.8609 66.8983 46.081 66.5212 47.3315 66.2724C48.6639 65.905 50.018 65.6246 51.359 65.2932C52.5649 64.9063 53.8231 64.7346 55.0409 64.3966C56.0255 64.1217 57.0384 63.9662 58.0207 63.6837C59.2026 63.35 60.4117 63.1207 61.5958 62.7915C62.7602 62.4676 63.9562 62.2742 65.1207 61.9481C65.837 61.7427 66.5773 61.6449 67.3012 61.4732C69.858 60.7353 72.4812 60.2636 75.0455 59.5605C77.6808 58.9226 80.3225 58.3205 82.9501 57.6554C84.6673 57.199 86.4107 56.8556 88.129 56.4056C89.3861 56.0916 90.6421 55.7742 91.909 55.5004C92.7747 55.2961 93.6502 55.1135 94.481 54.7853C94.4483 54.1321 94.36 53.4812 94.2292 52.8411C94.1757 52.602 94.1114 52.3564 93.9533 52.1629C93.3962 52.1184 92.8783 52.3705 92.3582 52.5281C89.7383 53.2986 87.1085 54.0365 84.4842 54.7972C83.4593 55.1428 82.3963 55.358 81.3703 55.7003C79.9736 56.1503 78.5497 56.5111 77.1422 56.9251C75.232 57.5011 73.3098 58.0423 71.3898 58.5857C69.0217 59.2671 66.6645 59.9833 64.2888 60.6353C63.2214 60.9581 62.1616 61.3037 61.0768 61.5623C59.0728 62.1231 57.0918 62.7643 55.0802 63.299C52.9781 63.9358 50.8553 64.5009 48.7565 65.1486C46.4844 65.7507 44.2395 66.4506 41.9793 67.0972C41.6435 67.1972 41.2946 67.245 40.9457 67.2743C41.3306 66.7266 41.9444 66.4191 42.5517 66.1811C43.6333 65.7431 44.7683 65.454 45.8553 65.0324C48.5407 64.1238 51.2075 63.1653 53.894 62.2633C55.5992 61.6949 57.2793 61.0559 58.99 60.5027C60.8947 59.8963 62.7536 59.1573 64.6606 58.5531C73.372 55.5221 82.1073 52.5585 90.8176 49.5243C91.4587 49.271 92.1533 49.1569 92.7671 48.8363C93.0549 48.7201 92.9034 48.3516 92.8532 48.1289C92.6275 47.4985 92.428 46.8378 92.0366 46.2857C91.9254 46.1205 91.7041 46.2705 91.558 46.3009C88.0745 47.7463 84.5507 49.095 81.0476 50.4926C75.727 52.6215 70.4042 54.744 65.077 56.8577C63.108 57.6511 61.1193 58.3944 59.1655 59.2258C56.6273 60.1897 54.1186 61.2298 51.5891 62.2187C49.064 63.2012 46.576 64.2803 44.0279 65.1997C44.0072 65.1519 43.9647 65.0552 43.944 65.0074C44.4379 64.377 45.1706 64.0304 45.8989 63.7467C50.9229 61.4863 55.9241 59.1747 60.9438 56.9045C62.359 56.1829 63.8472 55.621 65.2755 54.9266C73.5039 51.1653 81.7421 47.4257 89.9749 43.6731C90.1918 43.559 90.4055 43.4362 90.6127 43.3036C90.2256 42.4831 89.7753 41.6811 89.1746 40.9943C88.2391 41.3703 87.3647 41.8745 86.4696 42.3321C85.4622 42.9004 84.4057 43.3743 83.3928 43.9318C82.5402 44.398 81.6625 44.8153 80.7968 45.2566C76.7856 47.3497 72.7636 49.4199 68.7524 51.513C64.8165 53.5159 60.8969 55.5482 56.9904 57.6065C55.8194 58.1608 54.7008 58.8139 53.5374 59.3823C51.9903 60.1506 50.477 60.9853 48.9266 61.7471C48.1351 62.1307 47.4035 62.6621 46.5302 62.8491C47.0164 61.8253 48.0566 61.2819 48.9953 60.7429C51.3329 59.429 53.6388 58.0619 55.9502 56.7023C63.9028 52.1466 71.7976 47.4931 79.7447 42.9265C81.5622 41.8322 83.4233 40.8106 85.243 39.7195C85.9484 39.3098 86.7018 38.9642 87.3091 38.4078C86.9384 37.8459 86.5034 37.3308 86.0564 36.8298C85.8852 36.6581 85.7118 36.456 85.4665 36.4005C85.3041 36.4603 85.1558 36.5505 85.013 36.6429C83.4669 37.7231 81.8489 38.6958 80.2887 39.7543C74.399 43.5862 68.5583 47.4931 62.6566 51.3066C61.2872 52.2303 59.8938 53.1182 58.5201 54.0354C57.493 54.669 56.5314 55.4004 55.4869 56.0068C53.9659 57.0273 52.4275 58.0227 50.8946 59.0258C50.3571 59.354 49.8675 59.7648 49.281 60.0072C49.6408 58.9617 50.5773 58.2597 51.4648 57.6663C53.2431 56.4469 54.9286 55.0994 56.6829 53.8463C57.8408 53.0052 59.0161 52.1879 60.1544 51.3196C61.0659 50.5936 62.046 49.959 62.9662 49.2428C67.6163 45.8325 72.2849 42.4494 76.9252 39.0261C78.4015 37.9666 79.8679 36.895 81.3158 35.7985C81.9929 35.2659 82.7593 34.8519 83.3906 34.2618C82.9578 33.7141 82.3886 33.3033 81.8511 32.8653C81.6614 32.7218 81.4652 32.5632 81.2242 32.5219C80.884 32.6751 80.6115 32.9359 80.3313 33.1739C79.4405 33.9564 78.4734 34.6465 77.6045 35.454C75.3432 37.333 73.0721 39.2 70.8011 41.0671C68.9443 42.6614 67.0526 44.2143 65.1566 45.7619C63.9431 46.84 62.637 47.8072 61.4202 48.8809C59.5079 50.4534 57.6184 52.0521 55.6929 53.6083C54.7335 54.4669 53.713 55.2537 52.7383 56.0937C52.4657 56.3339 52.1419 56.5067 51.8006 56.6284C52.2673 55.6753 53.109 55.0037 53.8362 54.2604C54.4467 53.6355 55.1271 53.0845 55.7453 52.4683C56.8421 51.387 57.9847 50.3535 59.0739 49.2645C59.5678 48.7777 60.1108 48.344 60.6025 47.8539C61.0757 47.3855 61.5456 46.9128 62.0471 46.4737C62.8583 45.7619 63.5779 44.9523 64.3956 44.247C67.3536 41.4714 70.2679 38.6501 73.2477 35.8984C74.1679 34.9312 75.1884 34.0673 76.1391 33.1294C77.0102 32.3393 77.8879 31.5525 78.6697 30.6733C77.9337 30.1082 77.104 29.6843 76.2852 29.254C75.4293 30.0691 74.6912 30.9961 73.8571 31.8318C70.3104 35.6887 66.7681 39.5489 63.2039 43.3895C62.2477 44.4969 61.1902 45.5109 60.2416 46.6248C59.0052 47.9995 57.7252 49.3341 56.4812 50.7012C55.8707 51.3587 55.2786 52.0379 54.5874 52.6139C54.7335 52.2694 54.8927 51.9271 55.1205 51.6271C61.1106 43.8709 67.1083 36.1201 73.1168 28.3781C73.215 28.24 73.312 28.102 73.4068 27.9618C72.6774 27.5434 71.8695 27.2706 71.0595 27.062C70.704 26.9511 70.5056 27.3272 70.3224 27.5575C69.2125 29.2431 68.1527 30.9602 67.0047 32.6208C64.3324 36.8222 61.5336 40.941 58.8471 45.1327C58.2289 46.0249 57.7198 47.0052 56.9326 47.767C57.2619 46.4226 58.0501 45.2674 58.6433 44.035C59.7477 41.7843 60.9492 39.5847 62.0602 37.3384C63.4983 34.6269 64.8612 31.8785 66.2753 29.154C66.8019 28.1564 67.3448 27.162 67.7613 26.1122C66.9251 25.9285 66.0757 25.6894 65.2155 25.7057C64.8557 25.9676 64.7696 26.4664 64.5908 26.8566C63.6804 29.0801 62.8212 31.3232 61.9359 33.5576C61.5478 34.4563 61.2207 35.3855 60.7355 36.2397C60.8271 34.9812 61.1291 33.7521 61.357 32.5143C61.5445 31.0374 61.8073 29.5659 61.8465 28.0748C61.8661 27.1533 62.0646 26.2274 61.8912 25.3101C61.0462 25.1754 60.1849 25.1471 59.3389 25.2808C59.159 26.5936 59.208 27.9249 59.0336 29.2377C58.5102 34.139 57.3818 38.974 55.6809 43.6025C55.452 44.2122 55.1085 44.7697 54.8534 45.3674C54.4707 46.2662 54.1578 47.1921 53.7511 48.08C52.8288 50.0698 51.7396 51.9782 50.5926 53.8463C49.6942 55.3102 48.6813 56.7002 47.6052 58.0369C47.0361 58.8389 46.371 59.5627 45.7026 60.2799C44.1642 61.9047 42.5615 63.4826 40.7538 64.8107C37.9649 67.0363 34.7899 68.76 31.4438 70.001C30.0232 70.5705 28.535 70.9411 27.0554 71.3182C27.1067 71.641 27.2124 71.9529 27.3705 72.2408C29.1248 71.8963 30.9172 72.0909 32.6911 72.0463C38.0303 72.2061 43.376 72.1278 48.7184 72.1713C54.1153 72.2865 59.5155 72.205 64.9124 72.2691C66.4181 72.3745 67.9271 72.33 69.4338 72.3474C75.7215 72.3354 82.007 72.5038 88.2958 72.4615C89.7437 72.4202 91.1916 72.6636 92.6373 72.4962C93.0069 71.5551 93.4005 70.6074 93.5695 69.6054C92.44 69.5381 91.3094 69.6576 90.1787 69.6457C88.6436 69.7402 87.1052 69.7326 85.5701 69.8271C84.2258 69.8554 82.8782 69.8282 81.536 69.9369C79.6313 69.9869 77.7266 70.0554 75.8207 70.0891C74.4568 70.1999 73.0885 70.1706 71.7223 70.2303C70.4162 70.3086 69.1046 70.2499 67.7995 70.3575C66.5282 70.4216 65.2548 70.4292 63.9824 70.4901C62.1278 70.4836 60.2776 70.5998 58.4252 70.652C56.7898 70.752 55.15 70.6835 53.5167 70.8063C51.8791 70.8433 50.2426 70.9313 48.605 70.9389C46.0733 71.0345 43.5406 71.1367 41.0079 71.1693C39.2187 71.2769 37.4252 71.2845 35.6349 71.3551C34.7147 71.3128 33.7825 71.491 32.8721 71.303C33.643 71.1291 34.4378 71.1345 35.2184 71.0335C36.1419 70.9074 37.0774 70.9335 38.0052 70.8498C39.9328 70.6683 41.8648 70.5444 43.7968 70.4314C45.4693 70.2586 47.1516 70.2184 48.8263 70.0673C50.0278 70.0065 51.2228 69.8695 52.4253 69.8195C53.737 69.7554 55.042 69.6011 56.3547 69.5522C67.5084 68.7556 78.6642 67.9916 89.8179 67.1961C91.3377 67.1287 92.8499 66.944 94.3709 66.9157C94.1997 67.8156 93.9446 68.6947 93.7647 69.5924C93.3657 71.3856 92.5392 73.0353 91.8065 74.7078C91.0771 76.2227 90.278 77.7073 89.3436 79.1081C88.2587 80.6828 87.1281 82.2336 85.8056 83.6203C84.8832 84.7006 83.7406 85.5689 82.8487 86.6752C80.4087 88.7303 77.7168 90.5245 74.773 91.7808C69.9495 94.0119 64.6148 95.1476 59.2952 94.9846C57.5889 95.0118 55.8979 94.7509 54.2112 94.5358C51.9053 94.1108 49.6309 93.5066 47.4373 92.6785C46.0886 92.1384 44.7715 91.5243 43.4632 90.8951C42.0196 90.0366 40.5946 89.1454 39.21 88.1945C38.0008 87.2762 36.7982 86.3351 35.7472 85.2363C32.9048 82.4771 30.4811 79.2711 28.7247 75.7207C28.077 74.4296 27.461 73.1211 26.9388 71.7746C26.5103 70.4064 26.1102 69.0273 25.7624 67.6362C25.6141 66.4712 25.3121 65.3301 25.2238 64.1575C25.1649 63.324 25.0275 62.4969 25.0133 61.6612C25.0111 59.9028 24.9359 58.1368 25.1681 56.3883C25.3164 54.4158 25.7667 52.4824 26.2879 50.5795C27.7423 45.3185 30.4713 40.4161 34.1739 36.3973C35.4866 35.0247 36.8462 33.6858 38.3639 32.5382C42.8352 28.9899 48.2147 26.6012 53.8394 25.6068ZM42.4732 74.8839C41.6173 75.7348 40.8508 76.6716 39.9972 77.5258C39.8598 77.6627 39.609 77.8355 39.4433 77.6431C38.9723 77.2063 38.5427 76.7259 38.1011 76.2586C37.7424 75.8522 37.2725 75.5685 36.8953 75.1805C36.7154 74.9947 36.5028 74.8447 36.2749 74.723C36.2008 75.4001 36.2357 76.0826 36.2324 76.7629C36.2291 78.4636 36.2302 80.1655 36.2695 81.8652C36.4374 83.0509 36.2411 84.2572 36.3796 85.4417C36.7339 85.896 37.2267 86.2144 37.64 86.6122C38.0815 87.0469 38.6485 87.3316 39.0682 87.7913C39.3724 88.1119 39.7311 88.3782 40.1105 88.6064C41.0406 89.1617 41.9204 89.7997 42.881 90.3061C45.9185 92.0493 49.2406 93.2773 52.6532 94.0554C54.6386 94.3565 56.6219 94.8042 58.6411 94.7509C60.0606 94.7466 61.4802 94.7716 62.8987 94.7292C64.4567 94.5303 66.0158 94.3325 67.5585 94.0337C70.9591 93.236 74.2747 92.0199 77.2992 90.2659C79.3511 89.1172 81.2755 87.7468 83.045 86.2014C83.4168 85.8841 83.3317 85.3505 83.3492 84.9179C83.3088 84.0061 83.4277 83.0824 83.251 82.1815C82.9534 82.2901 82.6819 82.4597 82.454 82.6803C81.9067 83.1867 81.3016 83.6269 80.7478 84.1278C80.5253 84.3169 80.2996 84.5256 80.0107 84.606C79.3358 84.3072 78.8725 83.6942 78.2957 83.2508C77.8018 82.8802 77.418 82.3043 76.7802 82.1749C76.609 83.115 76.6941 84.0735 76.6733 85.0223C76.6526 85.545 76.7562 86.0938 76.573 86.597C76.1064 86.7785 75.5918 86.6807 75.1033 86.7002C74.4982 86.6752 73.8789 86.7709 73.2847 86.6263C73.1375 86.4133 73.1713 86.1405 73.1583 85.8971C73.1735 84.3735 73.155 82.8509 73.1702 81.3284C73.1757 80.9578 73.1463 80.5883 73.1027 80.2209C72.4845 80.5068 72.0712 81.0643 71.5621 81.4925C71.0333 81.9445 70.5797 82.4879 69.9833 82.8574C69.2616 82.3956 68.6281 81.813 67.9892 81.2468C67.5629 80.8817 67.2205 80.3687 66.6492 80.2199C66.4781 81.5598 66.5522 82.915 66.5337 84.2615C66.5184 85.0473 66.6024 85.8417 66.4552 86.6198C65.5633 86.7654 64.6573 86.6774 63.7589 86.7002C63.5615 86.6643 63.2257 86.7415 63.181 86.4753C63.1069 86.1047 63.1451 85.7232 63.1418 85.3483C63.1538 83.6453 63.144 81.9424 63.1418 80.2405C63.1429 79.5819 63.1821 78.919 63.072 78.2659C62.4287 78.6951 61.9654 79.3287 61.3559 79.7982C60.8195 80.2144 60.4444 80.8447 59.836 81.1534C59.4119 80.9925 59.1611 80.5622 58.8166 80.284C58.206 79.7689 57.6489 79.195 57.046 78.6745C56.8933 78.5745 56.7353 78.3778 56.5335 78.4582C56.3798 78.8897 56.3929 79.3526 56.3896 79.8036C56.3874 81.6153 56.3755 83.428 56.3842 85.2396C56.3984 85.7015 56.3733 86.1633 56.309 86.622C55.9622 86.6828 55.6112 86.7143 55.259 86.7046C54.5329 86.6861 53.8046 86.735 53.0806 86.6567C53.0523 86.3666 53.0283 86.0742 53.0272 85.783C53.0403 82.8835 53.0217 79.9829 53.0403 77.0824C53.0359 76.8552 52.9999 76.6303 52.9574 76.4086C52.3752 76.8042 52.0023 77.4214 51.4746 77.8801C50.8946 78.4006 50.4258 79.0853 49.6985 79.4124C48.9571 78.9723 48.3902 78.2963 47.7622 77.716C47.2988 77.3128 46.9608 76.7346 46.3601 76.5162C46.299 76.9574 46.2805 77.4041 46.2903 77.8507C46.3077 79.1179 46.2598 80.3861 46.3372 81.6533C46.3655 82.9933 46.3459 84.3343 46.3699 85.6743C46.3644 85.9819 46.3928 86.3068 46.2619 86.5948C45.7953 86.7763 45.2807 86.6807 44.7933 86.6991C44.2318 86.6665 43.6442 86.7882 43.1045 86.5991C42.9442 86.2025 43.0129 85.7645 43.0042 85.3483C43.0183 82.2695 43.0096 79.1896 43.0096 76.1108C43.0042 75.6218 43.0434 75.1316 42.978 74.6458C42.7708 74.5328 42.6215 74.7774 42.4732 74.8839Z" fill="#E7B05D"/>
<path d="M94.871 58.5616C95.0505 59.6354 95.0374 60.7423 94.8644 61.8171C94.7056 62.8069 94.7817 63.8166 94.6512 64.8097C94.6272 64.655 94.6 64.5015 94.5707 64.3479C94.0571 64.3214 93.5425 64.3579 93.0343 64.4319C90.8311 64.7092 88.6191 64.9124 86.4169 65.193C84.1102 65.4051 81.8177 65.7475 79.5121 65.9674C71.5542 66.8622 63.5984 67.7724 55.6416 68.6749C52.8127 69.0052 49.9772 69.2847 47.1527 69.6504C44.8808 69.8359 42.6275 70.1961 40.3578 70.396C38.8237 70.5562 37.3026 70.8279 35.7696 70.9925C35.3779 71.0356 34.9818 71.0334 34.589 71.0146C34.9503 70.5297 35.5857 70.5109 36.1232 70.4037C37.3538 70.2292 38.5735 69.9818 39.8095 69.8437C41.8213 69.5322 43.8287 69.1886 45.8459 68.9135C47.392 68.6705 48.9294 68.3623 50.4875 68.1988C51.7692 68.0165 53.0379 67.7503 54.3196 67.5747C55.931 67.3736 57.525 67.0566 59.132 66.8301C61.4126 66.5098 63.6768 66.0778 65.9617 65.7906C67.3935 65.5377 68.8287 65.288 70.2714 65.1024C71.4138 64.982 72.5324 64.7036 73.6737 64.5689C74.8347 64.3789 76.0065 64.2607 77.162 64.0364C79.3848 63.6575 81.6208 63.3615 83.8426 62.9781C84.7913 62.8091 85.7532 62.7274 86.7019 62.555C88.1686 62.2976 89.644 62.1032 91.1118 61.8547C92.3141 61.6647 93.5229 61.5144 94.7121 61.246C94.9243 60.3667 94.8318 59.4575 94.871 58.5616Z" fill="#E7B05D"/>
</g>
<defs>
<clipPath id="clip0_273_261">
<rect width="120" height="120" fill="white"/>
</clipPath>
</defs>
</svg>
