<svg width="120" height="120" viewBox="0 0 120 120" fill="none" xmlns="http://www.w3.org/2000/svg">
<g clip-path="url(#clip0_273_375)">
<rect width="120" height="120" fill="#C3F743"/>
<path fill-rule="evenodd" clip-rule="evenodd" d="M95.8534 60.39L82.849 60.388C82.3649 62.4985 82.9163 63.6365 81.561 67.8374C80.865 69.9945 79.7681 72.0677 78.6685 73.6931C76.6044 76.7434 73.1375 79.8872 69.1743 81.691C59.2215 86.2206 48.9099 82.7778 43.0781 77.0905C40.2301 74.3129 37.7761 69.9863 36.8133 65.8858C34.5358 56.1853 38.5015 46.9587 46.0937 41.4399C49.7365 38.792 53.9545 37.3938 59.4571 37.1796L59.4618 24.0039C43.3911 23.7661 31.0251 34.4573 26.2107 45.4398C22.9298 52.9244 22.1695 59.9341 23.9016 68.7571C24.6148 72.3914 26.195 75.6934 27.7538 78.5682C30.8777 84.3295 35.9634 89.0274 41.4263 92.2438C52.9595 99.0337 67.6997 98.372 78.8838 91.4186C85.9554 87.0221 91.239 80.2237 94.0185 72.2721C94.8295 69.9524 96.5032 63.0247 95.8534 60.39Z" fill="#222222"/>
<path fill-rule="evenodd" clip-rule="evenodd" d="M57.3983 44.4699C54.7884 44.9542 53.4586 45.2444 51.3432 46.5109C45.9077 49.7659 42.6096 55.8213 43.5245 62.8255C44.5837 70.9339 52.3486 77.8749 61.8282 76.5362C69.9805 75.3851 76.926 67.88 75.5985 58.2387C74.3448 49.1345 65.521 42.9628 57.3983 44.4699Z" fill="#222222"/>
<path fill-rule="evenodd" clip-rule="evenodd" d="M78.4038 30.8714C66.1112 33.3329 69.8296 51.3997 81.7991 49.1067C86.2165 48.2606 90.2423 43.9861 89.2074 38.3864C88.3599 33.8015 84.0112 29.7486 78.4038 30.8714Z" fill="#222222"/>
</g>
<defs>
<clipPath id="clip0_273_375">
<rect width="120" height="120" fill="white"/>
</clipPath>
</defs>
</svg>
