<svg width="120" height="120" viewBox="0 0 120 120" fill="none" xmlns="http://www.w3.org/2000/svg">
<rect width="120" height="120" fill="#20D9BC"/>
<path fill-rule="evenodd" clip-rule="evenodd" d="M77.0973 44.0965C74.0412 44.6335 73.1588 46.974 71.603 49.2634C71.0986 50.0055 70.7154 50.6447 70.1925 51.4003C68.3158 54.1113 66.3926 57.271 64.5502 60.0477C63.3695 61.8275 59.6535 67.0928 59.1872 68.8682C58.1188 72.9356 61.7939 76.6299 65.892 75.9095C67.8486 75.5656 69.0344 74.462 70.0044 72.9327C70.9292 71.4745 71.881 70.0906 72.7977 68.6409L77.7397 61.1261C78.0239 60.709 78.1648 60.3852 78.4425 60.0053L81.2445 55.7158C82.0084 54.5513 83.4636 52.7135 83.8261 51.2034C84.832 47.011 81.3285 43.3531 77.0971 44.0967L77.0973 44.0965Z" fill="white"/>
<path fill-rule="evenodd" clip-rule="evenodd" d="M32.8879 44.132C31.2259 44.474 30.3057 45.1601 29.4078 46.1269C28.4954 47.1098 28.0701 48.6311 28.0671 50.3471C28.0608 53.9632 28.0676 57.5798 28.0676 61.1961C28.0676 62.2157 28.0162 64.0097 28 65.8634V67.7975C28.0187 69.5309 28.0981 71.0896 28.3152 71.8428C30.0634 77.9106 39.9059 77.4357 39.9253 69.761C39.9341 66.145 39.9241 62.5278 39.9241 58.912C39.9241 56.6317 40.1997 50.011 39.7005 48.2557C38.9819 45.7293 36.366 43.4165 32.8879 44.1318V44.132Z" fill="#2B2A29"/>
<path fill-rule="evenodd" clip-rule="evenodd" d="M53.8726 56.0382C54.2845 55.3842 54.7383 55.2668 55.3671 53.8454C56.7553 50.7083 55.6944 48.0259 53.7866 45.8854C52.8037 45.1287 52.0367 44.4762 50.3925 44.141C48.8544 43.8279 47.2621 44.0501 45.9888 44.6697C38.5037 48.3119 42.445 59.5078 50.4479 57.8298C52.5689 57.3851 53.4281 56.2563 53.8726 56.038V56.0382Z" fill="#2B2A29"/>
<path fill-rule="evenodd" clip-rule="evenodd" d="M84.3589 62.0384C79.274 62.5319 76.4925 67.844 78.8478 72.3551C79.4524 73.5131 80.2707 74.3658 81.4236 75.0384C83.4933 76.2462 86.3553 76.3499 88.3655 75.1577C88.7102 74.9534 89.1442 74.6654 89.3972 74.4758C89.6611 74.2781 90.0933 73.7878 90.3162 73.5604C91.3983 72.4568 92.174 70.4006 91.9662 68.2617C91.6907 65.4229 89.8194 63.2554 87.3227 62.3806C86.3277 62.0317 85.4075 61.9369 84.3587 62.0384H84.3589Z" fill="white"/>
<path fill-rule="evenodd" clip-rule="evenodd" d="M54 45.8896C55.9153 48.032 56.9806 50.7166 55.5869 53.8564C54.9555 55.2789 54.5 55.3966 54.0863 56.0512C54.9602 56.739 55.9586 57.5284 57.4823 57.8454C59.484 58.2615 61.5342 57.8258 63.1055 56.6819C64.8595 55.4048 66.0029 53.3641 66 51.0204C65.998 49.5271 65.5417 48.061 64.8189 47.0729C63.1044 44.7295 60.6838 43.5661 57.5381 44.1484C56.7388 44.2962 56.206 44.5646 55.6288 44.8713L54.469 45.6605C54.0761 45.9652 54.4794 45.8375 54.0002 45.8896H54Z" fill="white"/>
</svg>
