<svg width="120" height="120" viewBox="0 0 120 120" fill="none" xmlns="http://www.w3.org/2000/svg">
<rect width="120" height="120" fill="#31745F"/>
<path fill-rule="evenodd" clip-rule="evenodd" d="M25.1703 76.9435L44.0695 76.9436C43.683 74.1044 43.1638 71.5112 42.8884 68.5552C40.2526 48.1269 48.8413 34.4142 69.7431 34.5117C58.9236 32.0035 46.1769 32.0804 37.0069 38.9047C33.8647 41.243 31.5579 44.1375 29.6068 47.5088C24.463 56.3963 24.8381 67.0268 25.1703 76.9435Z" fill="white"/>
<path fill-rule="evenodd" clip-rule="evenodd" d="M58.0783 38.0563C54.9326 39.4451 52.6824 41.2428 50.6442 43.862C49.4067 45.4522 48.3407 47.3757 47.5307 49.577C47.0123 50.9862 45.8001 55.2343 45.9457 56.812C45.9637 56.1534 47.9248 52.1079 48.2873 51.3614C50.5831 46.6336 55.4564 41.024 61.9585 41.3183C68.2428 41.6027 72.985 47.0912 74.5368 52.4555C75.302 55.1008 75.3558 56.5079 75.2592 59.6811L93.7949 59.6814C93.9713 50.3149 88.4752 44.0262 81.6028 40.1092C77.4669 37.752 72.524 36.466 67.7916 36.2995C64.7713 36.193 60.887 36.8163 58.0783 38.0563Z" fill="white"/>
<path fill-rule="evenodd" clip-rule="evenodd" d="M65.9555 69.3654C65.8408 76.698 66.6898 75.7703 64.0219 75.9935L64.0227 76.7147C66.1771 76.904 74.0119 76.9724 75.8355 76.3574C79.3871 75.1599 79.6634 70.7446 75.8457 69.5697L74.1553 69.2791C74.7521 68.9084 77.3954 69.0274 77.993 67.0084C78.5284 65.1993 76.9944 63.8065 75.741 63.3812C74.2478 62.8744 70.1294 62.9988 70.1294 62.9988L64.0258 63.057L64.0267 63.8343C65.9623 63.9765 65.9616 63.5844 65.9589 65.7086C65.9573 66.922 65.9828 68.1548 65.9555 69.3654ZM69.4353 75.4096C70.3573 76.0268 71.4212 76.2532 72.7319 75.8118C73.7774 75.4596 74.417 74.4856 74.5569 73.2184C74.9527 69.6321 72.4588 69.517 69.483 69.5668L69.4353 75.4096ZM69.4418 64.5775L69.4404 68.7233C70.3549 68.7593 72.286 68.859 73.0308 68.5009C73.7696 68.1457 74.4181 67.1704 74.2198 65.9301C74.0624 64.945 73.3342 64.1481 72.3897 63.9679C71.5624 63.8102 69.7914 63.8218 69.4418 64.5775Z" fill="white"/>
<path fill-rule="evenodd" clip-rule="evenodd" d="M49.9254 72.7509C49.1918 74.176 48.5639 75.587 46.8508 75.9364L46.5441 79.9997L47.5979 79.9903C47.8525 75.7343 61.5038 75.4142 61.5041 80L62.5253 79.9819L62.5251 75.9471C61.4937 75.8076 60.5025 75.6305 60.5025 75.6305C60.3015 73.1532 60.3575 71.0612 60.3581 68.5876C60.3599 62.7966 60.0684 64.0755 62.2294 63.8242L62.2298 63.0396L49.8237 63.0387L49.824 63.8535C50.5766 63.8537 51.4109 63.8245 52.056 64.0183C52.5573 66.1796 50.8898 70.8775 49.9254 72.7509ZM49.8712 75.7042L56.7631 75.7197L56.7159 63.9822C56.7159 63.9822 55.0891 63.9043 54.476 63.9258C53.6005 63.9566 53.3307 64.2092 53.1679 65.0015C52.7927 66.828 51.6827 70.6012 50.9904 72.2788C50.676 73.0403 49.9061 75.1355 49.8712 75.7042Z" fill="white"/>
<path fill-rule="evenodd" clip-rule="evenodd" d="M82.3509 69.5709C82.2464 76.0985 83.0864 75.9706 80.475 75.971V76.7383C82.3902 76.7364 84.3055 76.74 86.2206 76.7379C88.6927 76.7351 93.5894 77.3346 94.7234 73.7339C96.5056 68.0747 89.2237 68.1795 85.8245 68.3215L85.8713 64.2638C85.8713 64.2638 89.0013 64.0403 89.9309 64.2482C91.9973 64.7106 92.6881 64.9352 92.6888 66.3755L93.6462 66.3853L93.5574 63.0395L80.478 63.0382V63.8537C82.4877 63.852 82.3553 63.8073 82.3546 65.8111C82.3542 67.0571 82.3812 68.3285 82.3509 69.5709ZM85.8451 69.1358L85.8319 75.4733C87.6965 76.5826 90.715 76.3573 90.8857 72.8055C90.9604 71.2501 90.5989 70.2055 89.6123 69.6051C88.743 69.0762 87.0072 68.8274 85.8451 69.1358Z" fill="white"/>
</svg>
