<svg width="120" height="120" viewBox="0 0 120 120" fill="none" xmlns="http://www.w3.org/2000/svg">
<rect width="120" height="120" fill="#1C478B"/>
<path fill-rule="evenodd" clip-rule="evenodd" d="M29.0374 40.881C29.1227 42.7071 29.013 44.8686 29.013 46.7427V82.0287C29.013 83.9659 29.0999 86.0853 29 88L79.2967 87.9799C81.5576 88.1415 84.7195 86.6346 86.0228 85.7138C87.5764 84.6163 89.0913 82.9541 90.0187 80.8575C91.1073 78.3961 90.9518 76.0528 90.9518 73.186V47.3379C90.9518 41.7739 91.6887 37.5358 87.3998 33.4383C83.2281 29.4529 78.478 30.0289 72.7269 30.029L45.1033 30.0289C42.0083 30.0289 39.4721 29.8327 36.7696 30.8628C34.4359 31.7524 32.6662 33.1726 31.5478 34.5698C30.5471 35.82 28.8491 38.7212 29.0374 40.881Z" fill="white"/>
<path fill-rule="evenodd" clip-rule="evenodd" d="M39.7358 51.7146C39.7306 51.7257 39.6836 51.7284 39.4746 51.74L38.0617 51.7426L38.0599 56.5669L40.854 56.5691L40.8581 54.3525L47.016 54.3001L47.0611 56.5364L49.7404 56.5699L49.7437 51.7427L48.1032 51.7333L48.0255 45.2407L41.0068 45.2274L39.7358 51.7146ZM42.6957 51.7003L45.3147 51.6992L45.3113 47.8577L43.4609 47.866L42.6957 51.7003Z" fill="#1C478B"/>
<path fill-rule="evenodd" clip-rule="evenodd" d="M40.8691 65.4189C40.8585 64.1767 41.5717 63.3623 42.5236 63.0151C43.7248 62.5768 45.0146 62.6569 46.3313 62.5832L46.3464 60.0373C44.625 59.9403 42.5623 60.2158 41.2113 60.8388C38.0176 62.3118 37.5872 66.3125 38.2893 69.2067C39.6699 74.8971 47.8353 73.8989 47.5844 68.1232C47.5055 66.3065 46.5064 65.037 45.2597 64.4875C43.353 63.6472 41.8428 64.3441 40.8691 65.4189ZM42.3474 66.5605C39.9463 67.148 40.6752 71.1524 43.3456 70.5019C45.5865 69.9559 45.0294 65.9043 42.3474 66.5605Z" fill="#1C478B"/>
<path fill-rule="evenodd" clip-rule="evenodd" d="M77.5332 53.4717L77.5416 54.3772L80.3077 54.3886L80.3788 45.2305L77.5404 45.2302L77.5281 46.1541C77.1363 45.9659 76.7719 45.2516 75.5297 45.0551C70.6951 44.2908 69.1427 51.6897 72.8648 54.0034C73.9013 54.6477 75.3958 54.8696 76.5896 54.2005C77.039 53.9485 77.1628 53.6998 77.5332 53.4717ZM75.0256 47.8065C72.6767 48.5607 73.6309 52.657 76.273 51.7518C78.4667 51.0001 77.6483 46.9646 75.0256 47.8065Z" fill="#1C478B"/>
<path fill-rule="evenodd" clip-rule="evenodd" d="M57.3325 53.4679L57.3401 54.3762L60.1665 54.3848L60.18 45.2721L57.3422 45.2275L57.3275 46.154C56.9968 45.9778 56.8792 45.7014 56.4594 45.4619C55.236 44.764 53.7662 44.9268 52.6958 45.5855C51.5358 46.2994 50.6509 47.8091 50.6445 49.7766C50.6319 53.6809 53.9902 55.5203 56.3848 54.1989C56.8429 53.9462 56.9426 53.7136 57.3325 53.4679ZM54.8202 47.8037C53.6174 48.2185 53.3192 49.3842 53.5747 50.4419C53.8022 51.3828 54.7919 52.1813 56.069 51.7466C58.3221 50.9796 57.3635 46.9264 54.8202 47.8037Z" fill="#1C478B"/>
<path fill-rule="evenodd" clip-rule="evenodd" d="M55.7918 71.8561L55.8139 72.7438L58.6526 72.7684L58.658 63.8229L55.9216 63.8178L55.847 64.7362C55.4465 64.5223 55.1364 63.8945 53.9047 63.6643C49.1727 62.7795 47.3765 69.948 51.104 72.3668C51.7707 72.7993 52.6896 73.0744 53.7023 72.9519C54.9194 72.8046 55.1609 72.2935 55.7918 71.8561ZM53.41 66.2989C51.008 66.8728 51.7424 70.9478 54.475 70.2299C56.7499 69.6322 56.1002 65.6564 53.41 66.2989Z" fill="#1C478B"/>
<path fill-rule="evenodd" clip-rule="evenodd" d="M66.7651 66.9173L63.3054 66.9258V63.8233L60.5089 63.8211L60.5077 72.7487L63.2951 72.7705L63.3064 69.5188L66.771 69.5034L66.7695 72.7371L69.558 72.7705C69.6005 71.7364 69.6576 64.2733 69.5062 63.8211L66.8084 63.8196L66.7651 66.9173Z" fill="#1C478B"/>
<path fill-rule="evenodd" clip-rule="evenodd" d="M71.418 64.3838C71.418 66.9474 71.3423 70.2962 71.4313 72.7651L74.2526 72.7587L74.2646 69.1674C74.4917 69.2826 76.4022 71.4951 76.8489 71.9958C77.1957 72.3845 77.2437 72.7701 77.979 72.7702L81 72.7678C80.7404 72.2925 77.4488 68.6613 76.9987 68.1365C77.1276 67.8382 78.5947 66.2666 78.8807 65.9836L80.2844 64.4233C80.5636 64.1361 80.6004 64.178 80.7871 63.8381L77.2364 63.8184C77.0697 64.1395 74.5456 67.1144 74.2646 67.2642L74.2617 63.8352L71.4204 63.8189L71.418 64.3838Z" fill="#1C478B"/>
<path fill-rule="evenodd" clip-rule="evenodd" d="M61.4751 47.851L64.1449 47.8649L64.173 54.3306L66.9452 54.3333L66.9618 47.8777L69.6567 47.8561L69.6553 45.2396L61.4896 45.2275L61.4751 47.851Z" fill="#1C478B"/>
</svg>
