<svg width="120" height="120" viewBox="0 0 120 120" fill="none" xmlns="http://www.w3.org/2000/svg">
<g clip-path="url(#clip0_273_875)">
<rect width="120" height="120" fill="url(#paint0_linear_273_875)"/>
<path fill-rule="evenodd" clip-rule="evenodd" d="M39.3824 48.0862L29 48.0869C29 63.3357 35.7247 70.9405 48.2272 77.7897L48.2289 87.9992C60.7611 88.0918 72.7681 80.0824 77.9615 68.8679L88 68.8308C88 68.8308 88.018 62.9214 86.6253 58.3668C82.5579 45.066 69.2285 39.243 69.1879 39.0746V29C59.7343 29 46.1043 35.6932 41.4109 43.9343C40.7243 45.1398 40.0739 46.8963 39.3824 48.0862ZM47.4447 47.1428L47.1583 47.9439L58.4412 48.0345L58.4627 54.5591C57.2891 54.86 39.6414 54.6683 36.8699 54.6645L37.1 55.8581C37.2202 58.3492 40.0339 63.0079 41.1739 64.4662C42.6369 66.3378 45.8342 69.4884 48.3844 70.2341V59.0953H54.9468L55.0537 80.3468C59.9227 79.4001 69.8407 74.2466 70.6121 68.8813L59.5273 68.8681L59.4229 62.415L80.9543 62.4129C80.3696 57.5075 74.5485 47.8759 69.3587 46.7064L69.3158 58.3916L62.9068 58.3915L62.8625 36.5465C60.0861 36.5805 55.3966 39.1402 53.6265 40.3546C50.6734 42.3808 49.1278 44.2765 47.4447 47.1428Z" fill="white"/>
</g>
<defs>
<linearGradient id="paint0_linear_273_875" x1="8.5" y1="-1.56661e-06" x2="60" y2="120" gradientUnits="userSpaceOnUse">
<stop stop-color="#4D965B"/>
<stop offset="1" stop-color="#66CA71"/>
</linearGradient>
<clipPath id="clip0_273_875">
<rect width="120" height="120" fill="white"/>
</clipPath>
</defs>
</svg>
