<svg width="120" height="120" viewBox="0 0 120 120" fill="none" xmlns="http://www.w3.org/2000/svg">
<rect width="120" height="120" fill="#CFF0FF"/>
<path fill-rule="evenodd" clip-rule="evenodd" d="M98.1475 57.4884L99.9572 67.2639L82.3359 60.6792V51.1066L98.1475 57.4884Z" fill="#012284" fill-opacity="0.941176"/>
<path fill-rule="evenodd" clip-rule="evenodd" d="M81.5743 61.8347L95.4809 80.5514L86.2417 89.6479L71.573 67.6331L81.5743 61.8347Z" fill="#00AAFA" fill-opacity="0.858824"/>
<path fill-rule="evenodd" clip-rule="evenodd" d="M47.212 44.7551L53.6533 36.474L36.3891 28.2587L27.9595 34.9976L47.212 44.7551Z" fill="#00AAFA" fill-opacity="0.858824"/>
<path fill-rule="evenodd" clip-rule="evenodd" d="M20.0427 48.9759V64.5494L48.856 58.7867L45.2364 45.9756L20.0427 48.9759Z" fill="#012284" fill-opacity="0.941176"/>
<path fill-rule="evenodd" clip-rule="evenodd" d="M27.6628 70.5027L39.9502 84.5998L59.5241 65.4068L48.8561 54.4054L27.6628 70.5027Z" fill="#00AAFA" fill-opacity="0.858824"/>
<path fill-rule="evenodd" clip-rule="evenodd" d="M65.8106 64.5494L54.8568 59.0724L44.3496 77.9781L58.5039 85.3615L65.8106 64.5494Z" fill="#C50083" fill-opacity="0.858824"/>
<path fill-rule="evenodd" clip-rule="evenodd" d="M60.9529 67.2642L62.6674 96.6013L80.4792 94.0295L75.2405 67.2642H60.9529Z" fill="#012284" fill-opacity="0.941176"/>
<path fill-rule="evenodd" clip-rule="evenodd" d="M79.0027 44.5344L83.527 52.3512H96.6235L91.1466 44.0105L79.0027 44.5344Z" fill="#00AAFA" fill-opacity="0.858824"/>
<path fill-rule="evenodd" clip-rule="evenodd" d="M74.2397 41.5817L82.4789 38.8195L87.8132 44.6059L78.6689 48.1811L74.2397 41.5817Z" fill="#C50083" fill-opacity="0.858824"/>
<path fill-rule="evenodd" clip-rule="evenodd" d="M82.1215 35.1523L77.6446 42.7247L68.3577 36.3429L74.2395 30.0088L82.1215 35.1523Z" fill="#012284" fill-opacity="0.941176"/>
<path fill-rule="evenodd" clip-rule="evenodd" d="M63.0715 26.1035L61.9285 35.3904L71.3496 37.4782L72.1679 28.444L63.0715 26.1035Z" fill="#00AAFA" fill-opacity="0.858824"/>
<path fill-rule="evenodd" clip-rule="evenodd" d="M54.9272 27.2941L57.6419 37.4781H66.024L62.4521 27.2941H54.9272Z" fill="#C50083" fill-opacity="0.858824"/>
<path fill-rule="evenodd" clip-rule="evenodd" d="M40.2971 25.2564L50.2985 37.6788L59.3517 34.829L49.8243 23.399L40.2971 25.2564Z" fill="#012284" fill-opacity="0.941176"/>
<path fill-rule="evenodd" clip-rule="evenodd" d="M49.9745 32.3862L44.4976 35.3906L53.8797 43.5344L59.4043 39.7721L49.9745 32.3862Z" fill="#80BD01" fill-opacity="0.858824"/>
<path fill-rule="evenodd" clip-rule="evenodd" d="M34.0309 37.478L29.9114 45.9756L49.5806 50.2614L51.5095 41.8554L34.0309 37.478Z" fill="#C50083" fill-opacity="0.858824"/>
<path fill-rule="evenodd" clip-rule="evenodd" d="M72.2629 43.5L74.2395 36.3666L68.8815 33.39L65.5001 39.3432L72.2629 43.5Z" fill="#80BD01" fill-opacity="0.858824"/>
<path fill-rule="evenodd" clip-rule="evenodd" d="M76.3828 48.4398L77.3353 55.1073L87.8605 56.263L86.8127 50.0591L76.3828 48.4398Z" fill="#80BD01" fill-opacity="0.858824"/>
<path fill-rule="evenodd" clip-rule="evenodd" d="M65.8107 60.6441L70.716 75.3602L79.0029 73.2647L73.9546 59.0724L65.8107 60.6441Z" fill="#80BD01" fill-opacity="0.858824"/>
<path fill-rule="evenodd" clip-rule="evenodd" d="M53.2853 49.4048L39.2834 54.5959L43.665 63.1208L58.5038 56.8819L53.2853 49.4048Z" fill="#80BD01" fill-opacity="0.858824"/>
<path fill-rule="evenodd" clip-rule="evenodd" d="M80.4789 56.2628L75.7159 61.8347L89.9559 75.3603L93.7659 66.4658L80.4789 56.2628Z" fill="#C50083" fill-opacity="0.858824"/>
</svg>
