<svg width="120" height="120" viewBox="0 0 120 120" fill="none" xmlns="http://www.w3.org/2000/svg">
<g clip-path="url(#clip0_273_866)">
<rect width="120" height="120" fill="#F0E5DF"/>
<path fill-rule="evenodd" clip-rule="evenodd" d="M39.3275 71.7344C39.3275 71.7343 39.3275 71.7342 38.3159 71.8657C37.3043 71.9972 37.3042 71.9969 37.3042 71.9966L37.3037 71.9919L37.3023 71.9794L37.2975 71.9334C37.2934 71.8936 37.2875 71.8356 37.2802 71.7606C37.2656 71.6107 37.2454 71.3928 37.2225 71.1167C37.1767 70.5646 37.1198 69.7785 37.075 68.8361C36.9857 66.9559 36.9435 64.4323 37.1385 61.895C37.3318 59.3802 37.765 56.7466 38.6821 54.7082C39.6127 52.6396 41.1446 51 43.5194 51C45.8951 51 47.4237 52.6409 48.3491 54.7107C49.2606 56.7497 49.6862 59.3837 49.8723 61.8984C50.06 64.4357 50.0106 66.9593 49.9159 68.8395C49.8684 69.7819 49.8093 70.568 49.7619 71.1201C49.7381 71.3962 49.7173 71.6141 49.7023 71.764C49.6948 71.839 49.6887 71.897 49.6845 71.9368L49.6795 71.9828L49.6782 71.9953L49.6776 72C49.6776 72.0003 49.6776 72.0006 48.6664 71.8657C47.6551 71.7308 47.6551 71.7309 47.6551 71.731L47.6553 71.7289L47.6563 71.72L47.6605 71.6812C47.6642 71.6463 47.6698 71.5934 47.6767 71.5237C47.6907 71.3842 47.7105 71.1776 47.7331 70.9135C47.7785 70.3852 47.8355 69.6278 47.8814 68.718C47.9732 66.8938 48.019 64.4783 47.8413 62.0765C47.6619 59.6521 47.2615 57.347 46.517 55.6816C45.7863 54.0471 44.8289 53.2184 43.5194 53.2184C42.209 53.2184 41.2478 54.0484 40.5119 55.6841C39.7623 57.3501 39.3553 59.6556 39.169 62.08C38.9844 64.4818 39.0232 66.8973 39.1099 68.7215C39.1531 69.6312 39.2079 70.3886 39.2518 70.9169C39.2737 71.181 39.2929 71.3876 39.3065 71.5271C39.3132 71.5968 39.3186 71.6497 39.3222 71.6846L39.3263 71.7234L39.3273 71.7323L39.3275 71.7344Z" fill="#2D6BAE"/>
<path fill-rule="evenodd" clip-rule="evenodd" d="M54.5065 71.7344C54.5065 71.7343 54.5065 71.7342 53.4171 71.8657C52.3277 71.9972 52.3276 71.9969 52.3276 71.9966L52.3271 71.9919L52.3256 71.9794L52.3204 71.9334C52.316 71.8936 52.3096 71.8356 52.3018 71.7606C52.2861 71.6107 52.2643 71.3928 52.2396 71.1167C52.1903 70.5646 52.129 69.7785 52.0808 68.836C51.9846 66.9559 51.9392 64.4323 52.1492 61.895C52.3573 59.3802 52.8238 56.7466 53.8114 54.7082C54.8137 52.6396 56.4635 51 59.0209 51C61.5794 51 63.2256 52.6409 64.2221 54.7107C65.2037 56.7497 65.6621 59.3837 65.8625 61.8984C66.0646 64.4357 66.0114 66.9593 65.9094 68.8395C65.8583 69.7819 65.7946 70.568 65.7435 71.1201C65.718 71.3962 65.6956 71.6141 65.6794 71.764C65.6713 71.839 65.6648 71.897 65.6602 71.9368L65.6549 71.9828L65.6534 71.9953L65.6529 72C65.6528 72.0003 65.6528 72.0006 64.5638 71.8657C63.4748 71.7308 63.4747 71.7309 63.4747 71.731L63.475 71.7289L63.476 71.72L63.4805 71.6812C63.4845 71.6463 63.4905 71.5934 63.498 71.5236C63.5131 71.3842 63.5343 71.1776 63.5588 70.9135C63.6076 70.3852 63.669 69.6278 63.7184 68.718C63.8173 66.8938 63.8666 64.4783 63.6752 62.0765C63.4821 59.6521 63.0508 57.347 62.2491 55.6816C61.4622 54.0471 60.4311 53.2184 59.0209 53.2184C57.6097 53.2184 56.5746 54.0484 55.782 55.6841C54.9748 57.3501 54.5365 59.6556 54.3358 62.08C54.137 64.4818 54.1789 66.8973 54.2722 68.7215C54.3187 69.6312 54.3778 70.3886 54.425 70.9169C54.4486 71.181 54.4693 71.3876 54.4839 71.5271C54.4912 71.5968 54.497 71.6497 54.5009 71.6846L54.5053 71.7234L54.5063 71.7323L54.5065 71.7344Z" fill="#168047"/>
<path fill-rule="evenodd" clip-rule="evenodd" d="M69.3275 71.7344C69.3275 71.7343 69.3275 71.7342 68.3159 71.8657C67.3043 71.9972 67.3042 71.9969 67.3042 71.9966L67.3037 71.9919L67.3023 71.9794L67.2975 71.9334C67.2934 71.8936 67.2875 71.8356 67.2802 71.7606C67.2656 71.6107 67.2454 71.3928 67.2225 71.1167C67.1767 70.5646 67.1198 69.7785 67.075 68.836C66.9857 66.9559 66.9435 64.4323 67.1385 61.895C67.3318 59.3802 67.765 56.7466 68.6821 54.7082C69.6127 52.6396 71.1446 51 73.5194 51C75.8951 51 77.4237 52.6409 78.3491 54.7107C79.2606 56.7497 79.6862 59.3837 79.8723 61.8984C80.06 64.4357 80.0106 66.9593 79.9159 68.8395C79.8684 69.7819 79.8093 70.568 79.7619 71.1201C79.7381 71.3962 79.7173 71.6141 79.7023 71.764C79.6948 71.839 79.6887 71.897 79.6845 71.9368L79.6795 71.9828L79.6782 71.9953L79.6776 72C79.6776 72.0003 79.6776 72.0006 78.6664 71.8657C77.6551 71.7308 77.6551 71.7309 77.6551 71.731L77.6553 71.7289L77.6563 71.72L77.6605 71.6812C77.6642 71.6463 77.6698 71.5934 77.6767 71.5236C77.6907 71.3842 77.7105 71.1776 77.7331 70.9135C77.7785 70.3852 77.8355 69.6278 77.8814 68.718C77.9732 66.8938 78.019 64.4783 77.8413 62.0765C77.6619 59.6521 77.2615 57.347 76.517 55.6816C75.7863 54.0471 74.8289 53.2184 73.5194 53.2184C72.209 53.2184 71.2478 54.0484 70.5119 55.6841C69.7623 57.3501 69.3553 59.6556 69.169 62.08C68.9844 64.4818 69.0232 66.8973 69.1099 68.7215C69.1531 69.6312 69.2079 70.3886 69.2518 70.9169C69.2737 71.181 69.2929 71.3876 69.3065 71.5271C69.3132 71.5968 69.3186 71.6497 69.3222 71.6846L69.3263 71.7234L69.3273 71.7323L69.3275 71.7344Z" fill="#EE681A"/>
<path d="M79 47H38V49H79V47Z" fill="#E8BB16"/>
<path fill-rule="evenodd" clip-rule="evenodd" d="M31 32H87V88H31V32ZM33.9689 34.9689H84.0311V85.0311H33.9689V34.9689Z" fill="#F06D1C"/>
</g>
<defs>
<clipPath id="clip0_273_866">
<rect width="120" height="120" fill="white"/>
</clipPath>
</defs>
</svg>
