<svg width="120" height="120" viewBox="0 0 120 120" fill="none" xmlns="http://www.w3.org/2000/svg">
<g clip-path="url(#clip0_273_141)">
<rect width="120" height="120" fill="#C12240"/>
<path fill-rule="evenodd" clip-rule="evenodd" d="M41.8604 55.8427C42.0967 55.6752 41.6917 55.8124 42.3304 55.5726C43.7762 55.0297 47.3592 54.9373 49.1966 56.67C50.196 57.6124 50.6176 57.7314 52.1902 58.3277C53.7928 58.9353 53.0866 59.691 55.0529 59.8993C56.068 63.2269 55.3709 68.5845 56.2003 72.3385L64.3065 72.7071C64.2992 69.1639 63.6964 63.3769 64.7393 60.2163C65.3294 58.4274 69.6671 55.4024 72.5221 55.4335C72.7425 55.2687 72.5426 55.3171 72.9547 55.1872C73.0706 55.1507 73.4522 55.0958 73.5834 55.08L77.2857 55.2204C78.6183 55.4516 80.0124 55.9393 81.0548 56.532C82.9346 57.6006 86.8812 61.3742 85.1234 62.6981C83.8799 64.7257 80.1147 66.2974 76.4819 66.3454C71.6978 66.4089 70.1959 65.1227 67.0264 63.4209C67.0677 66.0116 66.6794 68.0099 66.6657 70.3714C66.6528 72.6041 67.9805 74.7394 67.2224 76.4104C65.7852 79.5786 60.9337 80.3442 61.1246 84.8199C62.7892 86.0367 62.8592 86.5131 65.8013 86.0297C70.1773 85.3109 70.0938 84.7395 71.8974 83.4768C73.9948 82.0086 72.4898 78.7106 75.1653 78.1261L75.8091 78.2953C76.2155 79.7134 75.6632 80.2755 75.4651 81.7359L75.0446 81.9983L74.8824 81.9636C74.4463 82.6592 74.1752 83.7386 73.6481 84.5556C73.1528 85.3236 72.4343 85.921 71.8208 86.4969C70.7578 87.4948 68.4659 88.6789 66.4858 89.0207C62.7684 89.254 61.4892 88.9216 59.4042 86.7566C57.7791 87.419 56.9745 88.2466 54.5113 88.4325C49.1163 88.8395 43.1894 84.5729 42.5544 80.9748C42.8942 80.5356 43.7323 79.6811 44.6235 80.0035C45.5753 80.3478 45.3616 82.0801 48.8431 85.08C51.5937 87.45 56.2469 84.531 58.6506 83.9372C57.9831 80.4256 54.4726 77.8874 53.5578 75.7339C53.085 74.6208 53.8354 66.0639 52.7504 63.6752C48.4153 64.6707 52.4305 66.5744 41.6844 65.8394C37.5303 65.5554 34.8157 63.591 32.8443 61.5301C33.5799 59.4046 38.7228 55.9712 41.8604 55.8427ZM82.4943 29.27C80.1952 34.2325 77.6976 38.42 73.26 40.492L73.2363 40.6019C72.7982 42.399 74.0256 39.1053 73.2363 40.6019C66.72 41.336 54.9809 43.2074 44.0799 40.5946L43.6293 40.1185C43.3921 39.8759 43.5617 40.1262 43.274 39.762C40.7433 39.0935 38.9676 34.8576 37.6992 32.5964C36.8111 33.3341 35.8113 36.415 35.429 37.4537C34.7541 39.2883 34.1836 40.9721 33.5069 42.8324C32.0358 46.8759 30.5901 48.8229 29.8601 53.6041C28.5089 62.4552 29.7303 70.8226 32.8691 78.4652C34.2375 81.7972 36.158 84.72 38.4485 87.264C39.7609 88.7215 40.7715 88.9803 42.9779 89.8231C51.4016 93.0408 58.6711 93.09 67.3268 90.6383C69.3529 90.0645 71.0267 89.2719 72.9329 88.6543L75.5776 87.1881C75.7449 87.0128 75.8559 86.8718 76.1795 86.6322C76.4842 86.4067 76.5212 86.4281 76.8249 86.1737C77.4043 85.6882 77.6493 85.4995 78.1603 85.0726L82.5722 80.1898C82.9946 79.6566 83.2188 79.3553 83.6192 78.8046L84.3396 77.7452C84.5294 77.5173 84.5464 77.5306 84.7308 77.3608C84.9401 76.8335 86.1364 74.1959 86.4018 73.7763C88.2789 65.8541 89.5573 58.6243 88.1001 49.959C87.4985 46.3816 86.2514 42.9178 85.5242 39.2573C85.0673 36.9564 83.9253 30.0816 82.9148 28.621L82.4943 29.27Z" fill="#FFFDFD"/>
<path fill-rule="evenodd" clip-rule="evenodd" d="M50.3018 93.7643C49.4799 93.6962 48.7615 93.5355 48.0125 93.4721C46.8081 93.3701 46.7968 93.7179 46.2147 92.9789C43.5481 92.8308 39.9988 91.4376 37.6301 90.2915C36.6318 89.8083 36.1624 89.2666 35.4914 88.9022C35.5417 90.3129 35.6378 91.7258 35.7396 93.1365C35.9076 95.4663 36.0507 121.61 36.8154 123H113.293C114.351 122.21 92.1897 92.1691 93.1381 91.533C92.8358 89.2529 90.3889 87.3494 89.5246 85.6594C88.7949 84.2326 88.1739 82.373 87.7524 80.7609C87.2365 78.6917 87.7486 78.9125 86.5457 77.1182C85.6539 77.9993 86.3446 76.6838 85.2858 79.1395C80.1655 91.0133 62.7993 94.9945 50.3018 93.7643Z" fill="#E46400"/>
<path fill-rule="evenodd" clip-rule="evenodd" d="M61.7125 78.137C61.2383 78.7313 60.2072 80.2222 59.6261 80.5501C58.2134 79.8439 57.1575 77.5537 56.5732 76.1806C58.8813 75.2124 60.7843 75.5481 63.1096 75.8835C62.6978 76.7165 62.2069 77.2586 61.7125 78.137ZM75.8091 78.2953L75.1653 78.1261C72.4898 78.7106 73.9948 82.0086 71.8974 83.4768C70.0938 84.7395 70.1773 85.3109 65.8013 86.0297C62.8592 86.5131 62.7892 86.0367 61.1246 84.8199C60.9337 80.3442 65.7852 79.5786 67.2224 76.4104C67.9805 74.7394 66.6528 72.6041 66.6657 70.3714C66.6794 68.0099 67.0677 66.0116 67.0264 63.4209C70.1959 65.1227 71.6978 66.4089 76.4819 66.3454C80.1147 66.2974 83.8799 64.7257 85.1234 62.6981C86.8812 61.3742 82.9346 57.6006 81.0548 56.532C80.0124 55.9393 78.6183 55.4516 77.2857 55.2204L73.5834 55.08C73.4522 55.0958 73.0706 55.1507 72.9547 55.1872C72.5426 55.3171 72.7425 55.2687 72.5221 55.4335C69.6671 55.4024 65.3294 58.4274 64.7393 60.2163C63.6964 63.3769 64.2992 69.1639 64.3065 72.7071L56.2003 72.3385C55.3709 68.5845 56.068 63.2269 55.0529 59.8993C52.4883 58.4542 48.2109 53.6287 42.3304 55.5726C37.4072 56.7818 34.0797 57.9605 32.8443 61.5301C34.8157 63.591 37.5303 65.5554 41.6844 65.8394C52.4305 66.5744 48.4153 64.6707 52.7504 63.6752C53.8354 66.0639 53.085 74.6208 53.5578 75.7339C54.4728 77.8874 57.103 81.022 58.2932 84.0367C55.8892 84.6303 51.5937 87.4501 48.8431 85.08C45.3616 82.0801 45.5753 80.3478 44.6235 80.0035C43.7323 79.6811 42.8942 80.5356 42.5544 80.9748C43.1894 84.5729 49.1163 88.8395 54.5113 88.4325C56.9745 88.2466 57.7791 87.419 59.4042 86.7566C61.4892 88.9216 62.7684 89.254 66.4858 89.0207C71.5184 88.5627 77.6098 82.3279 75.8091 78.2953ZM37.4071 61.5299C37.9617 60.531 39.4754 60.1742 40.969 59.9347L41.2819 63.3509C39.5753 63.1038 37.9069 62.6578 37.4071 61.5299ZM82.3077 62.1927C82.1442 62.3433 82.1723 62.3402 81.8966 62.4972L80.9392 62.8671C80.3106 63.0597 80.0761 63.1057 79.3524 63.1328C79.2319 61.6572 79.1561 61.2316 79.5877 60.0216C80.8405 60.1058 82.013 61.1021 82.3077 62.1927ZM51.7947 60.8604C50.8376 61.9362 50.1601 62.5442 48.3081 62.9097C48.2566 60.9694 47.6157 60.2613 47.3859 58.6997C49.3303 58.8484 51.1451 59.6647 51.7947 60.8604ZM68.5245 60.2039C69.2464 59.3544 72.3927 58.3875 73.7657 58.1778C73.3816 60.3208 73.4247 60.7348 73.7933 62.9097C71.2998 62.793 69.225 61.9069 68.5245 60.2039Z" fill="#181716"/>
<path fill-rule="evenodd" clip-rule="evenodd" d="M36.0764 49.3701C43.8877 52.5471 48.5882 46.7783 51.5697 46.7523C52.111 48.8217 50.2691 49.9741 49.4617 51.6375C49.9812 52.5969 50.794 52.4793 52.272 51.9785C59.8628 50.7189 59.1421 48.4456 62.6139 47.0685C62.4526 50.5423 62.1466 50.4687 61.243 53.4176C63.7004 54.9474 70.4197 47.7384 71.7117 45.2883C72.501 43.7917 72.7984 42.399 73.2363 40.6019C67.9251 41.6479 63.4179 41.3756 57.9773 41.2573C52.3233 41.1343 54.7156 42.2147 50.8989 41.7321C48.8557 41.4738 46.0698 41.1262 44.7084 40.1329L43.274 39.762C43.5617 40.1262 43.3921 39.8759 43.6293 40.1185L44.0799 40.5946C42.784 42.3779 43.7256 42.4604 40.7588 45.6056C37.9237 48.6113 37.1594 46.9623 36.0764 49.3701Z" fill="#E46400"/>
<path fill-rule="evenodd" clip-rule="evenodd" d="M75.5776 87.1881L72.9329 88.6543C71.0267 89.2719 69.3529 90.0645 67.3268 90.6383C58.6711 93.09 51.4016 93.0408 42.9779 89.8231C40.7715 88.9803 39.7609 88.7215 38.4485 87.264C36.158 84.72 34.2375 81.7972 32.8691 78.4652C29.7303 70.8226 28.5089 62.4552 29.8601 53.6041C30.5901 48.8229 32.0358 46.8759 33.5069 42.8324C34.1836 40.9721 34.7541 39.2883 35.429 37.4537C35.8113 36.415 36.8111 33.3341 37.6992 32.5964C38.9676 34.8576 40.7433 39.0935 43.274 39.762L44.7084 40.1329C46.0698 41.1262 48.8557 41.4738 50.8989 41.7321C54.7156 42.2147 52.3233 41.1343 57.9773 41.2573C63.4179 41.3756 67.9251 41.6479 73.2363 40.6019L73.26 40.492C77.6976 38.42 80.1952 34.2325 82.4943 29.27L82.9148 28.621C83.9253 30.0816 85.0673 36.9564 85.5242 39.2573C86.2514 42.9178 87.4985 46.3816 88.1001 49.959C89.5573 58.6243 88.2789 65.8541 86.4018 73.7763C84.9987 75.9954 84.302 78.0059 82.5722 80.1898L78.1603 85.0726C77.6493 85.4995 77.4043 85.6882 76.8249 86.1737C76.5212 86.4281 76.4842 86.4067 76.1795 86.6322C75.8559 86.8718 75.7449 87.0128 75.5776 87.1881ZM70.5414 37.6715C65.4436 37.3934 52.3386 38.123 49.8699 37.8783C43.3883 37.2355 43.3962 36.7364 40.731 31.744C39.6597 29.7374 40.0144 28.0392 38.2198 26.5115C37.4978 25.8968 36.3386 25.6234 35.5032 26.4555C34.5989 27.3565 35.5273 28.0054 35.0436 29.2952C33.5778 33.2047 32.4659 34.8567 30.6836 40.2047C30.0369 42.1455 29.5101 44.2275 28.83 46.0853C28.0924 48.101 27.3128 49.6075 26.8818 51.892C25.9858 56.6404 25.7611 61.3977 26.2605 66.2664C26.7369 70.914 27.9768 77.6525 30.067 81.696C30.6049 82.7369 31.218 82.9384 31.6128 83.9143C32.3086 85.6338 31.3996 88.4803 33.015 91.5832C32.2222 100.159 32.1311 121.474 32.5827 123L36.8154 123C36.0507 121.61 35.9076 95.4663 35.7396 93.1365C35.6378 91.7258 35.5417 90.3129 35.4914 88.9022C36.1624 89.2666 36.6318 89.8083 37.6301 90.2915C39.9988 91.4376 43.5481 92.8308 46.2147 92.9789C46.7968 93.7179 46.8081 93.3701 48.0125 93.4721C48.7615 93.5355 49.4799 93.6962 50.3018 93.7643C62.7993 94.9945 80.1655 91.0133 85.2858 79.1395C86.3446 76.6838 85.6539 77.9993 86.5457 77.1182C87.7486 78.9125 87.2365 78.6917 87.7524 80.7609C91.7183 95.7818 112.674 119.6 113.293 123L118 123C117.483 121.465 105.504 108.118 97.331 94.8589C91.5405 85.4646 88.732 75.1415 88.5 73.4151C87.3939 72.0648 88.1653 71.5741 88.6743 69.9225C90.0598 65.4276 90.4152 60.9924 90.3168 56.2268C90.0307 42.3833 88.8648 47.4546 87.4497 38.4573C86.902 34.9768 86.1922 33.4576 85.3289 30.4132C84.4259 27.2296 83.9465 25.1853 81.5832 24C78.4043 25.1948 80.3458 28.0106 76.9366 32.5949C74.3216 36.111 72.6608 36.5719 70.5414 37.6715Z" fill="#181716"/>
<path fill-rule="evenodd" clip-rule="evenodd" d="M68.5245 60.2039C69.225 61.9069 71.2998 62.793 73.7933 62.9097C73.4247 60.7348 73.3816 60.3208 73.7657 58.1778C72.3927 58.3875 69.2464 59.3544 68.5245 60.2039Z" fill="#FFFDFD"/>
<path fill-rule="evenodd" clip-rule="evenodd" d="M48.3081 62.9097C50.1601 62.5442 50.8376 61.9362 51.7947 60.8604C51.1451 59.6647 49.3303 58.8484 47.3859 58.6997C47.6157 60.2613 48.2566 60.9694 48.3081 62.9097Z" fill="#FFFDFD"/>
<path fill-rule="evenodd" clip-rule="evenodd" d="M37.4071 61.5299C37.9069 62.6578 39.5753 63.1038 41.2819 63.3509L40.969 59.9347C39.4754 60.1742 37.9617 60.531 37.4071 61.5299Z" fill="#FFFDFD"/>
<path fill-rule="evenodd" clip-rule="evenodd" d="M79.3524 63.1328C80.0761 63.1057 80.3106 63.0597 80.9392 62.8671L81.8966 62.4972C82.1723 62.3402 82.1442 62.3433 82.3077 62.1927C82.013 61.1021 80.8405 60.1058 79.5877 60.0216C79.1561 61.2316 79.2319 61.6572 79.3524 63.1328Z" fill="#FFFDFD"/>
<path fill-rule="evenodd" clip-rule="evenodd" d="M61.7125 78.137L60.0197 80.2588C59.7069 80.5339 59.9908 80.3445 59.6261 80.5501C58.2134 79.8439 57.1575 77.5537 56.5732 76.1806C58.8813 75.2124 60.7843 75.5481 63.1096 75.8835C62.6978 76.7165 62.2069 77.2586 61.7125 78.137Z" fill="#FEFEFE"/>
</g>
<defs>
<clipPath id="clip0_273_141">
<rect width="120" height="120" fill="white"/>
</clipPath>
</defs>
</svg>
