<svg width="120" height="120" viewBox="0 0 120 120" fill="none" xmlns="http://www.w3.org/2000/svg">
<rect width="120" height="120" fill="#FB1A18"/>
<path fill-rule="evenodd" clip-rule="evenodd" d="M45.6649 61.2864C46.0014 58.4754 48.7887 55.1253 50.2047 54.0276C60.7087 45.885 72.0572 55.5181 72.315 61.2864H88.8112V59.7069L76.2962 59.701C76.2962 59.7069 76.2962 45.6794 76.2962 45.6794L41.5557 45.6241L41.5002 59.7069H29.1484V61.2864C29.1484 61.2864 35.0722 61.2864 37.4857 61.2864C38.8282 61.2864 45.6649 61.2864 45.6649 61.2864Z" fill="#FEFEFE"/>
<path fill-rule="evenodd" clip-rule="evenodd" d="M53.7844 32.5817L53.7507 35.1302L41.5557 35.1439V40.4024L76.2961 40.4121V35.1416L64.2441 35.1405L64.2321 32.5815C62.6099 32.3987 62.0141 32.8662 61.0205 31.9892C60.2817 31.3371 59.8236 30.6259 59.0001 30.0205C58.2431 30.5768 57.8101 31.1775 57.1045 31.8623C56.0016 32.9329 55.5958 32.3753 53.7844 32.5817Z" fill="#FEFEFE"/>
<path fill-rule="evenodd" clip-rule="evenodd" d="M78.2168 82.4211C78.4348 79.1385 76.8666 72.0536 80.7463 71.9319C84.8946 71.8017 83.2745 79.1036 83.4971 82.4211C83.4971 82.4211 87.5616 82.4482 88.7066 82.4211L88.8118 66.5319H72.9405L72.9077 82.4289C72.9077 82.4289 78.192 82.4211 78.2168 82.4211Z" fill="#FEFEFE"/>
<path fill-rule="evenodd" clip-rule="evenodd" d="M48.6561 63.798C48.7796 58.8149 53.6008 54.5426 58.7422 54.4129C64.1342 54.2767 69.1599 58.6675 69.3084 63.6221L69.3539 82.4211L71.288 82.4238C71.6243 80.4705 71.0716 64.2023 71.0304 63.4241C70.7268 57.6849 64.7919 52.5211 58.743 52.6389C52.8302 52.754 47.1737 57.9325 46.8927 63.7878C46.836 64.9694 46.7363 82.4173 46.7363 82.4173L48.5389 82.4211L48.6561 63.798Z" fill="#FEFEFE"/>
<path fill-rule="evenodd" clip-rule="evenodd" d="M38.0112 43.873L79.9691 43.909L79.9552 42.1707L38.2754 42.146L38.0112 43.873Z" fill="#FEFEFE"/>
<path fill-rule="evenodd" clip-rule="evenodd" d="M72.9678 64.8152L88.8111 64.9054V63.206L73.026 63.1462L72.9678 64.8152Z" fill="#FEFEFE"/>
<path fill-rule="evenodd" clip-rule="evenodd" d="M29.1484 64.8023L45.0201 64.9073L44.999 63.1986L29.1484 63.1472V64.8023Z" fill="#FEFEFE"/>
<path fill-rule="evenodd" clip-rule="evenodd" d="M34.4248 82.4211C34.6428 79.1385 33.0746 72.0536 36.9544 71.9319C41.1026 71.8017 39.4825 79.1036 39.7051 82.4211C39.7051 82.4211 43.7696 82.4482 44.9146 82.4211L45.0197 66.5319H29.1485L29.1157 82.4289C29.1157 82.4289 34.4 82.4211 34.4248 82.4211Z" fill="#FEFEFE"/>
</svg>
