<svg width="120" height="120" viewBox="0 0 120 120" fill="none" xmlns="http://www.w3.org/2000/svg">
<g clip-path="url(#clip0_273_272)">
<rect width="120" height="120" fill="#039CC3"/>
<path d="M30.4379 85L23 84.9796L23.059 50L31.2934 50.0312L40.6452 64.5535L49.6766 50.0003L58 50.0111L57.8859 84.9968L50.3824 84.9866L50.1965 62.4792L40.4986 76.9087C38.8722 75.843 33.1716 65.5203 30.5561 62.6293L30.4379 85Z" fill="white"/>
<path fill-rule="evenodd" clip-rule="evenodd" d="M77.7236 31.4459C51.2225 37.618 61.4871 73.1584 84.3812 68.597C93.7407 66.7323 101.741 58.0658 99.6708 46.6528C98.0544 37.7366 88.6801 28.8944 77.7236 31.4459ZM78.5707 39.2224C62.811 43.8891 70.4683 64.3999 83.8276 60.7568C88.8694 59.3819 93.6452 54.0231 91.877 47.3961C90.5451 42.4046 85.1321 37.2796 78.5707 39.2227V39.2224Z" fill="#FAB926"/>
</g>
<defs>
<clipPath id="clip0_273_272">
<rect width="120" height="120" fill="white"/>
</clipPath>
</defs>
</svg>
