<svg width="120" height="120" viewBox="0 0 120 120" fill="none" xmlns="http://www.w3.org/2000/svg">
<rect width="120" height="120" rx="60" fill="#DFEDE6"/>
<path d="M120 0H0V120H120V0Z" fill="#139773"/>
<path fill-rule="evenodd" clip-rule="evenodd" d="M27.5737 52.7949C27.3324 59.8679 27.097 64.3377 31.251 68.5741C35.3485 72.7531 38.6474 73.2822 46.058 73.2829C51.2436 73.2834 60.5056 73.8035 65.1708 72.8724C70.0168 71.9055 74.559 68.5015 75.5682 64.0937L38.2977 64.0341L38.3661 39.0835L75.7434 39.1175C74.8765 34.2209 70.0548 30.5099 64.7947 29.581C59.8965 28.716 50.2296 29.2715 44.8131 29.2692C37.4908 29.2661 33.5881 30.8866 30.2803 35.0308C26.4728 39.801 27.8068 46.0515 27.5737 52.7949Z" fill="white"/>
<path fill-rule="evenodd" clip-rule="evenodd" d="M92.424 64.4584C92.2717 57.3916 92.1174 54.1246 87.9257 50.5016C83.4437 46.6276 73.1948 46.4973 73.1948 46.4973C65.0372 46.4973 52.415 46.3534 48.9278 50.1849C47.7205 51.2552 45.5243 53.7512 45.306 55.9456L81.9164 55.9484L81.9096 64.5483L81.9182 80.873L45.0835 80.8846C45.7561 85.112 49.5665 88.3857 53.1937 89.6818C57.6032 91.2573 64.2535 90.7228 69.2115 90.7228C74.4756 90.7228 80.0547 91.3134 84.5264 89.2332C88.0793 87.5805 91.1906 84.2584 92.1897 79.6199C92.7749 75.8574 92.5053 68.5487 92.424 64.4584Z" fill="white"/>
</svg>
