<svg width="120" height="120" viewBox="0 0 120 120" fill="none" xmlns="http://www.w3.org/2000/svg">
<rect width="120" height="120" fill="#D7E9CD"/>
<path d="M43.5936 33.9359C45.5033 33.2623 47.5412 32.9623 49.5631 33.0038C61.6688 33.0453 73.7713 32.9559 85.8738 33.0453C84.2044 35.05 82.2145 36.7642 80.4169 38.6508C78.9302 40.0298 77.626 41.6131 76.0303 42.8708C66.9975 43.0177 57.9455 42.8612 48.9095 42.9474C46.7017 43.0528 44.4908 44.2562 43.5648 46.3152C42.8021 47.6495 42.9816 49.2137 42.972 50.6821C42.9784 58.8732 42.9752 67.0676 42.9752 75.2587C43.0649 75.9929 42.4561 76.4973 42.0107 76.9857C40.0273 78.9489 38.047 80.9089 36.0796 82.8881C35.1087 83.8425 34.2275 84.9087 33.0516 85.6269C32.949 73.3434 33.0356 61.0567 33.0099 48.7732C32.8529 42.2324 37.4542 36.0747 43.5936 33.9359Z" fill="#1D4986"/>
<path d="M69.5737 55.9205C70.1889 55.365 70.7369 54.484 71.6885 54.6021C76.4501 54.6085 81.2148 54.5734 85.9763 54.6213C86.0244 59.9107 85.9827 65.2002 85.9924 70.4864C86.0276 77.3432 80.8655 83.6925 74.2712 85.4482C72.7075 85.9462 71.0637 86.0324 69.4327 85.9909C59.4835 85.9494 49.5279 86.0387 39.5787 85.943C42.3215 82.9742 45.3079 80.2353 48.1084 77.3209C48.7044 76.7782 49.2683 75.9451 50.1816 76.0568C56.715 76.06 63.2485 76.0504 69.7788 76.0632C72.8965 76.2802 76.0175 73.6594 76.0367 70.4864C76.0656 68.5136 76.0688 66.5345 76.0207 64.5617C71.0477 64.4851 66.0715 64.5873 61.0953 64.5138C63.7932 61.5291 66.7924 58.8317 69.5737 55.9205Z" fill="#69AD46"/>
<path d="M49.3292 54.6979C51.6427 54.4616 53.9754 54.6532 56.2985 54.5957C58.9035 54.634 61.5118 54.5095 64.1137 54.6659C62.236 56.9196 60.0443 58.8924 57.9935 60.9865C56.7631 62.1388 55.7057 63.4891 54.315 64.4532C52.6777 64.6479 51.0147 64.5585 49.3709 64.4628C49.2972 61.2099 49.3677 57.9539 49.3292 54.6979Z" fill="#69AD46"/>
</svg>
