<svg width="120" height="120" viewBox="0 0 120 120" fill="none" xmlns="http://www.w3.org/2000/svg">
<rect width="120" height="120" fill="#ED2D1D"/>
<path d="M30.1422 23.0133C35.9898 22.9803 41.8374 23.0213 47.685 23.0043C47.9159 22.9803 48.1558 23.0552 48.2758 23.265C53.8411 31.1838 59.4206 39.0946 64.9859 47.0155C59.3248 55.0062 53.6415 62.983 47.9693 70.9657C41.9806 70.9228 35.9898 70.9507 30 70.9278C30.2208 70.4993 30.5051 70.1088 30.7904 69.7203C36.14 62.2119 41.4795 54.6956 46.82 47.1803C46.9843 47.0275 46.8704 46.8447 46.7665 46.6959C42.041 39.9905 37.3337 33.2741 32.6062 26.5697C31.7936 25.3782 30.9114 24.2327 30.1422 23.0133Z" fill="white"/>
<path d="M67.8028 48.2658C67.9359 48.0521 68.191 47.9642 68.436 47.9802C70.7569 47.9832 73.0788 47.9912 75.4007 47.9912C76.0399 47.9652 76.6751 48.0761 77.3153 48.0541C80.2109 48.0601 83.1054 48.0441 86 48.0711C80.345 56.0469 74.6718 64.0116 69.0056 71.9794C73.469 78.3192 77.9263 84.6631 82.3916 91.002C83.5501 92.6678 84.7438 94.3107 85.882 95.9906C80.0001 96.0165 74.1172 95.9796 68.2343 95.9896C67.9752 96.0345 67.7917 95.8378 67.6566 95.649C62.4472 88.2285 57.2227 80.818 52.0072 73.4016C51.6442 72.9292 51.3539 72.4048 50.9617 71.9554C56.5814 64.0636 62.1911 56.1627 67.8028 48.2658Z" fill="white"/>
</svg>
