<svg width="120" height="120" viewBox="0 0 120 120" fill="none" xmlns="http://www.w3.org/2000/svg">
<rect width="120" height="120" fill="#009B36"/>
<path fill-rule="evenodd" clip-rule="evenodd" d="M40.5514 40.6793C41.3909 39.4344 44.7259 37.7065 46.1568 36.988C53.0436 33.5294 62.2269 34.8921 68.3186 38.865C76.1737 43.9879 79.8437 53.8173 77.6826 63.0634C77.5157 63.7774 77.2931 64.3083 77.2326 65.0316C80.6595 61.1164 81.7047 53.7315 81.2856 48.7297C81.8352 49.3575 82.0736 50.6281 82.261 51.3837C83.9164 58.0592 82.1231 66.3302 77.886 71.1146C75.1439 74.2109 73.4897 75.5281 69.6672 77.4427C66.9741 78.7917 61.5744 80.2931 57.3723 79.3209C57.3507 78.3667 57.1673 78.1095 57.1695 75.8995C57.1709 74.4196 57.187 73.4921 57.359 72.2638C57.5357 71.0056 57.7147 70.2609 58.0482 69.1242C58.3881 67.9652 58.9367 66.9175 58.9934 66.2392C58.2982 65.9078 57.2566 65.9665 56.5615 65.6354C56.1951 66.1788 55.757 66.6236 55.3446 67.2444C51.5859 72.9061 51.0898 76.1327 51.0898 83.5472C49.1969 83.3908 44.4585 79.8877 43.032 78.4677C39.6137 75.0651 37.5274 71.0267 36.6691 66.0694C36.1944 63.3272 36.3761 59.0306 37.0801 56.5524C37.8084 53.9884 38.8892 51.3767 40.4924 49.2745C42.1736 47.0701 43.5919 45.5718 45.8198 43.8986C49.448 41.1733 52.9587 40.2073 57.6042 39.7021C59.5543 39.4901 61.1019 39.8742 62.844 39.8742C60.8815 38.1803 54.0167 37.1952 51.3217 37.4883C49.2312 37.7156 47.402 37.997 45.496 38.5456C43.5356 39.1097 41.0395 40.55 40.5515 40.6793H40.5514ZM29 59.7986C29 64.2745 29.134 67.3563 31.2284 71.4724C32.6998 74.3641 33.7261 75.662 35.9411 77.8617C39.8668 81.7603 45.1036 84.7547 51.2925 84.7547C51.45 85.4265 51.5544 86.0393 51.71 86.7552C52.0333 88.244 53.0707 90.7734 53.7244 92H63.452C61.0199 88.3933 59.1869 87.3408 57.7775 81.3334C58.9315 81.6004 60.0647 82.0631 61.2759 82.2866C69.1379 83.7361 75.9989 82.0324 81.8465 76.8586C87.215 72.1082 90 66.303 90 58.5911C90 49.7742 84.3616 42.3252 78.7412 38.9799C75.95 37.3186 77.5236 38.375 75.7549 36.3102C71.6079 31.4691 65.4541 28 58.5881 28C52.9675 28 49.7938 28.5867 44.9703 31.5832C36.0465 37.1266 35.1927 44.9266 34.1572 46.4046L32.525 48.6075C30.8195 51.129 29 55.6801 29 59.7986Z" fill="white"/>
</svg>
