<svg width="120" height="120" viewBox="0 0 120 120" fill="none" xmlns="http://www.w3.org/2000/svg">
<g clip-path="url(#clip0_273_752)">
<rect width="120" height="120" fill="#FF8B00"/>
<path fill-rule="evenodd" clip-rule="evenodd" d="M26 58.9414C25.9977 70.904 32.8859 80.6855 40.119 85.4912C44.2038 88.2052 48.695 90.2615 54.7993 91.0053C61.2853 91.7957 67.4164 90.2763 73.9251 90.2794C79.5094 90.2813 83.1931 91.1798 87.5933 93.4656C89.8297 94.6272 92.599 96.497 94.5445 98.1926C95.0651 98.6465 96.0392 99.865 96.8629 98.9437C97.1675 98.2667 95.8346 96.9829 95.4058 96.4891C94.6959 95.6714 94.189 95.0894 93.496 94.4022C89.0825 90.0251 84.7413 87.6576 78.1944 86.0391C73.9479 84.9893 70.4391 84.333 66.8336 81.6059C65.2829 80.433 63.929 79.1379 62.8069 77.7389C61.5395 76.1589 61.0389 75.2988 60.0471 73.662C59.8401 73.3205 59.8129 73.2564 59.3742 73.2208C59.1381 73.9005 59.1702 74.8226 59.1716 75.6721C59.1729 76.506 59.554 79.8316 59.459 80.1319C47.8334 80.8109 37.0627 71.0141 37.0775 58.7311C37.0854 52.2178 39.7769 47.0047 43.3059 43.4746C44.9692 41.8108 47.1796 40.1262 49.5987 39.0486C52.6171 37.704 55.2966 37.0759 58.9833 37.0806C68.0947 37.0924 75.9551 43.3716 78.7877 51.1412C79.3578 52.7047 79.6139 53.9192 79.9169 55.6989C80.1002 56.7753 80.383 60.0606 79.939 60.946L75.8192 60.8841C75.3346 60.8833 73.1832 60.8546 72.8541 61.031C72.52 61.2101 72.771 61.0218 72.6175 61.2564C72.887 61.6738 72.924 61.5256 73.8895 61.7253C74.3269 61.8158 74.765 61.941 75.1945 62.081C76.2289 62.4181 76.8785 62.6161 77.734 63.0159C81.9268 64.9751 84.2907 68.1676 85.62 72.4927C85.863 73.2837 85.9793 74.6669 86.2363 75.3377C86.803 75.4179 86.7926 75.0295 87.4105 73.8966C92.2076 65.1016 92.388 54.2786 88.3285 45.1808C85.2674 38.3204 79.359 32.2026 72.4486 29.0629C50.555 19.1161 26.0045 34.5289 26 58.9414Z" fill="white"/>
<path fill-rule="evenodd" clip-rule="evenodd" d="M74.582 77.5627C73.7864 77.7922 73.3241 78.1396 73.1777 79.0499C72.7913 81.4507 75.2772 83.7061 77.5824 82.9069C81.0482 81.7051 77.4459 76.7363 74.582 77.5627Z" fill="white"/>
<path fill-rule="evenodd" clip-rule="evenodd" d="M83.7869 77.3101C85.1125 75.618 83.406 71.4413 81.4328 72.1274C80.0405 72.6116 81.254 75.3903 82.3402 76.6186C82.7236 77.0521 82.9996 77.395 83.7869 77.3101Z" fill="white"/>
</g>
<defs>
<clipPath id="clip0_273_752">
<rect width="120" height="120" fill="white"/>
</clipPath>
</defs>
</svg>
