<svg width="120" height="120" viewBox="0 0 120 120" fill="none" xmlns="http://www.w3.org/2000/svg">
<rect width="120" height="120" fill="#21261D"/>
<mask id="mask0_273_213" style="mask-type:luminance" maskUnits="userSpaceOnUse" x="21" y="20" width="79" height="80">
<path d="M60.4085 20.364C82.1664 20.364 99.8046 38.0023 99.8046 59.7601C99.8046 81.5179 82.1664 99.1562 60.4085 99.1562C38.6507 99.1562 21.0125 81.5179 21.0125 59.7601C21.0125 38.0023 38.6507 20.364 60.4085 20.364Z" fill="white"/>
</mask>
<g mask="url(#mask0_273_213)">
<path fill-rule="evenodd" clip-rule="evenodd" d="M61.1257 23.5572C62.7205 23.5572 64.0132 24.2636 64.0132 25.1352C64.0132 26.0067 62.7205 26.7132 61.1257 26.7132C59.531 26.7132 58.2383 26.0067 58.2383 25.1352C58.2383 24.2636 59.531 23.5572 61.1257 23.5572ZM73.1842 88.2284C74.741 87.6421 76.266 87.8566 76.5906 88.7074C76.9152 89.5583 75.9162 90.7232 74.3594 91.3094C72.8026 91.8957 71.2776 91.6812 70.9529 90.8305C70.6284 89.9797 71.6274 88.8148 73.1842 88.2284ZM87.6769 80.8081C89.1398 80.0184 90.6801 80.0265 91.1173 80.826C91.5543 81.6256 90.7227 82.9137 89.2598 83.7033C87.7968 84.493 86.2565 84.485 85.8195 83.6854C85.3824 82.8858 86.214 81.5976 87.6769 80.8081ZM94.5299 76.5654C95.9928 75.7757 97.533 75.7838 97.9701 76.5833C98.4073 77.3829 97.5755 78.671 96.1126 79.4606C94.6497 80.2503 93.1095 80.2423 92.6724 79.4429C92.2352 78.6432 93.067 77.355 94.5299 76.5654ZM98.823 36.808C100.409 37.2692 101.505 38.2889 101.27 39.0863C101.036 39.8835 99.5595 40.1558 97.973 39.6946C96.3866 39.2336 95.2909 38.2138 95.5256 37.4164C95.7603 36.6191 97.2365 36.3469 98.823 36.808ZM101.632 45.0754C103.598 45.0755 105.193 45.8763 105.193 46.8647C105.193 47.8531 103.598 48.6539 101.632 48.6539C99.6651 48.6539 98.0711 47.8531 98.071 46.8647C98.071 45.8763 99.6652 45.0755 101.632 45.0754ZM105.737 52.1986C107.344 51.0639 109.157 50.8561 109.785 51.7346C110.413 52.613 109.619 54.245 108.012 55.3797C106.405 56.5144 104.592 56.7222 103.964 55.8437C103.336 54.9653 104.13 53.3334 105.737 52.1986ZM100.165 58.2342C101.772 57.0994 103.584 56.8916 104.212 57.7701C104.841 58.6485 104.047 60.2805 102.439 61.4152C100.832 62.5499 99.0199 62.7578 98.3918 61.8793C97.7637 61.0008 98.5574 59.3689 100.165 58.2342ZM93.5329 63.0115C95.306 62.1548 97.128 62.2457 97.6023 63.2149C98.0766 64.1841 97.0235 65.6641 95.2503 66.5208C93.4772 67.3775 91.6552 67.2865 91.1809 66.3174C90.7066 65.3482 91.7597 63.8682 93.5329 63.0115ZM105.306 62.6696C106.784 62.6696 107.983 63.8179 107.983 65.2344C107.983 66.6511 106.784 67.7994 105.306 67.7994C103.827 67.7994 102.628 66.6511 102.628 65.2344C102.628 63.8179 103.827 62.6696 105.306 62.6696ZM100.061 72.01C101.524 71.2203 103.064 71.2284 103.501 72.0279C103.938 72.8275 103.106 74.1156 101.643 74.9052C100.18 75.6949 98.6402 75.6869 98.2032 74.8874C97.766 74.0878 98.5977 72.7996 100.061 72.01ZM95.7251 81.7168C97.188 80.9271 98.7282 80.9352 99.1655 81.7347C99.6025 82.5343 98.7709 83.8224 97.3079 84.612C95.845 85.4016 94.3047 85.3936 93.8677 84.5942C93.4305 83.7946 94.2622 82.5064 95.7251 81.7168ZM90.4072 85.3748C91.8702 84.5851 93.4104 84.5931 93.8476 85.3927C94.2846 86.1923 93.453 87.4805 91.9901 88.27C90.5272 89.0597 88.9869 89.0516 88.5498 88.2522C88.1127 87.4526 88.9443 86.1644 90.4072 85.3748ZM84.1864 88.2187C85.7432 87.6325 87.2682 87.8469 87.5928 88.6978C87.9174 89.5487 86.9184 90.7135 85.3616 91.2998C83.8048 91.886 82.2798 91.6716 81.9552 90.8208C81.6306 89.97 82.6296 88.8051 84.1864 88.2187ZM77.7259 91.6805C79.2234 91.4666 80.5334 91.9566 80.6519 92.775C80.7703 93.5935 79.6523 94.4302 78.1546 94.6443C76.6572 94.8582 75.3472 94.3682 75.2287 93.5499C75.1102 92.7314 76.2284 91.8945 77.7259 91.6805ZM71.5568 94.4525C72.6871 94.291 73.6759 94.6609 73.7652 95.2786C73.8546 95.8964 73.0109 96.528 71.8805 96.6895C70.7502 96.851 69.7615 96.4812 69.672 95.8634C69.5826 95.2457 70.4265 94.6139 71.5568 94.4525ZM65.7239 96.8985C66.8464 96.7382 67.828 97.1054 67.9168 97.7188C68.0056 98.3322 67.1677 98.9594 66.0453 99.1198C64.9229 99.2801 63.9412 98.9128 63.8524 98.2995C63.7637 97.6861 64.6016 97.0589 65.7239 96.8985ZM56.9079 97.1558C58.0418 97.1558 58.961 97.6581 58.961 98.2778C58.961 98.8975 58.0418 99.3998 56.9079 99.3998C55.774 99.3998 54.8549 98.8975 54.8549 98.2778C54.8549 97.6581 55.774 97.1558 56.9079 97.1558ZM67.2912 91.64C68.9444 91.64 70.2845 92.3724 70.2845 93.2758C70.2845 94.1793 68.9444 94.9117 67.2912 94.9117C65.6381 94.9117 64.2979 94.1793 64.2979 93.2758C64.2979 92.3724 65.6381 91.64 67.2912 91.64ZM81.5877 85.1182C83.1444 84.5319 84.6695 84.7464 84.9941 85.5972C85.3187 86.448 84.3197 87.6129 82.7629 88.1991C81.2061 88.7854 79.681 88.571 79.3564 87.7203C79.0319 86.8694 80.0309 85.7044 81.5877 85.1182ZM51.1366 94.9117C52.2705 94.9117 53.1897 95.4141 53.1897 96.0337C53.1897 96.6534 52.2705 97.1558 51.1366 97.1558C50.0027 97.1558 49.0835 96.6534 49.0835 96.0337C49.0835 95.4141 50.0027 94.9117 51.1366 94.9117ZM55.0683 91.758C56.6619 91.758 57.9536 92.4639 57.9536 93.3349C57.9536 94.2057 56.6619 94.9117 55.0683 94.9117C53.4747 94.9117 52.1829 94.2057 52.1829 93.3349C52.1829 92.4639 53.4747 91.758 55.0683 91.758ZM68.1178 84.2964C70.2158 83.7075 72.1808 84.1595 72.5068 85.3062C72.8328 86.4527 71.3962 87.8596 69.2983 88.4484C67.2003 89.0373 65.2353 88.5853 64.9093 87.4386C64.5833 86.2921 66.0198 84.8852 68.1178 84.2964ZM75.8222 80.7933C77.7378 79.7592 79.7548 79.7697 80.3273 80.8167C80.8997 81.8636 79.8108 83.5505 77.895 84.5845C75.9794 85.6185 73.9624 85.6081 73.3899 84.5611C72.8175 83.5142 73.9065 81.8273 75.8222 80.7933ZM83.1687 76.7215C85.0207 75.7219 86.9706 75.7321 87.5238 76.7441C88.0772 77.7562 87.0245 79.3869 85.1727 80.3865C83.3207 81.3861 81.3708 81.3759 80.8175 80.3639C80.2642 79.3518 81.3169 77.7211 83.1687 76.7215ZM90.9538 72.1751C93.0697 71.5811 95.0515 72.0372 95.3803 73.1936C95.7091 74.3499 94.2603 75.7687 92.1444 76.3627C90.0285 76.9566 88.0466 76.5007 87.7179 75.3442C87.389 74.1879 88.8378 72.7691 90.9538 72.1751ZM96.6543 67.9084C98.3711 66.6964 100.307 66.4746 100.977 67.4128C101.648 68.3509 100.801 70.0941 99.0838 71.3061C97.367 72.518 95.4315 72.7401 94.7606 71.8017C94.0896 70.8635 94.9375 69.1204 96.6543 67.9084ZM43.3746 91.9468C44.4294 91.9468 45.2843 92.6105 45.2843 93.4292C45.2843 94.248 44.4294 94.9117 43.3746 94.9117C42.3199 94.9117 41.4649 94.248 41.4649 93.4292C41.4649 92.6105 42.3199 91.9468 43.3746 91.9468ZM47.7595 88.3844C49.2577 88.3844 50.4722 89.0481 50.4722 89.8669C50.4722 90.6856 49.2577 91.3493 47.7595 91.3493C46.2614 91.3493 45.0468 90.6856 45.0468 89.8669C45.0468 89.0481 46.2614 88.3844 47.7595 88.3844ZM53.3123 84.82C55.1869 84.82 56.7063 85.6504 56.7063 86.6749C56.7063 87.6993 55.1869 88.5297 53.3123 88.5297C51.4378 88.5297 49.9183 87.6993 49.9183 86.6749C49.9183 85.6504 51.4378 84.82 53.3123 84.82ZM69.4537 76.3585C72.0458 76.3585 74.1469 77.5067 74.1469 78.9233C74.1469 80.3399 72.0458 81.4881 69.4537 81.4881C66.8618 81.4881 64.7606 80.3399 64.7606 78.9233C64.7606 77.5067 66.8618 76.3585 69.4537 76.3585ZM77.9832 71.9146C80.5752 71.9146 82.6763 73.0628 82.6763 74.4794C82.6763 75.896 80.5752 77.0442 77.9832 77.0442C75.3912 77.0442 73.29 75.896 73.29 74.4794C73.29 73.0628 75.3912 71.9146 77.9832 71.9146ZM85.0243 67.6381C87.5186 66.938 89.8549 67.4754 90.2424 68.8387C90.63 70.2019 88.9221 71.8744 86.4278 72.5745C83.9334 73.2747 81.5972 72.7374 81.2097 71.3741C80.8221 70.0109 82.5299 68.3382 85.0243 67.6381ZM36.7847 88.675C37.8394 88.675 38.6943 89.3387 38.6943 90.1575C38.6943 90.9762 37.8394 91.64 36.7847 91.64C35.7299 91.64 34.8749 90.9762 34.8749 90.1575C34.8749 89.3387 35.7299 88.675 36.7847 88.675ZM40.3002 84.7204C41.7985 84.7204 43.0129 85.3841 43.0129 86.2029C43.0129 87.0216 41.7985 87.6853 40.3002 87.6853C38.802 87.6853 37.5876 87.0216 37.5876 86.2029C37.5876 85.3841 38.802 84.7204 40.3002 84.7204ZM45.534 80.7548C47.3615 80.7548 48.8429 81.5645 48.8429 82.5632C48.8429 83.5618 47.3615 84.3715 45.534 84.3715C43.7067 84.3715 42.2253 83.5618 42.2253 82.5632C42.2253 81.5645 43.7067 80.7548 45.534 80.7548ZM52.759 76.5082C55.1998 76.5082 57.1784 77.5894 57.1784 78.9233C57.1784 80.2573 55.1998 81.3385 52.759 81.3385C50.3181 81.3385 48.3395 80.2573 48.3395 78.9233C48.3395 77.5894 50.3181 76.5082 52.759 76.5082ZM69.8501 67.5415C72.4421 67.5415 74.5433 68.6897 74.5433 70.1063C74.5433 71.5229 72.4421 72.6712 69.8501 72.6712C67.2581 72.6712 65.1569 71.5229 65.1569 70.1063C65.1569 68.6897 67.2581 67.5415 69.8501 67.5415ZM78.8401 62.7816C81.4321 62.7816 83.5333 63.9298 83.5333 65.3464C83.5333 66.763 81.4321 67.9112 78.8401 67.9112C76.2481 67.9112 74.1469 66.763 74.1469 65.3464C74.1469 63.9298 76.2481 62.7816 78.8401 62.7816ZM86.5406 57.9369C89.1326 57.9369 91.2337 59.0852 91.2337 60.5018C91.2337 61.9184 89.1326 63.0666 86.5406 63.0666C83.9486 63.0666 81.8474 61.9184 81.8474 60.5018C81.8474 59.0852 83.9486 57.9369 86.5406 57.9369ZM93.2417 53.3409C95.4681 53.3409 97.2729 54.3272 97.2729 55.544C97.2729 56.7608 95.4681 57.747 93.2417 57.747C91.0153 57.747 89.2105 56.7608 89.2105 55.544C89.2105 54.3272 91.0153 53.3409 93.2417 53.3409ZM98.3526 49.116C100.24 49.6647 101.544 50.8779 101.264 51.8266C100.985 52.7752 99.2289 53.099 97.3413 52.5505C95.4538 52.0018 94.1502 50.7885 94.4294 49.8399C94.7086 48.8913 96.465 48.5674 98.3526 49.116ZM30.6246 86.1222C31.1796 86.1222 31.6294 86.564 31.6294 87.109C31.6294 87.6541 31.1796 88.0959 30.6246 88.0959C30.0696 88.0959 29.6198 87.6541 29.6198 87.109C29.6198 86.564 30.0696 86.1222 30.6246 86.1222ZM32.9651 81.7267C34.0199 81.7267 34.8749 82.3904 34.8749 83.2092C34.8749 84.028 34.0199 84.6917 32.9651 84.6917C31.9104 84.6917 31.0554 84.028 31.0554 83.2092C31.0554 82.3904 31.9104 81.7267 32.9651 81.7267ZM37.5876 77.4409C39.0858 77.4409 40.3002 78.1046 40.3002 78.9233C40.3002 79.7421 39.0858 80.4058 37.5876 80.4058C36.0893 80.4058 34.8749 79.7421 34.8749 78.9233C34.8749 78.1046 36.0893 77.4409 37.5876 77.4409ZM43.6091 72.6712C45.4364 72.6712 46.9179 73.4808 46.9179 74.4795C46.9179 75.4781 45.4364 76.2878 43.6091 76.2878C41.7816 76.2878 40.3002 75.4781 40.3002 74.4795C40.3002 73.4808 41.7816 72.6712 43.6091 72.6712ZM52.0132 67.7994C54.454 67.7994 56.4326 68.8806 56.4326 70.2145C56.4326 71.5485 54.454 72.6297 52.0132 72.6297C49.5723 72.6297 47.5937 71.5485 47.5937 70.2145C47.5937 68.8806 49.5723 67.7994 52.0132 67.7994ZM69.8501 57.9369C72.4421 57.9369 74.5433 59.0852 74.5433 60.5018C74.5433 61.9184 72.4421 63.0666 69.8501 63.0666C67.2581 63.0666 65.1569 61.9184 65.1569 60.5018C65.1569 59.0852 67.2581 57.9369 69.8501 57.9369ZM78.8401 53.1691C81.4321 53.1691 83.5333 54.3173 83.5333 55.7339C83.5333 57.1505 81.4321 58.2988 78.8401 58.2988C76.2481 58.2988 74.1469 57.1505 74.1469 55.7339C74.1469 54.3173 76.2481 53.1691 78.8401 53.1691ZM85.8786 48.8489C88.105 48.8489 89.9098 49.8351 89.9098 51.0519C89.9098 52.2688 88.105 53.255 85.8786 53.255C83.6522 53.255 81.8474 52.2688 81.8474 51.0519C81.8474 49.8351 83.6522 48.8489 85.8786 48.8489ZM91.6627 44.7535C93.5502 45.3022 94.8539 46.5155 94.5745 47.4641C94.2953 48.4127 92.539 48.7366 90.6515 48.1879C88.7639 47.6393 87.4603 46.426 87.7395 45.4774C88.0188 44.5287 89.7751 44.2049 91.6627 44.7535ZM95.3678 40.7157C96.9542 41.1768 98.0499 42.1965 97.8151 42.9939C97.5804 43.7912 96.1043 44.0634 94.5179 43.6023C92.9313 43.1411 91.8356 42.1214 92.0704 41.324C92.3051 40.5267 93.7813 40.2544 95.3678 40.7157ZM23.0855 73.9422C23.473 73.9422 23.7871 74.2855 23.7871 74.7091C23.7871 75.1328 23.473 75.4761 23.0855 75.4761C22.6979 75.4761 22.3838 75.1328 22.3838 74.7091C22.3838 74.2855 22.6979 73.9422 23.0855 73.9422ZM27.2959 77.7211C27.9951 77.7211 28.5619 78.2777 28.5619 78.9644C28.5619 79.6511 27.9951 80.2076 27.2959 80.2076C26.5968 80.2076 26.03 79.6511 26.03 78.9644C26.03 78.2777 26.5968 77.7211 27.2959 77.7211ZM30.4716 73.155C31.5264 73.155 32.3814 73.8187 32.3814 74.6374C32.3814 75.4562 31.5264 76.1199 30.4716 76.1199C29.4169 76.1199 28.5619 75.4562 28.5619 74.6374C28.5619 73.8187 29.4169 73.155 30.4716 73.155ZM35.257 68.7321C36.7552 68.7321 37.9697 69.3958 37.9697 70.2145C37.9697 71.0333 36.7552 71.697 35.257 71.697C33.7588 71.697 32.5444 71.0333 32.5444 70.2145C32.5444 69.3958 33.7588 68.7321 35.257 68.7321ZM42.7428 63.266C44.5702 63.266 46.0516 64.0755 46.0516 65.0742C46.0516 66.073 44.5702 66.8825 42.7428 66.8825C40.9153 66.8825 39.434 66.073 39.434 65.0742C39.434 64.0755 40.9153 63.266 42.7428 63.266ZM51.314 57.9369C53.7548 57.9369 55.7334 59.0182 55.7334 60.3521C55.7334 61.686 53.7548 62.7674 51.314 62.7674C48.8731 62.7674 46.8946 61.686 46.8946 60.3521C46.8946 59.0182 48.8731 57.9369 51.314 57.9369ZM69.8501 48.7029C72.0765 48.7029 73.8813 49.689 73.8813 50.9059C73.8813 52.1227 72.0765 53.1089 69.8501 53.1089C67.6237 53.1089 65.8189 52.1227 65.8189 50.9059C65.8189 49.689 67.6237 48.7029 69.8501 48.7029ZM77.6767 44.2677C79.9032 44.2677 81.7079 45.2539 81.7079 46.4707C81.7079 47.6876 79.9032 48.6738 77.6767 48.6738C75.4504 48.6738 73.6455 47.6876 73.6455 46.4707C73.6455 45.2539 75.4504 44.2677 77.6767 44.2677ZM84.7967 40.391C86.6842 40.9396 87.9879 42.1529 87.7085 43.1016C87.4293 44.0502 85.673 44.3741 83.7854 43.8255C81.8979 43.2768 80.5943 42.0635 80.8735 41.1149C81.1528 40.1663 82.9091 39.8424 84.7967 40.391ZM89.1066 36.6422C90.6447 37.0892 91.7071 38.078 91.4795 38.8511C91.252 39.6242 89.8207 39.8881 88.2825 39.4411C86.7442 38.9939 85.6819 38.0052 85.9094 37.232C86.137 36.459 87.5683 36.195 89.1066 36.6422ZM91.1547 31.782C92.5409 32.011 94.0106 33.2791 94.0565 33.6704C94.1519 34.4831 92.7573 35.5586 91.1547 35.5586C89.5523 35.5586 88.2529 34.7133 88.2529 33.6704C88.2529 32.6274 89.7685 31.553 91.1547 31.782ZM20.7016 64.3073C21.0892 64.3073 21.4033 64.6505 21.4033 65.0742C21.4033 65.4978 21.0892 65.8411 20.7016 65.8411C20.3141 65.8411 20 65.4978 20 65.0742C20 64.6505 20.3141 64.3073 20.7016 64.3073ZM24.6341 68.9713C25.3333 68.9713 25.9001 69.5278 25.9001 70.2145C25.9001 70.9011 25.3333 71.4578 24.6341 71.4578C23.9349 71.4578 23.3682 70.9011 23.3682 70.2145C23.3682 69.5278 23.9349 68.9713 24.6341 68.9713ZM28.5619 63.5917C29.6167 63.5917 30.4716 64.2554 30.4716 65.0742C30.4716 65.8929 29.6167 66.5566 28.5619 66.5566C27.5071 66.5566 26.6522 65.8929 26.6522 65.0742C26.6522 64.2554 27.5071 63.5917 28.5619 63.5917ZM35.257 58.8696C36.7552 58.8696 37.9697 59.5333 37.9697 60.3521C37.9697 61.1709 36.7552 61.8347 35.257 61.8347C33.7588 61.8347 32.5444 61.1709 32.5444 60.3521C32.5444 59.5333 33.7588 58.8696 35.257 58.8696ZM42.7428 53.7224C44.5702 53.7224 46.0516 54.5319 46.0516 55.5307C46.0516 56.5294 44.5702 57.3389 42.7428 57.3389C40.9153 57.3389 39.434 56.5294 39.434 55.5307C39.434 54.5319 40.9153 53.7224 42.7428 53.7224ZM51.9397 48.8326C54.0349 48.8326 55.7334 49.7608 55.7334 50.9059C55.7334 52.051 54.0349 52.9792 51.9397 52.9792C49.8445 52.9792 48.146 52.051 48.146 50.9059C48.146 49.7608 49.8445 48.8326 51.9397 48.8326ZM69.4891 40.4911C71.3974 40.4911 72.9443 41.3364 72.9443 42.3794C72.9443 43.4224 71.3974 44.2677 69.4891 44.2677C67.5808 44.2677 66.0338 43.4224 66.0338 42.3794C66.0338 41.3364 67.5808 40.4911 69.4891 40.4911ZM76.6588 36.2688C78.8852 36.2688 80.6899 37.255 80.6899 38.4718C80.6899 39.6886 78.8852 40.6748 76.6588 40.6748C74.4324 40.6748 72.6277 39.6886 72.6277 38.4718C72.6277 37.255 74.4324 36.2688 76.6588 36.2688ZM81.784 32.8069C83.6923 32.8069 85.2393 33.6522 85.2393 34.6952C85.2393 35.7382 83.6923 36.5835 81.784 36.5835C79.8757 36.5835 78.3288 35.7382 78.3288 34.6952C78.3288 33.6522 79.8757 32.8069 81.784 32.8069ZM84.6098 29.7263C86.2124 29.7263 87.5115 30.3789 87.5115 31.1844C87.5115 31.9899 86.2124 32.6424 84.6098 32.6424C83.007 32.6424 81.7079 31.9899 81.7079 31.1844C81.7079 30.3789 83.007 29.7263 84.6098 29.7263ZM85.8215 26.9273C86.6198 26.9273 87.267 27.2809 87.267 27.7172C87.267 28.1537 86.6198 28.5073 85.8215 28.5073C85.0232 28.5073 84.3761 28.1537 84.3761 27.7172C84.3761 27.2809 85.0232 26.9273 85.8215 26.9273ZM20.7016 54.8454C21.0892 54.8454 21.4033 55.1887 21.4033 55.6123C21.4033 56.0359 21.0892 56.3792 20.7016 56.3792C20.3141 56.3792 20 56.0359 20 55.6123C20 55.1887 20.3141 54.8454 20.7016 54.8454ZM23.4838 59.2345C24.2589 59.2345 24.8871 59.7347 24.8871 60.3521C24.8871 60.9695 24.2589 61.4698 23.4838 61.4698C22.7088 61.4698 22.0806 60.9695 22.0806 60.3521C22.0806 59.7347 22.7088 59.2345 23.4838 59.2345ZM28.6196 54.4946C29.3946 54.4946 30.0228 54.9949 30.0228 55.6123C30.0228 56.2296 29.3946 56.73 28.6196 56.73C27.8446 56.73 27.2163 56.2296 27.2163 55.6123C27.2163 54.9949 27.8446 54.4946 28.6196 54.4946ZM35.257 49.3988C36.4284 49.3988 37.3779 49.9178 37.3779 50.5579C37.3779 51.198 36.4284 51.717 35.257 51.717C34.0857 51.717 33.1362 51.198 33.1362 50.5579C33.1362 49.9178 34.0857 49.3988 35.257 49.3988ZM43.6342 45.2228C44.8055 45.2228 45.7551 45.7418 45.7551 46.3819C45.7551 47.022 44.8055 47.541 43.6342 47.541C42.4628 47.541 41.5133 47.022 41.5133 46.3819C41.5133 45.7418 42.4628 45.2228 43.6342 45.2228ZM52.0303 40.8014C53.625 40.8014 54.9177 41.5079 54.9177 42.3794C54.9177 43.251 53.625 43.9575 52.0303 43.9575C50.4355 43.9575 49.1428 43.251 49.1428 42.3794C49.1428 41.5079 50.4355 40.8014 52.0303 40.8014ZM68.8043 32.8069C70.3989 32.8069 71.6918 33.5134 71.6918 34.3849C71.6918 35.2565 70.3989 35.9629 68.8043 35.9629C67.2096 35.9629 65.9168 35.2565 65.9168 34.3849C65.9168 33.5134 67.2096 32.8069 68.8043 32.8069ZM74.5792 29.4865C76.1739 29.4865 77.4667 30.193 77.4667 31.0645C77.4667 31.936 76.1739 32.6424 74.5792 32.6424C72.9845 32.6424 71.6918 31.936 71.6918 31.0645C71.6918 30.193 72.9845 29.4865 74.5792 29.4865ZM78.0219 26.2094C79.4954 26.2094 80.6899 26.862 80.6899 27.6675C80.6899 28.473 79.4954 29.1256 78.0219 29.1256C76.5483 29.1256 75.3538 28.473 75.3538 27.6675C75.3538 26.862 76.5483 26.2094 78.0219 26.2094ZM79.902 23.9518C80.9415 23.9518 81.784 24.4122 81.784 24.9802C81.784 25.5483 80.9415 26.0087 79.902 26.0087C78.8627 26.0087 78.0201 25.5483 78.0201 24.9802C78.0201 24.4122 78.8627 23.9518 79.902 23.9518ZM24.4098 50.1831C25.1848 50.1831 25.813 50.5264 25.813 50.9501C25.813 51.3737 25.1848 51.717 24.4098 51.717C23.6347 51.717 23.0066 51.3737 23.0066 50.9501C23.0066 50.5264 23.6347 50.1831 24.4098 50.1831ZM30.0685 45.2228C31.2399 45.2228 32.1894 45.7418 32.1894 46.3819C32.1894 47.022 31.2399 47.541 30.0685 47.541C28.8971 47.541 27.9476 47.022 27.9476 46.3819C27.9476 45.7418 28.8971 45.2228 30.0685 45.2228ZM37.3779 40.8014C38.5493 40.8014 39.4988 41.3204 39.4988 41.9605C39.4988 42.6006 38.5493 43.1196 37.3779 43.1196C36.2065 43.1196 35.257 42.6006 35.257 41.9605C35.257 41.3204 36.2065 40.8014 37.3779 40.8014ZM45.2585 36.659C46.8532 36.659 48.146 37.3654 48.146 38.2369C48.146 39.1085 46.8532 39.815 45.2585 39.815C43.6638 39.815 42.3711 39.1085 42.3711 38.2369C42.3711 37.3654 43.6638 36.659 45.2585 36.659ZM53.6536 32.8782C55.2482 32.8782 56.541 33.5846 56.541 34.4561C56.541 35.3277 55.2482 36.0341 53.6536 36.0341C52.0588 36.0341 50.7661 35.3277 50.7661 34.4561C50.7661 33.5846 52.0588 32.8782 53.6536 32.8782ZM73.9106 22.2412C74.7088 22.2412 75.356 22.5948 75.356 23.0312C75.356 23.4676 74.7088 23.8212 73.9106 23.8212C73.1122 23.8212 72.4651 23.4676 72.4651 23.0312C72.4651 22.5948 73.1122 22.2412 73.9106 22.2412ZM71.7897 24.1903C72.961 24.1903 73.9106 24.709 73.9106 25.3494C73.9106 25.9897 72.961 26.5084 71.7897 26.5084C70.6183 26.5084 69.6688 25.9897 69.6688 25.3494C69.6688 24.709 70.6183 24.1903 71.7897 24.1903ZM67.4567 26.1393C69.0514 26.1393 70.3442 26.8458 70.3442 27.7172C70.3442 28.5888 69.0514 29.2953 67.4567 29.2953C65.8621 29.2953 64.5692 28.5888 64.5692 27.7172C64.5692 26.8458 65.8621 26.1393 67.4567 26.1393ZM66.0147 21.9773C66.813 21.9773 67.4602 22.3309 67.4602 22.7672C67.4602 23.2037 66.813 23.5572 66.0147 23.5572C65.2164 23.5572 64.5692 23.2037 64.5692 22.7672C64.5692 22.3309 65.2164 21.9773 66.0147 21.9773ZM68.2553 20.2685C68.6944 20.2685 69.0504 20.463 69.0504 20.703C69.0504 20.943 68.6944 21.1375 68.2553 21.1375C67.8161 21.1375 67.4602 20.943 67.4602 20.703C67.4602 20.463 67.8161 20.2685 68.2553 20.2685ZM64.0133 19.0833C64.4524 19.0833 64.8083 19.2779 64.8083 19.5179C64.8083 19.7579 64.4524 19.9524 64.0133 19.9524C63.5742 19.9524 63.2182 19.7579 63.2182 19.5179C63.2182 19.2779 63.5742 19.0833 64.0133 19.0833ZM22.7823 46.3819C23.1698 46.3819 23.4838 46.7252 23.4838 47.1488C23.4838 47.5724 23.1698 47.9157 22.7823 47.9157C22.3948 47.9157 22.0806 47.5724 22.0806 47.1488C22.0806 46.7252 22.3948 46.3819 22.7823 46.3819ZM37.067 27.0804C37.7106 27.0804 38.2324 27.3654 38.2324 27.7172C38.2324 28.0692 37.7106 28.3541 37.067 28.3541C36.4233 28.3541 35.9015 28.0692 35.9015 27.7172C35.9015 27.3654 36.4233 27.0804 37.067 27.0804ZM42.6793 24.5074C43.3229 24.5074 43.8447 24.7924 43.8447 25.1442C43.8447 25.4961 43.3229 25.7811 42.6793 25.7811C42.0356 25.7811 41.5139 25.4961 41.5139 25.1442C41.5139 24.7924 42.0356 24.5074 42.6793 24.5074ZM49.0075 21.9181C49.6512 21.9181 50.173 22.2031 50.173 22.555C50.173 22.9069 49.6512 23.1919 49.0075 23.1919C48.3638 23.1919 47.8421 22.9069 47.8421 22.555C47.8421 22.2031 48.3638 21.9181 49.0075 21.9181ZM54.3511 20.0662C54.9947 20.0662 55.5164 20.3512 55.5164 20.703C55.5164 21.0549 54.9947 21.3399 54.3511 21.3399C53.7074 21.3399 53.1857 21.0549 53.1857 20.703C53.1857 20.3512 53.7074 20.0662 54.3511 20.0662ZM58.7328 19C59.256 19 59.6803 19.2318 59.6803 19.5179C59.6803 19.804 59.256 20.0357 58.7328 20.0357C58.2094 20.0357 57.7851 19.804 57.7851 19.5179C57.7851 19.2318 58.2094 19 58.7328 19ZM27.2163 41.1936C27.9914 41.1936 28.6196 41.5369 28.6196 41.9605C28.6196 42.3841 27.9914 42.7274 27.2163 42.7274C26.4413 42.7274 25.813 42.3841 25.813 41.9605C25.813 41.5369 26.4413 41.1936 27.2163 41.1936ZM33.1362 36.6687C34.3075 36.6687 35.257 37.1875 35.257 37.8277C35.257 38.4679 34.3075 38.9868 33.1362 38.9868C31.9648 38.9868 31.0152 38.4679 31.0152 37.8277C31.0152 37.1875 31.9648 36.6687 33.1362 36.6687ZM39.9578 33.2258C41.1292 33.2258 42.0788 33.7447 42.0788 34.3849C42.0788 35.0251 41.1292 35.544 39.9578 35.544C38.7865 35.544 37.8369 35.0251 37.8369 34.3849C37.8369 33.7447 38.7865 33.2258 39.9578 33.2258ZM47.6286 29.578C48.9376 29.578 49.9987 30.1579 49.9987 30.8733C49.9987 31.5887 48.9376 32.1686 47.6286 32.1686C46.3197 32.1686 45.2585 31.5887 45.2585 30.8733C45.2585 30.1579 46.3197 29.578 47.6286 29.578ZM31.0254 33.0897C31.9025 33.0897 32.6135 33.4781 32.6135 33.9576C32.6135 34.437 31.9025 34.8256 31.0254 34.8256C30.1483 34.8256 29.4373 34.437 29.4373 33.9576C29.4373 33.4781 30.1483 33.0897 31.0254 33.0897ZM37.3779 29.5469C38.5493 29.5469 39.4988 30.0657 39.4988 30.706C39.4988 31.3463 38.5493 31.8651 37.3779 31.8651C36.2065 31.8651 35.257 31.3463 35.257 30.706C35.257 30.0657 36.2065 29.5469 37.3779 29.5469ZM44.4488 26.5582C45.6202 26.5582 46.5697 27.077 46.5697 27.7172C46.5697 28.3576 45.6202 28.8764 44.4488 28.8764C43.2774 28.8764 42.3279 28.3576 42.3279 27.7172C42.3279 27.077 43.2774 26.5582 44.4488 26.5582ZM51.2825 23.714C52.4538 23.714 53.4034 24.2329 53.4034 24.8731C53.4034 25.5134 52.4538 26.0323 51.2825 26.0323C50.1112 26.0323 49.1617 25.5134 49.1617 24.8731C49.1617 24.2329 50.1112 23.714 51.2825 23.714ZM56.7929 21.3959C57.9642 21.3959 58.9137 21.9147 58.9137 22.555C58.9137 23.1953 57.9642 23.714 56.7929 23.714C55.6215 23.714 54.672 23.1953 54.672 22.555C54.672 21.9147 55.6215 21.3959 56.7929 21.3959ZM61.1257 20.1852C61.9241 20.1852 62.5713 20.5387 62.5713 20.9751C62.5713 21.4115 61.9241 21.7651 61.1257 21.7651C60.3275 21.7651 59.6803 21.4115 59.6803 20.9751C59.6803 20.5387 60.3275 20.1852 61.1257 20.1852ZM61.1257 99.1311C62.07 99.1311 62.8355 99.5495 62.8355 100.066C62.8355 100.582 62.07 101 61.1257 101C60.1815 101 59.416 100.582 59.416 100.066C59.416 99.5495 60.1815 99.1311 61.1257 99.1311ZM61.1257 94.5145C62.6281 94.5145 63.846 95.1802 63.846 96.0012C63.846 96.8222 62.6281 97.4878 61.1257 97.4878C59.6235 97.4878 58.4055 96.8222 58.4055 96.0012C58.4055 95.1802 59.6235 94.5145 61.1257 94.5145ZM60.4641 88.5048C62.2169 87.8448 63.9341 88.0862 64.2996 89.044C64.665 90.0021 63.5401 91.3136 61.7874 91.9738C60.0346 92.6338 58.3174 92.3924 57.952 91.4345C57.5866 90.4765 58.7114 89.1648 60.4641 88.5048ZM61.1257 80.4058C63.3059 80.4058 65.0732 81.3716 65.0732 82.5631C65.0732 83.7546 63.3059 84.7204 61.1257 84.7204C58.9457 84.7204 57.1784 83.7546 57.1784 82.5631C57.1784 81.3716 58.9457 80.4058 61.1257 80.4058ZM61.1257 71.9146C63.7178 71.9146 65.8189 73.0628 65.8189 74.4794C65.8189 75.896 63.7178 77.0442 61.1257 77.0442C58.5338 77.0442 56.4326 75.896 56.4326 74.4794C56.4326 73.0628 58.5338 71.9146 61.1257 71.9146ZM61.1257 62.7816C63.7178 62.7816 65.8189 63.9298 65.8189 65.3464C65.8189 66.763 63.7178 67.9112 61.1257 67.9112C58.5338 67.9112 56.4326 66.763 56.4326 65.3464C56.4326 63.9298 58.5338 62.7816 61.1257 62.7816ZM61.1257 52.9792C63.7178 52.9792 65.8189 54.1274 65.8189 55.544C65.8189 56.9606 63.7178 58.1088 61.1257 58.1088C58.5338 58.1088 56.4326 56.9606 56.4326 55.544C56.4326 54.1274 58.5338 52.9792 61.1257 52.9792ZM61.1257 44.1419C63.5183 44.1419 65.4579 45.2017 65.4579 46.5093C65.4579 47.8169 63.5183 48.8768 61.1257 48.8768C58.7332 48.8768 56.7936 47.8169 56.7936 46.5093C56.7936 45.2017 58.7332 44.1419 61.1257 44.1419ZM61.1257 36.2732C63.1104 36.2732 64.7192 37.1523 64.7192 38.2369C64.7192 39.3216 63.1104 40.2007 61.1257 40.2007C59.1412 40.2007 57.5324 39.3216 57.5324 38.2369C57.5324 37.1523 59.1412 36.2732 61.1257 36.2732ZM61.1257 29.4865C62.7205 29.4865 64.0132 30.193 64.0132 31.0645C64.0132 31.936 62.7205 32.6424 61.1257 32.6424C59.531 32.6424 58.2383 31.936 58.2383 31.0645C58.2383 30.193 59.531 29.4865 61.1257 29.4865ZM54.9177 26.1393C56.5125 26.1393 57.8052 26.8458 57.8052 27.7172C57.8052 28.5888 56.5125 29.2953 54.9177 29.2953C53.323 29.2953 52.0303 28.5888 52.0303 27.7172C52.0303 26.8458 53.323 26.1393 54.9177 26.1393Z" fill="url(#paint0_linear_273_213)"/>
</g>
<defs>
<linearGradient id="paint0_linear_273_213" x1="20" y1="60" x2="110" y2="60" gradientUnits="userSpaceOnUse">
<stop stop-color="#ADF3AB"/>
<stop offset="0.25098" stop-color="#9FE78B"/>
<stop offset="0.568627" stop-color="#B7D32C"/>
<stop offset="1" stop-color="#F4F483"/>
</linearGradient>
</defs>
</svg>
