<svg width="120" height="120" viewBox="0 0 120 120" fill="none" xmlns="http://www.w3.org/2000/svg">
<rect width="120" height="120" fill="#008455"/>
<path fill-rule="evenodd" clip-rule="evenodd" d="M49.8695 53.9432L39.7573 53.9073L39.7791 42.0229L33.0319 42.0152L33 74.0177L39.7416 73.9839L39.7904 60.2534L49.8651 60.2553L49.884 74.0219L56.4693 73.9891L56.5311 42.0055L49.9685 42.0032L49.8695 53.9432Z" fill="#FED500"/>
<path fill-rule="evenodd" clip-rule="evenodd" d="M86 62.7219L79.5132 62.7105C78.509 64.6734 79.0504 65.9665 77.0844 67.5283C73.6978 70.2188 66.4089 69.1997 66.3946 58.367C66.3883 53.6366 67.3946 49.3029 70.7413 47.7731C73.11 46.6904 76.8205 47.1478 78.3526 50.0995C78.5743 50.5266 78.7064 50.9008 78.8692 51.5007C79.353 53.2817 78.3018 52.8431 85.7081 52.8412C85.4027 44.5238 78.5963 39.6355 70.0768 41.3364C62.3791 42.8734 59.1836 49.5007 59.1637 58.3668C59.1427 67.7609 62.386 73.573 70.6953 74.7991C79.5101 76.0996 85.5031 70.9735 86 62.7219Z" fill="#FED500"/>
</svg>
