<svg width="120" height="120" viewBox="0 0 120 120" fill="none" xmlns="http://www.w3.org/2000/svg">
<rect width="120" height="120" fill="#1A4378"/>
<path fill-rule="evenodd" clip-rule="evenodd" d="M41.9988 40.873C37.641 41.3994 34.0508 43.1788 31.4685 45.4839C28.3774 48.243 26.9875 51.2181 26.3465 55.4435C24.9227 64.8317 28.0862 73.3358 32.1894 79.2043C41.5851 92.6424 60.0248 97.0127 74.8499 88.9692C78.144 87.1819 81.2671 84.6686 83.312 82.3414C83.4556 82.178 87.3637 77.8224 85.8284 78.3699L83.3862 79.7453C78.4792 82.1339 72.8117 82.4902 67.5471 80.9246C53.5213 76.7536 46.8901 59.1848 56.8859 46.3275C57.3328 45.7527 56.847 45.5554 56.4237 45.2139C52.6241 42.1491 47.6992 40.1845 41.9988 40.873Z" fill="white"/>
<path fill-rule="evenodd" clip-rule="evenodd" d="M31.8323 41.6168C32.2638 41.7514 33.5753 40.8584 34.2965 40.467C36.724 39.1498 40.4404 38.2096 43.3368 38.1395C48.1521 38.0231 51.9538 39.2574 55.3183 41.2357C65.7172 47.3504 69.4358 61.6934 62.2511 72.2282C61.3142 73.6021 60.6512 73.9569 61.227 74.4737C71.5574 83.7452 89.4957 78.8703 91.5984 65.2681C93.8183 50.9071 86.6767 37.0691 74.111 30.6323C66.9274 26.9525 57.6778 25.717 48.9613 28.5764C45.1253 29.8348 41.9193 31.5776 39.0503 33.7501C37.5982 34.8496 36.1969 36.1502 35.0558 37.343C34.62 37.7984 31.7546 40.9047 31.8323 41.6168Z" fill="white"/>
</svg>
