<svg width="120" height="120" viewBox="0 0 120 120" fill="none" xmlns="http://www.w3.org/2000/svg">
<rect width="120" height="120" fill="#8C2830"/>
<path fill-rule="evenodd" clip-rule="evenodd" d="M34.4455 41.5983L41.6197 49.1187L43.4118 46.9123C44.0236 46.1378 44.8139 45.6627 45.3105 44.7781L41.7713 41.1244C44.0961 38.2462 50.5424 34.8507 54.5188 33.6341C73.1441 27.9351 89.1595 41.8653 84.7212 60.4296C82.2368 70.8221 74.5296 78.466 65.9279 82.2332C58.4332 85.5157 48.7155 85.6988 41.5293 81.0163C39.983 80.0086 37.0843 77.6631 36.2724 76.0739C36.7863 75.3212 39.6787 73.4248 40.9527 72.2247C40.6787 71.5281 40.0831 70.8555 39.7064 70.1309C39.3526 69.4503 38.99 68.4699 38.6182 67.8705C38.059 68.0757 36.6987 69.2461 36.2001 69.6309L29 75.2482C29.4806 76.5405 30.6407 78.2972 31.3837 79.3167C32.9146 81.4169 33.1291 81.304 34.446 82.7721C36.1753 84.7 39.8859 86.8212 42.4904 87.9268C49.3247 90.8284 57.9167 90.496 64.9323 88.0964C76.7293 84.0617 87.1968 73.6524 90.1803 60.5419C95.5327 37.0217 73.8416 19.6752 49.3348 30.0923C43.3206 32.6488 37.558 37.5264 34.4455 41.5983Z" fill="white"/>
<path fill-rule="evenodd" clip-rule="evenodd" d="M76.6318 61.0464L47.2778 61.0496C47.1629 62.5163 48.2707 65.6052 49.2902 66.0268L68.0132 66.0288C67.1695 67.535 64.0917 69.6444 61.8932 70.4776C51.9609 74.2416 43.4398 67.2026 45.6205 57.6613C46.8293 52.3724 51.0009 48.1812 55.6146 46.4349C59.7995 44.8512 64.5306 45.1808 68.114 47.9787C68.899 48.5917 70.0842 49.9385 70.4444 50.9374C65.3414 51.1388 58.8343 50.9697 53.4587 50.9558C51.717 50.9513 51.5678 50.6763 50.7157 51.7295C50.0647 52.5344 48.3079 54.5402 48.106 55.9545L77.4573 55.9528C78.0949 51.4378 75.2597 46.4383 71.9683 43.6041C68.7878 40.8655 63.3494 39.4134 57.9587 40.4235C49.1536 42.0734 41.5446 49.4226 40.0306 58.263C38.1538 69.2224 46.1126 77.3079 56.632 76.8991C61.8012 76.6982 66.4405 74.2863 69.391 71.8159C72.0816 69.5631 76.2603 64.5616 76.6318 61.0464Z" fill="white"/>
</svg>
