<svg width="120" height="120" viewBox="0 0 120 120" fill="none" xmlns="http://www.w3.org/2000/svg">
<rect width="120" height="120" fill="#F2CD12"/>
<path fill-rule="evenodd" clip-rule="evenodd" d="M77 74.9999H91.2082C96.8875 74.9999 101 72.8553 101 67.1306C101 63.0414 98.6445 60.973 95.24 60.0318C97.2935 58.7762 99.6265 58.3715 99.6265 53.8368C99.6265 48.6527 95.4525 46.9999 90.4504 46.9999H77V74.9999ZM83.6311 69.5575C88.0822 69.5575 94.0086 70.6224 94.0212 66.3745C94.034 62.0625 87.2598 63.2257 83.7134 63.2257L83.6311 69.5575ZM83.6305 58.0745H89.3139C91.2904 58.0745 92.8222 57.256 92.9012 55.3484C92.9846 53.3386 91.2589 52.5076 89.3139 52.5076H83.6305V58.0745Z" fill="#165492"/>
<path fill-rule="evenodd" clip-rule="evenodd" d="M48.0001 74.9988H54.1951L54.1997 56.6486C55.2617 57.9487 64.1058 74.7731 64.5827 74.9755L70.9352 74.9999L71 46.9999L64.856 47.0055L64.8198 62.4118C64.7723 62.3746 64.7182 62.2627 64.7013 62.2962L55.6455 46.9999H48.0444L48.0001 74.9988Z" fill="#165492"/>
<path fill-rule="evenodd" clip-rule="evenodd" d="M20.0932 54.637C20.0932 61.1013 23.3814 62.2227 30.2411 63.7358C32.7407 64.2872 35.8166 64.8879 36.6643 66.5759C38.2493 69.7327 34.4833 70.6563 31.9696 70.6563C28.5345 70.6563 26.1598 69.4934 26.0743 66.2908H19C19.6341 73.9897 25.0479 75.9999 32.3625 75.9999C38.8367 75.9999 44 73.1285 44 66.931C44 57.0033 29.5518 59.7256 27.4208 56.1556C25.7103 53.29 29.9373 51.6244 33.7078 52.6041C35.4066 53.0455 36.045 53.803 36.527 55.3238H42.974C43.2043 50.1705 38.0377 46.9999 32.5591 46.9999C26.7106 46.9999 20.0932 48.3494 20.0932 54.637Z" fill="#165492"/>
<path fill-rule="evenodd" clip-rule="evenodd" d="M44.0575 -6.10352e-05H38L65.8302 44.9999C66.1607 43.2316 65.9039 38.8643 65.9205 36.8034C65.9346 35.0517 65.5504 34.8697 64.8305 33.6998L56.8097 20.7454C53.5125 15.4257 48.8185 8.09837 45.6991 2.75488C45.1525 1.8184 44.5323 0.966274 44.0575 -6.10352e-05Z" fill="#165492"/>
<path fill-rule="evenodd" clip-rule="evenodd" d="M53.5918 -6.10352e-05H49C50.1129 2.07393 59.5128 16.2894 61.5897 19.4754C62.3475 20.6378 62.9534 21.5674 63.6993 22.6994C64.2446 23.5268 65.2946 25.4202 65.9248 25.9999C66.0614 24.548 65.9693 22.8427 65.9738 21.3605C65.981 18.9251 66.0722 19.3374 64.9474 17.6357L57.3795 5.9496C56.1896 4.10344 54.5688 1.89563 53.5918 -6.10352e-05Z" fill="#165492"/>
<path fill-rule="evenodd" clip-rule="evenodd" d="M61.9498 -6.10352e-05H58L65.9066 10.9999C66.0695 9.84455 65.9678 8.64686 65.9773 7.48092C66.0057 3.98137 64.3653 4.38737 61.9498 -6.10352e-05Z" fill="#165492"/>
</svg>
