<svg width="120" height="120" viewBox="0 0 120 120" fill="none" xmlns="http://www.w3.org/2000/svg">
<g clip-path="url(#clip0_273_515)">
<rect width="120" height="120" fill="#F5E4E4"/>
<path fill-rule="evenodd" clip-rule="evenodd" d="M56.5632 73.8996C56.6547 74.119 60.5527 77.0844 60.7967 77.2622C61.9929 78.1342 63.3734 79.3337 64.5309 80.1732C64.747 80.3298 64.9366 80.4546 65.0716 80.6194C65.4872 80.5743 66.2056 80.014 66.6135 79.7815C67.3939 79.3369 68.8968 78.6512 69.7447 78.2798C70.2714 78.049 70.9565 77.8419 71.4251 77.586C71.3525 77.4184 69.2128 75.8043 68.8825 75.556C68.6164 75.3557 68.3074 75.119 68.0214 74.8859C66.6396 73.7599 65.0684 72.6265 63.6942 71.517C63.5302 71.3845 62.9233 70.8885 62.7875 70.8838C62.4435 70.8721 56.9155 73.3304 56.563 73.8996H56.5632Z" fill="#D02023"/>
<path fill-rule="evenodd" clip-rule="evenodd" d="M53.5889 43.6717C53.8268 43.7855 55.3571 45.035 55.7305 45.3163L62.2074 50.3333C62.9352 50.0617 67.0312 46.7692 67.2874 46.3779C67.1647 46.2392 59.0696 39.9046 58.675 39.6709L53.9218 43.3633C53.8522 43.4093 53.8241 43.4195 53.7646 43.4666L53.5889 43.6717Z" fill="#F2929E"/>
<path fill-rule="evenodd" clip-rule="evenodd" d="M84.7642 58.4517C84.8578 58.672 86.6922 60.0326 86.86 60.16C88.2199 61.1934 89.8154 62.5384 91.1744 63.5455C91.38 63.6979 91.4864 63.8032 91.7018 63.9637C92.0296 64.2073 93.2189 65.2205 93.3671 65.2035C93.8358 64.9723 97.2428 61.2833 97.6328 60.6661C97.5253 60.42 95.7963 59.187 95.4996 58.9551L89.5534 54.3567C89.3745 54.2166 89.1713 54.0065 88.9385 53.9592L84.7643 58.4518L84.7642 58.4517Z" fill="#E53A2E"/>
<path fill-rule="evenodd" clip-rule="evenodd" d="M71.793 67.1677C72.0734 67.3148 77.6806 71.7246 78.239 72.1578L80.3844 73.8471C81.0119 73.7248 84.1129 71.9896 84.9602 71.5035C85.3748 71.2657 86.0478 70.7887 86.4203 70.6455C86.282 70.3939 79.3701 65.066 78.8697 64.6716C78.566 64.4323 78.0454 63.9621 77.7609 63.8354C77.5469 63.9467 77.258 64.1444 77.0483 64.2763C75.3331 65.3542 73.9119 66.0311 72.1631 66.9302L71.888 67.0818C71.8034 67.1446 71.8515 67.1026 71.7931 67.1675L71.793 67.1677Z" fill="#FFAAAD"/>
<path fill-rule="evenodd" clip-rule="evenodd" d="M81.1816 37.112C81.3721 37.2112 81.5365 37.3742 81.7204 37.5152L87.6776 42.1551C88.0229 42.4245 89.6373 43.7282 89.8782 43.8345C90.3519 42.9747 92.5805 38.8414 92.7229 38.153C92.5018 37.9125 88.8256 35.1025 88.443 34.7986C88.0742 34.5056 87.7452 34.2549 87.3749 33.9691C86.8061 33.5304 84.328 31.5369 84.0746 31.4502C83.9012 31.8808 83.6105 32.4455 83.3935 32.8722L81.9329 35.6828C81.7655 35.9868 81.2302 36.8165 81.1816 37.1119V37.112Z" fill="#E5AB11"/>
<path fill-rule="evenodd" clip-rule="evenodd" d="M32.6424 77.1161L32.6331 77.1728C32.287 77.7523 30.786 81.142 30.7422 81.861C31.0469 82.1561 31.4725 82.4329 31.8039 82.6875C32.1888 82.9828 32.5296 83.2308 32.9089 83.5316L39.4364 88.5549C39.614 88.1348 39.7937 87.488 39.964 87.0295C40.2972 86.132 40.8071 84.9309 41.2303 84.0788C41.397 83.7432 41.8474 82.9567 41.9353 82.652C41.8049 82.4513 39.7591 80.9126 39.3966 80.6294C38.9619 80.2899 38.5554 79.9685 38.1213 79.6364L36.8423 78.6605C36.5787 78.4008 33.5013 76.0109 33.3147 75.9382C33.2038 76.0384 33.1973 76.0635 33.1104 76.2293C33.0482 76.3481 33.0096 76.4191 32.9473 76.5414C32.8492 76.734 32.7645 76.944 32.6424 77.1161Z" fill="#D36625"/>
<path fill-rule="evenodd" clip-rule="evenodd" d="M22.5734 62.946C22.3386 63.4776 21.3173 64.7102 21.2476 65.1476C21.4511 65.3822 25.2452 68.2875 25.5618 68.5284C25.9443 68.8194 26.258 69.0689 26.6263 69.3587L29.3244 71.4579C29.4939 71.5924 29.7046 71.8239 29.9223 71.8335C29.971 71.6389 30.6024 70.684 30.7319 70.4757C31.1762 69.76 32.4087 68.0305 32.9635 67.382C33.106 67.2154 33.3453 66.9882 33.4321 66.7823C33.3333 66.591 29.4325 63.5808 29.1467 63.3575L25.9252 60.8327C25.7599 60.7009 25.5505 60.5456 25.3909 60.4179C25.1831 60.2516 25.0468 60.0945 24.826 60.0151C24.3213 60.4134 22.7242 62.843 22.5732 62.9463L22.5734 62.946Z" fill="#B02624"/>
<path fill-rule="evenodd" clip-rule="evenodd" d="M72.6659 48.0589C72.5477 48.2733 72.1946 48.4818 72.1133 48.6977C72.4013 48.969 72.7937 49.2376 73.0919 49.4654L79.9226 54.8054C80.2489 54.97 80.4968 55.3091 80.8228 55.4402C81.2078 55.0506 81.5755 54.6821 81.9172 54.3308C82.529 53.7018 84.8106 51.4031 85.0275 50.8058C84.7271 50.6318 84.2365 50.1967 83.9279 49.9642C83.1605 49.3858 76.5444 44.2159 76.3375 44.1309C75.9877 44.4457 75.7674 44.8387 75.4721 45.1435L74.1329 46.6513C73.9775 46.8193 73.8104 46.9535 73.6535 47.1205C73.3832 47.4083 73.0053 47.8896 72.6657 48.0588L72.6659 48.0589Z" fill="#FED639"/>
<path fill-rule="evenodd" clip-rule="evenodd" d="M38.7998 50.7585C38.9085 50.9165 39.4423 51.3035 39.6342 51.4463L42.244 53.477C42.8375 53.9347 43.4157 54.3727 43.994 54.8392C44.2766 55.0674 44.5575 55.2735 44.8555 55.5066L46.6004 56.8706C46.7468 56.9812 46.8725 57.0798 47.0166 57.1918C47.1472 57.2934 47.3354 57.4924 47.4784 57.4802C47.5914 57.4705 49.4477 56.7147 49.7094 56.6076C51.2154 55.9919 52.6384 55.4296 54.0782 54.7531L51.9427 53.0564C50.1541 51.7004 48.3066 50.1777 46.5462 48.8581C46.364 48.7215 46.2053 48.5916 46.0086 48.4459C45.8278 48.312 45.6263 48.1248 45.4411 48.0247L42.1584 49.4226C41.0419 49.8613 39.9413 50.3282 38.7998 50.7588V50.7585Z" fill="#F2929E"/>
<path fill-rule="evenodd" clip-rule="evenodd" d="M51.4175 60.5751L59.2233 66.656C60.3322 67.4878 59.6464 67.4988 62.3574 66.4018C63.6533 65.8775 65.1589 65.2667 66.4326 64.6778L66.6019 64.5866C66.61 64.5809 66.6232 64.5693 66.6301 64.5639L66.682 64.515C66.4164 64.2635 66.111 64.0659 65.833 63.8425C63.8867 62.2787 61.6981 60.6787 59.7516 59.1144C59.5942 58.9881 58.1877 57.8212 58.008 57.8388C57.9307 57.8464 56.105 58.6694 55.839 58.7799C55.1013 59.0861 54.3603 59.357 53.6246 59.6733L51.4175 60.5751Z" fill="#FFD73C"/>
<path fill-rule="evenodd" clip-rule="evenodd" d="M46.6328 47.5378L46.75 47.6514C47.8266 48.5769 49.7304 49.917 50.9291 50.908C51.2785 51.1969 51.6401 51.462 52.0009 51.7336C52.1864 51.8733 52.3761 52.0221 52.5365 52.149L54.6661 53.8146C54.8248 53.9392 55.0672 54.1478 55.248 54.2444C56.0859 53.9581 60.7595 51.4443 61.2172 51.0173C61.0866 50.8357 59.2417 49.4453 59.0661 49.3077C58.3479 48.7449 57.6455 48.1881 56.9071 47.6175C55.4529 46.4942 53.991 45.375 52.5648 44.229C52.3567 44.3115 52.0878 44.5075 51.8791 44.6424C50.2597 45.6888 48.5499 46.5281 46.8358 47.4005L46.6328 47.5375V47.5378Z" fill="#FFAAAD"/>
<path fill-rule="evenodd" clip-rule="evenodd" d="M64.0024 70.3673C64.0095 70.3774 64.022 70.3798 64.0256 70.3959L72.6467 77.0791C72.9757 77.0394 73.9813 76.6009 74.3573 76.4536C74.9281 76.23 75.4595 76.0228 76.019 75.8007L79.3084 74.4379C79.2323 74.2675 79.2105 74.2817 79.0676 74.1728C78.9687 74.0971 78.8922 74.0328 78.8036 73.9644L72.8463 69.3242C72.6533 69.1686 72.4902 69.0535 72.3127 68.9074L70.6432 67.6189L67.3419 69.0124C66.7783 69.253 66.2487 69.4593 65.6865 69.6804C65.2438 69.8545 64.3738 70.1445 64.0024 70.3674V70.3673Z" fill="#F2929E"/>
<path fill-rule="evenodd" clip-rule="evenodd" d="M78.423 57.4841L79.5698 56.5155C79.6951 56.4232 79.8154 56.2916 79.9131 56.1843C79.7515 56.0346 79.3851 55.7963 79.3064 55.6258C79.1157 55.5824 78.5116 55.0621 78.3068 54.9003L73.3207 51.0286C73.0213 50.7897 71.489 49.5547 71.2759 49.4727C71.0742 49.596 70.8623 49.819 70.6671 49.9858L68.801 51.494C68.3619 51.8442 67.9573 52.1659 67.5109 52.4716C67.2831 52.6274 67.1038 52.773 66.8688 52.9372L66.282 53.3584C66.2031 53.4407 66.2688 53.3473 66.2012 53.4617C66.3939 53.5738 66.5333 53.7033 66.744 53.8617C68.71 55.3404 70.7427 57.0336 72.674 58.4766C73.0441 58.7532 73.3742 59.0199 73.7475 59.3013C73.9397 59.4461 74.1016 59.5786 74.279 59.7199C74.4403 59.8485 74.6762 60.0659 74.8828 60.1443L76.6806 58.847C77.2939 58.3885 77.8541 57.9561 78.4232 57.4841H78.423Z" fill="#FFD74A"/>
<path fill-rule="evenodd" clip-rule="evenodd" d="M83.6318 59.3956C83.4905 59.7224 79.5187 62.8049 78.7642 63.1924C78.9009 63.3824 79.5886 63.8775 79.8411 64.0693L87.4624 69.9361C87.9622 69.7087 90.7678 67.5195 91.3144 67.0481C91.521 66.8698 91.7222 66.7147 91.9206 66.5475C92.0411 66.446 92.1388 66.3709 92.2373 66.2831C92.3806 66.1553 92.3657 66.1189 92.5252 66.072C92.4977 65.9002 92.5187 65.9756 92.4292 65.8743L90.4081 64.3111C89.3947 63.5891 84.456 59.6289 83.877 59.2834C83.73 59.3407 83.7765 59.3356 83.6319 59.3955L83.6318 59.3956Z" fill="#F2929E"/>
<path fill-rule="evenodd" clip-rule="evenodd" d="M33.8655 74.9023C34.0146 75.1051 34.651 75.5531 34.8951 75.7453L42.4885 81.6299L46.0816 76.5246C45.8987 76.4248 45.735 76.2772 45.5416 76.1207L43.9147 74.8456C42.5337 73.7243 40.9848 72.5882 39.5995 71.464C39.2576 71.1865 37.6791 69.9031 37.4283 69.8027C37.1456 70.1835 36.7836 70.5627 36.4656 70.9856L34.6996 73.5448C34.4304 73.9754 34.1501 74.4995 33.8652 74.9024L33.8655 74.9023Z" fill="#D88422"/>
<path fill-rule="evenodd" clip-rule="evenodd" d="M59.1724 57.3353L66.061 62.6653C66.3508 62.8841 66.6527 63.1112 66.925 63.3302C67.0794 63.4544 67.1946 63.5413 67.3419 63.6512C67.9871 64.1332 67.6364 64.1662 68.8278 63.5963C70.2318 62.9252 71.4708 62.1954 72.7914 61.445C73.0616 61.2916 73.5631 61.0091 73.7702 60.8242C73.6243 60.5765 66.455 55.0575 65.7237 54.4604C65.54 54.3104 65.3416 54.1418 65.16 54.0359L63.7315 54.9141C63.2549 55.1971 62.7798 55.4892 62.2505 55.7542L59.1724 57.3353Z" fill="#FFDC56"/>
<path fill-rule="evenodd" clip-rule="evenodd" d="M98.3761 59.7465C98.6393 59.4653 100.423 56.923 100.589 56.6567C100.657 56.5472 100.711 56.4265 100.781 56.3197C101.088 55.8551 101.637 55.17 101.821 54.6555L101.332 54.1771C101.155 54.0482 100.996 53.8961 100.806 53.7592C99.5135 52.8277 97.8377 51.3943 96.4786 50.3809L94.9044 49.1134C94.8962 49.1066 94.8842 49.0965 94.8759 49.0898C94.6943 48.9417 94.5178 48.8353 94.3271 48.6885C94.2303 48.614 94.1693 48.5593 94.052 48.4834C94.0421 48.4771 94.0284 48.4696 94.0186 48.4634L93.9229 48.4025C93.8197 48.3232 93.5045 47.9379 93.2089 47.8706C93.0357 48.0779 93.0807 48.0856 92.9495 48.3313L90.2041 52.3373C89.3844 53.4306 89.5969 52.69 91.614 54.5125L94.9698 57.1639C95.0964 57.2709 95.2589 57.3728 95.3976 57.4765C95.4777 57.5364 95.5261 57.5746 95.6053 57.6359L97.0761 58.8062C97.2523 58.9655 98.2161 59.7223 98.3761 59.7465Z" fill="#D02023"/>
<path fill-rule="evenodd" clip-rule="evenodd" d="M43.9146 64.149C44.7642 64.741 47.3371 66.7636 48.2585 67.4965C48.9852 68.0746 49.6895 68.6078 50.4288 69.1754C50.7363 69.4115 52.4369 70.7563 52.6116 70.8221L54.0387 69.9478C55.1648 69.331 58.7432 67.8252 58.8077 67.784C58.6912 67.6351 58.1727 67.2544 57.9805 67.1079C56.8653 66.2573 50.345 61.089 50.1382 61.0923C49.7643 61.0982 44.3402 63.5568 43.9146 64.1491V64.149Z" fill="#F8B101"/>
<path fill-rule="evenodd" clip-rule="evenodd" d="M38.2134 68.9963L44.6421 74.0126C45.0174 74.2902 45.3612 74.5697 45.7105 74.842C46.0191 75.0821 46.4973 75.5042 46.8117 75.685L49.0865 73.4856C49.7372 72.9515 50.8948 71.9396 51.6064 71.5319C51.4591 71.3375 49.7812 70.0601 49.4669 69.8217L44.0115 65.5758C43.7749 65.3891 43.1369 64.8438 42.9103 64.7434C42.4801 65.0122 42.0837 65.3745 41.6652 65.6954C40.7424 66.4029 39.2871 67.7764 38.4758 68.6744C38.4252 68.7303 38.3935 68.7594 38.3478 68.8101L38.2135 68.9963H38.2134Z" fill="#E39819"/>
<path fill-rule="evenodd" clip-rule="evenodd" d="M25.6033 59.1608L33.6555 65.4409C33.8624 65.6122 34.0308 65.787 34.2634 65.8509C34.4668 65.7257 34.6623 65.4682 34.8278 65.2897C35.6054 64.4503 36.2737 63.8747 37.1015 63.1343L38.9456 61.6677C38.8885 61.5112 38.2758 61.0764 38.1611 60.9876L32.1958 56.3563C31.9444 56.1653 31.6267 55.909 31.3648 55.7099C30.3453 54.9346 30.4915 54.8203 30.0314 55.1696C29.0311 55.9293 28.0421 56.6602 27.1187 57.5809L25.9689 58.6984C25.8077 58.8564 25.6638 58.9619 25.603 59.1606L25.6033 59.1608Z" fill="#D02023"/>
<path fill-rule="evenodd" clip-rule="evenodd" d="M45.6802 85.9751C45.6608 86.0699 43.3951 90.5918 43.3716 91.6809L49.777 96.6643C50.1221 96.932 50.4869 97.2171 50.8457 97.4938C51.0239 97.6311 51.1833 97.7537 51.3827 97.9057C51.5708 98.0492 51.7399 98.24 52.0076 98.3357C52.1255 97.8506 52.3328 97.4041 52.4977 96.9294C52.8159 96.0133 53.8557 93.6707 54.2779 93.0288C54.3399 92.7395 54.4969 92.6825 54.5443 92.4126L45.9156 85.7549L45.712 85.945C45.7069 85.9355 45.692 85.9664 45.6802 85.9751Z" fill="#B02624"/>
<path fill-rule="evenodd" clip-rule="evenodd" d="M31.3677 54.339C31.4059 54.399 39.7775 60.9809 39.9578 61.002C40.0636 61.0145 41.0671 60.3595 41.4187 60.1735C41.9681 59.8829 42.3978 59.6656 42.9624 59.4054C43.365 59.2196 46.0718 58.0682 46.1678 57.9769L39.2873 52.5861C38.9702 52.3527 37.7379 51.2899 37.5348 51.2878C37.3071 51.2856 31.6631 53.7022 31.3678 54.339H31.3677Z" fill="#D02023"/>
<path fill-rule="evenodd" clip-rule="evenodd" d="M50.8629 78.803C51.0385 79.0146 57.35 83.8895 58.3239 84.637C58.6355 84.8761 59.1277 85.3101 59.413 85.4569C59.6083 85.38 60.3428 84.5824 60.5527 84.3708C60.9447 83.9762 61.3156 83.643 61.6933 83.2978L64.157 81.278L57.3947 75.9731C57.1502 75.7601 56.8265 75.5192 56.5694 75.3214C55.4859 74.4875 55.7504 74.2911 54.767 75.1052C54.484 75.3395 54.1845 75.5591 53.9149 75.7843C53.1549 76.4192 52.2653 77.2333 51.5629 77.9643C51.3713 78.1639 50.9147 78.571 50.8628 78.8031L50.8629 78.803Z" fill="#D02023"/>
<path fill-rule="evenodd" clip-rule="evenodd" d="M46.5118 84.7609C47.1148 85.3054 49.9837 87.4545 50.7952 88.1067L55.0896 91.4325C55.2058 91.3524 56.5605 89.142 56.7853 88.8293C57.1052 88.3843 57.382 88.0019 57.7031 87.587C57.9342 87.2884 58.5294 86.6632 58.6767 86.3953C58.5863 86.1594 56.8033 84.8512 56.5564 84.6608L50.028 79.6057C49.6157 79.8348 46.5402 84.2597 46.5117 84.7609H46.5118Z" fill="#B02624"/>
<path fill-rule="evenodd" clip-rule="evenodd" d="M18.1782 72.0543C18.3031 72.1988 18.5318 72.3452 18.7039 72.4804L24.6311 77.1001C24.8489 77.2664 26.5979 78.6925 26.8201 78.7467C27.1261 77.7165 27.5378 76.6836 27.9563 75.711C28.1008 75.3751 29.3202 72.9147 29.2683 72.7924C29.0352 72.5477 28.4787 72.1622 28.2054 71.9436L22.8612 67.7934C22.4881 67.5008 22.1815 67.2529 21.801 66.9591C21.6007 66.8046 21.4556 66.6925 21.2614 66.5482C21.0688 66.4049 20.8961 66.1849 20.6606 66.1526C20.4066 66.5233 20.1598 67.0822 19.9599 67.5045C19.5348 68.4024 18.2233 71.3237 18.1782 72.0542V72.0543Z" fill="#B02624"/>
<path fill-rule="evenodd" clip-rule="evenodd" d="M68.6332 27.2918C68.7361 27.3887 68.7977 27.4366 68.9069 27.5126L69.6691 28.1574C70.2056 28.484 70.7337 29.021 71.3161 29.3702L73.481 31.0565C73.5762 31.126 73.6353 31.1945 73.7333 31.2681L76.6741 33.5539C76.8719 33.6833 76.9834 33.9266 77.2863 33.9265C77.5779 33.529 78.4349 31.8136 78.7785 31.2666C78.8424 31.1648 78.8976 31.0045 78.9425 30.9054L79.6142 29.4391C79.6824 29.2834 80.0773 28.5846 80.0974 28.3463L77.8364 26.5335C77.8277 26.527 77.8152 26.5177 77.8065 26.5112L77.7456 26.4666C77.7364 26.4599 77.7237 26.4508 77.7146 26.4442L72.5955 22.4915C72.3707 22.3062 72.2964 22.3147 72.0563 22.0835C71.9029 21.9358 71.6443 21.7026 71.4867 21.6643C71.3166 21.8243 71.2223 22.1114 71.1265 22.3417L69.0095 26.567C68.9027 26.7896 68.6633 26.9787 68.6328 27.2918H68.6332Z" fill="#B02624"/>
<path fill-rule="evenodd" clip-rule="evenodd" d="M77.0869 43.2121C77.3993 43.4235 77.8141 43.7799 78.1453 44.0421L84.6135 49.1203C84.8607 49.3122 85.4987 49.8662 85.7219 49.9569C86.2052 49.4821 87.9362 46.8884 88.4144 46.17C88.5844 45.9146 89.1652 45.0456 89.2381 44.8053C87.1911 43.2719 84.8387 41.3331 82.772 39.7321C82.4229 39.4619 80.838 38.1728 80.6079 38.0635C80.3381 38.3887 80.0281 38.9942 79.7806 39.3815C79.4922 39.8328 79.2124 40.2452 78.9151 40.6777L77.0869 43.2124V43.2121Z" fill="#F8B101"/>
<path fill-rule="evenodd" clip-rule="evenodd" d="M84.5962 30.4298C84.8857 30.5864 85.4091 31.0428 85.6684 31.2472L93.209 37.0889C93.4893 36.7991 95.5364 31.584 95.5323 31.035C95.1133 30.6371 89.868 26.6234 89.1033 26.0204L86.935 24.3562L85.1893 28.8715C85.0376 29.2646 84.6595 30.0416 84.5962 30.4298Z" fill="#E39819"/>
<path fill-rule="evenodd" clip-rule="evenodd" d="M73.174 40.1052C73.5577 39.8939 75.9451 36.0511 76.4478 35.3616C76.55 35.2214 76.6169 35.1869 76.6193 34.9893L75.4694 34.1154C75.4604 34.1083 75.4479 34.0988 75.4389 34.0919L73.1986 32.3268C73.0688 32.2248 72.962 32.1848 72.8495 32.0929L71.1362 30.6999C70.2322 29.9384 69.2148 29.2781 68.3982 28.5336C67.9497 28.1245 67.8915 28.373 67.7477 28.6119C67.6038 28.8505 67.4691 29.1351 67.2991 29.3808C66.6283 30.3508 66.0266 31.2965 65.2871 32.2678C65.1616 32.4328 64.5457 33.1642 64.5352 33.3621C64.523 33.5953 65.9467 34.5558 66.1829 34.7592L70.6641 38.2374C70.7931 38.335 70.9004 38.4333 71.0137 38.5213L72.4141 39.6C72.6243 39.7699 72.8782 40.0935 73.174 40.1052Z" fill="#D02023"/>
<path fill-rule="evenodd" clip-rule="evenodd" d="M60.9454 37.4373C60.8516 37.5879 60.4352 37.9858 60.2883 38.1317C60.0909 38.3279 59.6844 38.6465 59.5635 38.8382C59.6427 39.0462 60.3839 39.5542 60.5897 39.7193L68.1652 45.5801C68.4178 45.4666 69.3699 44.4044 69.7335 44.1229L71.7649 41.8591C71.8912 41.7079 71.9638 41.6107 72.1018 41.4572C72.3044 41.2319 72.3221 41.1814 72.3587 40.969L70.221 39.3144C70.0545 39.179 69.831 39.0134 69.6836 38.9031L65.9432 35.9977C65.5453 35.6937 65.2648 35.4638 64.8719 35.1705C63.3163 34.0092 64.1901 34.0575 62.3728 35.9464C62.0258 36.307 61.3157 37.2053 60.9455 37.4373H60.9454Z" fill="#E53A2E"/>
</g>
<defs>
<clipPath id="clip0_273_515">
<rect width="120" height="120" fill="white"/>
</clipPath>
</defs>
</svg>
