<svg width="120" height="120" viewBox="0 0 120 120" fill="none" xmlns="http://www.w3.org/2000/svg">
<rect width="120" height="120" fill="#9C1E35"/>
<path d="M36.6561 24.0307C36.7109 23.2369 37.1441 22.4983 37.8054 22.052C38.6606 21.4749 39.5516 20.9336 40.6013 21.0066C40.7314 21.0157 40.8623 21.0227 40.9925 21.03C42.0929 21.0918 42.9271 21.9145 43.5795 22.7551C43.7337 22.9539 43.8516 23.1797 43.9063 23.425C44.092 24.259 44.0413 25.1462 43.9402 25.9954C43.9179 26.1821 43.8725 26.3658 43.7942 26.5369C43.4234 27.348 42.86 28.0647 42.5105 28.8853C42.4486 29.0308 42.4103 29.1849 42.3902 29.3416C42.294 30.0938 42.2742 30.8726 42.4283 31.6155C42.4553 31.7456 42.4993 31.8716 42.5565 31.9916C43.3394 33.6354 44.6703 34.9149 45.7818 36.3311C46.781 37.733 47.8353 39.1402 48.561 40.706C48.9421 41.5283 49.6862 42.2184 50.5741 42.0232C52.1546 41.6757 53.5682 40.5929 55.2223 40.4822C56.6381 40.3495 57.9283 39.5809 59.3665 39.6422C59.5441 39.6497 59.7225 39.6506 59.9 39.6415C61.5575 39.5562 63.059 40.3844 64.6873 40.5701C64.8315 40.5865 64.9753 40.6087 65.1142 40.6505C66.4417 41.0497 67.6885 41.8204 69.0429 42.0773C69.9679 42.2528 70.7113 41.5054 71.0823 40.6433C71.7198 39.1623 72.6988 37.8244 73.6525 36.5337C75.1641 34.6519 77.5242 32.8758 77.3297 30.2042C77.3651 29.0388 76.5548 28.1169 76.0863 27.1129C75.5294 26.1794 75.6797 25.052 75.6827 24.0187C75.6002 22.724 76.8377 21.9402 77.7982 21.3354C79.6633 20.3637 81.72 21.858 82.6982 23.411C83.5556 24.7497 82.6069 26.2557 81.9292 27.4417C81.0305 28.7922 81.0099 30.6769 81.882 32.0449C83.4584 34.7928 85.3942 37.432 86.1338 40.5644C86.5404 42.2085 85.7802 43.8378 84.9847 45.2381C84.0831 46.7853 82.2798 47.4341 80.6386 47.8773C78.9209 48.4501 77.1417 48.7496 75.3527 48.9971C73.5624 49.2449 73.3602 50.2169 75.1675 50.2444C75.1959 50.2449 75.2243 50.2455 75.2525 50.2465C77.2318 50.2781 79.2397 49.9664 81.2099 50.1747C81.6489 50.2212 82.0574 50.4187 82.3742 50.725C83.1222 51.4483 83.8092 52.3036 83.8503 53.3701C84.0271 55.7304 83.9416 58.0996 83.8709 60.4628C83.921 62.2859 82.5774 63.7244 82.2268 65.4536C82.0546 66.7133 81.981 68.1941 82.829 69.2007C83.082 69.501 83.4677 69.6453 83.86 69.6773C84.516 69.7307 85.1754 69.7236 85.8356 69.7053C86.9982 69.673 87.9825 70.5197 87.9981 71.6781C88.0049 72.1897 87.9932 72.7017 87.9692 73.2133C87.9135 74.4001 86.9176 75.2854 85.725 75.268C85.1636 75.2597 84.6028 75.2653 84.0441 75.3202C83.9326 75.3312 83.8218 75.3509 83.7157 75.3866C82.6982 75.7296 82.0176 76.6698 81.3929 77.4959C79.8431 79.7799 78.2549 82.0639 77.1146 84.5887C75.8211 87.2015 74.6809 90.0022 72.4887 92.019C70.4072 94.3034 67.7712 96.1457 64.7844 97.0142C64.6782 97.0451 64.5694 97.0662 64.46 97.0832C62.9045 97.3236 61.4423 98.0585 59.8457 97.9945C59.7062 97.9889 59.5662 97.9897 59.4267 97.9958C57.9768 98.0592 56.6485 97.3806 55.2371 97.1565C52.267 96.5694 49.7006 94.7933 47.4348 92.8674C44.1023 89.782 42.853 85.2815 40.5754 81.4915C39.2157 79.3717 37.9592 76.9936 35.798 75.5861C35.5597 75.4309 35.2871 75.335 35.0037 75.3074C34.423 75.251 33.8384 75.2598 33.2535 75.2781C32.3608 75.3061 31.5215 74.8083 31.3082 73.9444C31.0742 72.9961 31.0122 72.0051 31.0082 71.0285C30.9421 70.5334 31.2852 70.177 31.6758 69.9242C31.8969 69.7811 32.1551 69.7067 32.4182 69.6895C33.4621 69.6216 34.5231 69.7922 35.559 69.672C35.9292 69.6291 36.2746 69.4576 36.5201 69.1784C37.3723 68.2094 37.7536 66.8305 37.296 65.5857C36.4238 63.3428 35.2246 61.2114 34.7679 58.8247C33.9075 56.1884 33.825 52.9268 35.7756 50.7426C36.1645 50.1731 36.8923 50.1584 37.514 50.1085C40.6161 50.0068 43.7209 50.4679 46.818 50.2359C47.0249 50.2204 47.1839 50.0511 47.1871 49.8444C47.1905 49.6297 47.0252 49.4477 46.8104 49.4292C44.5929 49.2389 42.4076 48.8174 40.2035 48.5362C40.0882 48.5215 39.9741 48.4987 39.8622 48.4677C38.3233 48.0409 36.7381 47.6173 35.4191 46.6854C34.608 45.9264 34.0466 44.9287 33.6425 43.9001C33.582 43.7461 33.5419 43.5851 33.5201 43.4211C33.2821 41.6334 33.2011 39.7029 34.1108 38.0808C35.2069 35.5678 36.7862 33.3073 38.068 30.8912C38.6808 29.7081 38.0768 28.4428 37.3402 27.4858C36.5508 26.4935 36.5719 25.2486 36.6561 24.0307ZM43.7872 60.7349C42.8745 60.7449 41.8371 61.1979 41.6415 62.086C41.5994 62.2772 41.5969 62.475 41.6597 62.6822C42.1194 64.564 42.5879 66.6455 44.1848 67.9255C46.71 69.8895 50.2133 69.8337 52.821 71.6362C54.0909 72.4788 53.6872 74.158 53.699 75.4439C53.6936 76.5088 52.9689 77.4492 52.9896 78.5058C52.9932 78.6898 53.0438 78.8703 53.128 79.0341C53.876 80.4881 55.5979 80.9262 56.9811 81.6229C57.0997 81.6826 57.2244 81.7307 57.3419 81.7925C58.0103 82.1445 58.1237 83.0375 57.8832 83.73C57.8121 83.9346 57.6754 84.1093 57.5087 84.2482C56.2007 85.3388 54.2085 85.481 52.7267 84.6503C52.5888 84.5711 52.4463 84.5061 52.3004 84.4524C51.3925 84.1183 50.4506 84.985 50.5325 85.9456C50.5587 86.2536 50.706 86.5373 50.9286 86.7527C51.602 87.4045 52.3881 87.9641 53.2777 88.2554C54.8835 88.6693 56.0591 87.2719 57.441 86.7523C58.8023 86.3266 60.2873 86.3266 61.6722 86.6407C63.1395 86.9784 64.1826 88.5313 65.7972 88.3053C66.964 88.1761 67.9924 87.4011 68.7702 86.5644C68.9753 86.3581 69.0864 86.1155 69.1468 85.8552C69.3388 85.0278 68.5042 84.2025 67.6565 84.2922C66.9139 84.4331 66.304 84.9909 65.5321 85.029C64.6481 85.0643 63.7082 85.1611 62.8714 84.8235C62.2216 84.4647 61.3185 84.1018 61.1301 83.3627C61.0448 83.028 61.2097 82.6866 61.4486 82.4362C62.4596 81.3762 64.0036 81.034 65.2365 80.2707C65.699 79.9843 65.9642 79.478 66.0017 78.9369C66.1409 76.9276 65.7814 74.8959 65.9929 72.8911C66.0129 72.7008 66.0583 72.5126 66.149 72.344C66.5933 71.5185 67.4636 70.9791 68.3194 70.6381C70.3761 70.0627 72.4857 69.5783 74.3892 68.586C75.6373 67.917 76.4587 66.7099 77.0924 65.481C77.165 65.3403 77.2218 65.1918 77.2567 65.0374C77.4125 64.3486 77.4581 63.6453 77.4556 62.9392C77.4513 61.7087 76.401 60.7394 75.1658 60.7248C72.8208 60.6969 70.475 60.6847 68.1303 60.7507C67.3367 60.773 66.605 61.2012 66.2505 61.9087C65.0608 64.2835 64.373 66.8788 63.6161 69.4153C63.5814 69.5316 63.5554 69.6504 63.5398 69.7708C63.2607 71.9176 63.1987 74.1543 63.809 76.2401C64.0039 76.9062 64.0187 77.6643 63.517 78.1455C62.427 79.1912 60.7237 79.4579 59.2223 79.3806C59.0956 79.3741 58.9687 79.3763 58.842 79.3813C57.6097 79.4293 56.3716 78.8631 55.6879 77.8189C55.1045 77.1084 55.5582 76.169 55.7439 75.3969C56.4775 73.2509 56.2359 70.9082 55.5906 68.7739C55.0573 66.4799 54.1541 64.3073 53.227 62.1503C52.8789 61.3405 52.1023 60.7908 51.2185 60.7565C48.7438 60.6605 46.2635 60.7076 43.7872 60.7349Z" fill="#FAE14B"/>
<path d="M46.9112 65.3345C46.2967 64.8513 47.4636 63.9985 48.2185 64.2051C48.8486 64.3775 49.4777 64.5523 50.1077 64.7247C50.2662 64.785 50.4091 64.8635 50.5363 64.957C51.475 65.6468 50.4274 67.0171 49.2715 66.8617C49.0865 66.8368 48.9038 66.7929 48.7249 66.7226C48.0405 66.3742 47.4378 65.8853 46.9112 65.3345Z" fill="#FAE14B"/>
<path d="M68.5003 65.9239C68.4877 65.5144 68.7 65.1265 69.0661 64.9395C69.9044 64.5113 70.7984 64.1704 71.715 63.9283C72.1063 63.8249 72.5275 63.948 72.7741 64.2677C73.0369 64.6081 73.0401 65.0835 72.7529 65.4038C71.9557 66.2932 70.7423 66.7586 69.5071 66.865C68.9588 66.9123 68.5172 66.4719 68.5003 65.9239Z" fill="#FAE14B"/>
</svg>
