<svg width="120" height="120" viewBox="0 0 120 120" fill="none" xmlns="http://www.w3.org/2000/svg">
<rect width="120" height="120" fill="#4C4B74"/>
<path fill-rule="evenodd" clip-rule="evenodd" d="M50.9174 48.7913C56.6033 48.7317 64.7775 48.7069 68.5103 48.6529C68.6077 61.091 68.629 73.5049 68.6193 85.9428C68.9031 85.678 86.9616 67.8341 86.9616 67.8341L87 31.0008L68.4009 31C63.9312 35.6041 50.9174 48.7913 50.9174 48.7913Z" fill="#E85817"/>
<path fill-rule="evenodd" clip-rule="evenodd" d="M68.1954 67.6899C68.1954 67.6899 52.3617 67.6285 50.3925 67.645C50.3925 67.645 50.2215 35.4011 50.2211 31.3831C50.6387 30.91 32.0324 49.7173 32.0324 49.7173L32 85.9362L50.3841 86C50.3841 86 67.9024 68.6265 68.1954 67.6899Z" fill="white"/>
</svg>
