<svg width="120" height="120" viewBox="0 0 120 120" fill="none" xmlns="http://www.w3.org/2000/svg">
<rect width="120" height="120" fill="#FFF200"/>
<g clip-path="url(#clip0_273_1156)">
<path fill-rule="evenodd" clip-rule="evenodd" d="M27.1428 26.8613H93.13V92.8485H27.1428V26.8613Z" fill="black"/>
<path fill-rule="evenodd" clip-rule="evenodd" d="M29.0514 28.7686H91.2214V90.94H29.0514V28.7686Z" fill="#FFF200"/>
<path fill-rule="evenodd" clip-rule="evenodd" d="M32.35 78.3788L40.46 86.646L59.4614 67.3674L79.0986 87.0431L87.3271 78.8946L67.8871 59.4574L71.6243 55.8403V48.1288L73.97 46.1417V52.1831L76.9914 54.6474L86.0143 45.6245L88.9157 47.8503C90.6257 41.5303 80.7271 27.1803 72.5386 35.1303L62.9971 44.5903L64.9457 46.936L60.0957 51.666L55.4057 47.0545L57.87 44.8274L47.4157 34.7317C39.5457 28.2517 31.4757 38.1117 31.1971 47.7303L34.0586 45.346L42.8429 54.8074L45.9829 52.1845V46.3803L47.93 47.8503V55.4431L51.7457 59.2588L32.35 78.3788Z" fill="black"/>
</g>
<defs>
<clipPath id="clip0_273_1156">
<rect width="60" height="60" fill="white" transform="translate(30 30)"/>
</clipPath>
</defs>
</svg>
