<svg width="120" height="120" viewBox="0 0 120 120" fill="none" xmlns="http://www.w3.org/2000/svg">
<rect width="120" height="120" fill="#EB1C2E"/>
<path fill-rule="evenodd" clip-rule="evenodd" d="M55.4456 48.4026C57.7487 48.8652 58.6029 48.633 61.2211 49.9217C64.5106 51.5407 67.0302 53.9422 68.6605 57.2711C71.4014 62.8684 70.2498 78.1719 70.2598 84.9327L85.5559 84.9879C86.2652 80.0256 86.2648 63.1025 84.5101 56.4057C81.7501 45.8733 73.4975 37.3858 63.09 34.3496C61.7749 33.9661 58.2913 33.0783 56.8993 33.259C56.3139 32.86 36.5394 33.0307 34.0994 33.0696L34.0956 48.375L55.4454 48.4027L55.4456 48.4026ZM34.2036 84.9473L49.2016 84.9872C49.3713 83.6838 49.2342 74.8786 49.2446 72.0565C49.2431 69.5687 49.2426 69.5403 46.8835 69.5346C44.5785 69.5269 34.6183 69.404 34.0826 69.6546C33.9658 70.4147 34.0469 81.1201 34.0469 83.0596C34.0469 83.5673 33.8698 84.631 34.2037 84.9473H34.2036ZM52.2429 84.7662C52.3475 84.9763 52.0524 84.9951 53.0328 84.9762C55.6781 84.9251 66.1808 85.0794 67.3268 84.94C67.1182 63.0718 67.335 62.6783 66.1016 59.0552C64.4816 55.438 60.8891 52.4102 56.5444 51.5858C54.5082 51.1995 47.9064 51.3552 45.4283 51.3552C41.6619 51.3552 37.8648 51.3073 34.1024 51.3591L34.1007 66.656C37.1481 66.6508 40.1699 66.6559 43.1912 66.6559C53.278 66.6559 52.2429 67.0337 52.2429 84.7662Z" fill="white"/>
</svg>
