<svg width="120" height="120" viewBox="0 0 120 120" fill="none" xmlns="http://www.w3.org/2000/svg">
<rect width="120" height="120" fill="url(#paint0_linear_273_146)"/>
<path fill-rule="evenodd" clip-rule="evenodd" d="M43.8975 38H90.8158C91.7285 38 92.2187 38.755 91.9053 39.6779L89.588 46.5016C89.2746 47.4245 88.2716 48.1795 87.3589 48.1795H40.4406C39.5279 48.1795 39.0378 47.4245 39.3511 46.5016L41.6683 39.6779C41.9819 38.755 42.9848 38 43.8975 38Z" fill="url(#paint1_linear_273_146)"/>
<path fill-rule="evenodd" clip-rule="evenodd" d="M38.1996 53.8707H85.1179C86.0306 53.8707 86.5209 54.6257 86.2074 55.5487L83.8902 62.3723C83.5767 63.2953 82.5737 64.0503 81.661 64.0503H34.7427C33.83 64.0503 33.3399 63.2953 33.6532 62.3723L35.9705 55.5487C36.284 54.6257 37.2869 53.8707 38.1996 53.8707Z" fill="url(#paint2_linear_273_146)"/>
<path fill-rule="evenodd" clip-rule="evenodd" d="M32.6411 69.8205H79.5594C80.4721 69.8205 80.9623 70.5755 80.6489 71.4984L78.3316 78.3221C78.0182 79.245 77.0152 80 76.1025 80H29.1842C28.2715 80 27.7814 79.245 28.0947 78.3221L30.4119 71.4984C30.7255 70.5755 31.7284 69.8205 32.6411 69.8205Z" fill="url(#paint3_linear_273_146)"/>
<defs>
<linearGradient id="paint0_linear_273_146" x1="-4.5374e-06" y1="112.5" x2="141" y2="27" gradientUnits="userSpaceOnUse">
<stop stop-color="#1A43F5"/>
<stop offset="1" stop-color="#3F89FE"/>
</linearGradient>
<linearGradient id="paint1_linear_273_146" x1="418.326" y1="69.8205" x2="657.431" y2="1911.45" gradientUnits="userSpaceOnUse">
<stop stop-color="white"/>
<stop offset="1" stop-color="#4189F7"/>
</linearGradient>
<linearGradient id="paint2_linear_273_146" x1="418.326" y1="69.8205" x2="657.431" y2="1911.45" gradientUnits="userSpaceOnUse">
<stop stop-color="white"/>
<stop offset="1" stop-color="#4189F7"/>
</linearGradient>
<linearGradient id="paint3_linear_273_146" x1="418.326" y1="69.8205" x2="657.431" y2="1911.45" gradientUnits="userSpaceOnUse">
<stop stop-color="white"/>
<stop offset="1" stop-color="#4189F7"/>
</linearGradient>
</defs>
</svg>
