<svg width="120" height="120" viewBox="0 0 120 120" fill="none" xmlns="http://www.w3.org/2000/svg">
<g clip-path="url(#clip0_273_69)">
<path fill-rule="evenodd" clip-rule="evenodd" d="M0 0H120V120H0V0Z" fill="url(#paint0_linear_273_69)"/>
<path d="M76.5199 25.0755C78.3037 24.8989 80.2328 24.972 81.7998 25.9564C82.4972 26.0734 82.3598 27.1061 81.7406 27.1309C79.7667 26.5132 77.3347 26.448 75.7688 28.0129C74.3326 29.3606 73.9157 31.3327 73.2071 33.0911C71.1595 38.7465 69.1756 44.4288 67.2141 50.1123C67.1213 50.3227 67.0632 50.5477 67.0855 50.7806C67.574 50.7761 67.8847 50.2709 68.3206 50.1067C71.4691 48.5092 75.7297 48.6577 78.2657 51.3363C79.6516 52.7549 80.1825 54.7923 80.0529 56.7385C79.8517 61.8438 76.2516 66.4889 71.4881 68.1595C69.2527 69.1034 66.8106 69.442 64.402 69.451C64.0678 69.397 63.6721 69.4308 63.3994 69.2058C63.5481 68.2686 63.8532 67.2944 64.431 66.5451C66.4954 66.6846 68.5363 66.0006 70.2407 64.8588C72.3979 63.304 73.6575 60.7728 74.1135 58.1898C74.46 56.23 74.5964 53.89 73.1244 52.3409C71.3964 51.0956 69.0594 52.1193 67.5527 53.2679C65.9075 55.2265 64.8211 57.5845 63.9259 59.9662C61.7687 65.9163 59.6977 71.8979 57.5495 77.8502C55.7042 82.6708 54.4323 87.8245 51.5218 92.1467C48.5164 95.3293 43.6075 95.6634 39.7158 94.0659C38.8708 93.8848 39.5951 92.7474 40.2623 93.0726C42.311 93.2166 44.6917 93.2312 46.2665 91.6967C47.4076 89.9867 47.8882 87.9415 48.7444 86.0886C50.7931 80.2082 52.9603 74.3672 55.0839 68.5139C55.2683 68.1944 54.8212 68.3373 54.6793 68.4374C52.7513 69.7638 50.3024 70.4399 47.9866 69.9876C45.8306 69.4139 43.4622 68.2473 42.7614 65.9421C40.9866 61.27 43.1839 55.9657 46.9326 52.9901C50.3304 50.4779 54.6938 49.4396 58.8583 49.8266C59.2998 50.0628 58.6906 50.6467 58.6269 51.0191C58.3766 51.5647 58.4101 52.4152 57.7719 52.6492C55.2281 52.6458 52.4875 53.2488 50.6791 55.1827C48.4292 57.382 47.8793 60.694 47.8614 63.7146C48.0212 64.8318 48.2146 66.0591 49.111 66.8444C50.1594 67.5723 51.5911 67.6116 52.711 67.0233C54.4557 66.1098 55.6952 64.4256 56.5894 62.7033C58.0278 60.118 58.7465 57.2223 59.8161 54.4807C62.0962 47.9388 64.4523 41.4228 66.7234 34.8798C67.6623 32.5691 68.1485 29.9715 69.9658 28.1355C71.6043 26.232 74.0733 25.2881 76.5199 25.0755Z" fill="#F9F8F8"/>
<path d="M38.3515 25.0825C39.8842 24.9866 41.439 24.9409 42.9683 25.1351C43.7641 25.3007 44.6641 25.6764 44.9282 26.5445C45.0525 29.1702 44.8761 31.8062 45.0048 34.432C45.1902 34.6307 44.8961 35.2852 45.2601 35.3868C47.5529 32.0369 49.5606 28.4838 51.8812 25.1591C54.0864 25.0174 56.2893 25.0346 58.5056 25.0277C58.8663 25.1842 59.7064 24.8575 59.834 25.3669C58.0051 30.599 56.1362 35.8288 54.3716 41.0883C54.0575 42.0911 53.7679 43.4708 54.7678 44.1641C56.266 44.9133 58.0572 44.2349 59.4967 43.6227C60.0493 43.3269 59.9062 44.3948 59.5655 44.6129C57.9241 45.6614 56.1462 46.5077 54.2906 47.0662C52.7024 47.394 50.8479 47.7515 49.4263 46.6973C48.1622 45.5974 48.1689 43.7049 48.4275 42.1608C48.898 38.8909 50.4806 35.967 51.5116 32.8798C48.079 37.3456 45.0226 42.1185 41.7087 46.6859C41.1638 47.0902 39.7865 47.113 40.0873 46.0337C40.1283 42.3367 40.0928 38.651 40.0884 34.9539C40.0629 34.3383 40.3048 33.7033 40.0506 33.1117C38.2206 37.5786 36.7645 42.2236 34.9633 46.6962C33.424 46.9977 31.726 46.896 30.1201 46.8104C29.8804 46.7076 30.0702 46.4437 30.0901 46.261C32.5794 39.3431 34.8756 32.3499 37.3805 25.4377C37.4881 24.982 38.0019 25.1533 38.3515 25.0825Z" fill="#F9F8F8"/>
<path d="M66.5609 71.7655C68.2547 71.5232 70.3855 71.6348 71.4688 73.1599C72.7854 75.3918 71.8641 78.1439 71.122 80.4238C73.2133 78.8105 74.8508 76.6501 76.9061 74.9753C77.6539 74.0476 78.6393 73.3486 79.4355 72.4599C80.0402 71.7308 81.118 71.9765 81.9446 71.9273C83.2814 72.02 84.7162 71.7521 86 72.0569C82.6845 75.6475 78.7733 78.7502 75.4443 82.3363C77.7856 86.2038 80.5684 89.8502 82.9627 93.7021C83.3287 94.2871 82.0606 93.9276 81.8331 94.0404C80.2846 93.9243 78.6314 94.2559 77.1403 93.8852C75.272 91.1777 73.5309 88.3821 71.6783 85.6623C70.4857 86.1848 69.6253 87.3538 68.5644 88.142C67.3898 89.8938 67.2434 92.1602 66.2118 93.9589C64.4065 94.1264 62.5022 94.0136 60.6586 94.027C60.7464 92.9473 61.2972 91.9749 61.6114 90.95C63.1193 86.4494 64.7545 81.9868 66.1037 77.4372C66.615 76.2135 66.1668 74.541 64.7241 74.263C63.0247 73.5373 61.4638 74.6359 59.8692 74.9486C59.8354 74.4327 60.1484 73.8812 60.6597 73.7182C62.4335 72.5883 64.5282 72.183 66.5609 71.7655Z" fill="#F9F8F8"/>
</g>
<defs>
<linearGradient id="paint0_linear_273_69" x1="80" y1="41.5" x2="-120.5" y2="204.5" gradientUnits="userSpaceOnUse">
<stop stop-color="#841F2D"/>
<stop offset="0.907283" stop-color="#DF6E4F"/>
</linearGradient>
<clipPath id="clip0_273_69">
<rect width="120" height="120" fill="white"/>
</clipPath>
</defs>
</svg>
