<svg width="120" height="120" viewBox="0 0 120 120" fill="none" xmlns="http://www.w3.org/2000/svg">
<rect width="120" height="120" fill="#004C90"/>
<path fill-rule="evenodd" clip-rule="evenodd" d="M65.1854 45.2156C59.0228 45.2156 54.3619 44.8453 50.1196 48.0415C41.8936 54.2393 42.0247 66.1653 50.1261 71.9714C54.7654 75.2962 58.6013 74.8213 65.1044 74.8213L65.1915 91C68.6707 90.5025 72.9004 88.548 75.4594 87.0039C90.6604 77.8307 95.649 58.2701 86.2074 42.623C83.7089 38.4823 79.7156 34.5671 75.457 31.9958C72.7315 30.3502 68.8404 28.522 65.1891 28L65.1854 45.2156Z" fill="white"/>
<path fill-rule="evenodd" clip-rule="evenodd" d="M27 59.6648C27 78.4785 42.449 92.9692 59.9907 91.9493L59.9962 80.4975C53.2609 80.2788 49.1009 78.2908 45.6595 74.8663C39.8815 69.1165 37.8771 60.3606 41.4791 52.3763C44.0768 46.6178 49.1958 42.4332 55.4478 41.1957C57.0615 40.8763 58.4903 40.9741 60 40.738L59.9993 28.0731L58.3924 28C41.3498 28 27 42.4642 27 59.6648Z" fill="#D8232A"/>
</svg>
