<svg width="40" height="40" viewBox="0 0 40 40" fill="none" xmlns="http://www.w3.org/2000/svg">
<path d="M40 0H0V40H40V0Z" fill="#0271C1"/>
<path d="M16.957 14.2695V13.2285V12.1875H25.7656V14.2695H22.5625V23.8789H20.1602V14.2695H16.957Z" fill="white"/>
<path d="M10.5508 16.752C10.9352 16.4797 11.5758 16.1754 11.9762 16.0793C12.3926 15.9672 13.0813 15.9031 13.5137 15.9352C13.9621 15.9672 14.6828 16.1434 15.1152 16.3355C15.5637 16.5277 15.9775 16.7594 16.5246 17.2805C17.0718 17.8016 17.2773 18.2254 17.4855 18.6738C17.8059 19.3945 17.8379 19.7629 17.918 25.6406H19.1992V28.043H7.1875V25.6406H8.62891V22.7258C8.62891 21.1082 8.69297 19.5387 8.78906 19.2344C8.86914 18.9301 9.14141 18.3535 9.39766 17.9531C9.65391 17.5527 10.1664 17.0242 10.5508 16.752Z" fill="white"/>
<path d="M24.6445 28.043V22.1973V16.3516H32.0117V18.4336H27.0469V20.8359H28.0559C28.6004 20.8359 29.3225 20.9124 30.0098 21.0762C30.697 21.2399 31.227 21.5246 31.5313 21.7809C31.8355 22.0211 32.2382 22.4901 32.4602 22.934C32.6523 23.3184 32.8125 23.745 32.8125 24.2793C32.8125 24.8721 32.7346 25.1835 32.6557 25.4991L32.6523 25.5125C32.5562 25.8488 32.3 26.3453 32.0598 26.6176C31.8035 26.9059 31.3391 27.2582 31.0188 27.4184C30.6824 27.5945 29.9617 27.7867 29.4172 27.8828C28.8566 27.9629 27.5594 28.043 24.6445 28.043Z" fill="white"/>
<path d="M10.7969 20.5778C10.7969 19.2247 11.8938 18.1277 13.247 18.1277V18.1277C14.6002 18.1277 15.6972 19.2247 15.6972 20.5778V25.6574H10.7969V20.5778Z" fill="#0271C1"/>
<path d="M28.8443 22.9083C29.7024 22.9083 30.3981 23.604 30.3981 24.4621V24.4621C30.3981 25.3202 29.7024 26.0158 28.8443 26.0158L27.0515 26.0158L27.0515 22.9083L28.8443 22.9083Z" fill="#0271C1"/>
</svg>
