<svg width="120" height="120" viewBox="0 0 120 120" fill="none" xmlns="http://www.w3.org/2000/svg">
<path fill-rule="evenodd" clip-rule="evenodd" d="M0 120H120V0.00012207H0V120Z" fill="#AB985C"/>
<path fill-rule="evenodd" clip-rule="evenodd" d="M67.2472 25.3194C67.1212 29.3063 66.9323 59.0022 67.4832 60.6177C68.8825 64.7212 76.1931 66.0427 76.1803 57.5519C76.1749 54.0914 76.0072 42.3523 76.2071 39.8442C77.1236 40.0822 80.3736 43.9999 81.0704 45.041C93.3358 63.3682 80.0975 86.54 59.4483 86.8854C46.8951 87.0954 37.9221 79.0492 34.297 70.4273C32.0532 65.0909 31.5495 58.5114 33.3056 52.6047C34.1428 49.789 35.1994 47.7037 36.6484 45.4455C37.3961 44.2802 40.4093 40.4133 41.4983 40.0512C41.7111 41.4504 41.5574 54.9673 41.5533 57.5518C41.5484 60.7059 42.0429 62.6767 44.5671 63.5465C47.3408 64.5021 49.6325 62.5124 50.2482 60.6496C50.6671 59.3826 50.6779 28.5925 50.4419 25.3546C47.3576 25.4736 41.087 28.9615 38.9823 30.3516C35.615 32.5755 32.5614 35.4725 30.3112 38.5145C12.1589 63.0557 30.0903 95.9927 59.0519 96C88.951 96.0077 105.45 61.6535 87.6634 38.4443C85.2559 35.3027 82.386 32.5855 78.9762 30.2955C76.9392 28.9273 70.082 25.2512 67.2472 25.3194Z" fill="#FDFDFD"/>
<path fill-rule="evenodd" clip-rule="evenodd" d="M63.3302 24.1599C52.3317 22.9911 54.4363 28.249 54.4444 39.3283L54.444 57.5521C54.4416 59.8958 54.4011 61.05 55.7592 62.43C58.2417 64.9523 62.4919 63.6288 63.2588 60.3936C63.704 58.5156 63.3911 50.8991 63.392 48.4402C63.3932 44.7286 63.6168 26.136 63.3302 24.1599ZM58.3664 27.1059C56.6429 27.7896 57.5948 30.5441 59.5658 29.7812C61.1366 29.1731 60.4255 26.2892 58.3664 27.1059Z" fill="#FDFDFD"/>
</svg>
