<svg width="120" height="120" viewBox="0 0 120 120" fill="none" xmlns="http://www.w3.org/2000/svg">
<rect width="120" height="120" fill="#475760"/>
<path d="M49.0765 28.0411C49.2508 27.9887 49.4291 27.9464 49.6125 27.9453C57.774 27.9443 65.9364 27.9453 74.0989 27.9443C74.3105 27.894 74.4918 28.0824 74.4475 28.2929C74.4525 38.4129 74.4384 48.5339 74.4545 58.6549C76.0332 58.6599 77.6129 58.6518 79.1926 58.6589C79.1926 63.7627 79.1977 68.8675 79.1896 73.9713C76.8362 73.9683 74.4827 73.9854 72.1293 73.9623C72.1384 71.2492 72.1212 68.5351 72.1384 65.822C71.8855 65.7847 71.6326 65.7434 71.3777 65.7444C62.7649 65.7504 54.1531 65.7424 45.5403 65.7474C45.5192 68.4867 45.5353 71.226 45.5323 73.9643C43.1546 73.9804 40.777 73.9754 38.3984 73.9673C38.3964 68.8655 38.3924 63.7627 38.4014 58.6609C39.4855 58.6518 40.5695 58.6579 41.6545 58.6559C42.1613 58.6518 42.6781 58.7022 43.1718 58.5551C43.47 57.5718 43.9203 56.644 44.2618 55.6758C47.1593 48.285 50.0548 40.8933 52.9492 33.5015C53.0872 33.2728 52.9542 33.0431 52.8021 32.8648C51.5529 31.2629 50.3056 29.659 49.0765 28.0411ZM60.0911 36.0474C57.0707 43.7565 54.0554 51.4666 51.031 59.1727C56.0794 59.213 61.1298 59.1737 66.1792 59.1928C66.1893 51.3699 66.1974 43.5459 66.1752 35.723C64.3799 35.7189 62.5836 35.724 60.7883 35.7189C60.5294 35.727 60.1475 35.724 60.0911 36.0474Z" fill="white"/>
<path d="M32 80.5581C36.8963 80.5168 41.7946 80.5521 46.6918 80.54C59.0837 80.54 71.4755 80.54 83.8673 80.54C84.3911 80.544 84.918 80.5128 85.4399 80.5833C84.9634 80.8181 84.4546 80.9732 83.9519 81.1384C75.8045 83.8727 67.6572 86.6059 59.5028 89.32C52.6943 91.5858 45.8949 93.8828 39.0885 96.1567C38.9293 95.1039 39.018 94.036 38.9767 92.9751C39.0019 92.1329 38.8931 91.2967 38.89 90.4544C38.9072 90.1975 38.7792 89.9699 38.6372 89.7674C36.997 87.5016 35.378 85.2207 33.7157 82.972C33.1223 82.1832 32.5078 81.4064 32 80.5581Z" fill="#5EAC69"/>
</svg>
