<svg width="120" height="120" viewBox="0 0 120 120" fill="none" xmlns="http://www.w3.org/2000/svg">
<g clip-path="url(#clip0_273_1254)">
<rect width="120" height="120" fill="#4880EF"/>
<path fill-rule="evenodd" clip-rule="evenodd" d="M38.776 60.4022C40.9422 51.4004 52.557 45.7967 61.5104 45.0697C61.5104 45.0697 57.2313 62.5869 56.8063 63.2172C46.7744 65.3393 43.0603 62.6126 38.776 60.4022ZM39.3677 52.8306C38.3708 53.788 36.909 55.6386 36.0596 56.2826C34.2889 54.0095 34.8127 49.1761 35.5266 46.3701C37.4612 38.7665 45.0538 31.7111 53.4038 30.1537C57.2024 29.2821 63.3864 29.1192 64.3318 32.4951C64.8181 34.2316 62.6114 42.5318 61.7959 43.9956C53.9861 45.1417 46.3166 45.9914 39.3677 52.8306ZM45.5865 30.1583C33.6074 35.0835 24.8507 50.3221 33.5881 59.8032C32.6871 62.5254 27.6699 68.4629 29.3366 76.9683C32.9538 95.4273 60.4999 96.6758 70.5886 81.8691L69.3845 79.5124C67.9576 80.8716 66.0253 85.5554 59.7797 88.5289C50.305 93.0398 38.4698 89.025 35.3464 78.2534C34.0044 73.6255 35.1844 66.4373 37.4267 62.7515C39.5524 62.8681 40.8202 64.903 47.815 65.4332C51.6495 65.5568 53.0885 65.2853 56.4631 64.9088C55.5017 69.7124 54.2677 69.3625 52.5131 71.3396C54.2088 71.5785 55.9527 71.2811 57.6702 71.3964C62.7349 71.7362 66.1944 72.6786 72.1168 71.3324C78.1708 69.9564 82.4368 67.3376 85.0036 63.3054C86.4234 61.0751 87.3025 57.9231 86.5116 54.7984C85.7664 51.855 84.0889 49.9982 82.2563 48.5106C78.3798 45.3638 71.8685 44.0606 65.6707 44.1084L68.7761 31.8879C77.7296 33.1054 83.4754 36.4114 92 31.1149L87.7808 28.1206C79.1547 36.5345 61.5013 23.0408 45.5865 30.1583ZM60.6824 62.3297C65.4043 59.9821 65.7477 57.0355 67.7755 53.3065C68.5852 53.5683 68.6728 53.796 69.4522 54.1313C68.4913 60 62.4474 62.8035 60.1093 64.1453C60.1093 64.1453 59.7615 65.44 59.3886 67.1809C58.3771 70.8958 69.3438 72.3904 75.6033 68.3161C84.6847 62.4052 83.1308 51.5102 74.6373 47.1313C72.407 45.9816 68.264 44.7484 65.2429 45.2006L60.6824 62.3297Z" fill="white"/>
</g>
<defs>
<clipPath id="clip0_273_1254">
<rect width="120" height="120" fill="white"/>
</clipPath>
</defs>
</svg>
