<svg width="120" height="120" viewBox="0 0 120 120" fill="none" xmlns="http://www.w3.org/2000/svg">
<rect width="120" height="120" fill="#535353"/>
<path fill-rule="evenodd" clip-rule="evenodd" d="M50.9722 31.3524C48.3211 32.6464 46.0002 33.3312 43.3209 34.9502C30.0601 42.9629 25.6359 60.8718 33.7684 74.4176C35.9322 78.0217 41.6665 84.455 45.8795 85.4548L48.5573 78.0793C48.5573 78.0793 43.4154 74.6627 40.9464 70.4413C32.0382 55.2101 44.5218 41.2448 50.9416 40.5038C51.061 44.361 51.5137 69.5062 51.5137 69.5062C56.3443 56.8802 65.5559 31.5895 65.5559 31.5895L51.0725 23.2925L50.9722 31.3524Z" fill="white"/>
<path fill-rule="evenodd" clip-rule="evenodd" d="M68.8753 41.1826C69.5095 41.7418 70.2347 42.1052 70.9619 42.6414C80.0961 49.3765 82.7273 62.2828 75.2225 72.2689C73.9056 74.0212 69.7069 78.3889 66.3972 78.7176C66.2976 73.5691 65.853 49.9594 65.853 49.9594C65.853 49.9594 54.1481 81.1945 51.8906 87.832C54.3525 88.9646 66.2869 95.6404 66.2869 95.6404L66.3458 87.6715C70.4379 85.4205 74.9275 84.9205 80.1485 78.9204C89.5434 68.123 90.2195 52.3022 81.2948 41.6602C80.3384 40.5199 79.4862 39.7735 78.5559 38.7369C77.4354 37.4882 73.7893 34.3792 71.6839 34.0237L68.8753 41.1826Z" fill="#00FD00"/>
</svg>
