<svg width="40" height="40" viewBox="0 0 40 40" fill="none" xmlns="http://www.w3.org/2000/svg">
<rect width="40" height="40" fill="url(#paint0_linear_1011_545)"/>
<path d="M19.8431 3H20.0257C20.0755 3 20.116 3.04046 20.116 3.09008V11.8143C20.116 11.8639 20.0755 11.9044 20.0257 11.9044H19.8431C19.7934 11.9044 19.7528 11.8639 19.7528 11.8143V3.09008C19.7528 3.04046 19.7934 3 19.8431 3ZM19.8699 29.0956H20.0524C20.1022 29.0956 20.1428 29.1361 20.1428 29.1857V37.9099C20.1428 37.9595 20.1022 38 20.0524 38H19.8699C19.8201 38 19.7796 37.9595 19.7796 37.9099V29.1857C19.7796 29.1361 19.8201 29.0956 19.8699 29.0956ZM18.7527 28.6666H18.9353C18.985 28.6666 19.0256 28.7071 19.0256 28.7567V37.4809C19.0256 37.5305 18.985 37.571 18.9353 37.571H18.7527C18.703 37.571 18.6624 37.5305 18.6624 37.4809V28.7567C18.6624 28.7071 18.703 28.6666 18.7527 28.6666ZM17.6355 28.2376H17.8181C17.8678 28.2376 17.9084 28.278 17.9084 28.3277V37.0519C17.9084 37.1015 17.8678 37.142 17.8181 37.142H17.6355C17.5858 37.142 17.5452 37.1015 17.5452 37.0519V28.3277C17.5452 28.278 17.5858 28.2376 17.6355 28.2376ZM16.5228 27.7084H16.7054C16.7551 27.7084 16.7957 27.7489 16.7957 27.7985V36.5228C16.7957 36.5724 16.7551 36.6129 16.7054 36.6129H16.5228C16.4731 36.6129 16.4325 36.5724 16.4325 36.5228V27.7985C16.4325 27.7489 16.4731 27.7084 16.5228 27.7084ZM15.3878 27.1793H15.5703C15.6201 27.1793 15.6606 27.2198 15.6606 27.2694V35.9936C15.6606 36.0433 15.6201 36.0837 15.5703 36.0837H15.3878C15.338 36.0837 15.2974 36.0433 15.2974 35.9936V27.2694C15.2974 27.2198 15.338 27.1793 15.3878 27.1793ZM14.2527 26.6502H14.4353C14.485 26.6502 14.5256 26.6906 14.5256 26.7403V35.4645C14.5256 35.5141 14.485 35.5546 14.4353 35.5546H14.2527C14.203 35.5546 14.1624 35.5141 14.1624 35.4645V26.7403C14.1624 26.6906 14.203 26.6502 14.2527 26.6502ZM13.1036 26.0973H13.2862C13.336 26.0973 13.3765 26.1378 13.3765 26.1874V34.9116C13.3765 34.9612 13.336 35.0017 13.2862 35.0017H13.1036C13.0539 35.0017 13.0133 34.9612 13.0133 34.9116V26.1874C13.0133 26.1378 13.0539 26.0973 13.1036 26.0973ZM13.7103 25.7397H13.8928C13.9426 25.7397 13.9831 25.7802 13.9831 25.8298V34.5541C13.9831 34.6037 13.9426 34.6442 13.8928 34.6442H13.7103C13.6605 34.6442 13.62 34.6037 13.62 34.5541V25.8298C13.62 25.7802 13.6605 25.7397 13.7103 25.7397ZM14.8286 25.2154H15.0112C15.0609 25.2154 15.1015 25.2559 15.1015 25.3055V34.0297C15.1015 34.0793 15.0609 34.1198 15.0112 34.1198H14.8286C14.7789 34.1198 14.7383 34.0793 14.7383 34.0297V25.3055C14.7383 25.2559 14.7789 25.2154 14.8286 25.2154ZM15.9469 24.6911H16.1295C16.1792 24.6911 16.2198 24.7315 16.2198 24.7811V33.5054C16.2198 33.555 16.1792 33.5955 16.1295 33.5955H15.9469C15.8972 33.5955 15.8566 33.555 15.8566 33.5054V24.7811C15.8566 24.7315 15.8972 24.6911 15.9469 24.6911ZM17.0652 24.2144H17.2478C17.2976 24.2144 17.3381 24.2548 17.3381 24.3045V33.0287C17.3381 33.0783 17.2976 33.1188 17.2478 33.1188H17.0652C17.0155 33.1188 16.9749 33.0783 16.9749 33.0287V24.3045C16.9749 24.2548 17.0155 24.2144 17.0652 24.2144ZM18.1836 23.7377H18.3661C18.4159 23.7377 18.4565 23.7782 18.4565 23.8278V32.552C18.4565 32.6017 18.4159 32.6421 18.3661 32.6421H18.1836C18.1338 32.6421 18.0933 32.6017 18.0933 32.552V23.8278C18.0933 23.7782 18.1338 23.7377 18.1836 23.7377ZM19.3019 23.1824H19.4845C19.5342 23.1824 19.5748 23.2228 19.5748 23.2725V31.9967C19.5748 32.0463 19.5342 32.0868 19.4845 32.0868H19.3019C19.2522 32.0868 19.2116 32.0463 19.2116 31.9967V23.2725C19.2116 23.2228 19.2522 23.1824 19.3019 23.1824ZM20.3915 22.5868H20.5741C20.6238 22.5868 20.6644 22.6272 20.6644 22.6768V31.4011C20.6644 31.4507 20.6238 31.4912 20.5741 31.4912H20.3915C20.3418 31.4912 20.3012 31.4507 20.3012 31.4011V22.6768C20.3012 22.6272 20.3418 22.5868 20.3915 22.5868ZM21.5585 22.0195H21.741C21.7908 22.0195 21.8313 22.06 21.8313 22.1096V30.8338C21.8313 30.8834 21.7908 30.9239 21.741 30.9239H21.5585C21.5087 30.9239 21.4681 30.8834 21.4681 30.8338V22.1096C21.4681 22.06 21.5087 22.0195 21.5585 22.0195ZM22.6727 21.4952H22.8553C22.905 21.4952 22.9456 21.5356 22.9456 21.5852V30.3095C22.9456 30.3591 22.905 30.3996 22.8553 30.3996H22.6727C22.623 30.3996 22.5824 30.3591 22.5824 30.3095V21.5852C22.5824 21.5356 22.623 21.4952 22.6727 21.4952ZM23.7608 20.9708H23.9433C23.9931 20.9708 24.0336 21.0113 24.0336 21.0609V29.7851C24.0336 29.8348 23.9931 29.8752 23.9433 29.8752H23.7608C23.711 29.8752 23.6704 29.8348 23.6704 29.7851V21.0609C23.6704 21.0113 23.711 20.9708 23.7608 20.9708ZM24.9364 20.4655H25.119C25.1687 20.4655 25.2093 20.506 25.2093 20.5556V29.2798C25.2093 29.3294 25.1687 29.3699 25.119 29.3699H24.9364C24.8867 29.3699 24.8461 29.3294 24.8461 29.2798V20.5556C24.8461 20.506 24.8867 20.4655 24.9364 20.4655ZM26.0682 19.9698H26.2508C26.3006 19.9698 26.3411 20.0102 26.3411 20.0598V28.7841C26.3411 28.8337 26.3006 28.8742 26.2508 28.8742H26.0682C26.0185 28.8742 25.9779 28.8337 25.9779 28.7841V20.0598C25.9779 20.0102 26.0185 19.9698 26.0682 19.9698ZM27.1575 19.474H27.3401C27.3898 19.474 27.4304 19.5145 27.4304 19.5641V28.2884C27.4304 28.338 27.3898 28.3784 27.3401 28.3784H27.1575C27.1077 28.3784 27.0672 28.338 27.0672 28.2884V19.5641C27.0672 19.5145 27.1077 19.474 27.1575 19.474ZM26.6342 19.2004H26.8167C26.8665 19.2004 26.907 19.2409 26.907 19.2905V28.0148C26.907 28.0644 26.8665 28.1048 26.8167 28.1048H26.6342C26.5844 28.1048 26.5439 28.0644 26.5439 28.0148V19.2905C26.5439 19.2409 26.5844 19.2004 26.6342 19.2004ZM25.5023 18.6684H25.6849C25.7346 18.6684 25.7752 18.7089 25.7752 18.7585V27.4827C25.7752 27.5324 25.7346 27.5728 25.6849 27.5728H25.5023C25.4526 27.5728 25.412 27.5324 25.412 27.4827V18.7585C25.412 18.7089 25.4526 18.6684 25.5023 18.6684ZM24.3705 18.1703H24.5531C24.6028 18.1703 24.6434 18.2108 24.6434 18.2604V26.9846C24.6434 27.0342 24.6028 27.0747 24.5531 27.0747H24.3705C24.3207 27.0747 24.2802 27.0342 24.2802 26.9846V18.2604C24.2802 18.2108 24.3207 18.1703 24.3705 18.1703ZM23.2387 17.6698H23.4212C23.471 17.6698 23.5115 17.7103 23.5115 17.7599V26.4841C23.5115 26.5338 23.471 26.5742 23.4212 26.5742H23.2387C23.1889 26.5742 23.1483 26.5338 23.1483 26.4841V17.7599C23.1483 17.7103 23.1889 17.6698 23.2387 17.6698ZM22.1068 17.1693H22.2894C22.3391 17.1693 22.3797 17.2098 22.3797 17.2594V25.9836C22.3797 26.0333 22.3391 26.0737 22.2894 26.0737H22.1068C22.0571 26.0737 22.0165 26.0333 22.0165 25.9836V17.2594C22.0165 17.2098 22.0571 17.1693 22.1068 17.1693ZM20.975 16.54H21.1575C21.2073 16.54 21.2479 16.5805 21.2479 16.6301V25.3543C21.2479 25.404 21.2073 25.4444 21.1575 25.4444H20.975C20.9252 25.4444 20.8847 25.404 20.8847 25.3543V16.6301C20.8847 16.5805 20.9252 16.54 20.975 16.54ZM19.8431 16.1349H20.0257C20.0755 16.1349 20.116 16.1754 20.116 16.225V24.9492C20.116 24.9988 20.0755 25.0393 20.0257 25.0393H19.8431C19.7934 25.0393 19.7528 24.9988 19.7528 24.9492V16.225C19.7528 16.1754 19.7934 16.1349 19.8431 16.1349ZM18.7658 15.5629H18.9484C18.9981 15.5629 19.0387 15.6034 19.0387 15.653V24.3773C19.0387 24.4269 18.9981 24.4673 18.9484 24.4673H18.7658C18.716 24.4673 18.6755 24.4269 18.6755 24.3773V15.653C18.6755 15.6034 18.716 15.5629 18.7658 15.5629ZM17.5953 15.1148H17.7779C17.8276 15.1148 17.8682 15.1553 17.8682 15.2049V23.9292C17.8682 23.9788 17.8276 24.0192 17.7779 24.0192H17.5953C17.5456 24.0192 17.505 23.9788 17.505 23.9292V15.2049C17.505 15.1553 17.5456 15.1148 17.5953 15.1148ZM16.4969 14.4856H16.6795C16.7293 14.4856 16.7698 14.5261 16.7698 14.5757V23.2999C16.7698 23.3495 16.7293 23.39 16.6795 23.39H16.4969C16.4472 23.39 16.4066 23.3495 16.4066 23.2999V14.5757C16.4066 14.5261 16.4472 14.4856 16.4969 14.4856ZM15.3812 14.0185H15.5638C15.6135 14.0185 15.6541 14.0589 15.6541 14.1085V22.8328C15.6541 22.8824 15.6135 22.9229 15.5638 22.9229H15.3812C15.3314 22.9229 15.2909 22.8824 15.2909 22.8328V14.1085C15.2909 14.0589 15.3314 14.0185 15.3812 14.0185ZM14.2546 13.475H14.4372C14.4869 13.475 14.5275 13.5155 14.5275 13.5651V22.2894C14.5275 22.339 14.4869 22.3794 14.4372 22.3794H14.2546C14.2048 22.3794 14.1643 22.339 14.1643 22.2894V13.5651C14.1643 13.5155 14.2048 13.475 14.2546 13.475ZM13.0903 12.8713H13.2729C13.3226 12.8713 13.3632 12.9118 13.3632 12.9614V21.6857C13.3632 21.7353 13.3226 21.7757 13.2729 21.7757H13.0903C13.0406 21.7757 13 21.7353 13 21.6857V12.9614C13 12.9118 13.0406 12.8713 13.0903 12.8713ZM13.705 12.5788H13.8876C13.9373 12.5788 13.9779 12.6193 13.9779 12.6689V21.3932C13.9779 21.4428 13.9373 21.4832 13.8876 21.4832H13.705C13.6553 21.4832 13.6147 21.4428 13.6147 21.3932V12.6689C13.6147 12.6193 13.6553 12.5788 13.705 12.5788ZM14.8042 12.0878H14.9867C15.0365 12.0878 15.0771 12.1283 15.0771 12.1779V20.9021C15.0771 20.9518 15.0365 20.9922 14.9867 20.9922H14.8042C14.7544 20.9922 14.7139 20.9518 14.7139 20.9021V12.1779C14.7139 12.1283 14.7544 12.0878 14.8042 12.0878ZM15.9582 11.5349H16.1407C16.1905 11.5349 16.231 11.5754 16.231 11.625V20.3492C16.231 20.3988 16.1905 20.4393 16.1407 20.4393H15.9582C15.9084 20.4393 15.8678 20.3988 15.8678 20.3492V11.625C15.8678 11.5754 15.9084 11.5349 15.9582 11.5349ZM17.0357 10.982H17.2183C17.268 10.982 17.3086 11.0224 17.3086 11.0721V19.7963C17.3086 19.8459 17.268 19.8864 17.2183 19.8864H17.0357C16.986 19.8864 16.9454 19.8459 16.9454 19.7963V11.0721C16.9454 11.0224 16.986 10.982 17.0357 10.982ZM18.2134 10.5339H18.396C18.4458 10.5339 18.4863 10.5743 18.4863 10.624V19.3482C18.4863 19.3978 18.4458 19.4383 18.396 19.4383H18.2134C18.1637 19.4383 18.1231 19.3978 18.1231 19.3482V10.624C18.1231 10.5743 18.1637 10.5339 18.2134 10.5339ZM19.2999 10.0858H19.4825C19.5322 10.0858 19.5728 10.1262 19.5728 10.1759V18.9001C19.5728 18.9497 19.5322 18.9902 19.4825 18.9902H19.2999C19.2502 18.9902 19.2096 18.9497 19.2096 18.9001V10.1759C19.2096 10.1262 19.2502 10.0858 19.2999 10.0858ZM20.3864 9.51376H20.5689C20.6187 9.51376 20.6593 9.55423 20.6593 9.60384V18.3281C20.6593 18.3777 20.6187 18.4182 20.5689 18.4182H20.3864C20.3366 18.4182 20.2961 18.3777 20.2961 18.3281V9.60384C20.2961 9.55423 20.3366 9.51376 20.3864 9.51376ZM21.5635 8.99659H21.7461C21.7959 8.99659 21.8364 9.03705 21.8364 9.08667V17.8109C21.8364 17.8605 21.7959 17.901 21.7461 17.901H21.5635C21.5138 17.901 21.4732 17.8605 21.4732 17.8109V9.08667C21.4732 9.03705 21.5138 8.99659 21.5635 8.99659ZM22.6901 8.52467H22.8726C22.9224 8.52467 22.963 8.56514 22.963 8.61475V17.339C22.963 17.3886 22.9224 17.4291 22.8726 17.4291H22.6901C22.6403 17.4291 22.5998 17.3886 22.5998 17.339V8.61475C22.5998 8.56514 22.6403 8.52467 22.6901 8.52467ZM23.8166 7.95266H23.9992C24.0489 7.95266 24.0895 7.99312 24.0895 8.04274V16.767C24.0895 16.8166 24.0489 16.8571 23.9992 16.8571H23.8166C23.7669 16.8571 23.7263 16.8166 23.7263 16.767V8.04274C23.7263 7.99312 23.7669 7.95266 23.8166 7.95266ZM24.9431 7.50928H25.1257C25.1754 7.50928 25.216 7.54974 25.216 7.59936V16.3236C25.216 16.3732 25.1754 16.4137 25.1257 16.4137H24.9431C24.8934 16.4137 24.8528 16.3732 24.8528 16.3236V7.59936C24.8528 7.54974 24.8934 7.50928 24.9431 7.50928ZM26.1164 6.9182H26.2989C26.3487 6.9182 26.3892 6.95867 26.3892 7.00828V15.7325C26.3892 15.7821 26.3487 15.8226 26.2989 15.8226H26.1164C26.0666 15.8226 26.026 15.7821 26.026 15.7325V7.00828C26.026 6.95867 26.0666 6.9182 26.1164 6.9182ZM27.1983 6.32713H27.3808C27.4306 6.32713 27.4712 6.36759 27.4712 6.41721V15.1415C27.4712 15.1911 27.4306 15.2315 27.3808 15.2315H27.1983C27.1485 15.2315 27.108 15.1911 27.108 15.1415V6.41721C27.108 6.36759 27.1485 6.32713 27.1983 6.32713ZM26.7248 6.08877H26.9073C26.9571 6.08877 26.9976 6.12924 26.9976 6.17885V14.9031C26.9976 14.9527 26.9571 14.9932 26.9073 14.9932H26.7248C26.675 14.9932 26.6344 14.9527 26.6344 14.9031V6.17885C26.6344 6.12924 26.675 6.08877 26.7248 6.08877ZM25.4962 5.57398H25.6788C25.7285 5.57398 25.7691 5.61444 25.7691 5.66406V14.3883C25.7691 14.4379 25.7285 14.4784 25.6788 14.4784H25.4962C25.4464 14.4784 25.4059 14.4379 25.4059 14.3883V5.66406C25.4059 5.61444 25.4464 5.57398 25.4962 5.57398ZM24.3901 5.05918H24.5726C24.6224 5.05918 24.6629 5.09965 24.6629 5.14926V13.8735C24.6629 13.9231 24.6224 13.9636 24.5726 13.9636H24.3901C24.3403 13.9636 24.2998 13.9231 24.2998 13.8735V5.14926C24.2998 5.09965 24.3403 5.05918 24.3901 5.05918ZM23.284 4.54439H23.4665C23.5163 4.54439 23.5568 4.58485 23.5568 4.63447V13.3587C23.5568 13.4083 23.5163 13.4488 23.4665 13.4488H23.284C23.2342 13.4488 23.1936 13.4083 23.1936 13.3587V4.63447C23.1936 4.58485 23.2342 4.54439 23.284 4.54439ZM22.137 4.02959H22.3196C22.3693 4.02959 22.4099 4.07006 22.4099 4.11967V12.8439C22.4099 12.8935 22.3693 12.934 22.3196 12.934H22.137C22.0873 12.934 22.0467 12.8935 22.0467 12.8439V4.11967C22.0467 4.07006 22.0873 4.02959 22.137 4.02959ZM20.9901 3.5148H21.1727C21.2224 3.5148 21.263 3.55526 21.263 3.60488V12.3291C21.263 12.3787 21.2224 12.4192 21.1727 12.4192H20.9901C20.9403 12.4192 20.8998 12.3787 20.8998 12.3291V3.60488C20.8998 3.55526 20.9403 3.5148 20.9901 3.5148Z" fill="white"/>
<defs>
<linearGradient id="paint0_linear_1011_545" x1="1.33333" y1="48.8333" x2="41.6667" y2="8.83333" gradientUnits="userSpaceOnUse">
<stop stop-color="#1B85A1"/>
<stop offset="1" stop-color="#7AC37A"/>
</linearGradient>
</defs>
</svg>
