<svg width="120" height="120" viewBox="0 0 120 120" fill="none" xmlns="http://www.w3.org/2000/svg">
<g clip-path="url(#clip0_273_344)">
<rect width="120" height="120" fill="#21A037"/>
<path fill-rule="evenodd" clip-rule="evenodd" d="M91.9502 54.4573C91.9502 54.4573 91.9502 54.4573 84.9062 59.2746C83.8579 71.236 79.3462 80.4966 67.2057 84.5032C53.4452 89.0443 42.2295 81.2747 37.4281 73.513C25.5715 54.3463 43.3587 29.3908 66.0958 35.6015C69.559 36.5476 71.0412 37.894 73.6117 39.0003C79.9532 34.5234 79.9532 34.5234 79.9532 34.5234C78.4294 32.4137 73.9773 30.2834 70.8578 29.0849C59.3381 24.6604 45.7217 27.547 37.4172 35.2C32.7748 39.4782 28.4412 44.9218 26.6894 53.5138C21.4717 79.1021 46.8069 100.741 71.1217 91.2736C83.4374 86.4785 95.3703 72.8663 91.9502 54.4574V54.4573Z" fill="white"/>
<path fill-rule="evenodd" clip-rule="evenodd" d="M59.4902 59.2843C46.7231 51.6336 59.4902 59.2843 46.7231 51.6336L46.6241 61.1522C59.5145 68.8773 46.6241 61.1522 59.5145 68.8773C89.4749 46.554 59.5145 68.8773 89.4749 46.554C89.4749 46.554 85.8653 40.2486 85.798 40.1526C59.4903 59.2843 85.7979 40.1526 59.4903 59.2843H59.4902Z" fill="white"/>
</g>
<defs>
<clipPath id="clip0_273_344">
<rect width="120" height="120" fill="white"/>
</clipPath>
</defs>
</svg>
