<svg width="120" height="120" viewBox="0 0 120 120" fill="none" xmlns="http://www.w3.org/2000/svg">
<g clip-path="url(#clip0_273_1065)">
<rect width="120" height="120" fill="#FB8036"/>
<path fill-rule="evenodd" clip-rule="evenodd" d="M29.1575 79.1229C31.378 78.4296 30.6833 78.0114 35.5029 76.9004C47.97 74.0269 80.8602 73.5622 89.6054 79.1483C92.3864 75.2848 94.6317 68.2752 94.9376 62.4295C91.7528 63.4652 92.0144 63.917 87.278 64.891C71.3009 68.1764 36.7211 68.6707 24.0888 62.4473C23.7401 64.5926 25.0704 69.6195 25.7257 71.5792C27.0288 75.4766 28.6974 77.7769 29.1576 79.123L29.1575 79.1229ZM83.7336 37.3051L86.8887 38.0903C86.138 36.8353 85.8129 36.7424 84.8949 35.8107C80.8915 31.7478 76.7354 28.9046 71.2239 26.9996C66.2936 25.2955 60.7443 24.5718 55.1903 25.2557C48.0136 26.1396 41.3592 29.1659 36.2922 33.5918C34.5265 35.134 33.2605 36.116 31.9203 38.1821C36.6413 36.6681 43.8534 35.5542 48.9974 35.428C56.3455 35.126 62.3721 35.1555 69.7096 35.4146C73.5994 35.5655 80.0469 36.2671 83.7335 37.3052L83.7336 37.3051ZM32.221 43.335L29.0927 41.881C28.7407 42.9989 26.9709 45.6645 25.742 49.4277C24.8965 52.0168 24.0032 55.706 24 58.6322C32.1746 55.6786 28.1922 57.0877 36.2149 55.3165C43.3854 54.6865 49.6258 53.8933 57.058 53.8165C64.7251 53.7371 71.2669 54.3468 78.7226 54.7937C82.8029 55.4366 87.3895 55.8926 91.344 57.1719C92.7918 57.6402 93.7922 58.1679 95 58.6398C94.8786 55.4513 94.2023 52.3401 93.2737 49.483C92.6505 47.5655 90.7397 42.9691 89.6657 41.9456C88.7091 42.422 88.1011 42.8436 86.8531 43.292C86.0461 43.5821 84.5396 43.8419 83.856 44.1601L73.962 45.6211C69.5038 45.8447 65.2752 46.2287 60.7729 46.2758C56.1002 46.3247 51.8197 46.0601 47.2253 45.8043C44.891 45.5655 42.1452 45.3413 39.6242 44.9607C36.8756 44.5457 34.7943 43.9292 32.221 43.335V43.335ZM59.5345 96C65.4809 95.9909 70.9407 94.4964 75.5387 92.1207C79.164 90.2477 84.6572 86.4466 86.6963 83.083C84.6967 83.4462 82.6844 84.1232 80.5088 84.4923C69.8867 86.2948 55.6861 86.4233 44.9054 85.3458C38.7221 84.7276 37.9494 84.376 32.2831 83.0934C32.9171 84.4742 35.9012 86.9189 37.2577 88.0818C42.9466 92.9585 51.4622 96.0124 59.5344 96H59.5345Z" fill="white"/>
</g>
<defs>
<clipPath id="clip0_273_1065">
<rect width="120" height="120" fill="white"/>
</clipPath>
</defs>
</svg>
