<svg width="120" height="120" viewBox="0 0 120 120" fill="none" xmlns="http://www.w3.org/2000/svg">
<g clip-path="url(#clip0_273_244)">
<path d="M120 0H0V120H120V0Z" fill="#CA003D"/>
<path fill-rule="evenodd" clip-rule="evenodd" d="M46.6106 62.2826H42.2465L41.654 79.9981H44.8328C44.8328 79.9981 45.1269 71.783 45.1437 71.3929C45.4936 71.3929 48.8315 71.3956 49.1625 71.3956C49.1988 71.7538 49.7992 79.9981 49.7992 79.9981H53.0831C53.0831 79.9981 51.9538 67.83 51.8624 67.0512C51.4963 63.9159 50.0425 62.2826 46.6106 62.2826ZM45.1996 68.4511C45.2074 68.0914 45.2737 65.5719 45.2788 65.2304L45.848 65.1935C48.1909 65.1935 48.6198 65.6495 48.8367 68.4511H45.1996Z" fill="white"/>
<path fill-rule="evenodd" clip-rule="evenodd" d="M64.0598 67.944H59.6472V62.2826H56.4392V80H59.6472V70.8878H64.0598V80H67.2692V62.2826H64.0598V67.944Z" fill="white"/>
<path fill-rule="evenodd" clip-rule="evenodd" d="M32.7029 68.0792C32.1486 68.0792 31.6566 68.0914 31.2146 68.1147V65.2297H36.9824V62.2826H28V79.9948H32.8793C37.7423 79.9948 38.4965 75.6111 38.4965 73.9901C38.4965 72.0714 37.7477 68.0792 32.7029 68.0792ZM32.3128 77.2593C32.0006 77.2593 31.2146 77.1876 31.2146 77.1876V70.9506C31.2146 70.9506 31.4678 70.8911 31.7435 70.8911C33.3739 70.8911 35.3008 70.7934 35.3008 74.073C35.3008 77.0762 33.1831 77.2593 32.3128 77.2593Z" fill="white"/>
<path fill-rule="evenodd" clip-rule="evenodd" d="M90.8393 42.5359C90.4891 39.5539 89.1072 38 85.843 38H81.6908L81.1259 54.8521H84.152C84.152 54.8521 84.431 47.0368 84.4476 46.6682C84.7786 46.6682 87.9552 46.6695 88.2695 46.6695C88.3053 47.0085 88.8764 54.8521 88.8764 54.8521H92C92 54.8521 90.9245 43.2775 90.8393 42.5359ZM84.5008 43.8676C84.5082 43.5254 84.5711 41.1256 84.5761 40.803H85.1522C87.3792 40.803 87.7528 41.1999 87.9602 43.8676H84.5008Z" fill="white"/>
<path fill-rule="evenodd" clip-rule="evenodd" d="M31.1232 41.6576H34.9117V55.7036H37.9748V38.8551H28.065V55.7036H31.1232V41.6576Z" fill="white"/>
<path fill-rule="evenodd" clip-rule="evenodd" d="M62.2772 46.8735V55.0088H65.3379V38.1603H62.2772V44.0285H60.6139C59.9249 44.0285 59.4148 43.8728 59.0896 43.5577C58.8598 43.3387 58.7468 43.042 58.7468 42.6568V38.1602H55.6826V42.9706C55.6826 44.0795 56.1153 45.0174 56.9699 45.7619C57.8126 46.501 58.8437 46.8734 60.0417 46.8734L62.2772 46.8735Z" fill="white"/>
<path fill-rule="evenodd" clip-rule="evenodd" d="M74.929 54.8969V40.8509H77.4697V38.0484H69.2925V40.8509H71.8339V54.8969H74.929Z" fill="white"/>
<path fill-rule="evenodd" clip-rule="evenodd" d="M47.0328 55.7011C47.0463 55.7011 47.0612 55.7036 47.0748 55.7036C47.0834 55.7036 47.092 55.7011 47.1019 55.7011C47.1106 55.7011 47.1193 55.7036 47.1279 55.7036C47.1416 55.7036 47.1564 55.7011 47.1699 55.7011C49.1956 55.663 51.1356 54.4427 51.9759 50.9911C52.2983 49.8169 52.4632 48.3615 52.4643 46.8588H52.4656C52.4656 46.8563 52.4582 46.3184 52.4582 46.3148C52.4051 43.9056 51.9969 42.1794 51.3641 40.9505C50.3664 38.8552 48.7784 38.0706 47.1379 38.0509C47.1353 38.0509 47.1317 38.0484 47.1279 38.0484C47.1193 38.0484 47.1107 38.0497 47.102 38.0497C47.0921 38.0497 47.0835 38.0484 47.0748 38.0484C47.0711 38.0484 47.0674 38.0509 47.065 38.0509C45.4245 38.0706 43.8365 38.8552 42.8387 40.9505C42.2059 42.1794 41.7977 43.9056 41.7446 46.3148C41.7446 46.3184 41.7372 46.8563 41.7372 46.8588H41.7385C41.7398 48.3615 41.9039 49.8169 42.2269 50.9911C43.0672 54.4427 45.0076 55.663 47.0328 55.7011ZM44.7902 46.9376C44.8163 42.3783 45.9289 40.8786 47.1018 40.8528C48.2738 40.8787 49.3864 42.3783 49.4122 46.9376V46.9401C49.3864 51.3948 48.2737 52.9166 47.1018 52.94C45.9288 52.9166 44.8162 51.3948 44.7902 46.9401V46.9376Z" fill="white"/>
<path fill-rule="evenodd" clip-rule="evenodd" d="M81.1185 66.689C81.3892 65.5661 81.7435 62.2826 81.7435 62.2826H78.5795C78.5601 62.6176 78.4913 63.7393 78.3927 64.883C78.246 66.5785 77.7547 68.138 76.0446 68.138H74.7258C74.7232 67.9963 74.7258 62.2826 74.7258 62.2826H71.5087V80H74.7258V71.0042C74.7258 71.0042 76.4268 71.0068 76.6677 71.0042L79.827 79.9948H83.2811L79.413 69.6128C80.2158 69.0086 80.8408 67.8469 81.1185 66.689Z" fill="white"/>
</g>
<defs>
<clipPath id="clip0_273_244">
<rect width="120" height="120" fill="white"/>
</clipPath>
</defs>
</svg>
