<svg width="120" height="120" viewBox="0 0 120 120" fill="none" xmlns="http://www.w3.org/2000/svg">
<g clip-path="url(#clip0_273_74)">
<path fill-rule="evenodd" clip-rule="evenodd" d="M0 120H120V0H0V120ZM54.7225 29.9219C39.6216 31.3533 24.3252 36.9219 16.9096 49.2816C14.4565 53.3702 13.1668 59.3034 14.5143 64.8107C16.8088 74.1881 25.0666 80.7344 32.9164 84.4647C51.2042 93.1553 77.9203 92.2061 93.8636 80.5199C101.714 74.7657 108.115 65.9333 105.486 55.1893C101.329 38.2027 76.7366 27.8353 54.7224 29.9219H54.7225ZM62.7812 59.8436C62.0291 63.3835 60.4705 66.9681 60.3755 70.9382C60.3127 73.562 61.6132 73.9895 64.1463 73.9639C69.629 73.9085 86.3119 63.736 85.2899 60.7031C83.372 58.1232 72.0152 58.4407 67.9977 58.1269C67.9924 56.9798 68.8795 53.5209 69.4054 52.6194L97.6038 52.5766C98.4725 54.7347 98.7062 55.171 98.4257 57.9992C97.3294 69.0542 84.9331 76.7429 75.0794 79.8854C67.7628 82.2186 60.4431 83.0338 52.1202 82.6986C46.8737 82.4872 40.8215 81.236 35.9739 79.4272C34.3849 78.8342 32.7969 77.9425 31.3086 77.4598C32.8456 79.3491 38.454 82.0386 40.4459 82.8372C44.0151 84.2682 47.8593 85.2822 51.9048 85.8275C67.6566 87.9509 85.414 84.0867 95.6853 72.7134C97.8141 70.3561 99.7983 67.0582 100.493 63.0703C101.35 58.155 99.8689 54.7959 98.154 51.2245L69.9017 51.2231C70.069 49.6955 72.7087 43.2974 71.8815 42.6172C68.796 41.6322 65.8636 43.7258 64.2716 45.0246C63.3427 45.7822 60.1362 49.5336 59.6387 50.8941C53.201 51.0483 33.7054 48.4492 30.8849 53.6567C29.541 58.4765 51.0505 59.0629 52.6973 59.2107C51.9281 60.7869 49.1126 63.1753 47.7219 64.343C46.1061 65.6998 43.5113 67.1649 41.1555 68.0551C37.2902 69.5155 27.0854 71.0354 23.0507 69.187C19.0772 61.4877 23.8065 54.4205 27.5507 50.2966C31.4632 45.9872 38.4449 42.3226 44.2768 40.3453C56.2312 36.292 72.1314 35.9153 84.3609 40.6746C85.8248 41.2443 87.6743 42.2478 89.0054 42.6547C88.5868 42.3649 88.1546 41.8938 87.6532 41.5352C85.5822 40.054 84.4958 39.5525 82.2851 38.3647C74.5347 34.201 62.7918 33.0612 53.8524 33.9047C40.3166 35.1823 29.274 40.9062 23.4073 48.3423C18.7178 54.2864 17.8535 61.9787 22.0323 69.3135C22.9382 70.9037 23.48 71.3576 24.5852 72.4485C27.503 75.3285 27.0866 75.2709 32.8067 74.1634C54.2208 70.0176 55.8438 61.0774 57.6202 59.8216C58.3292 59.3206 61.7248 59.7341 62.7814 59.8437L62.7812 59.8436ZM80.0817 62.1513C78.7666 60.8929 76.4007 60.7643 74.3616 60.5494C72.9463 60.4002 68.4791 59.9095 67.3532 60.135C66.7301 62.5438 65.9597 64.7694 65.5347 67.2671C64.7559 71.8438 65.8964 71.6045 69.5531 69.986C71.7851 68.9981 79.9454 65.0902 80.0817 62.1514V62.1513ZM37.5028 53.8385C37.7666 55.8614 43.3798 56.3451 45.052 56.5707C47.9956 56.9676 51.5121 57.3434 54.5452 57.3506L58.1214 52.6996C54.2947 52.7825 39.8055 52.5649 37.5027 53.8385H37.5028ZM58.8454 57.7721L63.4978 57.9478L65.751 52.7769L62.188 52.6983C61.5079 53.6284 59.1415 56.7911 58.8455 57.7721H58.8454ZM63.7063 50.9566L66.7348 50.9997C67.1995 50.0228 68.1518 48.188 68.1942 46.9937C66.7888 46.8895 64.0572 49.6848 63.7063 50.9566Z" fill="#24458C"/>
</g>
<defs>
<clipPath id="clip0_273_74">
<rect width="120" height="120" fill="white"/>
</clipPath>
</defs>
</svg>
