<svg width="120" height="120" viewBox="0 0 120 120" fill="none" xmlns="http://www.w3.org/2000/svg">
<g clip-path="url(#clip0_273_328)">
<path fill-rule="evenodd" clip-rule="evenodd" d="M0 120H120V0H0V120Z" fill="#0E2D61"/>
<path fill-rule="evenodd" clip-rule="evenodd" d="M54.7609 50.0361L56.9146 50.109L56.9897 36.0558C61.1357 35.8033 64.833 35.7131 65.9434 39.1822C66.5162 40.9724 65.928 42.628 64.8887 43.6829C63.2961 45.2992 62.7235 44.9205 60.2269 45.1837L60.1961 47.2982C65.3889 48.0004 69.9638 43.3833 67.9742 38.2178C67.2101 36.2342 65.6021 34.6432 63.3542 34.0555C62.1824 33.7491 56.0488 33.6556 54.7936 33.873L54.7609 50.0361Z" fill="#FEFEFE"/>
<path fill-rule="evenodd" clip-rule="evenodd" d="M32.2817 82.9615L39.1044 87.535C40.2558 88.352 40.5157 87.9367 41.9086 87.4718C49.4061 84.9696 56.3006 81.8963 62.1673 77.1243C63.3066 76.1976 64.7011 74.4815 65.5136 72.7553C66.4651 70.734 66.3161 68.2331 65.8018 66.0305C62.3751 51.3503 41.29 50.6878 41.8118 44.2303C42.1179 40.4419 47.3485 37.4004 49.6735 36.7976C45.7876 37.1519 33.1288 42.9636 42.7276 49.9082C45.2554 51.7371 48.2713 53.4216 51.069 55.1032C55.0875 57.5184 59.8895 60.9425 61.285 65.2577C63.2045 71.1919 58.2059 74.2826 53.2249 76.6675C50.3366 78.0506 46.6133 79.3701 43.2756 80.275L32.2817 82.9615Z" fill="#FEFEFE"/>
<path fill-rule="evenodd" clip-rule="evenodd" d="M22 76.0042C22.4033 76.3918 30.9606 82.1925 31.3078 82.3137C32.3793 82.688 42.2616 79.9736 43.9018 79.4955C47.5923 78.4198 52.1529 76.8228 55.1453 75.0686C58.1624 73.2998 62.2224 70.8653 60.8541 65.8506C59.1016 59.4272 49.6569 55.1311 43.9848 51.46C41.2844 49.7124 36.824 46.7572 39.5215 42.171C41.8724 38.1741 47.9525 37.1712 49.4095 36.3642C43.463 36.7186 32.7744 41.4736 37.3552 48.7658C39.779 52.6245 46.547 56.0146 50.5692 58.9161C51.2635 59.4169 51.8176 59.9103 52.4408 60.383C53.8935 61.4848 58.0924 66.1421 55.2303 69.0458C50.2197 74.1295 29.0781 75.3659 22 76.0042Z" fill="#FEFEFE"/>
<path fill-rule="evenodd" clip-rule="evenodd" d="M51.9906 50.0876L54.2229 50.1L54.224 33.3379C55.929 33.1786 59.4303 33.2778 61.3707 33.2793C67.9663 33.2843 71.8345 40.8953 66.3235 46.1496C64.4504 47.9355 63.0152 47.5275 60.2104 47.9516L60.2062 50.0563C72.1163 51.2299 75.2558 35.1325 64.6413 31.5588C62.1959 30.7355 55.1477 31.0615 51.9887 31.0744L51.9906 50.0876Z" fill="#FEFEFE"/>
<path fill-rule="evenodd" clip-rule="evenodd" d="M66.8333 64.712L69.1207 64.7061C69.0993 61.6999 68.6231 52.6002 69.7074 50.5435C71.0803 47.9391 74.4517 46.963 77.1348 48.8824C78.1133 49.5823 78.0642 50.0808 78.8491 51.0097C79.5356 50.1508 79.6689 49.5423 80.4536 48.9481C81.134 48.433 82.0059 47.9936 83.0889 47.8967C85.4262 47.6874 87.1554 49.0089 87.9351 50.4229C88.8609 52.1014 88.544 55.0451 88.544 57.1374C88.544 59.6521 88.5821 62.1961 88.5336 64.707L90.8268 64.7043C90.7344 57.0589 92.6907 47.8328 85.4244 45.928C82.4113 45.1381 80.7521 46.2279 78.8491 47.3484C77.602 46.8345 75.9323 45.0447 72.4106 45.8889C70.23 46.4118 68.6903 47.8546 67.8235 49.3783C66.5508 51.6154 66.8332 53.6759 66.8332 56.4391C66.8332 59.1967 66.8341 61.9544 66.8333 64.712Z" fill="#FEFEFE"/>
<path fill-rule="evenodd" clip-rule="evenodd" d="M69.6496 64.7125L71.9381 64.7013C71.9089 61.9926 71.9314 59.2984 71.9314 56.6137C71.9314 54.2665 71.2795 50.6242 74.0821 50.6017C77.1981 50.6582 76.4534 59.1174 76.3296 64.6889L78.4266 64.719C78.4266 64.719 78.5555 56.2459 78.557 54.5187C78.5584 52.6532 78.6447 51.5719 77.7005 50.2414C76.036 47.8958 72.7288 47.6555 70.7106 49.9637C69.6372 51.1915 69.643 52.3415 69.6491 54.1697C69.6609 57.6833 69.6489 61.1986 69.6496 64.7125Z" fill="#FEFEFE"/>
<path fill-rule="evenodd" clip-rule="evenodd" d="M79.1594 64.6875L81.2516 64.718C81.3838 56.7883 81.3838 58.2721 81.3838 56.7883C81.3838 54.2702 80.6919 50.7364 83.4412 50.6033C86.3514 50.4624 85.7271 54.2032 85.7271 56.4391C85.7271 59.1899 85.7501 61.9504 85.7213 64.7001L88.0122 64.7077C87.9758 61.2454 87.9991 57.7868 88.0046 54.3442C88.0077 52.431 87.9688 51.4452 87.0243 50.101C85.4953 47.9249 81.7821 47.8015 80.0322 50.1027C79.014 51.4417 79.1038 52.4845 79.1046 54.3442C79.1059 56.9155 79.1594 64.6875 79.1594 64.6875Z" fill="#FEFEFE"/>
</g>
<defs>
<clipPath id="clip0_273_328">
<rect width="120" height="120" fill="white"/>
</clipPath>
</defs>
</svg>
