<svg width="120" height="120" viewBox="0 0 120 120" fill="none" xmlns="http://www.w3.org/2000/svg">
<path d="M120 0H0V120H120V0Z" fill="#FF7C20"/>
<path fill-rule="evenodd" clip-rule="evenodd" d="M80.2582 54.8364C77.4947 54.8791 74.9004 55.8218 72.8912 57.4984C71.2462 58.871 69.7836 61.2652 69.7858 64.5366C69.7899 70.7318 74.7572 74.1692 80.2643 74.2097L80.257 76.951L84.5094 76.96L84.5059 74.8557C84.4928 73.8325 84.4713 74.4084 86.7668 73.977C88.8691 73.5818 90.3591 72.8331 91.9449 71.5934C93.9355 70.0372 95.0229 67.1663 94.9996 64.5347C94.9697 61.1456 93.603 59.0167 91.915 57.5064C89.6451 55.4757 87.3941 55.1983 84.5123 54.8112L84.5082 52.4738L80.2577 52.4716L80.2582 54.8364ZM84.5091 70.4847C85.6282 70.5701 87.9675 69.7751 88.9944 68.9298C93.1915 65.4753 89.8833 58.0128 84.5067 58.5818L84.5091 70.4847ZM80.2576 70.5135L80.2573 58.5476C76.5868 58.8611 74.061 60.6565 74.022 64.5361C73.9814 68.5748 76.5842 70.1244 80.2576 70.5135Z" fill="#FEFEFE"/>
<path fill-rule="evenodd" clip-rule="evenodd" d="M27.001 76.9567C28.9769 76.9793 38.285 77.0551 39.5951 76.9293C43.476 76.5567 45.9152 74.8412 46.6511 71.3157C47.3878 67.7873 46.2577 64.2452 42.9921 62.6874C40.702 61.5949 37.1597 61.8234 34.3887 61.8234C33.445 61.8234 32.1484 61.8982 31.2472 61.8016L31.253 56.1851L44.8746 56.1568L44.8791 52.478L27 52.4707L27.001 76.9567ZM31.2514 73.4456C33.0264 73.5179 35.6027 73.464 37.4669 73.4638C39.3804 73.4636 40.999 73.3655 41.8737 72.0857C43.2421 70.0837 42.9971 65.3187 38.3133 65.3184C36.3387 65.3181 33.0904 65.233 31.2586 65.3377L31.2514 73.4456Z" fill="#FEFEFE"/>
<path fill-rule="evenodd" clip-rule="evenodd" d="M54.3166 63.5539L54.3207 57.4097C52.8832 58.1381 51.9773 56.5527 50.9485 55.2866C50.655 54.9254 50.4034 54.5063 50.1077 54.1488L50.104 76.9376L54.3218 76.9605C54.3186 74.4214 54.3476 71.8775 54.3197 69.3467C54.3099 68.4681 54.4754 68.5906 54.9389 68.1098C55.2706 67.7656 55.5581 67.4753 55.8982 67.1385C56.4866 66.5559 57.2641 65.8408 57.7685 65.2381C58.1087 65.4977 63.1858 73.1191 63.7919 73.9979C64.1592 74.5304 64.4411 74.971 64.7976 75.4668C65.1314 75.9309 65.5374 76.486 65.7893 76.9477L71.0469 76.9606C70.7701 76.4385 66.4157 70.336 65.9159 69.6076C65.0532 68.3507 64.2143 67.2069 63.3352 65.923C62.9506 65.3612 60.8968 62.5576 60.7889 62.2085C62.2314 60.8385 64.1179 58.8244 65.5872 57.3521C66.019 56.9194 70.1451 52.8627 70.3906 52.4867L65.3941 52.4654C64.8473 52.4997 64.492 53.1615 63.992 53.6483L61.0618 56.6688C60.7607 56.9821 60.4968 57.1951 60.2054 57.5109L56.0373 61.8454C55.5668 62.3462 54.9132 63.1238 54.3166 63.5539Z" fill="#FEFEFE"/>
<path fill-rule="evenodd" clip-rule="evenodd" d="M56.7965 35.8073C56.2205 35.7014 55.62 35.4617 54.9687 35.317C50.5885 34.3439 44.9695 34.6275 40.6261 35.8205C40.2767 35.9165 40.3136 35.9286 40.2035 36.0536C40.4333 36.3635 41.5436 36.5149 41.9637 36.6458C46.5948 38.0886 49.3223 40.7987 53.4683 41.4905L52.4531 43.1769C52.156 43.7243 51.8509 44.4073 51.6171 45.0521C50.8575 47.1456 50.3642 49.6883 50.5018 52.0341C50.5639 53.093 50.5875 53.4218 51.0965 54.1247C51.6431 54.8797 52.2668 55.6771 52.9002 56.3454C54.3892 57.9163 53.9743 55.0582 53.9942 54.137C54.037 52.1667 54.2784 48.5836 55.5455 47.3039C56.2458 46.5966 58.3811 46.2326 59.429 45.6315C62.157 44.0668 62.4358 40.4488 62.3661 37.4507C62.2526 32.5764 64.6714 32.9152 68.2543 32.179C70.1016 31.7995 71.2521 31.6335 73.0724 31.3732C72.8057 30.6934 71.4877 31.1257 70.8838 31.2507C70.0657 31.42 69.289 31.5431 68.4783 31.7054C67.0842 31.9843 65.0329 32.4825 63.6301 32.5567C62.5077 32.6161 60.7783 31.3529 58.8818 32.1146C57.4989 32.6698 56.7162 33.9251 56.7965 35.8073Z" fill="#54291D"/>
</svg>
