<svg width="120" height="120" viewBox="0 0 120 120" fill="none" xmlns="http://www.w3.org/2000/svg">
<g clip-path="url(#clip0_273_766)">
<path d="M120 0H0V120H120V0Z" fill="#1023DF"/>
<path d="M59.5 95C79.1061 95 95 79.1061 95 59.5C95 39.8939 79.1061 24 59.5 24C39.8939 24 24 39.8939 24 59.5C24 79.1061 39.8939 95 59.5 95Z" fill="#FEFEFE"/>
<path fill-rule="evenodd" clip-rule="evenodd" d="M70.6625 51.7944C70.7043 51.819 70.6764 51.7799 70.7691 51.8761C70.8203 51.9293 70.8499 51.9695 70.8988 52.0425C72.2773 54.0994 73.0098 56.5906 73.0894 59.1053C73.1864 62.173 72.2384 64.74 70.954 66.7724C65.1281 75.9914 50.9118 74.8658 46.8386 64.1829C45.1189 59.6727 46.0367 54.6449 49.0155 50.9143C49.2049 50.6772 49.3588 50.4642 49.397 50.1066C49.459 49.5267 49.2256 49.4035 49.2057 49.0806C49.016 48.9625 49.0529 48.9741 48.8889 48.8084L46.9583 46.8766C45.8086 45.7387 44.4167 43.7006 43.041 45.329C42.6981 45.7349 42.3952 46.1143 42.0576 46.5548C41.5059 47.2744 40.48 49.0668 40.3019 49.2195C40.2459 49.5389 39.9243 50.085 39.7662 50.409C38.2175 53.5836 37.6806 57.4167 37.8505 60.9913C38.197 68.2835 42.9116 75.1214 49.038 78.4788C52.4532 80.3503 56.0035 81.3272 60.6849 81.1673C64.7488 81.0285 68.6484 79.4876 71.4214 77.6512C74.3798 75.6919 76.5238 73.4009 78.3955 70.2637C80.1723 67.2857 81.3716 63.2421 81.2704 58.7897C81.123 52.3102 78.001 48.2331 77.9598 47.8139C77.5264 47.4644 77.1706 46.7299 76.8545 46.3277C76.1524 45.434 75.1983 43.9044 73.8867 44.7767C73.5457 45.0035 70.6061 48.0847 70.1609 48.5464C68.5956 50.1692 70.2885 50.7286 70.6625 51.7944Z" fill="#1023DF"/>
</g>
<defs>
<clipPath id="clip0_273_766">
<rect width="120" height="120" fill="white"/>
</clipPath>
</defs>
</svg>
