<svg width="120" height="120" viewBox="0 0 120 120" fill="none" xmlns="http://www.w3.org/2000/svg">
<g clip-path="url(#clip0_273_352)">
<rect width="120" height="120" fill="#083C73"/>
<path fill-rule="evenodd" clip-rule="evenodd" d="M56.2674 35.7417C56.2674 36.7731 55.9687 38.1456 55.8391 39.0577C55.6695 40.2515 55.5775 41.4661 55.33 42.5269C55.353 42.525 65.342 39.7546 69.1428 39.2365C75.2742 38.4009 79.4201 38.3154 85.5631 38.3154C85.2526 37.1544 81.6999 34.21 80.6442 33.3991C78.4851 31.741 79.1812 32.1687 77.3776 32.2295C69.6042 32.4919 63.7988 33.9899 56.2674 35.7417Z" fill="white"/>
<path fill-rule="evenodd" clip-rule="evenodd" d="M55.0955 44.6327C54.848 45.6935 54.756 46.9082 54.5864 48.1021C54.436 49.1605 54.1581 50.4079 54.1581 51.6521C57.7135 50.8252 60.1103 49.5919 65.5433 48.5118C72.1291 47.2026 81.1967 46.4359 88.1783 47.1693C89.1887 47.2754 90.6101 47.4405 91.4221 47.4405C91.0997 46.8321 90.8643 46.1894 90.5195 45.5338L88.4742 41.9603C88.0071 41.2386 87.8334 40.6552 86.7347 40.6552C75.0495 40.6552 71.9526 40.5003 60.3903 43.1335C58.5304 43.557 56.7958 44.2374 55.0955 44.6327Z" fill="white"/>
<path fill-rule="evenodd" clip-rule="evenodd" d="M52.752 61.7132L59.0492 59.5768C61.2236 58.9051 63.5766 58.4076 66.0521 57.9109C73.2997 56.4572 86.3146 55.5346 93.7658 57.2677C93.7658 56.0343 93.1995 52.4439 92.7485 51.264C92.4176 50.3985 92.2873 50.5468 91.275 50.3953C79.2671 48.5985 66.0518 50.4993 54.8758 54.0064C53.4603 54.4505 53.7749 53.9858 53.291 57.3377C53.0999 58.6613 52.752 60.4669 52.752 61.7132Z" fill="white"/>
<path fill-rule="evenodd" clip-rule="evenodd" d="M51.1113 72.944L57.7615 70.6921C65.0916 68.2302 76.7037 66.6664 84.6265 67.0934L93.2969 67.7965C93.3253 66.527 94 64.3031 94 60.3093C82.4287 59.398 75.6513 58.3554 61.8892 61.7104L53.2873 64.1194C52.333 64.4432 52.3151 64.4554 52.1304 65.5382L51.1113 72.944Z" fill="white"/>
<path fill-rule="evenodd" clip-rule="evenodd" d="M49.4708 85.1107L56.4329 82.4683C60.9727 80.6646 67.522 79.6097 72.3344 78.9235C77.1867 78.2315 84.0078 78.3916 88.844 78.7934C89.783 77.0217 92.192 72.8476 92.3596 70.8382C90.5509 70.798 87.3957 70.1363 83.9224 70.1363C77.8776 70.1363 74.3112 70.002 68.1846 71.0369C65.5172 71.4875 52.0451 74.35 50.9373 75.578C50.5992 75.9528 49.4708 83.8257 49.4708 85.1107Z" fill="white"/>
<path fill-rule="evenodd" clip-rule="evenodd" d="M28.2968 75.3649C31.7586 82.5653 37.3039 88.0229 44.3925 91.5846C51.7833 95.298 61.8232 96.053 69.8336 93.507C72.9671 92.511 74.0344 91.8369 76.659 90.4939C78.8332 89.3816 83.4698 85.7537 84.8601 83.941C85.455 83.1653 86.7097 82.1038 86.9693 81.1332C84.6895 81.1332 83.3545 80.8992 81.1101 80.8992C74.7561 80.8992 69.0778 81.7018 63.7839 82.7877C60.2473 83.5131 52.0336 85.9984 49.0022 87.4505L48.5334 91.1941C10.8783 73.156 29.8258 27.2978 57.4393 28.2545C57.2434 28.6622 56.5187 33.5882 56.5019 34.3378C61.4251 33.1928 64.0122 31.8901 70.6043 31.1026C72.4882 30.8775 73.9477 30.5943 75.9542 30.5943C60.1227 21.0667 42.7987 27.8872 34.2648 37.1731C24.7766 47.4975 22.1962 62.6767 28.2968 75.3649Z" fill="white"/>
</g>
<defs>
<clipPath id="clip0_273_352">
<rect width="120" height="120" fill="white"/>
</clipPath>
</defs>
</svg>
