<svg width="120" height="120" viewBox="0 0 120 120" fill="none" xmlns="http://www.w3.org/2000/svg">
<rect width="120" height="120" fill="#D94727"/>
<path fill-rule="evenodd" clip-rule="evenodd" d="M89 58.9019C88.9923 52.4765 84.2457 47.485 79.0052 44.6841C73.3924 41.6844 66.943 39.9998 59.0568 40C46.5926 40.0002 33.0357 45.4759 30.2824 56.3391C29.6305 58.9116 30.1835 62.4655 31.1622 64.3328C32.2875 66.4796 33.0726 67.7092 34.9793 69.6152C39.5145 74.1482 47.3999 76.8395 54.034 77.6405C60.4956 78.4208 64.549 77.8667 70.4319 76.596C78.9915 74.7475 89.011 68.4164 89 58.9018V58.9019ZM66.8749 58.8393L66.3064 66.1117C66.1117 68.0011 64.6318 72.1279 63.4297 73.9234C62.9004 74.7139 62.5263 74.7575 62.3545 75.591C70.6045 75.6761 83.3165 69.7904 84.6621 59.9298C85.1928 56.0401 83.0617 50.5775 81.6646 50.0684C80.9557 51.1544 81.7003 51.7094 79.5931 53.7608C78.6084 54.7194 77.1745 55.5835 75.9664 56.1513C71.6337 58.1882 67.8811 58.3219 66.8747 58.8391L66.8749 58.8393ZM56.7329 75.7199C56.6581 74.8992 56.1982 74.7701 55.7256 74.1224C55.3386 73.5923 55.1216 73.1365 54.7396 72.4473C52.6588 68.6935 52.3191 63.2628 52.1965 58.8968C49.3697 57.7983 43.607 57.7032 39.6119 53.9152C39.1855 53.5108 38.636 53.0024 38.2581 52.406L37.2783 50.1718C36.3551 50.7059 35.251 53.2414 34.9432 54.1326C30.6711 66.5091 45.5218 75.2615 56.7327 75.7201L56.7329 75.7199ZM52.6711 53.8433C52.7975 51.8985 53.846 48.6587 54.5465 47.2185C55.4364 45.3891 56.1904 44.2189 57.7909 43.2669C58.4694 42.6386 58.4694 42.6386 58.4694 42.6386C49.5499 41.893 36.7935 47.3329 45.2338 51.8245C46.7487 52.6308 50.816 53.8654 52.6711 53.8433ZM66.4092 53.89C70.0156 53.6356 79.8607 50.7296 75.5044 46.4879C72.8726 43.9255 65.7259 42.4541 60.6379 42.6069C61.0692 43.6616 65.044 44.3342 66.4092 53.89ZM63.9945 59.3429L55.1027 59.2813C54.9224 62.5565 56.3972 69.653 59.4733 69.7207C62.5854 69.7891 64.1453 62.6754 63.9945 59.3429ZM55.5136 54.384C56.6226 54.4241 62.5302 54.618 63.1941 54.3655C63.9165 54.0905 63.6905 53.8722 63.4914 53.1047C63.11 51.6343 62.857 50.1854 61.9021 48.869C58.1523 43.6998 55.236 51.9592 55.5136 54.3838V54.384Z" fill="white"/>
</svg>
