<svg width="120" height="120" viewBox="0 0 120 120" fill="none" xmlns="http://www.w3.org/2000/svg">
<g clip-path="url(#clip0_273_193)">
<path fill-rule="evenodd" clip-rule="evenodd" d="M0 120H120V0H0V120Z" fill="#7E1415"/>
<path fill-rule="evenodd" clip-rule="evenodd" d="M68.2021 36.2075L67.9177 36.1142C67.6934 34.5558 68.1286 26.8308 67.8055 26.2427C67.5602 26.1302 61.555 26.114 61.1789 26.2271C61.1699 26.2447 61.1601 26.2691 61.1566 26.2818C61.069 26.591 61.1099 26.5631 61.1088 27.2671C61.1069 28.4557 61.2073 34.4993 61.0307 34.6919C60.8842 34.8523 57.869 34.7629 57.7755 34.7477C57.5098 33.484 57.9495 27.0958 57.6681 26.1226L50.9759 26.1532L50.9418 36.0098C50.4851 36.295 48.1551 37.0473 46.5194 38.0276C40.6336 41.5549 35.4504 46.984 33.8483 53.7952C33.7674 54.1385 33.6138 54.4478 33.5594 54.7757C33.2409 56.6987 32.8789 57.301 33.0393 59.4923L57.7179 59.5029C57.8285 58.1363 57.7344 48.9482 57.7317 46.7981C57.7309 46.0805 57.7317 45.3631 57.7309 44.6457C57.7282 42.396 57.3621 42.5659 59.3944 42.5694C59.9098 42.5704 60.5986 42.507 61.0192 42.6447C61.339 43.7578 60.8035 59.0815 61.1407 59.4273C61.1618 59.437 61.1944 59.4238 61.207 59.4496C61.2482 59.5338 62.5442 59.5014 62.6349 59.5014C63.1481 59.5019 63.661 59.5029 64.1742 59.5027C65.2001 59.5023 66.2264 59.4983 67.2525 59.5011C69.3315 59.507 71.4115 59.5032 73.4905 59.5016C77.6298 59.4983 81.865 59.5888 85.992 59.4872C86.0366 58.5279 85.8871 57.9708 85.7359 57.1546C85.4783 55.7646 85.5024 55.3517 85.0392 54.0246C84.9456 53.7562 84.8452 53.31 84.7635 53.0125C84.576 52.3303 84.3541 51.6979 84.0804 51.1313C83.4796 49.8877 83.3069 49.1609 82.3825 47.693C81.6903 46.5943 81.0143 45.5449 80.2881 44.6538C76.8474 40.4315 73.1642 38.017 68.2016 36.2077L68.2021 36.2075ZM85.8424 63.8282L33.0501 63.8108C32.9134 65.0629 33.6893 67.5 34.121 68.7791C36.6814 76.3656 41.5525 81.6504 49.0408 84.96C57.991 88.9158 70.2191 87.0172 77.4038 80.1442C81.3083 76.4082 84.3504 71.7693 85.4057 66.425C85.5038 65.9289 85.9342 64.3088 85.8424 63.8282ZM74.4983 71.4134L44.3657 71.4028C44.4122 71.9339 45.2557 72.7161 45.5868 73.0573C47.4769 75.0057 47.8809 75.3258 50.2859 76.8062C55.1711 79.8136 63.5051 79.93 68.5212 76.8237C71.1955 75.1677 72.2292 74.3667 74.2455 71.9379C74.4256 71.721 74.4546 71.6951 74.4981 71.4132L74.4983 71.4134ZM67.9182 51.8992L75.5586 51.9404C75.4772 51.0717 72.8804 48.168 72.294 47.6562C69.8447 45.5185 70.4601 46.223 68.5351 44.8951C68.3027 44.7347 68.2933 44.6275 67.9571 44.6231C67.8035 45.1813 67.8765 50.9417 67.9182 51.8994V51.8992ZM43.254 51.9305L50.899 51.9409L50.9176 44.701C50.6573 44.7254 49.8653 45.1547 49.6255 45.3202C48.1622 46.3302 47.8406 46.4683 46.4943 47.7365C45.8778 48.3173 45.3926 48.8958 44.7399 49.679C44.4419 50.0362 44.1963 50.3153 43.957 50.7452C43.7034 51.2005 43.3312 51.5158 43.254 51.9305ZM57.6683 26.1228C57.9497 27.0962 57.51 33.4842 57.7757 34.7479C57.8693 34.7631 60.8844 34.8526 61.0309 34.6921C61.2073 34.4995 61.1071 28.4558 61.1089 27.2673C61.1101 26.5631 61.0692 26.591 61.1568 26.282C61.1603 26.2693 61.17 26.2448 61.1791 26.2273C61.5552 26.1142 67.5603 26.1302 67.8057 26.2428C68.129 26.8308 67.6938 34.556 67.9178 36.1144L68.2023 36.2077C67.851 35.4998 68.0165 32.2485 68.0165 31.2535L67.9873 26.3233C67.8144 25.7497 61.1264 26.1097 61.0962 26.131C60.8075 26.335 60.9589 30.0814 60.9591 30.3765C60.9602 31.7631 60.9913 33.2041 60.9342 34.5849C60.5523 34.6888 58.2887 34.6957 57.8874 34.6064C57.7392 32.1993 58.0002 28.7485 57.8937 26.5419C57.8732 26.1188 57.9588 26.2167 57.6684 26.1229L57.6683 26.1228Z" fill="#F8F6F7"/>
</g>
<defs>
<clipPath id="clip0_273_193">
<rect width="120" height="120" fill="white"/>
</clipPath>
</defs>
</svg>
