<svg width="120" height="120" viewBox="0 0 120 120" fill="none" xmlns="http://www.w3.org/2000/svg">
<rect width="120" height="120" fill="#1078BF"/>
<path fill-rule="evenodd" clip-rule="evenodd" d="M42.323 94.978L42.4705 92.1622C42.8379 74.2061 45.6223 64.8169 52.6952 49.6923C54.1755 46.5269 58.1035 39.5866 59.3445 38.617C60.4989 39.4619 64.6955 46.9933 65.7717 49.1604C67.6827 53.0083 69.3339 56.7767 70.9801 60.9654C74.9339 71.0256 76.5676 82.7184 76.3014 94.1417C76.768 93.6337 76.8474 92.8797 77.0182 92.132C77.1878 91.3893 77.3451 90.6191 77.4858 89.8836C81.5176 68.7938 77.3472 47.5612 66.77 29.2539C64.9893 26.1718 61.6762 20.5151 59.3446 18C56.6381 20.7812 51.6795 30.078 50.0738 33.2693C43.8854 45.5689 40.055 58.2072 40.0007 72.5799C39.9857 76.5818 40.2012 80.4726 40.6354 84.3965C40.8387 86.2355 41.0605 88.0259 41.3459 89.8072C41.6156 91.4904 42.1392 93.4629 42.323 94.978Z" fill="white"/>
<path fill-rule="evenodd" clip-rule="evenodd" d="M48.4227 95C49.0029 85.6463 51.7998 67.7667 59.3351 61.1665C66.6879 67.8557 70.426 85.2648 70.3361 94.9518C72.6034 79.8875 73.1942 71.5735 65.593 57.8402C64.4913 55.8497 60.7888 49.9977 59.3351 48.7104C58.0568 49.6451 54.5708 55.7349 53.451 57.7771C46.3596 70.7111 46.2057 80.4953 48.4227 95Z" fill="white"/>
</svg>
