<svg width="120" height="120" viewBox="0 0 120 120" fill="none" xmlns="http://www.w3.org/2000/svg">
<rect width="120" height="120" fill="#00ABC9"/>
<path fill-rule="evenodd" clip-rule="evenodd" d="M25 81L83.255 80.9977C83.5574 80.9257 83.4475 80.8443 83.7117 80.0077L88.2889 64.9248C88.5032 64.2024 88.8899 63.2439 89 62.5196L30.6503 62.5019L25.7133 78.5932C25.4995 79.3663 25.157 80.1976 25 81Z" fill="white"/>
<path fill-rule="evenodd" clip-rule="evenodd" d="M40.0112 46.3234L39.7047 45.089L35.906 45.0669L35.8998 60.3164H40.6641L40.6668 55.3932C41.0316 55.4797 40.8771 55.4809 41.221 55.7096C43.6663 57.3361 49.072 56.0903 48.5838 49.9652C48.166 44.7246 43.7436 43.7902 41.1646 45.3992C40.5393 45.7893 40.6115 46.0539 40.0112 46.3234ZM40.6928 51.9003C44.5898 54.5124 44.5832 47.1279 41.2039 48.7789C40.9729 48.8917 40.8386 48.989 40.7612 49.1164C40.6423 49.3118 40.6577 49.5778 40.6637 50.0792C40.671 50.6856 40.643 51.2983 40.6928 51.9003Z" fill="white"/>
<path fill-rule="evenodd" clip-rule="evenodd" d="M81.3915 47.4897C81.7752 43.6981 87.6645 45.7101 87.7692 43.5245C87.8191 42.4822 87.791 41.0545 87.7551 40L81.9162 41.2832C77.6084 42.738 76.3819 46.344 76.763 50.6349C76.9273 52.485 77.6446 54.3981 79.2841 55.4055C82.0821 57.125 88.076 56.6568 88.7516 52.1451C89.278 48.63 87.1491 45.8795 83.8415 46.3257C82.1779 46.5501 81.9187 47.2347 81.3915 47.4897ZM82.1318 49.5912C80.6684 50.3376 81.3164 53.3826 83.3692 52.5361C84.92 51.8965 84.1067 48.5837 82.1318 49.5912Z" fill="white"/>
<path fill-rule="evenodd" clip-rule="evenodd" d="M50.2429 55.9852L55.0158 55.9863L55.0153 52.344L57.1952 52.3486L57.2049 55.9954L61.9741 55.9833L61.9735 45.0755L57.2037 45.0591L57.2074 48.6539L55.0064 48.6755L55.015 45.0642L50.2402 45.0605L50.2429 55.9852Z" fill="white"/>
<path fill-rule="evenodd" clip-rule="evenodd" d="M63.9358 55.9976L68.6952 55.9784L68.6938 52.3385L69.8587 52.3426L71.2701 55.9867L76.0205 55.9705C75.3818 54.1752 74.7304 52.328 74.0582 50.5294C73.8024 49.845 73.8121 49.9169 74.0941 49.2161C74.2952 48.7163 74.444 48.3077 74.6141 47.8525C74.927 47.0153 75.4118 45.8927 75.6338 45.0523L70.9602 45.0621L69.5536 48.6511L68.6896 48.6763L68.6959 45.1142L63.9341 45.0571L63.9358 55.9976Z" fill="white"/>
</svg>
