<svg width="120" height="120" viewBox="0 0 120 120" fill="none" xmlns="http://www.w3.org/2000/svg">
<rect width="120" height="120" fill="#E22C28"/>
<path fill-rule="evenodd" clip-rule="evenodd" d="M60 58.5024L50.9205 82C48.1988 82 46.3249 82 46.3249 82C38.4771 78.0908 35.8031 48.9653 29.733 40.0085C29.2883 39.352 29 39 29 39C33.2348 39.003 37.4116 39.003 41.5883 39.003C48.7351 39.003 52.702 38.924 55.1888 44.2032C55.9247 46.5656 59.1277 57.7906 60 58.5024Z" fill="#FFBBBB"/>
<path fill-rule="evenodd" clip-rule="evenodd" d="M60.4378 57.7302L60.4378 57.7305C60.3515 58.0431 60.2726 58.3275 60.2016 58.5792C60.1776 58.5797 60.1508 58.5677 60.1215 58.5438L51 82C58.252 82 71.4953 82 71.4953 82C81.2237 79.9265 86.9593 40.2327 91 39.0782C86.8039 39.0782 82.6078 39.0782 78.4117 39.0782C74.8303 39.0782 69.7824 38.514 67.3136 40.4168C64.5347 42.5584 61.7 53.1568 60.4378 57.7302ZM60.4378 57.7302L60.4378 57.7305C60.4378 57.7304 60.4378 57.7303 60.4378 57.7302Z" fill="white"/>
</svg>
