<svg width="120" height="120" viewBox="0 0 120 120" fill="none" xmlns="http://www.w3.org/2000/svg">
<rect width="120" height="120" fill="#10923C"/>
<path fill-rule="evenodd" clip-rule="evenodd" d="M30 51.0882L33.9821 52.9482L34.0111 65.1486L30 66.9485V89H52.0879L53.948 85.0169L66.15 84.9879L67.9485 89H90V66.9115L86.0177 65.0512L85.9885 53.2999L90 51.0484V29H67.9111L66.15 33.011L53.8954 32.9898L52.0515 29H30V51.0882ZM38.0252 42.7131C38.0252 42.7131 39.8286 43.596 42 43.9624V74.0376L38.2747 74.9018C38.2747 74.9018 38.2747 74.9018 37.9885 81.0109C42.0055 81.0109 44.1218 81.0109 44.1218 81.0109L44.9621 77H75.0376C75.9933 81.0109 75.9933 81.0109 75.9933 81.0109C75.9933 81.0109 78.247 81.0109 82.0112 81.0109C82.0112 77.4031 82.0409 75.0655 82.0409 75.0655L78 74.0373V43.9621C82.0804 41.8653 82.0804 41.8653 82.0804 41.8653L82.0112 36.9879L76.4061 37.093L75.037 41H44.9621L44.1449 37.1652L37.9885 36.9879L38.0252 42.7131Z" fill="white"/>
</svg>
