<svg width="120" height="120" viewBox="0 0 120 120" fill="none" xmlns="http://www.w3.org/2000/svg">
<g clip-path="url(#clip0_273_657)">
<path d="M120 0H0V120H120V0Z" fill="#FE5000"/>
<path fill-rule="evenodd" clip-rule="evenodd" d="M67.7146 68.1552H60.1107C60.0052 68.1552 59.9733 68.1233 59.9733 68.0178V62.2462H68.4932C69.4677 62.2462 70.2577 62.516 70.8233 62.9393C72.2835 64.0322 72.1727 66.7947 70.5855 67.6365C69.6671 68.1236 68.7914 68.1552 67.7146 68.1552ZM54.7971 72.7816H69.4552C71.5478 72.7816 74.0281 71.7302 75.3507 70.1572C76.2041 69.1423 76.6068 68.2912 76.9402 66.9829C77.0162 66.6849 77.0317 66.4918 77.0794 66.1601C77.2095 65.2568 77.1437 64.343 76.9497 63.5007C76.0736 59.6971 72.7708 57.6198 68.9514 57.6198H59.9733V53.8178H75.181V49.1456H54.7971V72.7816Z" fill="#FEFEFE"/>
<path fill-rule="evenodd" clip-rule="evenodd" d="M34.4593 53.4513C35.4036 53.4513 35.7373 53.4509 36.6581 53.6803C37.3489 53.8525 37.4477 53.933 38.0393 54.1771C38.3594 54.3093 38.942 54.6704 39.2168 54.8778C39.9997 55.469 40.4884 55.9465 41.0554 56.7952C41.7241 57.7961 42.1582 58.9999 42.2857 60.2372C42.3562 60.9209 42.3361 61.3355 42.2549 61.9799C42.2123 62.318 42.1716 62.5166 42.1128 62.7997C42.0178 63.258 41.8261 63.8219 41.6362 64.2011C41.332 64.8087 41.0212 65.4104 40.5626 65.9219C40.3404 66.1696 40.1164 66.4298 39.8576 66.6369C39.4465 66.966 39.0992 67.3215 38.5057 67.621C38.373 67.6879 38.3185 67.7276 38.2141 67.7875C37.4308 68.2361 35.9081 68.6133 34.7341 68.6133C33.0785 68.6133 31.6859 68.112 30.4646 67.2945C30.1199 67.0638 29.477 66.5396 29.2181 66.2049C29.1317 66.0932 29.0846 66.065 28.9973 65.9676C28.6191 65.5459 28.1631 64.7598 27.924 64.2467C27.6368 63.6303 27.3915 62.776 27.3134 62.0632C27.2848 61.8022 27.2828 61.4463 27.2402 61.1722C27.1252 60.4319 27.5255 58.7726 27.8103 58.0707C28.8956 55.3957 31.5548 53.4513 34.4593 53.4513ZM22 61.0094C22 61.9229 22.1181 62.9067 22.271 63.67C22.5801 65.2139 23.0928 66.5453 23.904 67.9002C24.6393 69.1285 25.5485 70.142 26.6617 71.0515C27.7785 71.9641 29.1585 72.6839 30.566 73.0564C33.6791 73.88 36.9358 73.2419 39.23 71.3685C39.8238 70.8836 40.3535 70.3155 40.8138 69.7001C41.6252 68.6153 41.0749 68.7507 42.2005 68.7507C42.3062 68.7507 42.338 68.7826 42.338 68.8881V72.7817H47.5141V49.1456H42.338V53.1307C42.338 53.3382 42.1031 53.2682 41.6051 53.2682C41.3507 53.2682 41.3014 53.034 41.0703 52.6578L39.8081 51.1258C39.7079 51.0267 39.6841 51.02 39.5828 50.9389L38.9288 50.4019C38.3521 49.9686 38.0941 49.8437 37.4369 49.5119C35.3966 48.4818 32.6203 48.3355 30.4115 48.9913C29.6142 49.2281 29.0333 49.5166 28.3511 49.8625C28.0452 50.0176 27.7515 50.2126 27.469 50.4005C27.0182 50.7002 26.2671 51.3139 25.8592 51.7222L24.8332 52.8491L23.9259 54.1406C22.744 56.1047 22 58.4455 22 61.0094Z" fill="#FEFEFE"/>
<path fill-rule="evenodd" clip-rule="evenodd" d="M82.5103 49.1914C82.5103 52.4973 84.5586 55.5063 87.3326 56.6909C90.6209 58.0954 94.0844 57.4746 96.4697 55.089C97.2558 54.3029 97.6558 53.7751 98.1767 52.7192C99.2152 50.6141 99.2072 47.8547 98.1919 45.7401C98.015 45.3716 97.6848 44.784 97.4503 44.4662C97.0826 43.9681 96.4846 43.2744 95.9973 42.8959C95.7952 42.739 95.6255 42.5983 95.4275 42.458C93.5202 41.1059 91.1981 40.7061 88.8653 41.2091C87.7858 41.4419 86.9273 41.8832 86.0464 42.467C83.9052 43.8859 82.5103 46.5502 82.5103 49.1914Z" fill="#00F500"/>
</g>
<defs>
<clipPath id="clip0_273_657">
<rect width="120" height="120" fill="white"/>
</clipPath>
</defs>
</svg>
