<svg width="120" height="120" viewBox="0 0 120 120" fill="none" xmlns="http://www.w3.org/2000/svg">
<g clip-path="url(#clip0_273_1133)">
<path fill-rule="evenodd" clip-rule="evenodd" d="M0 120H120V0H0V120Z" fill="#DD0426"/>
<path fill-rule="evenodd" clip-rule="evenodd" d="M88.0191 85.6532L97.0293 85.6391C97.3142 85.6384 97.5 85.319 97.5 84.9987V61.0969C97.5 60.9396 97.3889 60.7715 97.1785 60.7715H87.8814C87.6799 60.7715 87.3423 60.8716 87.3423 61.1432V85.0085C87.3423 85.3448 87.6364 85.6532 88.0191 85.6532Z" fill="#DD0426"/>
<path d="M32.6888 31.0247C32.9751 30.9873 33.2647 31.0092 33.5518 31.0044C50.9599 31.0044 68.3672 31.0044 85.7744 31.0044C86.0217 30.9694 86.2055 31.1524 86.3812 31.2972C86.2137 31.4102 86.051 31.5713 85.8362 31.5737C85.6012 31.5884 85.3571 31.5786 85.1408 31.6844C84.1996 32.1285 83.4261 32.9305 83.0519 33.905C82.9063 34.293 82.6769 34.6509 82.6045 35.0633C82.5419 35.3301 82.5915 35.61 82.5215 35.8751C82.4199 36.2721 82.2596 36.6593 82.2385 37.0733C82.2271 37.3979 82.14 37.7151 82.1579 38.0413C82.1555 51.3285 82.1563 64.6158 82.1571 77.9031C82.1734 78.5026 82.1164 79.1086 82.2238 79.7032C82.2482 80.2937 82.5215 80.8322 82.6069 81.4122C82.6435 81.6025 82.6313 81.8002 82.6801 81.9889C83.0706 83.0886 83.6042 84.2559 84.6576 84.866C85.0253 85.0392 85.3563 85.3557 85.785 85.3475C86.1356 85.3532 86.4845 85.4272 86.8066 85.5688C86.801 85.6558 86.7961 85.7437 86.7928 85.8323C86.3218 86.0674 85.7915 85.9828 85.2855 85.9942C77.9631 85.9934 70.6407 85.995 63.3182 85.9934C63.0523 86.0015 62.8286 85.8356 62.6065 85.7152C62.7179 85.6249 62.8286 85.5322 62.9498 85.4549C63.2133 85.3988 63.4891 85.4337 63.7518 85.3646C64.1967 85.3012 64.5555 85.0099 64.9288 84.7854C65.643 84.2665 66.1913 83.5255 66.4808 82.6917C66.7216 82.2411 66.8225 81.7416 66.8802 81.2389C67.0543 80.4898 67.278 79.7398 67.2666 78.9638C67.2707 64.0537 67.2674 49.1429 67.2682 34.232C67.2886 34.0108 67.1657 33.8229 67.0795 33.6301C62.1111 33.6024 57.1427 33.6301 52.1744 33.6163C51.9417 33.6073 51.6904 33.6358 51.5041 33.7871C51.3805 33.9579 51.3284 34.1743 51.3316 34.3825C51.3341 48.9176 51.3316 63.4518 51.3325 77.986C51.3316 78.313 51.4317 78.6319 51.4114 78.9613C51.3739 79.5169 51.5765 80.0448 51.6912 80.58C51.7676 80.9005 51.7156 81.2324 51.7506 81.5578C51.8181 82.0011 52.0751 82.3793 52.2142 82.7991C52.3631 83.2896 52.7023 83.6849 52.9894 84.0989C53.3123 84.5674 53.8223 84.8456 54.3047 85.1222C54.6919 85.3532 55.1531 85.4313 55.5997 85.4215C55.7485 85.4313 55.9234 85.389 56.0381 85.5135C56.0666 85.646 56.0454 85.7827 56.0397 85.9177C48.1617 85.9373 40.2837 85.921 32.4049 85.9259C32.1877 85.9714 32.0072 85.8356 31.9966 85.6135C32.1178 85.5183 32.2439 85.402 32.4114 85.4256C32.8588 85.4264 33.3046 85.3158 33.6958 85.0994C34.5483 84.7277 35.2218 83.9915 35.5732 83.1358C35.709 82.8503 35.9148 82.5916 35.9669 82.2728C36.045 81.9905 35.9946 81.6847 36.1117 81.4122C36.2727 80.9933 36.4672 80.5662 36.4346 80.1058C36.4143 79.7471 36.5176 79.3981 36.5111 79.0419C36.5103 65.2674 36.5119 51.4937 36.5103 37.7192C36.4916 37.3653 36.4151 37.0155 36.4314 36.6585C36.4403 36.0224 35.988 35.4985 35.9555 34.8697C35.9474 34.3923 35.6277 34.0083 35.4577 33.5813C35.0624 32.8191 34.4425 32.1627 33.6779 31.7649C33.2061 31.4981 32.6066 31.6681 32.1755 31.2956C32.3415 31.1971 32.5017 31.08 32.6888 31.0247Z" fill="white"/>
</g>
<defs>
<clipPath id="clip0_273_1133">
<rect width="120" height="120" fill="white"/>
</clipPath>
</defs>
</svg>
