<svg width="120" height="120" viewBox="0 0 120 120" fill="none" xmlns="http://www.w3.org/2000/svg">
<rect width="120" height="120" fill="#7C66A6"/>
<path fill-rule="evenodd" clip-rule="evenodd" d="M33.7669 45.4854C33.7914 46.0825 34.6192 48.328 34.818 48.9143C35.2056 50.0576 35.5959 51.1822 35.9229 52.2423C36.4923 52.1498 37.4762 51.7555 38.0975 51.5639C40.5656 50.8024 43.1723 50.4934 45.8522 50.6517C49.2463 50.8522 51.5592 53.0089 51.3468 56.6176C50.3541 56.5851 48.2018 55.5003 44.4338 55.4707C41.5592 55.4481 39.6742 55.6059 37.2813 56.4449C33.287 57.8454 30.5091 61.182 31.0726 66.5925C31.9915 75.415 43.9453 77.3869 50.2726 72.0682C50.4381 71.929 51.1181 71.2213 51.3311 71.1815L51.3395 74.3672L57.8079 74.3762C58.1366 74.3762 59.6748 74.5106 59.8896 74.284C60.0774 74.0861 59.9687 58.8422 59.9687 57.2973C59.9692 49.4002 57.5144 44.2436 48.4347 43.1706C43.1667 42.548 37.8871 43.6999 33.7669 45.4855V45.4854ZM51.4667 61.9434C49.5842 60.6902 41.992 59.6345 40.1407 63.1753C38.202 66.8833 42.1993 70.3417 47.8644 68.2614C50.8131 67.1787 51.6722 64.9267 51.4667 61.9434Z" fill="white"/>
<path fill-rule="evenodd" clip-rule="evenodd" d="M70.0001 38.8974C70.2731 39.1694 72.9062 41.0767 74.1374 42.2217C78.8677 46.6214 81.071 50.919 81.1734 57.9659C81.2877 65.8305 77.6827 71.2243 72.154 75.5319C71.5133 76.031 70.6332 76.6106 70.003 77.144C70.0847 77.4962 73.5011 82.6548 73.8475 83C74.8834 82.9022 79.2438 79.6943 80.0906 79.0002C86.3402 73.8781 90.1067 67.1044 89.9977 57.9659C89.8868 48.6769 86.4818 42.2656 80.0878 37.0446C79.1412 36.2717 74.8241 33.1439 73.8475 33C73.4436 33.507 70.1042 38.5305 70 38.8975L70.0001 38.8974Z" fill="white"/>
</svg>
