<svg width="41" height="40" viewBox="0 0 41 40" fill="none" xmlns="http://www.w3.org/2000/svg">
<path d="M41 0H1V40H41V0Z" fill="#0231AC"/>
<path d="M9.9648 9.50747C1.65255 18.4173 0.525239 33.5478 1.00061 39.9993C11.7984 39.9993 24.5927 40.271 32.8506 30.2202C41.1086 20.1694 40.9999 11.5448 40.9999 0C27.4857 -1.34222e-05 18.277 0.597612 9.9648 9.50747Z" fill="#E7EEFF"/>
<path d="M31.3125 19.8438C31.3125 25.6255 26.6255 30.3125 20.8438 30.3125C15.062 30.3125 10.375 25.6255 10.375 19.8438C10.375 14.062 15.062 9.375 20.8438 9.375C26.6255 9.375 31.3125 14.062 31.3125 19.8438Z" fill="#0231AC"/>
<path fill-rule="evenodd" clip-rule="evenodd" d="M30.8008 19.4523C30.649 18.4644 29.7299 17.5051 28.046 16.7496C27.6398 16.5674 27.197 16.4012 26.7226 16.2529C26.9947 17.2565 27.1651 18.332 27.1976 19.4523H30.8008ZM26.5579 15.6927C29.4205 16.5188 31.3125 17.9744 31.3125 19.746C31.3125 21.5306 29.3926 22.9946 26.4945 23.8174C25.1645 27.5504 22.3086 30.2019 20.9744 30.3091C20.9631 30.3114 20.9521 30.3125 20.9415 30.3125C20.9369 30.3125 20.9322 30.3123 20.9275 30.3119C20.9158 30.3123 20.9041 30.3125 20.8926 30.3125C19.6318 30.3125 16.6563 27.6192 15.2901 23.7974C12.3407 22.9387 10.3786 21.4267 10.375 19.7507C10.375 19.7491 10.3749 19.7475 10.3749 19.7458C10.3749 19.7442 10.375 19.7425 10.375 19.7408C10.3793 18.1745 12.3047 16.649 15.2077 15.7552C16.3769 12.0051 18.9504 9.375 20.8926 9.375C20.9049 9.375 20.9172 9.37511 20.9296 9.37532C20.9336 9.37511 20.9375 9.375 20.9415 9.375C20.9492 9.375 20.957 9.3754 20.9649 9.3762C22.8873 9.43975 25.3944 12.022 26.5579 15.6927ZM15.0444 16.321C14.5434 16.4874 14.0766 16.6731 13.6497 16.8742C12.7392 17.3033 12.0296 17.7938 11.5543 18.2999C11.1805 18.698 10.968 19.0867 10.8942 19.4523H14.5877C14.6194 18.3573 14.783 17.3051 15.0444 16.321ZM10.8902 20.0394C10.9611 20.4391 11.1779 20.8483 11.5563 21.2562C12.0297 21.7664 12.7368 22.2514 13.6462 22.6712C14.0902 22.8761 14.5774 23.0632 15.1017 23.229C14.7951 22.2257 14.604 21.1538 14.5838 20.0394H10.8902ZM15.8709 23.9547C16.3069 25.0776 16.8847 26.0947 17.51 26.9596C18.1723 27.8757 18.8789 28.6081 19.5084 29.1062C19.7936 29.3318 20.0568 29.5044 20.2871 29.6242C19.718 28.6722 18.9959 26.7986 18.5418 24.4212C17.5968 24.322 16.7001 24.1633 15.8709 23.9547ZM18.4513 23.9193C17.4561 23.8079 16.5207 23.629 15.6689 23.396C15.3174 22.3466 15.0954 21.2162 15.0731 20.0394H18.105C18.1165 21.4137 18.2483 22.7233 18.4513 23.9193ZM19.0493 24.4683C19.2416 25.444 19.4792 26.3295 19.7307 27.0933C20.0357 28.0199 20.3573 28.7554 20.6356 29.2499L20.648 29.272V24.5393C20.1039 24.5346 19.57 24.5104 19.0493 24.4683ZM20.648 24.0501C20.0703 24.045 19.5052 24.0175 18.9564 23.9696C18.7449 22.7638 18.6061 21.4356 18.5942 20.0394H20.648V24.0501ZM21.2351 24.537V29.2718L21.2474 29.2499C21.5257 28.7554 21.8473 28.0199 22.1523 27.0933C22.4046 26.327 22.6429 25.4382 22.8356 24.4586C22.3148 24.5019 21.7803 24.5284 21.2351 24.537ZM22.9283 23.9596C22.3798 24.0086 21.8142 24.0385 21.2351 24.0478V20.0394H23.2888C23.2769 21.4318 23.1388 22.7564 22.9283 23.9596ZM23.3432 24.4106C22.8994 26.7396 22.1981 28.5863 21.6344 29.5587C21.8368 29.4443 22.0601 29.2933 22.2981 29.1057C22.9292 28.6081 23.6338 27.8762 24.293 26.9605C24.9127 26.0995 25.4842 25.0874 25.9161 23.9699C25.1168 24.1651 24.2534 24.314 23.3432 24.4106ZM26.1162 23.4141C25.2949 23.6325 24.3935 23.8003 23.4335 23.9086C23.6354 22.7155 23.7665 21.4096 23.778 20.0394H26.7122C26.69 21.2231 26.4679 22.3597 26.1162 23.4141ZM26.6815 23.2518C27.1715 23.1004 27.6281 22.9299 28.046 22.7424C29.7301 21.9868 30.6492 21.0274 30.8008 20.0394H27.2015C27.1814 21.1623 26.9896 22.242 26.6815 23.2518ZM15.6001 16.1486C16.4736 15.8958 17.4361 15.7003 18.4617 15.5795C18.2615 16.7696 18.1286 18.0771 18.1072 19.4523H15.0771C15.1121 18.2896 15.3011 17.1775 15.6001 16.1486ZM18.5515 15.0769C17.5665 15.1856 16.6338 15.3618 15.7751 15.592C16.1405 14.5134 16.6251 13.5393 17.173 12.7112C17.775 11.8015 18.4455 11.0799 19.1045 10.5904C19.525 10.278 19.9267 10.0703 20.293 9.95977C19.7087 10.8515 19.0009 12.701 18.5515 15.0769ZM18.967 15.5265C18.7584 16.7263 18.6187 18.0533 18.5965 19.4523H20.648V15.442C20.0742 15.4474 19.5126 15.4764 18.967 15.5265ZM20.648 14.9528C20.1074 14.9578 19.5768 14.9832 19.0591 15.0273C19.2353 14.1251 19.4488 13.3041 19.6769 12.5901C19.9729 11.6638 20.289 10.932 20.5713 10.4418C20.5975 10.3962 20.6231 10.3533 20.648 10.313V14.9528ZM21.2351 15.4442V19.4523H23.2865C23.2643 18.0552 23.1249 16.7299 22.9168 15.5314C22.3719 15.483 21.8101 15.4535 21.2351 15.4442ZM22.8249 15.0325C22.3074 14.9897 21.7765 14.9635 21.2351 14.955V10.3132C21.2599 10.3534 21.2855 10.3963 21.3117 10.4418C21.5939 10.932 21.91 11.6638 22.206 12.5901C22.4346 13.3055 22.6485 14.1282 22.8249 15.0325ZM23.3322 15.0803C22.8895 12.7383 22.1956 10.9074 21.6162 10.0004C21.9485 10.118 22.3072 10.3129 22.6808 10.5904C23.3398 11.0799 24.0103 11.8015 24.6122 12.7112C25.1516 13.5262 25.6295 14.4827 25.9927 15.541C25.1689 15.3357 24.2756 15.1799 23.3322 15.0803ZM23.4217 15.5821C24.4066 15.6927 25.3299 15.8657 26.1686 16.092C26.4772 17.1366 26.6726 18.2683 26.7082 19.4523H23.7758C23.7543 18.0781 23.6217 16.7715 23.4217 15.5821Z" fill="#FEFEFE"/>
</svg>
