<svg width="120" height="120" viewBox="0 0 120 120" fill="none" xmlns="http://www.w3.org/2000/svg">
<rect width="120" height="120" fill="#CBCFD7"/>
<path fill-rule="evenodd" clip-rule="evenodd" d="M52.1526 56.7025C48.7274 57.8134 46.3713 57.5484 46.0518 63.4667C45.422 75.1369 50.5531 75.2449 60.4416 74.9192C63.0866 74.8321 66.1704 74.6206 68.1032 72.8715C68.7838 72.2556 69.0469 71.521 69.6022 71.007C70.7288 71.6244 73.2875 74.2533 74.1825 74.5861C74.6302 74.1953 75.8043 72.7251 76 72.161C75.383 71.46 74.1375 70.6343 73.32 69.9618C69.3701 66.7124 70.733 68.87 70.7892 64.3233C70.8033 63.1769 70.8472 61.9688 70.7043 60.8357L67.4764 60.8058L67.4495 64.8755C66.6545 64.6281 64.6015 62.6951 63.8645 62.0754C62.2514 60.7192 54.5098 54.4289 53.7812 53.2814C52.9075 51.9053 52.958 49.3496 53.6247 48.0867C54.3966 46.6246 56.1568 46.3009 58.063 46.2815C64.6278 46.215 64.1136 46.7431 64.3936 52.7084L67.925 52.7457C68.9759 43.5981 63.3225 42.2703 55.6534 43.291C52.2944 43.7382 50.3293 45.015 49.7244 48.256C48.558 54.5067 51.609 55.6501 52.1524 56.7024L52.1526 56.7025ZM66.6941 68.7524C66.2293 68.0719 59.7319 62.9306 58.4881 61.8549C54.9992 58.8375 54.6903 57.902 51.3827 59.6543C50.4828 60.131 50.0516 60.7452 49.7863 61.9542C49.4738 63.3781 49.5091 67.5119 49.9055 68.9687C50.5009 71.1561 52.1186 71.5538 54.6958 71.7154C58.7573 71.9702 65.9065 72.4402 66.6941 68.7524Z" fill="#282E3C"/>
<path fill-rule="evenodd" clip-rule="evenodd" d="M72 52.542L78.0813 52.6199L78.1105 75L88.864 74.999L88.9243 52.6672L94.9473 52.6051L95 43L72.0088 43.0089L72 52.542Z" fill="#282E3C"/>
<path fill-rule="evenodd" clip-rule="evenodd" d="M32.3576 65.2739L25.018 65.316L25 74.821C25.815 75.1004 35.6172 75.009 36.9221 74.8428C40.1608 74.4301 42.6625 71.748 42.8838 68.3581C43.1361 64.4931 42.8989 59.7024 42.8989 55.7357C42.8989 51.527 42.9034 47.318 42.8989 43.1094C41.4976 42.9912 33.3728 42.9163 32.3624 43.1687L32.3577 65.274L32.3576 65.2739Z" fill="#282E3C"/>
</svg>
