<svg width="120" height="120" viewBox="0 0 120 120" fill="none" xmlns="http://www.w3.org/2000/svg">
<g clip-path="url(#clip0_273_220)">
<rect width="120" height="120" fill="#F8D74A"/>
<path fill-rule="evenodd" clip-rule="evenodd" d="M19.3243 67.7707C20.4649 69.4036 22.378 70.8222 23.8365 71.9848C42.0158 86.475 80.6386 86.3904 100.321 73.3726C101.175 72.8072 101.441 72.5967 102 71.8369V71.2255C101.4 70.3461 101.138 70.0988 99.7133 70.1002C97.0831 70.1026 95.2417 69.7264 93.8462 70.8902C93.2781 71.364 92.6133 71.8546 91.9498 72.2906C75.2292 83.2729 45.5298 83.1328 28.0801 73.8948C25.8152 72.6958 24.0853 71.4124 22.332 69.7606C21.7749 69.2357 21.0063 68.6641 20.8456 67.9507C21.6101 68.1164 21.7608 68.4873 22.1937 68.8964C23.296 69.9381 24.2788 70.6506 25.5945 71.5104C27.2256 72.5763 29.0729 73.4736 30.9986 74.2705C45.5009 80.2717 67.6559 80.0184 81.5716 72.4986C82.0516 72.2391 82.3413 72.0647 82.8452 71.7672C85.2924 70.3226 81.9309 69.5804 80.1683 70.3683C79.3812 70.7203 78.4504 71.3945 77.6259 71.8396C65.0024 78.6534 43.6031 79.0396 30.2797 73.2656C14.7895 66.5528 14.4177 54.9296 30.0384 48.0303C42.9346 42.3342 64.0881 42.2993 77.3794 49.2275C79.3241 50.2413 80.5939 51.6225 83.4629 50.9501C83.9506 49.8101 83.4783 49.6858 81.237 48.513C66.1881 40.6388 41.468 40.755 26.7144 48.9997C25.5475 49.6519 24.6287 50.3085 23.6252 51.0646C22.6072 51.8316 21.3507 53.2263 20.8271 53.1938C21.173 51.7716 26.0947 48.3308 28.1311 47.2654C31.0087 45.7599 34.0597 44.4499 37.4909 43.4458C53.9644 38.6253 77.5266 39.339 92.1572 49.0412C94.6097 50.6674 93.8854 51.0864 96.7086 51.0768C100.894 51.0627 101.048 51.5392 102 49.8289V49.4599C100.901 47.5893 96.8714 45.696 94.9993 44.7448C92.3914 43.4197 89.5795 42.401 86.6379 41.5118C70.5366 36.6439 48.2851 36.5617 33.1058 43.0039C23.8869 46.9164 11.8837 57.1189 19.3243 67.7707Z" fill="#00457C"/>
<path fill-rule="evenodd" clip-rule="evenodd" d="M25.6181 56.9774L24.7778 56.8917V65.2933H26.4939L26.484 62.699C26.4922 62.5182 26.4991 62.4708 26.5314 62.2982L26.6238 62.0812C26.797 61.8284 28.2412 61.5016 28.4503 62.3182C28.6977 63.2845 28.3781 65.5618 32.2196 65.4782C33.4434 65.4516 34.1885 64.977 34.661 64.2998C35.3656 63.2896 35.1821 62.4363 35.182 61.1287C35.1819 58.4948 34.9805 56.8356 32.2187 56.7451C27.3319 56.5847 29.3058 60.1302 28.042 60.4095C27.8897 60.4432 27.803 60.4545 27.6435 60.4614C27.2839 60.4769 27.029 60.4423 26.6903 60.3569C26.2302 59.1919 27.104 57.424 25.6181 56.9774Z" fill="#00457C"/>
<path fill-rule="evenodd" clip-rule="evenodd" d="M89.3798 65.4368C91.5622 65.4256 91.252 64.2262 91.2389 61.8463C91.2374 61.571 91.2211 61.2378 91.2302 60.971C91.2499 60.3886 91.1466 60.5103 91.4179 60.1681C91.8912 60.3259 91.7892 60.3705 92.0092 60.9644L93.3027 64.2527L94.9484 64.2492C95.2345 63.4964 96.2333 60.1441 96.8423 60.2407C97.6502 61.5832 95.6302 65.4283 98.8539 65.4369V56.928L96.2956 56.977C95.5387 58.8056 94.9639 60.3862 94.1347 62.1782C93.6865 61.2931 92.4571 58.0957 91.9368 57.0172C90.8803 56.8445 90.5092 56.917 89.3844 56.9281L89.3798 65.4368Z" fill="#00457C"/>
<path fill-rule="evenodd" clip-rule="evenodd" d="M71.5401 64.8624L71.5669 65.4021L73.3634 65.4016C73.6047 62.9142 72.6611 62.6034 74.9728 62.6348C76.2427 62.6523 77.7592 62.7287 78.3904 60.9723C78.8969 59.5627 78.6544 56.9279 75.8302 56.9279H71.5401V64.8624Z" fill="#00457C"/>
<path fill-rule="evenodd" clip-rule="evenodd" d="M79.984 65.3657C82.47 65.3657 81.4951 65.8445 83.6933 62.7062C84.032 62.2225 85.1971 60.1431 85.7236 60.2228C86.4862 61.9866 84.6491 65.6877 87.6643 65.4016V56.9723L85.688 56.9421L82.5578 61.71C82.2631 62.1178 82.315 62.1083 81.8189 62.1782C81.7714 60.9696 81.8491 59.738 81.8008 58.5411C81.7478 57.2278 81.305 56.8527 79.9771 56.8202L79.984 65.3657Z" fill="#00457C"/>
<path fill-rule="evenodd" clip-rule="evenodd" d="M46.235 65.3657C48.7065 65.3657 47.7442 65.8405 49.9495 62.7115C50.4584 61.9894 51.4583 60.1491 51.9747 60.2228C52.7321 61.9744 50.9163 65.6839 53.9155 65.4016V56.9723L51.939 56.9495C51.6765 57.495 48.7316 62.0469 48.0684 62.3173C48.0284 62.2543 48.0554 58.9643 48.0571 58.6815C48.0384 57.2763 47.6445 56.8548 46.2284 56.8202L46.235 65.3657Z" fill="#00457C"/>
<path fill-rule="evenodd" clip-rule="evenodd" d="M36.7967 65.3657H38.5777C38.7125 64.7492 38.6554 64.0624 38.6464 63.4239C38.6225 61.7144 38.1553 61.955 41.7952 61.955C43.1827 61.955 42.5027 62.8776 42.6819 64.125C42.8253 65.1237 43.4583 65.434 44.5123 65.4368V56.9279H42.6532C42.6532 61.1078 43.4103 60.3381 39.3641 60.3381C37.415 60.3381 40.112 56.9036 36.7901 56.8203L36.7967 65.3657Z" fill="#00457C"/>
<path fill-rule="evenodd" clip-rule="evenodd" d="M61.8252 65.4016C61.712 62.9956 58.9494 64.4829 57.8802 63.7898C57.1261 63.3011 57.4114 59.4173 57.6426 58.634C59.5259 57.8449 61.1926 59.1943 61.6643 56.9364C60.2122 56.9051 58.0523 56.6622 56.8836 57.3196C55.5781 58.0539 55.5966 59.326 55.595 61.2722C55.5912 66.0404 57.4842 65.4016 61.8252 65.4016Z" fill="#00457C"/>
<path fill-rule="evenodd" clip-rule="evenodd" d="M62.4773 58.3281L65.3735 58.3582C65.7109 59.9278 65.3741 63.5399 65.4796 65.3477L67.3035 65.3909C67.4096 63.5399 67.0728 59.9278 67.4113 58.4269C68.9705 58.0563 70.0679 58.756 70.3609 56.9722L64.1038 56.9279C63.0112 56.9279 62.6559 57.3378 62.4773 58.3281Z" fill="#00457C"/>
<path fill-rule="evenodd" clip-rule="evenodd" d="M30.2477 59.8361V62.5647C30.2477 64.5325 33.4289 64.7789 33.4289 62.4211C33.4289 59.9107 33.8499 58.1852 31.785 58.1852C30.7365 58.1852 30.2477 58.8025 30.2477 59.8361Z" fill="#F8D74A"/>
<path fill-rule="evenodd" clip-rule="evenodd" d="M73.3991 59.118C73.3991 61.5252 73.12 61.2363 75.4013 61.2363C76.7976 61.2363 76.7955 60.6232 76.7955 59.549C76.7955 58.1005 75.9857 58.3289 74.2572 58.3289C73.4456 58.3289 73.3991 58.3071 73.3991 59.118Z" fill="#F8D74A"/>
</g>
<defs>
<clipPath id="clip0_273_220">
<rect width="120" height="120" fill="white"/>
</clipPath>
</defs>
</svg>
