<svg width="40" height="40" viewBox="0 0 40 40" fill="none" xmlns="http://www.w3.org/2000/svg">
<rect width="40" height="40" fill="#F77736"/>
<path d="M22.0844 11C24.5486 11.2564 27.0696 11.6215 29.2677 12.7558C30.7808 13.6475 32.0918 14.9875 32.5304 16.6462C32.8902 18.0278 32.8089 19.511 32.2174 20.8255C31.2909 22.9394 28.9868 24.1153 26.7295 24.6466C22.9444 25.5061 19.0139 25.3559 15.1499 25.4021C15.5861 24.6744 15.9262 23.9051 16.2539 23.1334C16.5817 22.3641 17.183 21.6757 17.2396 20.8255L17.3776 20.8278C20.2904 20.8186 23.2056 20.6984 26.1085 20.4512C27.6019 20.278 29.2036 20.2087 30.4925 19.3885C31.2933 18.9265 31.2662 17.6581 30.4555 17.2192C29.8099 16.8842 29.1322 16.5677 28.3954 16.4568C25.5417 16.0109 22.6462 15.8908 19.7606 15.8654C20.5442 14.2459 21.2983 12.6172 22.0844 11Z" fill="white"/>
<path d="M12.8187 16.9535C15.0169 16.1611 17.385 15.9116 19.7261 15.8585C19.6103 16.1264 19.4994 16.3944 19.386 16.6624C18.6935 18.044 18.075 19.4509 17.3776 20.8278L17.2396 20.8255C14.7483 20.9988 12.0006 20.9618 9.85916 22.3456C9.59055 23.0272 9.56591 23.8866 10.3027 24.3232C11.6926 25.1965 13.4718 25.3028 15.1006 25.349C14.7409 26.7859 13.7897 28.0265 13.3116 29.4358C10.9853 28.9437 8.99174 27.1948 8.27217 25.0579C7.8705 23.6948 7.8976 22.207 8.45946 20.8856C9.20366 19.0535 10.9459 17.7205 12.8187 16.9535Z" fill="white"/>
</svg>
