<svg width="120" height="120" viewBox="0 0 120 120" fill="none" xmlns="http://www.w3.org/2000/svg">
<rect width="120" height="120" fill="#F7D4DA"/>
<path fill-rule="evenodd" clip-rule="evenodd" d="M72.1284 83.8654C72.1127 83.8561 68.0896 82.9787 67.5475 82.8158C54.2091 78.8303 46.6171 63.4207 52.373 49.9727C54.0838 45.9777 56.4933 42.9102 59.8679 40.2313C65.7334 35.5972 71.1133 35.6097 72.1441 35.1553C71.6333 34.8765 56.6563 35.0582 54.6947 35.0582C48.4157 35.0613 44.8186 34.9924 39.5798 37.5805C21.3628 46.5793 21.6072 72.5104 39.5108 81.412C44.6933 83.9876 48.3624 83.9532 54.5631 83.9532C56.4618 83.9532 71.7211 84.1035 72.1284 83.8654Z" fill="#CD1F3B"/>
<path fill-rule="evenodd" clip-rule="evenodd" d="M64.0664 41.0775C65.7614 41.7324 68.4686 44.0166 69.3835 45.038C72.5732 48.6037 71.2228 48.5191 75.3869 48.5191H89.446C90.176 48.5222 91.069 48.6319 91.5453 48.162C92.9208 46.802 89.1264 43.8317 88.0391 42.9607C87.6506 42.6473 87.1806 42.2808 86.6636 41.9486C80.6007 38.0884 72.4071 37.4178 65.6643 40.1845C65.3509 40.313 65.1598 40.3976 64.8433 40.5543L64.3169 40.8456C64.0224 41.0713 64.2824 40.8269 64.0663 41.0775H64.0664Z" fill="#CD1F3B"/>
<path fill-rule="evenodd" clip-rule="evenodd" d="M64.1134 78.0281C65.1756 79.0151 69.4275 80.0678 71.2698 80.2998C74.0804 80.6506 77.3296 80.4752 80.0305 79.8892C82.6029 79.3315 87.3968 77.0787 89.258 75.0546C90.5145 73.6916 92.5919 72.288 91.4702 70.9688C91.0127 70.4299 90.4142 70.5051 89.5808 70.5114H75.3871C71.0506 70.5145 72.6046 70.5082 69.3993 73.8985C66.4885 76.9753 64.9344 77.2887 64.1135 78.0281H64.1134Z" fill="#CD1F3B"/>
<path fill-rule="evenodd" clip-rule="evenodd" d="M80.9612 53.034C77.7809 53.6544 74.9233 56.935 75.8602 60.9707C76.584 64.082 79.7173 66.9051 83.7468 65.9745C86.877 65.2538 89.6969 62.1707 88.8007 58.1256C88.0926 54.9233 84.9938 52.2444 80.9613 53.034H80.9612Z" fill="#CD1F3B"/>
</svg>
