<svg width="120" height="120" viewBox="0 0 120 120" fill="none" xmlns="http://www.w3.org/2000/svg">
<rect width="120" height="120" fill="#008943"/>
<path fill-rule="evenodd" clip-rule="evenodd" d="M60.0259 94L65.8696 88.5838C68.784 85.6812 70.2227 79.5618 67.6988 75.8169C67.1086 74.9416 64.5116 72.3316 63.5912 71.4922L56.4749 64.4887C56.2092 64.2512 56.0618 64.0397 55.8046 63.8032L50.1448 58.19C48.9145 56.8985 42.7405 51.0594 42.3025 50.4156C39.8174 46.7624 41.412 44.3316 41.8561 41C41.2325 41.3092 39.1731 43.1887 38.5082 43.7921L32.0615 49.5341C31.5065 50.0377 30.9927 50.4947 30.4069 50.993C29.7113 51.5847 29.5586 51.7845 29.0964 52.8415C27.6247 56.2072 27.5605 59.9134 29.3568 62.9796C31.7586 67.0792 59.7473 93.8798 60.0258 94H60.0259Z" fill="white"/>
<path fill-rule="evenodd" clip-rule="evenodd" d="M72.6966 81.9997C73.5003 81.5808 76.338 78.7772 77.3806 77.8665L89.6554 66.902C89.9096 66.6745 89.9838 66.5369 90.2642 66.3054C90.7154 65.9331 91.2229 65.6269 91.4359 65.0615C90.632 65.4061 84.6464 70.1165 83.8628 70.7357L78.3292 74.9817C77.7595 75.3875 77.0161 76.1188 76.4294 76.3722C76.9644 75.6247 80.3402 72.7332 81.2683 71.8574L85.1424 68.2036C86.493 66.961 91.4432 62.6877 91.8991 61.7205C91.3841 61.8046 88.6505 64.1325 87.9447 64.6554C86.6233 65.6344 85.2681 66.6758 83.9664 67.7809C82.6506 68.8981 81.4172 69.8035 80.0682 70.8563C78.797 71.8483 77.408 73.026 76.0981 73.893C78.0373 72.302 85.2428 65.1435 88.0938 62.5844C88.85 61.9058 91.7919 59.2529 92 58.675C91.4205 58.9897 88.6253 61.3937 88.0671 61.861C86.7025 63.0035 85.3825 63.96 83.9652 65.1343C82.6452 66.2282 81.3676 67.3087 79.9888 68.4027C78.866 69.2935 77.0482 71.0008 75.9493 71.6724C77.1168 70.3449 78.5958 69.0788 79.6959 67.8184L89.4436 58.1802C90.1788 57.5086 90.6223 56.8583 91.4645 56.319C91.1893 56.0902 91.164 56.1316 90.8819 56.3525L77.0287 67.885C76.3967 68.4061 75.602 69.1672 74.9036 69.5833L81.5273 62.9495C83.1001 61.5283 89.8901 55.0701 90.2309 54.2931C89.5196 54.6152 75.1266 66.6062 73.3883 67.9984C74.0429 67.5682 79.5479 61.6231 80.875 60.4405C81.3888 59.9827 88.3062 53.3165 88.5202 52.8256C87.6117 53.1871 86.2843 54.5098 85.4203 55.2728C83.6983 56.7938 81.7992 58.1172 80.0888 59.5972C78.5572 60.9226 73.1199 65.5715 71.6735 66.341C72.5788 65.7814 74.4507 63.655 75.3859 62.6441L86.9263 51.2573C85.2333 52.3594 75.3559 60.7408 72.9146 62.789C72.2144 63.3767 71.5874 64.0087 70.832 64.4619C71.1813 63.8854 73.7763 61.4543 74.4775 60.6985C74.7808 60.3718 75.0358 60.1152 75.3623 59.8353C76.3676 58.9726 77.2154 57.9101 78.2142 57.04C78.8162 56.5157 79.483 55.7756 80.0666 55.2585L81.9676 53.3887C82.6763 52.6411 83.1237 52.2568 83.7998 51.59L85.6198 49.7478C84.8175 49.9791 74.6713 58.7317 73.058 60.0187C71.7822 61.0361 70.1299 62.7458 68.7846 63.4764L76.3967 55.7922C77.1044 55.1502 83.9659 48.3165 84.0575 48.0968C83.4311 48.323 72.3889 57.6044 71.3527 58.4759C70.644 59.0719 69.9657 59.6519 69.2163 60.2283C68.6477 60.6658 67.5855 61.6935 67.0582 61.9166C67.4152 61.4132 68.4382 60.491 68.914 60.0443L72.7508 56.2082C73.1064 55.8177 73.2636 55.5747 73.6431 55.2162C75.3828 53.5743 76.8616 52.1982 78.5196 50.4047C79.1574 49.7146 79.8275 49.2487 80.4199 48.5381C80.9126 47.9468 81.96 47.124 82.256 46.5561C81.1631 47.2578 70.7067 56.0296 69.4995 57.0498C68.4841 57.9079 66.1684 59.9792 65.1652 60.5216C65.6573 60.1114 66.6131 59.146 67.0818 58.6463C68.3144 57.3319 69.816 56.0566 70.967 54.7197C71.9533 53.5745 76.3378 49.4614 77.809 47.9728L80.8161 45.0229C80.2586 45.11 73.4184 51.1281 72.4271 51.9624C71.0004 53.163 69.6762 54.2988 68.3093 55.4981C66.8049 56.8182 65.3934 57.8097 64.0841 58.983L77.105 45.6887C77.6614 45.1357 78.4126 44.3217 78.9951 43.7407C78.0062 44.2357 75.8822 46.3135 74.8487 47.1713L65.3868 55.1566C64.9507 55.5329 64.713 55.6869 64.2771 56.0603C63.6432 56.6032 62.7681 57.389 62.0985 57.7582L66.7297 52.5534C67.7749 51.5385 71.1351 47.9975 71.3592 47.3576C69.9477 48.0234 62.7247 54.5902 60.423 56.0718C60.9509 55.2726 65.794 50.6654 66.5325 49.9757C68.0245 48.5824 69.5283 46.8399 71.1276 45.4213C71.4084 45.1723 72.5115 44.0969 72.6574 43.8661C72.1506 43.965 71.2796 44.7894 70.8631 45.1382L62.3558 52.0581C61.2283 52.957 60.0317 54.0863 58.8595 54.8236C59.1777 54.3095 60.0707 53.5596 60.5643 53.0691L64.1788 49.5488C64.5478 49.2244 64.6834 49.0423 65.0518 48.6775C66.4322 47.3107 72.5019 41.6585 73.1359 40.6933C72.7529 40.9126 71.5639 41.8314 71.1915 42.1464C69.0428 43.9642 57.7192 53.1306 57.2509 53.248L72.23 38.3149C71.7831 38.4578 68.8685 40.9674 68.2247 41.4809C66.8574 42.5713 65.5469 43.6402 64.2267 44.7288C62.9609 45.7724 57.1205 50.8273 56.1593 51.2069C56.6678 50.6258 57.3857 50.051 57.9616 49.4518L65.3072 42.2667C66.4071 41.2483 70.496 37.5746 70.8039 36.7987C69.9118 37.2274 58.0582 47.1013 56.3061 48.5132C55.6528 49.0396 54.8701 49.7668 54.2106 50.1927C54.5814 49.6555 55.5974 48.7756 56.0176 48.3464C58.4615 45.8511 60.9702 43.191 63.5889 40.842L69.217 35.1393C68.9179 35.3244 68.6114 35.6368 68.2484 35.9396C67.9078 36.2238 67.5739 36.4676 67.2093 36.777L52.671 48.774C52.9704 48.2941 53.9991 47.3684 54.4321 46.9255L63.8541 37.5078C64.4211 36.9724 65.1194 36.1431 65.7171 35.6013C65.971 35.3708 67.4176 33.9985 67.5741 33.661C66.9662 33.848 56.8678 42.4902 55.2085 43.8612C54.5235 44.4272 53.8487 44.9644 53.1514 45.5609C52.7785 45.8801 51.4853 46.9907 51.1078 47.1588C52.0122 46.4407 53.9731 44.3478 54.7574 43.5158C56.908 41.2343 65.5432 33.1232 65.8615 32.2124C65.1605 32.6417 64.5434 33.2596 63.899 33.7943C63.1835 34.388 62.5557 34.8556 61.8058 35.4544C60.3731 36.5987 59.0813 37.6474 57.6559 38.8144C55.5019 40.5778 51.428 43.9253 49.4349 45.2934L63.667 31.7367C64.0391 31.3427 64.3484 31.1398 64.5166 30.8327C64.0765 30.9371 48.6956 43.3246 48.2181 43.6698C48.5393 43.4414 48.6856 43.1888 49.0412 42.8389C49.394 42.4916 49.6651 42.2871 50.0171 41.9289L59.3288 32.9491C59.8905 32.4687 62.8283 29.775 63.0063 29.2779C61.834 29.9522 53.0403 37.0795 51.181 38.4373C49.8515 39.4084 48.6094 40.6686 47.2024 41.4084C47.4796 41.2543 50.18 38.4913 50.6533 38.012C51.8665 36.7835 52.9288 35.7544 54.1859 34.5509L59.4823 29.35C59.7123 29.1098 61.0991 27.6565 61.1005 27.6559L48.702 37.5989C48.1412 38.0422 47.5661 38.5906 46.952 38.9056C47.4934 38.7228 54.9668 30.8387 56.5873 29.3165L59.7573 26C59.2592 26.1908 47.7472 36.294 46.3931 37.6296C43.4506 40.5326 45.7149 45.116 48.164 47.3486L49.7241 48.8814C51.2317 50.4627 54.7911 53.4931 56.1694 54.9427L64.1673 62.5395C64.4817 62.821 64.6562 63.0735 64.9764 63.3433C66.6293 64.7353 68.2212 66.46 69.8349 67.9007C71.1296 69.0565 71.8597 69.7805 72.6771 71.3982C74.9987 75.992 73.3066 77.3918 72.6966 82V81.9997Z" fill="white"/>
</svg>
