<svg width="120" height="120" viewBox="0 0 120 120" fill="none" xmlns="http://www.w3.org/2000/svg">
<rect width="120" height="120" fill="#488E51"/>
<path fill-rule="evenodd" clip-rule="evenodd" d="M57.8094 56.4722C58.3395 56.2049 62.1959 52.1036 63.1477 51.1204L68.3366 45.649C74.8565 38.1826 86.7868 45.1221 83.8729 54.9453C83.0327 57.7779 81.4155 58.9065 79.422 61.1543L68.9287 72.0031L68.2214 71.4363C66.3399 69.5264 58.35 60.9881 57.8094 60.7555C56.4616 61.9504 51.9436 66.865 50.2118 68.6077L45.0797 73.9803C43.6644 75.6826 38.5332 80.594 37.4845 82H46.8643C46.8643 82 47.3134 81.5326 48.0112 80.8432L57.8094 70.6413C58.5577 71.0822 64.8121 77.9038 66.0404 79.1177C66.5676 79.6387 66.8716 79.971 67.4473 80.5326C67.934 81.0075 68.3019 81.5269 68.8073 81.9552C69.9131 80.9951 74.0815 76.4579 75.6119 74.9158C77.4209 73.0925 85.5322 64.7912 87.5874 62.2731C95.3744 52.7321 89.2441 35.5665 75.1933 35.5694C66.8914 35.571 63.2722 41.1714 57.9659 46.5421C57.2276 46.2105 44.0989 32.2154 41.7491 29.845C40.7202 28.807 38.4901 26.2308 37.9374 26L37.9301 35.4084C38.0266 36.1415 38.8359 36.6003 39.3212 37.1434C41.9511 40.0857 45.5806 43.6482 48.4915 46.7906L57.8094 56.4722Z" fill="white"/>
<path fill-rule="evenodd" clip-rule="evenodd" d="M26 79.9902C26.2916 80.7779 26.8904 81.4599 27.2705 82C31.2321 81.9715 33.2722 82 33.2722 82C34.2818 81.577 41.6768 73.472 43.1112 72.0077L49.4524 65.3356C50.4101 64.2879 51.5124 63.2628 52.6104 62.0655C53.3394 61.2704 55.3497 59.4565 55.812 58.6418C55.4823 58.0448 53.946 56.6356 53.5127 56.198C52.8896 55.5686 51.8759 54.1361 51.0749 53.7763C48.2008 56.9818 41.714 63.6068 38.5403 66.7988C37.4483 67.8973 36.7537 68.8203 35.4089 70.096L26 79.9902Z" fill="white"/>
</svg>
