<svg width="120" height="120" viewBox="0 0 120 120" fill="none" xmlns="http://www.w3.org/2000/svg">
<rect width="120" height="120" fill="#FF1D1D"/>
<path fill-rule="evenodd" clip-rule="evenodd" d="M72.8804 64.0658C75.904 61.4803 79.1947 57.6286 82.1487 54.7266C84.7861 52.1352 83.9475 52.2616 83.9711 47.4757C83.9971 42.3271 84.0822 43.3405 81.3479 40.6145C75.5107 34.7927 75.4221 33.0163 70.3232 33.0624C64.0999 33.1203 57.86 33.0529 51.6343 33.0683C52.0477 34.3167 53.4449 35.2546 54.4489 36.2396C61.9479 43.6075 61.6124 41.6669 61.5416 49.1505C61.4967 53.8537 60.9581 52.4411 66.0972 57.5259C67.8311 59.2397 71.1169 63.0004 72.8804 64.0658Z" fill="white"/>
<path fill-rule="evenodd" clip-rule="evenodd" d="M35.2568 44.5621L35.3029 73.267C37.1561 72.1319 42.2314 66.6113 44.133 64.6672C47.0894 61.6435 49.9902 59.0545 52.9891 56.0084C55.1612 53.8008 55.9348 54.291 55.8911 49.9929C55.8616 46.9964 56.451 43.7695 54.8647 42.0805C52.0359 39.0663 48.8232 36.045 45.7145 33.2339L37.3498 41.2006C36.2513 42.2896 35.2568 42.6156 35.2568 44.5621Z" fill="white"/>
<path fill-rule="evenodd" clip-rule="evenodd" d="M66.8 66.6582C65.7358 63.9712 59.0011 59.9211 58.8074 57.4703C58.5877 54.6899 58.8841 55.8923 59.4109 55.4694C59.4109 55.4694 59.4121 55.4682 58.6373 54.71C57.1077 57.6037 29.2556 83.742 28.8398 83.9263C29.5166 84.9527 28.7324 84.2239 29.8568 84.6491C33.1061 81.0467 43.7941 82.0873 48.2233 82.1605C49.1918 82.177 50.96 82.5467 52.0088 81.7377C59.3046 76.1108 64.4413 70.0882 66.8 66.6582Z" fill="white"/>
<path fill-rule="evenodd" clip-rule="evenodd" d="M86 57.5C84.9665 58.6492 82.5 60.5 81 62L73.5 69L66.5 76C62 80.5 62 80.5 58.5262 84.2121L58.0337 84.7224L86.663 84.5228V56.8283C86.0795 57.4127 86.5 57 86 57.5Z" fill="white"/>
<path fill-rule="evenodd" clip-rule="evenodd" d="M48.2244 82.1605C43.7952 82.0873 33.1072 81.0467 29.8579 84.6491C35.3749 84.0692 48.8256 84.8983 51.541 84.5157C54.0982 84.1554 68.0047 69.0559 70.3162 66.7397C69.552 64.6491 64.4566 60.5742 62.3164 58.3927C61.7388 57.8033 61.4129 57.5045 60.8518 56.9293C59.8538 55.9088 59.4002 55.447 58.6384 54.71C58.6065 54.7678 58.5888 54.6899 58.8085 57.4703C59.0022 59.9211 65.737 63.9712 66.8012 66.6582C63.9428 70.8146 53.7627 82.2526 48.2244 82.1605Z" fill="white"/>
</svg>
