<svg width="120" height="120" viewBox="0 0 120 120" fill="none" xmlns="http://www.w3.org/2000/svg">
<rect width="120" height="120" fill="#6A123C"/>
<path fill-rule="evenodd" clip-rule="evenodd" d="M38.4512 43.6753C39.0516 44.0519 40.5357 44.5699 41.2851 44.8835C42.2273 45.2776 43.1509 45.6767 44.1063 46.0831C49.1106 48.2127 55.8311 51.4233 60.6833 53.904C62.4865 54.8258 64.2586 55.7648 66.0582 56.662L71.3764 59.4752C73.1291 60.4512 74.9302 61.3348 76.661 62.3194C77.5064 62.8004 78.3841 63.2567 79.2683 63.7305C79.6964 63.96 80.14 64.2086 80.5771 64.4324C81.0073 64.6528 81.4986 64.9955 81.9787 65.1474L82.0029 61.3097L63.0635 50.3761C63.8028 49.7188 66.3312 49.1213 67.5398 48.9969C69.4292 48.8022 71.148 48.9598 72.9729 49.2904C74.5357 49.5734 76.1263 50.0648 77.5244 50.5845L81.6698 52.3665L81.6631 32C80.7852 32.1087 78.579 33.1398 76.0225 33.4351C72.008 33.899 66.3531 31.1319 56.4339 33.0468C49.3564 34.4131 43.8343 37.5023 39.2553 42.6276C39.0287 42.8812 38.624 43.352 38.4512 43.6753Z" fill="white"/>
<path fill-rule="evenodd" clip-rule="evenodd" d="M81.8784 86.6123L81.8974 85.0424L76.0687 81.9186C70.794 79.0166 63.6458 75.5068 58.1956 72.9305C50.1713 69.1372 41.642 65.391 32.9234 62.3494C32.7691 64.9522 34.9181 70.3436 36.4302 72.7634C42.4317 82.3684 53.2244 86.3759 64.605 86.5339C67.6355 86.5761 70.4483 86.3699 73.4101 86.012C76.7096 85.6133 78.8394 86.118 81.8784 86.6123Z" fill="white"/>
<path fill-rule="evenodd" clip-rule="evenodd" d="M34.4419 50.4563C35.5147 50.7707 39.4804 52.4196 40.7211 52.9408C42.8213 53.8233 44.8232 54.7191 46.9048 55.6185C53.5029 58.4699 66.6316 65.0588 73.3426 68.836L81.9327 73.4285L81.9726 68.8501L59.6536 57.3971C56.9618 55.981 51.0662 53.4206 48.0503 52.0988C45.2229 50.8592 38.7453 48.1342 35.9909 47.2364C36.6365 45.9976 37.621 44.6848 38.3855 43.6915C35.29 42.3219 30.4256 40.6509 27.0249 39.4978C25.8003 39.0826 24.2671 38.5034 23.0005 38.2281L23.0006 42.9742C24.3185 43.241 28.1811 44.4939 29.5935 44.9723C30.6541 45.3315 31.7382 45.6756 32.7982 46.061C33.7579 46.4097 35.025 46.9405 35.9588 47.1797C35.826 47.637 34.8722 49.2144 34.4419 50.4563Z" fill="white"/>
<path fill-rule="evenodd" clip-rule="evenodd" d="M32.8171 57.7686L39.3051 60.296C46.2999 63.0338 57.3629 68.3445 64.0775 71.8862L70.0702 75.0304C73.0057 76.4982 76.0895 78.3183 78.9346 79.7805C79.4079 80.0237 81.5803 81.28 81.9152 81.2885L81.9355 77.208C81.6716 76.9477 79.6131 75.8717 79.1502 75.637C78.1469 75.1289 77.1909 74.6114 76.2316 74.0764C74.2943 72.9958 72.3052 72.0251 70.3498 71.0029C61.2906 66.2674 49.3345 60.7128 39.7187 56.9551C38.6276 56.5287 37.5909 56.1205 36.4892 55.7088C35.5556 55.3597 34.1031 54.7266 33.1931 54.5295C33.0637 55.6045 32.8126 56.6603 32.8171 57.7686Z" fill="white"/>
<path fill-rule="evenodd" clip-rule="evenodd" d="M34.4419 50.4563C33.6936 50.0744 32.4895 49.7141 31.6476 49.404C30.1865 48.866 24.216 46.7775 23.022 46.5277L23 51.273C24.3738 51.5027 28.9098 53.0244 30.6407 53.6107C31.4556 53.8869 32.4127 54.2948 33.2285 54.4797C33.404 53.356 33.9959 51.3492 34.4419 50.4563Z" fill="white"/>
<path fill-rule="evenodd" clip-rule="evenodd" d="M32.8171 57.7686C30.4328 56.9278 27.9714 55.9936 25.5348 55.2413C24.7113 54.9871 23.8387 54.6447 23.0096 54.4646L23.0005 59.2137C24.4753 59.5001 26.5392 60.1943 27.9648 60.6714L32.8686 62.287C32.783 60.7796 32.6469 59.2731 32.8171 57.7686Z" fill="white"/>
</svg>
