<svg width="40" height="40" viewBox="0 0 40 40" fill="none" xmlns="http://www.w3.org/2000/svg">
<rect width="40" height="40" fill="white"/>
<path d="M40 0H0V40H40V0Z" fill="#0271C1"/>
<path d="M10.3951 25.3014L12.1146 23.582C11.7672 22.7656 11.1663 20.5598 11.5415 18.2672C11.9166 15.9746 13.4694 14.2898 14.1988 13.734C15.8315 15.2798 19.1697 18.4548 19.4615 18.7882C19.8262 19.2051 20.2952 19.5177 20.2952 20.0388C20.2952 20.4556 19.6352 21.1504 19.3052 21.4456L12.5315 28.1151C12.7225 28.3235 13.1672 28.7925 13.4173 29.0009C13.7299 29.2614 16.5436 31.1893 19.201 31.2414C21.8583 31.2935 22.8877 31.2946 25.8705 29.6262C28.6976 28.0448 31.8639 23.8427 31.2373 18.9967C30.6671 14.5873 29.0828 12.6189 25.8705 10.5035C23.7341 9.09664 19.7568 8.81875 18.2631 9.09664C18.871 9.80875 20.1805 11.2538 20.5557 11.3372C21.0247 11.4414 21.2852 11.3893 22.6399 11.7019C23.9947 12.0145 26.652 13.4214 28.0068 16.2351C29.3615 19.0488 29.3615 24.6762 24.9326 27.4378C21.3894 29.647 17.8636 28.7057 16.5436 27.9588L22.9526 21.4456C23.3958 20.9635 23.7345 20.4554 23.7341 20.0909C23.7335 19.5172 22.9526 18.7258 22.6399 18.3714L14.5636 10.3472C13.0525 11.1809 9.86366 13.8174 9.19671 17.694C8.52976 21.5707 9.71776 24.3809 10.3951 25.3014Z" fill="white"/>
</svg>
