<svg width="120" height="120" viewBox="0 0 120 120" fill="none" xmlns="http://www.w3.org/2000/svg">
<g clip-path="url(#clip0_273_79)">
<path d="M120 0H0V120H120V0Z" fill="#1DA9A1"/>
<path fill-rule="evenodd" clip-rule="evenodd" d="M47.0636 63.0497C49.6066 63.0497 52.1496 63.0411 54.692 63.0651C57.3433 63.0901 56.4529 63.2509 59.4725 60.2585C62.4437 57.3143 81.2108 38.3838 82.6916 37.4012V82.0598H37.9284C43.4096 76.0248 37.9283 82.0598 43.4096 76.0248C40.7096 76.0248 37.4474 76.0248 34.8601 76.0248C32.8975 76.1297 24.0469 85.2957 24.0008 86.6211C23.9667 87.5987 25.0125 89 26.0523 89H86.9549C88.3038 89 90 87.0634 90 84.7756V25.6331C90 24.1624 88.9814 22.9127 87.608 23.0048C85.9076 23.1189 47.3273 62.0714 47.0637 63.0497H47.0636Z" fill="#FEFEFE"/>
<path fill-rule="evenodd" clip-rule="evenodd" d="M24 70.8911C24 72.2975 24.7006 73 26.1031 73H66.3634C66.3634 73 71.471 68.4277 71.471 68.1797C71.471 65.2476 67.8464 66.0707 64.8611 66.0708H37.8206C68.9923 34.6635 37.8206 66.0708 68.9923 34.6635C73.5814 30.0619 72.9733 31.8344 72.9733 24.797C72.9733 23.9833 72.9748 23.9475 72.9748 23.2906C70.5608 22.7266 70.9724 22.736 68.091 25.6254L26.629 67.5018C25.8812 68.2514 24 69.7122 24 70.8911Z" fill="#FEC98B"/>
</g>
<defs>
<clipPath id="clip0_273_79">
<rect width="120" height="120" fill="white"/>
</clipPath>
</defs>
</svg>
