<svg width="40" height="40" viewBox="0 0 40 40" fill="none" xmlns="http://www.w3.org/2000/svg">
<rect width="40" height="40" fill="white"/>
<path d="M40 0H0V40H40V0Z" fill="black"/>
<path d="M34.6419 17.8014V20.0481C34.6419 20.1256 34.6152 20.1912 34.5617 20.2446C34.5055 20.3008 34.4386 20.3289 34.3611 20.3289C34.2835 20.3289 34.2167 20.3008 34.1605 20.2446C34.107 20.1912 34.0803 20.1256 34.0803 20.0481V18.5597L32.7283 20.2286C32.6721 20.2955 32.6012 20.3289 32.5156 20.3289C32.4809 20.3289 32.4488 20.3235 32.4193 20.3129C32.2963 20.2674 32.2348 20.1791 32.2348 20.0481V17.8014C32.2348 17.7239 32.2615 17.6583 32.315 17.6048C32.3712 17.5487 32.4381 17.5206 32.5156 17.5206C32.5932 17.5206 32.6601 17.5487 32.7162 17.6048C32.7697 17.6583 32.7965 17.7239 32.7965 17.8014V19.2898L34.1485 17.6169C34.2314 17.5206 34.3343 17.4939 34.4574 17.5366C34.5804 17.5821 34.6419 17.6704 34.6419 17.8014ZM33.402 16.875H33.4001C33.4777 16.875 33.5445 16.9017 33.6007 16.9552C33.6542 17.0114 33.6809 17.0783 33.6809 17.1558C33.6809 17.2334 33.6542 17.3003 33.6007 17.3564C33.5445 17.4099 33.4777 17.4367 33.4001 17.4367H33.402C33.3244 17.4367 33.2575 17.4099 33.2014 17.3564C33.1479 17.3003 33.1211 17.2334 33.1211 17.1558C33.1211 17.0783 33.1479 17.0114 33.2014 16.9552C33.2575 16.9017 33.3244 16.875 33.402 16.875Z" fill="white"/>
<path d="M29.6476 18.8847H29.0645V19.7673H29.6476C29.768 19.7673 29.8723 19.7245 29.9606 19.6389C30.0462 19.5506 30.089 19.4463 30.089 19.326C30.089 19.2029 30.0462 19.0986 29.9606 19.013C29.8723 18.9275 29.768 18.8847 29.6476 18.8847ZM28.5871 17.6009C28.6406 17.5474 28.7061 17.5206 28.7837 17.5206C28.8613 17.5206 28.9281 17.5474 28.9843 17.6009C29.0378 17.657 29.0645 17.7239 29.0645 17.8015V18.323H29.6476C29.9231 18.323 30.1598 18.4206 30.3577 18.6159C30.553 18.8138 30.6506 19.0505 30.6506 19.326C30.6506 19.6014 30.553 19.8381 30.3577 20.0361C30.1598 20.2313 29.9231 20.3289 29.6476 20.3289H28.7837C28.7061 20.3289 28.6406 20.3008 28.5871 20.2447C28.531 20.1912 28.5029 20.1257 28.5029 20.0481V17.8015C28.5029 17.7239 28.531 17.657 28.5871 17.6009ZM30.868 17.6009C30.9242 17.5474 30.991 17.5206 31.0686 17.5206C31.1462 17.5206 31.213 17.5474 31.2692 17.6009C31.3227 17.657 31.3494 17.7239 31.3494 17.8015V20.0481C31.3494 20.1257 31.3227 20.1912 31.2692 20.2447C31.213 20.3008 31.1462 20.3289 31.0686 20.3289C30.991 20.3289 30.9242 20.3008 30.868 20.2447C30.8145 20.1912 30.7878 20.1257 30.7878 20.0481V17.8015C30.7878 17.7239 30.8145 17.657 30.868 17.6009Z" fill="white"/>
<path d="M25.9389 19.7673H26.8663C26.9439 19.7673 27.0094 19.7392 27.0629 19.683C27.1191 19.6295 27.1471 19.564 27.1471 19.4864C27.1471 19.4089 27.1191 19.3433 27.0629 19.2899C27.0094 19.2337 26.9439 19.2056 26.8663 19.2056H25.9389V19.7673ZM25.9389 18.0823V18.6439H26.7058C26.7834 18.6439 26.8489 18.6159 26.9024 18.5597C26.9586 18.5062 26.9867 18.4407 26.9867 18.3631C26.9867 18.2856 26.9586 18.22 26.9024 18.1665C26.8489 18.1104 26.7834 18.0823 26.7058 18.0823H25.9389ZM25.6581 17.5206H26.7058C26.9385 17.5206 27.1364 17.6035 27.2996 17.7694C27.4654 17.9325 27.5483 18.1304 27.5483 18.3631C27.5483 18.537 27.4988 18.6961 27.3999 18.8405C27.6058 19.009 27.7088 19.2243 27.7088 19.4864C27.7088 19.7191 27.6259 19.917 27.4601 20.0802C27.2969 20.246 27.099 20.3289 26.8663 20.3289H25.6581C25.5805 20.3289 25.515 20.3008 25.4615 20.2447C25.4053 20.1912 25.3773 20.1257 25.3773 20.0481V17.8015C25.3773 17.7239 25.4053 17.657 25.4615 17.6009C25.515 17.5474 25.5805 17.5206 25.6581 17.5206Z" fill="white"/>
<path d="M24.2671 20.3289H22.8592C22.7816 20.3289 22.7148 20.3022 22.6586 20.2487C22.6051 20.1925 22.5784 20.1257 22.5784 20.0481V17.8015C22.5784 17.7239 22.6051 17.657 22.6586 17.6009C22.7148 17.5474 22.7816 17.5206 22.8592 17.5206H24.2671C24.3446 17.5206 24.4115 17.5474 24.4677 17.6009C24.5212 17.657 24.5479 17.7239 24.5479 17.8015C24.5479 17.879 24.5212 17.9459 24.4677 18.0021C24.4115 18.0555 24.3446 18.0823 24.2671 18.0823H23.14V18.6439H24.0478C24.1254 18.6439 24.1909 18.6707 24.2444 18.7242C24.3006 18.7804 24.3287 18.8472 24.3287 18.9248C24.3287 19.0023 24.3006 19.0692 24.2444 19.1254C24.1909 19.1789 24.1254 19.2056 24.0478 19.2056H23.14V19.7673H24.2671C24.3446 19.7673 24.4115 19.794 24.4677 19.8475C24.5212 19.9037 24.5479 19.9705 24.5479 20.0481C24.5479 20.1257 24.5212 20.1925 24.4677 20.2487C24.4115 20.3022 24.3446 20.3289 24.2671 20.3289Z" fill="white"/>
<path d="M21.6713 20.2688C21.6205 20.3089 21.563 20.3289 21.4988 20.3289C21.4079 20.3289 21.3343 20.2928 21.2782 20.2206L20.4798 19.2056L20.3392 19.3493L20.1749 19.5359V20.0481C20.1749 20.1257 20.1468 20.1925 20.0906 20.2487C20.0372 20.3022 19.9716 20.3289 19.8941 20.3289C19.8165 20.3289 19.7496 20.3022 19.6935 20.2487C19.64 20.1925 19.6132 20.1257 19.6132 20.0481V19.5359L19.4529 19.3493L19.3083 19.2056L18.51 20.2206C18.4538 20.2928 18.3803 20.3289 18.2893 20.3289C18.2251 20.3289 18.1676 20.3089 18.1168 20.2688C18.0553 20.2206 18.0192 20.1578 18.0085 20.0802C18.0005 20.0026 18.0205 19.9344 18.0687 19.8756L18.8149 18.9248L18.0687 17.974C18.0205 17.9151 18.0005 17.8469 18.0085 17.7694C18.0192 17.6918 18.0553 17.629 18.1168 17.5808C18.1757 17.5327 18.2439 17.5126 18.3214 17.5206C18.399 17.5313 18.4618 17.5674 18.51 17.629L19.4063 18.533L19.6162 18.7429L19.6132 17.8015C19.6132 17.7239 19.64 17.657 19.6935 17.6009C19.7496 17.5474 19.8165 17.5206 19.8941 17.5206C19.9716 17.5206 20.0372 17.5474 20.0906 17.6009C20.1468 17.657 20.1749 17.7239 20.1749 17.8015V18.7429L20.4092 18.5096L21.2782 17.629C21.3263 17.5674 21.3891 17.5327 21.4667 17.5247C21.5443 17.514 21.6125 17.5327 21.6713 17.5808C21.7328 17.629 21.7676 17.6918 21.7756 17.7694C21.7863 17.8469 21.7676 17.9151 21.7195 17.974L20.9733 18.9248L21.7195 19.8756C21.7676 19.9344 21.7863 20.0026 21.7756 20.0802C21.7676 20.1578 21.7328 20.2206 21.6713 20.2688Z" fill="white"/>
<path d="M15.1014 17.6009C15.1576 17.5474 15.2244 17.5206 15.302 17.5206C15.3796 17.5206 15.4464 17.5474 15.5026 17.6009C15.5561 17.657 15.5828 17.7239 15.5828 17.8015V18.6439H16.7939V17.8015C16.7939 17.7239 16.8206 17.657 16.8741 17.6009C16.9303 17.5474 16.9971 17.5206 17.0747 17.5206C17.1523 17.5206 17.2191 17.5474 17.2753 17.6009C17.3288 17.657 17.3555 17.7239 17.3555 17.8015V20.0481C17.3555 20.1257 17.3288 20.1925 17.2753 20.2487C17.2191 20.3022 17.1523 20.3289 17.0747 20.3289C16.9971 20.3289 16.9303 20.3022 16.8741 20.2487C16.8206 20.1925 16.7939 20.1257 16.7939 20.0481V19.2056H15.5828V20.0481C15.5828 20.1257 15.5561 20.1925 15.5026 20.2487C15.4464 20.3022 15.3796 20.3289 15.302 20.3289C15.2244 20.3289 15.1576 20.3022 15.1014 20.2487C15.0479 20.1925 15.0212 20.1257 15.0212 20.0481V17.8015C15.0212 17.7239 15.0479 17.657 15.1014 17.6009Z" fill="white"/>
<path d="M12.5868 19.2055H13.3611L12.9759 18.4272L12.5868 19.2055ZM13.2246 17.673L14.348 19.9196C14.3827 19.9892 14.3881 20.0614 14.364 20.1363C14.3399 20.2085 14.2931 20.262 14.2236 20.2968C14.1835 20.3182 14.142 20.3289 14.0992 20.3289C13.9816 20.3289 13.8973 20.2767 13.8465 20.1724L13.6419 19.7672H12.3059L12.1013 20.1724C12.0666 20.2419 12.0131 20.2887 11.9409 20.3128C11.866 20.3369 11.7938 20.3315 11.7242 20.2968C11.6547 20.262 11.6079 20.2085 11.5838 20.1363C11.5597 20.0614 11.5651 19.9892 11.5998 19.9196L12.7232 17.673C12.7713 17.5794 12.8556 17.5326 12.9759 17.5326C13.0936 17.5326 13.1765 17.5794 13.2246 17.673Z" fill="white"/>
<path d="M9.71614 18.9649H10.358C10.4757 18.9649 10.58 18.9221 10.671 18.8365C10.7566 18.7456 10.7994 18.6413 10.7994 18.5236C10.7994 18.4006 10.7566 18.2963 10.671 18.2107C10.58 18.1251 10.4757 18.0823 10.358 18.0823H9.71614V18.9649ZM9.15448 17.8015C9.15448 17.7239 9.18256 17.657 9.23873 17.6009C9.29222 17.5474 9.35775 17.5206 9.43531 17.5206H10.358C10.6362 17.5206 10.8729 17.6183 11.0681 17.8135C11.2634 18.0087 11.361 18.2454 11.361 18.5236C11.361 18.8017 11.2634 19.0384 11.0681 19.2337C10.8729 19.4289 10.6362 19.5266 10.358 19.5266H9.71614V20.0481C9.71614 20.1257 9.68939 20.1912 9.6359 20.2447C9.57974 20.3008 9.51287 20.3289 9.43531 20.3289C9.35775 20.3289 9.29222 20.3008 9.23873 20.2447C9.18256 20.1912 9.15448 20.1257 9.15448 20.0481V17.8015Z" fill="white"/>
<path d="M7.6229 18.331C7.45975 18.1652 7.26184 18.0823 7.02915 18.0823C6.79646 18.0823 6.59854 18.1652 6.43539 18.331C6.26957 18.4942 6.18666 18.6921 6.18666 18.9248C6.18666 19.1575 6.26957 19.3554 6.43539 19.5185C6.59854 19.6844 6.79646 19.7673 7.02915 19.7673C7.26184 19.7673 7.45975 19.6844 7.6229 19.5185C7.78873 19.3554 7.87164 19.1575 7.87164 18.9248C7.87164 18.6921 7.78873 18.4942 7.6229 18.331ZM8.02008 19.9157C7.74727 20.1912 7.41696 20.3289 7.02915 20.3289C6.64134 20.3289 6.31103 20.1912 6.03822 19.9157C5.76274 19.6429 5.625 19.3126 5.625 18.9248C5.625 18.537 5.76274 18.2067 6.03822 17.9339C6.31103 17.6584 6.64134 17.5206 7.02915 17.5206C7.41696 17.5206 7.74727 17.6584 8.02008 17.9339C8.29556 18.2067 8.4333 18.537 8.4333 18.9248C8.4333 19.3126 8.29556 19.6429 8.02008 19.9157Z" fill="white"/>
<path d="M5.90112 22.2864H13.3884" stroke="#FF5300" stroke-width="0.606443" stroke-linecap="round"/>
<path d="M26.8701 22.2864H34.3574" stroke="#FF5300" stroke-width="0.606443" stroke-linecap="round"/>
<path d="M23.449 22.9572V21.6149C23.449 21.5686 23.462 21.5294 23.4879 21.4974C23.5151 21.4639 23.5475 21.4471 23.5851 21.4471C23.6227 21.4471 23.6551 21.4639 23.6823 21.4974C23.7083 21.5294 23.7212 21.5686 23.7212 21.6149V22.1183H23.8652L24.291 21.5046C24.3156 21.4695 24.3468 21.4503 24.3843 21.4471C24.4206 21.4439 24.4537 21.4575 24.4835 21.4879C24.512 21.5182 24.5276 21.5566 24.5302 21.6029C24.5328 21.6493 24.5217 21.69 24.4971 21.7252L24.1063 22.286L24.4971 22.8469C24.5217 22.8821 24.5328 22.9228 24.5302 22.9692C24.5276 23.0155 24.512 23.0539 24.4835 23.0842C24.4576 23.1114 24.4278 23.125 24.3941 23.125C24.3526 23.125 24.3182 23.1058 24.291 23.0675L23.8652 22.4538H23.7212V22.9572C23.7212 23.0035 23.7083 23.0427 23.6823 23.0747C23.6551 23.1082 23.6227 23.125 23.5851 23.125C23.5475 23.125 23.5151 23.1082 23.4879 23.0747C23.462 23.0427 23.449 23.0035 23.449 22.9572Z" fill="white"/>
<path d="M20.665 21.4951C20.6922 21.4631 20.7246 21.4471 20.7622 21.4471C20.7998 21.4471 20.8322 21.4631 20.8594 21.4951C20.8853 21.5286 20.8983 21.5686 20.8983 21.6149V22.1183H21.5594V21.6149C21.5594 21.5686 21.5723 21.5286 21.5982 21.4951C21.6255 21.4631 21.6579 21.4471 21.6955 21.4471C21.733 21.4471 21.7654 21.4631 21.7927 21.4951C21.8186 21.5286 21.8316 21.5686 21.8316 21.6149V22.9572C21.8316 23.0036 21.8186 23.0435 21.7927 23.0771C21.7654 23.109 21.733 23.125 21.6955 23.125C21.6579 23.125 21.6255 23.109 21.5982 23.0771C21.5723 23.0435 21.5594 23.0036 21.5594 22.9572V22.4539H20.8983V22.9572C20.8983 23.0036 20.8853 23.0435 20.8594 23.0771C20.8322 23.109 20.7998 23.125 20.7622 23.125C20.7246 23.125 20.6922 23.109 20.665 23.0771C20.6391 23.0435 20.6261 23.0036 20.6261 22.9572V21.6149C20.6261 21.5686 20.6391 21.5286 20.665 21.4951Z" fill="white"/>
<path d="M18.4067 22.4539H18.7819L18.5953 21.9889L18.4067 22.4539ZM18.7158 21.5382L19.2602 22.8805C19.2771 22.9221 19.2797 22.9652 19.268 23.01C19.2563 23.0531 19.2336 23.0851 19.1999 23.1059C19.1805 23.1186 19.1604 23.125 19.1397 23.125C19.0826 23.125 19.0418 23.0939 19.0172 23.0315L18.918 22.7895H18.2706L18.1714 23.0315C18.1546 23.0731 18.1286 23.1011 18.0937 23.1154C18.0574 23.1298 18.0224 23.1266 17.9887 23.1059C17.955 23.0851 17.9323 23.0531 17.9206 23.01C17.9089 22.9652 17.9115 22.9221 17.9284 22.8805L18.4728 21.5382C18.4961 21.4823 18.5369 21.4543 18.5953 21.4543C18.6523 21.4543 18.6925 21.4823 18.7158 21.5382Z" fill="white"/>
<path d="M15.7598 22.3584V22.7898H16.2459C16.2938 22.7898 16.3353 22.769 16.3703 22.7275C16.404 22.6843 16.4209 22.6332 16.4209 22.5741C16.4209 22.515 16.404 22.4638 16.3703 22.4207C16.3353 22.3791 16.2938 22.3584 16.2459 22.3584H15.7598ZM15.4876 22.9576V21.6153C15.4876 21.569 15.5006 21.5298 15.5265 21.4978C15.5537 21.4643 15.5861 21.4475 15.6237 21.4475H16.4403C16.4779 21.4475 16.5103 21.4643 16.5375 21.4978C16.5634 21.5298 16.5764 21.569 16.5764 21.6153C16.5764 21.6616 16.5634 21.7016 16.5375 21.7351C16.5103 21.7671 16.4779 21.7831 16.4403 21.7831H15.7598V22.0228H16.2459C16.369 22.0228 16.4747 22.0763 16.5628 22.1834C16.6496 22.292 16.6931 22.4223 16.6931 22.5741C16.6931 22.7259 16.6496 22.8561 16.5628 22.9648C16.4747 23.0719 16.369 23.1254 16.2459 23.1254H15.6237C15.5861 23.1254 15.5537 23.1086 15.5265 23.075C15.5006 23.0431 15.4876 23.0039 15.4876 22.9576Z" fill="white"/>
</svg>
