<svg width="120" height="120" viewBox="0 0 120 120" fill="none" xmlns="http://www.w3.org/2000/svg">
<rect width="120" height="120" fill="#3674B7"/>
<path d="M28 46.0213C33.616 46.1005 39.2321 46.0651 44.846 46.0088C46.1598 45.9837 47.4757 46.0108 48.7854 46.1089C48.6477 48.0066 48.4017 49.896 48.2724 51.7937C47.7969 51.7729 47.3214 51.7478 46.8459 51.7249C46.7729 50.8261 46.8167 49.8981 46.5248 49.0326C46.1661 48.4716 45.3945 48.4341 44.796 48.3173C42.2205 48.0587 39.6137 48.0775 37.0361 48.3194C36.8589 49.5978 36.7734 50.8866 36.7963 52.1774C36.8318 54.0251 36.5565 55.8707 36.7734 57.7142C38.7733 57.7476 40.7732 57.8102 42.7731 57.7559C43.1881 57.7121 43.7261 57.7455 43.9973 57.368C44.3643 56.5109 44.3017 55.5412 44.627 54.6695C45.1401 54.584 45.6614 54.584 46.1807 54.5486C46.1849 57.4202 46.1682 60.2897 46.1974 63.1613C45.6406 63.1613 45.0817 63.1572 44.5249 63.1551C44.3872 62.1103 44.2642 61.0655 44.1015 60.0249C41.6845 59.7225 39.2216 59.6891 36.7984 59.9665C36.7921 62.5169 36.788 65.0653 36.8046 67.6158C36.8026 68.5 36.8922 69.3801 37.0028 70.2559C39.0569 70.4394 41.1215 70.4207 43.1777 70.2914C44.2496 70.2226 45.3611 70.3477 46.3913 69.9869C46.7479 69.8722 46.8647 69.4739 46.9752 69.159C47.2755 68.1601 47.4382 67.1257 47.6488 66.1059C48.166 66.0872 48.6832 66.0768 49.2004 66.0705C49.0669 68.1768 48.7958 70.2726 48.7061 72.3831C46.4163 72.8669 44.0661 72.7543 41.7513 72.5499C37.6075 72.4748 33.4596 72.4644 29.3159 72.5895C29.3013 72.3268 29.2867 72.0661 29.27 71.8075C29.9228 71.3091 30.8216 70.9066 30.9967 70.0182C31.345 68.4792 31.1511 66.8859 31.2428 65.3239C31.345 63.5868 31.3805 61.8475 31.3596 60.1104C31.3388 56.8383 31.4263 53.5663 31.2491 50.2985C31.1844 49.5665 31.3262 48.6927 30.7986 48.1004C29.9686 47.6104 28.9551 47.5916 28.025 47.4248C28.0229 46.9576 28.0146 46.4884 28 46.0213Z" fill="white"/>
<path d="M53.4839 46.0423C55.8175 46.0047 58.151 46.0631 60.4825 46.0214C61.2396 46.0277 62.0049 45.9526 62.7536 46.0965C63.5794 46.8743 63.8046 48.0589 64.3051 49.0432C65.473 51.4831 66.5845 53.9502 67.819 56.3567C69.233 59.1429 70.5155 61.9936 71.9169 64.786C72.0858 64.7881 72.2568 64.7902 72.4278 64.7943C74.9428 59.7727 77.412 54.7301 79.7914 49.6438C80.3274 48.4238 80.8571 47.1997 81.489 46.0256C84.4649 46.0881 87.4408 46.0798 90.4167 46.0277C90.4167 46.4573 90.4459 46.8868 90.5022 47.3144C89.6451 47.4562 88.765 47.5062 87.9413 47.794C87.2885 48.0088 87.2593 48.8138 87.1592 49.381C87.0132 51.2162 86.8652 53.0534 86.9006 54.8969C86.9298 58.2315 86.8402 61.5703 86.9528 64.9028C87.1717 66.617 86.9674 68.3646 87.3052 70.0621C87.3761 70.4333 87.5909 70.8191 88.0038 70.8775C88.7879 71.1027 89.6117 71.0777 90.4187 71.134C90.4271 71.5991 90.4354 72.0641 90.4479 72.5312C86.4043 72.4854 82.3607 72.5167 78.3171 72.5271C78.3191 72.1183 78.3108 71.7096 78.2753 71.3029C79.1533 71.1549 80.0917 71.1403 80.9009 70.7232C81.2283 70.596 81.2658 70.2102 81.3388 69.914C81.5036 68.9506 81.4452 67.9663 81.4556 66.9924C81.4765 63.4472 81.4639 59.902 81.4681 56.3567C81.4619 54.8844 81.5766 53.3954 81.2533 51.9482C80.2899 53.3934 79.6267 55.0075 78.8176 56.5382C76.5611 61.099 74.2651 65.641 72.1484 70.2686C71.7167 71.1882 71.4143 72.2184 70.6865 72.9608C69.869 73.1861 69.4895 72.3957 69.2017 71.7888C68.086 69.376 66.9974 66.9486 65.7899 64.5795C64.376 61.685 63.0142 58.7633 61.544 55.8938C60.7495 54.3631 60.0717 52.774 59.2021 51.2829C59.0728 56.9386 59.2209 62.5984 59.1625 68.2561C59.2 69.0173 59.127 69.9099 59.663 70.5251C60.5263 71.1132 61.6358 71.0735 62.6284 71.2571C62.57 71.6846 62.5325 72.1142 62.5137 72.5458C59.5212 72.4916 56.5286 72.4708 53.536 72.5709C53.486 72.135 53.4463 71.6992 53.4109 71.2633C54.3431 71.0965 55.3774 71.1528 56.2074 70.6377C56.7788 69.914 56.6621 68.9047 56.7622 68.0393C56.8664 63.4513 56.8351 58.8613 56.8414 54.2713C56.8205 52.1463 56.9519 50.0066 56.6099 47.9004C55.5922 47.6397 54.5537 47.4687 53.5026 47.3999C53.5006 46.9473 53.4943 46.4948 53.4839 46.0423Z" fill="white"/>
</svg>
