<svg width="120" height="120" viewBox="0 0 120 120" fill="none" xmlns="http://www.w3.org/2000/svg">
<rect width="120" height="120" fill="#DBF1F9"/>
<path fill-rule="evenodd" clip-rule="evenodd" d="M97 56.5968C96.7503 55.67 92.3152 48.8195 91.1101 47.5256C84.5518 40.4855 75.7152 41.6872 66.4693 41.6872C61.3809 41.6872 56.2924 41.6872 51.204 41.6872C51.4742 42.8365 56.0035 49.6879 57.0948 50.7573C58.5139 52.1477 59.5648 53.1388 61.3132 54.1418C67.3617 57.612 74.1353 56.5969 81.7347 56.5969C86.823 56.5969 91.9115 56.5968 97 56.5968Z" fill="#FF8400"/>
<path fill-rule="evenodd" clip-rule="evenodd" d="M31 41.6871C31 47.7279 34.5382 52.0896 37.8295 57.3929L42.1806 64.429C42.9082 65.579 45.9733 70.7919 46.7144 71.2838C51.65 63.9775 56.0187 56.991 50.4901 47.9582C49.7444 46.7397 49.1102 45.7609 48.3583 44.5082L39.6281 30.4639C39.1743 29.712 37.8284 27.3941 37.2858 27C36.6736 28.1469 36.1094 29.0932 35.3952 30.2441C34.6968 31.3695 33.9329 32.3828 33.3179 33.5257C32.1182 35.755 31 38.3729 31 41.6871Z" fill="#00A9EA"/>
<path fill-rule="evenodd" clip-rule="evenodd" d="M39.7549 89.9766C45.7292 89.9766 50.5363 90.3065 54.8645 88.4869C61.3823 85.7467 63.5959 81.2064 66.9059 75.7221C68.218 73.5482 76.0654 61.3551 76.347 60.1573C65.6949 60.1573 58.5239 59.8078 52.3696 69.3238L46.0537 79.5303C45.1088 81.1054 39.9728 89.0493 39.7549 89.9766Z" fill="#0066BB"/>
</svg>
