<svg width="40" height="40" viewBox="0 0 40 40" fill="none" xmlns="http://www.w3.org/2000/svg">
<rect width="40" height="40" fill="#005BFF"/>
<path d="M34.3488 27.9016H32.2097L29.8967 24.9603V27.9016H28.2656V21.7249H29.8967V24.2651L31.9289 21.7249H34.0145L31.4877 24.5325L34.3488 27.9016Z" fill="white"/>
<path d="M25.5808 21.7249H27.1958V27.8749H25.5808V25.4255H22.9152V27.8749H21.3132V21.7249H22.9152V23.9346H25.5808V21.7249Z" fill="white"/>
<path d="M16.2597 28.0351C14.642 28.0351 13.2916 26.8586 13.2916 24.7462C13.2916 22.6338 14.642 21.4573 16.2597 21.4573C17.2624 21.4573 17.9309 21.8851 18.3186 22.5268H18.3453V21.6578H19.9764V27.8346H18.3453V26.9655H18.3186C17.9309 27.6073 17.2624 28.0351 16.2597 28.0351ZM16.6741 26.4842C17.6635 26.4842 18.3453 25.789 18.3453 24.7462C18.3453 23.7034 17.6635 23.0081 16.6741 23.0081C15.6848 23.0081 15.0029 23.7034 15.0029 24.7462C15.0029 25.789 15.6848 26.4842 16.6741 26.4842Z" fill="white"/>
<path d="M30.8593 11.5642C32.1963 11.5642 33.1856 12.3129 33.1856 14.1312V17.9415H31.5412V14.5189C31.5412 13.5162 31.0732 13.0883 30.271 13.0883C29.4288 13.0883 28.8271 13.583 28.8271 14.92V17.9415H27.196V11.7648H28.8138V12.7006H28.8405C29.255 11.992 29.9502 11.5642 30.8593 11.5642Z" fill="white"/>
<path d="M22.8644 11.5642C24.8297 11.5642 26.287 12.9145 26.287 14.8531C26.287 16.7917 24.8297 18.142 22.8644 18.142C20.8991 18.142 19.4418 16.7917 19.4418 14.8531C19.4418 12.9145 20.8991 11.5642 22.8644 11.5642ZM22.8644 13.1151C21.8617 13.1151 21.1263 13.7969 21.1263 14.8531C21.1263 15.9093 21.8617 16.5912 22.8644 16.5912C23.8671 16.5912 24.5891 15.9093 24.5891 14.8531C24.5891 13.7969 23.8671 13.1151 22.8644 13.1151Z" fill="white"/>
<path d="M15.3729 16.5436H18.9068V17.9813H13.2916V16.6634L16.5742 13.269H13.4732V11.8313H18.6694V13.1358L15.3729 16.5436Z" fill="white"/>
<path d="M9.49482 11.5642C11.4601 11.5642 12.9174 12.9145 12.9174 14.8531C12.9174 16.7917 11.4601 18.142 9.49482 18.142C7.52949 18.142 6.0722 16.7917 6.0722 14.8531C6.0722 12.9145 7.52949 11.5642 9.49482 11.5642ZM9.49482 13.1151C8.4921 13.1151 7.75677 13.7969 7.75677 14.8531C7.75677 15.9093 8.4921 16.5912 9.49482 16.5912C10.4975 16.5912 11.2195 15.9093 11.2195 14.8531C11.2195 13.7969 10.4975 13.1151 9.49482 13.1151Z" fill="white"/>
<path d="M9.32092 28.1288C7.42244 28.1288 5.93842 27.0591 5.93842 23.9975C5.93842 22.3263 6.20581 20.5214 7.67646 19.7192C8.47864 19.2817 9.387 19.2175 9.94929 19.1844C10.4039 19.1577 11.5536 19.0774 12.0884 19.0776V20.7355C11.4199 20.7355 10.7515 20.7889 10.083 20.8424C9.68317 20.8744 8.87972 20.9226 8.34494 21.19C7.81016 21.5911 7.64972 21.9387 7.54276 22.9281H7.59624C8.02407 21.8852 8.63907 21.658 9.77548 21.658C11.5403 21.658 12.7569 22.9013 12.7569 24.8132C12.7569 26.7651 11.4601 28.1288 9.32092 28.1288ZM9.30755 26.578C10.2702 26.578 11.0456 25.9229 11.0456 24.8399C11.0456 23.757 10.2702 23.1019 9.30755 23.1019C8.35831 23.1019 7.58287 23.757 7.58287 24.8399C7.58287 25.9229 8.35831 26.578 9.30755 26.578Z" fill="white"/>
</svg>
