<svg width="120" height="120" viewBox="0 0 120 120" fill="none" xmlns="http://www.w3.org/2000/svg">
<rect width="120" height="120" fill="#42B029"/>
<path fill-rule="evenodd" clip-rule="evenodd" d="M86 86.9963C80.4861 81.4317 57.2748 57.5409 57.2748 57.5409L81.5485 30.0453L43.5127 30C40.9823 30.0848 38.7967 31.3049 37.4216 33.2915C35.696 35.7845 36.0791 38.2238 36.0792 41.3614C36.0792 47.7687 36.0792 54.1762 36.0792 60.5835C36.0792 66.8285 35.9002 73.3357 36.0804 79.5476C36.1654 82.474 37.8798 84.5864 39.4258 85.6064C41.8778 87.2241 44.3251 86.9879 47.6537 86.9879C60.4111 86.9879 73.2532 86.8418 85.9999 86.9963L86 86.9963ZM40.1343 71.0089C40.1343 71.0089 52.9615 57.353 56.4631 52.6111L72.8555 33.7829C72.8555 33.7829 51.4764 33.9696 46.6822 33.9673C43.6651 33.9659 41.2001 33.7657 40.2944 36.4366C39.8551 37.7321 40.1344 71.009 40.1344 71.009L40.1343 71.0089ZM76.3832 82.9986L54.8303 60.9431C50.4163 65.7539 46.1475 70.2768 41.882 75.2452C41.3335 75.9904 39.493 77.2799 40.1849 80.1935C40.3781 81.0072 40.603 81.2759 41.0928 81.7592C42.8717 83.515 46.0184 82.941 48.8682 82.941C56.1433 82.941 76.3832 82.9985 76.3832 82.9985V82.9986Z" fill="#FEFFFE"/>
</svg>
