<svg width="120" height="120" viewBox="0 0 120 120" fill="none" xmlns="http://www.w3.org/2000/svg">
<rect width="120" height="120" fill="#F17E00"/>
<path fill-rule="evenodd" clip-rule="evenodd" d="M58.5596 26.0753C56.0494 26.6325 41.7592 35.453 38.4519 37.3814C27.9109 43.5277 30.2127 41.9011 30.2127 60.6951C30.2127 63.9756 29.7242 73.4295 30.7576 75.7773C31.6863 77.8876 32.8846 78.2733 34.9698 79.5329C41.5274 83.4936 48.2134 87.32 54.8188 91.208C61.1496 94.894 61.8166 92.5616 71.0229 87.2375C90.3733 76.0464 88.8881 81.4134 88.8881 58.0357C88.8881 54.741 89.388 45.4857 88.2748 43.1282C87.3142 41.0938 86.0895 40.6111 84.0435 39.3931L69.1844 30.6763C66.8938 29.278 61.5353 25.4147 58.5597 26.0753H58.5596ZM39.2378 66.8953C37.8455 70.2649 41.3495 75.1507 44.7918 73.0008L61.8551 62.9576C64.6613 61.3415 68.6674 58.2665 70.8269 58.8957C71.5367 60.2627 71.6645 62.9927 71.1508 64.8666C70.6597 66.6576 68.1828 68.877 66.6117 69.8085C63.1419 71.8659 59.6539 73.9008 56.2284 75.9215C54.8383 76.7414 51.4381 78.0822 52.9646 79.7435C53.1894 79.988 57.7724 82.5924 58.2546 82.7439C61.264 83.8932 78.0134 73.4235 79.4017 71.4188C80.6511 69.6147 80.0883 58.7446 80.0883 55.6718C80.0883 47.4153 79.9674 47.475 74.9417 44.4012C71.2954 42.2809 68.2067 40.4091 64.5604 38.2808C58.6586 34.836 58.811 35.6512 53.3013 39.0025C49.8099 41.1263 46.3846 43.0214 42.9142 45.1134C41.0418 46.2422 39.4328 46.8105 39.0829 49.2112C38.8431 50.8566 38.2084 56.2086 40.4427 56.0355C41.1941 55.9773 53.7261 48.4318 56.0194 47.0516C58.7611 45.4019 59.0973 45.3756 61.9832 47.0726C63.3062 47.8504 67.0563 49.3224 65.0749 51.4032L40.3826 65.9075C39.3387 66.5477 39.7692 66.103 39.2378 66.8954V66.8953Z" fill="white"/>
</svg>
