<svg width="120" height="120" viewBox="0 0 120 120" fill="none" xmlns="http://www.w3.org/2000/svg">
<rect width="120" height="120" fill="#4597D0"/>
<path fill-rule="evenodd" clip-rule="evenodd" d="M62.1937 74.9502C62.9066 76.4156 63.5215 77.3806 64.4796 78.4907C68.7408 83.4288 75.0071 85.1164 81.2824 83.1908C85.1246 82.0117 88.5947 78.7421 90.3817 75.0712C92.6738 70.3624 92.4162 65.2698 90.332 60.7816C88.583 57.0149 85.0308 54.0573 81.0636 52.7392C78.4015 51.8547 77.8876 52.2004 76.6897 51.9394L76.4591 51.8625C76.139 51.7431 76.3245 46.6882 76.3246 45.9534C76.3247 43.8605 76.4078 42.3627 75.6311 40.697C72.8249 34.6795 64.5406 34.193 61.3154 40.6994C59.9911 43.3713 60.9988 48.8729 60.5835 51.9601L54.4251 51.9902C54.1359 50.8373 54.4765 49.6669 53.5732 46.9232C52.2111 42.7852 49.0999 39.1624 45.2563 37.4431C37.2946 33.8813 28.8677 37.2898 25.0428 44.0932C23.4807 46.8717 22.6917 50.5409 23.1119 53.888C23.3368 55.6794 23.7775 57.0962 24.3978 58.6185C25.6332 61.6499 28.6731 64.8796 31.5966 66.2591C33.2462 67.0375 33.9763 67.434 35.932 67.7637C36.4101 67.8444 36.6707 67.9505 37.1691 67.9718C37.6659 67.9929 38.1884 67.9413 38.6734 68.0474C39.0897 73.4829 37.0854 79.7537 42.6148 82.9247C44.9852 84.2841 47.4975 84.349 50.0269 83.1511C51.9672 82.2323 53.9739 79.7159 54.1308 77.9123C54.7061 77.0686 54.3428 69.8413 54.4484 68.1071C55.2932 68.0177 59.8254 67.9865 60.5347 68.1326C60.5534 70.3486 61.2378 72.9844 62.194 74.9499L62.1937 74.9502ZM38.1606 48.8978C33.7871 49.9576 35.5485 55.8598 39.2401 55.1325C43.4318 54.3066 41.9906 47.9695 38.1606 48.8978ZM75.4645 64.9775C71.39 66.2201 73.3525 72.2135 77.1721 71.0252C81.1645 69.7834 79.3823 63.7826 75.4645 64.9775Z" fill="white"/>
<path d="M86 49C89.3137 49 92 46.0899 92 42.5C92 38.9101 89.3137 36 86 36C82.6863 36 80 38.9101 80 42.5C80 46.0899 82.6863 49 86 49Z" fill="white"/>
</svg>
