<svg width="120" height="120" viewBox="0 0 120 120" fill="none" xmlns="http://www.w3.org/2000/svg">
<rect width="120" height="120" fill="#017842"/>
<path fill-rule="evenodd" clip-rule="evenodd" d="M44.1744 26.6076C43.4217 26.1215 43.5499 26.1094 42.6816 26.6232C39.9356 28.2479 36.3397 30.1108 33.4082 31.7837C32.8965 32.0757 32.2144 32.2942 32.0016 32.8147C31.8944 34.1951 37.1069 33.4828 38.3345 39.4425C38.5195 40.3404 38.6617 41.3329 38.7299 42.2785C38.7953 43.1854 38.4214 44.561 39.0256 45.1477C39.7979 45.8975 40.6603 45.166 41.2554 44.8095L57.5202 35.101C57.9179 34.8608 59.2873 33.9254 59.604 33.9988C59.8407 34.0537 63.044 36.0974 63.5942 36.4296L77.8816 44.8991C78.5112 45.2629 79.3501 45.9173 80.0416 45.2079C80.7848 44.4455 79.8679 42.4385 80.7168 39.3702C81.1882 37.6662 82.0606 36.081 83.0711 35.2091C83.6637 34.6978 84.2105 34.3661 85.0557 33.9825C85.9225 33.5891 86.9826 33.6314 87 32.5945C86.9134 32.35 79.3127 28.1944 78.1344 27.5866C77.4889 27.2536 75.5977 25.938 74.9549 26.3246C74.5391 27.0399 75.1224 29.3086 74.0106 31.1096C72.0776 34.2409 67.3233 32.9303 67.7313 29.5336C68.0641 26.7658 71.4386 25.0975 71.673 24.836C72.2973 24.1398 71.1139 23.7061 70.5734 23.3801C69.3415 22.6376 68.1854 21.9653 66.9513 21.2289C66.0673 20.7015 60.0338 17.0771 59.6255 17.0014C59.0543 16.8956 49.6002 22.7622 48.6888 23.3019C46.3361 24.695 47.2288 24.4586 48.9597 25.9944C49.8427 26.7779 50.9915 27.8306 51.3677 29.3416C52.1462 32.4695 47.3108 34.5294 45.1934 31.4694C44.3166 30.2021 44.2415 28.3973 44.1744 26.6076ZM42.9153 27.9629L34.6332 32.5499C35.4814 33.183 35.9601 33.0799 37.1494 34.3431C38.5747 35.8571 39.5672 37.7304 39.9878 39.9095C40.7095 43.6487 38.5189 44.9462 42.5944 42.6037C43.4825 42.0932 44.2014 41.6666 45.0466 41.1719C46.7189 40.1933 48.2476 39.2793 49.861 38.3287C50.8963 37.7187 59.2626 32.6354 59.5486 32.6468C59.7838 32.6563 72.0114 39.9849 73.9721 41.159C74.812 41.6619 75.5801 42.1128 76.4045 42.6121C79.7569 44.6422 79.0668 43.769 78.9058 41.884C78.6372 38.7396 80.5033 35.022 83.0665 33.3373C83.3267 33.1662 83.5067 33.0591 83.7591 32.9211C84.1156 32.7262 84.2093 32.744 84.4509 32.4702L78.1743 29.0917C77.6749 28.8106 76.5761 28.083 76.0959 27.9545C75.896 29.8846 75.855 31.0729 74.8165 32.2352C72.2888 35.0638 68.5266 34.072 66.972 32.3276C66.0208 31.2602 65.8603 29.4842 66.6481 28.0249C68.4683 24.6531 70.8774 25.0133 68.457 23.5974C67.0485 22.7735 59.9162 18.3601 59.5538 18.3569C59.3004 18.3547 53.3272 21.9659 52.5031 22.4464C51.8995 22.7985 51.3376 23.1151 50.7488 23.4687C48.6868 24.707 49.5643 24.5229 51.151 26.2531C56.8229 32.4388 47.6389 36.6183 44.2159 32.3226C43.3239 31.2032 43.0367 29.733 42.9153 27.9629Z" fill="white"/>
<path fill-rule="evenodd" clip-rule="evenodd" d="M60.2073 99.1596C60.7807 98.8139 65.1388 94.5477 66.04 93.689C69.6322 90.2664 73.7344 85.5833 76.2567 81.0888C77.4362 78.987 78.8981 75.033 79.2234 72.6282C78.6721 72.8963 78.2835 73.2564 77.5928 73.5003C74.8842 74.4567 72.9972 73.1485 71.4032 72.7427C66.076 71.387 63.3178 79.3069 62.5423 83.197C62.1298 85.2659 61.6369 91.2989 61.3755 91.9512C61.2496 87.8301 61.0349 83.658 61.556 79.5586C62.3931 72.9728 63.7426 62.8927 72.8514 68.0222C74.3006 68.8383 76.994 70.5809 78.7725 69.9361C79.4053 69.7067 79.3532 69.6091 79.6472 69.1368C80.0622 68.4699 80.538 68.153 80.931 67.1847C81.9165 70.8825 80.242 75.6663 78.9394 78.564C76.5382 83.9051 73.0484 87.7156 69.3249 91.7538C69.0128 92.0922 68.7946 92.3518 68.483 92.6872C67.0411 94.2396 64.7324 96.3253 63.1738 97.9051C62.5497 98.5377 60.0742 101.083 59.559 101.386C58.9325 100.997 52.4634 94.5534 52.0034 94.053C51.6275 95.4055 51.73 95.2013 53.2145 96.7458C54.1148 97.6825 58.9317 102.433 59.6706 103C61.031 101.996 66.1518 96.1384 68.542 94.0641C68.9077 93.7467 69.2011 93.4131 69.5539 93.0838C74.0669 88.8719 78.7634 82.4819 80.9843 76.6172C81.6918 74.7488 82.3696 72.4602 82.5483 70.2402C82.6518 68.9555 82.6542 67.5954 82.4741 66.356C82.3857 65.7475 82.291 65.2774 82.1471 64.6811C81.9451 63.8441 82.0389 63.7525 81.1153 63.7891C80.3798 64.8839 80.1898 66.5262 79.2014 67.5987C77.8026 69.1162 77.127 68.4724 75.3888 67.6082C74.0724 66.9538 72.9829 66.1891 71.7584 65.465C69.9568 64.3996 69.2941 64.4464 67.0422 64.7497L67.0313 53.2534C67.8117 53.5163 77.8433 59.132 78.6996 59.62C78.7499 58.7771 78.2851 56.9336 78.1758 55.9269C78.0003 54.3124 78.13 53.2899 78.1945 51.7392C77.389 51.4452 66.0237 44.9413 64.7367 44.2163C63.2879 43.4002 61.6921 42.3583 60.2398 41.6606L60.2073 99.1596ZM67.2166 87.2318L67.3734 87.1165C69.0295 85.6106 72.737 77.7446 72.6955 74.9679C71.7125 74.2645 70.0357 74.2729 69.0486 74.8706C68.5693 75.1609 68.1449 75.6279 67.8211 75.9625C67.2091 76.5951 67.2846 76.7127 67.2502 77.829C67.154 80.9603 67.2221 84.0983 67.2166 87.2318Z" fill="white"/>
<path fill-rule="evenodd" clip-rule="evenodd" d="M40.8336 51.8511C41.5615 56.7673 39.604 61.411 39.3546 65.6076C39.2245 67.7987 39.526 71.3563 42.4551 70.0957C43.2599 69.7493 44.1347 69.1169 44.9258 68.6835C51.0121 65.3491 54.4434 65.5757 56.3665 72.84C57.487 77.0728 57.9519 82.5172 57.9235 87.1846C57.917 88.2543 57.9732 90.9916 57.6975 91.8297C57.3366 86.8852 56.4533 80.3297 53.8996 76.1502C49.8361 69.4998 46.2274 75.4879 41.3814 73.5325C40.6612 73.2419 40.3153 72.873 39.815 72.5629C40.07 75.0427 42.0873 79.6021 43.25 81.812C44.3565 83.9151 47.0032 87.6247 48.7374 89.047C49.2106 88.5119 49.7005 86.4055 49.983 85.5414C50.5574 83.7859 46.5687 79.2864 46.3595 74.9173C47.7357 74.6989 48.4825 74.0217 49.8647 74.7407C50.7754 75.2143 51.4952 75.979 51.8369 77.0842C52.1956 78.244 51.9484 84.9048 51.9488 87.625C51.9494 89.1275 51.9638 90.6438 51.9874 92.146C52.0039 93.1981 52.7823 93.3008 54.0812 94.6792C54.3111 94.9231 58.562 98.9295 58.9097 99.0966L58.882 41.5508C56.5628 42.7542 52.5981 45.2776 49.9466 46.7768C47.6343 48.0843 42.9926 50.8291 40.8336 51.8511ZM46.2002 66.0117C47.0231 65.6506 47.7438 65.2112 48.7148 64.9362C50.1541 64.5287 50.9 64.8588 52.0349 64.687L52.0623 53.286C45.8571 52.4169 45.1419 64.1338 46.2002 66.0117Z" fill="white"/>
<path fill-rule="evenodd" clip-rule="evenodd" d="M51.2529 24.5603C51.5126 25.0625 52.5451 25.8769 53.0457 26.5852C58.1416 33.7976 46.579 38.3479 43.0928 32.549C41.2216 29.4366 43.3179 28.8668 38.2859 31.98L37.1497 32.8148C38.5703 34.1375 39.165 34.4081 40.2287 36.48C40.6624 37.3249 40.8876 37.9925 41.2092 38.9286C41.4477 39.6225 41.672 41.2928 41.8812 41.6681C42.3189 41.6561 58.9129 31.2682 59.4947 31.1617C59.8198 31.1021 67.3713 35.6937 68.3387 36.2641C69.546 36.9758 76.7583 41.4269 77.3573 41.5555C77.5906 40.9065 77.7748 39.6218 77.9942 38.8681C78.2558 37.9686 78.5608 37.176 78.9492 36.4079C79.3159 35.6825 79.7913 34.9875 80.2891 34.4446C80.8188 33.8664 81.8492 33.0222 81.987 32.7049L77.311 29.7711C76.7346 30.6709 76.9572 32.9267 74.1765 34.3742C72.1836 35.4118 69.7633 35.3828 67.7528 34.4229C66.0659 33.6174 64.7305 32.0255 64.9724 29.4223C65.1204 27.8303 65.9387 26.5826 66.9399 25.5684C67.2745 25.2297 67.7008 25.011 67.9244 24.5627C66.8978 24.0466 60.0041 19.7626 59.5746 19.7927C59.4104 19.8043 52.1358 24.0666 51.2529 24.5603Z" fill="white"/>
</svg>
