<svg width="120" height="120" viewBox="0 0 120 120" fill="none" xmlns="http://www.w3.org/2000/svg">
<rect width="120" height="120" fill="#D53A41"/>
<path d="M81 45C81 56.598 71.598 66 60 66C48.402 66 39 56.598 39 45C39 33.402 48.402 24 60 24C71.598 24 81 33.402 81 45Z" fill="white"/>
<path d="M81 78C81 82.9706 71.598 87 60 87C48.402 87 39 82.9706 39 78C39 73.0294 48.402 69 60 69C71.598 69 81 73.0294 81 78Z" fill="white"/>
<path d="M60 96C71.598 96 81 94.6569 81 93C81 91.3431 71.598 90 60 90C48.402 90 39 91.3431 39 93C39 94.6569 48.402 96 60 96Z" fill="white"/>
</svg>
