<svg width="120" height="120" viewBox="0 0 120 120" fill="none" xmlns="http://www.w3.org/2000/svg">
<g clip-path="url(#clip0_273_435)">
<path d="M120 0H0V120H120V0Z" fill="#005598"/>
<path fill-rule="evenodd" clip-rule="evenodd" d="M40.5349 52.191C40.5349 52.191 40.5109 52.2221 42.1522 52.1731C42.6566 52.1581 43.3538 52.1621 43.8895 52.1631C50.8683 52.1759 60.3376 52.5812 66.7478 52.355C66.9068 44.3595 61.9204 38.8718 57.1013 36.2191C53.7977 34.4008 50.6777 34.1198 46.4246 34.1203C42.5249 34.1205 37.2189 33.8177 33.4898 34.1722C34.2685 38.4412 36.5176 43.8089 38.3118 47.7576C38.9976 49.2671 40.024 50.6226 40.5349 52.191L27 52.2988C27.8553 56.2675 31.4031 62.5225 33.3189 65.7074C35.7932 69.8209 39.2692 73.9255 42.1908 76.8291C45.1531 79.7733 49.1226 83.1819 53.3112 85.7002C55.7446 87.1632 63.7232 91.6323 66.6976 92L66.6652 78.2052C62.2903 76.2179 57.1547 71.8426 53.6453 68.5778L50.4503 65.385C49.9269 64.7083 40.6043 52.2202 40.5349 52.191Z" fill="#00AAAA"/>
<path fill-rule="evenodd" clip-rule="evenodd" d="M66.6652 78.2052L66.8055 78.356C72.2003 81.0743 84.9665 85.4154 84.966 85.5367C84.966 85.5367 84.994 76.9236 84.9958 72.812C84.9992 65.2412 83.0331 59.3746 76.7442 55.2804C74.618 53.8961 71.1285 52.3616 66.7478 52.355L66.6652 78.2052Z" fill="#F49C16"/>
<path fill-rule="evenodd" clip-rule="evenodd" d="M66.6652 78.2052L66.7478 52.355C66.7478 52.355 49.1988 52.0663 40.5349 52.191C40.6197 52.2683 41.8682 54.2116 42.103 54.5921L50.4503 65.385L53.6453 68.5778C57.1547 71.8426 62.2903 76.2179 66.6652 78.2052Z" fill="#FDFDFD"/>
<path fill-rule="evenodd" clip-rule="evenodd" d="M85 52.4901L84.9992 34.1204L66.5661 34.1199C68.194 42.7557 76.1507 51.0606 85 52.4901Z" fill="#00AAAA"/>
</g>
<defs>
<clipPath id="clip0_273_435">
<rect width="120" height="120" fill="white"/>
</clipPath>
</defs>
</svg>
