<svg width="120" height="120" viewBox="0 0 120 120" fill="none" xmlns="http://www.w3.org/2000/svg">
<rect width="120" height="120" fill="#01499A"/>
<path fill-rule="evenodd" clip-rule="evenodd" d="M38.1951 41.865C38.1951 48.8774 38.9725 52.062 42.5852 57.4998C42.0191 58.3521 41.3806 59.0355 41.1219 60.1548C42.0497 60.781 43.7531 61.9443 44.9268 62.22C46.2769 59.6487 46.7547 59.595 48.1464 57.4998C43.1979 50.0517 42.5854 50.074 42.5854 40.3899H47.2685C47.4147 38.6182 48.6535 37.6604 49.0245 36.26C46.8389 36.0769 40.3565 35.4436 38.903 36.6783C38.2158 37.2622 38.1953 40.7417 38.1953 41.865H38.1951ZM45.2196 79.0347C52.3027 79.0347 54.8143 77.4535 60.1464 74.6097C60.9733 75.3341 61.5831 75.8036 62.7804 76.0848C63.3574 74.9857 64.5601 73.4143 64.8291 72.2496C63.6476 71.9723 60.7431 69.8257 60.1464 69.0047C52.5626 74.1232 52.0291 74.6095 42.5852 74.6095C42.5852 69.0877 42.9253 70.4227 40.7339 69.3958C39.7679 68.9431 39.3971 68.5155 38.1951 68.4147C38.1951 78.4339 37.7565 78.5131 41.1084 78.753C42.6068 78.8604 43.3724 79.0346 45.2194 79.0346L45.2196 79.0347ZM30.0002 57.4998C33.7224 63.1023 40.7084 68.9957 47.8538 69.5948C47.8538 71.1328 48.1648 71.3572 48.4394 72.5448C49.7735 72.4327 51.5758 71.8774 52.5369 71.3648C52.5063 69.9838 52.1025 69.4412 51.9747 68.0961C51.6789 64.9816 51.6768 65.7026 49.1456 65.3428C48.8154 65.2958 47.7863 65.0726 47.4438 64.9929C46.3547 64.7395 45.417 64.5513 44.4561 64.1691C41.1407 62.8509 37.342 60.1802 35.561 57.4996L38.5519 54.3184C38.3179 53.5192 37.3433 50.7944 37.0245 50.1248C34.9847 51.2127 31.0953 55.4135 30 57.4996L30.0002 57.4998ZM59.8538 40.3899L58.6861 39.5021C58.1372 39.1822 57.932 39.0824 57.2196 38.915C56.6426 40.0141 55.4401 41.5857 55.1709 42.75C56.3526 43.0276 59.2571 45.1741 59.8538 45.9951C67.3754 40.9186 67.7531 40.3901 77.4148 40.3901C77.4148 45.912 77.0749 44.5771 79.2663 45.604C80.2321 46.0567 80.6029 46.4843 81.8049 46.5852C81.8049 43.7081 81.9006 40.4043 81.561 37.9813C81.3045 36.1508 80.932 36.3926 78.8916 36.2468C74.1177 35.9048 71.459 35.5887 66.3584 37.2113C63.9014 37.993 61.997 39.2474 59.8538 40.3901V40.3899ZM47.8538 45.405C46.8273 45.4912 45.387 45.9261 44.6344 46.29C45.1527 47.3785 45.2348 48.9265 45.805 50.125C47.1283 50.125 48.1068 49.7356 49.1043 49.6154C50.621 49.4329 51.4271 49.9808 51.8476 48.5453C52.3438 46.8529 51.8898 45.7857 53.3261 42.0704C54.2424 39.7001 56.2092 36.7104 57.869 35.1443L60.1468 33.31C61.0745 34.7065 62.3625 34.6808 62.7808 36.2598C64.7161 36.2164 65.6494 35.2322 67.4637 35.0799C66.9335 33.0788 61.295 28.3877 59.854 28C54.7744 31.4284 47.854 38.8742 47.854 45.4048L47.8538 45.405ZM67.4635 43.3401C67.4635 44.9051 67.8564 45.3791 68.0021 46.6322C68.5858 51.6553 68.9615 48.2084 75.542 50.8324C78.8977 52.1707 82.6379 54.7891 84.439 57.4998L81.4483 60.6812C81.6823 61.4805 82.6569 64.2052 82.9755 64.8748C85.0338 63.7771 88.8946 59.6054 90 57.4998C88.0047 54.4964 85.5443 52.0292 82.7279 49.7847C80.5761 48.0699 75.6125 45.6956 72.1464 45.405C72.1464 43.867 71.8354 43.6426 71.561 42.4551C70.0851 42.579 68.9394 43.2163 67.4635 43.3401ZM71.8538 57.4998C76.8021 64.9481 77.4146 64.9258 77.4146 74.6097H72.7316C72.5249 75.5042 72.365 75.9712 71.9593 76.7812C71.5413 77.6164 71.1967 77.9043 70.9755 78.7396C78.0028 79.3291 74.5588 79.0034 81.2194 78.4447C81.9153 75.4339 81.8047 73.5673 81.8047 70.4796C81.8047 65.0806 79.5754 60.7523 77.4146 57.4996C77.9807 56.6475 78.6192 55.9641 78.8781 54.8448C77.7977 54.1159 76.5063 53.1163 75.073 52.7798C73.7231 55.351 73.2453 55.4048 71.8536 57.4996L71.8538 57.4998ZM59.8538 81.6898C58.9259 80.2933 57.638 80.319 57.2196 78.7398C55.2843 78.7835 54.3511 79.7678 52.5369 79.9198C53.067 81.9212 58.7056 86.6119 60.1466 87C65.2262 83.5714 72.1464 76.1256 72.1464 69.595C73.1731 69.5088 74.6134 69.0739 75.3658 68.7102C74.8477 67.6213 74.7656 66.0735 74.1951 64.875C72.8719 64.875 71.8935 65.2644 70.8959 65.3846C67.2721 65.8209 68.7346 64.7656 67.6365 69.7694C67.0258 72.5516 65.6804 75.7691 63.8772 77.7804C62.1479 79.7091 63.3293 78.9059 60.9866 80.7668C60.4756 81.1728 60.3942 81.3251 59.8538 81.6898Z" fill="white"/>
</svg>
