<svg width="120" height="120" viewBox="0 0 120 120" fill="none" xmlns="http://www.w3.org/2000/svg">
<g clip-path="url(#clip0_273_183)">
<path fill-rule="evenodd" clip-rule="evenodd" d="M0 119.151L0.0535125 120L119.958 119.998L120 0.0833513L119.153 0L0.00228571 0.0143848L0 119.151Z" fill="#003570"/>
<path fill-rule="evenodd" clip-rule="evenodd" d="M65.3709 47.9186C64.7122 48.6592 63.9489 49.4853 63.2299 50.2392C61.5989 51.9493 60.7807 53.8785 60.2638 56.1155C59.9708 57.3834 59.9882 58.8797 60.0118 60.3248C60.0396 62.01 60.8426 65.7897 61.8988 66.8474C62.7739 67.7239 65.5427 65.0446 66.1775 64.2695C66.8222 63.4824 66.5814 63.2739 67.0566 63.1083C67.1461 62.0056 66.9498 62.3579 66.7516 61.5089C64.8405 53.3278 75.0824 47.1268 81.3937 52.9874C86.0054 57.27 85.1587 64.408 79.4757 67.4571C76.0336 69.304 73.6211 67.6996 72.9169 68.4199C72.2095 69.1432 68.3472 72.8691 68.2828 73.1298C69.2033 74.2876 73.1181 74.9629 74.7163 74.9957C92.4451 75.3597 96.6882 52.6128 82.5104 45.7984L79.5536 44.4681C79.8243 43.6507 81.5792 42.0126 82.2007 41.0574C80.5818 39.4337 77.2128 36 77.2128 36C74.0083 39.0125 68.5173 44.3802 65.371 47.9185L65.3709 47.9186Z" fill="#F5F5F5"/>
<path fill-rule="evenodd" clip-rule="evenodd" d="M56.9999 68.0529C56.0004 67.3512 52.1955 63.9621 52.1236 63.9313C51.7955 64.0846 51.1064 65.1643 50.7397 65.5687C48.014 68.5747 42.9896 69.22 39.5302 66.7375C34.1999 62.9124 34.2517 54.3201 41.0165 51.0911C43.2276 50.0357 43.8796 50.5331 46.5194 50.3441C47.6417 48.6612 50.8193 45.8096 51.369 45.321C33.9987 39.0594 23.7483 56.4617 31.7766 68.075C33.3635 70.3706 34.6235 71.4322 37.0009 72.9822C40.1899 75.0611 45.626 75.6602 49.3376 74.1815C51.6738 73.2507 56.5819 70.525 57 68.0529H56.9999Z" fill="#F5F5F5"/>
<path fill-rule="evenodd" clip-rule="evenodd" d="M49.0492 48.7182C44.995 53.0753 43.3727 62.027 47.0693 66.9999C48.7697 67.0121 50.6794 64.9442 51.6183 63.5559C51.9649 63.0434 52.0212 62.9504 51.7937 62.2159C50.2719 57.3042 52.8858 51.5295 57.9657 50.6747C62.7047 49.8773 60.0603 52.3748 63.886 47.8654C64.8765 46.6979 65.7459 45.495 66 45.3359C58.532 43.6371 54.8227 42.5135 49.0491 48.7182H49.0492Z" fill="#F5F5F5"/>
<path fill-rule="evenodd" clip-rule="evenodd" d="M53.4351 72.7238C53.0555 72.9748 53.1225 72.8233 53 73.2364C53.4108 73.9945 55.6918 74.4273 56.2981 74.5686C61.7766 75.8466 66.5297 74.2278 70.2531 70.4685C70.8416 69.8743 71.7251 68.9337 72 68.1295C71.537 67.8382 71.02 67.7362 70.4935 67.379C69.4077 66.6425 67.8502 65.2257 67.5384 64L67.1039 64.0297L66.7513 64.5991C66.6093 64.807 66.4864 64.9733 66.357 65.1331C63.0686 69.1959 59.8395 67.9893 57.5896 68.3229C57.1308 69.6517 54.3785 72.1313 53.4349 72.7239L53.4351 72.7238Z" fill="#F5F5F5"/>
</g>
<defs>
<clipPath id="clip0_273_183">
<rect width="120" height="120" fill="white"/>
</clipPath>
</defs>
</svg>
