<svg width="120" height="120" viewBox="0 0 120 120" fill="none" xmlns="http://www.w3.org/2000/svg">
<rect width="120" height="120" fill="#D82E22"/>
<path fill-rule="evenodd" clip-rule="evenodd" d="M46.5535 62.197C46.3904 61.3912 43.4933 56.7767 43.1229 55.6365C40.7988 56.0574 39.4968 57.1014 36.7065 56.6426C34.3792 56.26 32.7946 55.4523 31.656 54.0523C28.6441 50.3485 32.1551 45.5545 36.9496 46.6298C40.0065 47.3154 43.7169 51.3527 45.2878 53.5062C46.8083 55.5906 50.0587 61.596 50.1953 63.8405C48.1971 64.3242 42.5122 66.62 40.6474 67.5779C37.9063 68.9861 35.4605 71.4188 34.0516 74.2429C30.3534 81.6553 34.0456 89.3055 40.1017 91.6275C46.796 94.194 54.3037 90.492 57.0953 83.7091C59.8485 77.0199 59.4092 67.7134 57.2825 60.7749C56.2747 57.4873 54.7919 54.3099 53.1528 51.6507C50.0227 46.5728 45.0466 40.8216 38.8461 39.4074C31.8351 37.8081 24.1087 41.8841 23.0983 49.5635C22.5485 53.7422 24.3976 57.2702 26.3501 59.4351C28.3536 61.6569 31.1398 63.3072 35.1799 63.8726C37.282 64.1668 39.2953 64.0484 41.31 63.6975C42.3665 63.5135 45.9408 62.6407 46.5535 62.197Z" fill="white"/>
<path fill-rule="evenodd" clip-rule="evenodd" d="M73.6548 65.7071L73.1829 73.0374C73.8777 73.3305 75.2492 73.5832 75.9906 73.8144C78.5221 74.6042 80.8266 76.6172 81.728 78.9694C83.3791 83.2777 79.4635 87.059 75.1577 84.9662C72.0851 83.4726 70.7397 78.6087 70.3264 75.3342C70.0359 73.0325 70.0394 70.6806 70.2531 68.3839C70.3509 67.3313 70.9753 63.0418 71.4429 62.3436C74.9098 62.8216 78.3124 64.1583 82.7833 64.1595C89.7416 64.1612 96.5607 59.1178 96.9751 52.0093C97.4399 44.0358 91.3452 38.7187 83.4328 39.1038C73.9622 39.5648 66.7462 51.5032 64.2538 59.6114C61.4822 68.6285 61.2115 84.0751 69.6125 90.2563C79.6568 97.6466 92.7757 89.0818 88.9589 76.7717C87.9406 73.4875 85.5455 71.0251 83.2058 69.3682C80.7018 67.5951 77.526 66.4114 74.4452 65.7265C73.7076 65.5625 74.0241 65.654 73.7543 65.6864C73.7276 65.6897 73.6867 65.6959 73.6548 65.7071Z" fill="white"/>
<path fill-rule="evenodd" clip-rule="evenodd" d="M54.3234 48.0589C54.6316 47.799 58.8782 42.8291 59.0008 42.5717C58.7099 41.7882 57.9497 40.732 57.4839 39.9709C55.6446 36.9653 55.0124 32.8636 57.2061 30.2564C60.5683 26.2605 66.3278 29.553 65.5884 35.0294C65.0747 38.8344 61.5116 43.7045 59.6539 45.9194C58.9926 46.7078 58.491 47.3132 57.7423 48.2462C56.4926 49.8037 56.1381 49.9505 56.5805 50.7261C57.0163 51.4896 59.1671 55.8848 59.5575 56.2176C60.7203 55.2807 64.8206 50.7893 65.9992 49.4137C68.0436 47.0276 70.0365 44.8288 71.5065 41.5516C72.9886 38.2475 73.7344 34.4695 72.6535 30.5213C70.7515 23.5746 63.3655 18.996 56.4024 21.8737C51.3727 23.9524 48.9782 28.8181 48.4691 33.9655C48.1081 37.6168 49.6551 41.2692 51.5132 44.171C52.0246 44.9697 53.7683 47.72 54.3234 48.0589Z" fill="white"/>
<path fill-rule="evenodd" clip-rule="evenodd" d="M51.2077 75.2081L50.9637 71.373C48.6904 71.694 44.5861 73.7076 43.0936 74.8854C41.3302 76.2773 38.9867 79.3809 40.5785 82.5914C41.9434 85.3445 45.8447 85.7673 48.1523 83.601C49.9651 81.8992 51.2117 78.7149 51.2077 75.2081Z" fill="#D82E22"/>
<path fill-rule="evenodd" clip-rule="evenodd" d="M74.8482 55.5553C77.9704 56.4644 82.3244 57.3742 85.4787 56.0962C86.9798 55.4882 88.2368 54.6763 88.9466 53.3631C89.804 51.7769 89.7425 49.7533 88.7242 48.485C86.3233 45.4942 82.818 46.2698 80.043 48.305C78.8908 49.15 77.8754 50.3055 77.0422 51.4985C76.6131 52.1131 74.9542 54.8362 74.8482 55.5553Z" fill="#D82E22"/>
</svg>
