<svg width="120" height="120" viewBox="0 0 120 120" fill="none" xmlns="http://www.w3.org/2000/svg">
<rect width="120" height="120" fill="#263772"/>
<path fill-rule="evenodd" clip-rule="evenodd" d="M30 69.3951C31.1651 73.6745 34.8599 79.9647 37.4019 82.129L52.9122 73.4749L53.0562 91.2314C56.5535 91.8249 63.1597 92.4715 66.7141 91.5062C68.2495 91.0892 68.0586 91.907 68.0545 87.8128L68.0767 73.5544L83.5144 82.2278C85.6174 80.5623 90.662 73.2057 91 69.2245L75.4524 60.4507C72.9482 61.8556 70.6323 63.3357 68.1174 64.7777C66.451 65.733 62.1747 68.4421 60.4769 68.9731C58.1069 67.8965 55.3996 66.1718 53.1343 64.8438C50.9508 63.5636 47.5998 61.4128 45.5669 60.5519L30 69.3951Z" fill="white"/>
<path fill-rule="evenodd" clip-rule="evenodd" d="M53.0032 28.7632L52.9984 46.8863C50.6101 45.9195 47.4314 43.7346 45.1982 42.4461C43.6035 41.5261 38.8939 38.4565 37.379 38.0778C34.4983 41.2789 31.2745 45.7497 30 51.1317C31.6425 52.1838 44.0735 59.7152 45.0086 59.5465C46.0552 59.3576 59.4496 50.8554 60.6254 50.8278C61.9809 50.7958 74.1642 58.9268 75.6279 59.4616C77.3068 60.075 87.5453 52.6376 91 51.2899C90.4671 48.7359 89.1606 46.0196 87.9829 44.0295C87.2569 42.8026 86.8466 42.1346 86.0223 40.9651C85.224 39.8322 84.5236 39.1309 83.9238 38.0322C81.1138 38.6571 70.1485 46.4662 68.0004 46.7407L68.0009 28.7101C61.9439 27.9515 59.1297 27.5709 53.0032 28.7632Z" fill="white"/>
<path fill-rule="evenodd" clip-rule="evenodd" d="M46.1471 59.7376C51.3294 60.0906 55.7145 63.0134 60.3339 60.008C65.976 56.3375 68.9375 59.6044 74.8529 59.7042L60.6254 51.4366L46.1471 59.7376Z" fill="white"/>
</svg>
