<svg width="120" height="120" viewBox="0 0 120 120" fill="none" xmlns="http://www.w3.org/2000/svg">
<rect width="120" height="120" fill="#083997"/>
<path fill-rule="evenodd" clip-rule="evenodd" d="M48.6694 52.2429L70.6775 52.2978L80.5895 30.2608C108.323 46.2619 95.7283 86.3112 80.5895 90.7253L70.6775 68.9594L48.8374 68.9872L38.9722 91C16.3769 77.3313 21.8403 34.8565 38.9254 30.2708C38.9254 30.2708 46.9173 47.4014 48.6694 52.2429ZM46.9502 65.5503L37.9172 86.3112C21.0075 71.8664 24.3889 45.4164 37.2879 33.7754L46.9892 55.38L72.5253 55.363C75.2042 51.2048 81.6691 33.7754 81.6691 33.7754C81.6691 33.7754 109.441 60.1001 81.976 86.4246C81.976 86.4246 74.6339 69.1093 72.0442 65.5503C64.62 65.6516 46.9502 65.5503 46.9502 65.5503Z" fill="white"/>
<path fill-rule="evenodd" clip-rule="evenodd" d="M50.8533 46.2303L68.6613 46.2619L75.785 30.0447L43.839 30L50.8533 46.2303Z" fill="white"/>
<path fill-rule="evenodd" clip-rule="evenodd" d="M50.8533 74.4951L68.6613 74.4635L75.785 90.6807L43.839 90.7254L50.8533 74.4951Z" fill="white"/>
</svg>
