<svg width="40" height="40" viewBox="0 0 40 40" fill="none" xmlns="http://www.w3.org/2000/svg">
<rect width="40" height="40" fill="white"/>
<path d="M40 0H0V40H40V0Z" fill="#6262FF"/>
<path d="M18.0216 13.1388C18.2447 13.1022 18.5529 13.0575 18.7111 13.0412C18.8693 13.0209 19.4169 13.0046 19.9279 13.0005C20.5404 12.9964 21.0433 13.0168 21.3881 13.0575C21.676 13.0941 22.1425 13.1673 22.4223 13.2243C22.7022 13.2812 23.1403 13.3951 23.3958 13.4724C23.6513 13.5497 24.065 13.6921 24.3084 13.7856C24.5517 13.8833 25.0303 14.0989 25.3629 14.2697C25.6996 14.4406 26.1904 14.7213 26.458 14.9003C26.7257 15.0752 27.1192 15.3559 27.3301 15.5186C27.541 15.6813 28.0155 16.1207 28.3846 16.4909C28.7537 16.861 29.1958 17.3492 29.3621 17.5729C29.5325 17.7967 29.7921 18.1628 29.934 18.3865C30.08 18.6103 30.295 18.9642 30.4086 19.1676C30.5221 19.3751 30.7087 19.7534 30.8223 20.0015C30.9359 20.2538 31.1265 20.7541 31.2441 21.1121C31.3617 21.4701 31.5077 21.9745 31.5645 22.2308C31.6213 22.4871 31.6943 22.8817 31.7268 23.1054C31.7633 23.3292 31.8079 23.7848 31.8282 24.1224C31.8525 24.456 31.8728 24.7652 31.8728 24.8018C31.8728 24.8709 31.7227 24.875 26.6406 24.875L26.6203 24.5984C26.6081 24.4479 26.5797 24.1712 26.5554 23.98C26.5311 23.7888 26.4662 23.4593 26.4134 23.2478C26.3607 23.0363 26.2674 22.7352 26.2066 22.5766C26.1498 22.4179 26.0159 22.1169 25.9105 21.9054C25.805 21.6938 25.6022 21.344 25.4603 21.1324C25.3183 20.9209 25.0101 20.5466 24.7748 20.3026C24.5396 20.0585 24.1583 19.7168 23.9231 19.5419C23.6838 19.3588 23.2741 19.1066 22.9902 18.9601C22.7103 18.8177 22.2723 18.6347 22.0167 18.5533C21.7612 18.4679 21.3313 18.3621 21.0636 18.3174C20.6499 18.2482 20.4592 18.2401 19.8062 18.2564C19.2262 18.2726 18.9383 18.297 18.6503 18.3621C18.4394 18.4109 18.1027 18.5045 17.8999 18.5737C17.6971 18.6428 17.3605 18.7771 17.1496 18.8788C16.9387 18.9805 16.5655 19.1961 16.3181 19.3588C16.0707 19.5256 15.7016 19.8225 15.4907 20.0178C15.2798 20.2171 15.0039 20.506 14.8782 20.6646C14.7484 20.8192 14.5416 21.1121 14.4077 21.3155C14.2779 21.5189 14.0954 21.8443 14.0021 22.0477C13.9048 22.2511 13.775 22.5766 13.706 22.78C13.6411 22.9834 13.5479 23.3373 13.4992 23.5732C13.4505 23.8092 13.3978 24.1956 13.3572 24.875H8.125L8.15339 24.2363C8.16962 23.8824 8.21423 23.4024 8.24668 23.1664C8.28318 22.9305 8.34808 22.5644 8.39675 22.3528C8.44137 22.1413 8.53871 21.7548 8.61172 21.4986C8.68878 21.2423 8.84697 20.7826 8.96864 20.4816C9.09032 20.1805 9.2769 19.7575 9.38235 19.5459C9.48781 19.3344 9.68655 18.9764 9.8204 18.7527C9.95425 18.5289 10.2017 18.1547 10.372 17.9187C10.5424 17.6828 10.8385 17.3085 11.0291 17.0848C11.2238 16.861 11.5401 16.5193 11.7389 16.3281C11.9376 16.1369 12.2662 15.844 12.4649 15.6773C12.6636 15.5105 13.0043 15.2542 13.2153 15.1077C13.4262 14.9613 13.7547 14.7457 13.9453 14.6318C14.136 14.5179 14.5537 14.2982 14.8782 14.1436C15.2027 13.985 15.6772 13.7816 15.9328 13.688C16.1883 13.5944 16.671 13.448 17.0076 13.3626C17.3402 13.2771 17.7985 13.1754 18.0216 13.1388Z" fill="#B8F804"/>
</svg>
