<svg width="120" height="120" viewBox="0 0 120 120" fill="none" xmlns="http://www.w3.org/2000/svg">
<rect width="120" height="120" fill="#45AC3D"/>
<path fill-rule="evenodd" clip-rule="evenodd" d="M69.7632 51.718C72.5276 58.4965 72.2681 66.02 67.4208 71.6183C52.5118 88.836 30.6801 64.8759 46.9723 58.0558C50.6371 57.0014 55.1121 57.9154 55.0974 62.5707C55.0873 65.7859 52.0141 65.4071 51.0447 65.9481C50.7038 67.2091 52.6259 68.2662 53.903 68.5733C57.7656 69.5021 62.7608 66.3671 63.2805 61.4714C64.8308 46.8688 42.6796 42.9209 35.282 57.9646C26.6267 75.5652 44.2943 89.7084 59.7622 88.9725C61.8778 88.7201 63.8815 88.4422 65.807 87.8209C72.5199 86.2629 78.1546 81.3858 81.2378 77.6507C84.8656 73.2559 87.9971 66.3104 88 58.5498C88.0049 46.0364 76.7514 31.9265 65.6927 29.2407C46.316 23.4236 30.4848 39.9258 33.7015 40.3658C34.3162 40.4499 36.6554 39.1028 38.5336 38.6687C42.4421 37.1868 48.3774 36.8741 52.4461 37.6717C60.1614 39.1844 66.7725 44.3848 69.7632 51.718Z" fill="white"/>
</svg>
