<svg width="120" height="120" viewBox="0 0 120 120" fill="none" xmlns="http://www.w3.org/2000/svg">
<rect width="120" height="120" fill="#D1E6F5"/>
<path d="M24 59.5781C24.4 71.7754 30.1669 80.2459 33.0001 82.9562V59.5781C33.8001 38.0298 51.0002 32.3039 59.5 32.1345C81.9001 34.1673 87.1665 51.2773 86.9999 59.5781C85.3643 87.3147 60.9998 88.3772 50.0001 84.9889V94.1365C85.9999 99.8288 94.4926 76.1711 95 58.5617C93 30.508 70.5002 23.8337 59.5 24.0031C31.5002 25.2229 24.1669 48.2278 24 59.5781Z" fill="#153F65"/>
<path d="M79.998 60.0876C79.998 71.3148 71.0438 80.4162 59.9983 80.4162C56.3554 80.4162 52.94 79.4263 49.9983 77.6965V84.9919L39.9986 78.8932V61.6137L40.0584 61.6715C40.0188 61.1488 39.9986 60.6206 39.9986 60.0876C39.9986 48.8605 48.9528 39.759 59.9983 39.759C71.0438 39.759 79.998 48.8605 79.998 60.0876Z" fill="#4997CE"/>
<path d="M59.9968 71.2697C66.072 71.2697 70.9969 66.2638 70.9969 60.0888C70.9969 53.9138 66.072 48.9079 59.9968 48.9079C53.9217 48.9079 48.9968 53.9138 48.9968 60.0888C48.9968 66.2638 53.9217 71.2697 59.9968 71.2697Z" fill="#D1E6F5"/>
</svg>
