<svg width="40" height="40" viewBox="0 0 40 40" fill="none" xmlns="http://www.w3.org/2000/svg">
<rect width="40" height="40" fill="#0EDF60"/>
<path fill-rule="evenodd" clip-rule="evenodd" d="M29.4106 10.5895H17.1463C15.7661 10.5895 14.804 10.5905 14.055 10.6517C13.3202 10.7117 12.898 10.8236 12.5782 10.9866C11.8928 11.3358 11.3355 11.8931 10.9862 12.5786C10.8233 12.8984 10.7113 13.3205 10.6513 14.0554C10.5901 14.8044 10.5892 15.7665 10.5892 17.1467V29.411H22.8535C24.2336 29.411 25.1957 29.41 25.9447 29.3488C26.6796 29.2888 27.1018 29.1769 27.4216 29.0139C28.107 28.6647 28.6643 28.1074 29.0135 27.4219C29.1765 27.1021 29.2884 26.6799 29.3485 25.9451C29.4097 25.1961 29.4106 24.234 29.4106 22.8538V10.5895ZM9.90427 12.0273C9.37488 13.0663 9.37488 14.4264 9.37488 17.1467V30.6252H22.8535C25.5737 30.6252 26.9338 30.6252 27.9728 30.0959C28.8868 29.6302 29.6298 28.8871 30.0955 27.9732C30.6249 26.9342 30.6249 25.5741 30.6249 22.8538V9.37524H17.1463C14.4261 9.37524 13.0659 9.37524 12.0269 9.90464C11.113 10.3703 10.3699 11.1134 9.90427 12.0273Z" fill="black"/>
<path d="M9.37488 14.2331C9.37488 11.5502 11.5498 9.37524 14.2328 9.37524H30.6249V13.8752H16.2334C15.3305 13.8752 14.5985 14.6072 14.5985 15.5101V19.1252H24.2082V23.7086H14.5985V30.6252H9.37488V14.2331Z" fill="black"/>
</svg>
