<svg width="120" height="120" viewBox="0 0 120 120" fill="none" xmlns="http://www.w3.org/2000/svg">
<rect width="120" height="120" fill="#C9187C"/>
<circle cx="59.5" cy="59.5" r="39.5" fill="white"/>
<path fill-rule="evenodd" clip-rule="evenodd" d="M54.8179 34.5294C42.4192 37.0946 31.6311 48.5239 34.4533 64.1038C36.6433 76.1924 48.6346 87.3273 63.8472 84.5783C76.3306 82.3225 87.3237 70.5611 84.5743 54.8884C82.4464 42.7585 70.0102 31.3863 54.8179 34.5294Z" fill="#01A894"/>
<path fill-rule="evenodd" clip-rule="evenodd" d="M49.3271 54.7234L49.1626 67.8448L51.8319 67.8476L51.9246 64.1073C55.6042 64.0683 59.5556 63.5845 58.4071 57.3204C57.702 53.4748 52.82 52.6845 49.3271 54.7234Z" fill="#FEFEFE"/>
<path fill-rule="evenodd" clip-rule="evenodd" d="M73.8215 53.9171C67.9283 55.5108 69.6025 65.9269 76.7849 63.9385C81.9433 62.5105 80.8755 52.0095 73.8215 53.9171ZM74.4593 56.3696C71.4443 57.1848 72.3009 62.5134 75.9752 61.4962C78.6141 60.7656 78.0679 55.3936 74.4593 56.3696Z" fill="#FEFEFE"/>
<path fill-rule="evenodd" clip-rule="evenodd" d="M68.7934 62.8925L68.8658 53.8398L66.1882 53.6635L66.0849 61.2245C60.6055 61.5037 63.0183 58.5281 62.3512 53.7353L59.8917 53.6569C59.5489 56.3008 59.1654 60.9404 60.7905 62.5973C62.8589 64.7064 66.1806 64.0171 68.7934 62.8925Z" fill="#FEFEFE"/>
<path fill-rule="evenodd" clip-rule="evenodd" d="M38.6286 54.6651L38.5855 63.9392L41.2404 63.9504C41.5039 58.3467 40.3552 55.9008 43.046 56.1789C45.7828 56.4952 45.0865 61.6087 45.158 63.9711L47.5674 63.9947C49.0759 55.2828 46.5213 52.2438 38.6286 54.6651Z" fill="#FEFEFE"/>
<path fill-rule="evenodd" clip-rule="evenodd" d="M51.908 61.551C56.9929 62.6147 57.2141 55.4126 52.0498 56.3638L51.908 61.551Z" fill="#01A894"/>
</svg>
