<svg width="120" height="120" viewBox="0 0 120 120" fill="none" xmlns="http://www.w3.org/2000/svg">
<rect width="120" height="120" fill="#A82744"/>
<path d="M29.672 43.091C35.2846 36.0974 44.5137 32.7237 53.3223 33.0177C56.1183 33.0758 58.952 32.8297 61.7105 33.3903C67.0872 34.1115 72.4093 35.4172 77.4546 37.4203C77.4238 38.5859 77.4135 39.7515 77.3965 40.9205C75.8036 40.3975 74.1082 40.6539 72.464 40.5923C69.6133 40.6265 66.7283 40.3667 63.9049 40.8692C58.3094 41.1051 52.6421 42.5133 47.8771 45.535C43.2934 48.4063 40.0905 53.1268 38.4498 58.2198C37.7833 60.093 38.0499 62.1131 38.0055 64.0581C37.9097 67.008 39.7932 69.5032 41.5535 71.6909C36.8809 70.2962 32.0613 68.4436 28.7388 64.711C26.1 61.8944 24.7669 57.9635 25.0335 54.1249C24.8728 49.9445 27.1938 46.2528 29.672 43.091Z" fill="white"/>
<path d="M78.4971 55.082C82.3699 57.6662 86.1812 60.3426 90.0505 62.9301C90.6931 63.2651 90.6726 64.0547 90.676 64.6803C90.659 69.6024 90.6624 74.5246 90.676 79.4468C90.6658 80.1133 90.6316 81.0362 89.8386 81.231C75.4959 86.9462 58.7469 86.119 45.0264 79.04C42.0628 77.6625 39.3385 75.8508 36.6279 74.0426C40.5417 75.0031 44.3872 76.2576 48.3864 76.8216C52.8232 77.6898 57.3625 77.642 61.8609 77.5565C64.8347 77.5155 67.7675 76.8797 70.6045 76.0252C72.946 75.2561 75.284 74.3503 77.3213 72.942C77.4101 72.795 77.5879 72.501 77.6767 72.3575C77.981 70.1664 77.5639 67.9309 78.0596 65.7638C78.2578 62.2021 78.0562 58.6267 78.4971 55.082Z" fill="white"/>
<path d="M54.2144 55.3589C59.7279 55.188 65.2448 55.3384 70.7617 55.2769C71.7496 55.3008 72.9459 55.1949 73.6603 56.0289C74.7097 57.1842 74.2038 58.8694 74.3166 60.2777C74.1696 63.2344 74.6311 66.2458 74.0329 69.1615C68.6151 65.4049 63.1529 61.7167 57.718 57.9909C56.4943 57.1911 55.233 56.4186 54.2144 55.3589Z" fill="white"/>
</svg>
