<svg width="120" height="120" viewBox="0 0 120 120" fill="none" xmlns="http://www.w3.org/2000/svg">
<g clip-path="url(#clip0_273_832)">
<rect width="120" height="120" fill="#FF5B01"/>
<path fill-rule="evenodd" clip-rule="evenodd" d="M59.5269 77.931C52.2369 74.144 47.7218 61.3755 44.739 54.3712C44.739 54.3712 39.1411 64.3137 40.1135 67.3076C43.2565 76.9841 53.238 93.774 59.5269 100C64.4493 95.6078 76.2127 75.0009 78.8488 67.3076C79.9273 64.1601 74.8986 54.8783 74.4639 54.3712C71.8099 59.8776 64.8908 75.6528 59.5269 77.931Z" fill="white"/>
<path fill-rule="evenodd" clip-rule="evenodd" d="M59.5267 73.0592C64.7856 70.2113 71.1783 57.6023 73.9998 50.9648C75.6508 47.0809 68.2758 36.0593 68.2758 36.0593C67.1129 40.1333 62.2061 48.8597 59.5267 50.3245C56.7538 49.6329 50.6578 36.3029 50.4186 36.0593C50.4186 36.0593 45.7577 43.6155 44.9829 45.3953C43.2805 49.3047 44.014 49.962 46.9142 56.0023C49.6746 61.7519 55.3581 70.9879 59.5267 73.0592Z" fill="white"/>
<path fill-rule="evenodd" clip-rule="evenodd" d="M59.5269 46.0681C62.5368 44.5796 67.8913 34.8019 68.2413 32.6597C68.8356 29.0226 61.6228 20.0478 59.5269 19C56.3708 21.112 50.6774 29.687 50.8872 32.3649C51.1893 36.2185 57.5026 44.7372 59.5269 46.0681Z" fill="white"/>
</g>
<defs>
<clipPath id="clip0_273_832">
<rect width="120" height="120" fill="white"/>
</clipPath>
</defs>
</svg>
