<svg width="120" height="120" viewBox="0 0 120 120" fill="none" xmlns="http://www.w3.org/2000/svg">
<g clip-path="url(#clip0_273_980)">
<rect width="120" height="120" fill="#23316D"/>
<path fill-rule="evenodd" clip-rule="evenodd" d="M45.9268 72.4055L42.9696 68.8379C42.9696 68.8379 41.1432 70.6204 39.1489 71.3626C37.3398 72.0359 35.3222 71.9883 33.5625 71.3394C26.6607 68.7946 26.6761 58.2952 33.4684 55.6955C35.2279 55.022 37.1889 54.9779 39.0282 55.5923C41.35 56.3678 42.0073 57.5933 42.9696 58.1746L45.9252 54.5763C45.0124 53.0082 42.3363 51.1359 39.8316 50.4536C36.9453 49.6673 33.5468 50.09 31.0312 51.083C26.4168 52.9046 23.0198 57.0981 23.0001 63.4176C22.9668 74.0868 32.659 78.4306 39.7313 76.5894C42.138 75.9627 45.2266 73.8842 45.9268 72.4055Z" fill="white"/>
<path fill-rule="evenodd" clip-rule="evenodd" d="M63.6191 45.4442L63.6167 50.4583L59.0972 50.5087L59.0941 55.4109L63.6211 55.458C63.6232 58.702 63.6193 61.9301 63.6193 65.1579C63.6193 68.1878 63.2346 71.6611 64.6355 74.0407C65.8614 76.1229 68.2952 77.3755 71.7128 76.6704C72.4414 76.5201 72.9991 76.3183 73.5813 76.0533C74.479 75.6448 74.3825 75.6352 74.6198 74.6207C74.9333 73.2813 75.3728 71.9783 75.6294 70.6538C74.2538 71.2466 72.9819 72.2731 70.9618 72.0704C68.8171 71.8553 68.8913 70.0619 68.8927 67.912C68.8955 63.7555 68.9217 59.587 68.8887 55.4317L74.2918 55.4095L74.336 50.5052L68.9174 50.4913L68.8921 42.5079C68.2882 42.657 65.7158 44.1041 64.8273 44.5788C64.0695 44.9837 63.8561 44.9741 63.6191 45.4442Z" fill="white"/>
<path fill-rule="evenodd" clip-rule="evenodd" d="M45.5678 46.3042L50.8474 46.3056C52.5029 46.3035 52.239 45.1337 56.0328 42.7876C59.0271 40.9358 62.7337 39.679 67.0083 39.684C72.558 39.6904 78.3223 42.1843 81.7884 45.8153C82.4907 46.5511 83.4405 46.2959 84.7824 46.2958C85.978 46.2958 87.2121 46.3256 88.4028 46.2835C88.034 45.2762 85.5411 42.6582 84.7174 41.8876C76.6082 34.3008 64.4025 32.7405 54.1121 38.4138C52.6141 39.2398 50.3185 40.8128 49.359 41.7974C48.5784 42.5985 45.8539 45.2707 45.5678 46.3042Z" fill="#EF221D"/>
<path fill-rule="evenodd" clip-rule="evenodd" d="M49.0229 76.4526L54.3722 76.4493L54.408 75.7398L54.4016 51.0974L54.4089 50.4642L49.018 50.4792L49.0229 76.4526Z" fill="white"/>
<path fill-rule="evenodd" clip-rule="evenodd" d="M79.7538 76.4534L85.0809 76.4475L85.1148 75.7397L85.1088 51.0974L85.1137 50.4871L79.7487 50.4781L79.7538 76.4534Z" fill="white"/>
<path fill-rule="evenodd" clip-rule="evenodd" d="M94.2341 42.0912C95.7616 42.0912 97 43.3233 97 44.8431C97 46.363 95.7616 47.5951 94.2341 47.5951C92.7065 47.5951 91.4681 46.363 91.4681 44.8431C91.4681 43.3233 92.7065 42.0912 94.2341 42.0912ZM94.2341 42.4617C95.556 42.4617 96.6276 43.5279 96.6276 44.8431C96.6276 46.1584 95.556 47.2246 94.2341 47.2246C92.9122 47.2246 91.8406 46.1584 91.8406 44.8431C91.8406 43.5279 92.9122 42.4617 94.2341 42.4617Z" fill="white"/>
<path d="M93.0393 46.1692V43.5171H94.173C94.4577 43.5171 94.665 43.5412 94.794 43.5886C94.9237 43.6362 95.0268 43.7207 95.1043 43.8424C95.1819 43.9647 95.2209 44.1035 95.2209 44.2603C95.2209 44.4597 95.1626 44.6239 95.0453 44.7536C94.928 44.8832 94.7531 44.9648 94.5198 44.9987C94.6358 45.066 94.7314 45.1401 94.8064 45.221C94.8821 45.3018 94.9839 45.4457 95.1117 45.6518L95.4369 46.1692H94.7934L94.4075 45.5901C94.2691 45.3845 94.1742 45.2549 94.1227 45.2012C94.0718 45.1481 94.0179 45.1111 93.9608 45.0913C93.9031 45.0715 93.8124 45.0616 93.6883 45.0616H93.5792V46.1692H93.0393ZM93.5792 44.6394H93.9775C94.2356 44.6394 94.3963 44.6283 94.4608 44.6067C94.5247 44.5851 94.5757 44.5474 94.6117 44.4943C94.6482 44.4412 94.6663 44.3746 94.6663 44.2949C94.6663 44.2054 94.642 44.1337 94.5942 44.0782C94.5464 44.0232 94.4788 43.9887 94.392 43.9745C94.3479 43.9683 94.217 43.9653 93.9992 43.9653H93.5792V44.6394Z" fill="white"/>
</g>
<defs>
<clipPath id="clip0_273_980">
<rect width="120" height="120" fill="white"/>
</clipPath>
</defs>
</svg>
