<svg width="120" height="120" viewBox="0 0 120 120" fill="none" xmlns="http://www.w3.org/2000/svg">
<g clip-path="url(#clip0_850_874)">
<rect width="120" height="120" fill="#24211C"/>
<path fill-rule="evenodd" clip-rule="evenodd" d="M59.5504 98.896C38.2559 98.8922 20.9924 81.4537 21 59.9423C21.0057 38.4252 38.2768 20.9924 59.5694 21C80.8697 21.0038 98.1332 38.4442 98.1294 59.9594C98.1218 81.4746 80.8525 98.9017 59.5504 98.896ZM80.0992 37.5159C79.9851 33.9281 78.7809 32.0372 74.3923 28.0994C74.3923 28.0994 74.3352 28.828 74.4494 29.2465C74.4494 29.2465 73.0759 27.6657 69.88 26.8858C69.88 26.8858 70.2376 25.4571 70.3327 24.5992C70.3955 23.9372 69.8914 23.2447 68.7919 23.5073C67.6181 23.7755 63.4787 25.3297 62.0291 25.6911C60.5777 26.0487 51.0737 29.3626 45.3306 34.8983C45.3306 34.8983 46.5557 31.4494 49.3635 27.8883C47.2998 28.4563 45.2995 29.234 43.3941 30.2091C40.3256 34.3961 36.4791 42.6388 36.4772 49.5747C36.4772 49.5747 34.632 43.8772 36.1691 35.1228C34.1678 36.911 32.4405 38.8323 30.913 41.0238C30.5515 45.947 30.5154 52.4833 34.4836 61.6011C34.4836 61.6011 30.4811 58.683 26.823 48.8803C25.6544 52.0876 24.9746 55.4524 24.8065 58.8618C28.0614 64.8807 32.9542 70.8939 42.7834 76.2813C42.7834 76.2813 34.7138 75.0866 25.6017 68.166C26.4302 71.8619 27.8739 75.3923 29.8724 78.6097C34.8336 80.7898 42.5152 83.6071 53.5277 82.9774C53.5277 82.9774 47.5715 86.3731 35.3834 85.3648C35.3834 85.3648 37.4969 88.011 43.1011 90.7237C48.1803 93.17 54.7623 91.6406 56.9785 90.172C59.617 88.4028 62.4971 84.0732 61.1103 78.6459C61.1103 78.6459 60.0336 80.7536 57.4065 81.5678C57.4065 81.5678 59.4876 79.9242 59.4876 76.9205C59.4876 73.911 57.0375 71.8869 53.9804 71.6282C51.5455 71.4228 47.4821 71.7252 46.2209 71.7252C44.9597 71.7252 43.2476 71.7252 42.0662 70.2605C42.0662 70.2605 43.7764 70.2034 45.5855 69.8039C47.0465 69.4938 50.1054 68.3467 51.9088 68.4361C51.9088 68.4361 51.2734 67.5991 49.8239 67.62C48.9336 67.6277 48.7415 67.9206 48.1118 68.0899C47.2748 68.2954 45.751 68.3619 44.8722 66.6594C44.8722 66.6594 46.1353 67.6486 47.2082 67.3442C48.1232 67.0969 48.2069 66.7088 48.5588 66.4387C48.9336 66.1572 49.5956 65.9251 50.2215 65.9251C50.853 65.9251 51.458 66.0678 51.9982 66.5338C52.5461 66.979 53.6247 66.8953 52.9874 66.2504C52.3597 65.6207 51.458 64.9872 50.1092 64.9758C47.8074 64.9473 43.7003 65.4324 42.2527 66.1686C41.2482 66.6727 40.4702 67.3271 40.0992 67.7855C39.9718 67.9491 39.696 67.9568 39.7074 67.6676C39.7778 66.2466 40.358 62.4248 42.1233 60.7926C43.9686 59.0844 48.7624 57.8631 50.6476 57.5054C50.6476 57.5054 50.1758 56.3945 50.7237 55.6792C51.5512 54.6443 54.2296 52.7059 70.1121 52.7097C70.1121 52.7097 69.2446 53.4002 68.8737 53.9519C68.8737 53.9519 75.0695 54.2962 78.5374 56.0521C79.0739 56.3165 80.1658 56.4135 80.5196 53.9557L79.5304 53.3165C79.5304 53.3165 79.6198 52.9475 79.7131 52.4985C79.8082 52.0382 79.7131 51.945 79.3535 52.1295C78.9978 52.314 78.9008 52.4966 78.9008 52.4966C78.9008 52.4966 78.0029 52.8581 77.9059 52.3178C77.8145 51.768 76.8177 50.3965 74.8393 50.1244C74.8393 50.1244 75.838 48.7548 78.1151 49.0725C78.1151 49.0725 78.3015 49.7364 78.7771 49.548C79.266 49.3635 79.9223 48.9393 79.9813 49.491C80.0498 50.0426 80.2799 50.9405 81.5431 49.548C81.5431 49.548 82.8157 50.2177 83.9552 49.7915C85.0966 49.3635 85.9146 48.6311 86.1771 46.7554C86.2475 46.335 86.2475 46.2038 86.55 45.8461C86.8429 45.4828 87.0788 44.9635 86.5367 44.5107C85.8214 43.902 83.5938 42.6312 82.6902 42.1366C81.7866 41.6477 80.2267 41.1075 80.0992 37.514V37.5159ZM58.9797 43.8316C59.5923 43.59 59.7654 44.1303 59.6493 44.505C59.071 46.2418 58.2607 48.8176 58.565 49.9761C58.858 51.1213 61.6848 51.7909 61.6848 51.7909C61.1522 51.8479 58.0932 51.9963 57.3494 52.1618C56.6171 52.3273 55.4319 52.4567 55.6754 51.009C55.9646 49.2456 56.8701 46.082 56.8701 46.082C56.0349 46.3255 54.2886 47.1663 53.6875 47.5392C53.0826 47.9063 52.9132 47.8322 53.0825 47.4155C55.5289 41.6839 60.6728 35.5679 63.7945 33.015L63.8554 33.1995C59.7654 37.9363 57.1117 44.505 57.1117 44.505C57.5454 44.2501 58.3862 44.0694 58.9797 43.8335V43.8316ZM68.0005 26.2352C67.2681 27.1102 66.3398 28.6397 66.2123 29.1838C66.0887 29.7069 66.1477 29.8496 66.4787 29.9808C66.8116 30.1197 66.8116 30.4564 66.3379 30.5154C65.473 30.6402 64.6211 30.8427 63.7926 31.1203C62.9632 31.4171 62.8395 30.913 63.0298 30.582C64.622 27.9187 66.9352 26.5034 67.4755 26.1686C68.0005 25.8357 68.185 26.0012 68.0005 26.2333V26.2352ZM78.3111 39.0454C78.1855 39.8481 77.7822 39.9071 77.1811 39.5818C76.5952 39.2394 76.3897 39.11 76.0625 39.0454C75.7277 38.9807 75.3986 39.1081 75.6668 39.5818C75.9332 40.0536 76.3897 41.3852 76.19 42.3211C76.19 42.3211 74.7157 39.4563 72.9522 38.0409C71.8698 37.1621 73.9072 37.3942 74.3428 37.4379C75.7315 37.5806 75.8723 37.767 76.3212 37.9154C76.7645 38.0295 77.7194 38.273 78.0599 35.6326C78.0885 35.5052 78.2388 35.5451 78.2502 35.6516C78.3967 36.9205 78.429 38.3529 78.313 39.0454H78.3111ZM74.3466 74.4532C73.4601 73.3688 72.1514 71.8432 72.1514 71.8432C73.424 72.5851 75.8171 72.9484 75.8171 72.9484C75.1703 72.3948 73.6656 70.5724 73.0531 69.8477C71.3828 67.8122 68.4818 65.5427 66.3151 64.5592C62.0748 62.6189 57.6557 62.3563 57.0508 62.2422C56.4477 62.1319 55.1865 62.3563 55.9741 61.1541C56.754 59.9423 61.3253 56.3545 61.3253 56.3545C60.3646 56.3526 56.1491 56.7084 54.8878 56.8967C53.6266 57.0717 53.326 56.6551 53.2709 55.7934C53.2709 55.7934 50.718 58.2207 51.9316 59.4458C52.1219 59.6303 52.664 59.6931 53.3222 59.3868C53.9823 59.0882 55.3178 58.6487 55.7914 58.6069C55.7914 58.6069 54.7109 60.2999 54.4674 61.0285C54.2277 61.7666 54.1669 62.1319 55.3045 62.4838C56.4458 62.849 62.2232 64.6753 65.7786 67.1083C69.3226 69.5433 72.9922 72.6441 75.703 78.3453C78.4081 84.0675 76.9281 88.4085 76.4962 89.2018C78.4287 87.9558 80.2265 86.5124 81.8608 84.895L81.8265 84.9197C80.4131 80.1392 76.5096 77.0898 74.3466 74.4532ZM87.115 78.2121C88.1559 76.5015 89.036 74.6979 89.744 72.8248V72.8115C86.2627 69.9542 80.1639 64.8636 72.6916 63.1039C72.6916 63.1039 83.3313 67.3994 87.115 78.2121ZM62.2898 94.3304C64.5108 94.0551 66.7012 93.5717 68.8318 92.8866L68.8546 92.8695C69.9998 90.1967 71.2516 83.8221 69.9218 78.897C69.9218 78.897 70.1729 90.5011 62.2898 94.3304ZM87.6191 56.2385C85.6407 56.7807 82.6293 57.026 80.0916 56.6627C80.0916 56.6627 85.9431 59.2061 91.7452 64.7799V64.7266C91.9126 63.3741 91.9963 62.0025 91.983 60.61C91.9977 60.4601 91.9977 60.3091 91.983 60.1592C90.9652 59.7368 84.6686 57.9335 84.6686 57.9335C86.7878 57.8155 87.6191 56.2404 87.6191 56.2404V56.2385Z" fill="white"/>
</g>
<defs>
<clipPath id="clip0_850_874">
<rect width="120" height="120" fill="white"/>
</clipPath>
</defs>
</svg>
