<svg width="120" height="120" viewBox="0 0 120 120" fill="none" xmlns="http://www.w3.org/2000/svg">
<rect width="120" height="120" fill="#A4C45C"/>
<path fill-rule="evenodd" clip-rule="evenodd" d="M88.8006 39.1097L88.7213 31.5425L31.2627 31.5312L31.1587 88.4327L88.7361 88.4687C88.9647 81.838 88.752 73.113 88.7519 66.1063C88.7519 42.712 70.5501 46.5143 46.6099 46.2107C46.4313 47.68 46.3591 63.8202 46.5517 66.3314C46.7366 68.7427 48.9652 72.5795 51.6329 72.9951C53.6061 72.991 72.5921 73.078 73.9508 73.0356L73.9434 65.3869L54.13 65.3612L54.1085 54.5232C83.0769 54.5232 80.9699 53.1884 80.9844 80.6329L39.472 80.7792L39.3739 39.7767L88.5564 39.7742C88.8412 39.4263 88.6861 40.0924 88.8009 39.1098L88.8006 39.1097Z" fill="#FEFEFE"/>
</svg>
