<svg width="120" height="120" viewBox="0 0 120 120" fill="none" xmlns="http://www.w3.org/2000/svg">
<g clip-path="url(#clip0_273_510)">
<path fill-rule="evenodd" clip-rule="evenodd" d="M0 120H120V0H0V120Z" fill="#5A2A88"/>
<path fill-rule="evenodd" clip-rule="evenodd" d="M45.7368 28.0829C45.5871 37.007 45.7463 45.0625 43.6847 53.45C42.0261 60.1976 38.0948 68.1454 33.8509 71.0939C29.2606 63.4639 32.0274 48.5555 38.7154 41.5394C41.9183 38.1794 41.212 39.1354 41.2108 30.8046C32.8592 34.5402 25.8684 47.3312 25.0896 58.0903C24.6025 64.8196 26.1478 71.0339 28.6106 76.2571C30.3891 80.0288 32.6346 82.8457 35.352 85.7138C36.5843 87.0143 36.7887 87.4969 38.5027 88.2393C44.1083 82.3481 47.8038 71.864 49.7201 61.6216C51.8298 50.3472 52.0974 38.1221 52.0612 26.1799C49.5907 26.359 47.7799 27.3884 45.7368 28.0829Z" fill="#FDFDFB"/>
<path fill-rule="evenodd" clip-rule="evenodd" d="M81.3446 88.343C84.8217 86.5223 88.9325 81.2448 91.1321 76.7145C96.7862 65.0694 96.1813 52.9093 89.7122 41.7259C87.6727 38.2003 82.361 32.3669 78.735 30.6722C78.7867 32.7947 78.736 34.9836 78.8071 37.0887C78.9358 40.9057 82.2883 40.7082 86.0687 49.283C89.06 56.0677 88.7475 64.8333 86.2146 71.2927C82.1908 68.272 78.2039 60.8819 76.4115 53.9118C74.2396 45.4656 74.5419 37.2145 74.2711 28.2328C72.3869 27.3076 70.4278 26.4518 67.9782 26.0852C68.0508 38.732 68.2475 49.6211 70.3208 61.8402C72.3448 73.7689 75.7164 80.3417 81.3446 88.343Z" fill="#FDFDFB"/>
<path fill-rule="evenodd" clip-rule="evenodd" d="M55.1138 71.2476C54.2638 79.3057 52.2438 87.2084 51.1718 94.9975C58.5022 96.3326 61.361 96.3317 68.7133 95.0096C68.3656 90.6982 65.7916 79.6365 64.917 71.2476C63.1436 54.2368 63.3245 37.2159 63.2247 20.234L56.8842 20C56.5997 37.3976 56.9468 53.8676 55.1138 71.2476Z" fill="#FDFDFB"/>
</g>
<defs>
<clipPath id="clip0_273_510">
<rect width="120" height="120" fill="white"/>
</clipPath>
</defs>
</svg>
