<svg width="120" height="120" viewBox="0 0 120 120" fill="none" xmlns="http://www.w3.org/2000/svg">
<rect width="120" height="120" fill="#285E60"/>
<path fill-rule="evenodd" clip-rule="evenodd" d="M32.413 73.1059C33.4451 70.3579 38.9435 64.6196 38.9435 64.6196L36.4089 65.6155C39.6948 61.4616 42.2198 60.8189 43.6826 59.1927C39.7613 59.7911 36.7453 62.1083 33.7434 63.3489C35.7997 59.9047 39.606 56.185 42.9594 54.0554C46.2622 51.9582 49.8612 50.3508 53.7074 49.4624C55.6662 49.0101 61.715 48.7664 62.7297 48.2454C48.7609 41.4166 42.6984 42.6415 28.9959 47.0029C30.0987 43.7917 31.7984 41.305 33.5517 39.0773C48.806 16.6026 101.567 24.3312 90.6149 72.0052C87.4908 80.0812 81.5127 87.2208 73.1929 89.8825C65.9386 90.4686 60.9668 88.2913 58.0764 83.8287C54.1312 77.7373 54.7736 73.8783 57.4141 67.2176C65.3706 56.5611 73.9026 60.0755 83.2057 62.1824C83.2057 62.1824 73.9508 54.1707 64.6191 52.7362C58.4978 51.8142 52.0997 52.6858 46.451 55.0357C45.0645 55.6124 42.9021 56.482 41.9121 57.597C45.5497 56.5497 53.2411 56.1036 53.2411 56.1036L42.2899 64.5293C42.0342 64.9971 42.6312 65.5761 42.8384 66.0508C38.6739 68.5658 36.2346 70.0562 32.413 73.1059ZM22.3814 54.5051C19.2567 76.2562 35.6812 97.5894 58.8034 98C92.8525 97.3752 106.82 67.2119 92.3047 41.1845C74.7626 9.7295 27.4951 18.9058 22.3814 54.5051Z" fill="white"/>
</svg>
