<svg width="120" height="120" viewBox="0 0 120 120" fill="none" xmlns="http://www.w3.org/2000/svg">
<g clip-path="url(#clip0_273_550)">
<rect width="120" height="120" fill="#013B5A"/>
<path fill-rule="evenodd" clip-rule="evenodd" d="M60.067 79.7487V61.2797H88.6371V58.5995H39.7777C39.9003 56.1099 40.3976 53.9544 41.1498 52.0862C48.4502 55.2391 57.3186 55.3365 57.3186 55.3365V52.2016C53.1302 52.4042 47.3274 51.497 42.5577 49.3291C47.5558 41.4216 57.4732 40.2396 57.4732 40.2396V37.2409C57.4732 37.2409 57.4179 37.2485 57.3185 37.2647V37.2409C57.3185 37.2409 44.8323 38.2966 35.6288 43.9871L35.6277 43.9856L35.5985 44.0059C34.7873 44.5087 34.0038 45.0493 33.2548 45.6267L33.1824 45.6769L33.1846 45.6805C29.2077 48.7684 26.2738 52.95 26.0201 58.5995H26V61.2796H26.1051C27.9406 78.0422 54.0893 82.4598 57.3892 82.9513V83H60.067C83.2921 83 92.6227 68.9202 92.6227 68.9202H68.0459L68.1423 71.739C68.1423 71.739 85.0123 71.5334 84.6637 71.8682C76.1961 80.0005 60.067 79.7487 60.067 79.7487ZM57.3892 64.7012C55.5027 64.767 47.715 65.2082 41.3749 68.07C40.5212 66.1356 39.945 63.8895 39.7882 61.2797H57.3892V64.7012ZM39.7296 68.8889C38.1433 69.7592 36.7028 70.8101 35.5414 72.0784C32.0985 69.4491 29.5185 65.943 29.071 61.2797H37.9302C38.1281 64.1687 38.7785 66.6905 39.7296 68.8889ZM38.1137 73.8016C38.993 72.979 40.0166 72.2436 41.1387 71.593C42.5726 73.9193 44.3501 75.8001 46.2038 77.3115C43.5124 76.4581 40.6831 75.3173 38.1137 73.8016ZM42.8246 70.7109C47.4403 68.5314 53.1646 67.5758 57.3891 67.6981V79.6528C55.6198 79.3383 47.393 77.5416 42.8246 70.7109ZM39.2487 51.1719C37.6412 50.31 36.1684 49.2693 34.9583 48.0145C31.7548 50.6091 29.4064 54.0488 29.0491 58.5995H37.8776C37.9569 55.7715 38.457 53.3114 39.2487 51.1719ZM37.5749 46.1798C38.459 46.9726 39.4718 47.6833 40.5721 48.3146C41.8705 46.0173 43.5268 44.1838 45.2928 42.7242C42.698 43.5714 40.0059 44.6955 37.5749 46.1798Z" fill="white"/>
<path fill-rule="evenodd" clip-rule="evenodd" d="M57.3183 58.5995V30C68.9327 43.4968 85.1038 36.2627 92.1566 52.7801C94.9567 59.3379 93.7345 66.2692 93.7345 66.2692H65.5058V77.6377L62.6634 77.9519V63.7901H90.6959C90.6959 63.7901 91.4529 59.2082 89.4234 54.4798C87.3381 49.6215 83.2096 44.7778 76.721 43.292C65.5306 40.7296 64.5331 41.5138 60.175 38.4905V58.5995H57.3183Z" fill="white"/>
</g>
<defs>
<clipPath id="clip0_273_550">
<rect width="120" height="120" fill="white"/>
</clipPath>
</defs>
</svg>
