<svg width="120" height="120" viewBox="0 0 120 120" fill="none" xmlns="http://www.w3.org/2000/svg">
<rect width="120" height="120" fill="#004785"/>
<path fill-rule="evenodd" clip-rule="evenodd" d="M61.6516 35.6516L61.6424 26.0806C65.2703 25.5647 72.3572 28.0653 75.1265 29.4395C80.5989 32.1554 85.1984 36.4752 88.5587 41.4449C97.8481 55.1839 95.2851 73.2762 83.9216 84.5987C62.7446 105.699 26.6067 90.8001 26.0066 60.7789C25.7366 47.2754 33.7699 34.844 45.1633 29.2905C48.0157 27.9001 54.8175 25.5485 58.5666 26.0757L58.4966 35.6543C52.0633 36.7279 49.0277 37.469 44.8815 40.9981C37.1002 47.6211 33.2007 57.8271 36.8641 68.4149C38.2181 72.3282 41.5352 77.2765 44.7308 79.1803C45.459 77.9001 53.7886 55.7344 53.8526 54.8692C45.7124 54.8691 45.6589 55.0064 45.4699 55.4912C45.378 55.7271 45.2539 56.0453 44.1502 56.47C44.0979 51.3115 44.8656 43.8133 51.4481 43.3928C55.6345 43.1255 60.4414 43.213 65.0851 43.2974C67.3763 43.3391 69.6277 43.3801 71.7453 43.3773C70.5528 45.2233 69.7305 45.6288 69.3647 46.2877C68.7377 47.417 69.4518 49.2909 71.942 60.4388C72.5163 63.0097 73.0656 65.5789 73.6135 68.1418C74.3742 71.7002 75.1324 75.2465 75.9514 78.7685C77.3403 77.9693 79.291 75.5115 80.4055 73.8838C87.5135 63.5038 84.9576 48.5793 75.0566 40.7852C70.464 37.17 67.6873 36.6918 62.6917 35.8316C62.3555 35.7737 62.0092 35.7141 61.6516 35.6516ZM55.1167 47.1539C55.1167 47.8655 54.5399 48.4423 53.8284 48.4423C53.1169 48.4423 52.54 47.8655 52.54 47.1539C52.54 46.4424 53.1169 45.8656 53.8284 45.8656C54.5399 45.8656 55.1167 46.4424 55.1167 47.1539Z" fill="white"/>
</svg>
