<svg width="120" height="120" viewBox="0 0 120 120" fill="none" xmlns="http://www.w3.org/2000/svg">
<rect width="120" height="120" fill="#28BF53"/>
<path d="M48.4361 45.2653C51.9805 44.4047 55.8507 46.8856 56.7928 50.5018C57.1225 55.9685 56.8006 61.4554 56.9262 66.9302C56.9576 67.9807 57.7034 69.1929 58.8025 69.1969C62.131 67.3989 65.0592 64.8979 68.2189 62.817C69.7105 61.9039 68.6984 59.4076 66.4879 60.2231C62.8107 61.0238 60.0271 62.8696 58.143 59.5564C57.0401 55.3584 62.0682 55.2695 64.647 54.6634C69.6797 53.4807 75.1547 57.0998 74.4796 62.3605C74.2794 66.4009 70.4759 68.3403 67.6145 70.2595C64.176 72.5949 60.1292 76.7606 55.7448 74.1828C48.5146 70.3444 51.9107 60.2157 51.4277 53.549C51.4277 52.2879 50.7592 51.0758 49.2015 51.2977C41.6495 56.1099 34.4468 61.4635 26.9851 66.413C26.0046 67.2376 26.1993 69.6619 29.0536 68.9141C34.9061 67.8797 40.7546 66.7767 46.5599 65.4958C48.0828 65.0312 50.2024 65.7706 50.4379 67.5848C51.0267 69.0393 49.6333 70.6514 48.334 71.0393C41.6495 72.4252 34.9178 73.5727 28.2215 74.9141C23.3739 75.1404 19.9002 69.6656 21.3211 65.0191C23.1502 60.8493 27.6759 59.4554 30.9377 56.7483C36.8922 53.1887 42.1244 48.0856 48.4361 45.2653Z" fill="#ECF9F0"/>
<path d="M78.1416 45.1357C80.0885 44.4569 81.742 46.4331 81.5329 48.6509C81.6036 54.8489 81.4937 61.047 81.5447 67.245C81.4466 68.247 82.581 69.0147 83.4209 69.1036C86.9143 67.2127 92.7325 63.4033 93.2574 62.2833C93.7823 61.1634 93.2574 59.7669 91.1064 60.1419C88.2186 60.777 84.6691 62.6995 82.7654 59.4672C81.5879 55.152 86.5846 55.0186 89.2459 54.5419C92.9288 53.8821 97.3082 54.8368 98.4347 58.748C100.236 62.8571 97.4427 66.4337 94.1249 68.8895C90.3774 71.4842 86.8358 75.4431 82.0589 74.7926C78.3928 74.1865 75.9514 70.5178 76.0691 66.8369C76.0063 60.6389 76.0652 54.4408 76.0377 48.2428C75.9514 46.865 76.8816 45.564 78.1416 45.1357Z" fill="#ECF9F0"/>
</svg>
