<svg width="120" height="120" viewBox="0 0 120 120" fill="none" xmlns="http://www.w3.org/2000/svg">
<rect width="120" height="120" fill="#2B995C"/>
<path fill-rule="evenodd" clip-rule="evenodd" d="M56.1018 26.1566C50.625 26.7828 47.2141 27.84 42.9694 30.0498C39.824 31.6873 35.6065 34.9579 33.4739 37.6165C32.8353 38.4127 32.2534 39.0727 31.6369 39.8998C30.9705 40.7935 30.5051 41.5165 29.9277 42.4474C21.1556 56.5888 24.5433 74.8002 36.5369 85.5073C42.072 90.4487 51.3419 94.8263 61.971 93.867C67.17 93.3977 71.1117 91.9637 75.0423 89.9602C77.0335 88.9452 78.5824 87.7507 80.1796 86.5644C84.7633 83.16 88.9232 77.0433 90.8687 71.8374C95.4396 59.6065 92.4954 45.8767 83.5981 36.62C80.0028 32.8795 76.3942 30.2815 70.8581 28.1496C66.8225 26.5955 60.9858 25.5982 56.1018 26.1566ZM77.2036 84.6832C77.007 83.8503 72.3654 77.4369 71.5542 76.0682C72.0108 75.3782 74.1795 73.6126 75.0301 72.8516C75.5227 72.4108 75.7181 72.113 76.2356 71.7581L81.9668 80.2131L82.5759 79.6346C82.8644 79.2944 82.9109 79.2474 83.1227 78.9398C82.9742 78.3888 80.9019 75.4738 80.4263 74.7614C79.9274 74.0141 77.8351 71.0966 77.68 70.4129C78.5434 69.8827 79.1298 69.182 79.9275 68.402C80.2353 68.1009 81.9981 66.4682 82.287 66.3142L83.4591 67.9322C84.1645 69.0021 86.2701 72.3485 86.8413 72.8961C87.0009 72.5817 87.3068 71.975 87.4422 71.5822C87.7191 70.7783 87.4157 70.7315 87.0242 70.1479L82.287 62.9906L76.7583 67.8644C71.6414 72.3248 65.015 79.2552 59.6625 82.1283C47.0522 88.8974 37.3801 81.9613 33.8978 71.4367C31.981 65.6438 32.5162 58.975 34.9744 53.8636C37.0305 49.5885 41.0218 45.7763 46.3708 44.3648C53.2432 42.5516 58.4859 46.1848 61.2366 49.5819C61.598 50.0282 69.1005 60.7935 69.7363 62.1197C69.4679 62.5917 69.0061 62.8145 68.5956 63.2058C67.8336 63.9319 65.6008 66.0878 64.9731 66.377C64.714 65.733 63.7349 64.4356 63.255 63.7218L54.0948 50.2214C52.7062 48.7448 50.3868 47.1179 47.5329 48.3737C36.2033 53.3594 39.033 87.9488 54.2719 78.8456C55.2708 78.2488 56.1161 77.6447 56.9719 77.0021L61.8378 72.7896C63.1711 71.5875 65.2562 69.4926 66.558 68.4359L70.1217 65.2595C70.6231 64.7991 70.8415 64.5433 71.3386 64.14L74.8958 60.958C75.4153 60.458 75.6066 60.2698 76.1193 59.8442C76.543 59.4924 76.8321 59.1305 77.2555 58.7824L83.2548 53.4233C83.6415 53.7206 89.1271 61.8511 89.4411 62.576C89.9798 61.767 89.6099 57.4459 89.5161 56.6214C89.2958 54.6828 88.9327 52.929 88.3922 51.148C86.4528 44.7577 82.6445 39.4893 77.5762 35.6021C68.4778 28.6241 57.3257 27.6039 46.7432 31.8654C44.0854 32.9357 40.2594 35.4662 38.6797 37.0229C35.929 39.7331 34.8037 40.8133 32.6993 44.2303C24.127 58.1494 29.1224 74.4856 38.3309 82.6411C46.4876 89.8651 57.7048 92.847 68.486 89.191C71.4974 88.1699 75.1002 86.473 77.2036 84.6832ZM47.6186 34.3359C54.0981 34.2516 55.7048 37.8057 58.5611 42.1094L69.8276 58.9928C70.193 59.543 70.7996 60.3412 71.0565 60.9147C71.4483 60.7538 75.1334 57.4855 75.7834 56.7868C75.674 56.2085 65.7159 41.4761 65.1082 40.5542C63.1033 37.5125 61.9396 34.9761 58.671 33.5272C56.9232 32.7526 54.7683 32.5034 52.7179 32.7257C51.2347 32.8866 48.4335 33.5721 47.6186 34.3359ZM59.1414 32.1279C59.7286 32.6151 61.0453 32.5867 62.4573 34.0159C64.024 35.6017 76.2768 54.5397 77.1736 55.4246C77.6527 55.2443 77.4 55.3268 77.7954 54.9416C78.5075 54.2479 81.4732 51.7818 81.8071 51.3169C81.4897 50.5766 80.303 49.0053 79.7647 48.2037C79.0251 47.1021 78.3928 46.1662 77.6652 45.0847C76.2456 42.9748 74.844 40.8962 73.411 38.7642C71.8809 36.4879 70.5906 35.0258 68.0667 33.6552C66.4222 32.7622 61.3742 31.2816 59.1414 32.1279Z" fill="white"/>
</svg>
