<svg width="120" height="120" viewBox="0 0 120 120" fill="none" xmlns="http://www.w3.org/2000/svg">
<rect width="120" height="120" fill="#FFDD2D"/>
<path fill-rule="evenodd" clip-rule="evenodd" d="M66.2695 67.0535H48.7436V56.9866C48.7436 56.0115 48.4567 55.0313 48.1174 54.1256H56.0159C56.7671 54.8682 57.5019 55.3312 58.2019 55.5852C58.1117 55.9432 57.9907 56.6826 58.3279 57.4211C58.6036 58.0157 59.1017 58.4737 59.8242 58.7796C59.901 59.514 60.3704 60.6196 61.6607 61.1082C61.0939 61.6763 60.5446 62.2118 60.3222 62.427L55.0792 62.3444C54.9603 62.2852 54.7574 62.1516 54.6672 61.9639C54.6617 61.9496 54.6544 61.9389 54.6469 61.9279C54.6405 61.9185 54.6339 61.9088 54.6282 61.8966L55.484 62.0343C55.5024 62.0363 55.5209 62.0363 55.5393 62.0363C55.7043 62.0363 55.8488 61.9231 55.8755 61.7548C55.9031 61.5651 55.7771 61.3917 55.5926 61.3642L54.5391 61.199L55.7074 57.1845L54.6006 54.8682L52.8286 56.7326L52.721 60.9062L51.5302 60.7186C51.3457 60.6829 51.1704 60.8155 51.1376 61.0011C51.11 61.1847 51.235 61.3591 51.4215 61.3917L51.9216 61.4672C51.7433 61.5682 51.6255 61.6488 51.6111 61.66L51.5097 61.7303L51.482 61.8548C51.192 63.0257 51.8468 64.1374 52.556 64.6341L52.5294 64.782C52.5007 64.9615 52.5427 65.137 52.6513 65.285C52.7548 65.435 52.9106 65.5245 53.09 65.556C53.1258 65.5635 53.1648 65.5665 53.2006 65.5665C53.506 65.5665 53.7745 65.355 53.8483 65.045C54.1127 65.078 54.3546 65.083 54.5196 65.083H54.658L61.5367 66.321L61.6545 66.2435C62.2008 65.863 64.2914 64.3485 64.976 63.8447C65.1635 64.0069 65.3745 64.1517 65.63 64.2731C65.4065 65.0135 65.393 66.153 66.2695 67.0535ZM48.7436 67.7325H71.2755L71.28 76.1675C71.28 78.9635 69.631 80.9155 67.031 81.552L67.4665 79.295L67.472 79.263C67.4945 79.137 67.519 78.996 67.537 78.8765C67.66 78.9275 67.7905 78.9705 67.9295 78.996C68.0925 79.0265 68.242 79.042 68.3795 79.042C69.0435 79.042 69.431 78.694 69.6885 78.397L70.0225 78.0095L69.7495 77.5855C69.725 77.5435 69.1195 76.593 68.656 75.942C68.565 75.8145 68.478 75.686 68.39 75.5495C67.861 74.762 67.199 73.777 65.874 73.777L65.754 73.779C65.5365 73.793 65.349 73.835 65.1965 73.893C64.7803 73.7005 64.3488 73.5985 63.903 73.5985C63.3547 73.5985 62.8925 73.7485 62.5851 73.8535C62.5579 73.861 62.5316 73.8695 62.5064 73.877C62.4498 73.8945 62.3987 73.9105 62.3555 73.9175L59.8774 73.675C59.8467 73.67 59.7442 73.6105 59.6212 73.465V73.4525L60.1572 73.2385C60.0066 71.4605 58.292 70.367 57.3348 69.997C57.2928 69.8185 57.2067 69.641 57.0571 69.496L56.5242 68.9935L56.0558 69.551L55.8252 69.837L52.3531 68.417L54.6129 71.2395L53.7223 72.5825C53.3953 72.9285 53.7551 73.273 53.7551 73.273L54.6764 73.9055L55.6305 73.5505C55.6539 73.5505 55.6748 73.554 55.696 73.5575C55.7055 73.559 55.715 73.5605 55.7248 73.5615C55.6984 73.642 55.6681 73.855 55.6398 74.055C55.6175 74.2115 55.5964 74.36 55.5793 74.4295L53.9221 74.1055L52.1819 75.0835C51.2872 75.738 51.1653 76.8195 51.4973 77.56L51.69 77.98L51.9636 78.5735L52.5744 78.323C52.5826 78.322 52.5908 78.3175 52.5949 78.3135C52.3767 79.009 52.4658 79.671 52.8553 80.1045L53.2262 80.5665L53.7182 81.1845L54.2583 80.6085C54.4161 80.4515 54.9326 79.876 55.0914 79.3855L55.2073 79.009L54.9449 78.7195L54.8998 78.6685L55.198 78.181L57.3604 78.688L57.8462 78.8L58.1045 78.375L58.2459 78.1435C58.2726 78.0935 58.2787 78.086 58.3791 78.086C58.455 78.086 58.5318 78.0935 58.6148 78.1125C59.4316 78.2655 60.1839 78.342 60.851 78.342C61.4998 78.342 61.8872 78.3175 62.3473 78.1655C62.3473 78.1655 63.5085 79.4785 63.5484 79.5265L62.8382 81.712L62.8054 81.8425C61.4598 81.9515 60.8039 82.2455 60.0117 83.033C58.8618 81.8975 58.045 81.7775 54.9531 81.7775C51.2514 81.7775 48.7436 79.617 48.7436 76.1675V67.7325Z" fill="#FFDD2D"/>
<path d="M50.3498 30.5837C53.7106 28.8809 57.4699 27.7677 61.2693 28.0413C63.7551 28.27 66.1938 28.954 68.4414 30.0459C69.281 30.4823 70.2597 30.8054 70.8658 31.5719C70.9413 32.1285 70.9012 32.7063 70.9319 33.2723C73.4059 33.8029 76.0379 33.8525 78.3586 34.9704C80.21 35.9208 81.9481 37.1802 83.2406 38.8264C83.9174 39.6566 84.3608 40.6589 85.0754 41.4584C85.7971 42.0056 86.724 42.173 87.5541 42.5032C89.2145 43.0268 90.7074 43.9324 92.2734 44.6683C93.1342 45.1093 94.0304 45.5338 94.7474 46.1942C95.4172 46.8781 95.5422 47.8899 95.6601 48.7979C95.8889 51.5879 96.2568 54.5242 95.1601 57.1892C94.7474 58.6137 93.8229 59.7835 92.9526 60.9533C93.6601 62.1749 94.5469 63.2787 95.3511 64.4367C95.8134 65.0192 95.8676 65.8848 95.4573 66.5098C94.2379 68.4861 92.33 70.0474 90.1178 70.7691C89.4739 71.0073 88.7758 71.1347 88.1933 71.512C87.7405 71.8257 87.8914 72.4601 87.8537 72.9341C87.8324 74.1888 88.7192 75.1676 89.1909 76.2643C89.5494 77.0543 89.3135 78.0119 88.7192 78.6227C86.2994 81.2523 82.8868 82.6674 79.5071 83.5966C78.0355 84.1202 76.4742 84.2405 74.9365 84.4221C75.0072 85.2405 75.1582 86.0565 75.144 86.8819C75.1983 87.4267 74.6252 87.7027 74.2455 87.9645C72.229 89.0894 69.9861 89.771 67.7267 90.2026C65.9414 90.5847 64.1419 90.9974 62.3071 90.9974C58.9675 90.9951 55.5737 91.0941 52.3096 90.2663C50.2908 89.8394 48.3097 89.2168 46.4135 88.3961C45.8216 88.0965 45.0975 87.8348 44.8004 87.1909C44.6777 86.2711 44.9183 85.3513 44.9702 84.4339C41.7745 84.1344 38.5906 83.3301 35.7227 81.8679C33.5907 80.8538 31.4351 79.3986 30.4092 77.2029C30.8148 75.5308 32.2346 74.1346 32.0294 72.3162C32.0507 71.4908 31.1285 71.2337 30.5059 71.0073C28.3809 70.3422 26.3126 69.2031 24.9659 67.3847C24.5414 66.7197 23.9895 65.9272 24.2537 65.0994C24.9093 63.5994 26.289 62.5169 26.8362 60.9651C26.3527 60.017 25.539 59.2717 25.1286 58.2788C24.4636 56.6538 23.9801 54.9251 24.0013 53.1563C23.9919 51.1705 24.0202 49.1446 24.539 47.2177C24.8527 46.0432 26.072 45.5645 27.0154 44.9961C29.2819 43.6471 31.7299 42.6376 34.2275 41.8004C35.1874 41.5457 35.4562 40.4868 35.9609 39.758C36.7935 38.3547 38.1048 37.3335 39.409 36.3949C40.5929 35.5647 41.7957 34.6803 43.2202 34.3194C45.1117 33.8312 47.0715 33.685 48.9772 33.2581C48.9772 32.6992 48.9276 32.1355 49.0267 31.5837C49.3522 31.1238 49.8687 30.8549 50.3498 30.5837ZM59.1397 30.7275C57.5807 31.2275 56.0218 31.7369 54.4346 32.1473C53.7011 32.3926 52.8592 32.4964 52.3026 33.0883C52.6705 36.8477 53.0313 40.6118 53.4771 44.364C54.7978 44.2886 56.0949 44.0103 57.4039 43.8357C59.2199 43.7697 61.0453 43.732 62.8589 43.8688C64.0358 44.0669 65.2127 44.3051 66.4107 44.3475C66.7079 43.1589 66.5805 41.923 66.8565 40.7344C67.0782 38.1425 67.3565 35.5623 67.6371 32.9775C66.8211 32.5718 65.9556 32.2794 65.0782 32.0435C63.5452 31.6827 62.0736 31.112 60.5689 30.6591C60.0996 30.5389 59.5972 30.5742 59.1397 30.7275ZM44.3593 37.1118C42.6801 37.6047 41.1566 38.5245 39.7934 39.6071C38.3477 40.9254 36.6968 42.449 36.6496 44.5551C34.0978 44.4536 31.7606 45.6164 29.5601 46.7649C28.6168 47.2767 27.322 47.6753 27.1144 48.8899C26.9659 50.0691 27.0295 51.2625 27.013 52.4488C26.9541 55.1893 27.8125 58.1019 29.9351 59.9486C29.9587 62.1891 28.6687 64.1395 27.3975 65.8777C28.3149 66.9862 29.5342 67.88 30.9516 68.2031C31.803 68.4107 32.6851 68.3022 33.5506 68.3234C33.9162 69.4602 34.3879 70.5757 34.5317 71.7691C34.7181 73.1299 34.2888 74.486 33.7252 75.7077C33.5341 76.1534 33.2346 76.6015 33.3384 77.1109C35.7015 78.8232 38.5269 79.6911 41.317 80.4363C43.3263 80.8844 45.3617 81.4174 47.4371 81.3679C47.0315 80.033 46.4772 78.75 46.0032 77.4388C44.7485 74.1016 44.0056 70.5946 43.541 67.0687C43.4089 65.3353 43.0127 63.6277 43.0339 61.8849C43.0056 58.3472 42.9985 54.8072 43.0245 51.2695C43.0292 49.8238 43.0032 48.3757 43.1825 46.9394C42.9915 46.9324 42.8004 46.9276 42.6094 46.9206C40.8759 49.8851 39.8146 53.2247 39.4986 56.6444C38.8029 61.3377 39.3335 66.1088 40.1849 70.7455C40.5222 72.8233 41.1802 74.8327 41.5033 76.9128C40.0835 76.7242 38.7156 76.2784 37.4373 75.6393C38.2486 73.3893 37.8524 70.9224 37.2321 68.6772C36.7416 67.031 36.0765 65.3376 34.8077 64.1325C34.0034 64.0098 33.211 64.3117 32.4186 64.406C33.1332 62.5004 33.8171 60.5288 33.6851 58.4604C33.3619 58.2316 33.0388 58.0052 32.7157 57.7741C32.1733 57.2411 31.6167 56.6987 31.2912 55.9982C30.3455 54.3096 30.5295 52.2955 30.6262 50.4394C31.3195 49.6587 32.3455 49.2672 33.2794 48.8521C35.2605 47.9842 37.4963 48.2437 39.5528 48.6682C39.6849 47.6753 39.7439 46.6682 40.0222 45.7036C40.4585 43.7956 41.6731 42.0268 43.4372 41.1259C44.5551 40.4702 45.8782 40.3287 47.0126 39.7132C48.114 39.1825 48.9677 38.2698 49.7413 37.3453C49.6399 37.2132 49.4394 36.9491 49.338 36.817C47.6847 36.6826 45.956 36.5552 44.3593 37.1118ZM70.3682 36.8076C70.4413 37.1944 70.3328 37.6731 70.6772 37.9514C71.2455 38.5576 71.8422 39.159 72.5757 39.567C73.9318 40.3688 75.5874 40.4773 76.8846 41.4042C79.4765 42.8759 80.1651 46.1046 80.3727 48.8474C83.3231 47.6328 86.8136 48.371 89.2522 50.3545C89.3796 52.1539 89.5423 54.0831 88.7451 55.7647C88.29 56.918 87.2499 57.6633 86.4032 58.5099C86.4079 59.2458 86.3938 59.9816 86.4575 60.7174C86.5825 62.0099 87.3702 63.116 87.5494 64.3942C86.7334 64.4296 85.9197 64.3494 85.1485 64.0688C83.5023 66.1395 82.5825 68.7007 82.2288 71.3021C82.1722 72.7667 82.0189 74.2926 82.5424 75.6982C81.1958 76.3845 79.717 76.894 78.1911 76.8916C78.7666 74.4152 79.434 71.953 79.8208 69.4342C80.2784 68.2715 80.3137 67.0192 80.4458 65.7952C80.8986 62.6891 80.9222 59.5099 80.3868 56.4133C80.0118 53.0219 78.9906 49.6422 77.0591 46.8003C76.6204 48.3498 77.078 49.9323 77.0261 51.503C77.0402 54.4935 77.0449 57.4864 77.0166 60.4792C76.9294 62.6136 76.6346 64.7315 76.3987 66.8541C76.0567 69.9649 75.2761 73.0002 74.5096 76.0261C73.8941 77.7477 73.2997 79.4764 72.5922 81.1627C75.6016 81.2476 78.5213 80.3656 81.3797 79.5283C83.1887 78.8279 85.0707 78.118 86.5494 76.8232C86.1674 75.9883 85.7405 75.1629 85.4952 74.2714C85.0259 72.2596 85.3443 70.1134 86.3985 68.3305C87.1013 68.3116 87.8041 68.3588 88.5046 68.2904C90.0753 68.0616 91.514 67.1583 92.4526 65.8848C91.2923 64.0876 89.8583 62.2174 89.9574 59.9486C90.7215 59.2434 91.4196 58.451 91.8489 57.4911C93.1531 54.8237 92.9479 51.7648 92.7922 48.8875C92.6554 47.621 91.2805 47.3522 90.3866 46.7649C88.257 45.6164 85.9292 44.5386 83.4599 44.5739C83.1462 43.5339 82.7877 42.4844 82.0826 41.633C80.1793 39.2816 77.5001 37.5175 74.5426 36.8312C73.1606 36.6284 71.755 36.7345 70.3682 36.8076ZM46.2956 48.1116C46.9112 49.4795 47.7201 50.7837 48.0338 52.2695C48.114 52.9558 48.055 53.6516 48.1328 54.3402C48.43 56.9958 48.0621 59.7009 48.5126 62.3377C48.5692 64.4579 48.4418 66.5899 48.7366 68.6984C49.0456 70.8115 50.4205 72.8563 52.4818 73.5827C54.1775 74.3327 56.0596 73.92 57.8449 74.0638C58.3661 74.7973 58.8142 75.5756 59.2269 76.3751C59.6939 76.3775 60.1656 76.4034 60.6302 76.335C61.2458 75.6463 61.4061 74.6181 62.1891 74.0733C64.0405 73.8846 66.0475 74.3893 67.7574 73.4459C69.4578 72.6511 70.7055 71.0521 71.071 69.2125C71.6842 66.0121 71.0804 62.7174 71.5969 59.5076C71.6064 57.0972 71.7172 54.6916 71.8682 52.2884C72.1441 50.779 72.9813 49.47 73.6158 48.0974C64.5098 48.0951 55.4016 48.0715 46.2956 48.1116ZM51.463 77.7406C50.8333 79.8066 50.1304 81.8467 49.4229 83.8867C49.2224 84.4881 48.9913 85.0919 48.9512 85.731C49.8899 86.4456 51.1068 86.5895 52.2059 86.9385C53.9016 87.3041 55.6115 87.7121 57.3567 87.7263C59.3991 87.7734 61.4439 87.7829 63.4839 87.6838C65.9721 87.4763 68.373 86.7475 70.7479 86.0235C70.7314 85.3843 70.788 84.724 70.5616 84.1131C69.7644 81.9245 69.1678 79.6628 68.2715 77.5048C67.0216 77.7548 65.7881 78.0755 64.5358 78.3067C63.0382 78.6934 61.4769 78.5425 59.9486 78.585C58.4463 78.5472 56.9133 78.6864 55.4416 78.3137C54.1209 78.0803 52.8238 77.6109 51.463 77.7406Z" fill="#FEFEFE"/>
<path d="M56.6043 34.9728C58.043 34.5883 59.5477 33.8431 61.0524 34.336C61.8424 34.5812 62.6655 34.7345 63.4297 35.0529C63.7834 35.1779 63.8825 35.5789 63.7929 35.9114C63.5381 37.4609 63.7551 39.0741 63.1702 40.5646C61.5476 40.4561 59.9156 40.1731 58.2953 40.4679C57.7435 40.4113 56.9652 40.817 56.5925 40.2674C56.1562 39.0222 56.3685 37.685 56.1492 36.402C56.0737 35.8973 55.9581 35.1426 56.6043 34.9728Z" fill="#FEFEFE"/>
<path d="M53.4935 81.0259C54.8024 81.0047 56.0359 81.5 57.3307 81.6108C59.8164 82.0872 62.3824 81.7877 64.8187 81.1816C65.3375 81.0448 65.8776 81.0448 66.4083 81.0259C66.6653 81.9528 67.13 82.8372 67.1677 83.8089C64.2857 85.2688 60.9556 84.9173 57.8306 84.9197C56.0547 84.9669 54.3166 84.5306 52.6869 83.8466C52.8284 82.8726 53.1916 81.9552 53.4935 81.0259Z" fill="#FEFEFE"/>
<path d="M59.1396 30.7276C59.5971 30.5743 60.0995 30.5389 60.5688 30.6592C62.0735 31.112 63.5452 31.6828 65.0781 32.0436C65.9555 32.2795 66.821 32.5719 67.6371 32.9776C67.3564 35.5624 67.0781 38.1425 66.8564 40.7345C66.5805 41.9231 66.7078 43.1589 66.4107 44.3476C65.2126 44.3051 64.0357 44.0669 62.8589 43.8688C61.0452 43.732 59.2198 43.7698 57.4038 43.8358C56.0949 44.0103 54.7977 44.2886 53.477 44.3641C53.0312 40.6118 52.6704 36.8478 52.3025 33.0884C52.8591 32.4964 53.701 32.3927 54.4345 32.1474C56.0217 31.737 57.5807 31.2276 59.1396 30.7276ZM56.6043 34.9728C55.9581 35.1426 56.0736 35.8973 56.1491 36.402C56.3684 37.685 56.1562 39.0222 56.5925 40.2675C56.9651 40.817 57.7434 40.4114 58.2953 40.468C59.9155 40.1731 61.5476 40.4562 63.1702 40.5647C63.7551 39.0741 63.5381 37.4609 63.7928 35.9115C63.8824 35.5789 63.7834 35.178 63.4296 35.053C62.6655 34.7346 61.8424 34.5813 61.0523 34.336C59.5476 33.8431 58.0429 34.5884 56.6043 34.9728Z" fill="#343433"/>
<path d="M44.3594 37.1119C45.9561 36.5553 47.6848 36.6827 49.3381 36.8171C49.4395 36.9492 49.6399 37.2133 49.7414 37.3454C48.9678 38.2699 48.114 39.1826 47.0126 39.7133C45.8782 40.3288 44.5551 40.4703 43.4372 41.126C41.6731 42.0269 40.4585 43.7957 40.0222 45.7037C39.7439 46.6683 39.685 47.6754 39.5529 48.6683C37.4963 48.2437 35.2605 47.9843 33.2795 48.8522C32.3455 49.2673 31.3196 49.6588 30.6262 50.4395C30.5295 52.2955 30.3456 54.3097 31.2913 55.9983C31.6168 56.6987 32.1733 57.2412 32.7158 57.7742C33.0365 58.1492 33.52 58.4935 33.4799 59.0407C33.6379 60.9345 32.862 62.7198 32.105 64.4038C33.0153 64.4226 33.9351 64.2646 34.8407 64.3873C35.9185 65.432 36.4539 66.8919 36.9162 68.2881C37.6331 70.6937 38.1543 73.3564 37.2511 75.7856C38.7015 76.387 40.2109 76.8068 41.7462 77.1228C40.9562 73.2007 39.8807 69.3164 39.5741 65.3141C39.4609 62.7033 39.4515 60.0855 39.567 57.4747C39.718 55.3922 40.1802 53.338 40.8029 51.3475C41.2746 49.8852 41.8712 48.4419 42.8311 47.2273C43.0811 49.9206 42.4774 52.588 42.6307 55.279C42.5127 57.9582 42.8476 60.6161 42.9302 63.2882C43.258 66.9839 43.7556 70.6866 44.8075 74.2526C45.4655 76.6063 46.4301 78.8563 47.173 81.1793C44.2533 81.1015 41.4066 80.3468 38.6307 79.4978C36.869 78.9082 35.1167 78.1841 33.6309 77.0521C33.6049 76.9742 33.553 76.8186 33.5271 76.7408C33.7629 75.8964 34.2275 75.1252 34.4162 74.262C34.836 72.2621 34.612 70.0994 33.5507 68.3235C32.6851 68.3023 31.8031 68.4108 30.9517 68.2032C29.5343 67.8801 28.3149 66.9863 27.3975 65.8778C28.6687 64.1396 29.9588 62.1892 29.9352 59.9487C27.8126 58.102 26.9541 55.1893 27.0131 52.4488C27.0296 51.2625 26.9659 50.0692 27.1145 48.89C27.322 47.6754 28.6168 47.2768 29.5602 46.765C31.7606 45.6164 34.0978 44.4537 36.6497 44.5552C36.6968 42.4491 38.3477 40.9255 39.7935 39.6071C41.1566 38.5246 42.6802 37.6048 44.3594 37.1119Z" fill="#343433"/>
<path d="M70.3683 36.8076C71.755 36.7345 73.1607 36.6284 74.5427 36.8312C77.5002 37.5175 80.1794 39.2816 82.0827 41.633C82.7878 42.4844 83.1463 43.5339 83.46 44.574C85.9293 44.5386 88.257 45.6164 90.3867 46.7649C91.2806 47.3522 92.6555 47.6211 92.7923 48.8875C92.948 51.7648 93.1532 54.8237 91.8489 57.4911C91.4197 58.451 90.7216 59.2434 89.9575 59.9486C89.8584 62.2174 91.2924 64.0877 92.4527 65.8848C91.514 67.1584 90.0754 68.0616 88.5047 68.2904C87.8042 68.3588 87.1014 68.3116 86.3986 68.3305C85.3444 70.1135 85.026 72.2597 85.4953 74.2714C85.7406 75.1629 86.1675 75.9883 86.5495 76.8232C85.0708 78.118 83.1888 78.8279 81.3798 79.5284C78.5214 80.3656 75.6017 81.2477 72.5923 81.1628C73.2998 79.4765 73.8942 77.7477 74.5097 76.0261C75.6017 73.012 76.2361 69.8517 76.5946 66.6702C76.8681 64.9273 77.0474 63.1655 77.0309 61.399C76.9931 59.9816 77.3328 58.5854 77.2738 57.1657C77.2384 55.5902 77.3257 54.0124 77.2243 52.4393C76.9884 50.7153 76.9601 48.9677 77.0663 47.2319C78.5096 49.0715 79.1393 51.3757 79.7148 53.5997C80.5898 56.9982 80.4152 60.5359 80.3681 64.0122C80.3728 65.8353 80.0756 67.6348 79.8209 69.4342C79.4341 71.9531 78.7667 74.4153 78.1912 76.8916C79.7171 76.894 81.1959 76.3846 82.5425 75.6983C82.019 74.2926 82.1723 72.7667 82.2289 71.3021C82.5826 68.7008 83.5024 66.1395 85.1486 64.0688C85.9198 64.3495 86.7335 64.4296 87.5495 64.3943C87.3703 63.116 86.5825 62.0099 86.4576 60.7175C86.3939 59.9816 86.408 59.2458 86.4033 58.51C87.25 57.6633 88.2901 56.918 88.7452 55.7647C89.5424 54.0832 89.3797 52.154 89.2523 50.3545C86.8137 48.371 83.3232 47.6328 80.3728 48.8474C80.1652 46.1046 79.4766 42.8759 76.8847 41.4042C75.5875 40.4773 73.9319 40.3689 72.5758 39.567C71.8423 39.159 71.2456 38.5576 70.6772 37.9515C70.3329 37.6732 70.4414 37.1944 70.3683 36.8076Z" fill="#343433"/>
<path d="M46.2955 48.1117C55.4015 48.0716 64.5097 48.0952 73.6157 48.0975C72.9813 49.4701 72.144 50.7791 71.8681 52.2885C71.7171 54.6917 71.6063 57.0973 71.5969 59.5076C71.0804 62.7175 71.6841 66.0122 71.0709 69.2126C70.7054 71.0522 69.4578 72.6512 67.7573 73.446C66.0474 74.3894 64.0404 73.8847 62.189 74.0734C61.406 74.6182 61.2457 75.6464 60.6301 76.3351C60.1655 76.4035 59.6938 76.3776 59.2268 76.3752C58.8141 75.5757 58.366 74.7974 57.8448 74.0639C56.0595 73.9201 54.1774 74.3328 52.4817 73.5828C50.4204 72.8564 49.0455 70.8116 48.7365 68.6985C48.4417 66.59 48.5691 64.458 48.5125 62.3378C48.062 59.701 48.4299 56.9959 48.1328 54.3403C48.0549 53.6517 48.1139 52.9559 48.0337 52.2696C47.72 50.7838 46.9111 49.4796 46.2955 48.1117ZM51.5265 51.5196C51.5501 52.7932 51.5525 54.0691 51.6114 55.345C52.0289 58.3709 51.6751 61.4392 51.9581 64.4769C52.036 65.4179 51.9888 66.3636 52.01 67.307C51.9841 68.3801 52.4864 69.498 53.3897 70.0994C54.4204 70.8187 55.7364 70.4296 56.9038 70.5098C57.9981 70.4461 58.925 71.0994 59.9226 71.4248C60.7245 71.1701 61.4485 70.689 62.2928 70.5593C63.3612 70.4131 64.4461 70.5994 65.5168 70.4838C66.8918 70.2315 67.8328 68.873 67.8776 67.524C67.9271 65.8801 67.8186 64.2292 68.0097 62.5901C68.1111 60.7034 68.0333 58.8143 68.1276 56.9275C68.3965 55.1634 68.3045 53.3757 68.387 51.5998C67.0852 51.3215 65.7503 51.4229 64.4296 51.4135C61.2056 51.4135 57.984 51.4182 54.76 51.4111C53.6822 51.4135 52.5973 51.364 51.5265 51.5196Z" fill="#343433"/>
<path d="M54.8686 57.0288C58.2577 57.0005 61.6444 57.0076 65.0335 57.0288C65.0311 58.0123 65.0311 58.9981 65.0264 59.9839C63.9651 59.8259 62.9038 59.524 61.8213 59.6632C61.7482 59.7481 61.6043 59.9179 61.5312 60.0028C61.3072 62.0027 61.6138 63.9885 62.0147 65.9437C60.635 65.9413 59.2553 65.9437 57.8756 65.9437C58.0266 64.8258 58.4157 63.7433 58.411 62.6065C58.4181 61.6183 58.4016 60.6325 58.3992 59.6443C57.2082 59.557 56.0313 59.7575 54.8686 59.9886C54.8615 59.0028 54.8686 58.0146 54.8686 57.0288Z" fill="#343433"/>
<path d="M51.463 77.7407C52.8238 77.611 54.121 78.0803 55.4417 78.3138C56.9134 78.6865 58.4464 78.5473 59.9487 78.585C61.477 78.5426 63.0382 78.6935 64.5358 78.3068C65.7882 78.0756 67.0216 77.7549 68.2716 77.5049C69.1678 79.6629 69.7645 81.9246 70.5617 84.1132C70.7881 84.7241 70.7315 85.3844 70.748 86.0236C68.373 86.7476 65.9721 87.4764 63.484 87.6839C61.4439 87.783 59.3992 87.7735 57.3568 87.7263C55.6115 87.7122 53.9017 87.3042 52.2059 86.9386C51.1069 86.5896 49.89 86.4457 48.9513 85.7311C48.9914 85.092 49.2225 84.4882 49.423 83.8868C50.1305 81.8468 50.8333 79.8067 51.463 77.7407ZM53.4936 81.026C53.1918 81.9553 52.8286 82.8727 52.6871 83.8467C54.3167 84.5307 56.0549 84.967 57.8308 84.9198C60.9557 84.9175 64.2859 85.2689 67.1679 83.809C67.1301 82.8373 66.6655 81.9529 66.4084 81.026C65.8778 81.0449 65.3377 81.0449 64.8189 81.1817C62.3826 81.7878 59.8166 82.0873 57.3308 81.6109C56.036 81.5001 54.8026 81.0048 53.4936 81.026Z" fill="#343433"/>
</svg>
