<svg width="120" height="120" viewBox="0 0 120 120" fill="none" xmlns="http://www.w3.org/2000/svg">
<rect width="120" height="120" fill="#871A2C"/>
<path fill-rule="evenodd" clip-rule="evenodd" d="M66.6525 84.5153C67.5004 84.2424 69.2031 82.9336 69.9528 82.4786L69.9524 79.7247C70.7275 79.0297 72.275 78.1177 73.1263 77.5428L95.8209 62.2707C95.4143 61.6498 83.1177 53.6095 81.4452 52.4787C79.5765 51.2151 67.6098 43.0044 66.6333 42.7136L66.6525 84.5153ZM69.9482 76.4213L91.1566 62.3013C90.7389 61.6981 82.009 56.0254 80.6333 55.1013C79.2959 54.2028 70.5909 48.2082 69.943 48.0585L69.9482 76.4213Z" fill="white"/>
<path fill-rule="evenodd" clip-rule="evenodd" d="M16 59.2908C16.3203 59.9193 15.9698 59.4548 16.4987 59.8938L26.0531 66.2899C29.4624 68.575 32.7877 70.8244 36.2484 73.1246C39.6684 75.3977 42.9981 77.6715 46.4403 79.9673C48.1372 81.099 49.7707 82.2044 51.4826 83.351C52.6721 84.1476 55.694 86.3764 56.7514 86.7748C56.8328 80.7468 57.4752 82.0577 53.0966 79.2101L23.8429 59.3917L25.7398 58.1159L48.8521 73.5848C50.1688 74.463 55.8138 78.4638 56.7736 78.7461L56.7485 75.7658L28.2109 56.5817C28.9575 55.7921 30.7976 54.723 31.7491 54.0897L53.6347 39.3995C57.4323 36.8501 56.762 38.3256 56.7611 32.1856C55.3453 32.7009 18.0584 58.4091 16 59.2908Z" fill="white"/>
<path fill-rule="evenodd" clip-rule="evenodd" d="M60.05 89C61.05 88.6473 62.3339 87.4521 63.3238 86.9534L63.3501 37.4549C64.0605 37.6203 70.8494 42.3315 72.0981 43.1753L98.1825 60.6451C98.9032 60.3764 101.392 58.6577 102 58.1322C101.83 57.9009 101.97 58.0498 101.717 57.8284L65.4479 33.4922C64.4579 32.8347 60.9259 30.263 60.042 30L60.05 89Z" fill="white"/>
</svg>
