<svg width="120" height="120" viewBox="0 0 120 120" fill="none" xmlns="http://www.w3.org/2000/svg">
<rect width="120" height="120" fill="#1A549F"/>
<path d="M60.0001 104.503C84.5785 104.503 104.503 84.5784 104.503 60C104.503 35.4217 84.5785 15.4969 60.0001 15.4969C35.4218 15.4969 15.4971 35.4217 15.4971 60C15.4971 84.5784 35.4218 104.503 60.0001 104.503Z" fill="#1A549F"/>
<path fill-rule="evenodd" clip-rule="evenodd" d="M31.9924 55.7684C33.203 55.4365 34.3118 53.8137 41.0935 52.698C44.6818 52.1076 48.6118 51.9072 52.3732 51.8688C59.5226 51.7958 69.4336 52.8247 76.0697 51.4083C75.1903 50.802 72.4725 49.871 71.2531 49.4705C70.1721 49.1151 66.1697 49.3646 64.6613 49.3346C60.2417 49.2473 55.9129 48.8943 51.4739 48.8069C48.0796 48.7398 27.757 48.3115 31.9924 55.7684Z" fill="white"/>
<path fill-rule="evenodd" clip-rule="evenodd" d="M75.062 48.8701L78.4677 50.5156C79.6465 51.0532 81.3523 49.7549 82.0635 49.1696L81.8432 48.9232C81.168 48.2945 79.8248 47.365 78.9536 47.7107C78.2319 47.9969 75.2159 48.7733 75.062 48.8701Z" fill="white"/>
<path fill-rule="evenodd" clip-rule="evenodd" d="M81.3325 46.2857L83.1352 47.3035C83.1818 46.1351 82.8667 45.444 82.5412 44.6173L81.3325 46.2857Z" fill="white"/>
<path fill-rule="evenodd" clip-rule="evenodd" d="M83.917 53.7414C84.2344 54.0353 85.0494 54.6564 85.4075 54.6492C85.479 54.0182 85.5081 53.3361 85.1916 52.8314C84.7471 53.0669 84.3689 53.4476 83.917 53.7414Z" fill="white"/>
<path fill-rule="evenodd" clip-rule="evenodd" d="M34.1597 58.461C34.8425 59.1336 37.0366 61.6194 38.0677 61.2569C40.0677 60.5543 41.6398 60.0709 43.8341 59.661C53.8105 57.7975 62.0648 59.1695 71.8327 58.8083C73.5918 58.7431 82.6243 58.266 84.0257 56.3628C83.8013 56.0887 82.4792 54.8819 82.1253 54.7681C81.6901 54.6281 80.0037 55.2343 79.4137 55.373C70.0144 57.582 56.1541 55.5492 45.628 55.9995C42.8063 56.1201 35.6489 56.7405 34.1597 58.461Z" fill="white"/>
<path fill-rule="evenodd" clip-rule="evenodd" d="M33.1914 64.2024L35.2943 62.5071C34.8732 62.1018 34.4848 61.7939 34.0125 61.3912L33.0493 60.5496C32.7455 60.2601 33.0191 60.4025 32.592 60.2029C31.7334 61.4577 32.4066 63.3215 33.1914 64.2024Z" fill="white"/>
<path fill-rule="evenodd" clip-rule="evenodd" d="M35.2607 66.7591C36.2685 67.3377 37.6712 68.9545 38.8858 69.4474C41.2553 68.1696 40.0555 68.6885 42.5051 67.6282L43.1093 67.2564C38.2922 65.1451 39.2326 63.9093 36.9362 65.1978C36.2774 65.5675 35.5327 66.0937 35.2607 66.7591Z" fill="white"/>
<path fill-rule="evenodd" clip-rule="evenodd" d="M35.7015 73.3909C36.3558 72.2042 36.7011 71.6202 37.3361 70.7491L34.2213 68.4543C34.0552 69.5736 33.8739 70.341 34.3234 71.4157C34.7446 72.4227 35.1521 72.7567 35.7015 73.3909Z" fill="white"/>
<path fill-rule="evenodd" clip-rule="evenodd" d="M72.6041 63.2749C68.5313 63.2749 44.8215 61.8609 41.0581 63.7518C42.0426 64.3956 43.0632 64.9797 44.1025 65.5355C45.9938 66.5467 45.3872 66.6661 47.7075 66.2283C55.1286 64.8277 63.2865 65.7631 70.9557 65.7288C75.1691 65.7288 86.5153 65.579 86.4851 61.0641C81.9437 63.0662 77.795 63.2749 72.6041 63.2749Z" fill="white"/>
<path fill-rule="evenodd" clip-rule="evenodd" d="M44.9448 34.128C47.4636 34.1103 53.7785 31.7207 63.515 32.7643C66.4273 33.0765 69.4771 33.6063 72.0434 34.4451C73.9854 35.0796 77.4728 36.4677 78.3355 38.5855C77.6159 38.3662 76.72 37.8689 75.9708 37.5588C69.3871 34.8346 62.7343 34.1651 55.52 34.4754C51 34.6701 45.315 35.3481 41.1355 36.8787C39.2716 37.5611 36.2159 40.6527 35.6545 41.6952C36.9846 41.3685 41.0699 39.2718 45.5107 38.1187C53.2222 36.1162 61.5614 36.1374 69.2891 37.9529C71.8208 38.5477 77.4281 40.2599 78.9824 41.583C78.66 42.5687 78.1309 43.0571 77.2462 43.4745C75.9625 44.08 75.53 43.5717 74.3042 43.1238C62.2919 38.7343 46.5278 39.0204 34.7371 43.9723C33.3202 44.5673 33.4252 44.6167 32.7085 45.8418C32.2108 46.6926 31.7765 47.5045 31.4497 48.3639C39.9482 44.0649 51.4919 40.929 61.6666 42.1126C64.5296 42.4457 69.333 43.3075 71.7047 44.3185C68.908 44.5315 60.5672 43.9009 55.8198 44.0441C50.8694 44.1933 45.7298 44.6095 41.0446 45.6474C36.5876 46.6348 32.2843 48.1482 30.2816 51.0609C28.2469 54.0201 30.0384 56.2758 30.2818 57.19C30.5084 58.041 28.2601 59.9709 30.1914 63.7087C30.5023 64.311 31.7549 65.9742 31.7798 66.1381C31.9061 66.9655 29.4944 70.3427 34.1262 74.7591C36.0488 76.5924 34.8096 75.2437 35.4868 77.4457C36.251 79.9305 39.2413 82.3183 41.4628 83.757C46.7335 87.1702 53.631 89.6155 60.3168 89.3434C62.2799 89.2636 65.8196 88.8341 67.3678 88.1795C61.0075 88.0462 55.3489 87.6496 49.6212 85.9427C45.1001 84.5953 38.3677 81.8287 37.7713 77.6238C38.6981 77.9521 42.4525 80.242 46.6741 81.6941C54.4499 84.369 62.8375 86.3621 71.2553 86.2757C73.6792 86.2509 74.9856 85.2513 77.1134 83.7991L78.0631 83.0097C69.2581 83.89 64.4551 84.5353 55.3969 82.5622C50.3776 81.4691 41.606 78.5531 37.9769 75.3948C37.9961 73.9357 38.946 72.822 39.7852 72.2196L44.5634 74.6591C46.3006 75.4403 47.9027 76.1314 49.7297 76.8397C53.2642 78.2101 57.0694 79.3785 61.0057 80.2367C65.603 81.2391 69.7948 81.5367 74.6947 81.168C76.1171 81.061 80.0003 80.7519 81.1583 80.3625C81.8024 80.146 83.979 77.3311 84.5268 76.5094C83.867 76.596 82.7921 76.9932 82.0476 77.1875C75.8138 78.8151 67.1286 79.3821 60.9457 78.3594C57.3313 77.7618 53.7943 76.7755 50.5774 75.5415C48.7038 74.8227 42.6482 72.2297 41.6206 71.1988C42.7034 70.4363 46.1455 70.0825 47.7283 69.9528C49.0627 69.8433 49.5656 70.2569 50.6536 70.6719C55.4096 72.4859 59.8872 74.019 65.1415 74.7696C71.8702 75.7308 78.9415 74.9123 85.538 73.7813C86.3599 73.6403 86.2718 73.7687 86.6507 73.1077C86.8985 72.6755 87.0673 72.2379 87.2765 71.7807C87.5586 71.1642 88.2041 69.8009 88.264 69.1757C81.816 72.5975 69.5263 73.5954 61.9102 72.1643C60.1646 71.8362 54.8784 70.6483 53.8528 69.8307C56.1372 69.64 59.3064 69.9387 61.6526 70.0365C68.4082 70.3182 85.7663 71.6013 89.4388 66.3099C90.5536 64.7039 91.1785 62.112 90.1764 60.0652C89.6453 58.9804 88.8398 58.7177 89.2081 57.6963C89.575 56.6793 89.7839 55.3632 89.5745 54.2169C89.3738 53.1186 88.7333 52.2076 88.1872 51.5697C86.5307 49.6345 86.8966 50.5771 87.1354 49.1705C87.5591 46.6763 86.1677 44.5257 84.9721 43.3965C84.6156 43.06 84.3551 42.8059 84.0002 42.4171C83.5412 41.9143 83.3702 41.9279 82.8634 41.4589C82.4236 41.0519 81.9116 39.5989 81.3968 38.8757C74.6708 29.4233 52.5974 28.4785 44.9448 34.128Z" fill="white"/>
<path fill-rule="evenodd" clip-rule="evenodd" d="M82.5412 44.6173C82.8667 45.444 83.1818 46.1351 83.1352 47.3035L81.3325 46.2857L82.5412 44.6173Z" fill="#1A549F"/>
<path fill-rule="evenodd" clip-rule="evenodd" d="M75.062 48.8701C75.2159 48.7733 78.2319 47.9969 78.9536 47.7107C79.8248 47.365 81.168 48.2945 81.8432 48.9232L82.0635 49.1696C81.3523 49.7549 79.6465 51.0532 78.4677 50.5156L75.062 48.8701Z" fill="#1A549F"/>
<path fill-rule="evenodd" clip-rule="evenodd" d="M31.9924 55.7684C27.757 48.3115 48.0796 48.7398 51.4739 48.8069C55.9129 48.8943 60.2417 49.2473 64.6613 49.3346C66.1697 49.3646 70.1721 49.1151 71.2531 49.4705C72.4725 49.871 75.1903 50.802 76.0697 51.4083C69.4336 52.8247 59.5226 51.7958 52.3732 51.8688C48.6118 51.9072 44.6818 52.1076 41.0935 52.698C34.3118 53.8137 33.203 55.4365 31.9924 55.7684Z" fill="#1A549F"/>
<path fill-rule="evenodd" clip-rule="evenodd" d="M83.917 53.7414C84.3689 53.4476 84.7471 53.0669 85.1916 52.8314C85.5081 53.3361 85.479 54.0182 85.4075 54.6492C85.0494 54.6564 84.2344 54.0353 83.917 53.7414Z" fill="#1A549F"/>
<path fill-rule="evenodd" clip-rule="evenodd" d="M34.1597 58.461C35.6489 56.7405 42.8063 56.1201 45.628 55.9995C56.1541 55.5492 70.0144 57.582 79.4137 55.373C80.0037 55.2343 81.6901 54.6281 82.1253 54.7681C82.4792 54.8819 83.8013 56.0887 84.0257 56.3628C82.6243 58.266 73.5918 58.7431 71.8327 58.8083C62.0648 59.1695 53.8105 57.7975 43.8341 59.661C41.6398 60.0709 40.0677 60.5543 38.0677 61.2569C37.0366 61.6194 34.8425 59.1336 34.1597 58.461Z" fill="#1A549F"/>
<path fill-rule="evenodd" clip-rule="evenodd" d="M72.6041 63.2749C77.795 63.2749 81.9437 63.0662 86.4851 61.0641C86.5153 65.579 75.1691 65.7288 70.9557 65.7288C63.2865 65.7631 55.1286 64.8277 47.7075 66.2283C45.3872 66.6661 45.9938 66.5467 44.1025 65.5355C43.0632 64.9797 42.0426 64.3956 41.0581 63.7518C44.8215 61.8609 68.5313 63.2749 72.6041 63.2749Z" fill="#1A549F"/>
<path fill-rule="evenodd" clip-rule="evenodd" d="M33.1914 64.2024C32.4066 63.3215 31.7334 61.4577 32.592 60.2029C33.0191 60.4025 32.7455 60.2601 33.0493 60.5496L34.0125 61.3912C34.4848 61.7939 34.8732 62.1018 35.2943 62.5071L33.1914 64.2024Z" fill="#1A549F"/>
<path fill-rule="evenodd" clip-rule="evenodd" d="M35.2607 66.7591C35.5327 66.0937 36.2774 65.5675 36.9362 65.1978C39.2326 63.9093 38.2922 65.1451 43.1093 67.2564L42.5051 67.6282C40.0555 68.6885 41.2553 68.1696 38.8858 69.4474C37.6712 68.9545 36.2685 67.3377 35.2607 66.7591Z" fill="#1A549F"/>
<path fill-rule="evenodd" clip-rule="evenodd" d="M35.7015 73.3909C35.1521 72.7567 34.7446 72.4227 34.3234 71.4157C33.8739 70.341 34.0552 69.5736 34.2213 68.4543L37.3361 70.7491C36.7011 71.6202 36.3558 72.2042 35.7015 73.3909Z" fill="#1A549F"/>
</svg>
