<svg width="40" height="40" viewBox="0 0 40 40" fill="none" xmlns="http://www.w3.org/2000/svg">
<rect width="40" height="40" fill="#2BAF5C"/>
<path fill-rule="evenodd" clip-rule="evenodd" d="M12.5088 15.9202L8.43884 15.9205C8.43884 21.8981 11.075 24.8793 15.9761 27.5642L15.9768 31.5665C20.8895 31.6028 25.5963 28.463 27.6322 24.0668L31.5674 24.0523C31.5674 24.0523 31.5745 21.7357 31.0285 19.9503C29.434 14.7363 24.2088 12.4536 24.1929 12.3876V8.43823C20.487 8.43823 15.1439 11.062 13.304 14.2926C13.0349 14.7652 12.7799 15.4537 12.5088 15.9202ZM15.6694 15.5504L15.557 15.8644L19.9801 15.8999L19.9885 18.4577C19.5284 18.5756 12.6104 18.5004 11.5239 18.4989L11.6141 18.9669C11.6612 19.9434 12.7642 21.7697 13.2111 22.3413C13.7846 23.075 15.038 24.3101 16.0377 24.6024V20.2359H18.6102L18.6521 28.5666C20.5608 28.1956 24.4488 26.1753 24.7512 24.0721L20.4058 24.0669L20.3649 21.5372L28.8054 21.5364C28.5762 19.6134 26.2943 15.8378 24.2598 15.3793L24.243 19.96L21.7306 19.96L21.7133 11.3965C20.6249 11.4099 18.7866 12.4133 18.0927 12.8894C16.935 13.6836 16.3291 14.4268 15.6694 15.5504Z" fill="white"/>
</svg>
