<svg width="120" height="120" viewBox="0 0 120 120" fill="none" xmlns="http://www.w3.org/2000/svg">
<rect width="120" height="120" fill="#004B99"/>
<path fill-rule="evenodd" clip-rule="evenodd" d="M61.8465 89.7925L34.2728 62.5612C33.438 61.7007 30.7217 59.3726 30.3958 58.5486L61.8215 28.1928C56.6382 28.0325 51.2018 28.032 46.0254 28.0364C40.2727 28.0411 37.1313 28.4171 33.6603 31.5806C30.8984 34.0978 28.9865 37.4165 29.0001 42.8614L29.0013 74.8797C28.9837 80.3445 30.7181 83.6916 33.5389 86.2826C36.9519 89.4176 39.8188 89.7925 45.5955 89.7925C50.7926 89.7925 56.3953 89.7925 61.8465 89.7925Z" fill="white"/>
<path fill-rule="evenodd" clip-rule="evenodd" d="M62.8948 49.6297C69.2711 49.6118 73.9104 50.5542 78.763 53.1254C82.5171 55.1144 86.5802 58.7214 87.8437 63.3814C90.203 72.0834 83.5775 78.1474 77.3081 81.2096C74.7654 82.4514 70.3636 83.3783 69.97 83.6285C76.4445 89.9567 69.97 83.6285 76.4445 89.9567C84.4025 90.1122 91 84.0099 91 76.1685V57.4743C91 49.7895 84.7781 43.7355 76.9878 43.7355H69.8922C69.6188 43.7355 69.1449 43.7355 69.1449 43.7355C68.226 44.6014 69.1449 43.7356 62.8948 49.6297Z" fill="white"/>
<path fill-rule="evenodd" clip-rule="evenodd" d="M35.7297 58.5486C36.295 59.2347 36.8532 59.658 37.6269 60.4953C38.3088 61.2335 38.9878 61.7989 39.7358 62.4715C41.1525 63.7452 42.5102 65.1299 43.8996 66.4725C44.6411 67.1889 45.2839 67.7063 46.0475 68.4105L64.8813 86.328C65.6493 87.0583 66.1408 87.4717 66.9667 88.3302C68.7059 90.3306 68.7776 89.9927 74.4075 89.9566H75.4115C42.4903 58.5486 42.4903 58.5486 42.4903 58.5486L75.347 28.0128L69.5158 28C68.1887 28 67.8524 28.7621 67.0963 29.5393L56.6645 39.0993C55.2861 40.3183 53.598 41.7475 52.3773 42.9808C51.595 43.7712 51.1485 44.1813 50.3697 44.8405L35.7297 58.5486Z" fill="white"/>
<path d="M67.3378 78.0455C71.7613 78.0455 75.3473 72.0908 75.3473 64.7452C75.3473 57.3997 71.7613 51.445 67.3378 51.445C62.9142 51.445 59.3282 57.3997 59.3282 64.7452C59.3282 72.0908 62.9142 78.0455 67.3378 78.0455Z" fill="#E4CA93"/>
</svg>
