<svg width="120" height="120" viewBox="0 0 120 120" fill="none" xmlns="http://www.w3.org/2000/svg">
<rect width="120" height="120" fill="#52AC35"/>
<path fill-rule="evenodd" clip-rule="evenodd" d="M82.9914 78.2656C86.7593 78.7485 87.4507 82.3556 86.3539 84.5125C84.9199 87.3327 82.1857 87.0224 78.7999 86.2596C69.2176 84.101 49.4283 77.371 40.8068 81.7644C39.5838 82.3876 39.6967 82.4583 38.9115 82.9584C38.716 83.083 38.7938 83.0572 38.6268 83.0994C38.4705 83.3978 38.6129 83.1702 38.4463 83.3796C37.9529 83.9999 37.6205 84.0331 36.9802 85.2671C36.6153 85.9702 36.1813 87.2137 36.3078 88.1752L39.5423 88.181C39.5112 85.2923 45.2169 85.2237 47.2858 85.2975C50.5164 85.4128 53.6712 86.1354 56.5156 86.8331C62.2582 88.242 68.1575 89.64 73.9126 91.0235C80.4783 92.6019 86.9724 92.7872 89.861 87.5647C93.3171 81.3158 88.2907 74.7815 83.0366 75.167L82.9914 78.2656Z" fill="white"/>
<path fill-rule="evenodd" clip-rule="evenodd" d="M44.6134 36.2412C40.4258 37.195 37.7102 41.4375 38.2527 46.6886C38.686 50.8842 42.1194 55.8074 47.0505 54.688C51.087 53.7716 53.9447 49.1336 53.3035 44.1814C52.9838 41.7125 52.0478 39.7591 50.7052 38.3509C49.5118 37.0994 47.2848 35.6327 44.6134 36.2412ZM45.0622 39.2407C38.9766 40.8197 40.6368 52.8555 46.4656 51.7063C49.0933 51.1883 50.4998 47.8992 50.3067 44.7429C50.1388 41.9988 48.0727 38.4597 45.0622 39.2407Z" fill="white"/>
<path fill-rule="evenodd" clip-rule="evenodd" d="M71.5791 74.1859C73.5988 74.1887 75.1488 73.2715 76.1191 72.3335C78.5555 69.9781 79.3968 67.2196 79.002 62.8052C78.3999 59.9135 76.9816 57.719 74.9276 56.4719C72.1281 54.7719 69.1497 55.4748 67.0516 57.3565C64.0525 60.0463 63.1392 65.2085 64.8658 69.2452C66.025 71.9553 68.409 74.1815 71.5791 74.1859ZM70.5546 58.7257C64.5584 60.8362 66.8425 72.7569 72.5927 71.0427C75.0274 70.3169 76.4504 67.0124 76.1023 63.828C75.8179 61.227 73.6649 57.6309 70.5546 58.7257Z" fill="white"/>
<path fill-rule="evenodd" clip-rule="evenodd" d="M55.7531 56.0898L41.9671 72.7284C41.0478 73.8554 38.017 77.3849 37.4321 78.2779L41.5697 78.3179C47.6929 71.2699 53.522 63.8757 59.513 56.7171C61.0583 54.8704 62.4823 53.11 64.0003 51.3182C69.3232 44.903 74.769 38.5691 79.8948 32.0289L75.7345 32.0532C75.542 32.1239 58.1535 53.2333 55.7531 56.0898Z" fill="white"/>
<path fill-rule="evenodd" clip-rule="evenodd" d="M36.2596 76.3132C36.9591 75.8828 52.5421 56.7034 54.9575 53.9123C55.5834 53.189 55.3667 52.4813 55.3653 51.3611C55.364 50.3751 55.3623 49.3986 55.3401 48.4124C55.1322 48.7301 54.6424 50.4781 54.0377 51.6201C53.4969 52.6412 52.7578 53.6187 52.0727 54.2648C48.2429 57.8764 42.8512 57.8405 39.2402 54.023C38.6635 53.4133 37.8214 52.3098 37.3342 51.3223C37.0597 50.7662 36.1988 48.45 36.3374 47.8787C36.0769 49.5427 36.204 74.7058 36.2596 76.3132Z" fill="white"/>
<path fill-rule="evenodd" clip-rule="evenodd" d="M61.9683 57.5915L61.9651 60.9045C61.9716 61.0432 61.975 61.1312 61.9999 61.2686L62.1976 61.4021C62.2438 61.3036 62.2492 61.3014 62.2854 61.2136C62.7092 60.1906 62.7225 59.7544 63.433 58.5188C67.4981 51.4486 76.1411 51.9082 79.8348 58.6657C80.0719 59.0993 80.3109 59.613 80.5027 60.1787L81.0701 61.9459L81.0809 34.0547C80.417 34.4725 76.913 38.9228 76.1608 39.8261C74.5056 41.8135 72.9934 43.6747 71.3251 45.6473L62.8836 55.8202C62.4347 56.3657 61.9679 56.6214 61.9683 57.5915Z" fill="white"/>
<path fill-rule="evenodd" clip-rule="evenodd" d="M36.3401 43.0058C36.1962 42.5883 37.081 40.1433 37.3021 39.6745C39.9227 34.1196 46.8834 31.8061 52.0565 36.6405C52.7666 37.3041 53.4525 38.2394 54.0296 39.2916C54.309 39.8009 54.5197 40.3084 54.7413 40.889C54.92 41.3574 55.1181 42.1646 55.3159 42.5734L55.3662 32.0397L36.2605 32.0133C36.1738 33.4859 36.1621 41.8485 36.3401 43.0058Z" fill="white"/>
<path fill-rule="evenodd" clip-rule="evenodd" d="M61.9644 78.296L81.0763 78.318L81.0903 67.8567L80.7564 68.6137C80.6731 68.8984 80.5983 69.1796 80.4941 69.4965C78.4279 75.7845 70.6564 79.0366 65.0846 73.4817C63.6063 72.0078 62.6655 69.8999 62.016 67.5169L61.9644 78.296Z" fill="white"/>
<path fill-rule="evenodd" clip-rule="evenodd" d="M44.2843 78.2753L55.3356 78.2791C55.4718 74.8067 55.3209 70.316 55.351 66.6188C55.3636 65.092 55.3503 64.7812 55.3503 64.7812C55.2902 65.1966 45.5505 76.5439 44.2843 78.2753Z" fill="white"/>
<path fill-rule="evenodd" clip-rule="evenodd" d="M57.0036 78.3162L60.259 78.3212L60.2746 75.1458L57.0256 75.1215L57.0036 78.3162Z" fill="white"/>
<path fill-rule="evenodd" clip-rule="evenodd" d="M73.0361 32.0272L61.9675 32L61.9626 45.3601L73.0361 32.0272Z" fill="white"/>
<path fill-rule="evenodd" clip-rule="evenodd" d="M39.5423 88.181L36.3078 88.1752C36.1813 87.2137 36.6153 85.9702 36.9802 85.2671C37.6205 84.0331 37.9529 83.9999 38.4463 83.3796C38.6129 83.1702 38.4705 83.3978 38.6268 83.0994C37.7622 83.2767 37.0956 84.3716 36.6885 85.127C36.3213 85.8083 35.7227 87.364 36.145 88.3617C36.2755 88.4976 38.2868 88.5062 38.7212 88.5105C39.338 88.5166 39.3805 88.5739 39.5423 88.181Z" fill="white"/>
</svg>
