<svg width="40" height="40" viewBox="0 0 40 40" fill="none" xmlns="http://www.w3.org/2000/svg">
<g clip-path="url(#clip0_1011_567)">
<path d="M40 0H0V40H40V0Z" fill="#0231AC"/>
<path d="M8.9648 9.50747C0.652554 18.4173 -0.474761 33.5478 0.000612684 39.9993C10.7984 39.9993 23.5927 40.271 31.8506 30.2202C40.1086 20.1694 39.9999 11.5448 39.9999 0C26.4857 -1.34222e-05 17.277 0.597612 8.9648 9.50747Z" fill="#E7EEFF"/>
<path d="M30.3125 19.8438C30.3125 25.6255 25.6255 30.3125 19.8438 30.3125C14.062 30.3125 9.375 25.6255 9.375 19.8438C9.375 14.062 14.062 9.375 19.8438 9.375C25.6255 9.375 30.3125 14.062 30.3125 19.8438Z" fill="#0231AC"/>
<path fill-rule="evenodd" clip-rule="evenodd" d="M29.8008 19.4523C29.649 18.4644 28.7299 17.5051 27.046 16.7496C26.6398 16.5674 26.197 16.4012 25.7226 16.2529C25.9947 17.2565 26.1651 18.332 26.1976 19.4523H29.8008ZM25.5579 15.6927C28.4205 16.5188 30.3125 17.9744 30.3125 19.746C30.3125 21.5306 28.3926 22.9946 25.4945 23.8174C24.1645 27.5504 21.3086 30.2019 19.9744 30.3091C19.9631 30.3114 19.9521 30.3125 19.9415 30.3125C19.9369 30.3125 19.9322 30.3123 19.9275 30.3119C19.9158 30.3123 19.9041 30.3125 19.8926 30.3125C18.6318 30.3125 15.6563 27.6192 14.2901 23.7974C11.3407 22.9387 9.37864 21.4267 9.37498 19.7507C9.37495 19.7491 9.37494 19.7475 9.37494 19.7458C9.37494 19.7442 9.37495 19.7425 9.37498 19.7408C9.37927 18.1745 11.3047 16.649 14.2077 15.7552C15.3769 12.0051 17.9504 9.375 19.8926 9.375C19.9049 9.375 19.9172 9.37511 19.9296 9.37532C19.9336 9.37511 19.9375 9.375 19.9415 9.375C19.9492 9.375 19.957 9.3754 19.9649 9.3762C21.8873 9.43975 24.3944 12.022 25.5579 15.6927ZM14.0444 16.321C13.5434 16.4874 13.0766 16.6731 12.6497 16.8742C11.7392 17.3033 11.0296 17.7938 10.5543 18.2999C10.1805 18.698 9.96803 19.0867 9.89415 19.4523H13.5877C13.6194 18.3573 13.783 17.3051 14.0444 16.321ZM9.89023 20.0394C9.96111 20.4391 10.1779 20.8483 10.5563 21.2562C11.0297 21.7664 11.7368 22.2514 12.6462 22.6712C13.0902 22.8761 13.5774 23.0632 14.1017 23.229C13.7951 22.2257 13.604 21.1538 13.5838 20.0394H9.89023ZM14.8709 23.9547C15.3069 25.0776 15.8847 26.0947 16.51 26.9596C17.1723 27.8757 17.8789 28.6081 18.5084 29.1062C18.7936 29.3318 19.0568 29.5044 19.2871 29.6242C18.718 28.6722 17.9959 26.7986 17.5418 24.4212C16.5968 24.322 15.7001 24.1633 14.8709 23.9547ZM17.4513 23.9193C16.4561 23.8079 15.5207 23.629 14.6689 23.396C14.3174 22.3466 14.0954 21.2162 14.0731 20.0394H17.105C17.1165 21.4137 17.2483 22.7233 17.4513 23.9193ZM18.0493 24.4683C18.2416 25.444 18.4792 26.3295 18.7307 27.0933C19.0357 28.0199 19.3573 28.7554 19.6356 29.2499L19.648 29.272V24.5393C19.1039 24.5346 18.57 24.5104 18.0493 24.4683ZM19.648 24.0501C19.0703 24.045 18.5052 24.0175 17.9564 23.9696C17.7449 22.7638 17.6061 21.4356 17.5942 20.0394H19.648V24.0501ZM20.2351 24.537V29.2718L20.2474 29.2499C20.5257 28.7554 20.8473 28.0199 21.1523 27.0933C21.4046 26.327 21.6429 25.4382 21.8356 24.4586C21.3148 24.5019 20.7803 24.5284 20.2351 24.537ZM21.9283 23.9596C21.3798 24.0086 20.8142 24.0385 20.2351 24.0478V20.0394H22.2888C22.2769 21.4318 22.1388 22.7564 21.9283 23.9596ZM22.3432 24.4106C21.8994 26.7396 21.1981 28.5863 20.6344 29.5587C20.8368 29.4443 21.0601 29.2933 21.2981 29.1057C21.9292 28.6081 22.6338 27.8762 23.293 26.9605C23.9127 26.0995 24.4842 25.0874 24.9161 23.9699C24.1168 24.1651 23.2534 24.314 22.3432 24.4106ZM25.1162 23.4141C24.2949 23.6325 23.3935 23.8003 22.4335 23.9086C22.6354 22.7155 22.7665 21.4096 22.778 20.0394H25.7122C25.69 21.2231 25.4679 22.3597 25.1162 23.4141ZM25.6815 23.2518C26.1715 23.1004 26.6281 22.9299 27.046 22.7424C28.7301 21.9868 29.6492 21.0274 29.8008 20.0394H26.2015C26.1814 21.1623 25.9896 22.242 25.6815 23.2518ZM14.6001 16.1486C15.4736 15.8958 16.4361 15.7003 17.4617 15.5795C17.2615 16.7696 17.1286 18.0771 17.1072 19.4523H14.0771C14.1121 18.2896 14.3011 17.1775 14.6001 16.1486ZM17.5515 15.0769C16.5665 15.1856 15.6338 15.3618 14.7751 15.592C15.1405 14.5134 15.6251 13.5393 16.173 12.7112C16.775 11.8015 17.4455 11.0799 18.1045 10.5904C18.525 10.278 18.9267 10.0703 19.293 9.95977C18.7087 10.8515 18.0009 12.701 17.5515 15.0769ZM17.967 15.5265C17.7584 16.7263 17.6187 18.0533 17.5965 19.4523H19.648V15.442C19.0742 15.4474 18.5126 15.4764 17.967 15.5265ZM19.648 14.9528C19.1074 14.9578 18.5768 14.9832 18.0591 15.0273C18.2353 14.1251 18.4488 13.3041 18.6769 12.5901C18.9729 11.6638 19.289 10.932 19.5713 10.4418C19.5975 10.3962 19.6231 10.3533 19.648 10.313V14.9528ZM20.2351 15.4442V19.4523H22.2865C22.2643 18.0552 22.1249 16.7299 21.9168 15.5314C21.3719 15.483 20.8101 15.4535 20.2351 15.4442ZM21.8249 15.0325C21.3074 14.9897 20.7765 14.9635 20.2351 14.955V10.3132C20.2599 10.3534 20.2855 10.3963 20.3117 10.4418C20.5939 10.932 20.91 11.6638 21.206 12.5901C21.4346 13.3055 21.6485 14.1282 21.8249 15.0325ZM22.3322 15.0803C21.8895 12.7383 21.1956 10.9074 20.6162 10.0004C20.9485 10.118 21.3072 10.3129 21.6808 10.5904C22.3398 11.0799 23.0103 11.8015 23.6122 12.7112C24.1516 13.5262 24.6295 14.4827 24.9927 15.541C24.1689 15.3357 23.2756 15.1799 22.3322 15.0803ZM22.4217 15.5821C23.4066 15.6927 24.3299 15.8657 25.1686 16.092C25.4772 17.1366 25.6726 18.2683 25.7082 19.4523H22.7758C22.7543 18.0781 22.6217 16.7715 22.4217 15.5821Z" fill="#FEFEFE"/>
</g>
<defs>
<clipPath id="clip0_1011_567">
<rect width="40" height="40" fill="white"/>
</clipPath>
</defs>
</svg>
