<svg width="120" height="120" viewBox="0 0 120 120" fill="none" xmlns="http://www.w3.org/2000/svg">
<rect width="120" height="120" fill="#FF720C"/>
<path fill-rule="evenodd" clip-rule="evenodd" d="M81.9318 53.6616C81.7673 54.1355 81.6227 54.5521 81.7067 55.1616C81.9903 55.2274 82.0796 55.128 82.2249 54.9662C82.271 54.9149 82.3227 54.8574 82.388 54.7968C82.9454 54.2796 83.1049 54.1688 83.3635 53.9891C83.4924 53.8996 83.6459 53.7929 83.8856 53.6103L84.0331 53.5012C84.049 53.4918 84.071 53.4792 84.0876 53.4706L84.27 53.3979C86.9338 52.4699 89.1001 52.2006 91.9736 52.7428C94.2622 53.1747 96.0895 54.2318 97.3667 56.0836C98.611 57.8878 99.2306 61.1001 99.1132 63.0557C99.0708 63.7641 98.6039 65.991 98.3376 66.5967C97.1986 69.1873 96.1179 70.1057 93.826 71.4197C93.4359 71.6434 91.4343 72.2503 90.9403 72.3307C88.2473 72.7681 84.9826 72.5306 82.6205 71.2667C81.0422 70.4223 80.7921 70.2032 79.5971 68.8419C76.4423 65.2483 76.5144 54.9992 78.7656 50.0421C79.3069 48.8502 80.2495 47.5797 81.1783 46.6747C81.2055 46.6482 81.3164 46.5415 81.3164 46.5415L82.8292 45.3739C83.0347 45.2513 83.3626 45.0841 83.5093 45.0222C85.0102 44.3904 85.4167 44.3151 86.8381 44.0519L86.9149 44.0377C88.3001 43.7811 89.402 43.6929 90.8201 43.5895C92.1634 43.4913 93.5443 43.3678 94.8227 43.1949C95.0433 43.1651 95.2457 43.1324 95.4311 43.1025C96.7152 42.8954 97.1825 42.8201 97.2449 44.7254C97.2626 45.2712 97.1706 46.2964 97.0082 46.7537C96.7442 47.4974 96.4737 47.7264 95.8723 48.1303L95.3396 48.3663C93.5742 49.1787 91.47 49.4028 89.4576 49.6172C86.9883 49.8803 84.6572 50.1286 83.2596 51.4308C82.6903 51.9613 82.2944 52.566 82.0216 53.3978C81.9918 53.4886 81.9615 53.576 81.9318 53.6616ZM26.2514 64.0379C26.2754 61.8133 26.3227 57.436 26.1392 57.0026C26.1036 56.9928 26.0235 56.9864 25.9129 56.9777C25.4151 56.9383 24.3004 56.8503 23.8633 56.1694C23.4584 55.5386 23.4763 54.6686 23.4926 53.8751C23.4961 53.7027 23.4996 53.5339 23.4987 53.3719C23.4982 53.2928 23.4961 53.2139 23.4941 53.136C23.479 52.5685 23.4655 52.0555 24.096 51.9443C24.7859 51.8223 31.6631 52.0369 32.3284 52.2014C32.6146 52.8669 32.5653 54.4989 32.5282 55.7238C32.5174 56.0824 32.5076 56.4061 32.5076 56.6605V61.3304C32.5076 61.514 32.5046 61.7144 32.5015 61.9262C32.4799 63.3817 32.4502 65.3825 33.3207 66.2589C34.0389 66.982 35.3901 67.0865 36.0228 66.8719C37.2636 66.4511 37.9776 65.8146 38.649 64.8445C39.7196 63.298 39.6631 59.8848 39.6246 57.557C39.6181 57.165 39.6121 56.8038 39.6121 56.4875C39.6121 56.1691 39.598 55.7979 39.5831 55.4057C39.5383 54.2313 39.4864 52.8686 39.7854 52.172C40.1659 52.0531 45.6924 51.9499 45.9421 52.25C46.1752 52.8595 46.1277 56.3212 46.1005 58.3067C46.0939 58.7874 46.0885 59.1815 46.0885 59.4277C46.0889 60.7366 46.1089 62.0754 46.1286 63.3981C46.1448 64.4855 46.1609 65.5619 46.1657 66.6018C46.1671 66.9036 46.166 67.2139 46.1649 67.5282C46.1616 68.4651 46.1581 69.4371 46.2209 70.3241C46.3416 72.0267 46.0357 72.0226 44.6814 72.0044C44.5381 72.0025 44.383 72.0004 44.2155 72.0001C44.1312 72 44.0281 72.0007 43.9117 72.0014C43.2024 72.006 42.0012 72.0137 41.5636 71.8659C41.2414 71.7571 41.2298 71.7443 41.1128 71.6145C41.0893 71.5884 41.0614 71.5574 41.0258 71.52C40.7674 71.2485 40.5473 70.6417 40.4689 70.2605C40.3949 69.9003 40.3805 69.768 40.3891 69.3703C40.4012 68.8108 40.3478 68.7715 40.3101 68.7438C40.2957 68.7332 40.2837 68.7244 40.2784 68.689C40.2747 68.6642 40.2634 68.6541 40.2517 68.6437C40.2468 68.6393 40.2417 68.6348 40.2372 68.6291C39.9603 68.6471 39.9055 68.6438 39.899 68.66C39.8924 68.6763 39.9347 68.7123 39.8492 68.8093C39.7885 68.8782 39.7593 68.941 39.7302 69.0037C39.7094 69.0484 39.6886 69.0931 39.6564 69.1397C39.579 69.2523 39.4349 69.422 39.3113 69.5675C39.2681 69.6184 39.2274 69.6663 39.1929 69.7078C38.5472 70.485 37.732 71.0527 36.8055 71.4772C36.7673 71.4948 36.7284 71.5127 36.6888 71.5309C36.2696 71.7242 35.7819 71.9492 35.3015 72.0413C33.9866 72.2937 32.9645 72.3721 31.5172 72.1813L30.2936 71.8713C30.1789 71.8404 30.1457 71.8358 30.1147 71.8249C30.0809 71.813 30.0497 71.7936 29.9183 71.7244C27.2105 70.2991 26.2379 68.3156 26.2416 65.1354C26.2419 64.9207 26.2461 64.5325 26.2514 64.0379ZM50.6673 53.1387C50.6549 52.4789 50.6483 52.128 51.2367 51.9757C51.8876 51.8073 54.5212 51.8873 56.444 51.9457C57.2044 51.9688 57.8537 51.9886 58.2251 51.9882C58.688 51.9878 59.2389 51.9807 59.8452 51.9728C62.6546 51.9365 66.6543 51.8847 68.6048 52.4158C69.6383 52.6972 70.6487 53.5092 71.2231 54.2967L71.736 55.0834C72.3167 56.4057 72.6581 57.2872 72.6538 58.995L72.7373 69.635C72.7445 69.951 72.772 70.2361 72.7964 70.4897C72.888 71.441 72.9369 71.9491 71.7185 71.9786C70.8451 71.9998 69.9882 71.9921 69.1253 71.9844C68.7784 71.9813 68.4305 71.9781 68.0801 71.9769C66.9451 71.9729 66.4376 71.3201 66.2569 70.2406C66.0505 69.0081 66.0919 64.5811 66.1197 61.614C66.1269 60.8477 66.1332 60.1787 66.134 59.6873C66.1342 59.5743 66.1353 59.4691 66.1363 59.3705C66.1444 58.5708 66.1481 58.2061 65.645 57.628L65.6402 57.6225C65.6208 57.6003 65.58 57.5535 65.5635 57.5374C65.4823 57.4589 65.1494 57.2412 65.0423 57.1974C64.5898 57.0128 62.9899 57.0368 62.0201 57.0513C61.8173 57.0543 61.642 57.057 61.5105 57.0572C60.3165 57.0591 59.8799 56.9575 59.7303 57.12C59.6402 57.218 59.6542 57.4117 59.6696 57.7817C59.7326 59.3002 59.7133 61.4914 59.6959 63.4644C59.6884 64.3168 59.6812 65.1284 59.6812 65.8275L59.6842 71.1957C59.6625 71.8136 59.3726 71.9809 58.7494 72.0026C57.6173 72.0422 56.2456 72.0319 55.1118 71.9916C54.8758 71.9833 54.6691 71.9811 54.4882 71.9791C53.3024 71.9664 53.2219 71.9655 53.223 70.3244L53.2231 59.6009C53.2231 57.6832 53.2904 57.1857 53.0963 57.0424C52.9756 56.9533 52.7538 57.0011 52.3521 56.9297C51.8234 56.8356 51.2397 56.4484 50.9621 56.0464C50.779 55.7815 50.6865 55.3611 50.6721 55.0214C50.6584 54.6939 50.6626 54.3419 50.6667 53.99C50.6699 53.7233 50.673 53.4567 50.6684 53.2009C50.668 53.1798 50.6676 53.1591 50.6673 53.1387ZM86.0031 57.8888C86.5049 57.3594 86.7111 57.257 87.4721 57.0024C88.8354 56.5463 90.2422 57.1406 90.9428 58.0143C91.6405 58.8842 92.0006 60.2311 92.09 61.5098C92.2757 64.1708 91.8213 67.5618 89.3833 68.1032C88.7134 68.2519 87.8655 68.2188 87.2353 68.0348C83.9697 67.0818 84.1648 59.828 86.0031 57.8888ZM17.6915 66.0327C18.0749 65.7847 18.4821 65.6691 18.9899 65.555C21.176 65.0636 23.6719 67.5704 22.8186 70.0153C22.5177 70.8774 22.0828 71.4577 21.3004 71.9685C21.0348 72.1419 20.4159 72.4362 20.0759 72.4728C17.0296 72.8005 15.4717 69.995 16.1617 67.9553C16.3045 67.5331 16.3185 67.474 16.3517 67.4291C16.3815 67.3887 16.4269 67.3597 16.596 67.0873L17.6915 66.0327Z" fill="white"/>
</svg>
