<svg width="120" height="120" viewBox="0 0 120 120" fill="none" xmlns="http://www.w3.org/2000/svg">
<g clip-path="url(#clip0_273_1127)">
<rect width="120" height="120" fill="#0062AA"/>
<path fill-rule="evenodd" clip-rule="evenodd" d="M22 59.8294C23.0611 59.8294 22.8157 59.792 22.8891 59.2084C23.1906 56.8114 22.8972 56.7112 23.6461 53.1415C24.725 47.9986 27.1824 42.8222 30.4263 38.7938C31.5946 37.3429 33.7414 35.1278 35.2199 33.9307C39.7406 30.2702 44.934 27.8316 51.0391 26.6577C60.2153 24.8933 69.73 26.7563 75.9989 31.1815C79.1682 33.4189 81.3992 35.7047 83.6502 38.9263C84.9279 40.7551 88.4043 46.6728 88.7581 49.3767L85.0329 49.4373C85.5843 50.1336 86.2153 51.0434 86.5745 52.1047H98.3583C97.0642 44.8695 92.3907 36.1723 87.0611 31.4424C82.8626 27.7165 78.7559 24.9206 72.5906 22.9666C47.3435 14.9653 22.219 32.1964 22 59.8294Z" fill="white"/>
<path fill-rule="evenodd" clip-rule="evenodd" d="M99 61.185L98.1384 61.1752C95.7742 90.8853 62.0619 100.759 43.8587 87.1489C40.8434 84.8946 38.7155 82.4482 36.5134 79.0961C35.2752 77.2111 32.1035 71.0032 31.8088 68.4014C32.8984 68.2051 32.8984 68.2051 32.8984 68.2051C33.1215 67.5265 33.7168 64.8537 33.7168 64.8537L22.379 64.8458C22.4435 68.531 25.3637 75.6092 26.86 78.3365C27.9731 80.365 29.2231 82.162 30.4969 83.7529C30.8474 84.1907 31.183 84.5767 31.5198 84.9975L35.0056 88.45C38.4393 91.2132 41.4107 93.3166 46.4389 95.2839C61.2869 101.094 77.6403 97.2261 87.6461 87.0833C93.2046 81.4488 96.9306 74.1879 98.4238 66.0147C98.6604 64.7203 99 62.5141 99 61.185Z" fill="white"/>
<path fill-rule="evenodd" clip-rule="evenodd" d="M71.2062 52.623C73.2809 52.6628 75.3373 52.5939 77.4102 52.5705C80.007 52.5413 80.961 52.2185 81.8434 54.4649C83.1774 57.861 81.0851 60.4498 78.2838 61.7301L77.7012 62.0634C78.4274 63.4717 79.4351 64.5427 78.9758 67.129C78.5263 69.6608 76.0774 72.2659 74.6862 72.4576C73.3373 72.6433 67.2441 72.376 64.8036 72.5517L64.027 74.7502C66.7952 74.7591 69.5357 74.7577 72.2768 74.7502C75.5041 74.741 76.9459 75.1016 79.1657 73.328C80.4272 72.3199 81.8085 70.4492 82.2514 68.1149C82.4742 66.9409 82.4556 65.617 82.0519 64.5181C81.5771 63.2248 81.1037 62.9374 80.3469 62.1306C82.6621 61.2752 83.6545 60.6553 84.6419 58.7225C85.5871 56.8722 85.8251 54.2987 84.9469 52.2702C84.1141 50.3466 82.7627 49.4371 80.1287 49.4165C77.6903 49.3975 74.652 49.2684 72.2768 49.4244L71.2062 52.623Z" fill="white"/>
<path fill-rule="evenodd" clip-rule="evenodd" d="M34.0541 68.2963C40.3037 68.2565 39.0181 69.1204 40.2618 65.2235C40.6086 64.1364 40.94 63.1391 41.2853 62.0204C41.9475 59.8753 42.6195 57.7379 43.3269 55.6124C43.9428 53.7618 47.2196 43.7356 47.4212 42.614L42.3926 42.6141L34.0541 68.2963Z" fill="white"/>
<path fill-rule="evenodd" clip-rule="evenodd" d="M49.4323 68.2897C52.1035 68.2988 53.2524 68.2835 53.2524 68.2835C53.2032 68.3348 53.7885 66.881 54.3232 65.245C55.4602 61.7657 61.3522 44.2945 61.6955 42.6854C59.4077 42.6752 57.956 42.6155 57.956 42.6155L49.4323 68.2897Z" fill="white"/>
<path fill-rule="evenodd" clip-rule="evenodd" d="M56.1881 74.6689L59.8835 74.7441L68.1094 49.4397L64.3253 49.4389L56.1881 74.6689Z" fill="white"/>
<path fill-rule="evenodd" clip-rule="evenodd" d="M40.4859 68.2693L42.1158 68.289L45.8869 56.2074L48.9974 65.6834C49.3877 64.2465 49.942 62.7429 50.3962 61.3197C51.2169 58.7478 51.0298 59.3486 50.2043 56.8123C49.7077 55.2862 47.8189 48.8321 47.2207 47.9989L40.4859 68.2693Z" fill="white"/>
<path fill-rule="evenodd" clip-rule="evenodd" d="M66.9643 65.5634L74.815 65.5437C75.3386 67.6044 74.4083 69.4365 72.5689 69.5201C68.2073 69.7183 66.3816 69.3308 65.7256 69.5111L65.2304 71.0685C65.2304 71.0685 70.7591 71.1146 72.881 71.1191C74.5428 71.1227 74.8372 71.2643 75.828 70.2909C76.4905 69.6399 76.9388 68.8938 77.2711 67.8097C77.8791 65.8264 77.8156 62.3395 75.7576 62.223L68.0496 62.1764L66.9643 65.5634Z" fill="white"/>
<path fill-rule="evenodd" clip-rule="evenodd" d="M61.3145 74.7331C62.9909 74.7407 62.5739 75.1484 63.6334 71.8336C63.985 70.7335 64.3019 69.72 64.6539 68.6286C65.5314 65.9076 70.5422 50.7963 70.8095 49.4048L69.3944 49.4166L61.3145 74.7331Z" fill="white"/>
<path fill-rule="evenodd" clip-rule="evenodd" d="M54.75 68.2791L56.1221 68.2931L64.2415 42.6731C62.8403 42.5587 63.0501 42.5719 62.6138 43.9549L61.0691 48.7481C60.3276 50.9626 59.6668 53.0427 58.9491 55.2311C58.245 57.3782 57.5437 59.5424 56.841 61.7255C56.2166 63.665 55.1668 66.3521 54.75 68.2791Z" fill="white"/>
<path fill-rule="evenodd" clip-rule="evenodd" d="M70.3454 55.0851L78.5978 55.1166C79.5487 57.0945 78.0873 59.395 76.2104 59.5219C74.404 59.6439 68.908 59.592 68.908 59.592L68.5065 60.8363C70.9097 60.8917 73.3546 60.845 75.7527 60.8414C79.6683 60.8356 81.2967 56.9468 80.5762 55.1271C80.0711 53.8517 79.5783 53.9942 78.0142 53.9974C75.9152 54.0017 70.7671 54.0303 70.7671 54.0303L70.3454 55.0851Z" fill="white"/>
<path fill-rule="evenodd" clip-rule="evenodd" d="M51.5831 57.5446C52.1444 55.8955 52.52 55.9246 52.0062 54.1074C51.5014 52.3221 49.0953 43.8536 48.7361 43.3429C48.0803 45.026 47.7306 44.8999 48.3171 46.7716C48.9356 48.7457 51.1524 56.8822 51.5831 57.5446Z" fill="white"/>
<path fill-rule="evenodd" clip-rule="evenodd" d="M34.2303 63.379L34.7497 62.0212H22.0397C22.0594 62.8144 22.213 63.3541 22.213 63.3541L34.2303 63.379Z" fill="white"/>
<path fill-rule="evenodd" clip-rule="evenodd" d="M87.1703 54.898L98.6916 54.8675L98.5851 53.4415L86.9798 53.4597L87.1703 54.898Z" fill="white"/>
<path fill-rule="evenodd" clip-rule="evenodd" d="M58.9963 39.1793L62.8744 39.2015L63.8418 35.9739L60.0383 35.9867L58.9963 39.1793Z" fill="white"/>
<path fill-rule="evenodd" clip-rule="evenodd" d="M65.441 45.7995L69.3093 45.8262L70.2745 42.6431L66.4511 42.6201L65.441 45.7995Z" fill="white"/>
<path fill-rule="evenodd" clip-rule="evenodd" d="M70.5656 45.804C71.648 45.8109 72.0673 45.8322 72.0673 45.8322C72.4252 44.7586 72.7406 43.7287 73.0736 42.6472L71.592 42.6459L70.5656 45.804Z" fill="white"/>
<path fill-rule="evenodd" clip-rule="evenodd" d="M58.2982 41.438L62.1483 41.4243L62.4725 40.3249L58.7068 40.277L58.2982 41.438Z" fill="white"/>
<path fill-rule="evenodd" clip-rule="evenodd" d="M64.7211 48.0449L68.5652 48.0597L68.8828 46.948L65.0395 46.9477L64.7211 48.0449Z" fill="white"/>
<path fill-rule="evenodd" clip-rule="evenodd" d="M64.107 39.194L65.1807 39.1833L66.3835 35.9742L65.1896 36.0024L64.107 39.194Z" fill="white"/>
<path fill-rule="evenodd" clip-rule="evenodd" d="M63.4536 41.4308L64.7101 41.4381L65.0236 40.3923L63.7912 40.3965L63.4536 41.4308Z" fill="white"/>
<path fill-rule="evenodd" clip-rule="evenodd" d="M69.9863 48.0525L71.2428 48.0597L71.5562 47.0139L70.324 47.0181L69.9863 48.0525Z" fill="white"/>
</g>
<defs>
<clipPath id="clip0_273_1127">
<rect width="120" height="120" fill="white"/>
</clipPath>
</defs>
</svg>
