<svg width="120" height="120" viewBox="0 0 120 120" fill="none" xmlns="http://www.w3.org/2000/svg">
<g clip-path="url(#clip0_273_576)">
<rect width="120" height="120" fill="#EAEAEA"/>
<path fill-rule="evenodd" clip-rule="evenodd" d="M0.0454102 119.954H119.954V82.717H0.0454102V119.954Z" fill="#F80000"/>
<path fill-rule="evenodd" clip-rule="evenodd" d="M56.0842 42.3041L56.4804 41.8678L56.5069 71.281L63.1149 71.2522L63.0986 33.2267L54.8474 33.2452C53.7512 33.5145 44.7167 48.8689 43.1254 50.1569C42.4476 48.873 41.1935 47.1537 40.3519 45.9204C39.3639 44.473 38.4227 43.1055 37.4036 41.6165C36.9818 40.9999 32.247 33.4319 31.4278 33.2425L23.2383 33.2459L23.2532 71.3728L29.9765 71.3852L30.0885 42.0581C32.3062 45.0001 34.5355 48.2296 36.6048 51.3051C38.7443 54.4857 41.07 57.6613 43.1931 60.8664C44.3815 59.53 45.276 57.9659 46.3508 56.4168L52.862 47.0109C53.884 45.5609 55.091 43.8723 56.0842 42.3043V42.3041Z" fill="#030404"/>
<path fill-rule="evenodd" clip-rule="evenodd" d="M96.9198 70.684L97.0032 64.1579C92.2862 65.1403 86.5314 66.4452 81.7867 64.676C77.4184 63.0472 76.7229 57.8131 76.7282 52.2715C76.7332 46.8733 77.3453 41.5771 81.8561 39.9387C86.4117 38.2839 92.4947 39.3763 96.9263 40.4727L97.002 33.9457C90.548 32.6506 81.9074 31.572 76.3732 34.9176C71.235 38.0239 69.775 44.4912 69.7662 52.2715C69.7574 59.9057 71.3128 66.8404 76.2855 69.7109C81.679 72.8242 90.5247 72.3944 96.92 70.6841L96.9198 70.684Z" fill="#030404"/>
<path fill-rule="evenodd" clip-rule="evenodd" d="M56.0845 42.3041C56.7659 42.7067 55.8248 68.1817 56.3586 71.3698L63.1966 71.4702C63.5218 69.6609 63.2832 41.1743 63.2968 35.6435C63.2991 34.7132 63.4204 33.9082 63.0989 33.2266L63.1152 71.2521L56.5072 71.2809L56.4807 41.8677L56.0845 42.304V42.3041Z" fill="#676868"/>
</g>
<defs>
<clipPath id="clip0_273_576">
<rect width="120" height="120" fill="white"/>
</clipPath>
</defs>
</svg>
