<svg width="120" height="120" viewBox="0 0 120 120" fill="none" xmlns="http://www.w3.org/2000/svg">
<g clip-path="url(#clip0_850_2018)">
<rect width="120" height="120" fill="#1D3D6B"/>
<path fill-rule="evenodd" clip-rule="evenodd" d="M26.7904 67.2292C27.9261 72.2687 30.5115 76.7705 33.6989 80.6456C34.6388 81.7883 34.7962 82.1131 35.6811 82.1065C36.8069 82.098 37.935 82.1047 39.061 82.1047H79.6643C81.7351 82.1047 81.6385 82.3301 82.3799 81.4627L83.944 79.6555C86.8982 76.0334 89.4889 70.7115 90.3692 65.7351C90.5767 64.5618 91.1786 60.7948 90.9483 59.6766H26C25.9999 62.5924 26.1163 64.2379 26.7904 67.2292Z" fill="white"/>
<path fill-rule="evenodd" clip-rule="evenodd" d="M43.0456 35.4423L80.2528 35.4153C79.9663 34.8618 77.0575 32.7994 76.2132 32.246C69 27.5184 62.0071 26.3948 53.8934 27.2749C48.9287 27.9788 44.7492 29.5989 40.6342 32.2339C39.9873 32.6481 36.818 34.8913 36.5981 35.4201L40.186 35.4203L43.0456 35.4423Z" fill="white"/>
<path fill-rule="evenodd" clip-rule="evenodd" d="M71.1456 89.4132C72.6953 88.7433 74.0067 88.0565 75.3653 87.2415C76.1529 86.769 78.751 85.0717 79.103 84.4769L37.7193 84.4801C37.9898 84.8536 38.2841 85.0061 38.6447 85.2932C40.6586 86.8968 43.6053 88.5832 45.9602 89.5197C48.6568 90.5922 50.8412 91.2441 53.777 91.6659C59.6291 92.5067 65.7111 91.7622 71.1456 89.4132Z" fill="white"/>
<path fill-rule="evenodd" clip-rule="evenodd" d="M29.6406 47.4534L53.7722 47.4648C53.7488 45.1574 53.2428 43.4156 52.1905 41.5126C51.8553 40.9065 51.4352 40.4219 51.1834 39.9468L33.1073 39.9453C32.1546 39.9341 32.1424 39.9159 31.1559 41.6701C30.149 43.4606 29.7782 45.0755 29.6406 47.4534Z" fill="white"/>
<path fill-rule="evenodd" clip-rule="evenodd" d="M33.7863 38.4929H49.7499C49.7499 38.4929 45.7105 35.6614 41.8458 35.6614C37.9811 35.6614 33.7863 38.4929 33.7863 38.4929Z" fill="white"/>
<path fill-rule="evenodd" clip-rule="evenodd" d="M32.6036 55.6412H50.9323C50.9323 55.6412 46.2944 58.892 41.8571 58.892C37.4199 58.892 32.6036 55.6412 32.6036 55.6412Z" fill="white"/>
</g>
<defs>
<clipPath id="clip0_850_2018">
<rect width="120" height="120" fill="white"/>
</clipPath>
</defs>
</svg>
