<svg width="120" height="120" viewBox="0 0 120 120" fill="none" xmlns="http://www.w3.org/2000/svg">
<g clip-path="url(#clip0_273_943)">
<path d="M120 0H0V120H120V0Z" fill="#DE0B0B"/>
<path fill-rule="evenodd" clip-rule="evenodd" d="M43.4499 87.6013C47.3496 88.5076 64.3685 87.7321 68.4231 86.6398C89.9826 80.8324 89.6864 55.6235 91.4097 37.9146C91.5961 35.9989 92.1455 34.1802 91.9636 32.2606C91.9636 32.2606 87.9062 32.2962 85.9876 32.295C83.0223 32.2932 80.8924 32.2694 80.8167 32.3849C79.6157 34.2164 78.9722 60.3759 75.3912 67.1904C71.8682 73.8951 67.4128 76.1741 58.2012 76.1911C42.0807 76.2207 44.643 74.7697 43.8589 81.5685C43.6808 83.1121 43.1813 86.0645 43.4499 87.6013Z" fill="#FDFDFD"/>
<path fill-rule="evenodd" clip-rule="evenodd" d="M37.9925 87.5618C38.9284 86.7066 38.8298 85.3547 39.0051 83.7885C39.1788 82.2374 39.3114 80.8486 39.4996 79.2442C40.3608 71.9012 40.8702 58.5974 43.3643 53.0155C47.0317 39.4481 74.1276 43.3789 74.1276 43.3789C74.8076 42.067 75.6373 34.0855 75.6572 32.295C75.6572 32.295 64.0861 32.0016 61.5691 32C48.7425 31.9921 39.5772 35.8079 33.458 47.5818C28.6001 56.9288 28.8727 72.8845 27.2111 84.5431C26.6359 88.5789 27.0349 87.7884 30.9757 87.7797C32.7972 87.7757 36.5855 88.1118 37.9925 87.5618Z" fill="#FDFDFD"/>
<path fill-rule="evenodd" clip-rule="evenodd" d="M72.0696 49.2151C72.1299 49.5418 59.4548 48.8993 57.2316 49.2192C52.7892 49.858 49.9677 52.1985 48.0792 55.4357C46.056 58.9039 46.1114 64.3913 48.7331 67.3316C51.8293 70.8041 54.8069 70.715 60.727 70.7219C67.1008 70.7295 68.4621 70.4564 69.2485 64.2C69.5945 61.4467 69.4716 62.0916 64.0951 62.0916C62.4936 62.0916 57.537 62.3793 56.4918 61.8508C54.9575 61.075 55.0019 57.9897 57.6477 57.7585C59.9307 57.5592 63.1231 57.742 65.4988 57.7496C68.553 57.7594 69.6708 57.3964 71.0069 55.6245C71.981 54.3327 72.4887 51.1516 72.0696 49.2151Z" fill="#FDFDFD"/>
</g>
<defs>
<clipPath id="clip0_273_943">
<rect width="120" height="120" fill="white"/>
</clipPath>
</defs>
</svg>
