<svg width="120" height="120" viewBox="0 0 120 120" fill="none" xmlns="http://www.w3.org/2000/svg">
<g clip-path="url(#clip0_273_200)">
<path fill-rule="evenodd" clip-rule="evenodd" d="M0 120H120V0H0V120Z" fill="#261E59"/>
<path fill-rule="evenodd" clip-rule="evenodd" d="M60.0024 71.3796L64.1066 71.352L65.1872 67.6298L65.7593 65.4268L67.8141 58.1816L68.3952 56.013L70.3672 48.8851C70.5703 47.929 70.9764 46.4967 71.252 45.5091L64.1551 45.4453L60.3213 58.3646C59.9565 59.6198 56.604 70.3784 56.5615 71.3281L60.0023 71.3796H60.0024Z" fill="#048948"/>
<path fill-rule="evenodd" clip-rule="evenodd" d="M53.4635 52.3709C53.3785 53.0378 53.2154 53.9146 52.8531 54.3504C52.8372 55.1168 52.0942 57.2569 51.8486 58.0846C51.5537 59.079 51.2061 60.9213 50.6989 61.5411C50.855 61.8512 50.8107 61.4649 50.7082 61.9608C50.6806 62.0942 50.554 62.4294 50.5056 62.5765C50.3397 63.0811 50.3508 63.4237 50.0276 63.8253C50.0378 64.3924 48.181 70.7082 47.8986 70.9842C47.7771 72.3385 47.0469 73.5665 46.937 74.6962L54.4347 74.7465C55.2089 72.0883 61.6326 49.5472 61.5597 48.8332L58.5453 48.7827L54.6452 48.8111C54.2982 49.626 53.8876 51.7812 53.4634 52.3708L53.4635 52.3709Z" fill="#048948"/>
<path fill-rule="evenodd" clip-rule="evenodd" d="M65.1874 67.6298L64.1068 71.352L60.0026 71.3797L58.9146 74.7079C63.7589 74.6939 68.5981 74.6919 73.4218 74.7148C77.1748 74.7327 80.8527 71.2404 80.7911 67.4409L65.1874 67.6298Z" fill="#FDFDFD"/>
<path fill-rule="evenodd" clip-rule="evenodd" d="M68.3956 56.0131C69.5241 56.0385 82.7164 56.124 83.3853 55.9594C84.5868 55.6636 85.6171 54.6282 85.9118 53.4691C86.3478 51.7542 85.4606 50.5316 84.6444 49.7956C83.2544 48.5423 82.6883 48.8729 80.5168 48.8729C77.1604 48.8729 73.7125 48.7961 70.3675 48.8852L68.3955 56.0131H68.3956Z" fill="#FDFDFD"/>
<path fill-rule="evenodd" clip-rule="evenodd" d="M53.4631 52.3713C53.8873 51.7817 54.298 49.6264 54.6449 48.8116L58.545 48.7832L59.5121 45.339C55.2748 45.1559 49.1973 45.3246 44.6224 45.3178C42.57 45.3146 42.0253 45.4896 41.0452 46.7314C40.2994 47.6764 39.8197 49.0494 40.4643 50.4343C40.9159 51.4043 42.1038 52.4288 43.5026 52.4513C45.2359 52.479 52.2729 52.6557 53.4632 52.3714L53.4631 52.3713Z" fill="#FDFDFD"/>
<path fill-rule="evenodd" clip-rule="evenodd" d="M47.8984 70.9845C48.1807 70.7086 50.0374 64.3928 50.0273 63.8256C47.393 64.0505 37.2649 63.5658 36.3741 64.0396C33.9022 65.3545 33.2116 68.1364 34.9021 69.9074C35.8878 70.9398 36.7133 70.9958 38.5009 70.9943C41.6151 70.9917 44.7926 71.0578 47.8984 70.9845Z" fill="#FDFDFD"/>
<path fill-rule="evenodd" clip-rule="evenodd" d="M50.6989 61.5413C51.2061 60.9215 51.5537 59.0792 51.8486 58.0848C52.0941 57.257 52.8372 55.117 52.8531 54.3506C50.308 54.569 40.1463 54.1291 39.2644 54.5508C38.3833 54.9718 37.3846 55.9728 37.0249 57.0403C36.392 58.9191 37.4436 60.7211 39.2456 61.388C40.1084 61.7075 48.2795 61.3608 50.699 61.5413H50.6989Z" fill="#FDFDFD"/>
<path fill-rule="evenodd" clip-rule="evenodd" d="M65.7598 65.4271C66.4911 65.6884 79.1213 65.5074 81.1492 65.5157C81.0711 61.862 79.9452 59.9691 77.5364 58.7139C75.8867 58.1598 70.0109 58.1818 67.8146 58.1818L65.7599 65.427L65.7598 65.4271Z" fill="#FDFDFD"/>
</g>
<defs>
<clipPath id="clip0_273_200">
<rect width="120" height="120" fill="white"/>
</clipPath>
</defs>
</svg>
