<svg width="40" height="40" viewBox="0 0 40 40" fill="none" xmlns="http://www.w3.org/2000/svg">
<g clip-path="url(#clip0_1011_551)">
<rect width="40" height="40" fill="#002476"/>
<path fill-rule="evenodd" clip-rule="evenodd" d="M10.7321 25.2791C10.7321 25.2791 10.7321 25.279 10.2635 25.3399C9.79485 25.4008 9.79484 25.4007 9.79482 25.4005L9.79458 25.3983L9.79396 25.3926L9.79172 25.3713C9.78981 25.3528 9.78708 25.326 9.78371 25.2912C9.77695 25.2218 9.7676 25.1209 9.75698 24.993C9.73574 24.7373 9.7094 24.3732 9.68866 23.9367C9.64729 23.0658 9.62773 21.897 9.71806 20.7218C9.80759 19.557 10.0083 18.3372 10.4331 17.3931C10.8642 16.435 11.5739 15.6755 12.674 15.6755C13.7745 15.6755 14.4826 16.4355 14.9112 17.3942C15.3335 18.3386 15.5307 19.5586 15.6169 20.7233C15.7038 21.8986 15.6809 23.0674 15.6371 23.9383C15.6151 24.3748 15.5877 24.7388 15.5657 24.9946C15.5547 25.1224 15.5451 25.2234 15.5381 25.2928C15.5347 25.3275 15.5318 25.3544 15.5299 25.3728L15.5276 25.3941L15.5269 25.3999L15.5267 25.4021C15.5267 25.4023 15.5267 25.4024 15.0582 25.3399C14.5898 25.2774 14.5898 25.2775 14.5898 25.2775L14.5899 25.2766L14.5903 25.2724L14.5923 25.2545C14.594 25.2383 14.5966 25.2138 14.5998 25.1815C14.6063 25.1169 14.6154 25.0212 14.6259 24.8989C14.647 24.6542 14.6734 24.3034 14.6946 23.882C14.7371 23.0371 14.7584 21.9183 14.676 20.8058C14.5929 19.6829 14.4074 18.6153 14.0626 17.8439C13.7241 17.0869 13.2806 16.703 12.674 16.703C12.0669 16.703 11.6217 17.0875 11.2807 17.8451C10.9335 18.6167 10.745 19.6846 10.6587 20.8074C10.5731 21.9199 10.5911 23.0387 10.6313 23.8836C10.6513 24.3049 10.6767 24.6557 10.697 24.9005C10.7072 25.0228 10.7161 25.1184 10.7223 25.183C10.7255 25.2153 10.728 25.2399 10.7297 25.256L10.7315 25.274L10.732 25.2781L10.7321 25.2791Z" fill="white"/>
<path fill-rule="evenodd" clip-rule="evenodd" d="M17.7627 25.2791C17.7627 25.2791 17.7627 25.279 17.258 25.3399C16.7534 25.4008 16.7533 25.4007 16.7533 25.4005L16.7531 25.3983L16.7524 25.3926L16.75 25.3713C16.7479 25.3528 16.745 25.326 16.7414 25.2912C16.7341 25.2218 16.724 25.1209 16.7126 24.993C16.6897 24.7373 16.6613 24.3732 16.639 23.9367C16.5944 23.0658 16.5734 21.897 16.6707 20.7218C16.7671 19.557 16.9832 18.3372 17.4407 17.3931C17.905 16.435 18.6692 15.6755 19.8539 15.6755C21.0391 15.6755 21.8017 16.4355 22.2633 17.3942C22.7181 18.3386 22.9304 19.5586 23.0232 20.7233C23.1169 21.8986 23.0922 23.0674 23.045 23.9383C23.0213 24.3748 22.9918 24.7388 22.9681 24.9946C22.9563 25.1224 22.9459 25.2234 22.9384 25.2928C22.9347 25.3275 22.9317 25.3544 22.9295 25.3728L22.9271 25.3941L22.9264 25.3999L22.9261 25.4021C22.9261 25.4023 22.9261 25.4024 22.4216 25.3399C21.9171 25.2774 21.9171 25.2775 21.9171 25.2775L21.9172 25.2766L21.9177 25.2724L21.9198 25.2545C21.9217 25.2383 21.9244 25.2138 21.9279 25.1815C21.9349 25.1169 21.9447 25.0212 21.9561 24.8989C21.9787 24.6542 22.0071 24.3034 22.03 23.882C22.0758 23.0371 22.0987 21.9183 22.01 20.8058C21.9205 19.6829 21.7208 18.6153 21.3493 17.8439C20.9848 17.0869 20.5072 16.703 19.8539 16.703C19.2002 16.703 18.7207 17.0875 18.3536 17.8451C17.9796 18.6167 17.7766 19.6846 17.6836 20.8074C17.5915 21.9199 17.6109 23.0387 17.6541 23.8836C17.6757 24.3049 17.703 24.6557 17.7249 24.9005C17.7359 25.0228 17.7454 25.1184 17.7522 25.183C17.7556 25.2153 17.7583 25.2399 17.7601 25.256L17.7621 25.274L17.7626 25.2781L17.7627 25.2791Z" fill="white"/>
<path fill-rule="evenodd" clip-rule="evenodd" d="M24.6272 25.2791C24.6272 25.2791 24.6272 25.279 24.1586 25.3399C23.69 25.4008 23.69 25.4007 23.69 25.4005L23.6897 25.3983L23.6891 25.3926L23.6869 25.3713C23.685 25.3528 23.6822 25.326 23.6788 25.2912C23.6721 25.2218 23.6627 25.1209 23.6521 24.993C23.6309 24.7373 23.6045 24.3732 23.5838 23.9367C23.5424 23.0658 23.5229 21.897 23.6132 20.7218C23.7027 19.557 23.9034 18.3372 24.3282 17.3931C24.7594 16.435 25.469 15.6755 26.5691 15.6755C27.6696 15.6755 28.3777 16.4355 28.8064 17.3942C29.2286 18.3386 29.4258 19.5586 29.512 20.7233C29.599 21.8986 29.5761 23.0674 29.5322 23.9383C29.5102 24.3748 29.4828 24.7388 29.4609 24.9946C29.4499 25.1224 29.4402 25.2234 29.4333 25.2928C29.4298 25.3275 29.427 25.3544 29.425 25.3728L29.4227 25.3941L29.4221 25.3999L29.4218 25.4021C29.4218 25.4023 29.4218 25.4024 28.9534 25.3399C28.4849 25.2774 28.4849 25.2775 28.4849 25.2775L28.485 25.2766L28.4855 25.2724L28.4874 25.2545C28.4891 25.2383 28.4917 25.2138 28.4949 25.1815C28.5014 25.1169 28.5106 25.0212 28.5211 24.8989C28.5421 24.6542 28.5685 24.3034 28.5897 23.882C28.6323 23.0371 28.6535 21.9183 28.5712 20.8058C28.4881 19.6829 28.3026 18.6153 27.9577 17.8439C27.6192 17.0869 27.1757 16.703 26.5691 16.703C25.9621 16.703 25.5168 17.0875 25.1759 17.8451C24.8287 18.6167 24.6401 19.6846 24.5538 20.8074C24.4683 21.9199 24.4863 23.0387 24.5264 23.8836C24.5464 24.3049 24.5718 24.6557 24.5922 24.9005C24.6023 25.0228 24.6112 25.1184 24.6175 25.183C24.6206 25.2153 24.6231 25.2399 24.6248 25.256L24.6267 25.274L24.6271 25.2781L24.6272 25.2791Z" fill="white"/>
<path d="M29.1073 13.8221H10.1173V14.7486H29.1073V13.8221Z" fill="white"/>
<path fill-rule="evenodd" clip-rule="evenodd" d="M6.87503 6.87488H32.8125V32.8124H6.87503V6.87488ZM8.25014 8.24998H31.4374V31.4373H8.25014V8.24998Z" fill="#002476"/>
</g>
<defs>
<clipPath id="clip0_1011_551">
<rect width="40" height="40" fill="white"/>
</clipPath>
</defs>
</svg>
