<svg width="120" height="120" viewBox="0 0 120 120" fill="none" xmlns="http://www.w3.org/2000/svg">
<rect width="120" height="120" fill="#ED1941"/>
<path fill-rule="evenodd" clip-rule="evenodd" d="M51.0013 80.3018V94.1201C51.0013 94.1201 50.7966 97.6278 55.4613 95.0604C60.126 92.4929 82 80 82 80L51.0013 80.3018Z" fill="#EB8A9D"/>
<path fill-rule="evenodd" clip-rule="evenodd" d="M38.9439 34H80.0561C82.2283 34 84 35.7686 84 37.937V76.063C84 78.2314 82.2283 80 80.0561 80H38.9439C36.7717 80 35 78.2314 35 76.063V37.937C35 35.7686 36.7717 34 38.9439 34Z" fill="white"/>
<path fill-rule="evenodd" clip-rule="evenodd" d="M50.8032 43H67.1968C67.6392 43 68 43.3682 68 43.8197V47.2121C68 47.6636 67.6392 48.0318 67.1968 48.0318H57.2424C56.8 48.0318 56.4392 48.4 56.4392 48.8515V54.109C56.4392 54.5605 56.8 54.9288 57.2424 54.9288H65.1141C65.5565 54.9288 65.9173 55.297 65.9173 55.7485V59.054C65.9173 59.5055 65.5565 59.8738 65.1141 59.8738H57.3699C56.9275 59.8738 56.5667 60.242 56.5667 60.6935V70.1803C56.5667 70.6318 56.2059 71 55.7635 71H50.8032C50.3608 71 50 70.6318 50 70.1803V43.8197C50 43.3682 50.3608 43 50.8032 43Z" fill="#ED1941"/>
</svg>
