<svg width="120" height="120" viewBox="0 0 120 120" fill="none" xmlns="http://www.w3.org/2000/svg">
<rect width="120" height="120" fill="#0572BB"/>
<path fill-rule="evenodd" clip-rule="evenodd" d="M80.3765 31H46.9917C46.6824 31.4452 46.563 31.8499 46.5577 32.6679C45.7537 32.7774 45.6704 32.6177 45.0567 32.9718L44.7068 33.2197C44.654 32.1015 44.6841 31.692 44.2004 31C40.1443 31 35.6052 32.1148 33.7705 33.9342C29.7995 37.8717 30.0017 42.3818 30.0017 47.713C30.0017 56.814 30.0012 65.9151 30.0017 75.0161C30.0021 80.3945 30.2209 82.3743 33.2946 85.3604C36.0591 88.0464 39.8199 87.9267 44.5906 87.9267C47.7464 87.9267 71.1246 88.1617 72.0238 87.7902C72.6542 87.3054 72.4313 86.9399 72.5514 86.1484C74.0013 86.1371 74.244 86.1217 74.2514 84.6229C74.2565 83.5758 74.2383 82.5188 74.2363 81.4697L74.2348 43.0796C74.2353 41.5987 74.5006 40.1058 73.4086 39.0706C73.1933 38.8665 73.1436 38.8752 72.9288 38.7082L72.397 38.2094C78.0257 38.1148 81.7307 37.5673 81.729 43.7415L81.7283 73.196C81.7283 74.7366 82.0286 78.9755 81.2513 80.0013C80.6997 80.7292 79.1524 80.7299 78.2096 80.7214C76.3771 80.7049 76.1837 80.5412 76.158 82.4268C75.2363 82.5016 75.1959 82.4419 74.5173 82.7504C74.2859 83.3827 74.1276 87.1498 74.6355 87.6515C75.2045 88.2136 78.5754 87.8545 79.4314 87.6599C81.3046 87.2342 83.451 86.0429 84.5767 84.7849C86.7024 82.409 89.0254 81.1 88.9998 75.8436L88.9971 43.907C88.9972 38.8018 88.9005 35.5144 84.3632 32.5348C82.5634 31.3529 81.1993 31.411 80.3765 31ZM52.0387 51.7481L56.0304 47.7937C58.6267 45.2495 61.8029 42.9357 64.887 40.9822C66.5622 39.9211 68.5447 38.7943 70.4174 38.2305L52.0528 38.2039L52.0387 51.7481ZM75.3867 83.4718L75.3615 86.9319L78.44 86.842C81.2317 86.9676 84.4925 84.2486 85.688 81.4192C86.7315 78.9495 86.3234 72.5191 86.3234 69.3901C86.3234 60.9508 86.3217 52.5117 86.3233 44.0725C86.324 40.5593 85.8651 37.5002 82.4434 35.2614C79.0703 33.0542 75.7273 33.605 71.1875 33.605C69.1796 33.605 46.985 33.4594 45.6388 33.6643C45.6295 35.7408 45.4529 77.1952 45.7242 78.3656C46.1596 80.2443 49.0515 80.2947 49.3635 78.0855C50.2857 71.5557 47.0725 66.8384 54.0345 57.0595C57.2799 52.5011 62.6133 47.6324 67.7927 45.1056L67.8454 83.329C60.6474 83.3299 53.4554 83.329 46.2634 83.329C43.0899 83.329 38.6686 83.9597 36.562 82.13C33.9976 79.9024 34.6416 77.1306 34.6416 73.196C34.6416 70.2947 34.3856 42.5613 34.8554 41.0514C36.0416 35.7657 41.9642 38.3243 41.9719 37.3173L42.0004 33.6153C30.6956 33.4898 30.8818 40.1253 30.8818 48.8712C30.8818 57.5862 30.8818 66.3012 30.8818 75.0161C30.8819 78.6101 30.6556 82.2325 34.1191 84.8802C37.6218 87.5576 40.0167 87.0568 45.0925 87.0568C47.1191 87.0568 70.2768 87.2008 71.6039 87.0049C71.7701 80.0536 71.6085 72.8905 71.6085 65.9151C71.6085 58.8552 71.5946 51.794 71.6088 44.7342C71.6119 43.1478 71.8036 41.2901 70.1537 40.9839C66.4722 40.3007 59.4411 46.5189 56.776 48.8439C55.1498 50.2626 52.9706 52.7229 51.7043 54.4174L49.4378 57.6578L49.4064 37.3258C56.4597 37.3974 63.5174 37.35 70.5184 37.3293C73.4707 37.3205 77.977 36.7655 80.1671 38.1726C82.9022 39.9298 82.6019 42.3367 82.6019 46.2236L82.6032 77.4988C82.6103 82.6612 79.3746 83.2366 75.3867 83.4718ZM44.3445 35.1197H42.937C42.937 35.1197 43.3696 39.2052 41.566 39.2052C40.3815 39.2052 37.5736 38.8179 37.5832 40.1156C37.8711 79.1853 37.7026 71.957 37.7026 78.5614C37.7026 78.5614 37.7026 81.9543 41.0236 81.9543C44.3445 81.9543 45.8181 81.9543 45.8181 81.9543C44.7039 81.6473 44.4582 81.5802 44.2567 80.51L44.3445 35.1197ZM66.4038 47.946V81.9543H49.0732C58.9203 75.4759 42.2106 64.8873 66.4038 47.946Z" fill="white"/>
<path fill-rule="evenodd" clip-rule="evenodd" d="M46.9917 31H44.2004C44.6841 31.692 44.654 32.1015 44.7068 33.2197L45.0567 32.9718C45.6704 32.6177 45.7537 32.7774 46.5577 32.6679C46.563 31.8499 46.6824 31.4452 46.9917 31Z" fill="#FAFAFA"/>
</svg>
