<svg width="120" height="120" viewBox="0 0 120 120" fill="none" xmlns="http://www.w3.org/2000/svg">
<rect width="120" height="120" fill="#47A239"/>
<path d="M59.9999 118.555C92.3387 118.555 118.555 92.3387 118.555 59.9999C118.555 27.6611 92.3387 1.44531 59.9999 1.44531C27.6611 1.44531 1.44531 27.6611 1.44531 59.9999C1.44531 92.3387 27.6611 118.555 59.9999 118.555Z" fill="#47A239"/>
<path fill-rule="evenodd" clip-rule="evenodd" d="M66.5205 24.3999C38.3211 29.5967 42.8709 53.6616 42.9231 80.6819C42.9289 83.6348 42.5337 90.9816 43.3011 93.1909C44.6132 96.9684 50.025 97.2479 51.9098 93.9535C54.843 88.8277 50.1596 54.3032 54.6998 43.5504C57.0503 37.9836 62.7703 33.4268 70.5549 32.7327C74.4452 32.3859 78.7389 31.8864 76.9667 26.4913C75.7116 22.6713 69.8579 23.7848 66.5205 24.3999Z" fill="#FDFFFD"/>
</svg>
