<svg width="120" height="120" viewBox="0 0 120 120" fill="none" xmlns="http://www.w3.org/2000/svg">
<g clip-path="url(#clip0_273_267)">
<rect width="120" height="120" fill="#2841A5"/>
<path fill-rule="evenodd" clip-rule="evenodd" d="M33.0465 62.7571L33.008 83.9539L43.5786 83.9087L43.5038 73.342L54.2352 73.1896L54.2077 62.9517L64.8194 62.8358L64.7707 73.1432L75.1773 73.159L75.144 62.7869L64.8193 62.8359L64.7945 52.188L75.0644 52.223C75.2625 52.2197 75.4457 52.2351 75.4457 52.2351C75.5338 53.839 75.4614 55.5848 75.4579 57.2035C75.4579 59.0575 75.4749 60.9121 75.4343 62.7655L86 62.8342L85.9435 41.6003L75.4059 41.6333L75.3556 31.0511L54.1384 31L54.0041 41.5516L43.7076 41.5688L43.5785 31.0913L33 31.0524L33.0465 52.2429C34.8128 52.3582 40.9891 52.321 43.2373 52.4032L43.1814 62.754C33.0466 62.7571 43.1814 62.754 33.0466 62.7571H33.0465ZM75.4705 83.8857L85.9073 83.9008L85.8862 73.4791L75.4953 73.5404L75.4705 83.8857ZM54.1385 84H64.8162L64.6717 73.4442L54.2083 73.4647L54.1385 84ZM54.2077 52.0482L54.2337 41.8193L64.7648 41.9201L64.7947 52.188L54.2078 52.0481L54.2077 52.0482Z" fill="white"/>
</g>
<defs>
<clipPath id="clip0_273_267">
<rect width="120" height="120" fill="white"/>
</clipPath>
</defs>
</svg>
