<svg width="120" height="120" viewBox="0 0 120 120" fill="none" xmlns="http://www.w3.org/2000/svg">
<rect width="120" height="120" fill="#E32876"/>
<path fill-rule="evenodd" clip-rule="evenodd" d="M34.1007 85.9965L42.192 86C42.3232 84.8936 42.2218 58.8312 42.2216 56.3896C42.2214 53.0135 42.8127 50.8684 44.3589 48.6251C45.6446 46.76 47.3961 45.1242 49.5958 43.9218C52.3356 42.4242 54.1732 42.1267 57.8019 42.1268H72.7984C74.376 42.1268 76.2477 42.0368 77.7894 42.1457C77.8715 45.0777 77.907 53.3972 77.499 55.989C76.5376 62.0961 73.2376 66.1122 67.7629 67.5862C65.4314 68.2139 63.7505 68.19 61.2325 68.19C56.4635 68.19 51.674 68.1465 46.9076 68.1935L46.9053 76.2792C50.7403 76.357 54.6508 76.2839 58.488 76.2839C62.4348 76.2839 65.7355 76.4624 69.4229 75.5223C79.0951 73.0565 84.2293 65.9959 85.6244 57.0619C86.1664 53.5912 85.9482 44.5371 85.9482 40.1179C85.9482 33.1961 86.9201 34.0464 80.4437 34.0464C74.6281 34.0464 68.8124 34.0464 62.9967 34.0464C59.4467 34.0464 55.0985 33.7866 51.8132 34.4967C43.0217 36.397 35.9005 43.5873 34.3659 51.7288C33.7855 54.8076 34.0695 59.6369 34.0695 62.9758C34.0695 64.6828 33.9542 84.8839 34.1007 85.9965Z" fill="white"/>
</svg>
