<svg width="120" height="120" viewBox="0 0 120 120" fill="none" xmlns="http://www.w3.org/2000/svg">
<rect width="120" height="120" fill="#114993"/>
<path d="M63.5017 43.0926C57.0384 43.5183 48.3921 45.1178 39.661 47.5034C35.526 48.633 30.3651 50.4154 24.8153 52.6301C20.2888 54.4363 19.7543 54.6792 19.7543 54.9285C19.7543 55.2043 19.7702 55.2016 21.3811 54.6534C33.1642 50.6431 46.7864 48.0843 59.9727 47.4044C65.3891 47.1251 70.9348 47.4515 73.0504 48.1739C73.2978 48.2584 72.8886 48.7021 71.7143 49.6223C71.2318 50.0006 70.7918 50.3474 70.7364 50.3933C70.6809 50.4392 71.5553 50.3402 72.6792 50.1735C73.8033 50.0066 74.7827 49.8101 74.8559 49.7366C75.0218 49.5702 74.9774 47.6142 74.7713 46.004C74.6178 44.806 74.6094 44.787 74.0762 44.414C72.4708 43.2916 68.3329 42.7743 63.5017 43.0926Z" fill="#ACAAAB"/>
<path d="M86.9383 65.7238L85.1636 65.6564C78.7469 65.4122 69.6893 66.7823 60.2427 69.426C54.8325 70.94 49.8981 72.6225 45.9403 74.3027C42.814 75.6297 42.8328 75.6184 42.8328 76.1942C42.8328 76.6024 42.8703 76.6646 43.0689 76.5848C46.0726 75.3786 48.2095 74.7215 53.1655 73.4803C65.3093 70.4389 73.7332 69.2449 80.4869 69.6081C83.6706 69.7793 87.7747 70.2829 90.0425 70.7808C91.0194 70.9952 91.0261 70.9996 90.7848 71.2735C89.957 72.2138 86.214 74.8974 83.6584 76.383C82.9904 76.7714 82.5653 77.0461 82.7138 76.9936C85.1639 76.1262 89.7726 74.3163 90.8116 73.8134C92.6803 72.909 92.6894 72.896 92.6489 71.1999C92.5968 69.0145 92.4138 67.858 92.06 67.4775C91.5988 66.9814 90.553 66.5018 89.2154 66.1728L88.0098 65.8762C87.5278 65.7766 87.3422 65.76 87.0747 65.736C87.0318 65.7322 86.987 65.7284 86.9383 65.7238Z" fill="#ACAAAB"/>
<path d="M86.4928 49.6773C77.2866 49.865 63.9745 52.086 50.0533 55.7568C40.8203 58.1915 30.4264 61.8109 19.9907 66.2251L18 67.0671V67.5283C18 67.7819 18.0495 67.9895 18.1096 67.9895C18.1699 67.9895 18.7621 67.8041 19.4255 67.5775C25.8011 65.4001 33.9562 63.0958 40.4035 61.6502C54.8768 58.405 69.6571 56.5647 82.6463 56.3904C88.2185 56.3158 91.2421 56.4306 94.1094 56.8256C95.8418 57.0643 98.1669 57.5737 98.1669 57.7143C98.1669 57.9047 96.491 59.3492 94.7254 60.6803C92.7799 62.147 91.1049 63.2574 88.6051 64.7373L86.9383 65.7238C86.987 65.7284 87.0318 65.7322 87.0747 65.736C87.3422 65.76 87.5278 65.7766 88.0098 65.8762L91.5702 64.5464C97.4454 62.3517 99.3862 61.4521 100.464 60.4237C100.989 59.9229 101.001 59.8911 101 58.9773C100.998 57.755 100.753 53.7044 100.645 53.1241C100.49 52.2846 99.3221 51.415 97.4951 50.7774C95.2112 49.9805 91.2159 49.5809 86.4928 49.6773Z" fill="white"/>
</svg>
