<svg width="120" height="120" viewBox="0 0 120 120" fill="none" xmlns="http://www.w3.org/2000/svg">
<g clip-path="url(#clip0_273_1266)">
<path d="M120 0H0V120H120V0Z" fill="#D60033"/>
<path fill-rule="evenodd" clip-rule="evenodd" d="M55.3769 65.0054L53.0583 60.5638C52.2742 59.0196 51.5892 57.5431 50.8429 56.0164C48.9531 52.1502 43.1555 38.1935 45.0699 35.153C47.9313 30.6087 57.059 45.7118 58.2488 47.5368C59.121 48.8747 59.9252 50.6092 62.1544 50.4385C63.3399 50.3476 75.4203 45.5638 77.1944 44.9062C78.8546 44.2909 80.4508 43.6418 82.0912 43.0354C82.8925 42.739 86.5577 41.4401 87 41.1057C86.4217 39.7678 83.3906 36.2346 82.466 35.3006C76.8946 29.6737 70.4461 25.6478 61.5207 25.084C47.6438 24.2075 38.0331 30.3135 32.4461 37.5164C29.4415 41.3897 27.101 45.7054 25.802 51.6423C24.6448 56.9316 24.6274 65.3574 26.4959 70.1914C26.9395 71.3389 27.6918 72.8968 28.463 73.4173C29.6221 74.1994 31.4418 74.1214 32.8136 73.6122L47.8945 67.9085C49.0909 67.4489 54.8175 65.4524 55.3769 65.0054Z" fill="#FEFEFE"/>
<path fill-rule="evenodd" clip-rule="evenodd" d="M64.0951 53.9879L66.365 58.3862C67.1223 59.913 67.7871 61.3539 68.5417 62.9381C70.2025 66.425 76.0461 80.4172 74.3257 83.7423C72.5898 87.0975 67.4009 80.4798 66.7521 79.6035C64.8316 77.0101 63.0863 74.3136 61.3012 71.4953C60.4439 70.1418 59.6736 68.4258 57.4939 68.5577C56.2186 68.6348 44.4081 73.4302 42.6939 74.0891C39.4667 75.3295 36.1395 76.5665 33 77.8575C33.479 79.1966 36.4641 82.5861 37.4996 83.703C42.6433 89.2504 49.7189 93.4261 58.0969 93.925C71.8545 94.7443 81.1056 88.7384 86.6922 81.4467C89.6296 77.6127 91.9929 73.1936 93.221 67.3098C94.3354 61.9707 94.3739 53.6876 92.5472 48.8368C92.1171 47.6948 91.4099 46.167 90.6185 45.602C89.5261 44.8222 87.7492 44.8567 86.3669 45.3813C83.8665 46.3302 81.4195 47.2754 78.9494 48.2352C77.9233 48.634 64.6228 53.6539 64.0951 53.9879Z" fill="#FEFEFE"/>
</g>
<defs>
<clipPath id="clip0_273_1266">
<rect width="120" height="120" fill="white"/>
</clipPath>
</defs>
</svg>
