<svg width="120" height="120" viewBox="0 0 120 120" fill="none" xmlns="http://www.w3.org/2000/svg">
<rect width="120" height="120" fill="#68B92E"/>
<path fill-rule="evenodd" clip-rule="evenodd" d="M32.0107 87.6625C32.9818 87.888 34.0946 87.961 35.0761 87.9128C39.0582 87.9132 87.2903 88.2267 87.8564 87.6625C88.352 87.1685 87.422 81.3193 87.2216 80.1619C85.6255 70.948 81.6444 66.0597 76.014 59.689C75.995 59.671 75.9684 59.6443 75.9498 59.626C75.931 59.6077 75.9054 59.5801 75.8869 59.5617L74.8839 58.655C73.4168 57.1693 72.9333 57.8684 74.288 55.5844L75.1939 54.0727C75.8097 52.949 87.5274 33.1415 87.6015 32.2541C87.3509 32.122 87.2255 32 86.8365 32H78.4214C74.3539 32 73.3683 34.8257 71.6891 37.6169C68.8244 42.3789 57.1011 61.111 59.3707 62.0445C59.8778 62.2531 60.1692 62.4543 60.6618 62.6638C67.6188 65.6236 75.8854 76.6063 73.7039 76.6063H43.7411C43.3491 76.6063 43.2311 76.2339 43.2311 75.8438V44.8354C43.2311 42.8041 43.2414 43.3104 47.1836 43.3104C49.5338 43.3104 56.651 43.4577 58.5245 43.3037C60.246 43.1623 61.3869 42.9959 62.7929 41.5853C62.8114 41.5667 62.8383 41.5402 62.8561 41.5211C62.9187 41.4547 63.0746 41.26 63.1423 41.1711C63.7182 40.4138 68.2213 32.8092 68.2213 32.5083C68.2213 32.2108 68.0097 32 67.7112 32H32.5208C31.9466 32 31.9971 32.5516 32.0042 33.1371C32.2251 51.2737 32.0108 69.5127 32.0108 87.6625H32.0107Z" fill="white"/>
</svg>
