<svg width="40" height="40" viewBox="0 0 40 40" fill="none" xmlns="http://www.w3.org/2000/svg">
<g clip-path="url(#clip0_25_2758)">
<path d="M20 40C31.0457 40 40 31.0457 40 20C40 8.9543 31.0457 0 20 0C8.9543 0 0 8.9543 0 20C0 31.0457 8.9543 40 20 40Z" fill="black"/>
<path d="M27.256 25.793H26.534C25.2897 25.8021 24.0547 25.5779 22.893 25.132C23.188 24.747 23.4517 24.3391 23.6815 23.912C24.3431 22.6796 24.6924 21.3037 24.6985 19.905C24.6985 18.471 24.322 17.1035 23.6815 15.8985C23.4518 15.4696 23.1881 15.0598 22.893 14.673C24.057 14.2352 25.2905 14.0113 26.534 14.012H27.256V15.944H31.2375V10.0305H26.534C23.9915 10.0305 21.607 10.6815 19.644 11.8305C17.666 10.6865 15.2865 10.0355 12.739 10.0305H8.04054V20.8405H12.017V14.017H12.739C14.066 14.017 15.3015 14.261 16.3845 14.678C16.0897 15.0647 15.8262 15.4743 15.5965 15.903C14.951 17.108 14.5745 18.4765 14.5745 19.91C14.5795 21.339 14.946 22.712 15.5965 23.917C15.8262 24.344 16.0897 24.752 16.3845 25.137C15.2199 25.5782 13.9844 25.8024 12.739 25.7985H12.017V23.1695H8.04004V29.7795H12.7385C15.1235 29.7795 17.3555 29.21 19.252 28.193C19.384 28.127 19.5115 28.051 19.6435 27.9795C19.7655 28.056 19.898 28.127 20.03 28.193C21.9215 29.205 24.1535 29.7795 26.5335 29.7795H31.237V23.195H27.2555V25.7935L27.256 25.793ZM20.168 22.0355C20.0205 22.3055 19.8425 22.5745 19.639 22.839C19.4373 22.5877 19.2586 22.3188 19.105 22.0355C18.744 21.354 18.556 20.6525 18.556 19.9055C18.556 19.1575 18.744 18.4555 19.105 17.7745C19.2475 17.505 19.4305 17.2355 19.639 16.971C19.8425 17.236 20.0205 17.505 20.168 17.7745C20.529 18.456 20.717 19.1575 20.712 19.905C20.712 20.6525 20.534 21.354 20.168 22.0355Z" fill="white"/>
<path fill-rule="evenodd" clip-rule="evenodd" d="M29.7986 18.5015L29.2491 16.844L28.7051 18.5015L27.0681 17.8915L28.0236 19.351L26.5341 20.251L28.2681 20.4135L28.0391 22.1425L29.2491 20.8865L30.4596 22.1425L30.2306 20.4135L31.9696 20.251L30.4696 19.351L31.4256 17.8915L29.7986 18.5015Z" fill="white"/>
</g>
<defs>
<clipPath id="clip0_25_2758">
<rect width="40" height="40" fill="white"/>
</clipPath>
</defs>
</svg>
