<svg width="40" height="40" viewBox="0 0 40 40" fill="none" xmlns="http://www.w3.org/2000/svg">
<g clip-path="url(#clip0_472_205)">
<path d="M20 40C31.0457 40 40 31.0457 40 20C40 8.9543 31.0457 0 20 0C8.9543 0 0 8.9543 0 20C0 31.0457 8.9543 40 20 40Z" fill="#991E66"/>
<path d="M20.705 17.8776C20.1319 17.4198 19.3682 17.1324 18.401 17.1324C16.358 17.1324 14.7009 18.8935 14.7009 21.0651C14.7009 23.2368 16.358 25 18.401 25C19.3699 25 20.1319 24.7131 20.705 24.2548V24.8561H22.6915V17.2716H20.705V17.8776ZM18.7003 23.178C17.5882 23.178 16.6879 22.233 16.6879 21.0656C16.6879 19.8981 17.5882 18.9549 18.7003 18.9549C19.2625 18.9549 19.8017 19.1773 20.1992 19.5733C20.5968 19.9693 20.8201 20.5064 20.8201 21.0664C20.8201 21.6264 20.5968 22.1635 20.1992 22.5595C19.8017 22.9555 19.2625 23.178 18.7003 23.178ZM30.6258 24.8578H32.6122V18.7719H30.6258V24.8578ZM30.2375 16.8124C30.2375 17.1773 30.3831 17.5272 30.6421 17.7852C30.9011 18.0432 31.2525 18.1882 31.6187 18.1882C31.9851 18.1882 32.3362 18.0432 32.5954 17.7852C32.8544 17.5272 33 17.1773 33 16.8124C33 15.7596 32.141 15.0256 30.8978 15.0007C29.4533 14.9736 27.631 15.7549 26.8151 18.1577V17.2716H24.8299V24.8578H26.8156V20.4479C26.8156 17.6074 28.4425 15.3013 30.8856 15.3258C31.1124 15.3296 31.3372 15.3668 31.5527 15.4362C31.1982 15.4535 30.8638 15.6061 30.6189 15.8623C30.3743 16.1185 30.2378 16.4587 30.238 16.8124H30.2375ZM14.9027 17.2716H12.0968L8.98656 20.2104V15.0857H7V24.8578H8.98656V22.0951L12.0968 24.8578H14.8872L10.8002 21.0729L14.9027 17.2716Z" fill="white"/>
</g>
<defs>
<clipPath id="clip0_472_205">
<rect width="40" height="40" fill="white"/>
</clipPath>
</defs>
</svg>
