<svg width="40" height="40" viewBox="0 0 40 40" fill="none" xmlns="http://www.w3.org/2000/svg">
<g clip-path="url(#clip0_25_807)">
<path d="M20 40C31.0457 40 40 31.0457 40 20C40 8.9543 31.0457 0 20 0C8.9543 0 0 8.9543 0 20C0 31.0457 8.9543 40 20 40Z" fill="#1B2A4D"/>
<path fill-rule="evenodd" clip-rule="evenodd" d="M24.7094 24.77H22.0094V21.065H17.9279V24.77H15.2279V15.2885H17.9279V18.679H22.0094V15.2885H24.7094V24.77Z" fill="white"/>
<path fill-rule="evenodd" clip-rule="evenodd" d="M31.805 21.1905L32.9975 19.9975L31.8045 18.8045L30.8 17.8C31.6165 16.7325 32.056 15.414 32.056 14.0325C32.0594 13.2152 31.9009 12.4053 31.5898 11.6496C31.2786 10.8938 30.8208 10.2072 30.2428 9.62928C29.6649 9.05137 28.9782 8.59365 28.2224 8.28251C27.4667 7.97138 26.6568 7.81299 25.8395 7.8165C24.458 7.8165 23.1395 8.256 22.072 9.072L21.067 8.067L19.9375 7L18.7445 8.193L17.803 9.198C16.7355 8.3815 15.417 7.942 14.0355 7.942C13.2182 7.93849 12.4082 8.09688 11.6525 8.40801C10.8967 8.71915 10.21 9.17687 9.63208 9.75478C9.05414 10.3327 8.59635 11.0193 8.28516 11.7751C7.97396 12.5308 7.81551 13.3407 7.81895 14.158C7.81895 15.5395 8.25895 16.858 9.07495 17.9255L8.06995 18.9305L6.87695 20.1235L8.07045 21.3165L9.07495 22.321C8.25845 23.3885 7.81895 24.707 7.81895 26.0885C7.81551 26.9058 7.97395 27.7156 8.28511 28.4713C8.59628 29.227 9.05401 29.9137 9.63191 30.4915C10.2098 31.0694 10.8964 31.5272 11.6521 31.8383C12.4078 32.1495 13.2177 32.3079 14.035 32.3045C15.4165 32.3045 16.735 31.865 17.8025 31.049L18.807 32.0535L20 33.2465L21.193 32.0535L22.198 31.0485C23.265 31.865 24.5835 32.3045 25.965 32.3045C26.7823 32.308 27.5922 32.1496 28.3479 31.8385C29.1037 31.5274 29.7904 31.0696 30.3683 30.4917C30.9463 29.9138 31.4041 29.2272 31.7153 28.4714C32.0264 27.7157 32.1849 26.9058 32.1815 26.0885C32.1815 24.707 31.7415 23.3885 30.9255 22.321L31.8045 21.191L31.805 21.1905ZM30.4235 25.963C30.4259 26.5574 30.3106 27.1463 30.0843 27.6959C29.858 28.2455 29.525 28.7449 29.1047 29.1651C28.6844 29.5854 28.185 29.9182 27.6354 30.1445C27.0858 30.3708 26.4968 30.486 25.9025 30.4835C24.6465 30.4835 23.4535 29.9185 22.6375 29.1025L22.135 28.6L20 30.735L17.8025 28.6L17.3 29.1025C16.8741 29.5588 16.3588 29.9225 15.7863 30.1709C15.2137 30.4193 14.5961 30.5472 13.972 30.5465C13.3775 30.549 12.7885 30.4338 12.2389 30.2075C11.6892 29.9812 11.1898 29.6483 10.7695 29.2279C10.3492 28.8076 10.0163 28.3082 9.78997 27.7586C9.56366 27.2089 9.44844 26.6199 9.45095 26.0255C9.45095 24.77 9.95345 23.5765 10.8325 22.7605L11.3975 22.1955L9.26245 20.0605L11.3975 17.9255L10.8955 17.3605C10.0165 16.544 9.51395 15.351 9.51395 14.0955C9.51144 13.5011 9.62666 12.9121 9.85297 12.3624C10.0793 11.8128 10.4122 11.3134 10.8325 10.8931C11.2528 10.4728 11.7522 10.1398 12.3019 9.91352C12.8515 9.68721 13.4405 9.57199 14.035 9.5745C15.3535 9.5745 16.4835 10.1395 17.3 10.956L17.8025 11.458L19.9375 9.323L22.0725 11.458L22.6375 10.893C23.4535 10.014 24.6465 9.5115 25.9025 9.5115C26.4969 9.50899 27.0859 9.62421 27.6355 9.85052C28.1852 10.0768 28.6846 10.4097 29.1049 10.8301C29.5252 11.2504 29.8581 11.7498 30.0844 12.2994C30.3107 12.8491 30.426 13.4381 30.4235 14.0325C30.4235 15.351 29.8585 16.4815 29.042 17.2975L28.477 17.9255L30.612 20.0605L28.477 22.1325L28.979 22.635C29.858 23.514 30.4235 24.644 30.4235 25.963Z" fill="white"/>
</g>
<defs>
<clipPath id="clip0_25_807">
<rect width="40" height="40" fill="white"/>
</clipPath>
</defs>
</svg>
