<svg width="40" height="40" viewBox="0 0 40 40" fill="none" xmlns="http://www.w3.org/2000/svg">
<g clip-path="url(#clip0_25_4379)">
<path d="M20 40C31.0457 40 40 31.0457 40 20C40 8.9543 31.0457 0 20 0C8.9543 0 0 8.9543 0 20C0 31.0457 8.9543 40 20 40Z" fill="#E41684"/>
<path d="M14.796 9.00346H25.197V35.4505H14.796V9.00346Z" fill="black"/>
<path fill-rule="evenodd" clip-rule="evenodd" d="M25.715 26.183C25.6655 26.158 25.616 26.158 25.567 26.134C25.271 25.986 25.074 25.69 24.9015 25.394C24.803 25.345 24.6795 25.099 24.6305 25C24.6055 24.975 24.4575 24.8275 24.507 24.8275C24.507 24.6795 23.9895 23.7675 23.9155 23.5705C23.8415 23.4965 23.866 23.3485 23.7925 23.2995C23.7925 23.127 23.546 22.757 23.472 22.5595C23.447 22.5105 23.447 22.4365 23.398 22.3875L23.028 21.6475C22.923 21.466 22.8324 21.2766 22.757 21.081C22.487 20.5312 22.2564 19.963 22.067 19.3805C22.0175 19.3555 21.993 19.1585 21.9685 19.109V19.0845C21.845 18.7885 21.771 18.4435 21.6725 18.148C21.623 17.852 21.5 17.581 21.426 17.285H21.401V17.2605H21.426C21.303 16.8905 21.204 16.4965 21.106 16.102C21.0315 15.954 20.9575 15.683 20.9575 15.5105C20.933 15.4615 20.8345 14.919 20.81 14.8945C20.6865 14.1795 20.514 13.44 20.4895 12.7005C20.4895 12.676 20.4895 12.676 20.4155 11.5175C20.465 11.419 20.4405 11.222 20.4155 11.0985C20.4155 10.877 20.366 10.4825 20.465 10.285C20.391 10.0385 20.44 9.74298 20.465 9.49648C20.465 9.44698 20.465 9.44698 20.514 8.68298C20.5635 8.60898 20.6125 8.43648 20.6865 8.41198C20.7115 8.58448 20.7115 8.75698 20.736 8.92948H20.761C20.785 8.95448 20.785 8.97898 20.81 9.02798H20.7605C20.7855 9.27448 20.8345 9.52098 20.859 9.79248L20.785 10.31C20.933 10.778 20.933 10.778 20.933 10.803C20.908 10.8275 20.884 10.8275 20.859 10.852C20.884 11.074 21.0315 11.3205 20.9085 11.567C20.9085 11.7395 20.9825 11.912 21.1055 12.06H21.1305C21.1055 11.764 21.007 11.419 21.007 11.0985C21.032 11.1235 21.032 11.222 21.0565 11.222C21.1305 11.641 21.155 11.9615 21.1795 11.986C21.1795 12.2815 21.1795 12.5775 21.2535 12.873C21.426 13.391 21.648 13.908 21.722 14.4755C21.771 14.5495 21.771 14.8945 21.845 14.9435C22.19 16.2995 22.757 17.6055 23.2005 18.912C23.25 19.0845 23.3485 19.257 23.398 19.4295C23.595 19.8485 23.718 20.3415 23.9895 20.7115C23.9895 20.7115 23.9895 20.6865 24.0145 20.6865C24.0145 20.8345 24.1865 21.0565 24.2605 21.1795C24.2855 21.1795 24.2855 21.1795 24.384 21.4015H24.4085V21.4505C24.4825 21.5985 24.581 21.7465 24.6305 21.8945H24.655C24.655 21.993 24.778 22.2395 24.8275 22.3625C24.9015 22.609 24.9505 22.831 24.9505 23.1025C25 23.2745 25 23.2745 25.0245 23.373H25.0495C25.0495 23.472 25.148 23.743 25.2465 23.7925H25.2215C25.2215 23.866 25.419 24.0635 25.4435 24.088H25.5175C25.5175 24.0385 25.4925 23.965 25.4925 23.9155H25.5425C25.69 24.704 26.3805 25.0495 26.134 25.912C26.0845 25.986 26.06 26.035 26.0105 26.0845C25.8875 26.134 25.838 26.183 25.715 26.183ZM22.88 24.6305C22.88 24.6055 22.88 24.6055 22.88 24.6305C22.905 24.581 22.905 24.5565 22.905 24.507C22.831 24.384 22.831 24.31 22.7075 24.2115C22.683 24.2605 22.7075 24.285 22.7575 24.31C22.7815 24.4085 22.8065 24.5315 22.8805 24.63L22.88 24.6305ZM22.5845 24.2605L22.6095 24.2355H22.5845C22.5595 24.2355 22.5595 24.2355 22.5845 24.2605ZM13.884 24.3345L13.933 24.285C14.007 24.285 14.0565 24.3345 14.081 24.2115C14.106 24.1865 14.106 24.1615 14.1305 24.1375C14.278 24.0385 14.352 23.94 14.4505 23.7675C14.648 23.7185 14.7955 23.595 14.919 23.3975C14.993 23.324 14.993 23.2995 15.067 23.25C15.092 23.2005 15.141 23.053 15.19 23.053V23.028H15.215V22.979C15.2395 22.9295 15.338 22.9295 15.338 22.8555C15.3875 22.8555 15.3875 22.8555 15.412 22.831V22.806H15.437C15.5845 22.7075 15.732 22.5845 15.905 22.535V22.5105C15.93 22.5105 15.954 22.4855 15.979 22.4855C16.0775 22.338 16.2255 22.1905 16.349 22.067C16.4965 21.9435 16.669 21.845 16.743 21.771C16.866 21.722 17.0385 21.574 17.162 21.574V21.549C17.2115 21.549 17.2115 21.549 17.285 21.5C17.4825 21.4505 17.704 21.377 17.926 21.303C18.2109 21.2539 18.4995 21.2291 18.7885 21.229C18.8875 21.278 19.405 21.278 19.405 21.426C19.5035 21.352 19.627 21.5245 19.75 21.5C19.7995 21.525 19.873 21.5495 19.9225 21.5985C20.3415 21.648 20.5635 22.0915 20.933 22.264C20.884 22.215 20.785 22.067 20.7115 22.067V22.042C20.6615 22.042 20.6375 21.993 20.6125 21.9685C20.7115 21.9435 20.81 22.0175 20.8345 22.141C20.9085 22.215 20.9825 22.2395 21.0565 22.2885V22.3625C21.1055 22.3875 21.1055 22.3875 21.2535 22.486C21.3275 22.56 21.4015 22.7075 21.4755 22.806C21.6725 22.979 21.9435 23.2255 21.9685 23.2255C21.9435 23.053 21.8945 22.8805 21.7465 22.7815C21.6725 22.683 21.5245 22.3875 21.4015 22.3625C21.2535 22.0425 20.8345 21.6975 20.6125 21.4755C20.3415 21.2535 20.3415 21.2535 20.317 21.229C20.1935 21.1305 20.021 21.0315 19.972 20.9825C19.676 20.884 19.4295 20.7115 19.134 20.662C18.8875 20.5635 18.5915 20.5635 18.3205 20.5635C18.3205 20.5635 18.2955 20.5635 18.2955 20.5885C18.148 20.5635 17.9755 20.6375 17.852 20.5885V20.6125C17.827 20.6375 17.778 20.6125 17.7535 20.6125C17.655 20.6865 17.5315 20.6375 17.4085 20.7115C17.4085 20.6865 17.4085 20.6865 17.3835 20.6865C17.359 20.6865 17.359 20.7115 17.3345 20.736H17.3095C17.285 20.785 17.1865 20.785 17.1375 20.785V20.81C16.6935 20.884 16.176 21.3275 15.8065 21.623H15.7815C15.8065 21.574 15.831 21.5245 15.8805 21.4755C15.8805 21.352 16.102 21.007 16.2005 20.884V20.8345C16.2255 20.8095 16.25 20.8095 16.25 20.785V20.7605C16.275 20.7115 16.2995 20.662 16.3485 20.6125C16.3235 20.5385 16.447 20.391 16.472 20.3415V20.2185C16.5705 20.1195 16.6195 19.972 16.7185 19.8735C16.7675 19.75 16.8415 19.627 16.891 19.5035C16.9155 19.3805 16.94 19.257 17.0385 19.1835C17.236 18.8875 17.3345 18.4435 17.5315 18.148C17.581 17.9755 17.6795 17.655 17.803 17.507C17.852 17.359 17.9015 17.2115 17.9755 17.0635C18.0495 16.817 18.148 16.5705 18.222 16.3485C18.296 16.2255 18.296 16.0035 18.3695 15.905C18.493 15.535 18.616 15.141 18.7145 14.7465C18.7395 14.697 18.7645 14.648 18.7885 14.574V14.549C18.8625 14.278 18.986 13.9825 19.035 13.7115C19.0845 13.6375 19.1585 13.3665 19.1585 13.2675C19.257 12.9225 19.3805 12.5525 19.454 12.183C19.479 12.109 19.528 11.8875 19.553 11.863C19.8485 10.778 20.0705 9.64448 20.169 8.51048C20.2675 7.84548 20.366 7.17948 20.514 6.53848C20.539 6.43998 20.539 6.09498 20.6125 6.02098C20.6375 5.40498 20.6375 4.76398 20.6375 4.14798C20.6125 3.87698 20.514 3.58098 20.2675 3.50698C20.021 3.48198 19.9225 3.60548 19.75 3.75348C19.725 3.82748 19.6515 4.02448 19.5775 4.04948C19.5775 4.04948 19.5775 4.07398 19.6025 4.09848L19.5775 4.12348C19.5525 4.46848 19.5035 4.81348 19.454 5.15848C19.4295 5.25698 19.3805 5.38048 19.3805 5.47848C19.405 5.47848 19.405 5.47848 19.4295 5.40498H19.479C19.5035 5.42998 19.5035 5.45398 19.528 5.50348C19.528 5.87348 19.5035 6.26748 19.3805 6.61248C19.3555 6.63748 19.331 6.73598 19.3065 6.76048C19.1585 7.03148 19.035 7.32748 19.0105 7.67248C18.9365 7.72198 18.8875 8.90498 18.8875 8.92948C18.8875 9.00348 18.8625 9.54598 18.838 9.57048C18.838 9.61948 18.764 10.2605 18.69 10.31C18.69 10.359 18.567 11.025 18.567 11.074C18.4685 11.2465 18.4435 11.5425 18.3945 11.739C18.3205 12.0105 18.271 12.2815 18.197 12.553C18.148 13.021 18 13.514 17.877 13.9825C17.852 14.1055 17.803 14.229 17.803 14.3525C17.778 14.4755 17.655 14.9685 17.6305 14.9925C17.6305 15.0175 17.6305 15.0175 17.433 15.7075H17.408C17.433 15.7325 17.433 15.7325 17.433 15.8065C17.359 15.9295 17.359 16.2255 17.236 16.2745V16.2995H17.261C17.261 16.324 17.261 16.324 17.211 16.4965C17.1865 16.595 17.1375 17.014 17.1125 17.0385C17.088 17.236 17.014 17.7285 16.891 17.877C16.891 17.9015 16.817 18.0495 16.7925 18.074C16.595 18.419 16.472 18.838 16.373 19.2325H16.398C16.398 19.2075 16.472 19.0105 16.4965 18.9365C16.576 18.7721 16.634 18.5982 16.669 18.419C16.694 18.419 16.694 18.419 16.694 18.3695C16.743 18.493 16.694 18.7145 16.669 18.838C16.595 18.8875 16.4965 18.9365 16.4965 19.035C16.4225 19.183 16.4225 19.38 16.373 19.528H16.3485V19.5035C16.2255 19.454 16.2255 19.972 16.2005 20.0705C16.102 20.2185 15.979 20.3905 15.8805 20.5635C15.8555 20.662 15.8065 20.785 15.8065 20.8835C15.757 20.9575 15.757 20.9575 15.757 20.9825C15.757 20.9825 15.757 21.0075 15.782 21.0075L15.7075 21.229H15.683C15.7325 21.377 15.535 21.623 15.535 21.796L15.56 21.8205C15.5845 21.8205 15.5845 21.7955 15.609 21.7955C15.535 21.8945 15.4615 21.9685 15.338 21.9685V21.993H15.363C15.338 22.067 15.264 22.0915 15.19 22.0915V22.141C15.19 22.141 15.19 22.116 15.1655 22.116C15.2395 21.993 15.2395 21.796 15.338 21.6725C15.363 21.6975 15.363 21.6975 15.3875 21.6725C15.338 21.623 15.4615 21.574 15.486 21.5495C15.511 21.377 15.56 21.2045 15.56 21.0315H15.5105C15.4365 21.1795 15.338 21.352 15.264 21.5245C15.215 21.648 15.0425 21.8945 15.0425 21.993C14.9925 22.141 14.8945 22.4365 14.7465 22.486C14.648 22.683 14.4755 22.856 14.352 23.053C14.204 23.2005 14.0565 23.669 14.352 23.743C14.352 23.768 14.352 23.817 14.327 23.8415C14.155 23.9895 14.155 23.9895 14.032 24.1375C13.982 24.236 13.933 24.2605 13.884 24.3345ZM25.3695 23.9645C25.3695 23.94 25.3695 23.94 25.3695 23.9645V23.9645ZM25.567 23.9645C25.567 23.94 25.567 23.94 25.567 23.9645C25.542 23.94 25.542 23.94 25.567 23.9645ZM25.3945 23.9155C25.3945 23.8905 25.3945 23.8905 25.3945 23.9155C25.3945 23.8905 25.3945 23.8905 25.3945 23.9155ZM22.3875 23.9895C22.412 23.817 22.19 23.6935 22.116 23.595C22.1655 23.4965 21.9685 23.373 21.919 23.2995C21.894 23.1515 21.796 23.0775 21.6725 23.053C21.6975 23.2005 21.9435 23.423 22.0425 23.521C22.1655 23.669 22.264 23.817 22.3875 23.9895ZM22.4365 23.6935H22.4615C22.4365 23.669 22.4365 23.6445 22.4365 23.6195H22.4115C22.4115 23.6445 22.4115 23.6445 22.4365 23.6935ZM22.338 23.4965C22.363 23.4965 22.363 23.4965 22.338 23.4965C22.338 23.447 22.2885 23.447 22.2885 23.398H22.264C22.2825 23.435 22.3076 23.4684 22.338 23.4965ZM14.7465 23.6935C14.7465 23.669 14.7465 23.669 14.7465 23.6935V23.6935ZM22.264 23.398L22.239 23.3485C22.264 23.3735 22.264 23.3735 22.264 23.398ZM23.7185 23.2745C23.743 23.2745 23.743 23.2745 23.7185 23.2745C23.743 23.2745 23.743 23.2745 23.7185 23.2745ZM21.9435 23.1515C21.9435 23.102 21.9435 23.102 21.919 23.102C21.919 23.127 21.919 23.127 21.944 23.1515H21.9435ZM21.894 23.0775C21.895 23.0451 21.8889 23.013 21.8762 22.9832C21.8635 22.9534 21.8445 22.9267 21.8205 22.905C21.8455 22.979 21.8695 23.028 21.8945 23.0775H21.894ZM21.771 22.905C21.796 22.905 21.796 22.905 21.771 22.905C21.796 22.905 21.796 22.88 21.771 22.905C21.771 22.88 21.771 22.88 21.771 22.905C21.771 22.905 21.771 22.88 21.771 22.905ZM15.338 22.88C15.338 22.88 15.338 22.8555 15.338 22.88C15.338 22.8555 15.363 22.8555 15.338 22.88C15.363 22.8555 15.363 22.8555 15.338 22.88C15.338 22.88 15.363 22.88 15.338 22.88ZM15.3875 22.8555C15.3875 22.831 15.3875 22.831 15.3875 22.8555C15.412 22.831 15.412 22.831 15.3875 22.8555C15.412 22.831 15.412 22.831 15.3875 22.8555C15.412 22.8555 15.412 22.8555 15.3875 22.8555ZM14.5495 22.683C14.5495 22.683 14.574 22.683 14.5495 22.683C14.574 22.683 14.574 22.683 14.5495 22.683C14.5495 22.683 14.574 22.683 14.5495 22.683ZM20.9825 22.338C20.9825 22.313 20.9825 22.313 20.9825 22.338C20.9825 22.313 20.9825 22.313 20.9825 22.338C20.9825 22.313 20.9825 22.313 20.9825 22.338ZM14.9685 22.2885C14.9685 22.264 14.9685 22.264 14.9685 22.2885V22.2395H15.0175C14.9925 22.2645 14.9685 22.2645 14.9685 22.2885ZM14.8695 22.2395C14.8695 22.2145 14.8945 22.2145 14.8695 22.2395C14.8945 22.2395 14.8945 22.2395 14.8695 22.2395C14.8695 22.2395 14.8945 22.2395 14.8695 22.2395ZM15.2145 22.067C15.2145 22.067 15.2145 22.042 15.2145 22.067C15.2145 22.042 15.2145 22.042 15.2145 22.067C15.2145 22.042 15.2145 22.042 15.2145 22.067ZM15.5595 21.771C15.5595 21.7465 15.5845 21.7465 15.5845 21.7465V21.7715H15.5595V21.771ZM15.6095 21.7715C15.6095 21.7465 15.6095 21.7465 15.6095 21.7715C15.6585 21.7215 15.6585 21.7215 15.7325 21.6725C15.683 21.6975 15.6585 21.7465 15.609 21.771L15.6095 21.7715ZM15.56 21.697C15.5845 21.574 15.683 21.4755 15.757 21.4015C15.782 21.4015 15.782 21.4015 15.8065 21.3765C15.8065 21.3765 15.8065 21.352 15.7815 21.352L15.8555 21.278C15.8805 21.377 15.7075 21.5245 15.634 21.5985V21.6725C15.609 21.6975 15.5845 21.6975 15.56 21.6975V21.697ZM20.588 21.5245C20.588 21.5 20.563 21.4755 20.563 21.4505C20.563 21.4755 20.563 21.4755 20.588 21.5245ZM15.7815 21.623C15.7815 21.5985 15.7815 21.5985 15.7815 21.623V21.623ZM15.831 21.229C15.831 21.1795 15.856 21.1795 15.8805 21.155V21.18H15.8555L15.8805 21.204C15.8555 21.229 15.8555 21.229 15.831 21.229ZM22.412 20.539H22.437V20.514L22.412 20.539ZM15.88 20.44C15.88 20.44 15.9045 20.44 15.88 20.44C15.9045 20.44 15.88 20.44 15.88 20.44ZM16.0525 20.1935C16.077 20.1935 16.077 20.1935 16.0525 20.1935C16.077 20.1935 16.0525 20.1935 16.0525 20.1935ZM16.6685 19.8485C16.6685 19.8235 16.6685 19.8235 16.6685 19.8485C16.6685 19.8235 16.6685 19.8235 16.6685 19.8485C16.6685 19.8235 16.6685 19.8235 16.6685 19.8485ZM16.2985 19.331C16.2985 19.2815 16.3235 19.2325 16.3235 19.2075H16.3485C16.3485 19.2575 16.3235 19.2815 16.3235 19.331H16.2985ZM23.225 19.06C23.225 19.035 23.225 19.035 23.225 19.06V19.06ZM17.3585 18.2465C17.3835 18.2215 17.4325 18 17.5065 18.0245C17.5065 18.123 17.4325 18.222 17.3585 18.2465ZM17.3095 15.905C17.3095 15.905 17.2845 15.88 17.3095 15.905C17.3095 15.88 17.3095 15.88 17.3095 15.905C17.3095 15.88 17.3095 15.88 17.3095 15.905ZM20.489 12.75C20.514 12.627 20.514 12.5775 20.514 12.454C20.464 12.5775 20.489 12.6515 20.489 12.75ZM18.517 11.493C18.542 11.493 18.542 11.493 18.517 11.493C18.542 11.493 18.517 11.493 18.517 11.493ZM20.9325 11.0495C20.9575 11.0495 20.9575 11.0495 20.9325 11.0495C20.9575 11.0245 20.9575 11.0245 20.9325 11C20.9575 11.025 20.9575 11.025 20.9325 11.0495ZM20.538 9.17598L20.563 9.15098V9.07748H20.538C20.538 9.05248 20.538 9.05248 20.612 8.78148C20.612 8.70748 20.637 8.60898 20.637 8.53498C20.5875 8.53498 20.5875 8.53498 20.563 8.55998C20.563 8.60898 20.563 8.60898 20.588 8.70748C20.5135 8.85548 20.538 9.00348 20.538 9.17598ZM20.908 9.07748H20.933C20.933 9.02798 20.933 8.95398 20.957 8.90498C20.957 8.53498 20.982 8.16548 20.982 7.79598C20.8095 7.79598 20.8835 7.96848 20.8835 8.09148C20.8835 8.26398 20.8835 8.26398 20.8585 8.43648C20.834 8.48598 20.7845 8.53498 20.76 8.58448C20.785 8.73248 20.8095 8.90448 20.908 9.07748ZM20.4645 7.86948V7.82048C20.489 7.84548 20.489 7.86948 20.4645 7.86948C20.489 7.86948 20.489 7.86948 20.4645 7.86948ZM20.489 7.79598C20.489 7.77098 20.489 7.74648 20.464 7.72198H20.489C20.514 7.79598 20.514 7.79598 20.489 7.79598ZM20.957 7.74648V7.72148C20.982 7.72148 20.982 7.72148 20.957 7.74648C20.982 7.74648 20.982 7.74648 20.957 7.74648ZM20.489 7.69698V7.54998H20.514V7.59898H20.538C20.538 7.62398 20.5135 7.64848 20.489 7.69748C20.514 7.69748 20.489 7.69748 20.489 7.69748V7.69698ZM20.957 7.67298C20.9325 7.52498 20.8835 7.32798 20.908 7.15548H20.933C20.933 7.08148 20.982 6.93348 21.031 6.90898C21.031 6.93398 21.0065 6.95798 20.982 7.05698C21.007 7.50048 21.007 7.50048 20.957 7.67298C20.982 7.67298 20.957 7.67298 20.957 7.67298ZM20.563 7.57448C20.563 7.54948 20.563 7.54948 20.588 7.52498H20.612V7.54998C20.5875 7.54998 20.5875 7.57448 20.563 7.57448ZM20.563 7.27848C20.588 7.20448 20.588 7.13098 20.612 7.05698C20.6615 7.05698 20.637 7.13098 20.637 7.17998C20.5875 7.22948 20.5875 7.25398 20.563 7.27848ZM21.056 6.90848C21.056 6.88448 21.056 6.88448 21.056 6.90848C21.056 6.88448 21.056 6.88448 21.056 6.90848C21.056 6.88448 21.056 6.88448 21.056 6.90848ZM21.0805 6.78548C21.1055 6.76098 21.1055 6.76098 21.0805 6.78548C21.1055 6.78548 21.1055 6.78548 21.0805 6.78548C21.1055 6.78548 21.1055 6.78548 21.0805 6.78548ZM20.9325 6.14498C20.9325 5.99698 20.9575 5.75048 21.0805 5.65198V5.50398C21.13 5.47898 21.13 5.47898 21.179 5.47898V5.45448H21.204V5.50398C21.179 5.52898 21.031 5.92298 21.0065 5.97248C21.0065 5.97248 20.9815 5.97248 20.9815 5.99698C20.9815 6.04648 21.0065 6.07098 20.9815 6.11998C20.9815 6.11998 20.957 6.11998 20.9325 6.14498ZM19.355 5.50398C19.355 5.47898 19.355 5.47898 19.355 5.50398V5.50398ZM21.2035 5.42998V5.38098H21.2285C21.2285 5.40548 21.2285 5.40548 21.2035 5.42998C21.2285 5.42998 21.2285 5.42998 21.2035 5.42998Z" fill="white"/>
<path d="M20.243 30.57H20.1935C19.9965 30.521 19.8485 30.4965 19.7005 30.373C19.7005 30.2995 19.75 30.2255 19.8485 30.1515C19.8485 30.1265 19.8735 30.1265 19.8735 30.1265C20.243 29.6585 20.6865 29.3135 21.1305 28.9685C21.278 28.845 21.426 28.7465 21.574 28.6235C21.648 28.5735 21.697 28.5245 21.771 28.4755C21.8945 28.377 21.993 28.278 22.0915 28.229L22.0175 27.933C21.9435 27.933 21.845 27.933 21.7465 27.9825C21.352 28.081 21.007 28.1795 20.6375 28.3025L20.588 28.3275C20.3415 28.4015 20.046 28.4505 19.75 28.5L19.775 28.82C20.095 28.796 20.391 28.722 20.662 28.648L20.7115 28.623C20.933 28.5495 21.155 28.5 21.3765 28.426C21.229 28.5495 21.081 28.6725 20.933 28.771C20.5385 29.0915 20.169 29.3875 19.824 29.757C19.824 29.732 19.849 29.732 19.849 29.7075L19.602 29.5105C19.479 29.6585 19.3805 29.8065 19.232 29.954C19.06 30.102 18.838 30.2745 18.567 30.324C18.493 30.324 18.197 30.373 18.0985 30.176C18.0735 30.102 18.0735 30.0035 18.0985 29.8805V29.831C18.0985 29.7075 18.1235 29.5845 18.148 29.486C18.148 29.486 18.173 29.486 18.173 29.511C18.3205 29.5845 18.493 29.56 18.6655 29.535C18.8875 29.486 19.0845 29.3625 19.257 29.1655C19.405 28.993 19.479 28.722 19.4295 28.426C19.4295 28.3275 19.3555 28.2535 19.257 28.229H19.232C18.838 28.1305 18.419 28.3275 18.123 28.7465C17.9452 29.0117 17.8354 29.3164 17.803 29.634V29.4615C17.803 29.3135 17.8275 29.1655 17.8275 28.993L17.8525 28.9435C17.877 28.8695 17.877 28.771 17.9015 28.722C17.9015 28.648 17.9015 28.5985 17.9265 28.5495L18.0245 28.303H17.9505C18.0245 27.785 18.0495 27.3415 18.0245 26.923V26.898C18.0245 26.824 18 26.7005 17.926 26.627L17.901 26.602C17.8275 26.553 17.704 26.553 17.655 26.627L17.63 26.6515C17.581 26.7255 17.581 26.7745 17.581 26.824V26.849C17.556 26.898 17.556 26.947 17.581 26.972L17.729 26.9965C17.7535 27.4155 17.729 27.8345 17.655 28.352L17.581 28.4015L17.606 28.4755C17.5774 28.4451 17.5431 28.4207 17.505 28.4038C17.4668 28.3869 17.4257 28.3778 17.384 28.377H17.088C17.014 28.377 16.965 28.426 16.9155 28.426C16.743 28.5245 16.5455 28.623 16.4225 28.845L16.3975 28.8945C16.3258 28.9928 16.2679 29.1005 16.2255 29.2145C16.127 29.5105 16.102 29.831 16.102 30.1515C15.9901 30.2615 15.8554 30.3457 15.7075 30.398C15.634 30.423 15.56 30.423 15.486 30.423H15.3875C15.3528 30.4223 15.3188 30.4128 15.2886 30.3955C15.2585 30.3782 15.2332 30.3536 15.215 30.324C15.19 30.2745 15.1655 30.2255 15.1655 30.176V29.683C15.1655 29.4615 15.1655 29.215 15.1405 28.993C15.1405 28.8695 15.067 28.8205 15.0425 28.796C14.919 28.722 14.796 28.796 14.771 28.8205L14.7465 28.8455C14.648 28.919 14.5495 28.9685 14.4755 29.067L14.4505 29.092C14.204 29.387 13.9575 29.6585 13.7355 29.979C13.7355 29.954 13.7605 29.905 13.7605 29.8805C13.7605 29.831 13.7855 29.757 13.7855 29.683V29.535C13.7855 29.4615 13.7855 29.3875 13.81 29.3135L13.514 29.264C13.489 29.338 13.489 29.4365 13.489 29.5105V29.6585C13.489 29.7075 13.465 29.7815 13.465 29.831C13.44 29.9295 13.44 30.028 13.4155 30.127C13.4155 30.2255 13.3905 30.2995 13.3905 30.398H13.366C13.2925 30.546 13.1445 30.669 12.947 30.817C12.7005 31.014 12.454 31.1125 12.1585 31.187C12.1335 31.187 12.0845 31.187 12.06 31.2115L11.8625 31.1125C11.764 31.0635 11.6655 30.9895 11.567 30.94C11.5175 30.6935 11.592 30.447 11.6655 30.225C11.6905 30.25 11.7395 30.275 11.7885 30.2995C11.8875 30.3485 12.035 30.3485 12.1585 30.324C12.5035 30.25 12.7255 30.0035 12.8735 29.7815C12.972 29.6585 12.9965 29.56 13.021 29.4365V29.4115C13.021 29.3625 13.021 29.2885 12.9965 29.215C12.898 28.993 12.6515 29.0175 12.528 29.0425H12.5035C12.331 29.067 12.1835 29.1655 12.06 29.264C11.912 29.3875 11.764 29.5105 11.6655 29.6585L11.567 29.609C11.5175 29.683 11.5175 29.7815 11.5175 29.905C11.4668 29.982 11.4255 30.0647 11.3945 30.1515C11.3205 30.3485 11.2465 30.546 11.2465 30.7925C11.0495 30.6935 10.8765 30.5705 10.6795 30.4475C10.507 30.3485 10.3595 30.2745 10.1865 30.176C10.1375 30.151 10.1125 30.127 10.0635 30.127C10.4575 29.979 10.877 29.782 11.271 29.437C11.3695 29.3625 11.5175 29.215 11.567 28.9685C11.592 28.845 11.592 28.7465 11.542 28.648C11.5175 28.5495 11.4435 28.4755 11.3945 28.426C11.197 28.2535 10.9755 28.155 10.6795 28.1305C10.3095 28.081 9.9645 28.1055 9.6445 28.1305C9.447 28.1305 9.2745 28.1795 9.0775 28.229V28.1795L8.7575 28.1545C8.7575 28.2045 8.7325 28.278 8.7325 28.352C8.7075 28.352 8.683 28.377 8.683 28.377C8.634 28.4015 8.56 28.4015 8.5105 28.426C8.412 28.451 8.338 28.4755 8.2395 28.5L8.3625 28.796L8.5845 28.722C8.634 28.722 8.683 28.697 8.7325 28.6725V28.7465C8.67921 29.6662 8.68757 30.5884 8.7575 31.507V31.729C8.7575 31.8275 8.7575 31.9015 8.7815 32L9.0775 31.9505V31.729C9.0775 31.6305 9.0775 31.5565 9.0525 31.4825C8.979 30.595 8.979 29.683 9.028 28.771V28.574C9.25 28.5 9.447 28.4755 9.6445 28.4505C9.9645 28.426 10.285 28.4015 10.6305 28.4505C10.852 28.4755 11.0245 28.5495 11.1725 28.6725C11.1975 28.6975 11.222 28.722 11.222 28.7465C11.2465 28.796 11.2465 28.8695 11.222 28.9435C11.197 29.067 11.148 29.116 11.0495 29.215C10.5315 29.683 9.94 29.8555 9.447 30.0035L9.521 30.2995C9.546 30.2995 9.595 30.2745 9.6195 30.2745C9.743 30.3485 9.891 30.4225 10.0145 30.472C10.162 30.546 10.3345 30.6195 10.4825 30.7185C10.7535 30.891 11.0245 31.0635 11.296 31.2115C11.3945 31.384 11.5425 31.507 11.764 31.5565C11.8135 31.581 11.8875 31.581 11.9615 31.581C12.2075 31.729 12.454 31.852 12.7255 32C12.75 32.025 12.7745 32.025 12.7995 32.0495C12.898 32.0985 13.021 32.1725 13.1445 32.1725L13.169 31.8525C13.095 31.8525 13.021 31.8025 12.947 31.7535C12.9225 31.7285 12.898 31.7285 12.873 31.704C12.7307 31.6354 12.5909 31.5615 12.454 31.4825C12.676 31.4085 12.898 31.285 13.1195 31.1375C13.1935 31.088 13.2675 31.0385 13.317 30.9895V31.1375L13.514 31.0635C13.6125 31.0385 13.6375 30.94 13.662 30.9155C13.7136 30.8216 13.7549 30.7224 13.785 30.6195C13.8345 30.521 13.859 30.4225 13.933 30.324C14.155 29.979 14.4015 29.7075 14.673 29.412L14.697 29.387C14.7465 29.338 14.796 29.2885 14.8695 29.2395C14.8945 29.4365 14.8945 29.6095 14.8945 29.7815V30.2745C14.8945 30.373 14.919 30.472 14.9685 30.546C15.0425 30.7185 15.215 30.8415 15.4365 30.8415H15.5105C15.609 30.8415 15.7325 30.8415 15.831 30.8165C15.954 30.7675 16.0775 30.7185 16.176 30.6445C16.2255 30.7675 16.3485 30.891 16.4965 30.9645C16.546 30.9895 16.6195 30.9895 16.6935 30.9895C16.7675 30.9895 16.817 30.9895 16.891 30.9645C17.211 30.866 17.384 30.595 17.507 30.3485C17.532 30.3235 17.532 30.2995 17.5565 30.2745C17.5565 30.324 17.5565 30.3485 17.581 30.398V30.472C17.581 30.546 17.606 30.595 17.606 30.669C17.606 30.7185 17.6305 30.743 17.6305 30.7925C17.6305 30.866 17.655 30.94 17.6795 31.014L18.0245 30.965V30.94H17.9015L18.0245 30.9155C18 30.866 18 30.817 18 30.7675C18 30.7185 17.975 30.6445 17.975 30.595C17.975 30.57 17.975 30.546 17.9505 30.4965C18.0495 30.669 18.2465 30.743 18.493 30.743C18.567 30.743 18.616 30.743 18.69 30.718C19.035 30.6445 19.3065 30.447 19.5035 30.2745C19.5285 30.2745 19.5285 30.25 19.5285 30.2255C19.487 30.2768 19.4568 30.3363 19.4397 30.4C19.4227 30.4637 19.4192 30.5304 19.4295 30.5955V30.6445L19.4545 30.669C19.676 30.891 19.9225 30.94 20.1445 30.989H20.1935C20.514 31.0635 20.859 31.1125 21.1795 31.1865C21.5985 31.2605 21.993 31.31 22.3875 31.433L22.4615 31.1375C22.058 31.0223 21.6458 30.9399 21.229 30.891C20.884 30.6935 20.5635 30.6445 20.243 30.5705V30.57ZM18.3945 28.8695C18.4685 28.7465 18.7645 28.4015 19.1095 28.4505C19.134 28.648 19.0845 28.7955 19.0105 28.8945C18.8875 29.0425 18.7395 29.141 18.5915 29.1655C18.493 29.1905 18.3945 29.215 18.3205 29.1655C18.3205 29.1655 18.2955 29.1405 18.2955 29.116C18.2955 29.0915 18.271 29.067 18.2465 29.067C18.296 29.0175 18.345 28.9435 18.3945 28.8695ZM12.134 29.338C12.2325 29.264 12.331 29.19 12.4295 29.19H12.4545C12.5035 29.19 12.5775 29.1655 12.602 29.19V29.2885C12.602 29.3385 12.577 29.3875 12.528 29.4615C12.405 29.634 12.2325 29.831 11.986 29.8805C11.912 29.905 11.838 29.905 11.7885 29.8805C11.7395 29.8555 11.715 29.831 11.715 29.8065C11.8135 29.609 11.9615 29.4615 12.134 29.338ZM17.926 28.5C17.901 28.475 17.901 28.4505 17.926 28.426H17.951C17.926 28.451 17.926 28.4755 17.926 28.5ZM17.926 28.377C17.926 28.377 17.926 28.352 17.926 28.377C17.926 28.352 17.926 28.352 17.926 28.377ZM17.162 30.0035C17.0385 30.2005 16.9155 30.398 16.7185 30.472C16.6445 30.4965 16.5705 30.4965 16.521 30.472C16.4965 30.447 16.373 30.398 16.3485 30.2995C16.2995 29.9295 16.3235 29.5845 16.447 29.2395C16.472 29.1655 16.521 29.0915 16.595 28.993L16.62 28.9435C16.7185 28.796 16.8415 28.722 16.9895 28.648C17.0145 28.623 17.0635 28.623 17.088 28.623H17.31L17.3345 28.648C17.3595 28.673 17.4085 28.722 17.4085 28.7465C17.4085 28.7715 17.4085 28.796 17.4335 28.845V28.919H17.4575C17.4575 28.993 17.4575 29.067 17.433 29.141C17.408 29.4365 17.3345 29.7325 17.162 30.0035Z" fill="white"/>
<path d="M21.87 28.919V29.239H21.9685C22.3135 29.239 22.6835 29.215 23.176 29.1655L23.151 28.8455C22.634 28.8945 22.2395 28.919 21.8695 28.919H21.87ZM31.5565 28.5245C31.3345 28.229 31.0385 28.1055 30.7675 27.9575C30.6446 27.9067 30.5287 27.8405 30.4225 27.7605C30.3953 27.7347 30.361 27.7176 30.324 27.7115C30.2255 27.6615 30.176 27.6375 30.1515 27.588C30.1265 27.465 30.1515 27.366 30.2255 27.218C30.2995 27.1445 30.373 27.046 30.447 26.9965C30.521 26.9715 30.595 26.9225 30.6445 26.9225C30.7675 26.8975 30.891 26.873 30.9645 26.9225C30.9645 26.9225 30.9645 26.9475 30.9895 26.9475C31.0145 26.972 31.0145 26.9965 31.0385 26.9965L31.2605 26.7745L31.2355 26.75C31.1996 26.7113 31.1581 26.6781 31.1125 26.6515C30.9155 26.5775 30.7425 26.602 30.595 26.6265C30.4965 26.6515 30.398 26.7005 30.2995 26.75C30.1515 26.824 30.053 26.947 29.979 27.046V27.0705C29.8805 27.2185 29.757 27.4405 29.8555 27.7115C29.905 27.884 30.053 27.9575 30.176 28.0315C30.201 28.0565 30.2255 28.0565 30.25 28.081C30.373 28.155 30.4965 28.229 30.62 28.278C30.866 28.4015 31.1125 28.5245 31.285 28.7465C31.3345 28.8205 31.359 28.8945 31.3345 28.9685C31.3345 28.993 31.285 29.0175 31.2605 29.0425C31.2355 29.0425 31.2355 29.067 31.2115 29.067C30.965 29.19 30.6935 29.3135 30.373 29.387C30.324 29.387 30.2005 29.437 30.176 29.412C30.0775 29.264 30.102 29.092 30.2255 28.845L29.954 28.722C29.8943 28.8467 29.8529 28.9794 29.831 29.116C29.806 29.116 29.7815 29.0915 29.757 29.0915C29.56 28.9685 29.437 28.8695 29.412 28.7215C29.3627 28.5276 29.3627 28.3244 29.412 28.1305C29.437 28.0565 29.4615 28.007 29.486 27.933C29.511 27.8345 29.56 27.736 29.5845 27.662C29.6095 27.5635 29.634 27.465 29.683 27.366C29.708 27.2925 29.757 27.243 29.757 27.169L29.4615 27.046C29.4365 27.1195 29.4115 27.169 29.3875 27.243C29.3625 27.268 29.3625 27.2925 29.338 27.317C29.2885 27.391 29.264 27.465 29.215 27.5635C29.19 27.6375 29.1655 27.6865 29.1655 27.7605C29.1405 27.8345 29.1405 27.884 29.116 27.9575V27.9825C29.116 28.0075 29.116 28.0315 29.0915 28.0565C28.919 28.4265 28.623 28.7465 28.204 28.993C28.1904 29.0049 28.1729 29.0114 28.1548 29.0114C28.1367 29.0114 28.1192 29.0049 28.1055 28.993C28.0604 28.6745 28.0522 28.3519 28.081 28.0315V27.49H27.761V28.0075C27.6865 27.8105 27.4895 27.6875 27.2185 27.613C27.046 27.564 26.8235 27.564 26.602 27.5885C26.454 27.6135 26.331 27.6625 26.232 27.712C26.183 27.7365 26.1585 27.7365 26.109 27.761V27.786C25.9807 27.8419 25.857 27.9078 25.739 27.983C25.7021 28.0015 25.6689 28.0266 25.641 28.057C25.69 27.983 25.715 27.9335 25.764 27.8595C25.912 27.6625 26.035 27.4405 26.183 27.219L26.208 27.1695C26.3555 26.923 26.5035 26.701 26.627 26.43C26.6515 26.356 26.6515 26.282 26.627 26.233C26.5959 26.1739 26.5427 26.1295 26.479 26.1095L26.3805 26.4055C26.3555 26.4055 26.331 26.356 26.3555 26.3315C26.2325 26.578 26.109 26.775 25.9615 27.0215L25.9365 27.071C25.7885 27.293 25.641 27.49 25.5175 27.712L25.074 28.377C24.932 28.5881 24.8082 28.8109 24.704 29.043L24.5565 29.3385C24.5315 29.3135 24.507 29.2645 24.4825 29.24C24.3345 29.018 24.1865 28.821 24.0385 28.599C23.965 28.5005 23.891 28.3775 23.817 28.279C23.6082 27.9826 23.4109 27.6782 23.2255 27.3665C23.1515 27.2435 23.0775 27.145 23.0035 27.0215L22.7325 27.145C22.7575 27.219 22.8065 27.3175 22.8555 27.3915C22.8805 27.4405 22.905 27.49 22.9295 27.5145L22.9545 27.4895C23.127 27.7855 23.324 28.106 23.546 28.4265C23.6195 28.55 23.6935 28.6485 23.7925 28.747C23.94 28.944 24.088 29.1415 24.236 29.363C24.2972 29.4405 24.3317 29.5358 24.3345 29.6345L24.285 29.9545L24.5565 29.807C24.6032 29.7818 24.6449 29.7483 24.6795 29.708L24.7045 29.6835V29.6585C24.8275 29.4865 24.9015 29.289 25 29.1165C25.0985 28.944 25.1725 28.7715 25.296 28.599C25.2375 28.8161 25.229 29.0436 25.271 29.2645C25.3205 29.5355 25.5915 29.6835 25.69 29.733C25.8135 29.782 25.9365 29.807 26.109 29.807C26.2075 29.807 26.2815 29.807 26.3805 29.782C26.824 29.708 27.1195 29.462 27.366 29.2155C27.588 29.043 27.711 28.8455 27.761 28.6485C27.761 28.747 27.785 28.8455 27.785 28.9685C27.81 29.092 27.859 29.166 27.9575 29.2155C28.0165 29.2419 28.0811 29.2535 28.1456 29.2491C28.2101 29.2448 28.2726 29.2246 28.3275 29.1905C28.5985 29.018 28.845 28.8205 29.0175 28.599C29.0175 28.6485 29.0425 28.7225 29.0425 28.7715C29.0915 29.043 29.3135 29.1905 29.535 29.3385C29.609 29.388 29.7075 29.4125 29.7815 29.437C29.8065 29.4865 29.831 29.5605 29.8555 29.6095C29.8889 29.6566 29.9334 29.6947 29.985 29.7205C30.0366 29.7463 30.0938 29.759 30.1515 29.7575C30.25 29.7575 30.324 29.7325 30.398 29.7325C30.743 29.659 31.0385 29.511 31.31 29.363L31.3345 29.3385C31.3595 29.3385 31.3595 29.3135 31.384 29.3135C31.4575 29.2645 31.5565 29.1905 31.581 29.0675C31.6795 28.8455 31.655 28.6975 31.556 28.525L31.5565 28.5245ZM27.5145 28.5C27.4655 28.6725 27.3665 28.796 27.1945 28.9435C26.9725 29.1655 26.701 29.3625 26.356 29.4365C26.1345 29.486 25.986 29.4615 25.863 29.4115C25.7155 29.338 25.6165 29.2395 25.6165 29.1655C25.5675 28.8695 25.592 28.623 25.7155 28.426C25.789 28.3275 25.863 28.229 25.9865 28.155C26.1095 28.081 26.233 28.007 26.381 27.9575C26.4545 27.933 26.5535 27.933 26.6275 27.933H26.997V27.81C27.071 27.81 27.145 27.81 27.219 27.8345C27.3915 27.8595 27.5145 27.9575 27.539 28.0565C27.564 28.204 27.564 28.352 27.5145 28.5Z" fill="white"/>
</g>
<defs>
<clipPath id="clip0_25_4379">
<rect width="40" height="40" fill="white"/>
</clipPath>
</defs>
</svg>
