<svg width="40" height="40" viewBox="0 0 40 40" fill="none" xmlns="http://www.w3.org/2000/svg">
<g clip-path="url(#clip0_25_4236)">
<path d="M20 40C31.0457 40 40 31.0457 40 20C40 8.9543 31.0457 0 20 0C8.9543 0 0 8.9543 0 20C0 31.0457 8.9543 40 20 40Z" fill="#003176"/>
<path d="M32.121 15.838C28.649 14.132 24.293 13.5 20 13.5C15.707 13.5 11.414 14.132 7.942 15.838C7.6895 15.9645 7.5 16.154 7.5 16.407V20.6405C7.5 20.9565 7.563 21.083 7.879 20.9565C9.6465 20.388 11.856 19.8825 13.4975 19.6925C13.75 19.6295 13.8765 19.756 13.8765 20.0085V25.6325C13.8765 25.8225 14.0025 25.9485 14.129 26.012C15.3915 26.391 17.98 26.8335 20 26.8335C22.02 26.8335 24.6085 26.391 25.871 26.012C25.9975 25.9485 26.1235 25.822 26.1235 25.6325V20.0085C26.1235 19.756 26.3135 19.6295 26.5025 19.6925C28.144 19.8825 30.3535 20.3875 32.121 20.9565C32.3735 21.0195 32.5 20.8935 32.5 20.6405V16.407C32.5 16.154 32.3105 15.9645 32.121 15.838Z" fill="white"/>
</g>
<defs>
<clipPath id="clip0_25_4236">
<rect width="40" height="40" fill="white"/>
</clipPath>
</defs>
</svg>
