<svg width="40" height="40" viewBox="0 0 40 40" fill="none" xmlns="http://www.w3.org/2000/svg">
<g clip-path="url(#clip0_472_181)">
<path d="M20 40C31.0457 40 40 31.0457 40 20C40 8.9543 31.0457 0 20 0C8.9543 0 0 8.9543 0 20C0 31.0457 8.9543 40 20 40Z" fill="#E64C26"/>
<path d="M21.0673 24.8492C20.4568 24.4065 20.1819 23.752 20.1819 22.7607C20.1819 21.5147 20.5627 19.9796 21.1946 19.3191C21.6373 18.8752 22.2692 18.6646 23.1343 18.6646C24.3577 18.6646 25.8548 18.9859 26.4867 19.6357C26.9091 20.0581 27.0995 20.6484 27.0995 21.4719C27.0995 22.6548 26.7616 24.322 26.0225 25.0182C25.6013 25.399 25.0324 25.5668 24.2316 25.5668C23.1367 25.5668 21.7611 25.3121 21.0673 24.8492ZM26.4462 27.4672L26.2974 28.6073L29.4796 29L30.9873 16.6796L27.8064 16.2881L27.6576 17.4829H27.2899C26.8139 16.6392 25.5382 15.4979 23.1343 15.4979C19.782 15.4979 17.3151 17.9684 16.8712 21.3445C16.8301 21.6742 16.809 22.006 16.8082 22.3382C16.8082 25.5668 19.0014 28.2277 22.4168 28.6073C22.6072 28.6251 22.7964 28.6311 22.9868 28.6287C24.4208 28.6287 25.4966 28.017 26.0452 27.4684H26.445L26.4462 27.4672ZM12.073 10L10 26.6045L13.3844 27.0174L15.4242 10.4117L12.073 10Z" fill="white"/>
</g>
<defs>
<clipPath id="clip0_472_181">
<rect width="40" height="40" fill="white"/>
</clipPath>
</defs>
</svg>
