<svg width="40" height="40" viewBox="0 0 40 40" fill="none" xmlns="http://www.w3.org/2000/svg">
<path fill-rule="evenodd" clip-rule="evenodd" d="M20 40C31.0457 40 40 31.0457 40 20C40 8.95433 31.0457 0 20 0C8.95433 0 0 8.95433 0 20C0 31.0457 8.95433 40 20 40Z" fill="black"/>
<path fill-rule="evenodd" clip-rule="evenodd" d="M22.5465 10L29.1853 21.504H24.0401L18.7296 12.2413L22.5465 10ZM15.6866 21.5047L13.6392 17.9923L9.82225 20.2089L10.5415 21.5047H15.6866ZM31.8926 24.8472C31.6963 24.7999 31.4835 24.7674 31.2779 24.7359C30.7303 24.6522 30.2334 24.5762 30.2334 24.2497C30.2887 23.9263 30.5644 23.8521 31.0079 23.8521C31.672 23.8521 31.7271 24.2269 31.7271 24.4496H32.8325C32.7792 23.5781 32.0599 23.0054 30.9527 23.0054C29.7919 23.0054 29.1259 23.6277 29.1259 24.4249C29.1259 24.8721 29.3485 25.2964 29.7348 25.4962C30.0127 25.6199 30.3989 25.7208 30.8974 25.793C30.9495 25.802 31.0016 25.8102 31.0531 25.8184L31.0533 25.8184L31.0535 25.8185C31.4382 25.8795 31.7887 25.935 31.8373 26.2421C31.8373 26.4667 31.5615 26.7654 31.0629 26.7654C30.3437 26.7406 30.1782 26.343 30.1782 26.0442H29.0156C29.0708 26.9404 29.7919 27.5624 31.0079 27.5624C32.1152 27.5624 33 27.1402 33 26.0442C33 25.4445 32.5567 25.0221 31.8926 24.8472ZM17.2946 22.9968H18.3953V27.4303H17.2946V22.9968ZM10.5943 23.41C10.2081 23.1378 9.76462 23.0123 9.26619 23.0123C8.05032 23.0123 7 24.0092 7 25.2785C7 26.5476 8.05024 27.5694 9.26619 27.5694C9.7647 27.5694 10.2633 27.4438 10.5943 27.1947V27.4686H11.7017V23.0618H10.5943V23.41ZM9.3214 26.5475C8.65925 26.5475 8.05032 25.9749 8.05032 25.2784C8.05032 24.6068 8.65917 24.0092 9.3214 24.0092C10.0427 24.0092 10.5943 24.6067 10.5943 25.2784C10.5943 25.9749 10.0426 26.5475 9.3214 26.5475ZM15.6864 23.4099C15.2982 23.1377 14.8549 23.0122 14.3582 23.0122C13.0853 23.0122 12.0902 24.0091 12.0902 25.2784C12.0902 26.5475 13.0853 27.5693 14.3582 27.5693C14.8549 27.5693 15.2982 27.4437 15.6864 27.1946V27.4684H16.7919V21.5435H15.6864V23.4099ZM14.4134 26.5474C13.6943 26.5474 13.1405 25.9748 13.1405 25.2783C13.1405 24.6067 13.6942 24.0091 14.4134 24.0091C15.0756 24.0091 15.6864 24.6065 15.6864 25.2783C15.6864 25.9747 15.0756 26.5474 14.4134 26.5474ZM14.3041 16.2502L18.1761 14.0602L22.4364 21.5036H18.3969V22.5997H17.2914V21.5036L14.3041 16.2502ZM32.2823 22.6337C32.6133 22.6337 32.836 22.3845 32.836 22.0857C32.836 21.7869 32.6133 21.5377 32.2823 21.5377C32.0045 21.5377 31.7287 21.7869 31.7287 22.0857C31.7287 22.3845 32.0045 22.6337 32.2823 22.6337ZM32.2823 21.6139C32.5581 21.6139 32.7237 21.8363 32.7237 22.0857C32.7237 22.335 32.5581 22.5594 32.2823 22.5594C32.0045 22.5594 31.8389 22.3348 31.8389 22.0857C31.8389 21.8366 32.0045 21.6139 32.2823 21.6139ZM32.2854 22.1371H32.1751L32.175 22.3862H32.0912V21.7888H32.3405C32.3958 21.7888 32.5061 21.8649 32.5061 21.9638C32.5061 22.0628 32.451 22.1123 32.3958 22.1371L32.5061 22.3864H32.3958L32.2854 22.1371ZM32.2854 21.8649H32.1751V22.0629H32.2854C32.3958 22.0629 32.3958 22.0382 32.3958 21.9639C32.3958 21.9126 32.3958 21.8649 32.2854 21.8649ZM27.5192 23.41C27.1328 23.1378 26.6895 23.0123 26.191 23.0123C24.92 23.0123 23.9249 24.0092 23.9249 25.2785C23.9249 26.5476 24.92 27.5694 26.191 27.5694C26.6896 27.5694 27.1328 27.4438 27.5192 27.1947V27.4686H28.5713V23.0618H27.5192V23.41ZM26.2481 26.5475C25.5289 26.5475 24.9752 25.9749 24.9752 25.2784C24.9752 24.6068 25.5288 24.0092 26.2481 24.0092C26.9122 24.0092 27.5192 24.6067 27.5192 25.2784C27.5192 25.9749 26.9122 26.5475 26.2481 26.5475ZM21.1625 23.0122C21.6592 23.0122 22.1025 23.1377 22.4355 23.4099V21.5435H23.541V27.4684H22.4355V27.1946C22.1024 27.4437 21.6591 27.5693 21.1625 27.5693C19.8896 27.5693 18.8393 26.5475 18.8393 25.2784C18.8393 24.0091 19.8896 23.0122 21.1625 23.0122ZM19.8897 25.2783C19.8897 25.9748 20.4985 26.5474 21.1626 26.5474C21.8818 26.5474 22.4355 25.9747 22.4355 25.2783C22.4355 24.6065 21.8818 24.0091 21.1626 24.0091C20.4986 24.0091 19.8897 24.6067 19.8897 25.2783Z" fill="white"/>
</svg>
