<svg width="40" height="40" viewBox="0 0 40 40" fill="none" xmlns="http://www.w3.org/2000/svg">
<g clip-path="url(#clip0_25_898)">
<path d="M20 40C31.0457 40 40 31.0457 40 20C40 8.9543 31.0457 0 20 0C8.9543 0 0 8.9543 0 20C0 31.0457 8.9543 40 20 40Z" fill="#01D7D0"/>
<path d="M30.45 19.7C30.5 19.15 30.75 18.65 31.1 18.3C31.5 17.9 32 17.7 32.6 17.7H32.65C33.3 17.7 33.85 17.9 34.2 18.3C34.55 18.7 34.7 19.15 34.7 19.7H30.45ZM26.7 19.7H24.55C24.6 19.15 24.8 18.65 25.2 18.3C25.6 17.9 26.1 17.7 26.65 17.7H26.75C27.4 17.7 27.95 17.9 28.3 18.3C28.65 18.7 28.8 19.15 28.8 19.7H26.7ZM13.65 19.7H11.5C11.55 19.15 11.75 18.65 12.15 18.3C12.55 17.9 13.05 17.7 13.6 17.7H13.65C14.3 17.7 14.8 17.9 15.2 18.3C15.55 18.7 15.75 19.15 15.75 19.7H13.65ZM9.2 22.75C8.9 23.1 8.45 23.3 7.85 23.4C7.65 23.45 7.4 23.45 7.2 23.45C7 23.45 6.75 23.35 6.4 23.2C6.05 23 5.9 22.9 5.9 22.8V18.3C6 18.2 6.2 18.05 6.5 17.9C6.8 17.75 7.05 17.7 7.2 17.7C7.45 17.7 7.65 17.7 7.85 17.75C8.35 17.85 8.75 18.1 9.1 18.4C9.55 18.9 9.8 19.6 9.8 20.45C9.8 21.55 9.6 22.3 9.2 22.75ZM36 20.7C36.1 20.45 36.1 20.15 36.1 19.85C36.1 18.85 35.8 18.05 35.2 17.45C34.55 16.85 33.7 16.5 32.6 16.5C31.65 16.5 30.8 16.85 30.15 17.55C30 17.7 29.9 17.8 29.8 17.95C29.7 17.75 29.55 17.6 29.35 17.45C28.7 16.85 27.85 16.5 26.75 16.5C25.95 16.5 25.25 16.75 24.65 17.25L24.9 16.65C24.45 16.55 24.1 16.5 23.85 16.5C22.85 16.5 22.1 16.95 21.6 17.9V16.65H18.85C18.85 16.5 18.8 16.4 18.8 16.25C18.8 15.75 18.95 15.35 19.2 15.05C19.5 14.75 19.8 14.55 20.25 14.55C20.5 14.55 20.75 14.6 21.05 14.7L21.45 13.7C20.95 13.55 20.5 13.5 20.1 13.5C19.3 13.5 18.65 13.8 18.15 14.35C17.65 14.9 17.4 15.7 17.4 16.7H16.25V17.5C16.25 17.5 16.25 17.45 16.2 17.45C15.55 16.85 14.7 16.5 13.6 16.5C12.65 16.5 11.85 16.85 11.15 17.55L11.1 17.6C11.1 17.6 11.1 17.65 11.05 17.65L11 17.7L10.95 17.75C10.95 17.75 10.95 17.8 10.9 17.8C10.9 17.8 10.85 17.85 10.85 17.9V18L10.8 18.05V18.1L10.75 18.15V18.3C10.65 18.1 10.5 17.9 10.35 17.75C9.7 17.05 8.9 16.7 7.95 16.65H7.8C7.45 16.65 7.1 16.75 6.75 16.85C6.4 17 6.15 17.15 6 17.35V13.5H4.5V24.6H5.2L5.7 23.9C5.9 24.1 6.15 24.25 6.5 24.4C6.85 24.55 7.2 24.6 7.6 24.6H7.9C8.9 24.55 9.7 24.15 10.3 23.5C10.45 23.35 10.6 23.15 10.7 23C10.75 23.05 10.8 23.1 10.8 23.15L10.85 23.2L10.9 23.25V23.5C11.6 24.15 12.4 24.5 13.4 24.5C14.05 24.5 14.7 24.4 15.25 24.2C15.7 24.05 16 23.85 16.25 23.65L15.65 22.65C15.1 23.1 14.45 23.35 13.65 23.35H13.4C12.8 23.3 12.35 23.1 11.95 22.7C11.45 22.2 11.2 21.5 11.2 20.6H16.8C16.85 20.35 16.9 20.05 16.9 19.75C16.9 18.95 16.7 18.3 16.3 17.75H17.15V24.35H18.55V17.85H19.9V24.45H21.25V20C21.25 19.35 21.45 18.8 21.8 18.35C22.15 17.9 22.6 17.65 23.1 17.65C23.3 17.65 23.5 17.7 23.75 17.8C23.15 18.55 22.85 19.5 22.85 20.6C22.85 21.85 23.25 22.8 24 23.55C24.7 24.2 25.5 24.55 26.5 24.55C27.2 24.55 27.8 24.45 28.35 24.25C28.8 24.1 29.1 23.9 29.35 23.7L28.75 22.7C28.2 23.15 27.55 23.4 26.8 23.4H26.55C26 23.35 25.5 23.15 25.1 22.75C24.6 22.25 24.35 21.55 24.35 20.65H28.75C28.75 21.85 29.15 22.85 29.9 23.55C30.6 24.2 31.4 24.55 32.4 24.55C33.05 24.55 33.7 24.45 34.25 24.25C34.7 24.1 35 23.9 35.25 23.7L34.65 22.7C34.1 23.15 33.45 23.4 32.7 23.4H32.45C31.85 23.35 31.4 23.15 31 22.75C30.5 22.25 30.25 21.55 30.25 20.65L36 20.7Z" fill="white"/>
</g>
<defs>
<clipPath id="clip0_25_898">
<rect width="40" height="40" fill="white"/>
</clipPath>
</defs>
</svg>
