<svg width="40" height="40" viewBox="0 0 40 40" fill="none" xmlns="http://www.w3.org/2000/svg">
<g clip-path="url(#clip0_441_136)">
<path d="M20 40C31.0457 40 40 31.0457 40 20C40 8.9543 31.0457 0 20 0C8.9543 0 0 8.9543 0 20C0 31.0457 8.9543 40 20 40Z" fill="#009946"/>
<path fill-rule="evenodd" clip-rule="evenodd" d="M22.1969 22.0491C24.2633 20.8236 27 18.4132 27 14.8182C27 11.0526 23.866 8 20 8C16.134 8 13 11.0526 13 14.8182C13 18.4326 15.7664 20.8495 17.8365 22.0689L15.8462 23.1469L10 19.9802V22.1865L13.8096 24.2501L10 26.3136V28.52L15.8462 25.3533L17.8955 26.4633C16.1856 27.2578 15.0001 28.9905 15.0001 31.0001H17.0001C17.0001 29.3432 18.3432 28.0001 20.0001 28.0001C21.6569 28.0001 23.0001 29.3432 23.0001 31.0001H25.0001C25.0001 28.9905 23.8145 27.2578 22.1047 26.4633L24.248 25.3023L30 28.2934V26.1067L26.3076 24.1867L30 22.1866V19.9803L24.2294 23.106L22.1969 22.0491ZM25 15C25 19 20.5 21 20 21C19.5 21 15 19 15 15C15 12.2386 17.2386 10 20 10C22.7614 10 25 12.2386 25 15ZM20.0001 25.3969L17.8828 24.2501L20.0094 23.0982L22.1698 24.2217L20.0001 25.3969Z" fill="white"/>
</g>
<defs>
<clipPath id="clip0_441_136">
<rect width="40" height="40" fill="white"/>
</clipPath>
</defs>
</svg>
