<svg width="40" height="40" viewBox="0 0 40 40" fill="none" xmlns="http://www.w3.org/2000/svg">
<g clip-path="url(#clip0_25_1796)">
<circle cx="20" cy="20" r="20" fill="#FF6900"/>
<mask id="mask0_25_1796" style="mask-type:alpha" maskUnits="userSpaceOnUse" x="0" y="0" width="40" height="40">
<circle cx="20" cy="20" r="20" fill="#FF6900"/>
</mask>
<g mask="url(#mask0_25_1796)">
<path d="M29.6557 18.2138C29.6003 18.6563 29.1025 18.6563 28.8813 18.2692C28.1623 17.0523 27.222 16.8311 25.7286 16.7204C24.6223 16.6651 23.2949 16.7758 22.078 16.7758C21.8568 16.7758 21.8015 16.6098 21.8015 16.5545C22.0227 15.5036 22.9077 13.5677 23.848 13.4018C24.2905 13.3464 25.2861 13.2358 25.8392 13.2358C28.3835 13.2358 29.7663 16.1673 29.6557 18.2138ZM15.2747 28.2252C16.8787 28.6677 19.1465 28.9442 21.0271 28.7783C24.2905 28.5571 26.7795 27.3402 28.1623 26.4552C27.3326 28.5571 24.1798 29.8845 21.193 30.2164C21.193 30.3823 21.1377 30.493 21.1377 30.6589C23.4055 30.5483 25.5626 29.7739 26.5582 29.1102C26.0051 31.1567 23.2395 31.9864 20.6952 32.1523C20.6399 32.3182 20.5293 32.4842 20.474 32.5948C21.9674 32.5948 23.3502 32.3735 24.1798 32.097C23.0183 34.2541 18.0403 35.7475 13.8366 33.7563C14.7769 31.8757 15.2194 29.9952 15.2747 28.2252ZM29.1579 13.5124C28.1623 12.5721 26.8348 12.1296 25.6732 12.1849C24.0139 12.1849 22.6311 12.6274 20.5846 12.6827C19.2018 12.738 17.9297 9.6959 16.2703 9.30872C15.5513 7.70469 13.8919 7.48345 12.8963 8.31312C11.956 7.76 10.5179 8.03656 10.4626 9.08747C9.41172 8.75561 8.02893 9.30872 8.63736 10.7468C6.03773 10.8021 5.59524 13.1252 7.30989 13.3464C5.04212 14.6186 6.09304 16.8311 7.97362 16.3886C8.30549 19.7073 9.7989 24.0215 7.3652 25.0725C7.08864 25.1831 5.98242 25.4596 3.88058 24.9618C3.27216 24.7959 2.60842 24.63 2 24.464V26.1787C3.82527 26.6212 5.65055 26.953 6.81209 26.8424C10.0201 26.5105 10.1861 23.8556 10.0201 21.5325C9.85421 19.2648 9.07985 16.6098 9.35641 14.7292L9.24578 14.6186C8.08425 15.8355 7.30989 15.5036 7.19926 15.1164C7.03333 14.3421 8.41611 13.3464 9.19047 13.0146C9.19047 12.9593 9.24578 12.904 9.24578 12.8486C8.52674 12.9593 7.64176 12.8486 7.58644 12.3508C7.53113 11.7424 8.80329 11.134 10.4626 11.2999C10.5179 11.2999 10.5179 11.2446 10.5733 11.2446C10.4626 11.1893 10.352 11.134 10.2414 11.0787C9.7989 10.8574 9.68827 10.4703 9.85421 10.249C10.0201 9.97246 10.4626 9.86183 10.8498 9.86183C11.4582 9.86183 11.956 10.0278 12.3432 10.1937C12.3985 10.1937 12.3985 10.1384 12.4538 10.1384C12.3432 10.0278 12.1773 9.91715 12.122 9.80652C12.0113 9.64059 12.0113 9.36403 12.1773 9.25341C12.3985 9.08747 13.007 9.03216 13.5048 9.47465C13.6154 9.58528 13.726 9.6959 13.7813 9.75121C13.8366 9.75121 13.8919 9.75121 13.9472 9.6959C13.8366 9.58528 13.7813 9.41934 13.7813 9.30872C13.726 9.14279 13.7813 8.92154 14.0026 8.86623C14.2238 8.81092 14.5004 8.92154 14.6663 9.14279C14.8322 9.36403 14.9428 9.6959 14.9982 9.86183C13.8366 9.97246 12.4538 10.4149 11.6242 11.5765C10.7945 12.6827 10.4626 14.4527 10.9604 16.112C11.2923 17.8267 11.956 19.4307 12.5645 21.09C12.5645 21.09 12.5645 21.09 12.5645 21.1453C13.8919 24.9618 16.4363 34.3648 4.10183 39.3428C4.54432 39.6193 5.4293 39.8406 6.14835 39.8406H7.42051C9.96483 38.5131 11.6795 36.9091 12.8963 35.305C18.5381 37.7941 23.682 36.5219 25.8945 32.4289C27.3879 31.5439 28.3282 29.7186 28.3835 28.4464C29.3238 27.2849 29.4897 25.8468 29.2132 24.8512C29.1579 24.63 28.9366 24.63 28.6047 24.7959C24.0139 27.5615 19.9762 28.004 15.1641 26.5659C15.0535 24.6853 14.6663 23.0812 14.5004 22.0856C14.3897 20.1497 14.9982 19.2094 18.5381 20.371C20.8612 20.9794 21.9121 22.0303 22.7417 22.5834C23.1289 22.86 23.6267 23.1919 23.9033 22.9706C24.0692 22.86 24.1245 22.5281 24.1245 22.141C24.0692 21.09 23.5714 19.3201 23.1289 18.6563C24.5117 18.601 25.6732 18.601 26.2817 18.6563C27.6091 18.8776 27.7198 19.5966 27.8857 19.8732C28.2729 20.9794 30.43 20.7029 30.596 19.7626C30.9278 17.8267 31.0384 15.2823 29.1579 13.5124ZM4.59963 30.1058C3.71465 30.0505 2.82967 30.0505 2 30.1058V31.2673C3.49341 30.9355 4.4337 30.7695 4.4337 30.7695L4.59963 30.1058Z" fill="black"/>
<path fill-rule="evenodd" clip-rule="evenodd" d="M13.2279 15.3386C14.3342 16.9979 16.4913 17.5511 18.4272 17.9935C21.1928 18.602 22.299 19.9294 22.1884 20.0401C22.143 20.1307 22.0606 20.0356 22.0018 19.9679C21.9889 19.953 21.9771 19.9394 21.9671 19.9294C21.1046 19.1258 19.471 18.7736 17.7508 18.4028C14.6169 17.7273 11.1954 16.9897 11.6239 13.3474C11.7899 12.0752 12.6748 10.6924 14.1682 10.3606C14.0576 10.5265 13.947 10.7478 13.8917 11.0243L14.1129 11.0796C14.832 9.86278 16.6572 9.86278 16.8232 11.1349C16.8232 11.1349 18.2613 12.6283 18.5931 12.9049C18.6485 12.9602 18.7038 13.0155 18.6485 13.0708C18.6485 13.1261 18.4272 13.1261 18.2613 13.0708L18.206 13.2368C18.4825 13.458 19.4781 13.6793 21.1375 13.5686C21.58 13.5686 22.1331 13.5686 22.7415 13.458C21.9671 14.2324 21.4693 15.2833 21.1928 16.3895C21.1375 16.5554 21.0822 16.7214 20.7503 16.7214C17.4869 16.9979 14.7214 16.6108 13.7811 14.8408C13.6704 14.6749 13.7257 14.5089 13.8917 14.3983C14.1129 14.2877 14.3895 14.2877 14.666 14.343L14.7214 14.1771C14.1682 13.8452 13.3386 13.7899 12.8961 14.343C12.5642 14.7302 12.6748 15.228 12.9514 15.6705L13.1173 15.6152C13.062 15.5045 13.062 15.4492 13.062 15.3386C13.062 15.3386 13.062 15.2833 13.1173 15.2833C13.1726 15.2833 13.2279 15.2833 13.2279 15.3386ZM16.7126 12.1305C16.436 11.5221 15.8276 11.1349 15.4404 11.2456C15.3298 11.3009 15.2192 11.3562 15.1085 11.5221L15.1638 11.5774C15.3298 11.5774 15.4957 11.7434 15.6063 11.9093C15.717 12.1305 15.7723 12.3518 15.6063 12.4624C15.4957 12.5177 15.3298 12.4624 15.2192 12.3518H15.1638C15.1915 12.4071 15.2053 12.4486 15.2192 12.4901C15.233 12.5316 15.2468 12.573 15.2745 12.6283C15.551 13.2368 16.1594 13.6793 16.5466 13.5133C16.9338 13.3474 17.0444 12.739 16.7126 12.1305ZM21.0267 28.7789C24.2901 28.5577 26.7791 27.3408 28.1619 26.4558C27.3322 28.5577 24.1795 29.8298 21.1927 30.217C21.1927 30.3 21.1788 30.3691 21.165 30.4382C21.1512 30.5074 21.1374 30.5765 21.1374 30.6595C23.4051 30.5489 25.5623 29.7745 26.5579 29.1108C26.0048 31.2126 23.2392 32.0423 20.6949 32.1529C20.6672 32.2359 20.6257 32.305 20.5842 32.3741C20.5428 32.4433 20.5013 32.5124 20.4736 32.5954C21.9117 32.6507 23.3498 32.3741 24.1795 32.0976C23.3498 33.6463 20.6396 34.8078 17.6527 34.6972C19.2568 33.3144 19.9205 31.102 20.0311 30.4936C17.6527 30.4382 16.0487 30.1064 15.1084 29.8851C15.2191 29.332 15.2744 28.7789 15.2744 28.2258C16.9337 28.6683 19.1462 28.8895 21.0267 28.7789Z" fill="white"/>
</g>
</g>
<defs>
<clipPath id="clip0_25_1796">
<rect width="40" height="40" fill="white"/>
</clipPath>
</defs>
</svg>
