<svg width="40" height="40" viewBox="0 0 40 40" fill="none" xmlns="http://www.w3.org/2000/svg">
<g clip-path="url(#clip0_471_154)">
<path d="M20 39.872C30.975 39.872 39.872 30.975 39.872 20C39.872 9.02497 30.975 0.127975 20 0.127975C9.02499 0.127975 0.127991 9.02497 0.127991 20C0.127991 30.975 9.02499 39.872 20 39.872Z" fill="#FFDDC6"/>
<path d="M32.928 29.3521C33.44 29.3521 33.664 29.6001 33.664 30.0241C33.664 30.7761 32.968 31.8321 31.608 32.6001C29.328 33.8881 25.424 34.2561 20.016 34.2561C14.608 34.2561 10.704 33.8881 8.42398 32.6001C7.05598 31.8321 6.36798 30.7761 6.36798 30.0241C6.36798 29.5921 6.59198 29.3521 7.10398 29.3521H32.928Z" fill="#FF8533"/>
<path d="M32.928 12.6322H7.10398C6.59198 12.6322 6.36798 12.3682 6.36798 11.8962C6.36798 9.09623 10.584 4.14423 20.016 4.14423C29.368 4.14423 33.664 9.09623 33.664 11.8962C33.664 12.3682 33.44 12.6322 32.928 12.6322Z" fill="#FF8533"/>
<path d="M31.256 16.1203C31.104 16.1203 31.04 16.0323 31.04 15.9203V15.3283C31.04 15.2163 31.112 15.1283 31.256 15.1283H31.376C31.744 15.1283 31.856 15.3923 31.856 15.6163C31.856 15.8323 31.744 16.1283 31.376 16.1283H31.256V16.1203ZM24.504 14.0803C24.136 13.8083 23.616 13.6083 22.848 13.6083C21.488 13.6083 20.168 14.5043 20.168 16.5683C20.168 18.5523 21.488 19.4643 22.8 19.4643C24.176 19.4643 25.04 18.5843 25.04 17.3123C25.04 16.4963 24.552 15.9363 23.568 15.9363H23.288C22.768 15.9363 22.368 16.1843 22.368 16.7363C22.368 17.2243 22.8 17.4643 23.12 17.4643C23.288 17.4643 23.392 17.5203 23.392 17.6403C23.392 17.8003 23.208 17.9043 23 17.9043C22.344 17.9043 21.896 17.4403 21.896 16.5763C21.896 15.6163 22.512 15.2643 22.984 15.2643C23.56 15.2643 23.656 15.5603 24.064 15.5603C24.528 15.5603 24.84 15.1763 24.84 14.7683C24.832 14.4723 24.704 14.2403 24.504 14.0803ZM27.944 17.2323H27.336C27.184 17.2323 27.12 17.3203 27.12 17.4323V17.6003C27.12 17.7123 27.192 17.8003 27.336 17.8003H28.128C28.616 17.8003 29.008 18.0883 29.008 18.6083C29.008 19.1363 28.624 19.4243 28.128 19.4243H26.472C25.776 19.4243 25.448 19.0243 25.448 18.4803V14.6163C25.448 14.0723 25.784 13.6723 26.472 13.6723H28.128C28.616 13.6723 29.008 13.9603 29.008 14.4803C29.008 15.0083 28.624 15.2963 28.128 15.2963H27.336C27.184 15.2963 27.12 15.3843 27.12 15.4963V15.6403C27.12 15.7523 27.192 15.8403 27.336 15.8403H27.944C28.368 15.8403 28.696 16.0963 28.696 16.5443C28.696 16.9763 28.368 17.2323 27.944 17.2323ZM29.4 18.5203C29.4 19.0483 29.704 19.4643 30.264 19.4643C30.824 19.4643 31.128 19.0403 31.128 18.5203V17.5923C31.128 17.4803 31.184 17.4243 31.272 17.4243C31.376 17.4243 31.416 17.4883 31.432 17.5923C31.512 18.0403 31.72 18.6403 31.96 18.9523C32.256 19.3443 32.536 19.4723 32.816 19.4723C33.272 19.4723 33.664 19.1123 33.664 18.6643C33.664 18.3683 33.544 18.1443 33.384 17.9443C33.088 17.5683 32.904 17.3203 32.792 17.0163C32.768 16.9443 32.784 16.8883 32.864 16.8243C33.136 16.6163 33.448 16.1523 33.448 15.4163C33.448 14.3043 32.528 13.6723 31.416 13.6723H30.424C29.728 13.6723 29.4 14.0723 29.4 14.6163V18.5203ZM15.808 18.5203C15.808 19.0483 16.112 19.4643 16.672 19.4643C17.232 19.4643 17.536 19.0403 17.536 18.5203V17.5923C17.536 17.4803 17.592 17.4243 17.68 17.4243C17.784 17.4243 17.824 17.4883 17.84 17.5923C17.92 18.0403 18.128 18.6403 18.368 18.9523C18.664 19.3443 18.944 19.4723 19.224 19.4723C19.68 19.4723 20.072 19.1123 20.072 18.6643C20.072 18.3683 19.952 18.1443 19.792 17.9443C19.536 17.6083 19.312 17.3203 19.2 17.0163C19.176 16.9443 19.192 16.8883 19.272 16.8243C19.544 16.6163 19.856 16.1523 19.856 15.4163C19.856 14.3043 18.936 13.6723 17.824 13.6723H16.832C16.136 13.6723 15.808 14.0723 15.808 14.6163V18.5203ZM17.672 16.1203C17.52 16.1203 17.456 16.0323 17.456 15.9203V15.3283C17.456 15.2163 17.528 15.1283 17.672 15.1283H17.792C18.16 15.1283 18.272 15.3923 18.272 15.6163C18.272 15.8323 18.16 16.1283 17.792 16.1283H17.672V16.1203ZM8.12798 17.0163H8.28798C8.71198 17.0163 8.83198 17.2963 8.83198 17.5523C8.83198 17.7763 8.71198 18.1043 8.28798 18.1043H8.12798C7.97598 18.1043 7.91198 18.0163 7.91198 17.9043V17.2243C7.91198 17.1043 7.97598 17.0163 8.12798 17.0163ZM8.12798 15.9683C7.97598 15.9683 7.91198 15.8803 7.91198 15.7683V15.1763C7.91198 15.0643 7.98398 14.9763 8.12798 14.9763H8.23998C8.61598 14.9763 8.72798 15.2403 8.72798 15.4643C8.72798 15.6723 8.61598 15.9763 8.23998 15.9763H8.12798V15.9683ZM7.39198 19.4163H8.62398C9.79198 19.4163 10.496 18.6403 10.496 17.6643C10.496 16.8883 10.032 16.5283 9.92798 16.4403C9.88798 16.4083 9.83998 16.3683 9.83998 16.3363C9.83998 16.2963 9.86398 16.2723 9.91198 16.2243C10.08 16.0323 10.248 15.7283 10.248 15.2803C10.248 14.2323 9.53598 13.6643 8.43198 13.6643H7.39198C6.69598 13.6643 6.36798 14.0643 6.36798 14.6083V18.4723C6.36798 19.0163 6.69598 19.4163 7.39198 19.4163ZM13.08 19.4643C11.664 19.4643 10.92 18.6163 10.92 17.5443V14.5923C10.92 14.0643 11.224 13.6483 11.784 13.6483C12.344 13.6483 12.664 14.0723 12.664 14.5923V17.4483C12.664 17.6563 12.768 17.9043 13.088 17.9043C13.4 17.9043 13.528 17.6563 13.528 17.4483V14.5923C13.528 14.0643 13.832 13.6483 14.392 13.6483C14.952 13.6483 15.256 14.0723 15.256 14.5923V17.5443C15.248 18.6163 14.496 19.4643 13.08 19.4643Z" fill="#D62300"/>
<path fill-rule="evenodd" clip-rule="evenodd" d="M9.23992 26.9201V25.6721C9.23992 25.5681 9.27992 25.4881 9.39192 25.4881C9.51257 25.4881 9.5546 25.5892 9.58388 25.6597L9.58388 25.6597C9.58955 25.6733 9.59473 25.6858 9.59992 25.6961C9.79992 26.1761 10.3919 27.2001 10.9279 27.8081C11.2959 28.2081 11.7519 28.4641 12.2319 28.4641C13.0479 28.4641 13.7279 27.7521 13.7279 26.9921C13.7279 26.5201 13.5279 26.1681 13.1439 25.7441C12.6559 25.2081 12.0719 24.5121 11.8639 24.1841C11.7839 24.0641 11.7759 23.9841 11.7759 23.9441C11.7759 23.8481 11.8319 23.7761 11.9359 23.6801C12.1839 23.4561 12.7839 22.8801 13.1199 22.3681C13.3759 21.9761 13.4799 21.6161 13.4799 21.3201C13.4799 20.5601 12.7839 19.9601 12.0319 19.9601C11.5519 19.9601 11.0959 20.2321 10.7839 20.7281C10.3759 21.3921 9.87992 22.1681 9.56792 22.4721C9.48792 22.5521 9.44792 22.5681 9.38392 22.5681C9.27992 22.5681 9.23192 22.4961 9.23192 22.3841V21.5041C9.23192 20.6481 8.71992 19.9521 7.79992 19.9521C6.87192 19.9521 6.36792 20.6481 6.36792 21.5041V26.9041C6.36792 27.7601 6.86392 28.4562 7.79992 28.4562C8.72792 28.4721 9.23992 27.7761 9.23992 26.9201ZM21.1839 26.9521V25.0561C21.1839 24.8961 21.2319 24.8241 21.3359 24.8321C21.4079 24.8321 21.4559 24.8801 21.5199 25.0001L22.7359 27.3681C23.1999 28.2721 23.6959 28.4801 24.2319 28.4801C25.1519 28.4801 25.6639 27.7841 25.6639 26.9201V21.5041C25.6639 20.6481 25.1759 19.9761 24.2719 19.9761C23.3679 19.9761 22.8799 20.6561 22.8799 21.5041V23.4001C22.8799 23.5521 22.8239 23.6241 22.7279 23.6241C22.6559 23.6241 22.6079 23.5761 22.5439 23.4561L21.3279 21.0881C20.8639 20.1841 20.3839 19.9761 19.8319 19.9761C18.9119 19.9761 18.3999 20.6721 18.3999 21.5361V26.9521C18.3999 27.8081 18.8879 28.4801 19.7919 28.4801C20.6959 28.4801 21.1839 27.8001 21.1839 26.9521ZM30.3682 19.9761C31.5042 19.9761 32.3122 20.2641 32.8482 20.6561C33.1602 20.8801 33.3522 21.2161 33.3522 21.6561C33.3522 22.2321 32.8802 22.8001 32.1762 22.8001C31.8988 22.8001 31.718 22.7085 31.5214 22.6089C31.287 22.4902 31.03 22.3601 30.5602 22.3601C29.8482 22.3601 28.9282 22.8721 28.9282 24.2641C28.9282 25.5201 29.6002 26.1921 30.5922 26.1921C30.8882 26.1921 31.1682 26.0401 31.1682 25.8161C31.1682 25.6321 31.0082 25.5601 30.7682 25.5601C30.2882 25.5601 29.6402 25.2161 29.6402 24.4961C29.6402 23.7121 30.2402 23.3521 31.0082 23.3521H31.4402C32.9202 23.3521 33.6562 24.1681 33.6562 25.3441C33.6562 27.2001 32.3442 28.4721 30.2882 28.4721C28.3282 28.4721 26.3362 27.1281 26.3362 24.2641C26.3362 21.2641 28.3282 19.9761 30.3682 19.9761ZM15.8641 19.9683C16.8401 19.9683 17.3761 20.7043 17.3761 21.6243V26.8083C17.3761 27.7283 16.8481 28.4643 15.8641 28.4643C14.8881 28.4643 14.3521 27.7283 14.3521 26.8083V21.6243C14.3521 20.7043 14.8801 19.9683 15.8641 19.9683Z" fill="#D62300"/>
</g>
<defs>
<clipPath id="clip0_471_154">
<rect width="40" height="40" fill="white"/>
</clipPath>
</defs>
</svg>
