<svg width="40" height="40" viewBox="0 0 40 40" fill="none" xmlns="http://www.w3.org/2000/svg">
<path d="M40 20.0043C40 31.0535 31.052 40.0001 20.0061 40.0001C8.95874 40.0001 0 31.0535 0 20.0043C0 8.95513 8.95874 -7.62939e-05 20.0061 -7.62939e-05C31.0521 -7.62939e-05 40 8.95513 40 20.0043Z" fill="#010202"/>
<path d="M7.66847 22.1899C7.79102 22.5152 7.96069 22.7932 8.17751 23.0242C8.39433 23.2551 8.65119 23.4319 8.9481 23.5544C9.24505 23.677 9.5679 23.7382 9.91668 23.7382C10.2561 23.7382 10.5742 23.6746 10.8711 23.5473C11.1681 23.42 11.4273 23.241 11.6488 23.01C11.8703 22.7791 12.0423 22.5034 12.1649 22.1829C12.2875 21.8624 12.3487 21.5042 12.3487 21.1083V14.9999H13.8334V24.8977H12.3629V23.9786C12.0329 24.3273 11.6441 24.596 11.1963 24.7846C10.7485 24.9731 10.2655 25.0673 9.74702 25.0673C9.21911 25.0673 8.72659 24.9754 8.2694 24.7916C7.81223 24.6078 7.4163 24.3462 7.08168 24.0069C6.74707 23.6675 6.4831 23.2599 6.28987 22.7838C6.09661 22.3078 6 21.7775 6 21.1931V14.9999H7.48466V21.1083C7.48466 21.5042 7.54592 21.8647 7.66847 22.1899ZM16.3925 14.9999V18.6055C16.7224 18.2756 17.1042 18.014 17.5378 17.8208C17.9714 17.6275 18.4428 17.5309 18.9518 17.5309C19.4797 17.5309 19.9745 17.6299 20.4364 17.8278C20.8983 18.0258 21.2989 18.2944 21.6383 18.6338C21.9777 18.9732 22.2463 19.3738 22.4443 19.8357C22.6422 20.2976 22.7412 20.7878 22.7412 21.3062C22.7412 21.8246 22.6422 22.3125 22.4443 22.7696C22.2463 23.2268 21.9777 23.6251 21.6383 23.9644C21.2989 24.3038 20.8983 24.5724 20.4364 24.7704C19.9745 24.9683 19.4797 25.0673 18.9518 25.0673C18.4427 25.0673 17.9691 24.9707 17.5308 24.7774C17.0924 24.5842 16.7083 24.3226 16.3784 23.9927V24.8976H14.9644V14.9999H16.3925ZM16.5551 22.2818C16.6824 22.5835 16.8591 22.8474 17.0854 23.0737C17.3116 23.2999 17.5755 23.479 17.8772 23.611C18.1788 23.743 18.504 23.8089 18.8528 23.8089C19.1922 23.8089 19.5127 23.743 19.8143 23.611C20.1159 23.479 20.3775 23.2999 20.5991 23.0737C20.8206 22.8475 20.9973 22.5835 21.1293 22.2818C21.2613 21.9802 21.3272 21.655 21.3272 21.3062C21.3272 20.9574 21.2613 20.6298 21.1293 20.3235C20.9973 20.0171 20.8206 19.7508 20.5991 19.5246C20.3775 19.2984 20.116 19.1216 19.8143 18.9944C19.5126 18.8671 19.1922 18.8035 18.8528 18.8035C18.5135 18.8035 18.193 18.8671 17.8913 18.9944C17.5897 19.1217 17.3258 19.2984 17.0995 19.5246C16.8733 19.7508 16.6942 20.0171 16.5622 20.3235C16.4302 20.6298 16.3643 20.9574 16.3643 21.3062C16.3642 21.655 16.4279 21.9802 16.5551 22.2818ZM23.547 19.8498C23.7355 19.3974 23.9948 18.9991 24.3247 18.655C24.6546 18.311 25.0458 18.04 25.4983 17.842C25.9508 17.6441 26.4409 17.5451 26.9688 17.5451C27.4873 17.5451 27.968 17.6394 28.4111 17.8279C28.8541 18.0164 29.2359 18.278 29.5564 18.6127C29.8769 18.9473 30.1267 19.3432 30.3057 19.8004C30.4849 20.2576 30.5744 20.7548 30.5744 21.2921V21.7587H24.7065C24.7536 22.051 24.8479 22.322 24.9893 22.5717C25.1307 22.8215 25.3074 23.0383 25.5195 23.2222C25.7316 23.406 25.972 23.5498 26.2406 23.6534C26.5093 23.7571 26.7944 23.809 27.0961 23.809C27.9539 23.809 28.6468 23.4555 29.1746 22.7485L30.2068 23.512C29.8486 23.9928 29.4056 24.3698 28.8777 24.6432C28.3498 24.9165 27.756 25.0532 27.0961 25.0532C26.5588 25.0532 26.0569 24.9589 25.5902 24.7704C25.1236 24.5819 24.7183 24.318 24.3742 23.9786C24.0302 23.6392 23.7592 23.241 23.5612 22.7838C23.3633 22.3266 23.2643 21.8294 23.2643 21.2921C23.2642 20.7831 23.3585 20.3023 23.547 19.8498ZM25.5336 19.2913C25.133 19.6259 24.8667 20.0713 24.7348 20.6275H29.1322C29.0097 20.0713 28.7481 19.6259 28.3474 19.2913C27.9468 18.9567 27.4778 18.7894 26.9406 18.7894C26.4032 18.7894 25.9343 18.9567 25.5336 19.2913ZM33.2467 19.4539C32.9451 19.7838 32.7942 20.2316 32.7942 20.7972V24.8977H31.3661V17.6865H32.7801V18.5773C32.9592 18.2851 33.1925 18.0541 33.48 17.8844C33.7675 17.7147 34.1092 17.6299 34.5051 17.6299H35V18.959H34.4061C33.9348 18.959 33.5484 19.124 33.2467 19.4539Z" fill="white"/>
</svg>
