<svg width="41" height="40" viewBox="0 0 41 40" fill="none" xmlns="http://www.w3.org/2000/svg">
<path fill-rule="evenodd" clip-rule="evenodd" d="M20.5 40C31.5457 40 40.5 31.0457 40.5 20C40.5 8.95433 31.5457 0 20.5 0C9.45433 0 0.5 8.95433 0.5 20C0.5 31.0457 9.45433 40 20.5 40Z" fill="url(#paint0_linear)"/>
<mask id="mask0" mask-type="alpha" maskUnits="userSpaceOnUse" x="0" y="0" width="41" height="40">
<path fill-rule="evenodd" clip-rule="evenodd" d="M20.5 40C31.5457 40 40.5 31.0457 40.5 20C40.5 8.95433 31.5457 0 20.5 0C9.45433 0 0.5 8.95433 0.5 20C0.5 31.0457 9.45433 40 20.5 40Z" fill="url(#paint1_linear)"/>
</mask>
<g mask="url(#mask0)">
<g opacity="0.8">
<path d="M41.5 26.4996L37.2869 30.4121C35.6349 32.0051 33.6619 33.2272 31.4999 33.9967C29.3378 34.7663 27.0364 35.0655 24.7494 34.8746C14.1244 34.8746 5.62441 26.3746 5.62441 15.7496C5.41191 11.0746 6.89941 6.61208 10.0869 3.21208C10.0869 3.21208 15.5875 -1.00042 17.5 -1.00042C44.5 -2.5 41.5 26.4996 41.5 26.4996Z" fill="url(#paint2_radial)"/>
<path d="M40.5 27.4996L36.2869 31.4121C34.6349 33.0051 32.6619 34.2272 30.4999 34.9967C28.3378 35.7663 26.0364 36.0656 23.7494 35.8746C13.1244 35.8746 4.62441 27.3746 4.62441 16.7496C4.41191 12.0746 5.89941 7.6121 9.08691 4.2121C9.08691 4.2121 14.5875 -0.000401765 16.5 -0.000401765C46.5 -3.49951 40.5 27.4996 40.5 27.4996Z" fill="url(#paint3_linear)"/>
</g>
</g>
<defs>
<linearGradient id="paint0_linear" x1="20.5252" y1="40" x2="20.5252" y2="-0.0251571" gradientUnits="userSpaceOnUse">
<stop stop-color="#141414"/>
<stop offset="1" stop-color="#232323"/>
</linearGradient>
<linearGradient id="paint1_linear" x1="20.5252" y1="40" x2="20.5252" y2="-0.0251571" gradientUnits="userSpaceOnUse">
<stop stop-color="#141414"/>
<stop offset="1" stop-color="#232323"/>
</linearGradient>
<radialGradient id="paint2_radial" cx="0" cy="0" r="1" gradientUnits="userSpaceOnUse" gradientTransform="translate(23.6018 16.9369) scale(17.9973 17.9936)">
<stop stop-color="#00FF00" stop-opacity="0.42"/>
<stop offset="0.01" stop-color="#00FF00" stop-opacity="0.42"/>
<stop offset="1" stop-color="#00FF00" stop-opacity="0.1"/>
</radialGradient>
<linearGradient id="paint3_linear" x1="20.5619" y1="3.97924" x2="20.5619" y2="35.8542" gradientUnits="userSpaceOnUse">
<stop stop-color="#70FF00"/>
<stop offset="0.32" stop-color="#00FF00"/>
<stop offset="1" stop-color="#00FF66"/>
</linearGradient>
</defs>
</svg>
