<svg width="41" height="40" viewBox="0 0 41 40" fill="none" xmlns="http://www.w3.org/2000/svg">
<path fill-rule="evenodd" clip-rule="evenodd" d="M20.5 40C31.5457 40 40.5 31.0457 40.5 20C40.5 8.95433 31.5457 0 20.5 0C9.45433 0 0.5 8.95433 0.5 20C0.5 31.0457 9.45433 40 20.5 40Z" fill="#E5E5E5"/>
<mask id="mask0_25_3587" style="mask-type:alpha" maskUnits="userSpaceOnUse" x="0" y="0" width="41" height="40">
<path fill-rule="evenodd" clip-rule="evenodd" d="M20.5 40C31.5457 40 40.5 31.0457 40.5 20C40.5 8.95433 31.5457 0 20.5 0C9.45433 0 0.5 8.95433 0.5 20C0.5 31.0457 9.45433 40 20.5 40Z" fill="#E5E5E5"/>
</mask>
<g mask="url(#mask0_25_3587)">
<path d="M10 1.00091L16.0001 -1.00052C16.0001 -1.00052 23.2032 1.00738e-07 25.987 2.93344C27 4.00091 27.8547 5.02312 28.6837 7.57615C29.5534 10.127 29.7619 13.326 29.3286 17.1514C29.0719 20.7489 28.0722 24.2541 26.3925 27.4458C24.327 31.7248 21.5005 34.4994 20.1143 35.6051C18.7281 36.7108 14.5005 39.4994 13.0005 38.9994C11.5005 38.4994 7.30312 35.7999 6.00044 34.4994C4.69775 33.199 4.33699 30.5038 4.33514 28.6631L4.33076 9.85423C4.34558 8.02359 5.08296 6.27294 6.38236 4.98336C7.68176 3.69378 10 1.00091 10 1.00091Z" fill="#0000F9"/>
<path d="M9.50003 1.99962L18.6266 -1.06928C18.6266 -1.06928 24.4736 1.36688 25.9869 2.93344C27.5001 4.5 27.8546 5.02314 28.6836 7.57617C29.5533 10.1271 29.7618 13.3259 29.3285 17.1514C29.0718 20.7489 28.0721 24.2541 26.3924 27.4458C24.3268 31.7248 23.0001 33 20.1141 35.6052C17.2282 38.2103 14.0001 39 14.0001 39C12.1594 39.0013 6.80283 35.3003 5.50014 33.9998C4.19745 32.6994 4.33688 30.5038 4.33503 28.6631L4.33064 9.85424C4.34547 8.02361 5.08284 6.27294 6.38224 4.98336C7.68164 3.69379 9.50003 1.99962 9.50003 1.99962Z" fill="url(#paint0_linear_25_3587)" fill-opacity="0.54"/>
<path d="M5.70499 5.69037C7.5625 5.63391 9.36953 5.78455 10.9404 6.11111C12.6551 6.45059 14.1004 7.11085 15.2946 8.05006C16.4897 9.00966 17.3544 10.2933 17.8895 11.9212C18.4439 13.5277 18.5711 15.5655 18.2916 18.0336C18.0648 20.3131 17.4335 22.5339 16.4272 24.5918C15.5267 26.4133 14.2953 28.0516 12.796 29.423C11.3513 30.7254 8.88508 32.0405 7.784 32.4866C7.10361 32.7676 6.70759 33.0133 6.00146 33.1934C6.00146 33.1934 0.00012205 35.4995 0.500171 20.0004C0.822642 10.0053 5.70499 5.69037 5.70606 5.71076L5.70499 5.69037Z" fill="#161616"/>
<path d="M5.70503 5.69044C7.56254 5.63398 9.36957 5.78461 10.9405 6.11118C12.6552 6.45065 14.1005 7.11092 15.2946 8.05013C16.4898 9.00972 17.3544 10.2933 17.8895 11.9213C18.4439 13.5278 18.5712 15.5656 18.2916 18.0336C18.0648 20.3131 17.4335 22.5339 16.4273 24.5919C15.5267 26.4134 14.2954 28.0516 12.796 29.4231C11.3513 30.7255 8.88512 32.0405 7.78404 32.4867C7.10365 32.7677 6.70763 33.0133 6.00151 33.1935C6.00151 33.1935 0.500122 34.9998 0.500166 20.0002C0.500195 9.74238 5.70503 5.69044 5.7061 5.71082L5.70503 5.69044Z" fill="url(#paint1_linear_25_3587)" fill-opacity="0.08"/>
</g>
<defs>
<linearGradient id="paint0_linear_25_3587" x1="28.9791" y1="1.99299" x2="10.104" y2="31.904" gradientUnits="userSpaceOnUse">
<stop stop-color="white" stop-opacity="0.5"/>
<stop offset="1" stop-color="white" stop-opacity="0"/>
</linearGradient>
<linearGradient id="paint1_linear_25_3587" x1="10.5136" y1="5.44167" x2="11.9518" y2="32.8848" gradientUnits="userSpaceOnUse">
<stop stop-color="white" stop-opacity="0.77"/>
<stop offset="1" stop-color="white" stop-opacity="0"/>
</linearGradient>
</defs>
</svg>
