<svg width="40" height="40" viewBox="0 0 40 40" fill="none" xmlns="http://www.w3.org/2000/svg">
<g clip-path="url(#clip0_3_5928)">
<mask id="mask0_3_5928" style="mask-type:alpha" maskUnits="userSpaceOnUse" x="0" y="0" width="40" height="40">
<path d="M19.802 39.6033C30.738 39.6033 39.6033 30.738 39.6033 19.802C39.6033 8.86533 30.738 0 19.802 0C8.86533 0 0 8.86533 0 19.802C0 30.738 8.86533 39.6033 19.802 39.6033Z" fill="white"/>
</mask>
<g mask="url(#mask0_3_5928)">
<path d="M19.802 39.6033C30.738 39.6033 39.6033 30.738 39.6033 19.802C39.6033 8.86533 30.738 0 19.802 0C8.86533 0 0 8.86533 0 19.802C0 30.738 8.86533 39.6033 19.802 39.6033Z" fill="#2A678D"/>
<path fill-rule="evenodd" clip-rule="evenodd" d="M21.3393 20.546C21.3733 20.5194 21.4107 20.4954 21.442 20.466C21.9207 20.0134 22.4 19.562 22.8727 19.1047C22.9188 19.0506 22.9464 18.983 22.9513 18.912C22.9713 18.7367 22.9587 18.5567 22.9933 18.3847C23.0347 18.176 23.2347 18.064 23.4773 18.08C23.712 18.0954 23.8893 18.2254 23.9027 18.4354C23.928 18.8254 23.9373 19.216 23.9393 19.6067C23.944 20.344 23.9393 21.082 23.9373 21.8194C23.9373 21.9394 23.9327 22.0607 23.9233 22.1814C23.9047 22.4227 23.7247 22.5794 23.4687 22.5814C23.194 22.5847 22.99 22.434 22.9787 22.19C22.96 21.8034 22.9613 21.4167 22.9553 21.03C22.9527 20.8647 22.9553 20.6994 22.9527 20.534C22.9513 20.48 22.94 20.426 22.9307 20.346C22.8773 20.384 22.8433 20.4047 22.8147 20.4307C22.3467 20.8707 21.88 21.3107 21.4113 21.75C21.3771 21.7786 21.3501 21.8147 21.3322 21.8556C21.3144 21.8964 21.3063 21.9409 21.3087 21.9854C21.3113 22.0654 21.3007 22.1467 21.282 22.2247C21.222 22.4834 21.0373 22.6034 20.7493 22.578C20.506 22.5574 20.3447 22.398 20.3407 22.148C20.3302 21.4023 20.3233 20.6565 20.32 19.9107C20.3173 19.484 20.3207 19.0567 20.322 18.6294C20.322 18.5894 20.3247 18.5494 20.3287 18.5087C20.354 18.2287 20.5393 18.0687 20.8313 18.074C21.0973 18.0787 21.2913 18.256 21.296 18.5234C21.3047 19.0554 21.3 19.5874 21.3013 20.1187V20.5274L21.3393 20.546ZM17.5333 20.2887C17.5053 20.0414 17.4913 19.726 17.4293 19.42C17.366 19.1094 17.09 18.9447 16.756 18.9707C16.7273 18.9727 16.6973 18.9594 16.668 18.9614C16.578 18.968 16.4813 18.9614 16.3987 18.9894C16.1187 19.0847 15.996 19.3074 15.9873 19.5627C15.97 20.0934 15.9613 20.6254 15.994 21.154C16.018 21.544 16.3387 21.8047 16.718 21.7974C17.1093 21.79 17.4207 21.5994 17.47 21.1727C17.502 20.9014 17.51 20.6274 17.5333 20.2887ZM18.52 20.466C18.478 20.7734 18.4647 21.1774 18.3593 21.558C18.202 22.1247 17.7687 22.458 17.1687 22.576C16.662 22.6753 16.1707 22.6347 15.7247 22.356C15.2813 22.0794 15.0493 21.6827 15.01 21.1887C14.9633 20.614 14.9353 20.0394 15.0053 19.4634C15.0767 18.8767 15.4013 18.4634 15.9547 18.21C16.216 18.09 16.5013 18.1167 16.788 18.132C17.16 18.152 17.5147 18.1694 17.8267 18.392C18.16 18.632 18.364 18.9414 18.418 19.328C18.4667 19.6747 18.4827 20.0247 18.5207 20.466H18.52ZM26.3867 20.3514C26.3867 19.7427 26.3847 19.134 26.388 18.526C26.3893 18.3734 26.442 18.2347 26.5993 18.166C26.7873 18.0827 26.978 18.076 27.1553 18.198C27.2089 18.2327 27.2528 18.2803 27.2831 18.3365C27.3134 18.3927 27.3291 18.4555 27.3287 18.5194C27.334 18.846 27.3367 19.172 27.34 19.4987C27.34 19.5627 27.3427 19.6274 27.3407 19.692C27.338 19.7954 27.3893 19.8354 27.4973 19.832C27.5853 19.83 27.6753 19.836 27.7627 19.8514C27.86 19.868 27.9253 19.8387 27.976 19.7607C28.204 19.412 28.4293 19.062 28.6647 18.718C28.7913 18.5327 28.9313 18.3547 29.0767 18.1827C29.212 18.022 29.4287 18.0027 29.6287 18.116C29.8073 18.2174 29.8887 18.416 29.7953 18.5967C29.7033 18.7767 29.5867 18.9474 29.4727 19.1167C29.2167 19.4967 28.9567 19.874 28.6953 20.25C28.646 20.3214 28.6473 20.3734 28.7013 20.4447C28.99 20.8227 29.2747 21.2034 29.5547 21.588C29.6193 21.6767 29.688 21.7234 29.8047 21.7154C29.9767 21.704 30.1407 21.718 30.2753 21.848C30.526 22.0894 30.4287 22.506 30.0787 22.5567C29.7993 22.598 29.5053 22.564 29.22 22.54C29.1433 22.5334 29.0573 22.452 29.006 22.384C28.666 21.936 28.338 21.4807 27.9987 21.0327C27.884 20.882 27.7527 20.7427 27.5367 20.718C27.398 20.7027 27.3647 20.7214 27.3633 20.8527C27.3613 21.2154 27.3647 21.578 27.3633 21.9414C27.3627 22.0334 27.3593 22.1267 27.346 22.218C27.31 22.478 27.1207 22.6227 26.842 22.6114C26.5813 22.6007 26.4 22.432 26.3913 22.176C26.382 21.8987 26.384 21.6207 26.3827 21.3427V20.3514H26.3867Z" fill="white"/>
<mask id="mask1_3_5928" style="mask-type:alpha" maskUnits="userSpaceOnUse" x="31" y="18" width="5" height="5">
<path d="M35.9747 22.6253V18.078H31.9513V22.6253H35.9747Z" fill="white"/>
</mask>
<g mask="url(#mask1_3_5928)">
<path fill-rule="evenodd" clip-rule="evenodd" d="M33.9466 19.5646L33.9113 19.5693C33.8899 19.6193 33.8673 19.6693 33.8479 19.7199C33.6979 20.1006 33.5479 20.4813 33.4013 20.8633C33.3399 21.0219 33.3546 21.0439 33.5346 21.0506C33.8186 21.0619 34.1033 21.0653 34.3879 21.0679C34.5399 21.0693 34.5613 21.0359 34.5066 20.9013C34.3666 20.5513 34.2266 20.2013 34.0839 19.8533C34.0439 19.7553 33.9926 19.6606 33.9466 19.5646ZM34.4546 21.8713C34.0426 21.8713 33.6313 21.8753 33.2193 21.8679C33.0759 21.8653 32.9866 21.9013 32.9459 22.0406C32.9146 22.1486 32.8659 22.2533 32.8166 22.3553C32.7714 22.4435 32.6986 22.5146 32.6094 22.5578C32.5201 22.601 32.4192 22.6139 32.3219 22.5946C32.0979 22.5513 31.9479 22.4206 31.9533 22.2393C31.9559 22.1179 31.9879 21.9913 32.0333 21.8766C32.2646 21.2966 32.5066 20.7219 32.7399 20.1433C32.8959 19.7566 33.0426 19.3659 33.1946 18.9773C33.2746 18.7739 33.3413 18.5639 33.4419 18.3706C33.5266 18.2086 33.6659 18.0866 33.8786 18.0786C34.0873 18.0713 34.2773 18.1173 34.3759 18.3053C34.4946 18.5319 34.5946 18.7679 34.6953 19.0026C34.8786 19.4313 35.0586 19.8613 35.2373 20.2913C35.3493 20.5613 35.4559 20.8326 35.5659 21.1026C35.6673 21.3506 35.7739 21.5959 35.8693 21.8453C35.9253 21.9906 36.0106 22.1319 35.9619 22.2986C35.9358 22.3796 35.8884 22.4521 35.8246 22.5084C35.7607 22.5647 35.6829 22.6028 35.5993 22.6186C35.3853 22.6486 35.2173 22.5833 35.1206 22.4179C35.0546 22.3108 35.0009 22.1965 34.9606 22.0773C34.9193 21.9426 34.8439 21.8793 34.6973 21.8879C34.6173 21.8919 34.5359 21.8879 34.4553 21.8879V21.8706" fill="white"/>
</g>
<path fill-rule="evenodd" clip-rule="evenodd" d="M10.7153 19.4947H10.7113C10.7113 19.648 10.7127 19.8013 10.7113 19.9547C10.7107 20.04 10.7513 20.0793 10.8427 20.0773C11.106 20.0733 11.3693 20.08 11.632 20.0667C11.944 20.0507 12.1593 19.8373 12.1813 19.5467C12.2027 19.2573 12.0213 18.994 11.72 18.956C11.42 18.918 11.1133 18.9307 10.8087 18.932C10.7773 18.932 10.7227 19.0053 10.7193 19.048C10.7087 19.196 10.7153 19.346 10.7153 19.4947ZM10.9913 18.1133C11.276 18.1133 11.5633 18.0867 11.8433 18.1187C12.7373 18.2187 13.2607 18.8867 13.13 19.732C13.038 20.326 12.5907 20.7807 11.9633 20.87C11.634 20.9167 11.2953 20.908 10.9613 20.9167C10.728 20.9213 10.722 20.9153 10.7173 21.1393C10.71 21.466 10.714 21.7927 10.7093 22.1193C10.7073 22.268 10.6713 22.4033 10.5327 22.5013C10.364 22.62 10.184 22.6247 10.0013 22.5567C9.828 22.4913 9.75667 22.3447 9.75067 22.1793C9.74 21.8693 9.74067 21.5593 9.74267 21.2487C9.74534 20.7013 9.75334 20.1533 9.758 19.6053C9.76067 19.2787 9.758 18.952 9.76467 18.626C9.77134 18.2707 9.954 18.1053 10.3293 18.1033H10.9913V18.1133Z" fill="white"/>
<mask id="mask2_3_5928" style="mask-type:alpha" maskUnits="userSpaceOnUse" x="4" y="18" width="4" height="5">
<path d="M7.49267 22.6473H4V18.1053H7.49267V22.6473Z" fill="white"/>
</mask>
<g mask="url(#mask2_3_5928)">
<path fill-rule="evenodd" clip-rule="evenodd" d="M6.23467 20.6316C6.23467 21.1349 6.23867 21.6382 6.23334 22.1422C6.22934 22.5362 5.90801 22.7416 5.51867 22.6049C5.35801 22.5482 5.26867 22.4296 5.25867 22.2762C5.24285 21.9947 5.23618 21.7128 5.23867 21.4309C5.23934 20.6776 5.24667 19.9242 5.25001 19.1709C5.25001 19.0009 5.24801 18.9976 5.07134 18.9922C4.85534 18.9856 4.63934 18.9876 4.42267 18.9809C4.15667 18.9729 4.00801 18.8129 4.00001 18.5329C3.99945 18.426 4.0408 18.3231 4.11521 18.2464C4.18961 18.1696 4.29113 18.125 4.39801 18.1222C4.92001 18.1089 5.44201 18.1089 5.96467 18.1069C6.32534 18.1048 6.68603 18.1062 7.04667 18.1109C7.33334 18.1149 7.48934 18.2676 7.49201 18.5336C7.49401 18.7622 7.31067 18.9402 7.05534 18.9489C6.83067 18.9562 6.60601 18.9616 6.38134 18.9576C6.27601 18.9556 6.26067 19.0082 6.26001 19.0842L6.24534 20.4502V20.6316H6.23401" fill="white"/>
</g>
<mask id="mask3_3_5928" style="mask-type:alpha" maskUnits="userSpaceOnUse" x="21" y="16" width="2" height="2">
<path d="M22.634 16.6907H21.6273V17.6013H22.634V16.6907Z" fill="white"/>
</mask>
<g mask="url(#mask3_3_5928)">
<path fill-rule="evenodd" clip-rule="evenodd" d="M22.1062 16.6907C22.1696 16.6973 22.2376 16.6927 22.2949 16.7127C22.3756 16.7407 22.4669 16.7967 22.5216 16.8547C22.6682 17.0087 22.6462 17.176 22.5922 17.356C22.5422 17.5247 22.3949 17.5907 22.2202 17.5987C22.1357 17.6049 22.0508 17.6022 21.9669 17.5907C21.7669 17.5573 21.6356 17.4167 21.6282 17.224C21.6215 17.1317 21.63 17.0389 21.6536 16.9493C21.7069 16.7747 21.8822 16.6827 22.1069 16.6913" fill="white"/>
</g>
</g>
</g>
<defs>
<clipPath id="clip0_3_5928">
<rect width="40" height="40" fill="white"/>
</clipPath>
</defs>
</svg>
