<svg width="40" height="40" viewBox="0 0 40 40" fill="none" xmlns="http://www.w3.org/2000/svg">
<circle cx="20" cy="20" r="20" fill="#D9232E"/>
<path fill-rule="evenodd" clip-rule="evenodd" d="M20 9C25.5271 9 30 13.4879 30 19C30 21.756 28.8855 24.256 27.0783 26.0632L20 33.1415L18.8404 31.997L25.9187 24.9187C27.4398 23.4126 28.3735 21.3193 28.3735 19C28.3735 14.3916 24.6235 10.6265 20 10.6265C15.3765 10.6265 11.6265 14.3916 11.6265 19C11.6265 21.3042 12.5602 23.3976 14.0663 24.9036C14.2169 25.0542 14.3223 25.265 14.3223 25.4909C14.3223 25.9427 13.9458 26.3042 13.509 26.3042C13.2681 26.3042 13.0723 26.2138 12.9217 26.0632C11.1145 24.2711 10 21.756 10 19C10 13.4879 14.4729 9 20 9ZM25 24.0151L25.0151 24C26.2952 22.7199 27.0783 20.9579 27.0783 19C27.0783 15.0994 23.9006 11.9217 20 11.9217C16.0994 11.9217 12.9217 15.0994 12.9217 19C12.9217 20.9579 13.7199 22.735 14.9849 24C15.1355 24.1506 15.3464 24.241 15.5723 24.241C16.0241 24.241 16.3855 23.8796 16.3855 23.4278C16.3855 23.2018 16.2801 22.991 16.1295 22.8404C15.1506 21.8615 14.5482 20.5061 14.5482 19C14.5482 15.988 16.9879 13.5482 20 13.5482C23.012 13.5482 25.4518 15.988 25.4518 19C25.4518 20.5061 24.8494 21.8765 23.8554 22.8555L16.7771 29.9338L17.9367 31.0784L25 24.0151ZM20 14.8434C17.6958 14.8434 15.8283 16.7108 15.8283 19C15.8283 21.3042 17.6958 23.1717 20 23.1717C22.2892 23.1717 24.1717 21.3042 24.1717 19C24.1717 16.7108 22.2892 14.8434 20 14.8434ZM20 21.5452C18.5994 21.5452 17.4548 20.4006 17.4548 19C17.4548 17.5994 18.5994 16.4699 20 16.4699C21.4006 16.4699 22.5452 17.5994 22.5452 19C22.5452 20.4006 21.4006 21.5452 20 21.5452Z" fill="white"/>
</svg>
