<svg width="41" height="40" viewBox="0 0 41 40" fill="none" xmlns="http://www.w3.org/2000/svg">
<path fill-rule="evenodd" clip-rule="evenodd" d="M20.5 40C31.5457 40 40.5 31.0457 40.5 20C40.5 8.95433 31.5457 0 20.5 0C9.45433 0 0.5 8.95433 0.5 20C0.5 31.0457 9.45433 40 20.5 40Z" fill="#00B33C"/>
<path fill-rule="evenodd" clip-rule="evenodd" d="M11.4902 22.5099H10.358C8.59173 22.5099 9.87489 18.7586 11.3618 18.7586H13.1507C13.4376 18.7586 13.9433 18.8114 14.1924 18.1019L14.5773 16.9999H12.1242C10.7957 16.9999 9.76167 17.4679 9.01441 18.2528C7.7237 19.5964 7.28592 21.6947 7.59539 22.6986C7.88976 23.627 8.68985 24.2384 9.94282 24.2535L10.9165 24.2611H12.1167L12.411 23.378C12.6299 22.7515 12.1393 22.5099 11.4902 22.5099ZM25.2728 20.955L25.6427 19.7549H21.6951C21.0384 19.7549 20.744 19.9361 20.6308 20.3135L20.261 21.5136H24.2086C24.8653 21.5136 25.1596 21.3324 25.2728 20.955ZM19.6722 23.0685L19.3024 24.2686H23.25C23.8991 24.2686 24.201 24.0875 24.3142 23.7101L24.6841 22.5099H20.7365C20.0874 22.5099 19.793 22.6911 19.6722 23.0685ZM26.1937 18.2076L26.5636 17.0074H22.6159C21.9593 17.0074 21.6649 17.1886 21.5517 17.566L21.1818 18.7661H25.1294C25.7786 18.7661 26.0729 18.585 26.1937 18.2076ZM20.2308 18.4491C20.0647 17.332 19.4684 17.0074 18.0192 17.0074H15.3774L13.8376 21.5136H14.8113C15.3925 21.5136 15.6869 21.5211 15.9963 20.6909L16.6379 18.7586H17.6192C18.457 18.7586 18.2683 19.8077 17.8456 20.8267C17.4682 21.7249 16.8115 22.5175 16.019 22.5175H14.3811C13.7244 22.5175 13.4225 22.6986 13.3017 23.076L12.8941 24.2762H14.0942L15.2717 24.2686C16.3133 24.2611 17.1663 24.1856 18.1626 23.2874C19.2193 22.3288 20.4421 19.8681 20.2308 18.4491ZM33.5002 16.9999H31.2131L29.062 19.2869C28.8129 19.5511 28.5562 19.8153 28.3071 20.1248H28.2845L29.3563 16.9999H27.492L24.9785 24.2686H26.8428L27.6429 21.9816L28.4732 21.2796L29.1299 23.3478C29.3337 23.9893 29.545 24.2686 29.9979 24.2686H31.4245L29.9602 20.2078L33.5002 16.9999Z" fill="white"/>
</svg>
