<svg width="40" height="40" viewBox="0 0 40 40" fill="none" xmlns="http://www.w3.org/2000/svg">
<g clip-path="url(#clip0_25_3850)">
<path d="M20 40C31.0457 40 40 31.0457 40 20C40 8.9543 31.0457 0 20 0C8.9543 0 0 8.9543 0 20C0 31.0457 8.9543 40 20 40Z" fill="#C1082C"/>
<path d="M3.6305 19.8046H4.3845C4.48306 19.8049 4.58141 19.7952 4.678 19.7756C4.768 19.7581 4.853 19.7256 4.9315 19.6776C5.0065 19.6321 5.0665 19.5691 5.1125 19.4896C5.1585 19.4096 5.1815 19.3096 5.1815 19.1886C5.1815 19.0581 5.1515 18.9531 5.091 18.8736C5.03027 18.7936 4.95052 18.73 4.859 18.6886C4.75927 18.6437 4.65286 18.6155 4.544 18.6051C4.43322 18.5933 4.3219 18.5873 4.2105 18.5871H3.6305V19.8046ZM2.5 17.6306H4.4065C4.6715 17.6306 4.923 17.6546 5.1595 17.7031C5.38056 17.7449 5.59123 17.8299 5.7795 17.9531C5.958 18.0741 6.103 18.2386 6.2 18.4316C6.3035 18.6316 6.3555 18.8846 6.3555 19.1891C6.3555 19.4886 6.3075 19.7391 6.2105 19.9426C6.1145 20.1456 5.9815 20.3076 5.8125 20.4276C5.63162 20.5536 5.42695 20.6414 5.211 20.6856C4.96313 20.7379 4.71033 20.7634 4.457 20.7616H3.6305V22.7616H2.5V17.6301V17.6306ZM8.1965 19.7541H8.8635C8.965 19.7541 9.0725 19.7501 9.186 19.7431C9.2995 19.7361 9.402 19.7141 9.494 19.6781C9.5855 19.6416 9.6615 19.5851 9.7225 19.5081C9.7825 19.4306 9.8125 19.3216 9.8125 19.1816C9.8125 19.0511 9.786 18.9471 9.733 18.8701C9.6817 18.7943 9.6118 18.733 9.53 18.6921C9.44101 18.6491 9.34557 18.6211 9.2475 18.6091C9.14427 18.5949 9.0402 18.5877 8.936 18.5876H8.1965V19.7541ZM7.0665 17.6306H9.052C9.313 17.6306 9.5605 17.6556 9.795 17.7066C10.029 17.7576 10.2345 17.8416 10.411 17.9606C10.587 18.0786 10.727 18.2386 10.831 18.4386C10.9345 18.6391 10.987 18.8891 10.987 19.1886C10.987 19.5511 10.8925 19.8591 10.7045 20.1126C10.516 20.3666 10.2405 20.5271 9.878 20.5946L11.1825 22.7616H9.8275L8.755 20.7106H8.1965V22.7616H7.0665V17.6306ZM12.7065 20.1956C12.7065 20.4376 12.744 20.6591 12.8185 20.8591C12.8877 21.0533 12.997 21.2308 13.1393 21.38C13.2817 21.5292 13.4538 21.6468 13.6445 21.7251C13.8405 21.8071 14.0595 21.8481 14.301 21.8481C14.542 21.8481 14.761 21.8076 14.9565 21.7251C15.1465 21.6471 15.3185 21.5301 15.4605 21.3811C15.6023 21.2307 15.712 21.0531 15.783 20.8591C15.858 20.6591 15.8955 20.4376 15.8955 20.1961C15.8955 19.9596 15.8575 19.7396 15.7825 19.5366C15.7123 19.3411 15.6025 19.1622 15.46 19.0111C15.318 18.8626 15.1465 18.7454 14.9565 18.6671C14.7484 18.5827 14.5255 18.5409 14.301 18.5441C14.0595 18.5441 13.841 18.5851 13.645 18.6671C13.455 18.7451 13.2835 18.8621 13.141 19.0111C13.001 19.1586 12.894 19.3336 12.8185 19.5366C12.7435 19.7396 12.7065 19.9591 12.7065 20.1961V20.1956ZM11.532 20.1956C11.532 19.7856 11.6015 19.4136 11.7385 19.0801C11.8683 18.7587 12.0648 18.4684 12.315 18.2286C12.5674 17.9906 12.8659 17.8068 13.192 17.6886C13.5474 17.56 13.923 17.4962 14.301 17.5001C14.702 17.5001 15.071 17.5631 15.4095 17.6886C15.7356 17.8069 16.0341 17.9906 16.2865 18.2286C16.5366 18.4683 16.7329 18.7583 16.8625 19.0796C17 19.4136 17.069 19.7856 17.069 20.1961C17.069 20.6066 17.0005 20.9786 16.8625 21.3116C16.733 21.6332 16.5367 21.9236 16.2865 22.1636C16.0341 22.4015 15.7356 22.5853 15.4095 22.7036C15.0542 22.8321 14.6788 22.8959 14.301 22.8921C13.923 22.8959 13.5474 22.8319 13.192 22.7031C12.8658 22.5851 12.5672 22.4013 12.315 22.1631C12.0648 21.9233 11.8685 21.633 11.739 21.3116C11.601 20.9786 11.532 20.6066 11.532 20.1956ZM17.8485 17.6306H21.291V18.6741H18.979V19.7176H21.117V20.7611H18.979V22.7616H17.8485V17.6306ZM22.12 17.6306H23.25V22.7616H22.12V17.6301V17.6306ZM29.611 19.7541H30.278C30.379 19.7541 30.4865 19.7501 30.6005 19.7431C30.7058 19.7375 30.8095 19.7156 30.908 19.6781C31 19.6416 31.076 19.5851 31.1365 19.5081C31.1965 19.4306 31.227 19.3216 31.227 19.1816C31.227 19.0511 31.2005 18.9471 31.147 18.8701C31.0959 18.7944 31.0261 18.7331 30.9445 18.6921C30.8555 18.6491 30.7601 18.6211 30.662 18.6091C30.5586 18.5949 30.4544 18.5877 30.35 18.5876H29.611V19.7541ZM28.4805 17.6306H30.4665C30.727 17.6306 30.975 17.6556 31.209 17.7066C31.4435 17.7576 31.649 17.8416 31.825 17.9606C32.0015 18.0786 32.1415 18.2386 32.245 18.4386C32.349 18.6391 32.401 18.8891 32.401 19.1886C32.401 19.5511 32.3065 19.8591 32.1185 20.1126C31.93 20.3666 31.6545 20.5271 31.292 20.5946L32.597 22.7616H31.242L30.1695 20.7106H29.611V22.7616H28.4805V17.6306ZM37.4595 20.7831C37.4626 21.0691 37.4161 21.3535 37.322 21.6236C37.2347 21.8726 37.095 22.1 36.9125 22.2906C36.7215 22.4853 36.4903 22.636 36.235 22.7321C35.9645 22.8386 35.6525 22.8921 35.3 22.8921C34.9425 22.8921 34.6285 22.8386 34.358 22.7321C34.1027 22.6361 33.8714 22.4854 33.6805 22.2906C33.4978 22.1001 33.358 21.8726 33.2705 21.6236C33.1766 21.3534 33.1303 21.0691 33.1335 20.7831V17.6306H34.2635V20.7396C34.2635 20.8991 34.289 21.0466 34.34 21.1821C34.3905 21.3171 34.462 21.4346 34.5535 21.5336C34.6455 21.6326 34.755 21.7101 34.8835 21.7656C35.015 21.8216 35.157 21.8501 35.3 21.8486C35.442 21.8502 35.5827 21.822 35.713 21.7656C35.8365 21.7111 35.9475 21.6321 36.039 21.5336C36.131 21.4346 36.2025 21.3171 36.253 21.1821C36.304 21.0466 36.329 20.8991 36.329 20.7396V17.6306H37.4595V20.7831ZM25.0535 20.5631C25.0525 20.3475 25.1364 20.1403 25.287 19.9861C25.361 19.9121 25.4495 19.8536 25.5465 19.8146C25.6465 19.7736 25.7525 19.7526 25.864 19.7526C26.0795 19.7518 26.2867 19.8356 26.441 19.9861C26.514 20.0596 26.571 20.1461 26.6125 20.2461C26.6535 20.3461 26.674 20.4516 26.674 20.5631C26.674 20.6746 26.6535 20.7806 26.6125 20.8801C26.573 20.9772 26.5144 21.0654 26.4403 21.1396C26.3662 21.2138 26.2781 21.2724 26.181 21.3121C26.081 21.3526 25.9755 21.3736 25.864 21.3736C25.7525 21.3736 25.6465 21.3526 25.5465 21.3121C25.4492 21.2729 25.3609 21.2144 25.2868 21.1402C25.2127 21.0659 25.1545 20.9774 25.1155 20.8801C25.074 20.7796 25.0529 20.6718 25.0535 20.5631ZM24.2535 21.7226H27.4745V22.7616H24.2535V21.7226Z" fill="white"/>
</g>
<defs>
<clipPath id="clip0_25_3850">
<rect width="40" height="40" fill="white"/>
</clipPath>
</defs>
</svg>
