<svg width="40" height="40" viewBox="0 0 40 40" fill="none" xmlns="http://www.w3.org/2000/svg">
<circle cx="20" cy="20" r="20" fill="#C94D3F"/>
<path d="M17.0739 17.693C15.6078 21.76 15.316 26.8241 15.3347 30.4133C15.3434 32.0903 15.3478 32.9288 15.7781 32.9961C16.2085 33.0634 16.4762 32.2585 17.0116 30.6486C18.0163 27.6279 19.3111 23.5528 20.1491 20.2319C21.2303 22.1957 22.1214 23.9713 22.8225 25.4481C23.6454 27.1817 24.0569 28.0484 24.4741 27.933C24.8914 27.8176 24.7935 26.8969 24.5977 25.0556C24.2952 22.2114 23.5352 18.7705 21.6867 16.6775C23.8675 15.5972 25.9839 14.7723 27.8073 14.1574C29.9788 13.4253 31.0645 13.0592 30.997 12.6369C30.9295 12.2145 29.8242 12.1992 27.6136 12.1686C25.5629 12.1402 23.148 12.2364 20.6616 12.6153C22.7117 10.5842 20.8219 7.5958 18.099 8.04541C15.376 8.49502 15.0238 12.1075 17.0739 13.1231C15.4003 13.5968 13.1691 14.5125 11.2647 15.3547C9.7075 16.0434 8.92891 16.3877 9.0051 16.7828C9.0813 17.1778 9.94608 17.214 11.6756 17.2864C13.3968 17.3585 15.3684 17.4818 17.0739 17.693Z" fill="white"/>
</svg>
