<svg width="40" height="40" viewBox="0 0 40 40" fill="none" xmlns="http://www.w3.org/2000/svg">
<circle cx="20" cy="20" r="20" fill="#2D4775"/>
<path d="M26.6883 8.80278C30.0333 11.3521 26.6848 19 19.9989 19C13.313 18.9999 9.96794 11.3517 13.3114 8.80261C16.6548 6.25351 19.9989 10.5913 19.9989 10.5913C19.9989 10.5913 23.3433 6.25349 26.6883 8.80278Z" fill="#CD368A"/>
<circle cx="20" cy="16" r="2" fill="white"/>
<path d="M19.9998 20.5001C16.6752 20.5001 14.4254 19.1188 13.0799 17.8868C12.6493 17.4925 12.434 17.2953 12.2597 17.3098C12.1163 17.3218 11.9771 17.4238 11.9226 17.5569C11.8564 17.7188 11.9569 17.9345 12.1579 18.3661C12.453 18.9998 12.8805 19.726 13.4998 20.5001C13.6909 20.7389 13.9058 20.9787 14.1341 21.2146C15.4579 22.5821 16.1197 23.2658 16.3387 23.8023C16.5638 24.3538 16.6112 24.7077 16.5392 25.2989C16.4691 25.8741 16.1099 26.5272 15.3915 27.8334L13.8901 30.5632C13.3863 31.4792 13.1344 31.9372 13.2186 32.1869C13.2883 32.3936 13.4865 32.5585 13.7024 32.5893C13.9633 32.6266 14.3573 32.304 15.1452 31.659C15.7833 31.1366 16.4323 30.5684 17.0008 30.0001C17.7725 29.2285 18.3951 28.6058 18.8687 28.132C19.2647 27.7359 19.4627 27.5378 19.691 27.4636C19.8919 27.3983 20.1082 27.3983 20.3091 27.4635C20.5375 27.5377 20.7354 27.7357 21.1313 28.1316L22.9998 30.0001C23.5678 30.568 24.2163 31.1359 24.8539 31.6581C25.642 32.3034 26.036 32.626 26.297 32.5888C26.5129 32.558 26.7111 32.3931 26.7807 32.1864C26.8649 31.9366 26.613 31.4786 26.1091 30.5624L24.6082 27.8334C23.8898 26.5272 23.5306 25.8741 23.4605 25.2989C23.3884 24.7077 23.4358 24.3538 23.6609 23.8023C23.8799 23.2658 24.5418 22.5821 25.8655 21.2146C26.0939 20.9787 26.3088 20.7389 26.4998 20.5001C27.1191 19.726 27.5467 18.9998 27.8418 18.3661C28.0428 17.9345 28.1433 17.7188 28.077 17.5569C28.0225 17.4238 27.8834 17.3218 27.74 17.3098C27.5657 17.2953 27.3504 17.4925 26.9197 17.8868L26.9197 17.8868C25.5743 19.1188 23.3245 20.5001 19.9998 20.5001Z" fill="white"/>
</svg>
