<svg width="40" height="40" viewBox="0 0 40 40" fill="none" xmlns="http://www.w3.org/2000/svg">
<circle cx="20" cy="20" r="20" fill="#E33224"/>
<path d="M7.15822 14.9224C9.65957 11.4229 16.1577 11.4221 18.1577 17.422C16.6577 10.4221 23.6577 5.42235 29.1577 9.42226C33.2248 12.3801 31.786 19.6649 27.2305 25.7979C30.8037 20.1644 30.4406 13.8569 27.6585 11.422C24.231 8.42226 17.6585 10.9223 18.6574 18.9221C16.1574 13.9222 10.9911 12.9224 8.65777 16.4224C6.69627 19.3646 6.99987 28.0004 19.9991 33C7.00099 29.4997 3.9417 19.4224 7.15822 14.9224Z" fill="white"/>
<path d="M23.1582 24.4224H26.1582V27.4224H29.1582V30.4224H26.1582V33.4224H23.1582V30.4224H20.1582V27.4224H23.1582V24.4224Z" fill="white"/>
</svg>
