<svg width="40" height="40" viewBox="0 0 40 40" fill="none" xmlns="http://www.w3.org/2000/svg">
<circle cx="20" cy="20" r="20" fill="#EAEAEA"/>
<mask id="mask0_498_174" style="mask-type:alpha" maskUnits="userSpaceOnUse" x="0" y="0" width="40" height="40">
<circle cx="20" cy="20" r="20" fill="#EAEAEA"/>
</mask>
<g mask="url(#mask0_498_174)">
<path d="M10.1743 13.9032V13.8551C10.1743 12.9769 10.1743 12.5897 11.1663 12.3706L14.2466 11.685C14.2704 11.6446 14.3068 11.613 14.3502 11.5953C14.689 11.4584 15.6536 10.8965 16.2889 10.974C17.4437 11.1128 17.2714 11.5349 16.3642 11.8446C15.647 12.0902 14.6617 11.9712 14.4678 11.9768H14.4339C14.4064 11.9765 14.379 11.9717 14.353 11.9627L11.2369 12.6567C10.4915 12.8229 10.4896 13.1393 10.4849 13.857V13.9042H10.6976C10.7365 13.9042 10.7739 13.9197 10.8014 13.9473C10.829 13.975 10.8444 14.0124 10.8444 14.0515C10.8444 14.0906 10.829 14.128 10.8014 14.1557C10.7739 14.1833 10.7365 14.1988 10.6976 14.1988H10.6449V19.5021H10.6976C10.7174 19.5013 10.7371 19.5045 10.7557 19.5114C10.7742 19.5183 10.7913 19.5288 10.8058 19.5423C10.8203 19.5558 10.832 19.5721 10.8402 19.5901C10.8485 19.6082 10.8531 19.6277 10.8538 19.6475C10.8533 19.6828 10.8404 19.7168 10.8173 19.7434C10.7942 19.77 10.7625 19.7876 10.7277 19.793V26.6043C10.7277 27.3664 11.0985 27.9858 11.554 27.9858H11.6199V28.1993C11.6195 28.2129 11.6151 28.2261 11.6072 28.2372C11.5993 28.2482 11.5884 28.2567 11.5757 28.2616C11.5672 28.2646 11.5583 28.2659 11.5493 28.2654H9.24637C9.23299 28.2658 9.21977 28.2623 9.20838 28.2553C9.19699 28.2482 9.18794 28.2379 9.18237 28.2257C9.17844 28.2174 9.1762 28.2084 9.17578 28.1993V27.9858C9.60212 27.9481 9.95975 27.3447 9.95975 26.6062C9.95975 24.338 9.94281 22.065 9.94093 19.7948C9.90403 19.7891 9.87073 19.7694 9.84789 19.7397C9.82504 19.7101 9.8144 19.6728 9.81814 19.6355C9.82187 19.5983 9.83972 19.5638 9.86799 19.5394C9.89626 19.5149 9.9328 19.5022 9.9701 19.504H10.0228V14.1988H9.9701C9.93116 14.1988 9.89382 14.1833 9.86629 14.1557C9.83875 14.128 9.82328 14.0906 9.82328 14.0515C9.82328 14.0124 9.83875 13.975 9.86629 13.9473C9.89382 13.9197 9.93116 13.9042 9.9701 13.9042H10.1743V13.9032Z" fill="#BD7ABD"/>
<path d="M25.1835 18.1951C24.674 18.1946 24.1737 18.3305 23.7341 18.5889V16.9628C23.7341 16.536 23.3614 16.0912 23.1355 15.7475C23.372 15.6423 23.5657 15.4594 23.6848 15.229C23.8039 14.9985 23.8412 14.7343 23.7907 14.4797C23.7402 14.2252 23.6047 13.9955 23.4068 13.8284C23.2088 13.6614 22.96 13.567 22.7014 13.5607C22.4428 13.5544 22.1897 13.6367 21.9839 13.7939C21.7781 13.9512 21.6318 14.174 21.5691 14.4258C21.5063 14.6777 21.5309 14.9434 21.6388 15.1793C21.7466 15.4152 21.9313 15.6073 22.1624 15.7239C21.9817 15.9996 21.4584 16.8155 21.4584 17.1488C21.4584 17.3944 21.4283 19.0715 21.5008 19.9063L20.5493 20.47V18.8647C20.5493 18.4369 20.1766 17.9921 19.9507 17.6484C20.1873 17.5433 20.3811 17.3604 20.5003 17.13C20.6195 16.8996 20.6569 16.6353 20.6064 16.3807C20.556 16.1261 20.4206 15.8963 20.2226 15.7292C20.0246 15.5621 19.7758 15.4677 19.5171 15.4614C19.2584 15.4551 19.0054 15.5374 18.7995 15.6947C18.5937 15.852 18.4474 16.0749 18.3847 16.3268C18.322 16.5786 18.3467 16.8444 18.4546 17.0803C18.5625 17.3163 18.7473 17.5083 18.9785 17.6248C18.7969 17.9005 18.2736 18.7164 18.2736 19.0507C18.2736 19.2934 18.2454 20.9507 18.3141 21.7902L17.3372 22.352V20.673C17.3372 20.2462 16.9645 19.8014 16.7405 19.4596C16.9781 19.3546 17.1729 19.1715 17.293 18.9406C17.413 18.7096 17.4511 18.4445 17.4009 18.189C17.3508 17.9334 17.2154 17.7026 17.017 17.5345C16.8187 17.3665 16.5692 17.2712 16.3097 17.2645C16.0502 17.2577 15.7961 17.3398 15.5893 17.4972C15.3825 17.6547 15.2353 17.8781 15.1719 18.1307C15.1086 18.3833 15.1328 18.65 15.2407 18.8869C15.3486 19.1238 15.5337 19.3168 15.7655 19.4341C15.5848 19.7098 15.0634 20.5276 15.0634 20.861C15.0634 21.1112 15.0314 22.8563 15.1105 23.6675L14.7867 23.8573C14.39 23.727 13.9698 23.6847 13.5552 23.7332C13.1406 23.7817 12.7414 23.9199 12.3852 24.1382C12.029 24.3566 11.7243 24.6498 11.492 24.9978C11.2597 25.3458 11.1054 25.7402 11.0398 26.1538C10.9742 26.5674 10.9988 26.9904 11.1119 27.3936C11.225 27.7967 11.4239 28.1705 11.6949 28.489C11.966 28.8075 12.3027 29.0632 12.6818 29.2385C13.0608 29.4138 13.4733 29.5045 13.8907 29.5043C14.412 29.5001 14.9281 29.3989 15.4126 29.2059C17.9922 28.05 22.8165 24.6373 24.2066 23.8167C24.6025 23.9579 25.0244 24.0106 25.4427 23.9711C25.8611 23.9316 26.2658 23.8009 26.6285 23.5881C26.9913 23.3753 27.3033 23.0855 27.5428 22.7391C27.7823 22.3927 27.9435 21.9979 28.0151 21.5825C28.0866 21.167 28.0669 20.7409 27.9572 20.3339C27.8475 19.9269 27.6505 19.5488 27.38 19.2262C27.1095 18.9036 26.772 18.6441 26.3911 18.466C26.0102 18.2879 25.5952 18.1955 25.175 18.1951H25.1835ZM25.1835 23.234C24.7765 23.234 24.378 23.117 24.0353 22.8969C21.482 24.4852 17.5584 27.2833 15.0126 28.4684C14.6622 28.6216 14.2807 28.6892 13.8992 28.6657C13.5922 28.667 13.2887 28.5991 13.0113 28.467C12.7339 28.3349 12.4896 28.1419 12.2965 27.9024C12.1033 27.6629 11.9663 27.3829 11.8954 27.0831C11.8245 26.7834 11.8216 26.4714 11.8869 26.1704C11.9522 25.8693 12.0841 25.5868 12.2728 25.3438C12.4614 25.1007 12.7021 24.9032 12.977 24.7659C13.2519 24.6287 13.554 24.5551 13.8611 24.5506C14.1681 24.5462 14.4722 24.611 14.7509 24.7402L23.9957 19.3085C24.0643 19.2613 24.1353 19.2178 24.2084 19.1782C24.4949 19.0395 24.8088 18.967 25.1269 18.9661C25.445 18.9651 25.7592 19.0358 26.0465 19.1728C26.3338 19.3098 26.5868 19.5097 26.787 19.7577C26.9871 20.0058 27.1293 20.2958 27.203 20.6062C27.2768 20.9167 27.2802 21.2398 27.2131 21.5518C27.1459 21.8638 27.0099 22.1567 26.8151 22.409C26.6203 22.6613 26.3715 22.8665 26.0872 23.0096C25.8029 23.1527 25.4902 23.2301 25.1722 23.2359L25.1835 23.234Z" fill="#00B93E"/>
<path d="M22.6406 3.48548H19.0219V3.32116C19.0219 3.30906 19.0195 3.29707 19.0149 3.28589C19.0102 3.27472 19.0034 3.26458 18.9949 3.25606C18.9863 3.24754 18.9761 3.24081 18.9649 3.23627C18.9537 3.23172 18.9418 3.22944 18.9297 3.22957H18.2445C18.2203 3.22957 18.1971 3.23922 18.18 3.25639C18.1629 3.27357 18.1533 3.29687 18.1533 3.32116V3.4902H16.7867C15.9585 3.4902 16.0282 7.77834 16.7867 7.77834H22.6406C23.3982 7.77457 23.4688 3.48548 22.6406 3.48548ZM22.2698 7.22969H17.1613C16.5543 7.22969 16.4987 4.02563 17.1613 4.02563H22.2698C22.9324 4.02846 22.874 7.22969 22.2698 7.22969Z" fill="#FF2A31"/>
<path d="M19.6981 4.23524C19.5323 4.23524 19.3681 4.26801 19.2149 4.33167C19.0618 4.39534 18.9226 4.48865 18.8053 4.60628C18.6881 4.72392 18.5951 4.86357 18.5317 5.01726C18.4682 5.17096 18.4355 5.33569 18.4355 5.50205C18.4355 5.6684 18.4682 5.83313 18.5317 5.98683C18.5951 6.14053 18.6881 6.28018 18.8053 6.39781C18.9226 6.51544 19.0618 6.60876 19.2149 6.67242C19.3681 6.73608 19.5323 6.76885 19.6981 6.76885C20.0329 6.76885 20.3541 6.63538 20.5908 6.39781C20.8276 6.16024 20.9606 5.83802 20.9606 5.50205C20.9606 5.16607 20.8276 4.84385 20.5908 4.60628C20.3541 4.36871 20.0329 4.23524 19.6981 4.23524ZM19.6981 6.33729C19.5888 6.33674 19.4806 6.31458 19.3798 6.27209C19.2791 6.2296 19.1876 6.16761 19.1107 6.08965C19.0338 6.0117 18.9729 5.91931 18.9316 5.81776C18.8903 5.71621 18.8693 5.60748 18.8699 5.4978C18.8704 5.38811 18.8925 5.27961 18.9349 5.17848C18.9772 5.07736 19.039 4.9856 19.1167 4.90843C19.1944 4.83127 19.2865 4.77021 19.3877 4.72875C19.4889 4.68729 19.5972 4.66624 19.7066 4.6668C19.9273 4.66805 20.1386 4.75725 20.2938 4.91477C20.449 5.0723 20.5355 5.28525 20.5343 5.50677C20.533 5.72829 20.4441 5.94024 20.2871 6.09599C20.1301 6.25175 19.9179 6.33855 19.6971 6.33729H19.6981ZM22.2693 4.31834H21.5841C21.572 4.31822 21.5599 4.32053 21.5487 4.32513C21.5374 4.32974 21.5272 4.33655 21.5186 4.34517C21.51 4.35379 21.5032 4.36404 21.4987 4.37532C21.4941 4.38661 21.4918 4.3987 21.4919 4.41089V4.85944C21.4919 4.91043 21.5333 4.95104 21.5841 4.95104H22.2693C22.2813 4.95104 22.2931 4.94867 22.3042 4.94406C22.3153 4.93946 22.3253 4.93271 22.3338 4.92421C22.3423 4.9157 22.349 4.9056 22.3536 4.89449C22.3582 4.88338 22.3606 4.87147 22.3606 4.85944V4.41089C22.3606 4.39886 22.3582 4.38695 22.3536 4.37583C22.349 4.36472 22.3423 4.35462 22.3338 4.34612C22.3253 4.33761 22.3153 4.33086 22.3042 4.32626C22.2931 4.32166 22.2813 4.31929 22.2693 4.31929V4.31834Z" fill="#FF2A31"/>
<path d="M32.9807 4.67152H29.2218L30.7794 3.03879C30.6182 2.93727 30.4557 2.8378 30.2919 2.74039L28.4162 4.66207H27.6388L29.7969 2.44293C29.4708 2.25883 29.1393 2.08437 28.803 1.91978L26.1255 4.66491H24.7204C22.9275 4.66491 23.0348 10.6613 23.1393 10.6613H24.4004C24.4079 10.8906 24.5039 11.108 24.6682 11.2676C24.8325 11.4271 25.0522 11.5163 25.2808 11.5163C25.5095 11.5163 25.7292 11.4271 25.8935 11.2676C26.0578 11.108 26.1538 10.8906 26.1613 10.6613H33.9445C33.9549 10.8884 34.0522 11.1027 34.2161 11.2598C34.38 11.4168 34.5978 11.5044 34.8244 11.5044C35.051 11.5044 35.2689 11.4168 35.4328 11.2598C35.5966 11.1027 35.6939 10.8884 35.7044 10.6613H36.862C37.0008 10.6611 37.1376 10.628 37.2613 10.5646C37.3849 10.5013 37.4919 10.4095 37.5735 10.2968C37.089 9.41684 36.5397 8.57438 35.9303 7.77643H34.8508V6.48649C34.6158 6.22842 34.3742 5.97651 34.1261 5.73104V7.78304H31.9389V5.54879H33.9435C33.6309 5.24599 33.3089 4.95311 32.9779 4.67057H32.9817L32.9807 4.67152ZM28.9875 5.54973H31.1756V7.78304H28.9875V5.54879V5.54973ZM26.0286 5.54973H28.2252V7.78304H26.0286V5.54879V5.54973ZM24.5877 5.54973H25.3406V7.78304H24.5877V5.54879V5.54973Z" fill="#00B7DE"/>
<path d="M21.9736 3.89342V4.79713C21.9685 4.90698 21.9214 5.01063 21.8421 5.08654C21.7628 5.16246 21.6574 5.20481 21.5478 5.20481C21.4382 5.20481 21.3328 5.16246 21.2535 5.08654C21.1742 5.01063 21.1271 4.90698 21.1219 4.79713V3.37688C21.1229 3.01502 21.2664 2.66823 21.5211 2.4121C21.7759 2.15596 22.1212 2.01125 22.4818 2.00951H24.6211L25.8558 1.05764C25.9246 1.00679 26.0105 0.985023 26.0951 0.996999C26.1797 1.00898 26.2563 1.05374 26.3084 1.1217C26.3605 1.18965 26.3839 1.27538 26.3738 1.3605C26.3636 1.44562 26.3206 1.52335 26.2539 1.57701L25.326 2.29469L25.5942 3.40237C25.6167 3.44386 25.6332 3.48838 25.6431 3.53458L25.8756 4.70931C25.8865 4.76542 25.8863 4.82315 25.875 4.87919C25.8638 4.93524 25.8416 4.9885 25.8098 5.03594C25.7779 5.08338 25.7371 5.12406 25.6897 5.15568C25.6422 5.18729 25.5889 5.20921 25.533 5.22018C25.4771 5.23116 25.4196 5.23097 25.3637 5.21964C25.3079 5.20831 25.2548 5.18604 25.2075 5.15413C25.1602 5.12221 25.1197 5.08126 25.0882 5.03361C25.0566 4.98597 25.0348 4.93257 25.0239 4.87645L24.8789 4.13989L24.6662 4.89534C24.6523 4.94978 24.6277 5.00093 24.5941 5.04586C24.5604 5.09079 24.5183 5.12863 24.47 5.15722C24.4218 5.18581 24.3684 5.20458 24.3129 5.21247C24.2575 5.22035 24.201 5.2172 24.1467 5.20319C24.0925 5.18917 24.0415 5.16458 23.9967 5.1308C23.9519 5.09702 23.9142 5.05472 23.8857 5.00631C23.8572 4.95791 23.8385 4.90435 23.8307 4.84869C23.8228 4.79303 23.8259 4.73636 23.8399 4.68192L24.0526 3.91325L21.9727 3.89436L21.9736 3.89342ZM19.2575 1.43064H19.5935C19.6186 1.19397 19.7348 0.976475 19.9172 0.824389L20.1808 0C20.5412 0.271019 21.5454 1.13224 21.5031 1.74888C21.478 1.9341 21.3883 2.10441 21.25 2.22958C21.1116 2.35475 20.9335 2.42667 20.7473 2.43256H19.2575C19.1894 2.43676 19.1212 2.42693 19.0571 2.40368C18.9929 2.38042 18.9342 2.34424 18.8845 2.29735C18.8348 2.25047 18.7952 2.19387 18.7681 2.13105C18.7411 2.06823 18.7271 2.00051 18.7271 1.93207C18.7271 1.86363 18.7411 1.79592 18.7681 1.7331C18.7952 1.67028 18.8348 1.61368 18.8845 1.56679C18.9342 1.51991 18.9929 1.48372 19.0571 1.46047C19.1212 1.43722 19.1894 1.42739 19.2575 1.43158V1.43064ZM24.0743 0.311625L22.2372 1.73093C22.2172 1.7579 22.1912 1.77978 22.1613 1.79482C22.1314 1.80986 22.0983 1.81764 22.0649 1.81752C22.0314 1.8174 21.9984 1.80939 21.9686 1.79414C21.9388 1.77888 21.9129 1.75682 21.8932 1.72971C21.8734 1.7026 21.8603 1.67122 21.8548 1.63808C21.8494 1.60494 21.8518 1.57099 21.8618 1.53894C21.8718 1.5069 21.8892 1.47767 21.9126 1.45361C21.9359 1.42955 21.9646 1.41133 21.9962 1.40042L23.5397 0.20114C23.7185 0.234191 23.8973 0.267242 24.0743 0.305014V0.312569V0.311625Z" fill="#BD7ABD"/>
<path d="M12.6235 19.1413C12.5087 18.7144 12.2677 18.3443 11.8292 18.3443H8.28295L9.67584 16.9476L7.58275 14.855L5.4906 16.9542L6.88254 18.3518H0.0470569C0.0282341 18.5973 0.0131759 18.8429 0 19.0903H1.87286V21.2112H0.0159994C0.0724676 22.1942 0.201403 23.1726 0.401866 24.1367H0.415983V24.1603L0.528919 24.6693C0.607 24.7391 0.706648 24.7799 0.811125 24.7847C0.915603 24.7895 1.01855 24.758 1.10266 24.6957C1.18678 24.6333 1.24695 24.5438 1.27306 24.4422C1.29918 24.3406 1.28964 24.233 1.24607 24.1376H1.8004C1.7674 24.207 1.75245 24.2837 1.75695 24.3604C1.76144 24.4372 1.78524 24.5115 1.82612 24.5765C1.867 24.6416 1.92362 24.6951 1.99071 24.7323C2.0578 24.7694 2.13317 24.7889 2.20979 24.7889C2.28641 24.7889 2.36178 24.7694 2.42887 24.7323C2.49596 24.6951 2.55259 24.6416 2.59346 24.5765C2.63434 24.5115 2.65814 24.4372 2.66264 24.3604C2.66714 24.2837 2.65219 24.207 2.61919 24.1376H3.20928C3.18024 24.1987 3.16482 24.2654 3.16411 24.3331C3.17154 24.449 3.22267 24.5577 3.3071 24.6372C3.39153 24.7166 3.50293 24.7608 3.61867 24.7608C3.73442 24.7608 3.84582 24.7166 3.93025 24.6372C4.01468 24.5577 4.06581 24.449 4.07324 24.3331C4.07296 24.2652 4.05786 24.1982 4.02901 24.1367H8.23307C8.19364 24.2222 8.18117 24.3178 8.19731 24.4106C8.21346 24.5034 8.25746 24.589 8.32342 24.6561C8.39919 24.732 8.49931 24.7787 8.60604 24.7877C8.71277 24.7967 8.81924 24.7675 8.90659 24.7053C8.99394 24.6431 9.05654 24.5519 9.0833 24.4478C9.11006 24.3438 9.09926 24.2335 9.0528 24.1367H9.61843C9.57926 24.2223 9.56693 24.3177 9.58307 24.4105C9.5992 24.5032 9.64304 24.5889 9.70878 24.6561C9.78455 24.732 9.88466 24.7787 9.99139 24.7877C10.0981 24.7967 10.2046 24.7675 10.2919 24.7053C10.3793 24.6431 10.4419 24.5519 10.4687 24.4478C10.4954 24.3438 10.4846 24.2335 10.4382 24.1367H11.0283C10.9887 24.2221 10.9761 24.3176 10.9921 24.4104C11.008 24.5032 11.0519 24.5889 11.1177 24.6561C11.1934 24.732 11.2935 24.7787 11.4003 24.7877C11.507 24.7967 11.6135 24.7675 11.7008 24.7053C11.7882 24.6431 11.8508 24.5519 11.8775 24.4478C11.9043 24.3438 11.8935 24.2335 11.847 24.1367C12.2734 24.1367 12.5265 23.7637 12.6244 23.3406L13.1543 21.0677L12.6244 19.1413H12.6235ZM4.70851 21.2046H2.58154V19.0837H4.70851V21.2046ZM7.5611 21.2046H5.43319V19.0837H7.56016V21.2046H7.5611ZM7.58275 18.1696L6.36491 16.9476L7.58275 15.7238L8.80058 16.9476L7.58275 18.1696ZM10.3629 21.2046H8.23401V19.0837H10.3629V21.2046ZM11.8292 21.2046H11.0857V19.0837H11.8292V21.2046Z" fill="#FF8814"/>
<path d="M19.4334 5.97379C19.5161 6.05986 19.5624 6.17479 19.5624 6.29438C19.5624 6.41398 19.5161 6.52891 19.4334 6.61498C19.0503 6.99082 18.6268 7.40254 18.177 7.83598H18.72C18.8355 7.84508 18.9433 7.89752 19.0219 7.98285C19.1005 8.06818 19.1442 8.18012 19.1442 8.29634C19.1442 8.41255 19.1005 8.52449 19.0219 8.60982C18.9433 8.69515 18.8355 8.7476 18.72 8.75669H17.2942C17.2735 8.75883 17.2527 8.75883 17.2321 8.75669C16.8236 9.15425 16.402 9.55936 15.9803 9.96353H16.8707C16.9492 9.95877 17.0276 9.97424 17.0985 10.0085C17.1694 10.0427 17.2303 10.0945 17.2756 10.1591C17.3209 10.2236 17.3489 10.2987 17.3571 10.3772C17.3653 10.4557 17.3534 10.535 17.3224 10.6076C17.2847 10.6948 17.2211 10.7682 17.1402 10.8178C17.0594 10.8673 16.9652 10.8905 16.8707 10.8842H15.0223L14.1197 11.7511C13.9496 11.8908 13.8119 12.066 13.716 12.2644C13.6201 12.4628 13.5684 12.6799 13.5644 12.9004V15.0751H11.5805V12.8966C11.5768 12.6762 11.5254 12.4593 11.4298 12.2609C11.3343 12.0624 11.1969 11.8872 11.0271 11.7473L10.1011 10.8805H8.26207C8.14398 10.8751 8.03251 10.8242 7.95083 10.7385C7.86916 10.6528 7.82358 10.5387 7.82358 10.4201C7.82358 10.3015 7.86916 10.1875 7.95083 10.1017C8.03251 10.016 8.14398 9.96512 8.26207 9.95975H9.15145L7.89973 8.7548H6.40991C6.29445 8.74571 6.18664 8.69326 6.10802 8.60793C6.02939 8.5226 5.98572 8.41066 5.98572 8.29445C5.98572 8.17824 6.02939 8.0663 6.10802 7.98097C6.18664 7.89564 6.29445 7.84319 6.40991 7.8341H6.95013C6.5012 7.40726 6.07769 6.97949 5.69465 6.61215C5.65002 6.57041 5.61414 6.52014 5.58913 6.46431C5.56411 6.40847 5.55046 6.34819 5.54897 6.28699C5.54747 6.22579 5.55817 6.16491 5.58044 6.10791C5.60271 6.05092 5.63609 5.99896 5.67863 5.95508C5.72117 5.9112 5.77202 5.87628 5.82819 5.85238C5.88435 5.82847 5.94471 5.81606 6.00572 5.81587C6.06673 5.81567 6.12717 5.82771 6.18349 5.85126C6.2398 5.87481 6.29087 5.9094 6.33368 5.95301L7.54681 7.14852V6.75191C7.544 6.6897 7.55379 6.62756 7.57558 6.56925C7.59737 6.51095 7.63071 6.45767 7.67359 6.41266C7.71647 6.36764 7.768 6.33181 7.82506 6.30733C7.88213 6.28285 7.94355 6.27022 8.00561 6.27022C8.06768 6.27022 8.12909 6.28285 8.18616 6.30733C8.24323 6.33181 8.29476 6.36764 8.33764 6.41266C8.38052 6.45767 8.41386 6.51095 8.43565 6.56925C8.45744 6.62756 8.46723 6.6897 8.46442 6.75191V7.91531C8.4642 7.95587 8.4585 7.99621 8.44748 8.03523L9.86012 9.42338V8.59049C9.86012 8.46865 9.90836 8.3518 9.99423 8.26564C10.0801 8.17948 10.1966 8.13108 10.318 8.13108C10.4394 8.13108 10.5559 8.17948 10.6417 8.26564C10.7276 8.3518 10.7759 8.46865 10.7759 8.59049V10.3252L12.0934 11.6057V9.12875L12.0803 9.11553C10.7354 7.80019 9.39361 6.4816 8.05502 5.15979H6.50779C7.1377 4.58123 7.80415 4.04405 8.503 3.55162V4.30612L12.0981 7.84071V6.20043L10.6243 4.75845C10.5371 4.67343 10.4871 4.55711 10.4853 4.43509C10.4836 4.31307 10.5302 4.19535 10.6149 4.10782C10.6997 4.02029 10.8156 3.97012 10.9372 3.96835C11.0588 3.96657 11.1761 4.01335 11.2634 4.09838L12.0972 4.9171V3.4383H9.67566C9.56984 3.43789 9.46737 3.40097 9.38546 3.33374C9.30355 3.26651 9.24718 3.17306 9.2258 3.06907C9.52368 2.8771 9.82684 2.69352 10.1349 2.51853H11.1994L10.821 2.14647C11.1043 2.00482 11.3885 1.86506 11.6718 1.73003C11.8064 1.85562 11.9636 1.97744 12.1104 2.12286V1.5355C12.4153 1.40329 12.724 1.27864 13.0365 1.16155V2.1342C13.3894 1.7848 13.8091 1.55816 13.8091 1.12378V0.892418C14.5922 0.635564 15.3903 0.427814 16.1996 0.271057C16.1764 0.328351 16.1411 0.379904 16.0961 0.422148L15.4561 1.05106H15.9173C16.0338 1.05856 16.143 1.11027 16.2229 1.19569C16.3027 1.28111 16.3472 1.39383 16.3472 1.51095C16.3472 1.62806 16.3027 1.74078 16.2229 1.8262C16.143 1.91162 16.0338 1.96333 15.9173 1.97083H14.5178L13.9324 2.52798H15.4571C15.5789 2.52798 15.6957 2.57653 15.7818 2.66295C15.868 2.74937 15.9163 2.86658 15.9163 2.9888C15.9163 3.11102 15.868 3.22823 15.7818 3.31466C15.6957 3.40108 15.5789 3.44963 15.4571 3.44963H13.0233V4.92276L13.8581 4.10687C13.9013 4.06477 13.9524 4.03163 14.0085 4.00935C14.0645 3.98706 14.1243 3.97606 14.1846 3.97698C14.2448 3.9779 14.3043 3.99072 14.3596 4.01471C14.415 4.0387 14.465 4.07339 14.507 4.11679C14.549 4.16019 14.582 4.21146 14.6042 4.26767C14.6264 4.32388 14.6374 4.38394 14.6364 4.4444C14.6355 4.50486 14.6228 4.56454 14.5988 4.62005C14.5749 4.67556 14.5404 4.72579 14.4971 4.7679L13.0233 6.20892V7.85204C14.2242 6.67542 15.4232 5.49691 16.6213 4.31651V1.12378C16.6266 1.00554 16.6772 0.893916 16.7625 0.812139C16.8477 0.730363 16.9612 0.684727 17.0791 0.684727C17.1971 0.684727 17.3105 0.730363 17.3958 0.812139C17.4811 0.893916 17.5316 1.00554 17.537 1.12378V3.41469L18.2522 2.71589C18.3392 2.63099 18.4563 2.58424 18.5776 2.58592C18.699 2.5876 18.8147 2.63758 18.8993 2.72487C18.9839 2.81215 19.0305 2.92958 19.0288 3.05133C19.0271 3.17308 18.9773 3.28918 18.8903 3.37408L17.9963 4.25041H18.9054C18.9674 4.24759 19.0293 4.25741 19.0874 4.27927C19.1455 4.30114 19.1986 4.33459 19.2435 4.37762C19.2884 4.42064 19.3241 4.47235 19.3485 4.52961C19.3729 4.58687 19.3855 4.64849 19.3855 4.71076C19.3855 4.77304 19.3729 4.83466 19.3485 4.89192C19.3241 4.94918 19.2884 5.00089 19.2435 5.04391C19.1986 5.08694 19.1455 5.12039 19.0874 5.14225C19.0293 5.16412 18.9674 5.17394 18.9054 5.17112H17.0617L13.0383 9.12686L13.0233 9.13914V11.6255L14.3409 10.3441V8.59899C14.3409 8.47715 14.3891 8.3603 14.475 8.27414C14.5609 8.18798 14.6773 8.13958 14.7987 8.13958C14.9202 8.13958 15.0366 8.18798 15.1225 8.27414C15.2084 8.3603 15.2566 8.47715 15.2566 8.59899V9.43188L16.6702 8.04373C16.6592 8.00471 16.6535 7.96436 16.6533 7.9238V6.75946C16.6504 6.69725 16.6602 6.63512 16.682 6.57681C16.7038 6.5185 16.7372 6.46523 16.78 6.42021C16.8229 6.37519 16.8744 6.33936 16.9315 6.31488C16.9886 6.2904 17.05 6.27778 17.1121 6.27778C17.1741 6.27778 17.2355 6.2904 17.2926 6.31488C17.3497 6.33936 17.4012 6.37519 17.4441 6.42021C17.487 6.46523 17.5203 6.5185 17.5421 6.57681C17.5639 6.63512 17.5737 6.69725 17.5709 6.75946V7.16552L18.7859 5.97379C18.8713 5.8901 18.986 5.84325 19.1054 5.84325C19.2248 5.84325 19.3395 5.8901 19.4249 5.97379H19.4334Z" fill="#00B93E"/>
<path d="M36.3018 27.2558L36.2905 27.2728L35.8585 27.0018L35.3559 26.6939V26.6788C35.5291 26.2331 35.7428 25.8044 35.995 25.3974C36.2353 25.0019 36.5086 24.6275 36.8119 24.2784L37.3145 24.5862L37.7398 24.8534C37.4365 25.2026 37.1632 25.577 36.9229 25.9725C36.6717 26.3785 36.458 26.8082 36.2839 27.2539L36.3018 27.2558ZM34.3282 30.492V30.475L33.8878 30.203L33.3852 29.8961V29.9131C32.7631 30.6184 32.2668 31.426 31.918 32.3003L32.4205 32.6082L32.8469 32.8754C33.0163 32.4448 33.2233 32.0303 33.4661 31.6365C33.7146 31.2285 33.9998 30.8433 34.3179 30.4872L34.3273 30.492H34.3282ZM35.9658 29.4022C35.6304 29.9284 35.1757 30.3675 34.6388 30.6837C34.3612 31.0293 34.1061 31.3919 33.8746 31.7715C33.6236 32.1818 33.403 32.6101 33.2149 33.053C34.156 33.4798 35.7588 32.4486 37.0189 30.6393C37.1319 30.4769 37.242 30.3088 37.3483 30.135C38.6471 27.999 38.952 25.7997 38.0702 25.0905C37.4811 25.8032 36.9925 26.5937 36.618 27.4399C36.5759 28.1053 36.3689 28.7496 36.0157 29.3144L35.9649 29.3956V29.4022H35.9658Z" fill="#FF1B0D"/>
<path d="M37.5435 23.539L36.0358 23.5012C35.9639 23.5062 35.8964 23.5379 35.8465 23.5902C35.7966 23.6424 35.7679 23.7115 35.7661 23.7838C35.7642 23.8561 35.7892 23.9265 35.8363 23.9813C35.8834 24.0361 35.9492 24.0713 36.0207 24.0801L37.5284 24.1179C37.6025 24.1158 37.6729 24.0854 37.7252 24.0328C37.7775 23.9802 37.8076 23.9094 37.8095 23.8352C37.8113 23.7609 37.7846 23.6887 37.7349 23.6336C37.6853 23.5785 37.6164 23.5446 37.5426 23.539H37.5435ZM36.1073 10.7114L36.5327 20.3651C36.5327 20.4217 36.5103 20.476 36.4704 20.5161C36.4305 20.5561 36.3764 20.5786 36.32 20.5786C36.2912 20.58 36.2625 20.5755 36.2354 20.5654C36.2084 20.5553 36.1837 20.5398 36.1629 20.5198C36.142 20.4999 36.1254 20.4759 36.1141 20.4493C36.1028 20.4227 36.0969 20.3941 36.097 20.3651L35.6706 10.7067C35.1323 10.8077 34.8199 11.2383 34.53 12.3328L31.5353 25.743C31.5184 25.819 31.4722 25.8852 31.4067 25.927C31.3412 25.9688 31.2619 25.9828 31.1861 25.9659C31.1104 25.949 31.0444 25.9026 31.0027 25.8369C30.9611 25.7712 30.9472 25.6916 30.964 25.6155L33.9531 12.2487C34.1422 11.1411 34.8424 10.1495 35.9182 10.1495C36.9158 10.1495 37.6056 10.871 37.8993 11.9862V12.0419C37.9181 12.1099 37.9341 12.1836 37.9482 12.2553L39.9999 21.4398C39.9583 22.032 39.8911 22.6221 39.7985 23.2085L37.3656 12.3158C37.1059 11.2478 36.7266 10.7737 36.0885 10.7067L36.1073 10.7114ZM36.0697 20.7759L37.0353 21.0366L37.0776 20.8477C37.107 20.7243 37.1721 20.6124 37.2646 20.526C37.3571 20.4395 37.4731 20.3825 37.5978 20.3619C37.7226 20.3413 37.8506 20.3582 37.9658 20.4103C38.0811 20.4625 38.1784 20.5476 38.2456 20.655C38.2901 20.7267 38.32 20.8065 38.3338 20.8897C38.3475 20.973 38.3447 21.0582 38.3256 21.1404L38.0207 22.4398C37.9378 22.7939 37.7637 23.3105 37.2715 23.2935L36.3266 23.2614C35.9012 23.2614 35.9219 23.183 35.5436 23.3917L34.8321 23.7874C34.0575 24.2142 33.8872 23.3964 34.3051 23.1613C34.721 22.9261 35.1897 22.6325 35.6048 22.4313C35.9219 22.2661 36.6692 22.6164 36.7755 22.1471L36.8979 21.623L35.9135 21.3605C35.8367 21.3388 35.7714 21.2878 35.7316 21.2184C35.6919 21.1491 35.6808 21.0668 35.7008 20.9893C35.7217 20.9123 35.7721 20.8467 35.841 20.8067C35.9099 20.7668 35.9918 20.7557 36.0687 20.7759H36.0697ZM37.8908 18.6588C37.9886 18.6585 38.0855 18.6775 38.176 18.7148C38.2665 18.752 38.3488 18.8068 38.4182 18.876C38.4876 18.9452 38.5427 19.0274 38.5804 19.118C38.6182 19.2085 38.6377 19.3057 38.638 19.4038C38.6384 19.502 38.6194 19.5992 38.5822 19.69C38.5451 19.7808 38.4905 19.8634 38.4215 19.933C38.3526 20.0027 38.2706 20.058 38.1804 20.0958C38.0901 20.1337 37.9933 20.1533 37.8955 20.1536C37.6979 20.1542 37.5082 20.0761 37.3681 19.9364C37.2279 19.7966 37.1489 19.6068 37.1482 19.4086C37.1476 19.2103 37.2255 19.02 37.3647 18.8793C37.504 18.7387 37.6932 18.6594 37.8908 18.6588Z" fill="#FF3A3A"/>
<path d="M16.8087 36.189C16.4474 37.0586 15.7855 37.7682 14.9447 38.1874C14.1038 38.6066 13.1404 38.7073 12.2315 38.4709C11.3226 38.2346 10.5292 37.6771 9.99711 36.9008C9.46501 36.1246 9.22994 35.1818 9.33508 34.2456C9.40697 33.6242 9.62637 33.0292 9.97484 32.5104C10.3233 31.9917 10.7907 31.5644 11.3378 31.2644V32.2087C10.9316 32.515 10.6065 32.9167 10.391 33.3784C10.1755 33.8402 10.0762 34.3479 10.1018 34.8572C10.1275 35.3664 10.2772 35.8615 10.538 36.2991C10.7988 36.7368 11.1626 37.1035 11.5975 37.3672C12.0325 37.6308 12.5252 37.7834 13.0326 37.8115C13.54 37.8395 14.0465 37.7423 14.5077 37.5282C14.9689 37.3141 15.3707 36.9897 15.6778 36.5835C15.985 36.1773 16.1881 35.7017 16.2694 35.1984L16.8087 36.19V36.189ZM12.8408 29.0434C13.1183 29.0444 13.3842 29.1554 13.5804 29.3523C13.7766 29.5492 13.8873 29.8159 13.8883 30.0944V30.7932H15.8045C15.9336 30.8043 16.054 30.8636 16.1416 30.9594C16.2293 31.0552 16.278 31.1806 16.278 31.3107C16.278 31.4408 16.2293 31.5661 16.1416 31.6619C16.054 31.7578 15.9336 31.8171 15.8045 31.8282H13.8883V32.6355H16.4294C16.5564 32.6355 16.6807 32.6695 16.7898 32.7338C16.8981 32.7914 16.9875 32.8792 17.0496 32.9859L18.6796 35.8207C18.7596 35.9705 18.7783 36.1456 18.7318 36.3089C18.6853 36.4723 18.5772 36.611 18.4304 36.6958C18.2837 36.7805 18.1098 36.8046 17.9457 36.7628C17.7816 36.7211 17.6401 36.6169 17.5512 36.4723L16.1724 34.0775H12.8427C12.7626 34.0771 12.6831 34.0634 12.6074 34.0369C12.3781 33.9809 12.1742 33.8492 12.0286 33.6628C11.8829 33.4764 11.8041 33.2463 11.8046 33.0095V30.0944C11.8051 29.816 11.9155 29.5491 12.1116 29.3521C12.3078 29.1551 12.5737 29.0441 12.8512 29.0434H12.8408ZM12.8898 26.6316C13.1718 26.6316 13.4423 26.744 13.6418 26.9441C13.8412 27.1442 13.9532 27.4156 13.9532 27.6987C13.9532 27.9817 13.8412 28.2531 13.6418 28.4532C13.4423 28.6533 13.1718 28.7657 12.8898 28.7657C12.6077 28.7657 12.3372 28.6533 12.1378 28.4532C11.9383 28.2531 11.8263 27.9817 11.8263 27.6987C11.8263 27.4156 11.9383 27.1442 12.1378 26.9441C12.3372 26.744 12.6077 26.6316 12.8898 26.6316Z" fill="#DC4F90"/>
<path d="M16.5371 38.9776H20.6311V37.2306L16.7009 37.2136L19.9534 34.4562L18.0213 34.4345L20.4409 32.1983H19.3596L21.0866 30.5628L21.4037 30.2568L21.5251 30.3768L23.4404 32.1993H22.3571L24.7899 34.4345L22.8597 34.4562L26.1104 37.2136H22.3533V38.9672H25.4205C24.0396 39.6467 22.522 40 20.984 40C19.446 40 17.9284 39.6467 16.5475 38.9672L16.5381 38.9776H16.5371Z" fill="#00B93E"/>
<path d="M0.773438 23.5437V22.9177L2.02327 22.9347V23.5607L0.773438 23.5437ZM2.6463 23.5692V22.9413L3.89613 22.9583V23.5844L2.64724 23.5692H2.6463ZM4.51822 23.5929V22.9668L5.76711 22.9819V23.6098L4.51822 23.5929ZM6.39109 23.6165V22.9904L7.64092 23.0074V23.6335L6.39109 23.6165ZM8.26395 23.642V23.0159H9.01686V24.133H8.39854V23.6353L8.26489 23.642H8.26395ZM8.40042 24.7676H9.02439V26.0216H8.39854L8.40042 24.7676ZM8.40042 26.6468H9.02439V27.9008H8.39854L8.40042 26.6468ZM9.0818 28.4693V27.8413H10.3288V28.4674L9.0818 28.4693ZM10.9547 28.4693V27.8432H12.2045V28.4712L10.9547 28.4693ZM12.8275 28.4693V27.8413H14.0783V28.4693H12.8285H12.8275ZM14.7013 28.4693V27.8432H15.9512V28.4712L14.7013 28.4693ZM16.5742 28.4693V27.8432H17.824V28.4712L16.5751 28.4693H16.5742ZM18.448 28.4693V27.8432H19.6978V28.4712L18.448 28.4693ZM20.3209 28.4693V27.8432H21.5707V28.4693H20.3209ZM22.1937 28.4693V27.8432H23.4417V28.4693H22.1956H22.1937ZM24.0675 28.4693V27.8432H25.3155V28.4693H24.0675ZM25.9385 28.4693V27.8432H27.1865V28.4693H25.9385ZM27.1244 28.5335H27.7483V29.7847H27.1225L27.1244 28.5335ZM27.1244 30.4127H27.7483V31.6668H27.1309L27.1244 30.4127ZM27.1244 32.2919H27.77V33.5441H27.1309L27.1244 32.2919ZM27.1244 34.1711H27.77V35.4233H27.1441L27.1253 34.172L27.1244 34.1711ZM27.1244 36.0493H27.77V37.3006H27.146L27.1244 36.0493ZM27.1244 37.9285H27.77V38.5631C27.5563 38.6481 27.3559 38.7321 27.146 38.8105L27.1244 37.9285Z" fill="#BD7ABD"/>
<path d="M5.54122 25.7799C3.43778 25.7799 1.72961 26.2728 1.72961 26.8819C1.73056 26.9215 1.73903 26.9602 1.75126 26.9971L2.0129 28.8366C2.33288 29.4957 2.68863 30.1369 3.07732 30.7583L2.99262 30.118C3.42554 30.2021 3.86317 30.2597 4.30363 30.2909L4.37139 31.2323C3.99256 31.2008 3.61811 31.1293 3.25426 31.0189C3.43119 31.2899 3.61377 31.5591 3.80388 31.8216C4.0034 31.8518 4.21045 31.8754 4.42127 31.8924L4.47585 32.6573H4.4335C4.65938 32.9387 4.8909 33.2164 5.13183 33.4855V33.3627C5.48758 33.3627 5.84709 33.3627 6.19531 33.341L6.13884 34.1569C6.0212 34.1569 5.89979 34.1739 5.77462 34.1777C6.10214 34.5176 6.44471 34.8444 6.7967 35.1598C7.61361 35.037 8.18864 34.7952 8.25264 34.5195C8.25354 34.5088 8.25354 34.4981 8.25264 34.4874L8.52086 32.6063C8.53969 32.5364 8.5491 32.4647 8.55286 32.392L9.33212 26.9414C9.33417 26.9159 9.33417 26.8903 9.33212 26.8649C9.35095 26.2728 7.64561 25.7789 5.54028 25.7789L5.54122 25.7799ZM2.90133 29.4108L2.74134 28.219C3.21191 28.3682 3.69753 28.4702 4.18881 28.524L4.26974 29.6478C3.80963 29.6147 3.35435 29.5324 2.91168 29.4023L2.90133 29.4108ZM2.59452 27.1161C2.6284 26.8177 3.93376 26.5778 5.54028 26.5778C6.8174 26.5778 7.91383 26.7298 8.31852 26.9442L8.30158 26.9565C7.38209 27.7535 3.87823 27.9433 2.59452 27.1076V27.1161ZM6.24896 32.6932C5.86215 32.7262 5.47346 32.7376 5.08477 32.7281L5.04054 31.9538C5.46593 31.967 5.89227 31.9557 6.31766 31.9207L6.24896 32.6932ZM6.35154 31.2408C5.89791 31.2881 5.44146 31.3069 4.98501 31.2975L4.91913 30.3503C5.41605 30.3655 5.91297 30.3551 6.40895 30.3182L6.35154 31.2408ZM6.46448 29.6242C5.93537 29.6763 5.40351 29.6949 4.87207 29.6799L4.79584 28.575C5.37746 28.6071 5.96191 28.5892 6.54071 28.5222L6.46448 29.6242ZM7.60514 33.6507C7.60514 33.8368 7.26444 33.9982 6.75341 34.0965L6.81176 33.307C7.11104 33.2702 7.40279 33.222 7.67949 33.1616L7.60514 33.6507ZM7.77736 32.3693C7.47902 32.4788 7.16939 32.5582 6.85411 32.6016L6.90964 31.8461C7.2343 31.8014 7.55609 31.7377 7.87336 31.6554L7.77736 32.3693ZM7.991 30.78C7.67222 30.9662 7.32078 31.0893 6.95575 31.1426L7.01975 30.2503C7.37738 30.2087 7.73313 30.1483 8.08418 30.0708L7.99006 30.7791L7.991 30.78ZM8.2037 29.2162C7.84513 29.3739 7.46585 29.4806 7.07716 29.5307L7.1581 28.4136C7.54679 28.3446 7.92983 28.2455 8.30346 28.1161C8.32276 28.1092 8.34086 28.0993 8.35711 28.0868L8.2037 29.2162ZM5.42076 9.99937C5.31441 10.6982 5.08477 11.5443 4.92289 12.2487C4.75292 12.9874 4.58759 13.7271 4.42691 14.4679C4.16904 15.653 4.27633 15.535 3.71636 16.4736C3.37295 17.0478 3.03101 17.6229 2.69052 18.1989C2.50229 18.5133 2.34135 18.8401 2.56252 19.231C2.65298 19.3909 2.79409 19.5158 2.96341 19.5859C3.13274 19.6561 3.32057 19.6674 3.49707 19.6182C3.96952 19.4831 4.34786 18.6351 4.67632 18.0837C5.00383 17.5331 5.34829 16.9524 5.68522 16.3745C5.98356 15.8626 6.08708 14.4745 6.25743 14.2025C6.60471 14.534 7.30962 15.3499 7.66443 15.7446C8.11617 16.2489 7.95618 15.9221 8.17264 17.027C8.29311 17.637 8.38628 18.4472 8.55663 19.0195C8.59367 19.1625 8.66805 19.293 8.77211 19.3976C8.87616 19.5022 9.00612 19.577 9.1486 19.6144C9.30616 19.6521 9.47116 19.6438 9.6242 19.5906C9.77725 19.5374 9.91198 19.4415 10.0126 19.3141C10.3109 18.8873 10.0502 18.0327 9.92128 17.3783C9.84881 17.0053 9.63611 15.6275 9.5147 15.4046C9.45918 15.3055 8.54533 14.2431 8.43522 14.109C8.2564 13.8956 8.06253 13.6822 7.89218 13.4678C7.71924 13.2447 7.53451 13.031 7.33879 12.8276L7.86865 10.3969C7.89228 10.4128 7.91272 10.433 7.92889 10.4564C8.18864 10.7898 8.14158 11.1977 8.62533 11.5358C8.98861 11.7898 9.93351 12.4669 10.2686 12.6718C10.3724 12.74 10.4949 12.7739 10.6189 12.7688C10.743 12.7637 10.8623 12.7199 10.9603 12.6435C11.0568 12.5567 11.1201 12.4389 11.1395 12.3104C11.1589 12.1819 11.1332 12.0506 11.0666 11.939C10.9434 11.7426 9.68035 10.9267 9.43377 10.7558C9.18719 10.5848 9.25966 10.6255 9.05261 10.2194L8.1077 8.3487C7.66255 7.4601 6.83058 7.32978 5.99579 8.00214L4.70361 9.05127C4.58032 9.14571 3.7333 9.83506 3.68624 9.90588C3.56295 10.0825 3.36625 11.1042 3.29661 11.4196C3.21567 11.7851 2.93239 12.6397 3.13661 12.9305C3.34178 13.2204 3.98834 13.3932 4.17375 12.5349C4.2848 12.0183 4.38645 11.5178 4.50597 11.0013C4.60573 10.5357 4.58879 10.6491 4.87019 10.4139C5.0396 10.2553 5.225 10.1117 5.42076 9.98709V9.99937ZM7.1261 4.93405C5.53369 5.24379 5.97226 7.59325 7.54114 7.33073C9.11002 7.06726 8.66956 4.62431 7.11575 4.93405H7.1261ZM8.6818 20.9468H9.93633V19.9496H8.67427L8.6818 20.9468Z" fill="#FF2A31"/>
<path d="M3.34411 17.3282H4.657L4.80005 17.3131V16.1884L4.65888 16.1676H3.34599L3.34411 17.3292V17.3282ZM3.83821 20.9468H5.08616V19.9496H3.84009L3.83821 20.9468ZM1.33008 20.9468H2.58179V19.9496H1.33196L1.33008 20.9468ZM11.324 20.9468H12.5757V19.9496H11.3306L11.324 20.9468ZM10.8939 17.3282H12.3461V16.1705H10.9024L10.8939 17.3282Z" fill="#FF2A31"/>
<path d="M30.5623 31.3116C30.6093 31.4117 31.3688 32.1492 31.5119 32.2937C31.654 32.4392 31.8272 32.6129 31.9975 32.781C32.6356 33.409 32.9716 33.7357 32.1443 34.5195C31.6399 34.9983 31.1731 35.4808 30.6771 35.9407L30.1943 36.427C30.0428 36.6064 29.8527 36.7481 29.639 36.8434C29.5132 36.8805 29.3797 36.8824 29.253 36.8488C29.1262 36.8153 29.011 36.7476 28.9198 36.6531C28.8286 36.5585 28.7649 36.4408 28.7355 36.3126C28.7062 36.1844 28.7124 36.0505 28.7534 35.9256C28.8682 35.5667 29.9195 34.7678 30.1303 34.4534C28.6894 34.4156 27.1987 34.4534 25.7493 34.4534C25.3409 34.4534 22.797 34.5138 22.5184 34.3892C22.3886 34.332 22.2787 34.2373 22.2028 34.1172C22.1269 33.9972 22.0883 33.8571 22.092 33.7149C22.1175 32.8603 23.0802 33.0209 23.5979 33.0209H27.9826C28.6979 33.0209 29.4555 33.0435 30.1642 33.0209C30.0441 32.8462 29.901 32.6886 29.7388 32.5525C29.1176 31.9122 28.6744 31.7092 28.8513 30.9943L28.8607 30.9811L28.8748 30.9679L28.9313 30.8886C28.9552 30.8532 28.9834 30.8209 29.0151 30.7923C29.7115 30.1407 30.311 31.1794 30.567 31.3211L30.5623 31.3116ZM29.4837 29.0991V29.7271L28.2339 29.7384V29.1104L29.4837 29.0991ZM39.0946 25.5749V26.2029H37.8467V25.5749H39.0946ZM37.2218 25.5749V26.2029H35.9738V25.5749H37.2208H37.2218ZM35.3499 25.5749V26.2029H34.101V25.5749H35.3508H35.3499ZM33.477 25.5749V26.2029H33.1297V26.4786H32.5039V25.573L33.477 25.5749ZM32.5104 27.1085H33.1344V28.3625H32.517L32.5104 27.1085ZM32.5104 28.9877H33.1344V29.6997H31.9834V29.0717H32.5217L32.5095 28.9886L32.5104 28.9877ZM31.3463 29.084V29.7101H30.0964V29.084H31.3463Z" fill="#BD7ABD"/>
<path d="M23.7242 16.4141C23.7791 15.909 23.9561 15.425 24.2399 15.0042C24.4187 14.7332 24.9166 14.1732 25.2234 14.0788C25.3702 14.2931 25.9979 15.4745 26.1834 15.8031C26.3038 15.9967 26.4073 16.2016 26.492 16.4141H23.7251H23.7242ZM16.5828 14.261C17.7253 15.0514 18.3606 17.0373 17.2764 18.603C17.1701 18.7541 17.0534 18.8967 16.9254 19.0308C16.8062 19.1697 16.6688 19.2917 16.5169 19.3934C13.8752 21.2839 10.2602 18.4859 11.8037 15.3007C12.7768 13.2846 15.4478 13.3791 15.925 13.8748C15.8591 14.0514 15.2266 15.1563 15.0902 15.3829C14.7984 15.8843 14.1867 16.7172 14.6779 16.9353C15.0375 17.0931 15.1927 16.7219 15.3273 16.4736C15.5221 16.1147 16.4868 14.3574 16.5913 14.261H16.5819H16.5828ZM25.9151 13.753C26.4149 13.4489 27.5433 13.5972 28.0581 13.7974C29.9959 14.5623 30.7083 16.9845 29.5187 18.6323C27.7202 21.1234 24.0056 19.9591 23.7223 17.1554H25.9528C26.6238 17.1554 27.7663 17.3301 27.4774 16.6237C27.3174 16.2328 25.9998 14.0325 25.9151 13.753ZM17.9964 11.6698L19.8909 14.9513C20.1996 15.517 20.5168 16.0401 20.8292 16.6152C21.0419 17.0213 21.0419 17.1573 21.6132 17.1535C22.0216 17.1308 22.432 17.1308 22.8414 17.1535C22.9797 17.7512 22.9835 18.0071 23.2329 18.5501C23.4719 19.0317 23.7957 19.4652 24.1881 19.8316C25.5443 20.9912 27.5734 21.2348 29.0849 20.2225C32.7581 17.7597 30.5982 12.1958 26.3659 12.7464C26.0365 12.7898 25.7485 12.9088 25.4681 12.9475L24.6719 11.5339C24.5608 11.3204 24.6719 11.2194 24.91 10.7907C25.0041 10.6254 25.2149 10.1684 25.3467 10.0787C25.7165 10.0787 26.7151 10.1769 26.9184 9.9559C26.9546 9.91403 26.981 9.86457 26.9957 9.81115C27.0104 9.75772 27.013 9.70167 27.0034 9.64709C26.9937 9.59251 26.972 9.54079 26.9399 9.4957C26.9078 9.45061 26.866 9.41329 26.8177 9.38648C26.6426 9.30621 24.5015 9.33548 24.2456 9.34398C23.9914 9.35343 23.7778 9.48563 23.8371 9.79914C23.8973 10.1127 24.1336 10.0664 24.4488 10.0853L24.1505 10.6689H18.5903L19.554 8.92187C20.0885 8.90676 20.6316 8.92187 21.168 8.92187C21.8899 8.92187 21.8061 8.19947 21.249 8.18625C20.6909 8.17397 20.1629 8.18625 19.6246 8.18625C18.9865 8.18625 19.1182 8.20986 18.7239 8.90204C18.3305 9.59423 17.9597 10.2902 17.5512 10.9824C17.1428 11.6746 16.7804 12.413 16.3673 13.0929C15.716 12.8644 15.365 12.7039 14.5537 12.7171C13.9374 12.7245 13.3313 12.8758 12.7834 13.159C12.153 13.4828 11.6176 13.966 11.2304 14.561C10.8432 15.156 10.6174 15.8421 10.5755 16.5514C10.5336 17.2608 10.6769 17.9689 10.9914 18.6056C11.3058 19.2423 11.7805 19.7857 12.3684 20.1819C16.1329 22.7221 20.7257 17.9307 17.8025 14.2393C17.5573 13.9603 17.2911 13.7004 17.0063 13.4622L17.9964 11.6698ZM21.8739 16.4198C21.8936 16.279 22.8498 14.5642 23.0051 14.2847C23.2649 13.8295 23.9632 12.4602 24.1693 12.1722C24.4159 12.5329 24.6239 12.9182 24.7886 13.3243C24.5232 13.4659 24.2766 13.6435 24.0564 13.8512C23.6229 14.2873 23.2876 14.8115 23.0729 15.3886C22.6259 16.6511 23.2705 16.4009 21.8682 16.4207H21.8748L21.8739 16.4198ZM21.1765 15.737C20.8424 15.1836 18.7691 11.4989 18.739 11.4007H23.7392L21.2876 15.8758L21.1765 15.737Z" fill="#8A2E83"/>
<path d="M27.6367 15.5368C27.7644 15.5328 27.8915 15.5545 28.0107 15.6008C28.1298 15.647 28.2384 15.7168 28.3301 15.806C28.4219 15.8952 28.4948 16.0019 28.5446 16.1199C28.5944 16.2379 28.62 16.3648 28.62 16.4929C28.62 16.6211 28.5944 16.7479 28.5446 16.8659C28.4948 16.9839 28.4219 17.0907 28.3301 17.1799C28.2384 17.2691 28.1298 17.3389 28.0107 17.3851C27.8915 17.4313 27.7644 17.4531 27.6367 17.4491C27.3892 17.4412 27.1544 17.3371 26.982 17.1586C26.8097 16.9802 26.7133 16.7414 26.7133 16.4929C26.7133 16.2444 26.8097 16.0057 26.982 15.8272C27.1544 15.6488 27.3892 15.5446 27.6367 15.5368ZM30.2296 20.2272V21.9695C30.234 22.0453 30.2229 22.1211 30.197 22.1925C30.1712 22.2638 30.131 22.329 30.0791 22.3843C30.0272 22.4395 29.9646 22.4834 29.8952 22.5135C29.8257 22.5436 29.7509 22.5591 29.6752 22.5591C29.5996 22.5591 29.5247 22.5436 29.4553 22.5135C29.3858 22.4834 29.3232 22.4395 29.2713 22.3843C29.2194 22.329 29.1793 22.2638 29.1534 22.1925C29.1276 22.1211 29.1165 22.0453 29.1209 21.9695V19.7315C28.9861 20.1493 28.9185 20.586 28.9204 21.0252V27.1727C28.9205 27.3183 28.8637 27.4582 28.7622 27.5624C28.6606 27.6665 28.5225 27.7266 28.3774 27.7298H28.352C28.2069 27.7266 28.0687 27.6665 27.9672 27.5624C27.8657 27.4582 27.8089 27.3183 27.809 27.1727V22.8732C27.8064 22.8319 27.7883 22.7932 27.7585 22.7646C27.7287 22.7361 27.6892 22.7199 27.648 22.7193C27.6068 22.7197 27.5674 22.7359 27.5376 22.7645C27.5079 22.7931 27.4902 22.8319 27.488 22.8732V27.1727C27.4873 27.3181 27.4303 27.4576 27.3289 27.5616C27.2276 27.6656 27.0899 27.7259 26.945 27.7298H26.9196C26.7744 27.7266 26.6363 27.6665 26.5348 27.5624C26.4333 27.4582 26.3765 27.3183 26.3765 27.1727V21.0252C26.3794 20.5862 26.3127 20.1495 26.1789 19.7315V21.9695C26.1789 22.1173 26.1204 22.259 26.0163 22.3635C25.9121 22.4679 25.7709 22.5266 25.6236 22.5266C25.4764 22.5266 25.3351 22.4679 25.231 22.3635C25.1269 22.259 25.0684 22.1173 25.0684 21.9695V20.2272C25.1719 18.2423 25.9897 17.6634 27.6518 17.704C29.3138 17.6549 30.1317 18.2404 30.2343 20.2272H30.2296ZM28.367 27.7298H26.9299H28.367ZM33.5612 24.4663H33.3024V27.1765C33.3017 27.3222 33.2444 27.462 33.1426 27.566C33.0409 27.67 32.9027 27.7302 32.7575 27.7336H32.732C32.5869 27.7304 32.4488 27.6703 32.3473 27.5661C32.2458 27.462 32.189 27.3221 32.189 27.1765V24.2963C31.869 24.2233 31.554 24.1296 31.246 24.0158L32.1956 20.1158C32.1956 20.0705 32.1702 20.0233 32.1532 19.9742L31.6234 21.8609C31.5481 22.1187 31.3693 22.3689 31.0305 22.2877C30.4968 22.1461 30.7265 21.5209 30.8187 21.2207C31.1575 20.1517 31.2893 19.2744 31.7758 18.4434C31.9725 18.1139 32.397 17.89 33.3965 17.9089H33.5584C34.5588 17.89 34.9842 18.1224 35.1799 18.4434C35.6675 19.265 35.7973 20.1526 36.138 21.2197C36.2293 21.5125 36.4589 22.1385 35.9253 22.2877C35.5846 22.3756 35.4058 22.1253 35.3324 21.8609L34.8073 19.9817C34.7899 20.0276 34.7757 20.0746 34.7649 20.1224L35.7145 24.0224C35.4064 24.1355 35.0914 24.2289 34.7715 24.302V27.1793C34.7715 27.325 34.7147 27.4648 34.6132 27.569C34.5117 27.6731 34.3736 27.7332 34.2285 27.7364H34.2002C34.0552 27.733 33.9174 27.6728 33.8161 27.5687C33.7148 27.4645 33.6581 27.3248 33.6581 27.1793V24.4663H33.5602H33.5612ZM34.2143 27.7279H32.748H34.2143ZM33.5414 15.7644C33.7945 15.7644 34.0373 15.8653 34.2162 16.0448C34.3952 16.2244 34.4957 16.468 34.4957 16.7219C34.4957 16.9759 34.3952 17.2194 34.2162 17.399C34.0373 17.5786 33.7945 17.6795 33.5414 17.6795C33.2883 17.6795 33.0456 17.5786 32.8666 17.399C32.6877 17.2194 32.5871 16.9759 32.5871 16.7219C32.5871 16.468 32.6877 16.2244 32.8666 16.0448C33.0456 15.8653 33.2883 15.7644 33.5414 15.7644Z" fill="#FF8814"/>
<path d="M17.1839 29.3361C17.4442 29.2354 17.72 29.1804 17.9989 29.1737H26.2282C26.52 29.1794 26.808 29.1114 27.0668 28.9773L28.2507 28.5117C28.3355 28.4792 28.4296 28.4817 28.5125 28.5188C28.5954 28.5559 28.6601 28.6245 28.6926 28.7096C28.725 28.7946 28.7225 28.8891 28.6855 28.9722C28.6485 29.0554 28.5802 29.1204 28.4954 29.1529L27.2286 29.6525C26.9953 29.7757 26.7388 29.8484 26.4757 29.8659C26.5986 29.9497 26.6914 30.0708 26.7405 30.2114C26.7897 30.352 26.7927 30.5048 26.749 30.6472C26.7053 30.7896 26.6173 30.9142 26.4978 31.0028C26.3783 31.0913 26.2337 31.1391 26.0852 31.1391C25.9366 31.1391 25.792 31.0913 25.6726 31.0028C25.5531 30.9142 25.465 30.7896 25.4213 30.6472C25.3777 30.5048 25.3806 30.352 25.4298 30.2114C25.479 30.0708 25.5718 29.9497 25.6946 29.8659H19.0803C19.2028 29.9497 19.2954 30.0706 19.3444 30.211C19.3934 30.3514 19.3962 30.5039 19.3525 30.6461C19.3089 30.7882 19.2209 30.9126 19.1016 31.001C18.9823 31.0893 18.838 31.137 18.6897 31.137C18.5414 31.137 18.3971 31.0893 18.2778 31.001C18.1585 30.9126 18.0706 30.7882 18.0269 30.6461C17.9832 30.5039 17.9861 30.3514 18.0351 30.211C18.0841 30.0706 18.1766 29.9497 18.2991 29.8659H17.9519C17.848 29.8635 17.7447 29.8818 17.6479 29.9197L17.3749 30C17.3327 30.0139 17.288 30.0193 17.2436 30.0156C17.1993 30.012 17.1561 29.9995 17.1166 29.9788C17.0772 29.9582 17.0422 29.9298 17.0139 29.8954C16.9855 29.8609 16.9643 29.8211 16.9516 29.7783C16.9388 29.7356 16.9347 29.6906 16.9395 29.6462C16.9444 29.6018 16.958 29.5588 16.9797 29.5198C17.0013 29.4808 17.0305 29.4465 17.0656 29.419C17.1007 29.3915 17.1409 29.3714 17.1839 29.3597V29.3361ZM17.1265 25.6127H17.1387C17.1348 25.6578 17.1403 25.7032 17.1548 25.7461C17.1694 25.7889 17.1927 25.8283 17.2232 25.8616C17.2538 25.8949 17.2909 25.9215 17.3323 25.9396C17.3736 25.9577 17.4183 25.967 17.4634 25.9668C17.5084 25.9668 17.5529 25.9575 17.5941 25.9394C17.6353 25.9213 17.6724 25.8948 17.7029 25.8616C17.7334 25.8284 17.7567 25.7892 17.7714 25.7466C17.786 25.7039 17.7917 25.6586 17.7881 25.6136C17.7834 25.67 17.7934 25.7267 17.8172 25.778C17.8409 25.8293 17.8776 25.8736 17.9236 25.9063C17.9695 25.9391 18.0232 25.9593 18.0793 25.965C18.1355 25.9706 18.1921 25.9615 18.2436 25.9385C18.3057 25.9112 18.3578 25.8651 18.3925 25.8067C18.4273 25.7483 18.443 25.6805 18.4375 25.6127C18.4404 25.6988 18.4756 25.7807 18.5359 25.8421C18.5962 25.9035 18.6773 25.9399 18.7631 25.9441C18.8326 25.9422 18.8998 25.9182 18.9549 25.8756C19.01 25.8331 19.0503 25.7741 19.0699 25.7071C19.0823 25.7099 19.0952 25.7099 19.1076 25.7071C19.1286 25.7722 19.1692 25.8291 19.2238 25.87C19.2784 25.911 19.3444 25.9339 19.4125 25.9356C19.4991 25.9313 19.5808 25.894 19.6409 25.8314C19.7011 25.7688 19.7352 25.6855 19.7363 25.5985C19.7374 25.6858 19.7717 25.7693 19.8323 25.832C19.8928 25.8947 19.975 25.9318 20.0619 25.9356C20.1507 25.9255 20.2328 25.8828 20.2923 25.8159C20.3519 25.7489 20.3848 25.6623 20.3848 25.5725C20.3848 25.4828 20.3519 25.3962 20.2923 25.3292C20.2328 25.2623 20.1507 25.2196 20.0619 25.2095C20.0174 25.2101 19.9736 25.2201 19.9332 25.2388C19.8929 25.2575 19.8569 25.2845 19.8275 25.3181L19.8144 25.3029C19.9508 25.0263 19.8934 24.6221 19.8021 24.2038C19.7454 23.8783 19.6665 23.5571 19.5659 23.2424C19.4483 23.1395 18.4563 23.1008 18.3293 23.1914C18.2013 23.2812 18.1909 23.5928 17.9782 23.8251C17.5735 24.233 16.334 24.2123 16.1769 24.8421C16.1336 24.9643 16.1336 25.0977 16.1769 25.2198H16.1515C16.0617 25.229 15.9786 25.2713 15.9181 25.3385C15.8577 25.4056 15.8242 25.4929 15.8242 25.5834C15.8242 25.6739 15.8577 25.7612 15.9181 25.8283C15.9786 25.8955 16.0617 25.9378 16.1515 25.947C16.2356 25.9425 16.315 25.9071 16.3748 25.8475C16.4345 25.7879 16.4702 25.7084 16.4752 25.624C16.4882 25.6995 16.5273 25.7679 16.5857 25.8173C16.6441 25.8666 16.7179 25.8937 16.7943 25.8937C16.8706 25.8937 16.9445 25.8666 17.0028 25.8173C17.0612 25.7679 17.1003 25.6995 17.1133 25.624L17.1265 25.6136V25.6127Z" fill="#00B7DE"/>
<path d="M30.7082 23.131V23.3982H31.6277C31.7726 23.4066 31.9087 23.4702 32.0084 23.5761C32.108 23.682 32.1634 23.8221 32.1634 23.9677C32.1634 24.1132 32.108 24.2533 32.0084 24.3592C31.9087 24.4651 31.7726 24.5287 31.6277 24.5371H30.7082V25.404H32.2366C32.3391 25.4074 32.4362 25.4513 32.5066 25.5261C32.5771 25.6009 32.6154 25.7005 32.6131 25.8034C32.6138 25.8861 32.589 25.9671 32.5422 26.0352C32.4954 26.1033 32.4288 26.1552 32.3514 26.184C32.3525 26.1959 32.3525 26.2079 32.3514 26.2199V28.9518C32.3514 29.0044 32.3306 29.0548 32.2935 29.092C32.2565 29.1292 32.2062 29.1501 32.1538 29.1501C32.1014 29.1501 32.0511 29.1292 32.014 29.092C31.977 29.0548 31.9562 29.0044 31.9562 28.9518V26.201H31.5129V28.0046C31.5129 28.0572 31.4921 28.1076 31.455 28.1448C31.4179 28.182 31.3677 28.2029 31.3152 28.2029C31.2628 28.2029 31.2126 28.182 31.1755 28.1448C31.1384 28.1076 31.1176 28.0572 31.1176 28.0046V26.201H21.0568V28.0046C21.0568 28.0572 21.036 28.1076 20.999 28.1448C20.9619 28.182 20.9116 28.2029 20.8592 28.2029C20.8068 28.2029 20.7565 28.182 20.7194 28.1448C20.6824 28.1076 20.6616 28.0572 20.6616 28.0046V26.201H20.2183V28.9518C20.2202 28.9791 20.2164 29.0066 20.2073 29.0325C20.1981 29.0584 20.1837 29.0821 20.1651 29.1021C20.1464 29.1222 20.1238 29.1382 20.0987 29.1491C20.0737 29.1601 20.0466 29.1657 20.0192 29.1657C19.9919 29.1657 19.9648 29.1601 19.9397 29.1491C19.9146 29.1382 19.8921 29.1222 19.8734 29.1021C19.8547 29.0821 19.8404 29.0584 19.8312 29.0325C19.8221 29.0066 19.8183 28.9791 19.8202 28.9518V26.1981C19.7243 26.1813 19.6378 26.1301 19.5768 26.0541C19.5158 25.978 19.4845 25.8823 19.4886 25.7847C19.4928 25.6872 19.5322 25.5945 19.5994 25.5239C19.6666 25.4533 19.7571 25.4097 19.8541 25.4011H21.3881V24.5333H20.4715C20.328 24.5231 20.1937 24.4588 20.0956 24.3532C19.9976 24.2476 19.943 24.1087 19.943 23.9644C19.943 23.82 19.9976 23.6811 20.0956 23.5755C20.1937 23.4699 20.328 23.4056 20.4715 23.3954H21.3891V23.131H20.4715C20.3212 23.131 20.1771 23.0711 20.0708 22.9645C19.9646 22.8579 19.9049 22.7133 19.9049 22.5625C19.9049 22.4117 19.9646 22.2671 20.0708 22.1605C20.1771 22.0539 20.3212 21.994 20.4715 21.994H31.6239C31.7701 22 31.9083 22.0625 32.0095 22.1683C32.1108 22.2742 32.1674 22.4153 32.1674 22.562C32.1674 22.7088 32.1108 22.8499 32.0095 22.9557C31.9083 23.0616 31.7701 23.1241 31.6239 23.13H30.7082V23.131ZM30.3205 25.4021V24.5342H21.806V25.4021H30.3205ZM21.806 23.3963H30.3205V23.1319H21.806V23.3963Z" fill="#FFAE00"/>
<path d="M32.1446 12.1722V12.4366C32.1444 12.6099 32.0757 12.7761 31.9536 12.8988C31.8316 13.0214 31.6661 13.0905 31.4933 13.091H28.1918C28.0193 13.0905 27.8539 13.0215 27.7319 12.8991C27.6098 12.7766 27.5411 12.6107 27.5406 12.4376V9.33832H32.2237C33.0895 9.33832 33.7925 9.96629 33.7925 10.7416C33.7925 11.5159 33.0905 12.1467 32.2237 12.1467H32.1531L32.1446 12.1722ZM25.8164 13.4348H33.9572C33.9567 13.6772 33.8605 13.9096 33.6895 14.0809C33.5186 14.2523 33.2869 14.3486 33.0453 14.3489H26.7284C26.4869 14.3484 26.2555 14.2519 26.0847 14.0806C25.914 13.9093 25.8178 13.677 25.8173 13.4348H25.8164ZM32.1446 9.76893V11.7152H32.2152C32.3512 11.7293 32.4887 11.7146 32.6187 11.672C32.7487 11.6294 32.8684 11.5599 32.9699 11.468C33.0715 11.3761 33.1527 11.2638 33.2082 11.1385C33.2638 11.0131 33.2925 10.8774 33.2925 10.7402C33.2925 10.6029 33.2638 10.4672 33.2082 10.3419C33.1527 10.2165 33.0715 10.1042 32.9699 10.0123C32.8684 9.92039 32.7487 9.8509 32.6187 9.80832C32.4887 9.76575 32.3512 9.75104 32.2152 9.76515L32.1446 9.76893Z" fill="#F6EC4A"/>
<path d="M6.2845 20.9468H7.54468V19.9496H6.26756L6.2845 20.9468ZM0.898367 17.3282H2.20561L2.35242 17.3112V16.1875L2.21408 16.1667H0.896484L0.898367 17.3282ZM16.0592 17.3282H17.372L17.5132 17.3112V16.1875L17.3749 16.1667H16.061L16.0592 17.3282ZM13.5491 17.3282H14.863L15.0041 17.3112V16.1875L14.863 16.1667H13.552L13.5491 17.3282Z" fill="#FF2A31"/>
</g>
</svg>
