<svg width="41" height="40" viewBox="0 0 41 40" fill="none" xmlns="http://www.w3.org/2000/svg">
<path fill-rule="evenodd" clip-rule="evenodd" d="M20.5 40C31.5457 40 40.5 31.0457 40.5 20C40.5 8.95433 31.5457 0 20.5 0C9.45433 0 0.5 8.95433 0.5 20C0.5 31.0457 9.45433 40 20.5 40Z" fill="#26A9E0"/>
<path d="M21.9505 19.1418C22.1502 19.1418 22.517 19.0795 22.6782 19.0468V20.4459H23.4214V17.0554H22.6782V18.4456C22.5694 18.4652 22.2126 18.5225 22.0074 18.5225C21.6262 18.5225 21.4789 18.3757 21.4789 17.9652V17.0553H20.7359V17.9558C20.736 18.8272 21.1886 19.1418 21.9505 19.1418ZM11.5509 17.0561L10.9366 24.009H12.7653L12.3954 17.0561H11.5509ZM5.5 24.009H10.0971L10.7113 17.0561H5.5V24.009ZM34.3668 18.094H34.381V20.4458H35.1231V17.0554H34.286L33.01 19.4032H32.9959V17.0554H32.253V20.4459H33.0909L34.3668 18.094ZM33.738 16.7866C34.22 16.7866 34.5589 16.4521 34.5983 16H34.1361C34.0967 16.172 33.9633 16.3147 33.738 16.3147C33.512 16.3147 33.3787 16.1719 33.34 16H32.8775C32.9165 16.4521 33.2557 16.7866 33.738 16.7866ZM29.6279 20.4458L29.9043 19.688H31.1657L31.4325 20.4458H32.2135L30.9228 17.052H30.1566L28.8663 20.4458H29.6279ZM30.5374 17.8853L30.9849 19.146H30.0859L30.5374 17.8853ZM14.4393 24.009H15.2319V17.0561H14.0689L14.4393 24.009ZM25.996 20.4458H26.739V17.6894H27.7622V20.4458H28.5095V17.6894H29.6307V17.0554H25.9004L24.6247 19.4032H24.6107V17.0554H23.868V20.4459H24.7057L25.9812 18.0941H25.996V20.4458ZM24.1779 20.5457C23.1635 20.5457 22.4976 21.2493 22.4976 22.3261C22.4976 23.3875 23.1691 24.0967 24.1735 24.0967C25.1684 24.0967 25.8391 23.3831 25.8391 22.3261C25.8392 21.2642 25.1684 20.5457 24.1779 20.5457ZM24.1779 23.4832C23.6019 23.4781 23.2498 23.0399 23.2498 22.3114C23.2498 21.6073 23.6065 21.1551 24.1691 21.1551C24.735 21.1551 25.0872 21.5976 25.0872 22.3114C25.0872 23.0346 24.7397 23.4832 24.1779 23.4832ZM30.4733 20.5457C29.4593 20.5457 28.7925 21.2493 28.7925 22.3261C28.7925 23.3875 29.4641 24.0967 30.4689 24.0967C31.4638 24.0967 32.1352 23.3831 32.1352 22.3261C32.1352 21.2642 31.4638 20.5457 30.4733 20.5457ZM30.4733 23.4832C29.8977 23.4781 29.5454 23.0399 29.5454 22.3114C29.5454 21.6073 29.9027 21.1551 30.4643 21.1551C31.0311 21.1551 31.383 21.5976 31.383 22.3114C31.383 23.0346 31.0355 23.4832 30.4733 23.4832ZM27.4567 20.6258H25.996V24.0161H26.734V22.7968H27.4952C28.176 22.7968 28.6997 22.4544 28.6997 21.7165C28.6997 20.9689 28.1902 20.6258 27.4567 20.6258ZM27.3947 22.2114H26.734V21.2355H27.4004C27.7293 21.2355 27.9762 21.3642 27.9762 21.7259C27.9762 22.1018 27.7293 22.2114 27.3947 22.2114ZM17.6694 17.1617L18.7342 24.0329L19.5596 23.9044L18.4964 17.0339L17.6694 17.1617ZM15.6482 24.009H17.2764V17.0561H15.6482V24.009ZM22.6782 20.6258H20.7359V24.0161H21.4789V21.2595H22.6782V20.6258ZM35.1231 23.3832V20.6258H32.7101V21.1406C32.7101 22.1404 32.567 22.8494 32.1671 23.3832H31.9102V24.8872H32.6287V24.0161H34.7807V24.8872H35.5V23.3832H35.1231ZM34.381 23.3832H32.9959C33.2949 22.8353 33.4474 22.2165 33.4474 21.2878V21.2304H34.381V23.3832Z" fill="white"/>
</svg>
