<svg width="40" height="40" viewBox="0 0 40 40" fill="none" xmlns="http://www.w3.org/2000/svg">
<g clip-path="url(#clip0_25_3008)">
<path d="M20 40C31.0457 40 40 31.0457 40 20C40 8.9543 31.0457 0 20 0C8.9543 0 0 8.9543 0 20C0 31.0457 8.9543 40 20 40Z" fill="#262624"/>
<path d="M32.689 15.083C33.0323 15.0835 33.3618 14.9478 33.6051 14.7057C33.8485 14.4636 33.9858 14.1348 33.987 13.7915C33.9856 13.4483 33.8481 13.1197 33.6048 12.8776C33.3615 12.6355 33.0322 12.4997 32.689 12.5C32.3456 12.4995 32.0161 12.6351 31.7725 12.8772C31.529 13.1193 31.3915 13.4481 31.39 13.7915C31.3913 14.1349 31.5289 14.4638 31.7724 14.7059C32.0159 14.948 32.3456 15.0837 32.689 15.083Z" fill="white"/>
<path d="M32.663 15.0945C33.0063 15.0949 33.3357 14.9591 33.579 14.7169C33.8222 14.4746 33.9594 14.1458 33.9605 13.8025C33.9592 13.4593 33.8219 13.1307 33.5786 12.8886C33.3354 12.6465 33.0062 12.5107 32.663 12.511C32.3196 12.5105 31.9899 12.6461 31.7464 12.8882C31.5028 13.1303 31.3651 13.4591 31.3635 13.8025C31.3647 14.1461 31.5022 14.4752 31.7459 14.7174C31.9895 14.9597 32.3194 15.0953 32.663 15.0945ZM32.663 16.17C32.3926 16.1693 32.1329 16.2761 31.9412 16.4668C31.7495 16.6575 31.6413 16.9166 31.6405 17.187V20.927C31.6405 21.49 32.099 21.944 32.663 21.944C32.7969 21.9444 32.9295 21.9184 33.0533 21.8675C33.1771 21.8167 33.2897 21.7419 33.3846 21.6475C33.4795 21.5531 33.5549 21.4409 33.6064 21.3174C33.658 21.1938 33.6847 21.0614 33.685 20.9275V17.1865C33.6842 16.9162 33.5761 16.6572 33.3845 16.4665C33.1929 16.2758 32.9333 16.1695 32.663 16.17ZM27.263 19.9125C26.9198 19.9126 26.5905 19.7767 26.3473 19.5346C26.1041 19.2924 25.9668 18.9637 25.9655 18.6205C25.9668 18.2772 26.1042 17.9484 26.3475 17.7061C26.5908 17.4638 26.9202 17.3279 27.2635 17.328C27.6069 17.3279 27.9363 17.4638 28.1797 17.7061C28.4231 17.9483 28.5605 18.2771 28.562 18.6205C28.5604 18.9639 28.4228 19.2927 28.1794 19.5348C27.9359 19.777 27.6064 19.9128 27.263 19.9125ZM29.5845 12.5C29.02 12.5 28.5625 12.955 28.5625 13.516V15.556C28.1512 15.3836 27.7095 15.2952 27.2635 15.296C25.4205 15.296 23.9205 16.786 23.9205 18.6205C23.9205 20.452 25.4205 21.9445 27.264 21.9445C29.1075 21.9445 30.6075 20.452 30.6075 18.6205V13.5165C30.607 13.3826 30.5802 13.25 30.5285 13.1264C30.4768 13.0029 30.4013 12.8907 30.3063 12.7963C30.2112 12.7019 30.0985 12.6271 29.9746 12.5763C29.8507 12.5255 29.7184 12.4995 29.5845 12.5ZM19.91 19.9125C19.5667 19.9128 19.2372 19.7769 18.9938 19.5348C18.7504 19.2926 18.613 18.9638 18.6115 18.6205C18.6128 18.2771 18.7502 17.9482 18.9936 17.7059C19.237 17.4636 19.5666 17.3277 19.91 17.328C20.2536 17.3276 20.5833 17.4634 20.8269 17.7057C21.0704 17.948 21.208 18.277 21.2095 18.6205C21.2079 18.964 21.0703 19.2928 20.8267 19.535C20.5831 19.7772 20.2535 19.9129 19.91 19.9125ZM19.91 15.2965C18.0665 15.2965 16.5665 16.7855 16.5665 18.6205C16.5665 20.452 18.0665 21.9445 19.91 21.9445C21.7545 21.9445 23.2535 20.452 23.2535 18.6205C23.2535 16.7855 21.754 15.2965 19.91 15.2965ZM12.6675 15.2965C11.8449 15.2954 11.0529 15.6077 10.4525 16.17C9.85212 15.6077 9.06005 15.2954 8.2375 15.2965C6.4525 15.2965 5 16.7395 5 18.5145V20.9275C5.00026 21.0614 5.02691 21.1939 5.07843 21.3175C5.12994 21.4411 5.20531 21.5534 5.30023 21.6478C5.39514 21.7423 5.50774 21.8171 5.63159 21.868C5.75543 21.9189 5.8881 21.9449 6.022 21.9445C6.15592 21.9449 6.28861 21.9189 6.41249 21.868C6.53636 21.8171 6.649 21.7423 6.74395 21.6478C6.83891 21.5534 6.91432 21.4412 6.96589 21.3176C7.01746 21.194 7.04417 21.0614 7.0445 20.9275V18.515C7.0445 17.86 7.5795 17.3285 8.2375 17.3285C8.55289 17.328 8.85561 17.4526 9.07919 17.6751C9.30277 17.8975 9.42894 18.1996 9.43 18.515V20.928C9.43026 21.0619 9.45691 21.1944 9.50843 21.318C9.55994 21.4416 9.63531 21.5539 9.73023 21.6483C9.82514 21.7428 9.93774 21.8176 10.0616 21.8685C10.1854 21.9194 10.3181 21.9454 10.452 21.945C10.7224 21.9457 10.9821 21.8389 11.1738 21.6482C11.3655 21.4575 11.4737 21.1984 11.4745 20.928V18.515C11.4745 17.86 12.0095 17.3285 12.6675 17.3285C12.9829 17.3281 13.2856 17.4528 13.5092 17.6752C13.7329 17.8976 13.8592 18.1996 13.8605 18.515V20.928C13.8608 21.0619 13.8874 21.1944 13.9389 21.318C13.9904 21.4416 14.0658 21.5539 14.1607 21.6483C14.2556 21.7428 14.3682 21.8176 14.4921 21.8685C14.6159 21.9194 14.7486 21.9454 14.8825 21.945C15.0164 21.9454 15.1492 21.9194 15.2731 21.8685C15.397 21.8176 15.5096 21.7428 15.6046 21.6484C15.6996 21.5539 15.7751 21.4417 15.8267 21.3181C15.8783 21.1945 15.9051 21.062 15.9055 20.928V18.515C15.9055 16.74 14.4525 15.2965 12.6675 15.2965Z" fill="white"/>
<path d="M32.6891 15.083C33.0323 15.0835 33.3618 14.9478 33.6052 14.7057C33.8485 14.4636 33.9859 14.1348 33.9871 13.7915C33.9856 13.4483 33.8482 13.1197 33.6049 12.8776C33.3616 12.6355 33.0323 12.4997 32.6891 12.5C32.3457 12.4995 32.0161 12.6351 31.7726 12.8772C31.5291 13.1193 31.3915 13.4481 31.3901 13.7915C31.3914 14.1349 31.5289 14.4638 31.7724 14.7059C32.016 14.9481 32.3456 15.0837 32.6891 15.083ZM10.3146 24.68V25.042H9.39856V25.748H10.2421V26.1095H9.39856V27.253H9.06006V24.68H10.3146ZM13.4166 24.68V26.225C13.4166 26.38 13.3926 26.523 13.3441 26.655C13.2991 26.78 13.2306 26.896 13.1406 26.995C13.0513 27.0916 12.9419 27.1674 12.8201 27.217C12.6855 27.2712 12.5416 27.2981 12.3966 27.296C12.2545 27.2979 12.1135 27.2717 11.9816 27.219C11.8607 27.1702 11.7516 27.0962 11.6616 27.002C11.5704 26.9051 11.5 26.7906 11.4546 26.6655C11.4035 26.5252 11.3783 26.3768 11.3801 26.2275V24.68H11.7191V26.2315C11.7191 26.339 11.7351 26.436 11.7676 26.522C11.8276 26.6885 11.9571 26.82 12.1226 26.882C12.2066 26.914 12.2991 26.9305 12.4001 26.9305C12.4961 26.932 12.5916 26.915 12.6816 26.8805C12.763 26.8489 12.8364 26.7998 12.8968 26.7366C12.9571 26.6734 13.0027 26.5978 13.0306 26.515C13.0621 26.4285 13.0776 26.3335 13.0776 26.228V24.68H13.4166ZM14.9376 24.68L16.3181 26.7015V24.68H16.6571V27.253H16.2891L14.9086 25.2425V27.253H14.5701V24.68H14.9376ZM20.2266 25.872C20.2686 25.918 20.3046 25.967 20.3346 26.0185C20.3981 26.1239 20.431 26.2449 20.4296 26.368C20.4301 26.468 20.4121 26.56 20.3761 26.644C20.3414 26.7256 20.2897 26.7989 20.2246 26.859C20.157 26.9205 20.078 26.968 19.9921 26.999C19.8957 27.0334 19.7939 27.0504 19.6916 27.049C19.6036 27.049 19.5161 27.036 19.4316 27.009C19.3507 26.9843 19.2733 26.9495 19.2011 26.9055C19.1358 26.866 19.0759 26.8185 19.0226 26.764C18.9787 26.7206 18.9439 26.6689 18.9201 26.612L19.0246 26.2675C19.1041 26.392 19.2056 26.4925 19.3291 26.5685C19.4526 26.645 19.5831 26.6835 19.7201 26.6835C19.8431 26.6835 19.9336 26.6555 19.9921 26.5995C20.0215 26.571 20.0445 26.5367 20.0598 26.4987C20.075 26.4607 20.0821 26.4199 20.0806 26.379C20.0799 26.3098 20.0585 26.2424 20.0191 26.1855C19.9777 26.1228 19.9265 26.0671 19.8676 26.0205C19.7432 25.916 19.6183 25.812 19.4931 25.7085C19.4103 25.642 19.3319 25.5702 19.2586 25.4935C19.1869 25.4199 19.1247 25.3376 19.0736 25.2485C19.0285 25.1666 19.0054 25.0745 19.0066 24.981C19.0066 24.8905 19.0226 24.8085 19.0551 24.736C19.0864 24.6645 19.1332 24.6008 19.1921 24.5495C19.2511 24.4975 19.3216 24.4585 19.4031 24.431C19.5118 24.3956 19.6267 24.3831 19.7405 24.3942C19.8544 24.4053 19.9647 24.4398 20.0646 24.4955C20.1211 24.528 20.1716 24.5655 20.2156 24.609C20.2606 24.6515 20.2956 24.6975 20.3221 24.745L20.2466 25.082C20.1736 24.9907 20.0851 24.913 19.9851 24.8525C19.8877 24.79 19.7747 24.7564 19.6591 24.7555C19.5836 24.7531 19.5089 24.7723 19.4441 24.811C19.3856 24.8485 19.3561 24.9085 19.3561 24.992C19.3573 25.0574 19.3816 25.1202 19.4246 25.1695C19.4701 25.2255 19.5161 25.272 19.5616 25.3075C19.6506 25.379 19.7246 25.4375 19.7831 25.483C19.8421 25.528 19.8906 25.5665 19.9276 25.598L20.0191 25.673C20.0431 25.6925 20.0651 25.7115 20.0841 25.7305C20.1371 25.778 20.1841 25.8255 20.2266 25.872ZM21.8686 24.68V25.748H23.2711V24.68H23.6096V27.253H23.2711V26.1095H21.8686V27.253H21.5301V24.68H21.8686ZM25.6391 24.8275C25.5254 24.8737 25.4222 24.9424 25.3359 25.0295C25.2495 25.1167 25.1817 25.2204 25.1366 25.3345C25.0863 25.4578 25.0611 25.5899 25.0626 25.723C25.0626 25.864 25.0871 25.9935 25.1361 26.112C25.2281 26.3415 25.4096 26.5225 25.6391 26.6135C25.7546 26.66 25.8791 26.6835 26.0141 26.6835C26.1461 26.6835 26.2701 26.66 26.3851 26.6135C26.5001 26.5675 26.6001 26.501 26.6841 26.4165C26.7698 26.3289 26.8378 26.2255 26.8841 26.112C26.9349 25.9875 26.96 25.854 26.9581 25.7195C26.9596 25.5864 26.9347 25.4543 26.8846 25.331C26.8397 25.2176 26.7724 25.1145 26.6865 25.028C26.6006 24.9414 26.4981 24.8732 26.3851 24.8275C26.2674 24.7792 26.1413 24.7547 26.0141 24.7555C25.8855 24.7544 25.758 24.7789 25.6391 24.8275ZM26.5041 24.4905C26.6601 24.557 26.7971 24.6505 26.9151 24.77C27.1635 25.0234 27.302 25.3646 27.3006 25.7195C27.3026 25.901 27.2671 26.081 27.1961 26.248C27.1295 26.4046 27.0342 26.5474 26.9151 26.669C26.7982 26.788 26.6593 26.8831 26.5061 26.949C26.3518 27.0155 26.1855 27.0495 26.0176 27.049C25.846 27.0498 25.6761 27.0151 25.5186 26.947C25.205 26.8134 24.9559 26.5626 24.8246 26.248C24.754 26.0821 24.7184 25.9033 24.7201 25.723C24.7185 25.5468 24.7518 25.372 24.818 25.2087C24.8843 25.0454 24.9822 24.8968 25.1061 24.7715C25.2236 24.6535 25.3631 24.5585 25.5161 24.492C25.6721 24.424 25.8411 24.3895 26.0111 24.39C26.1836 24.39 26.3481 24.4235 26.5046 24.49L26.5041 24.4905ZM28.8291 25.8805H29.2691C29.3235 25.8819 29.3777 25.8723 29.4284 25.8523C29.4791 25.8323 29.5252 25.8022 29.5641 25.764C29.6037 25.7245 29.6347 25.6773 29.6552 25.6252C29.6757 25.5731 29.6852 25.5174 29.6831 25.4615C29.6834 25.4057 29.673 25.3504 29.6526 25.2985C29.6331 25.2484 29.6037 25.2027 29.5661 25.1642C29.5286 25.1258 29.4837 25.0952 29.4341 25.0745C29.3818 25.0526 29.3257 25.0415 29.2691 25.042H28.8291V25.8805ZM29.5336 24.7355C29.6293 24.7704 29.7169 24.8247 29.7907 24.895C29.8645 24.9652 29.923 25.05 29.9626 25.144C30.0046 25.2405 30.0256 25.3475 30.0256 25.464C30.0256 25.579 30.0056 25.684 29.9661 25.78C29.9261 25.8755 29.8706 25.957 29.7981 26.025C29.7236 26.095 29.6361 26.149 29.5406 26.185C29.4363 26.2239 29.3258 26.2432 29.2146 26.242H28.8286V27.253H28.4901V24.68H29.2111C29.3261 24.68 29.4336 24.6985 29.5336 24.735V24.7355Z" fill="white"/>
<path d="M10.3146 24.68V25.042H9.39856V25.748H10.2421V26.1095H9.39856V27.253H9.06006V24.68H10.3146ZM13.4166 24.68V26.225C13.4166 26.38 13.3926 26.523 13.3441 26.655C13.2991 26.78 13.2306 26.896 13.1406 26.995C13.0513 27.0916 12.9419 27.1674 12.8201 27.217C12.6855 27.2712 12.5416 27.2981 12.3966 27.296C12.2545 27.2979 12.1135 27.2717 11.9816 27.219C11.8607 27.1702 11.7516 27.0963 11.6616 27.002C11.5704 26.9051 11.5 26.7906 11.4546 26.6655C11.4035 26.5252 11.3783 26.3768 11.3801 26.2275V24.68H11.7191V26.2315C11.7191 26.339 11.7351 26.436 11.7676 26.522C11.8276 26.6885 11.9571 26.82 12.1226 26.882C12.2066 26.914 12.2991 26.9305 12.4001 26.9305C12.4961 26.932 12.5916 26.915 12.6816 26.8805C12.763 26.8489 12.8364 26.7998 12.8968 26.7366C12.9571 26.6735 13.0027 26.5978 13.0306 26.515C13.0621 26.4285 13.0776 26.3335 13.0776 26.228V24.68H13.4166ZM14.9376 24.68L16.3181 26.7015V24.68H16.6571V27.253H16.2891L14.9086 25.2425V27.253H14.5701V24.68H14.9376ZM20.2266 25.872C20.2686 25.918 20.3046 25.967 20.3346 26.0185C20.3981 26.1239 20.431 26.245 20.4296 26.368C20.4301 26.468 20.4121 26.56 20.3761 26.644C20.3414 26.7256 20.2897 26.7989 20.2246 26.859C20.157 26.9205 20.078 26.9681 19.9921 26.999C19.8957 27.0335 19.7939 27.0504 19.6916 27.049C19.6036 27.049 19.5161 27.036 19.4316 27.009C19.3507 26.9843 19.2733 26.9495 19.2011 26.9055C19.1358 26.8661 19.0759 26.8185 19.0226 26.764C18.9787 26.7206 18.9439 26.6689 18.9201 26.612L19.0246 26.2675C19.1041 26.392 19.2056 26.4925 19.3291 26.5685C19.4526 26.645 19.5831 26.6835 19.7201 26.6835C19.8431 26.6835 19.9336 26.6555 19.9921 26.5995C20.0215 26.571 20.0445 26.5367 20.0598 26.4987C20.075 26.4607 20.0821 26.4199 20.0806 26.379C20.0799 26.3098 20.0585 26.2424 20.0191 26.1855C19.9777 26.1228 19.9265 26.0671 19.8676 26.0205C19.7432 25.916 19.6183 25.812 19.4931 25.7085C19.4103 25.6421 19.3319 25.5702 19.2586 25.4935C19.1869 25.4199 19.1247 25.3376 19.0736 25.2485C19.0285 25.1666 19.0054 25.0745 19.0066 24.981C19.0066 24.8905 19.0226 24.8085 19.0551 24.736C19.0864 24.6645 19.1332 24.6008 19.1921 24.5495C19.2511 24.4975 19.3216 24.4585 19.4031 24.431C19.5118 24.3956 19.6267 24.3831 19.7405 24.3942C19.8544 24.4053 19.9647 24.4398 20.0646 24.4955C20.1211 24.528 20.1716 24.5655 20.2156 24.609C20.2606 24.6515 20.2956 24.6975 20.3221 24.745L20.2466 25.082C20.1736 24.9907 20.0851 24.913 19.9851 24.8525C19.8877 24.7901 19.7747 24.7564 19.6591 24.7555C19.5836 24.7531 19.5089 24.7723 19.4441 24.811C19.3856 24.8485 19.3561 24.9085 19.3561 24.992C19.3573 25.0574 19.3816 25.1202 19.4246 25.1695C19.4701 25.2255 19.5161 25.272 19.5616 25.3075C19.6506 25.379 19.7246 25.4375 19.7831 25.483C19.8421 25.528 19.8906 25.5665 19.9276 25.598L20.0191 25.673C20.0431 25.6925 20.0651 25.7115 20.0841 25.7305C20.1371 25.778 20.1841 25.8255 20.2266 25.872ZM21.8686 24.68V25.748H23.2711V24.68H23.6096V27.253H23.2711V26.1095H21.8686V27.253H21.5301V24.68H21.8686ZM25.6391 24.8275C25.5254 24.8737 25.4222 24.9424 25.3359 25.0295C25.2495 25.1167 25.1817 25.2204 25.1366 25.3345C25.0863 25.4578 25.0611 25.5899 25.0626 25.723C25.0626 25.864 25.0871 25.9935 25.1361 26.112C25.2281 26.3415 25.4096 26.5225 25.6391 26.6135C25.7546 26.66 25.8791 26.6835 26.0141 26.6835C26.1461 26.6835 26.2701 26.66 26.3851 26.6135C26.5001 26.5675 26.6001 26.501 26.6841 26.4165C26.7698 26.329 26.8378 26.2255 26.8841 26.112C26.9349 25.9875 26.96 25.854 26.9581 25.7195C26.9596 25.5864 26.9347 25.4543 26.8846 25.331C26.8397 25.2176 26.7724 25.1145 26.6865 25.028C26.6006 24.9414 26.4981 24.8732 26.3851 24.8275C26.2674 24.7792 26.1413 24.7547 26.0141 24.7555C25.8855 24.7544 25.758 24.7789 25.6391 24.8275ZM26.5041 24.4905C26.6601 24.557 26.7971 24.6505 26.9151 24.77C27.1635 25.0235 27.302 25.3646 27.3006 25.7195C27.3026 25.901 27.2671 26.081 27.1961 26.248C27.1295 26.4047 27.0342 26.5475 26.9151 26.669C26.7982 26.7881 26.6593 26.8832 26.5061 26.949C26.3518 27.0155 26.1855 27.0495 26.0176 27.049C25.846 27.0498 25.6761 27.0151 25.5186 26.947C25.2049 26.8134 24.9559 26.5626 24.8246 26.248C24.754 26.0821 24.7184 25.9033 24.7201 25.723C24.7185 25.5468 24.7518 25.372 24.818 25.2087C24.8843 25.0454 24.9822 24.8968 25.1061 24.7715C25.2236 24.6535 25.3631 24.5585 25.5161 24.492C25.6721 24.424 25.8411 24.3895 26.0111 24.39C26.1836 24.39 26.3481 24.4235 26.5046 24.49L26.5041 24.4905ZM28.8291 25.8805H29.2691C29.3235 25.8819 29.3777 25.8723 29.4284 25.8523C29.4791 25.8323 29.5252 25.8023 29.5641 25.764C29.6037 25.7245 29.6347 25.6773 29.6552 25.6252C29.6757 25.5732 29.6852 25.5174 29.6831 25.4615C29.6834 25.4057 29.673 25.3504 29.6526 25.2985C29.6331 25.2484 29.6037 25.2028 29.5661 25.1643C29.5286 25.1258 29.4837 25.0953 29.4341 25.0745C29.3818 25.0526 29.3257 25.0415 29.2691 25.042H28.8291V25.8805ZM29.5336 24.7355C29.6293 24.7704 29.7169 24.8247 29.7907 24.895C29.8645 24.9653 29.923 25.0501 29.9626 25.144C30.0046 25.2405 30.0256 25.3475 30.0256 25.464C30.0256 25.579 30.0056 25.684 29.9661 25.78C29.9261 25.8755 29.8706 25.957 29.7981 26.025C29.7236 26.095 29.6361 26.149 29.5406 26.185C29.4363 26.2239 29.3258 26.2432 29.2146 26.242H28.8286V27.253H28.4901V24.68H29.2111C29.3261 24.68 29.4336 24.6985 29.5336 24.735V24.7355Z" fill="white"/>
</g>
<defs>
<clipPath id="clip0_25_3008">
<rect width="40" height="40" fill="white"/>
</clipPath>
</defs>
</svg>
