<svg width="40" height="40" viewBox="0 0 40 40" fill="none" xmlns="http://www.w3.org/2000/svg">
<g clip-path="url(#clip0_25_1639)">
<path d="M20 40C31.0457 40 40 31.0457 40 20C40 8.9543 31.0457 0 20 0C8.9543 0 0 8.9543 0 20C0 31.0457 8.9543 40 20 40Z" fill="#005AAB"/>
<path d="M29.453 12.5L22.019 21L5.5 12.571L21.1155 15.892L29.453 12.5Z" fill="#CC2229"/>
<path d="M6.76051 29L15.525 19.214L35 28.9185L16.59 25.096L6.76001 29H6.76051ZM20.4825 9.50849C19.0445 9.62349 17.966 10.872 18.0825 12.2885C18.199 13.705 19.4675 14.767 20.9055 14.652C22.3445 14.5375 23.4225 13.2885 23.3055 11.872C23.1895 10.456 21.921 9.39399 20.4825 9.50849Z" fill="white"/>
</g>
<defs>
<clipPath id="clip0_25_1639">
<rect width="40" height="40" fill="white"/>
</clipPath>
</defs>
</svg>
