<svg width="40" height="40" viewBox="0 0 40 40" fill="none" xmlns="http://www.w3.org/2000/svg">
<g clip-path="url(#clip0_25_2849)">
<path d="M20 40C31.0457 40 40 31.0457 40 20C40 8.9543 31.0457 0 20 0C8.9543 0 0 8.9543 0 20C0 31.0457 8.9543 40 20 40Z" fill="#FFC627"/>
<path d="M19.6759 8.1485C14.2874 8.1485 9.90491 12.534 9.90491 17.9225C9.90491 21.5325 11.8864 24.6725 14.8069 26.364V21.8925C12.7169 20.2 11.9719 17.8085 11.9589 17.7705C11.9038 17.5677 11.9301 17.3515 12.0321 17.1678C12.1342 16.9841 12.3039 16.8476 12.5051 16.7872C12.7064 16.7268 12.9233 16.7474 13.1095 16.8446C13.2958 16.9418 13.4368 17.1079 13.5024 17.3075C13.5629 17.505 14.9714 21.932 19.5699 21.932H19.6664C24.5764 21.8675 25.7414 17.5275 25.7894 17.344C25.8423 17.1374 25.9749 16.9601 26.1582 16.8509C26.3415 16.7418 26.5605 16.7096 26.7674 16.7615C26.9741 16.8131 27.1519 16.9447 27.2616 17.1274C27.3713 17.31 27.404 17.5288 27.3524 17.7355C27.3424 17.7735 26.6939 20.236 24.4954 21.9425V26.3825C27.4414 24.6975 29.4479 21.5525 29.4479 17.9235C29.4469 12.534 25.0644 8.1485 19.6759 8.1485ZM17.4309 16.9785C17.2636 16.9788 17.0979 16.9461 16.9433 16.8823C16.7887 16.8185 16.6482 16.7248 16.5299 16.6066C16.4115 16.4884 16.3176 16.348 16.2536 16.1935C16.1896 16.0389 16.1568 15.8733 16.1569 15.706C16.1569 15.4543 16.2315 15.2082 16.3714 14.9989C16.5112 14.7895 16.71 14.6264 16.9425 14.53C17.1751 14.4336 17.431 14.4083 17.6779 14.4574C17.9248 14.5064 18.1516 14.6276 18.3297 14.8055C18.5078 14.9834 18.6291 15.2102 18.6783 15.457C18.7276 15.7039 18.7025 15.9598 18.6063 16.1925C18.5101 16.4251 18.3471 16.624 18.1379 16.764C17.9287 16.904 17.6826 16.9788 17.4309 16.979V16.9785ZM22.3054 16.9675C22.1383 16.9674 21.9728 16.9344 21.8185 16.8703C21.6642 16.8063 21.5239 16.7125 21.4058 16.5943C21.2877 16.476 21.1941 16.3357 21.1302 16.1813C21.0664 16.0268 21.0336 15.8614 21.0337 15.6942C21.0338 15.5271 21.0668 15.3617 21.1308 15.2073C21.1948 15.053 21.2887 14.9128 21.4069 14.7947C21.5251 14.6766 21.6655 14.5829 21.8199 14.5191C21.9743 14.4552 22.1398 14.4224 22.3069 14.4225C22.6444 14.4227 22.968 14.557 23.2065 14.7957C23.445 15.0345 23.5789 15.3583 23.5787 15.6957C23.5785 16.0332 23.4442 16.3568 23.2054 16.5953C22.9666 16.8338 22.6429 16.9677 22.3054 16.9675Z" fill="#FFC627"/>
<path d="M15.739 22.5334V32.1144C15.87 31.9346 16.0414 31.788 16.2394 31.6864C16.4374 31.5849 16.6565 31.5313 16.879 31.5299C17.1315 31.5311 17.3791 31.5995 17.5964 31.7281C17.8137 31.8568 17.9927 32.0411 18.115 32.2619H18.3885C18.5111 32.0412 18.6902 31.857 18.9075 31.7283C19.1249 31.5997 19.3725 31.5312 19.625 31.5299C20.142 31.5299 20.61 31.8179 20.861 32.2619H21.1345C21.2565 32.0412 21.4352 31.857 21.6521 31.7284C21.869 31.5997 22.1163 31.5312 22.3685 31.5299C22.8575 31.5299 23.3035 31.7859 23.562 32.1889V22.5624C22.541 23.1314 21.2715 23.5214 19.686 23.5434H19.569C18.0165 23.5424 16.76 23.1314 15.739 22.5334Z" fill="white"/>
<path d="M17.431 14.4314C17.2635 14.4311 17.0977 14.4639 16.9429 14.5278C16.7882 14.5917 16.6476 14.6856 16.5292 14.804C16.4108 14.9225 16.317 15.0631 16.2531 15.2179C16.1893 15.3726 16.1566 15.5385 16.157 15.7059C16.1573 15.9576 16.2322 16.2036 16.3722 16.4127C16.5122 16.6218 16.7111 16.7847 16.9436 16.8809C17.1762 16.977 17.4321 17.0021 17.6789 16.9529C17.9257 16.9037 18.1524 16.7824 18.3303 16.6044C18.5082 16.4264 18.6294 16.1997 18.6785 15.9529C18.7276 15.706 18.7025 15.4502 18.6062 15.2176C18.51 14.9851 18.347 14.7863 18.1378 14.6464C17.9286 14.5064 17.6827 14.4316 17.431 14.4314ZM22.3055 14.4214C22.1384 14.4215 21.9729 14.4546 21.8186 14.5186C21.6642 14.5826 21.524 14.6765 21.4059 14.7947C21.2878 14.9129 21.1942 15.0533 21.1303 15.2077C21.0665 15.3621 21.0336 15.5276 21.0337 15.6947C21.0338 15.8618 21.0668 16.0273 21.1309 16.1816C21.1949 16.336 21.2887 16.4762 21.407 16.5943C21.5252 16.7124 21.6655 16.806 21.82 16.8699C21.9744 16.9337 22.1399 16.9665 22.307 16.9664C22.6445 16.9662 22.9681 16.832 23.2066 16.5932C23.4451 16.3544 23.5789 16.0307 23.5787 15.6932C23.5785 15.3557 23.4443 15.0321 23.2055 14.7936C22.9667 14.5551 22.643 14.4212 22.3055 14.4214Z" fill="#111820"/>
<path d="M19.676 6.53749C13.401 6.53749 8.29346 11.645 8.29346 17.9225C8.29346 22.4545 10.9635 26.361 14.807 28.191V33.1965H16.1495V33.1955C16.1495 32.8585 16.3845 32.587 16.694 32.504C16.7526 32.478 16.816 32.4645 16.8802 32.4645C16.9444 32.4645 17.0078 32.478 17.0665 32.504C17.3755 32.587 17.6085 32.8585 17.6085 33.1955V33.1965H18.8955V33.1955C18.8955 32.8585 19.1285 32.587 19.44 32.504C19.4983 32.4783 19.5613 32.4651 19.625 32.4651C19.6887 32.4651 19.7517 32.4783 19.81 32.504C20.122 32.587 20.3545 32.8585 20.3545 33.1955V33.1965H21.621V33.1955C21.621 32.8485 21.8695 32.5735 22.191 32.4985C22.211 32.4895 22.2395 32.4895 22.2625 32.4835C22.2925 32.481 22.3205 32.466 22.351 32.466C22.3535 32.466 22.3535 32.467 22.3535 32.467C22.3585 32.467 22.364 32.464 22.3685 32.464C22.4351 32.4645 22.5008 32.4797 22.561 32.5085C22.8605 32.6 23.0805 32.867 23.0805 33.195V33.196H24.494V28.218C28.368 26.399 31.058 22.474 31.058 17.922C31.0585 11.645 25.951 6.53699 19.676 6.53699V6.53749ZM23.5625 32.1895C23.4346 31.9885 23.2584 31.8228 23.0498 31.7076C22.8413 31.5925 22.6072 31.5316 22.369 31.5305C22.1168 31.5318 21.8695 31.6004 21.6526 31.729C21.4357 31.8577 21.257 32.0418 21.135 32.2625H20.862C20.7391 32.0419 20.5599 31.858 20.3426 31.7294C20.1254 31.6008 19.8779 31.5321 19.6255 31.5305C19.373 31.5319 19.1255 31.6004 18.9083 31.729C18.6911 31.8577 18.512 32.0418 18.3895 32.2625H18.116C17.9937 32.0415 17.8146 31.8571 17.5972 31.7284C17.3798 31.5997 17.1321 31.5314 16.8795 31.5305C16.4235 31.5305 16.003 31.7555 15.7395 32.115V22.5335C16.7605 23.1315 18.017 23.5425 19.5705 23.5425H19.687C21.273 23.5215 22.542 23.131 23.563 22.5625V32.1895H23.5625ZM24.494 26.382V21.9385V21.9395C26.688 20.233 27.342 17.7735 27.3515 17.7355C27.3771 17.6331 27.3822 17.5267 27.3667 17.4223C27.3511 17.318 27.3152 17.2177 27.2608 17.1272C27.2065 17.0368 27.1349 16.9579 27.05 16.8952C26.9652 16.8324 26.8688 16.787 26.7665 16.7615C26.5595 16.7096 26.3405 16.7418 26.1573 16.8509C25.974 16.9601 25.8414 17.1374 25.7885 17.344C25.74 17.528 24.575 21.8675 19.665 21.932H19.5685C14.9705 21.932 13.562 17.505 13.501 17.307C13.4395 17.1024 13.2993 16.9306 13.1111 16.8293C12.923 16.7281 12.7023 16.7058 12.4977 16.7672C12.2931 16.8287 12.1213 16.9689 12.0201 17.1571C11.9188 17.3452 11.8965 17.5659 11.958 17.7705C11.968 17.8085 12.718 20.1945 14.8055 21.886V26.364C11.8845 24.6725 9.90396 21.5325 9.90396 17.9225C9.90396 12.534 14.2865 8.14849 19.675 8.14849C25.0635 8.14849 29.446 12.534 29.446 17.9225C29.447 21.5515 27.441 24.697 24.494 26.382Z" fill="#111820"/>
</g>
<defs>
<clipPath id="clip0_25_2849">
<rect width="40" height="40" fill="white"/>
</clipPath>
</defs>
</svg>
