<svg width="40" height="40" viewBox="0 0 40 40" fill="none" xmlns="http://www.w3.org/2000/svg">
<g clip-path="url(#clip0_25_3139)">
<path d="M20 40C31.0457 40 40 31.0457 40 20C40 8.9543 31.0457 0 20 0C8.9543 0 0 8.9543 0 20C0 31.0457 8.9543 40 20 40Z" fill="#FEF339"/>
<mask id="mask0_25_3139" style="mask-type:alpha" maskUnits="userSpaceOnUse" x="0" y="0" width="40" height="40">
<path d="M20 40C31.0457 40 40 31.0457 40 20C40 8.9543 31.0457 0 20 0C8.9543 0 0 8.9543 0 20C0 31.0457 8.9543 40 20 40Z" fill="#FEF339"/>
</mask>
<g mask="url(#mask0_25_3139)">
<path fill-rule="evenodd" clip-rule="evenodd" d="M0.969805 35.15C1.12322 35.4494 1.2935 35.7399 1.4798 36.02L8.4398 33.44L6.3898 39.58C7.8398 39.93 9.7198 39.99 12.4998 40L15.3098 31.25L21.5598 29.06L20.3098 40H26.2498L27.4998 27.2L39.9998 22.82V16.57L28.1198 20.62L30.6198 0.06C29.3098 0 27.7398 0 25.7798 0H19.0598L10.6198 26.56L0.0498047 30.3C0.129805 32.48 0.349805 33.93 0.969805 35.15ZM17.5 24.3799L22.19 22.8099L22.2 22.7999L24.06 4.37988L17.5 24.3799Z" fill="black"/>
</g>
</g>
<defs>
<clipPath id="clip0_25_3139">
<rect width="40" height="40" fill="white"/>
</clipPath>
</defs>
</svg>
