<svg width="40" height="40" viewBox="0 0 40 40" fill="none" xmlns="http://www.w3.org/2000/svg">
<g clip-path="url(#clip0_440_398)">
<path d="M20 40C31.0457 40 40 31.0457 40 20C40 8.9543 31.0457 0 20 0C8.9543 0 0 8.9543 0 20C0 31.0457 8.9543 40 20 40Z" fill="#005BFF"/>
<path d="M9 36.706C12.1558 38.7881 15.9364 40 20 40C28.5831 40 35.9033 34.5933 38.7408 27L24 10L9 17V36.706Z" fill="#F91155"/>
<path fill-rule="evenodd" clip-rule="evenodd" d="M22.8924 31.2943C31.4279 29.0072 37.0656 22.37 35.4846 16.4697C33.9036 10.5694 25.7026 7.6403 17.1672 9.92737C8.63173 12.2144 2.99401 18.8516 4.57499 24.7519C6.15597 30.6522 14.357 33.5813 22.8924 31.2943ZM21.4532 26.7829C27.2024 25.2424 31.1343 21.2739 30.2354 17.9191C29.3364 14.5642 23.9471 13.0934 18.1978 14.6339C12.4486 16.1744 8.51672 20.1428 9.41565 23.4977C10.3146 26.8526 15.704 28.3234 21.4532 26.7829Z" fill="white"/>
</g>
<defs>
<clipPath id="clip0_440_398">
<rect width="40" height="40" fill="white"/>
</clipPath>
</defs>
</svg>
