<svg width="40" height="40" viewBox="0 0 40 40" fill="none" xmlns="http://www.w3.org/2000/svg">
<g clip-path="url(#clip0_440_399)">
<path d="M20 40C31.0457 40 40 31.0457 40 20C40 8.9543 31.0457 0 20 0C8.9543 0 0 8.9543 0 20C0 31.0457 8.9543 40 20 40Z" fill="#27979D"/>
<path d="M28 30.4477L26 30.5L24.5 28.2845C22.8636 30.0948 20.6515 31 17.8636 31C15.7424 31 14.0606 30.417 12.8182 29.251C11.6061 28.0544 11 26.4435 11 24.4184C11 22.1172 11.9242 20.3529 13.7727 19.1255C15.6515 17.8675 18.303 17.2385 21.7273 17.2385H24.1364V17.0084C24.1364 13.8173 22.5455 12.2218 19.3636 12.2218C17.3333 12.2218 15.4394 12.8815 13.6818 14.2008L12.5 12.0837C14.8636 10.0279 17.5758 9 20.6364 9C25.5455 9 28 11.9609 28 17.8828V30.4477ZM24.0909 19.908H22.0909C17.4242 19.908 15.0909 21.3194 15.0909 24.1423C15.0909 25.3082 15.4242 26.2287 16.0909 26.9038C16.7879 27.5788 17.7121 27.9163 18.8636 27.9163C20.0152 27.9163 21.0909 27.6248 22.0909 27.0418C23.0909 26.4282 23.7576 25.6611 24.0909 24.7406V19.908Z" fill="white"/>
</g>
<defs>
<clipPath id="clip0_440_399">
<rect width="40" height="40" fill="white"/>
</clipPath>
</defs>
</svg>
