<svg width="40" height="40" viewBox="0 0 40 40" fill="none" xmlns="http://www.w3.org/2000/svg">
<g clip-path="url(#clip0_25_206)">
<path d="M20 40C31.0457 40 40 31.0457 40 20C40 8.9543 31.0457 0 20 0C8.9543 0 0 8.9543 0 20C0 31.0457 8.9543 40 20 40Z" fill="#E43225"/>
<path d="M11.464 22.4015V17.2315H14.52V17.8795H12.097V19.469H14.273V20.1175H12.097V21.738H14.69V22.3865H11.464V22.4015ZM17.9 22.4015L16.8505 21.028L15.801 22.4015H15.0605L16.4955 20.565L14.983 18.6665H15.8165L16.8505 20.0865L17.9 18.6665H18.718L17.283 20.565L18.641 22.4015H17.9ZM19.66 21.846V24.3925H19.027V20.5805C19.027 19.608 19.7675 18.574 20.925 18.574C22.098 18.574 22.978 19.315 22.978 20.534C22.978 21.7225 22.083 22.5405 21.064 22.5405C20.57 22.5405 19.9065 22.3245 19.6595 21.846H19.66ZM22.3145 20.534C22.3145 19.7005 21.7745 19.207 20.817 19.253C20.354 19.2685 19.644 19.608 19.706 20.7965C19.721 21.1825 20.1225 21.908 21.0025 21.908C21.7585 21.908 22.3145 21.4755 22.3145 20.534ZM23.518 22.4015V18.6665H24.151V19.068C24.4595 18.713 24.938 18.5895 25.4475 18.5895V19.2685C25.37 19.2535 24.614 19.1605 24.151 20.1485V22.417H23.518V22.402V22.4015ZM25.617 20.534C25.617 19.454 26.389 18.574 27.454 18.574C28.781 18.574 29.275 19.454 29.275 20.5805V20.889H26.3115C26.358 21.599 26.991 21.9695 27.5775 21.954C28.0095 21.939 28.3025 21.815 28.6115 21.5065L29.028 21.9385C28.642 22.309 28.148 22.556 27.5465 22.556C26.4195 22.541 25.617 21.707 25.617 20.534ZM27.4075 19.207C26.8055 19.207 26.3425 19.732 26.3115 20.3025H28.6115C28.6115 19.7475 28.21 19.207 27.4075 19.207ZM29.599 21.877L30.062 21.46C30.047 21.46 30.2935 21.707 30.3245 21.7225C30.4325 21.815 30.5405 21.877 30.6795 21.9075C31.081 22.016 31.806 21.985 31.868 21.4295C31.899 21.1205 31.6675 20.951 31.405 20.843C31.065 20.7195 30.695 20.673 30.355 20.5185C29.97 20.349 29.7225 20.0555 29.7225 19.6235C29.7225 18.497 31.3275 18.3115 32.053 18.8365C32.084 18.8675 32.439 19.1915 32.4235 19.1915L31.9605 19.5615C31.729 19.284 31.513 19.145 31.019 19.145C30.772 19.145 30.4325 19.253 30.371 19.5155C30.278 19.8855 30.695 20.025 30.973 20.102C31.343 20.1945 31.7445 20.2565 32.0685 20.457C32.516 20.735 32.624 21.337 32.4545 21.8C32.2695 22.309 31.7135 22.51 31.2195 22.525C30.633 22.556 30.124 22.371 29.707 21.954C29.6765 21.954 29.599 21.877 29.599 21.877ZM32.8555 21.877L33.319 21.46C33.3035 21.46 33.5505 21.707 33.581 21.7225C33.689 21.815 33.797 21.877 33.936 21.9075C34.3375 22.016 35.063 21.985 35.1245 21.4295C35.1555 21.1205 34.924 20.951 34.6615 20.843C34.3215 20.7195 33.9515 20.673 33.612 20.5185C33.226 20.349 32.979 20.0555 32.979 19.6235C32.979 18.497 34.584 18.3115 35.3095 18.8365C35.3405 18.8675 35.6955 19.1915 35.68 19.1915L35.217 19.5615C34.9855 19.284 34.7695 19.145 34.2755 19.145C34.0285 19.145 33.689 19.253 33.6275 19.5155C33.535 19.8855 33.9515 20.025 34.2295 20.102C34.5995 20.1945 35.001 20.2565 35.325 20.457C35.773 20.735 35.881 21.337 35.711 21.8C35.526 22.309 34.97 22.51 34.476 22.525C33.89 22.556 33.3805 22.371 32.964 21.954C32.933 21.954 32.8555 21.877 32.8555 21.877ZM35.8655 18.6665V18.2655H35.7265V18.188H36.097V18.2655H35.958V18.6665H35.8655ZM36.56 18.6665V18.296L36.421 18.6665H36.39L36.2515 18.296V18.6665H36.174V18.188H36.2975L36.421 18.5125L36.5445 18.188H36.668V18.6665H36.56ZM7.1735 22.402L6.7105 21.167H4.2105L3.747 22.402H3.0835L5.09 17.232H5.815L7.806 22.402H7.1735ZM5.4295 17.9725L4.488 20.5345H6.448L5.4295 17.9725ZM8.223 22.402V17.2315H8.871V22.402H8.223ZM9.8435 22.402V18.744H10.4915V22.402H9.8435ZM11.109 17.556V17.494C10.8702 17.4857 10.6434 17.3871 10.4744 17.2181C10.3054 17.0491 10.2068 16.8223 10.1985 16.5835H10.106C10.0977 16.8224 9.99898 17.0493 9.8299 17.2182C9.66081 17.3872 9.43391 17.4858 9.195 17.494V17.556C9.689 17.571 10.09 17.9725 10.106 18.466H10.1985C10.2135 17.9725 10.615 17.571 11.109 17.556Z" fill="white"/>
</g>
<defs>
<clipPath id="clip0_25_206">
<rect width="40" height="40" fill="white"/>
</clipPath>
</defs>
</svg>
