<svg width="40" height="40" viewBox="0 0 40 40" fill="none" xmlns="http://www.w3.org/2000/svg">
<g clip-path="url(#clip0_25_446)">
<path d="M20 40C31.0457 40 40 31.0457 40 20C40 8.9543 31.0457 0 20 0C8.9543 0 0 8.9543 0 20C0 31.0457 8.9543 40 20 40Z" fill="#E60000"/>
<path fill-rule="evenodd" clip-rule="evenodd" d="M8.97897 17.4295V17.2245C8.97897 16.34 8.98547 15.4555 8.97697 14.571C8.96897 13.7615 8.33347 13.1495 7.52797 13.157C6.75997 13.1645 6.13797 13.7975 6.13797 14.5825C6.13647 18.233 6.13647 21.8835 6.13797 25.5345C6.13897 26.4545 6.93897 27.1185 7.83197 26.949C8.50197 26.8215 8.97697 26.236 8.97847 25.524C8.98097 23.7655 8.97897 22.007 8.97947 20.249C8.97947 20.1815 8.98497 20.114 8.98797 20.0455C9.43397 20.0455 9.86497 20.022 10.292 20.053C10.6225 20.077 10.857 20.3875 10.859 20.7255C10.862 21.1275 10.86 21.5295 10.86 21.9315C10.86 23.132 10.8565 24.333 10.8615 25.5335C10.864 26.2255 11.3315 26.8095 11.9715 26.941C12.8905 27.1295 13.699 26.471 13.705 25.5235C13.71 24.7035 13.706 23.8835 13.706 23.0635V14.652C13.7065 14.2485 13.591 13.892 13.3115 13.597C12.9135 13.178 12.31 13.0395 11.7865 13.243C11.23 13.459 10.8665 13.967 10.8625 14.5655C10.8555 15.4555 10.86 16.345 10.86 17.235V17.429H8.97897V17.4295ZM21.4635 21.832C21.4635 22.427 21.488 23.023 21.4585 23.617C21.3835 25.149 20.297 26.4695 18.8205 26.8585C16.912 27.362 14.9555 26.2085 14.468 24.282C14.3975 24.0015 14.3604 23.7137 14.3575 23.4245C14.3475 22.3045 14.338 21.1835 14.3645 20.064C14.403 18.4395 15.6845 16.989 17.2795 16.724C19.14 16.4155 20.8455 17.4955 21.3465 19.32C21.4305 19.6255 21.4555 19.953 21.4675 20.2725C21.4865 20.7915 21.4725 21.312 21.4725 21.832H21.4635ZM18.637 21.811V20.01C18.637 19.76 18.5545 19.546 18.3535 19.3925C18.121 19.2145 17.8635 19.1865 17.602 19.312C17.312 19.451 17.191 19.7035 17.1905 20.018C17.189 21.213 17.184 22.4085 17.197 23.604C17.1985 23.77 17.261 23.956 17.351 24.096C17.521 24.36 17.851 24.4445 18.1445 24.346C18.4345 24.248 18.634 23.97 18.636 23.6445C18.6395 23.0335 18.637 22.4225 18.637 21.811ZM24.997 20.047C25.051 20.0395 25.087 20.0305 25.1225 20.03C25.4365 20.028 25.7505 20.039 26.0635 20.024C26.534 20.0015 26.937 19.8245 27.194 19.408C27.3006 19.2385 27.365 19.0459 27.3819 18.8463C27.3988 18.6467 27.3677 18.4461 27.2911 18.261C27.2146 18.0759 27.0948 17.9119 26.9418 17.7827C26.7889 17.6534 26.6072 17.5626 26.412 17.518C26.092 17.4415 25.7485 17.453 25.4155 17.445C24.9775 17.4345 24.9775 17.443 25.0005 16.9955C25.0255 16.488 25.3005 16.224 25.8005 16.218C26.119 16.2145 26.4405 16.2265 26.7555 16.192C27.4035 16.1205 27.882 15.6145 27.9035 15.013C27.9285 14.3205 27.5315 13.7945 26.8525 13.672C26.2945 13.5715 25.726 13.582 25.1695 13.676C23.7845 13.909 22.8385 14.699 22.345 16.028C22.1535 16.5445 22.1515 17.0865 22.1525 17.63C22.156 20.262 22.152 22.8935 22.156 25.525C22.1575 26.3515 22.785 26.975 23.5915 26.972C24.384 26.969 24.995 26.337 24.9955 25.5145C24.997 23.7565 24.9965 21.9985 24.997 20.2405V20.047ZM27.98 19.4695H27.9715V21.817C27.9715 21.919 27.9755 22.021 27.9845 22.122C28.0118 22.4056 28.1232 22.6746 28.3045 22.8944C28.4858 23.1142 28.7287 23.2747 29.002 23.3555C29.922 23.6165 30.8035 22.944 30.8185 21.9625C30.827 21.3945 30.8205 20.8265 30.8205 20.258C30.8205 20.029 30.8205 20.034 31.0455 20.028C31.4165 20.0185 31.796 20.049 32.1565 19.981C33.1205 19.798 33.522 18.716 32.925 17.955C32.633 17.582 32.22 17.456 31.767 17.445C31.4958 17.4394 31.2246 17.4389 30.9535 17.4435C30.8595 17.4445 30.8165 17.4115 30.82 17.3135C30.8245 17.2015 30.817 17.0885 30.8225 16.976C30.847 16.4845 31.1205 16.2245 31.6065 16.218C31.941 16.214 32.2785 16.2265 32.609 16.1865C33.258 16.1075 33.7065 15.5955 33.7215 14.96C33.7365 14.304 33.325 13.77 32.6645 13.6765C32.2365 13.6165 31.7955 13.6225 31.3615 13.638C29.5275 13.703 28.062 15.1585 27.9855 17.0095C27.952 17.828 27.98 18.6495 27.98 19.4695ZM29.386 27.0095C30.2395 27.0195 30.952 26.3235 30.964 25.4675C30.976 24.5875 30.2905 23.8685 29.423 23.8515C28.56 23.835 27.8405 24.54 27.829 25.414C27.8255 25.6212 27.8632 25.827 27.9397 26.0196C28.0163 26.2122 28.1302 26.3877 28.275 26.536C28.4198 26.6843 28.5925 26.8025 28.7832 26.8837C28.9739 26.9648 29.1787 27.0074 29.386 27.009V27.0095Z" fill="white"/>
</g>
<defs>
<clipPath id="clip0_25_446">
<rect width="40" height="40" fill="white"/>
</clipPath>
</defs>
</svg>
