<svg width="40" height="41" viewBox="0 0 40 41" fill="none" xmlns="http://www.w3.org/2000/svg">
<g clip-path="url(#clip0_25_1754)">
<path d="M20.0003 40.5C31.0459 40.5 40 31.5459 40 20.5003C40 9.45413 31.0459 0.5 20.0003 0.5C8.95413 0.5 0 9.45413 0 20.5003C0 31.5459 8.95413 40.5 20.0003 40.5Z" fill="#ADE9FF"/>
<path fill-rule="evenodd" clip-rule="evenodd" d="M16 9.22C16.4341 9.22007 16.8578 9.35341 17.2136 9.602C17.5695 9.85059 17.8405 10.2024 17.99 10.61L19.14 13.71H32.8L32.94 19.78C32.9895 20.534 32.7943 21.2838 32.3835 21.918C31.9728 22.5521 31.3683 23.0368 30.66 23.3L15.66 28.24L16.96 15.39L15.61 11.73H9.77002V9.23L16 9.22Z" fill="#0044EE"/>
<path d="M14.39 29.9C15.0013 29.9 15.5876 30.1428 16.0198 30.5751C16.4521 31.0074 16.695 31.5937 16.695 32.205C16.695 32.8163 16.4521 33.4026 16.0198 33.8349C15.5876 34.2671 15.0013 34.51 14.39 34.51C13.7786 34.51 13.1924 34.2671 12.7601 33.8349C12.3278 33.4026 12.085 32.8163 12.085 32.205C12.085 31.5937 12.3278 31.0074 12.7601 30.5751C13.1924 30.1428 13.7786 29.9 14.39 29.9ZM25.61 29.9C26.2213 29.9 26.8076 30.1428 27.2398 30.5751C27.6721 31.0074 27.915 31.5937 27.915 32.205C27.915 32.8163 27.6721 33.4026 27.2398 33.8349C26.8076 34.2671 26.2213 34.51 25.61 34.51C24.9986 34.51 24.4124 34.2671 23.9801 33.8349C23.5478 33.4026 23.305 32.8163 23.305 32.205C23.305 31.5937 23.5478 31.0074 23.9801 30.5751C24.4124 30.1428 24.9986 29.9 25.61 29.9Z" fill="black"/>
<path fill-rule="evenodd" clip-rule="evenodd" d="M29.5198 19.78L29.3698 13.71H13.0998L11.9498 10.61C11.7998 10.2008 11.5272 9.84784 11.1694 9.59912C10.8115 9.35039 10.3857 9.21801 9.94983 9.21999H7.91983C7.60632 9.24801 7.31465 9.39235 7.10222 9.62461C6.88978 9.85687 6.77197 10.1602 6.77197 10.475C6.77197 10.7898 6.88978 11.0931 7.10222 11.3254C7.31465 11.5576 7.60632 11.702 7.91983 11.73H9.58983L15.6898 28.23L27.2398 23.3C27.95 23.0385 28.5566 22.5546 28.9693 21.9202C29.382 21.2859 29.5786 20.5352 29.5298 19.78H29.5198Z" fill="#0077FF"/>
</g>
<defs>
<clipPath id="clip0_25_1754">
<rect width="40" height="40" fill="white" transform="translate(0 0.5)"/>
</clipPath>
</defs>
</svg>
