<svg width="40" height="40" viewBox="0 0 40 40" fill="none" xmlns="http://www.w3.org/2000/svg">
<g clip-path="url(#clip0_441_240)">
<path d="M20 40C31.0457 40 40 31.0457 40 20C40 8.9543 31.0457 0 20 0C8.9543 0 0 8.9543 0 20C0 31.0457 8.9543 40 20 40Z" fill="#7CB996"/>
<path d="M22.5 11C26.4755 11.4417 29.5 14.5 29.5 19.5C29.5 24.5 26 29 20.019 29C14.038 29 9.53416 24 9.53416 19C9.53416 14.2167 11.3619 9.891 17.2031 7.3362C17.3122 7.28848 17.2679 7.1285 17.1513 7.15284C10.662 8.50768 6.55956 14.2951 7.03776 21C7.537 28 13.1227 33 20.019 33C27.5 33 33.0001 27.5 33 20C32.9999 12.5 27 9 22.016 9C17.6985 9 14.7666 11.2851 13.2064 15.4184C13.1664 15.5245 13.3056 15.5989 13.3755 15.5095C16.2126 11.882 18.668 10.5742 22.5 11Z" fill="white"/>
</g>
<defs>
<clipPath id="clip0_441_240">
<rect width="40" height="40" fill="white"/>
</clipPath>
</defs>
</svg>
