<svg width="40" height="41" viewBox="0 0 40 41" fill="none" xmlns="http://www.w3.org/2000/svg">
<rect y="0.5" width="40" height="40" rx="20" fill="#458500"/>
<path d="M15.1113 23.6159C15.1113 23.9764 15.0799 24.3303 14.8515 24.6326C14.5335 25.0536 14.0991 25.1611 13.6109 25.0626C13.107 24.9618 12.7532 24.5385 12.7196 23.9272C12.6902 23.3944 12.693 22.8592 12.6957 22.3243C12.6968 22.1262 12.6978 21.9282 12.6972 21.7303L12.6972 21.7234C12.6961 21.2849 12.6955 21.0672 12.5864 20.9591C12.4787 20.8524 12.2654 20.8524 11.8417 20.8524C11.6326 20.8524 11.4233 20.8535 11.2138 20.8546C10.69 20.8574 10.1657 20.8601 9.6426 20.8457C9.33356 20.8367 9.24846 20.9353 9.25518 21.2376C9.27053 21.9574 9.26615 22.6772 9.26176 23.3971C9.26103 23.517 9.2603 23.637 9.25966 23.757C9.25742 24.2743 9.0805 24.7087 8.60574 24.9618C7.91823 25.3268 7.09636 24.9618 6.91497 24.2071C6.85674 23.9675 6.84778 23.7122 6.84778 23.4636C6.84443 21.7472 6.84485 20.032 6.84527 18.3162C6.84541 17.7442 6.84555 17.172 6.84555 16.5997C6.84555 16.4385 6.85002 16.2772 6.87242 16.1182C6.96871 15.3568 7.38973 14.9806 8.10859 15.0008C8.78266 15.0209 9.23054 15.4845 9.25966 16.2235C9.27368 16.6084 9.27036 16.9943 9.26704 17.3799C9.26559 17.5484 9.26413 17.7169 9.26413 17.8852C9.26413 18.7563 9.26413 18.7563 10.1174 18.7563C10.3265 18.7563 10.5358 18.7552 10.7451 18.7541H10.7452C11.269 18.7514 11.7933 18.7486 12.3165 18.763C12.6166 18.772 12.7151 18.6869 12.7061 18.3801C12.6838 17.6836 12.6815 16.9849 12.7061 16.2884C12.733 15.489 13.1675 15.0209 13.8483 15.0008C14.6321 14.9784 15.0934 15.4442 15.1135 16.322C15.1261 16.9224 15.1233 17.5228 15.1204 18.1232C15.1192 18.3805 15.118 18.6378 15.118 18.8951C15.1113 19.2736 15.1113 19.6476 15.1113 20.0238V23.6159Z" fill="white"/>
<path d="M25.1955 18.1091C25.9703 17.285 27.1012 17.5067 27.7574 17.8964C28.2769 18.2054 28.4628 18.716 28.2568 19.2176C28.0485 19.7215 27.5693 19.9141 26.9691 19.7372C25.9435 19.4326 25.6232 19.6454 25.4485 20.7158C25.3466 21.3507 25.3523 21.9866 25.3579 22.6229C25.3603 22.8956 25.3628 23.1684 25.3567 23.4412C25.3554 23.5026 25.3556 23.5642 25.3558 23.6257V23.6258C25.3563 23.7796 25.3567 23.9329 25.3343 24.0817C25.2335 24.7334 24.7879 25.1073 24.1609 25.0872C23.5741 25.0693 23.1598 24.6729 23.1106 24.019C23.0804 23.6246 23.0826 23.2275 23.0848 22.8309C23.0854 22.7275 23.0859 22.6241 23.0859 22.5208C23.0859 22.3747 23.0859 22.2287 23.0859 22.0826L23.0859 22.0657C23.0856 21.0036 23.0854 19.9413 23.0971 18.8772C23.1016 18.3353 23.2248 17.8359 23.8003 17.612C24.293 17.4261 24.7342 17.5918 25.1955 18.1091Z" fill="white"/>
<path d="M5.11223 15.0926C5.7751 15.0836 6.23866 15.5181 6.25434 16.1586C6.27001 16.8349 5.81093 17.3074 5.13686 17.3119C4.46279 17.3186 4.01266 16.8953 4.00147 16.2459C3.98803 15.5606 4.43368 15.1015 5.11223 15.0926Z" fill="white"/>
<path d="M4.00146 21.3205C4.00146 21.0805 4.0011 20.8406 4.00073 20.6006C3.99982 20.0008 3.9989 19.4009 4.0037 18.8011C4.01042 18.0262 4.42024 17.5694 5.09879 17.5604C5.79749 17.5515 6.24762 18.024 6.2521 18.8123C6.26105 20.474 6.26329 22.1334 6.2521 23.795C6.24762 24.6303 5.80869 25.0984 5.08535 25.0894C4.39784 25.0805 4.00594 24.6102 4.00146 23.7838C3.99997 23.2375 4.00047 22.6902 4.00097 22.1425C4.00121 21.8685 4.00146 21.5945 4.00146 21.3205Z" fill="white"/>
<path fill-rule="evenodd" clip-rule="evenodd" d="M33.5642 17.6276C32.655 17.444 31.7884 17.5716 30.9352 18.2256C30.9352 17.9867 30.9369 17.7573 30.9387 17.5345C30.9428 17.0115 30.9466 16.5251 30.9262 16.0399C30.9038 15.4151 30.4985 15.0254 29.9207 15.0053C29.2936 14.9829 28.8793 15.3344 28.7965 15.9727C28.7719 16.1675 28.7719 16.3646 28.7719 16.5617C28.7696 18.9041 28.7696 21.2466 28.7741 23.589C28.7741 23.8353 28.7898 24.0906 28.8435 24.3303C28.9353 24.7311 29.2063 24.9909 29.6072 25.0693C30.0394 25.1544 30.4783 25.067 30.6911 24.6707C30.8672 24.3422 30.9891 24.4298 31.1633 24.5551L31.1634 24.5551C31.1863 24.5716 31.2102 24.5888 31.2352 24.6057C32.402 25.394 33.9942 25.2372 34.9594 24.2138C35.9828 23.1322 36.1172 21.784 35.9269 20.4023C35.7119 18.8414 34.8721 17.8919 33.5642 17.6276ZM31.4726 19.8648C31.1098 20.3015 31.0314 20.8255 31.0247 21.5063C31.031 21.5432 31.0369 21.5909 31.0437 21.646C31.0613 21.7883 31.085 21.98 31.1367 22.1625C31.3159 22.8097 31.7548 23.1635 32.3505 23.1769C32.9484 23.1904 33.4008 22.8522 33.5956 22.2073C33.8106 21.5019 33.7927 20.7897 33.4859 20.1156C33.094 19.2535 32.0795 19.1348 31.4726 19.8648Z" fill="white"/>
<path fill-rule="evenodd" clip-rule="evenodd" d="M19.3119 22.0369H19.3118C18.9472 22.0392 18.6109 22.0413 18.2756 22.0304C17.9733 22.0214 17.9016 22.1155 17.9957 22.4088C18.2689 23.2531 19.158 23.6383 19.9866 23.2464C20.2931 23.1013 20.5364 22.8754 20.7796 22.6496C20.8367 22.5966 20.8938 22.5436 20.9517 22.4917C21.3526 22.1334 21.8632 22.0774 22.217 22.3461C22.5529 22.6014 22.6336 23.0784 22.3827 23.5599C21.8923 24.5027 21.0279 24.9103 20.0381 25.0469C19.0527 25.1835 18.0741 25.1118 17.194 24.5676C15.9018 23.7704 15.3308 22.1737 15.6846 20.3665C15.9421 19.0474 16.6655 18.0867 17.9711 17.7284C19.3617 17.3432 20.7076 17.4597 21.7848 18.5839C22.3827 19.2064 22.6492 19.9701 22.6201 20.8278C22.5977 21.522 22.2842 21.8669 21.5945 21.9811C21.1785 22.0502 20.7595 22.0427 20.3658 22.0357C20.1724 22.0323 19.9852 22.0289 19.8074 22.0348C19.6354 22.0348 19.471 22.0359 19.3119 22.0369ZM19.0885 20.4941C19.0287 20.4941 18.9686 20.495 18.9084 20.4958C18.7728 20.4977 18.6368 20.4996 18.5018 20.4919C18.4493 20.4891 18.3894 20.4962 18.3295 20.5032C18.1927 20.5193 18.0553 20.5355 18.0024 20.4359C17.912 20.2688 18.032 20.0828 18.1369 19.9202C18.1515 19.8975 18.1659 19.8753 18.1793 19.8536C18.4503 19.4169 18.8579 19.2355 19.364 19.3162C19.8499 19.3923 20.1455 19.7036 20.3046 20.1582C20.3919 20.4068 20.3359 20.5165 20.0493 20.4986C19.8251 20.486 19.6009 20.4889 19.3768 20.4917C19.2807 20.4929 19.1846 20.4941 19.0885 20.4941Z" fill="white"/>
</svg>
