<svg width="40" height="40" viewBox="0 0 40 40" fill="none" xmlns="http://www.w3.org/2000/svg">
<g clip-path="url(#clip0_25_2722)">
<path d="M20 40C31.0457 40 40 31.0457 40 20C40 8.9543 31.0457 0 20 0C8.9543 0 0 8.9543 0 20C0 31.0457 8.9543 40 20 40Z" fill="#17726E"/>
<path d="M26.85 23.35V20.2999H23V23.35H21.9V16.5499H23V19.45H26.85V16.5499H27.95V23.2999L26.85 23.35ZM12.25 16.5499H13.35V23.2999H12.25V16.5499ZM9.59998 16.5499L7.44998 21.15L5.24998 16.5499H4.09998L7.44998 23.2999L10.75 16.5499H9.59998ZM18.5 22.4C16.9 22.4 15.7 21.3499 15.7 19.9C15.7 18.4499 16.9 17.4 18.5 17.4C19.2 17.4 19.85 17.65 20.35 18V17C19.75 16.7 19.15 16.5499 18.5 16.5499C16.4 16.5499 14.7 18.05 14.7 19.95C14.7 21.85 16.4 23.35 18.5 23.35C19.2 23.35 19.8 23.2 20.35 22.9V21.85C19.85 22.2 19.2 22.4 18.5 22.4ZM35.9 16.5499L32.9 20.4V23.2999H31.9V20.4L28.9 16.5499H30.1L32.45 19.5499L34.8 16.5499H35.9Z" fill="#F2F2F2"/>
</g>
<defs>
<clipPath id="clip0_25_2722">
<rect width="40" height="40" fill="white"/>
</clipPath>
</defs>
</svg>
