<svg width="40" height="40" viewBox="0 0 40 40" fill="none" xmlns="http://www.w3.org/2000/svg">
<g clip-path="url(#clip0_25_441)">
<path d="M20 40C31.0457 40 40 31.0457 40 20C40 8.9543 31.0457 0 20 0C8.9543 0 0 8.9543 0 20C0 31.0457 8.9543 40 20 40Z" fill="black"/>
<path d="M28.7576 18.325C27.7416 18.374 26.9531 19.197 26.9866 20.175C27.0201 21.1525 27.8621 21.9245 28.8796 21.909C29.8971 21.894 30.7141 21.0965 30.7151 20.1185C30.6871 19.1045 29.8121 18.303 28.7576 18.325ZM28.9536 21.7135C28.7471 21.7291 28.5396 21.7029 28.3435 21.6365C28.1473 21.57 27.9666 21.4648 27.8121 21.327C27.6612 21.1927 27.5407 21.0279 27.4586 20.8433C27.3765 20.6588 27.3348 20.4589 27.3361 20.257C27.2962 20.0623 27.2972 19.8615 27.3393 19.6673C27.3813 19.4731 27.4633 19.2897 27.5801 19.129C27.6999 18.9647 27.8511 18.8258 28.0249 18.7202C28.1986 18.6145 28.3916 18.5443 28.5926 18.5135C29.0059 18.4962 29.4098 18.6406 29.7186 18.916C30.0226 19.19 30.1996 19.5695 30.2106 19.9695C30.2569 20.1608 30.2621 20.3598 30.2258 20.5533C30.1895 20.7468 30.1126 20.9304 30.0001 21.092C29.8845 21.2571 29.7368 21.3973 29.5658 21.504C29.3949 21.6108 29.2042 21.6821 29.0051 21.7135H28.9536ZM11.6961 19.6135C11.4716 19.6069 11.2489 19.6543 11.0466 19.7515V18.405H10.5216V21.8425H11.0566C11.2081 21.8555 11.3596 21.8555 11.5106 21.8425C11.6783 21.8639 11.8486 21.8504 12.0109 21.803C12.1732 21.7555 12.3239 21.675 12.4536 21.5665C12.5801 21.461 12.6821 21.329 12.7523 21.18C12.8225 21.0309 12.8593 20.8683 12.8601 20.7035C12.8626 20.5559 12.8339 20.4094 12.7759 20.2736C12.7179 20.1378 12.6319 20.0158 12.5236 19.9155C12.4126 19.8127 12.2823 19.733 12.1402 19.6812C11.9981 19.6293 11.8471 19.6063 11.6961 19.6135ZM11.5211 21.6835C11.3628 21.686 11.2055 21.6593 11.0571 21.6045V19.88C11.2086 19.8105 11.3736 19.7735 11.5411 19.771C11.6658 19.7761 11.7883 19.8066 11.9009 19.8606C12.0135 19.9146 12.1139 19.9909 12.1961 20.085C12.3586 20.2735 12.4311 20.519 12.3961 20.7615C12.3961 21.4255 12.0151 21.683 11.5211 21.683V21.6835ZM6.36856 18.335V21.832H5.78156V19.098L3.32906 21.8815H3.18506V18.405H3.72056V21.139L6.17306 18.3555L6.36856 18.3355V18.335ZM10.1396 21.832H9.49056L8.33656 19.098L7.12056 21.832H6.84256L8.45006 18.335H8.54256L10.1396 21.832ZM24.1621 18.4045V21.842H24.6976C24.8486 21.855 25.0001 21.855 25.1511 21.842C25.3188 21.8634 25.4891 21.8499 25.6514 21.8025C25.8137 21.755 25.9644 21.6745 26.0941 21.566C26.2206 21.4605 26.3226 21.3285 26.3928 21.1795C26.463 21.0304 26.4998 20.8678 26.5006 20.703C26.5059 20.5547 26.4797 20.407 26.4237 20.2696C26.3676 20.1322 26.2831 20.0083 26.1756 19.906C26.0654 19.801 25.9353 19.7193 25.793 19.6655C25.6507 19.6117 25.4991 19.5871 25.3471 19.593C25.1226 19.5867 24.8998 19.6344 24.6976 19.732V18.6025H26.3156V18.4045H24.1621ZM25.1921 21.7035C25.0274 21.7051 24.8636 21.6782 24.7081 21.624V19.8805C24.8596 19.811 25.0246 19.774 25.1921 19.7715C25.3168 19.7766 25.4393 19.8071 25.5519 19.8611C25.6645 19.9151 25.7649 19.9914 25.8471 20.0855C26.0096 20.274 26.0821 20.5195 26.0471 20.762C26.0371 21.426 25.6046 21.6935 25.1821 21.6935L25.1921 21.7035ZM33.3321 18.6125H32.3016V21.8425H31.7656V18.6025H30.7356V18.4045H33.3831L33.3316 18.6125H33.3321ZM36.8036 20.1085C36.8093 20.3575 36.7612 20.6047 36.6625 20.8334C36.5639 21.0621 36.4171 21.2668 36.2321 21.4335C36.0424 21.6046 35.8199 21.7352 35.5781 21.8174C35.3362 21.8996 35.0802 21.9316 34.8256 21.9115C34.3896 21.9133 33.963 21.7857 33.5996 21.545L33.4861 21.218H33.5891C33.9336 21.514 34.3741 21.6855 34.8361 21.703C35.038 21.6954 35.2364 21.6476 35.4196 21.5624C35.6029 21.4771 35.7672 21.3561 35.9031 21.2065C36.0355 21.0604 36.1356 20.8879 36.1968 20.7004C36.258 20.5129 36.2789 20.3146 36.2581 20.1185H33.9086V19.8905H36.2786C36.2841 19.1305 35.6571 18.5055 34.8671 18.4835C34.5026 18.485 34.1457 18.588 33.8366 18.781L33.6716 18.5925C34.044 18.401 34.4584 18.3058 34.8771 18.3155C35.3751 18.3007 35.8591 18.4814 36.2256 18.819C36.4027 18.9821 36.5445 19.1798 36.6422 19.3999C36.7399 19.6199 36.7914 19.8577 36.7936 20.0985L36.8036 20.1085ZM34.0116 17.8595L34.0631 17.691C34.6851 17.8765 35.3571 17.616 35.6706 17.067L35.9691 17.414C35.7029 17.644 35.3838 17.8042 35.0403 17.8802C34.6969 17.9563 34.3399 17.9457 34.0016 17.8495L34.0116 17.8595ZM22.3386 20.1085C22.2636 19.119 21.4071 18.353 20.3756 18.353C19.3441 18.353 18.4876 19.119 18.4131 20.108C18.4108 20.3628 18.4642 20.6151 18.5696 20.8471C18.675 21.0792 18.8297 21.2855 19.0231 21.4515C19.2209 21.622 19.4518 21.7499 19.7012 21.8273C19.9507 21.9048 20.2134 21.93 20.4731 21.9015C21.0908 21.9116 21.6874 21.6764 22.1321 21.2475L22.2046 20.8515H22.1221C21.7626 21.3865 21.1466 21.7115 20.4836 21.7135C20.2749 21.711 20.0688 21.6665 19.8778 21.5826C19.6867 21.4986 19.5145 21.377 19.3716 21.225C19.2322 21.0767 19.1261 20.9004 19.0603 20.7079C18.9945 20.5154 18.9706 20.311 18.9901 20.1085H22.3386ZM20.3911 18.5035C21.1661 18.562 21.7871 19.146 21.8646 19.8905H19.0106C19.0042 19.7103 19.0351 19.5307 19.1013 19.363C19.1676 19.1953 19.2677 19.0431 19.3956 18.916C19.6602 18.6528 20.0179 18.5046 20.3911 18.5035ZM17.8461 18.5035C17.5406 17.8535 16.8446 17.458 16.1051 17.513C15.6238 17.4955 15.1545 17.6658 14.7966 17.988L14.7246 18.355H14.8171C14.9613 18.1396 15.1582 17.9646 15.389 17.8466C15.6198 17.7287 15.877 17.6717 16.1361 17.681C17.0531 17.681 17.4756 18.286 17.5061 19.177C17.3461 18.9927 17.1483 18.845 16.9261 18.7442C16.7039 18.6433 16.4626 18.5916 16.2186 18.5925C15.4336 18.61 14.7636 19.141 14.5961 19.8785C14.4291 20.6155 14.8081 21.367 15.5136 21.697C16.2196 22.027 17.0686 21.8495 17.5681 21.2675C17.8424 20.9752 17.9937 20.5884 17.9906 20.1875V19.296C17.9883 19.032 17.9394 18.7705 17.8461 18.5235V18.5035ZM16.2186 21.7035C16.0331 21.6957 15.851 21.6512 15.6828 21.5725C15.5147 21.4938 15.3638 21.3825 15.2391 21.245C15.1175 21.1109 15.0254 20.9528 14.9687 20.7809C14.912 20.609 14.892 20.4271 14.9101 20.247C14.8856 20.0663 14.901 19.8825 14.9554 19.7085C15.0097 19.5345 15.1016 19.3746 15.2246 19.24C15.3508 19.1019 15.5044 18.9916 15.6755 18.916C15.8465 18.8403 16.0315 18.801 16.2186 18.8005C16.4046 18.8041 16.5879 18.8455 16.7574 18.9222C16.9269 18.9988 17.079 19.1092 17.2046 19.2465C17.3269 19.3804 17.419 19.539 17.4747 19.7117C17.5303 19.8843 17.5482 20.0668 17.5271 20.247C17.5496 20.4289 17.5329 20.6135 17.4782 20.7884C17.4234 20.9633 17.3318 21.1244 17.2096 21.261C17.0841 21.4009 16.9317 21.514 16.7613 21.5934C16.591 21.6728 16.4064 21.7169 16.2186 21.723V21.703V21.7035Z" fill="white"/>
</g>
<defs>
<clipPath id="clip0_25_441">
<rect width="40" height="40" fill="white"/>
</clipPath>
</defs>
</svg>
