<svg width="40" height="40" viewBox="0 0 40 40" fill="none" xmlns="http://www.w3.org/2000/svg">
<g clip-path="url(#clip0_25_4034)">
<path d="M20 40C31.0457 40 40 31.0457 40 20C40 8.9543 31.0457 0 20 0C8.9543 0 0 8.9543 0 20C0 31.0457 8.9543 40 20 40Z" fill="black"/>
<path fill-rule="evenodd" clip-rule="evenodd" d="M27.405 17.1306C28.132 16.9666 28.922 17.0921 29.555 17.4881C30.245 17.9021 30.732 18.6266 30.8785 19.4161C30.9985 20.0916 30.8865 20.8136 30.5305 21.4041C30.115 22.1281 29.364 22.6431 28.5435 22.7841C27.673 22.9406 26.732 22.6751 26.0895 22.0621C25.396 21.4411 25.0545 20.4656 25.186 19.5466C25.332 18.3846 26.2595 17.3751 27.405 17.1306ZM27.59 18.4176C26.807 18.6326 26.2835 19.5116 26.491 20.3026C26.6505 21.0746 27.452 21.6376 28.2335 21.5251C29.0915 21.4446 29.766 20.5716 29.6195 19.7201C29.5145 18.7896 28.4825 18.1176 27.5905 18.4176H27.59ZM2.54 17.1801C3.3335 17.1921 4.127 17.1761 4.92 17.1876C5.88 17.2276 6.7505 17.9641 6.9565 18.9011C7.03129 19.2264 7.0322 19.5643 6.95917 19.89C6.88614 20.2157 6.74103 20.5209 6.5345 20.7831C6.34001 21.0283 6.09621 21.2299 5.81888 21.375C5.54154 21.52 5.23684 21.6052 4.9245 21.6251C4.5435 21.6436 4.1625 21.6256 3.781 21.6341C3.775 21.9296 3.8405 22.2816 3.61 22.5141C3.3345 22.8066 2.9015 22.6776 2.5475 22.7051C2.522 22.2851 2.5385 21.8626 2.534 21.4416C2.5385 20.0216 2.5255 18.6006 2.5405 17.1801H2.54ZM3.7805 20.3836C4.123 20.3871 4.4665 20.3886 4.81 20.3861C5.182 20.3866 5.535 20.1461 5.685 19.8076C5.943 19.2851 5.6095 18.5896 5.0435 18.4576C4.629 18.3871 4.205 18.4501 3.7865 18.4211C3.7745 19.0751 3.7855 19.7296 3.7805 20.3836ZM7.5695 17.8256C7.5515 17.5166 7.8035 17.2181 8.114 17.1926C8.345 17.1726 8.5785 17.1876 8.811 17.1846C8.816 18.3296 8.8115 19.4746 8.8125 20.6186C9.6325 19.5236 10.495 18.4596 11.324 17.3706C11.39 17.3076 11.4335 17.1871 11.539 17.1876C11.912 17.1776 12.286 17.1881 12.659 17.1851C12.651 18.8261 12.661 20.4676 12.654 22.1076C12.6585 22.4121 12.3905 22.6846 12.09 22.7001C11.863 22.7116 11.635 22.7021 11.4075 22.7036C11.419 21.5686 11.4325 20.4306 11.401 19.2956C10.5305 20.4396 9.6335 21.5631 8.7575 22.7031C8.361 22.7056 7.9655 22.7036 7.569 22.7036C7.5705 21.0781 7.57 19.4516 7.569 17.8256H7.5695ZM13.5155 17.1866C14.6505 17.1811 15.784 17.1866 16.918 17.1826C17.155 17.1795 17.39 17.227 17.6071 17.3222C17.8243 17.4173 18.0186 17.5577 18.177 17.7341C18.609 18.1891 18.7335 18.8956 18.5085 19.4771C18.453 19.6481 18.319 19.7831 18.2695 19.9546C18.467 20.2736 18.637 20.6266 18.618 21.0131C18.643 21.8771 17.895 22.6606 17.0355 22.6971C16.0775 22.7121 15.1195 22.7001 14.162 22.7046C13.8345 22.7226 13.525 22.4456 13.52 22.1156C13.514 20.4731 13.522 18.8291 13.5155 17.1866ZM14.762 18.4266C14.766 18.7251 14.766 19.0241 14.7625 19.3226C15.503 19.3221 16.244 19.3226 16.9845 19.3091C17.163 19.3036 17.3015 19.1506 17.362 18.9926C17.4395 18.7216 17.2095 18.4101 16.9225 18.4276C16.2025 18.4251 15.4825 18.4266 14.7625 18.4266H14.762ZM14.7625 20.5661C14.7645 20.8631 14.765 21.1611 14.764 21.4576C15.4815 21.4661 16.199 21.4606 16.917 21.4556C17.117 21.4691 17.299 21.3181 17.3555 21.1321C17.449 20.8591 17.206 20.5406 16.918 20.5626C16.1995 20.5556 15.481 20.5721 14.763 20.5661H14.7625ZM21.051 17.1861C22.442 17.1836 23.8325 17.1846 25.224 17.1861C25.175 17.5361 25.3305 17.9711 25.041 18.2466C24.9065 18.3951 24.7 18.4381 24.507 18.4281C23.7775 18.4201 23.0485 18.4371 22.3195 18.4181C22.2775 18.7301 22.3055 19.0446 22.2975 19.3581C22.303 20.2361 22.292 21.1141 22.3035 21.9916C22.305 22.1866 22.2655 22.3996 22.107 22.5306C21.8245 22.8036 21.402 22.6771 21.051 22.7021C21.056 20.8641 21.0565 19.0246 21.051 17.1866V17.1861ZM31.4795 17.1816C31.897 17.1881 32.3145 17.1816 32.7315 17.1866C32.727 18.6126 32.7205 20.0391 32.7345 21.4656C33.1075 21.4561 33.4805 21.4656 33.8535 21.4576C33.851 20.0341 33.855 18.6101 33.851 17.1871C34.269 17.1841 34.6875 17.1791 35.106 17.1901C35.091 18.6126 35.1045 20.0351 35.098 21.4576C35.474 21.4646 35.849 21.4606 36.2245 21.4611C36.2285 20.0361 36.231 18.6111 36.2235 17.1861C36.4785 17.1921 36.737 17.1626 36.991 17.2041C37.2725 17.2641 37.4835 17.5401 37.468 17.8281L37.4685 22.7056C35.6955 22.7026 33.922 22.7036 32.1495 22.7046C31.946 22.7126 31.7395 22.6296 31.6145 22.4666C31.4715 22.3026 31.4805 22.0711 31.474 21.8681C31.4795 20.3056 31.4705 18.7436 31.4795 17.1816Z" fill="#FFFFFE"/>
</g>
<defs>
<clipPath id="clip0_25_4034">
<rect width="40" height="40" fill="white"/>
</clipPath>
</defs>
</svg>
