<svg width="40" height="40" viewBox="0 0 40 40" fill="none" xmlns="http://www.w3.org/2000/svg">
<g clip-path="url(#clip0_482_68)">
<path d="M20 40C31.0457 40 40 31.0457 40 20C40 8.9543 31.0457 0 20 0C8.9543 0 0 8.9543 0 20C0 31.0457 8.9543 40 20 40Z" fill="#393939"/>
<path fill-rule="evenodd" clip-rule="evenodd" d="M24.25 33.3433C29.9041 31.5439 34 26.2503 34 20C34 17.8725 33.5254 15.8558 32.6764 14.05H24.25L24.25 33.3433ZM21.7 33.8978C21.1428 33.9653 20.5754 34 20 34C19.1291 34 18.2768 33.9205 17.45 33.7683L17.45 20.8499H21.7V33.8978ZM21.7 18.2999V14.05H7.32363C6.70423 15.3673 6.28413 16.7969 6.10218 18.2999H14.9H17.45H21.7ZM14.9 20.8499L14.9 33.042C9.94059 31.1012 6.35852 26.4133 6.02537 20.8499H14.9ZM21.7 11.5H24.25H31.1252C28.5668 8.15649 24.5352 6 20 6C15.4648 6 11.4332 8.15649 8.87479 11.5H21.7ZM20 37C29.3888 37 37 29.3888 37 20C37 10.6112 29.3888 3 20 3C10.6112 3 3 10.6112 3 20C3 29.3888 10.6112 37 20 37Z" fill="white"/>
</g>
<defs>
<clipPath id="clip0_482_68">
<rect width="40" height="40" fill="white"/>
</clipPath>
</defs>
</svg>
