<svg width="40" height="40" viewBox="0 0 40 40" fill="none" xmlns="http://www.w3.org/2000/svg">
<g clip-path="url(#clip0_441_239)">
<path d="M20 40C31.0457 40 40 31.0457 40 20C40 8.9543 31.0457 0 20 0C8.9543 0 0 8.9543 0 20C0 31.0457 8.9543 40 20 40Z" fill="#174A2F"/>
<path d="M35 20.0501C35 28.3067 28.2843 35 20 35C11.7157 35 5 28.3067 5 20.0501C5 13.2804 9.51469 7.00796 15.707 5.05575C16.3248 4.86098 16.972 5.19372 17.229 5.78655C17.5581 6.54589 17.1231 7.41499 16.3353 7.67536C10.6825 9.54382 6.60714 13.6691 6.60714 20.0501C6.60714 27.7169 12.3075 33.9321 20 33.9321C27.6925 33.9321 33.3929 27.7169 33.3929 20.0501C33.3929 13.6691 29.3175 9.54382 23.6647 7.67536C22.8769 7.41499 22.4419 6.54589 22.771 5.78655C23.028 5.19372 23.6752 4.86098 24.293 5.05575C30.4853 7.00796 35 13.2804 35 20.0501Z" fill="white"/>
<path d="M8.70166 18.3948C10.1143 15.3863 12.1333 13.6025 15.1111 12.8678C15.9414 12.6629 16.4717 11.7927 16.154 11.0011C15.9051 10.3809 15.2183 10.0465 14.593 10.2869C10.8562 11.7239 8.63403 14.3686 7.92647 18.2209C7.73621 19.2568 7.64108 19.7747 7.82054 19.8319C8.00001 19.8891 8.23389 19.391 8.70166 18.3948Z" fill="white"/>
<path d="M24.8889 12.8678C27.8667 13.6025 29.8857 15.3863 31.2983 18.3948C31.7661 19.391 32 19.8891 32.1795 19.8319C32.3589 19.7747 32.2638 19.2568 32.0735 18.2209C31.366 14.3686 29.1438 11.7239 25.407 10.2869C24.7817 10.0465 24.0949 10.3809 23.846 11.0011C23.5283 11.7927 24.0586 12.6629 24.8889 12.8678Z" fill="white"/>
</g>
<defs>
<clipPath id="clip0_441_239">
<rect width="40" height="40" fill="white"/>
</clipPath>
</defs>
</svg>
