<svg width="40" height="40" viewBox="0 0 40 40" fill="none" xmlns="http://www.w3.org/2000/svg">
<g clip-path="url(#clip0_132_3)">
<path d="M20 40C31.0457 40 40 31.0457 40 20C40 8.9543 31.0457 0 20 0C8.9543 0 0 8.9543 0 20C0 31.0457 8.9543 40 20 40Z" fill="#39342F"/>
<path d="M24.161 5.56397L12.195 13.262C11.6868 13.5881 11.2689 14.0368 10.9797 14.5668C10.6905 15.0969 10.5393 15.6912 10.54 16.295L10.515 28.677C10.5145 29.1598 10.7058 29.6232 11.0468 29.965C11.3878 30.3069 11.8506 30.4993 12.3335 30.5H28.1585C28.5435 30.4993 28.9126 30.3461 29.1849 30.0738C29.4571 29.8016 29.6104 29.4325 29.611 29.0475V16.073C29.611 15.5295 29.171 15.085 28.623 15.085H24.305L24.334 5.65797C24.3342 5.63774 24.3289 5.61784 24.3186 5.60041C24.3083 5.58297 24.2935 5.56866 24.2758 5.559C24.258 5.54934 24.2379 5.5447 24.2177 5.54558C24.1975 5.54645 24.1779 5.55281 24.161 5.56397Z" fill="url(#paint0_linear_132_3)"/>
<path d="M29.6055 24.7144L14.512 28.5384C14.166 28.6274 13.9635 28.1634 14.26 27.9654L24.29 21.4039L24.2945 15.0849H28.7955C29.2455 15.0849 29.6055 15.4454 29.6055 15.8949V24.7149V24.7144Z" fill="url(#paint1_linear_132_3)"/>
<path d="M20.9221 16.899C21.6159 16.0956 21.7547 15.0785 21.2322 14.6273C20.7097 14.1761 19.7237 14.4616 19.0299 15.2651C18.3362 16.0685 18.1974 17.0855 18.7199 17.5367C19.2424 17.9879 20.2283 17.7024 20.9221 16.899Z" fill="#171717"/>
</g>
<defs>
<linearGradient id="paint0_linear_132_3" x1="9.09504" y1="10.5778" x2="29.9992" y2="20.8492" gradientUnits="userSpaceOnUse">
<stop stop-color="#FFF000"/>
<stop offset="0.5976" stop-color="#FFD700"/>
<stop offset="1" stop-color="#FFCC00"/>
</linearGradient>
<linearGradient id="paint1_linear_132_3" x1="19.6626" y1="21.7755" x2="35.2262" y2="18.871" gradientUnits="userSpaceOnUse">
<stop stop-color="#F0B200"/>
<stop offset="1" stop-color="#FFD900"/>
</linearGradient>
<clipPath id="clip0_132_3">
<rect width="40" height="40" fill="white"/>
</clipPath>
</defs>
</svg>
