<svg width="40" height="40" viewBox="0 0 40 40" fill="none" xmlns="http://www.w3.org/2000/svg">
<g clip-path="url(#clip0_132_184)">
<circle cx="20" cy="20" r="20" fill="#1AAD19"/>
<path fill-rule="evenodd" clip-rule="evenodd" d="M17.0012 22.6511C16.9019 22.703 16.79 22.7327 16.6711 22.7327C16.3964 22.7327 16.1573 22.5765 16.0316 22.3459L15.9835 22.2376L13.9811 17.7099C13.9593 17.6603 13.9459 17.6049 13.9459 17.5507C13.9459 17.342 14.11 17.1729 14.3126 17.1729C14.3949 17.1729 14.4709 17.2009 14.5321 17.2478L16.8951 18.9814C17.0679 19.098 17.274 19.1661 17.4958 19.1661C17.6282 19.1661 17.7545 19.1406 17.8721 19.0964L28.9854 13.9999C26.9933 11.5807 23.7126 10 19.9998 10C13.9247 10 9 14.2288 9 19.4451C9 22.2914 10.4818 24.853 12.8009 26.5847C12.9871 26.7217 13.1086 26.9463 13.1086 27.1999C13.1086 27.2838 13.0913 27.3608 13.0702 27.4407C12.8849 28.1528 12.5881 29.2929 12.5743 29.3461C12.5515 29.4356 12.5153 29.5287 12.5153 29.6222C12.5153 29.8309 12.6794 30 12.882 30C12.9615 30 13.0266 29.9696 13.0939 29.93L15.5021 28.4973C15.6832 28.3896 15.8749 28.3229 16.0861 28.3229C16.1986 28.3229 16.3069 28.3407 16.4095 28.3727C17.533 28.706 18.7449 28.8909 19.9998 28.8909C26.075 28.8909 31 24.6618 31 19.4451C31 17.8651 30.5458 16.3772 29.7473 15.0684L17.0817 22.6032L17.0012 22.6511Z" fill="white"/>
</g>
<defs>
<clipPath id="clip0_132_184">
<rect width="40" height="40" fill="white"/>
</clipPath>
</defs>
</svg>
