<svg width="40" height="40" viewBox="0 0 40 40" fill="none" xmlns="http://www.w3.org/2000/svg">
<circle cx="20" cy="20" r="20" fill="#0B2E6E"/>
<path d="M18.5383 14.5H15.9889C15.8749 14.4182 15.875 14.418 15.875 14.418L15.8769 14.4154L15.8802 14.4108L15.8898 14.3977C15.8974 14.3874 15.9075 14.3737 15.9201 14.3571C15.9454 14.3237 15.9807 14.2781 16.0259 14.222C16.1163 14.1099 16.2467 13.9554 16.4164 13.7727C16.7549 13.4081 17.2541 12.9264 17.9075 12.4449C19.2136 11.4826 21.1669 10.5 23.6882 10.5C26.2096 10.5 28.1629 11.4826 29.4689 12.4449C30.1223 12.9264 30.6215 13.4081 30.9601 13.7727C31.1297 13.9554 31.2602 14.1099 31.3505 14.222C31.3958 14.2781 31.4311 14.3237 31.4563 14.3571C31.4689 14.3737 31.4791 14.3874 31.4867 14.3977L31.4962 14.4108L31.4995 14.4154L31.5009 14.4172C31.5009 14.4172 31.5012 14.4177 31.3867 14.5H28.8381C28.6718 14.3555 28.4864 14.2053 28.2825 14.0551C27.2136 13.2674 25.6669 12.5 23.6882 12.5C21.7096 12.5 20.1629 13.2674 19.0939 14.0551C18.89 14.2053 18.7047 14.3555 18.5383 14.5Z" fill="#EB3323"/>
<path d="M22.5 15L24.5 14V17H26V19H24.5V23.6634C24.5 24.6634 25 25 25.5 25C26.5 25 26.5 24.5 26.5 24.5H27C27 25.5 26.2563 26.5 25 26.5C23.7437 26.5 22.5 25.5 22.5 24V19H21V17H22.5V15Z" fill="white"/>
<path d="M11.5002 18.5C9.9311 18.5 8.61133 19.8164 8.61133 21.5C8.61133 23.1836 9.9311 24.5 11.5002 24.5C12.3435 24.5 13.1072 24.1254 13.6408 23.5145L15.1471 24.8302C14.2569 25.8494 12.9552 26.5 11.5002 26.5C8.77379 26.5 6.61133 24.2347 6.61133 21.5C6.61133 18.7653 8.77379 16.5 11.5002 16.5C13.1119 16.5 14.5334 17.2975 15.4188 18.5098L13.8038 19.6895C13.2703 18.959 12.4328 18.5 11.5002 18.5Z" fill="white"/>
<path d="M17 26H19V17H17V26Z" fill="white"/>
<path d="M28.5 26H30.5V17H28.5V26Z" fill="white"/>
</svg>
