<svg width="40" height="40" viewBox="0 0 40 40" fill="none" xmlns="http://www.w3.org/2000/svg">
<circle cx="20" cy="20" r="20" fill="#1434CB"/>
<path d="M16.3903 15.1701L12.4628 24.4894H9.90031L7.9675 17.0523C7.85016 16.5943 7.74812 16.4264 7.39125 16.2335C6.80875 15.919 5.84656 15.6242 5 15.4411L5.0575 15.1703H9.18234C9.70813 15.1703 10.1808 15.5184 10.3002 16.1205L11.3209 21.513L13.8438 15.1701H16.3903ZM26.4308 21.4467C26.4411 18.9871 23.0108 18.8516 23.0344 17.7528C23.0417 17.4184 23.3619 17.0629 24.0627 16.9722C24.41 16.9269 25.367 16.8924 26.4525 17.3892L26.8783 15.413C26.295 15.2026 25.5445 15 24.6108 15C22.2147 15 20.5284 16.2667 20.5142 18.0805C20.4987 19.4221 21.7178 20.1708 22.6362 20.6166C23.5811 21.0731 23.8981 21.3665 23.8945 21.7748C23.8878 22.4 23.1409 22.6759 22.443 22.6868C21.2245 22.7055 20.5175 22.3589 19.9539 22.0984L19.5145 24.14C20.0809 24.3984 21.1264 24.6239 22.2103 24.6352C24.757 24.635 26.423 23.3842 26.4308 21.4467ZM32.758 24.4894H35L33.043 15.1701H30.9736C30.5083 15.1701 30.1158 15.4396 29.942 15.8538L26.3042 24.4894H28.8497L29.3552 23.0973H32.4653L32.758 24.4894ZM30.0531 21.1873L31.3291 17.6883L32.0634 21.1873H30.0531ZM19.8541 15.1701L17.8495 24.4894H15.4255L17.4308 15.1701H19.8541Z" fill="white"/>
</svg>
