<svg width="40" height="40" viewBox="0 0 40 40" fill="none" xmlns="http://www.w3.org/2000/svg">
<g clip-path="url(#clip0_132_217)">
<path d="M20 40C31.0435 40 40 31.0435 40 20C40 8.9565 31.0435 0 20 0C8.9565 0 0 8.9565 0 20C0 31.0435 8.9565 40 20 40Z" fill="#104076"/>
<path d="M33.4848 22.4513C33.3848 22.4513 33.2849 22.4991 33.2223 22.5826C31.0474 25.2851 25.5728 27.1987 19.1733 27.1987C12.8738 27.1987 7.47391 25.3454 5.23642 22.7145C5.21119 22.6908 5.2238 22.6546 5.24904 22.6309L5.2864 22.6188C5.36161 22.6188 5.43634 22.643 5.48632 22.7024C7.61124 24.8909 12.2483 26.3974 17.6108 26.3974C22.6982 26.3974 27.1227 25.0344 29.3849 23.0371C29.5222 22.9058 29.5222 22.6903 29.3849 22.559C29.3223 22.4991 29.2224 22.4513 29.1224 22.4633H28.46C28.3475 22.4633 28.2475 22.5111 28.1728 22.5831C26.1604 24.6161 21.848 26.0033 16.8485 26.0033C9.91132 25.9912 4.37413 23.3124 4.37413 20C4.37413 16.6876 9.92394 13.9968 16.8485 13.9968C21.8859 13.9968 26.2104 15.4197 28.2101 17.4526C28.2853 17.5241 28.3853 17.5724 28.4979 17.5724H29.1355C29.3354 17.5845 29.498 17.429 29.5106 17.2377C29.5106 17.1421 29.4732 17.0585 29.4106 16.9865C27.1484 14.9656 22.6986 13.5905 17.5865 13.5905C12.1993 13.5905 7.57484 15.1091 5.44993 17.2976C5.39995 17.3454 5.32473 17.3812 5.25001 17.3812C5.21264 17.3812 5.18741 17.3575 5.18741 17.3213L5.20003 17.2855C7.43752 14.6546 12.8495 12.7892 19.149 12.7892C25.5864 12.7892 31.0857 14.7266 33.2359 17.441C33.2985 17.5246 33.3984 17.5724 33.4984 17.5724H35.336C35.6859 17.5845 35.9858 17.3213 35.9984 16.9865C36.011 16.831 35.9484 16.6755 35.8358 16.5562C33.1611 13.8654 27.3988 12 20.7242 12C11.4874 12 4 15.5757 4 20C4 24.4248 11.4869 28 20.7242 28C27.3736 28 33.0985 26.1467 35.7985 23.468C36.0358 23.2168 36.011 22.8343 35.7485 22.6188C35.6233 22.5111 35.4607 22.4633 35.2987 22.4633H33.4863V22.4513H33.4848ZM10.5363 20.5617C10.5237 20.8129 10.3238 21.0283 10.0613 21.052H9.84873C9.58621 21.0279 9.38628 20.825 9.37367 20.5617V19.4378C9.38628 19.1866 9.58621 18.9712 9.84873 18.9475H10.0739C10.3364 18.9717 10.5363 19.1746 10.5489 19.4378L10.5363 20.5617ZM11.1739 19.4499C11.1739 18.9118 10.7115 18.4694 10.1491 18.4694H9.72402C9.16161 18.4573 8.71178 18.8881 8.69917 19.4262V19.6416C8.69917 19.7136 8.63657 19.773 8.56184 19.773H8.11201C8.0368 19.773 7.98682 19.7252 7.97469 19.6532V19.1509C7.9873 18.9596 7.92471 18.7563 7.78738 18.6128C7.6748 18.5292 7.53748 18.493 7.39967 18.5051H7.2997V21.5065H7.97469V20.3942C7.97469 20.3227 8.03729 20.2744 8.09988 20.2628H8.56233C8.63754 20.2628 8.68752 20.3227 8.69965 20.3825V20.5617C8.71227 21.0998 9.1621 21.5302 9.7245 21.5422H10.1496C10.712 21.5302 11.1618 21.0998 11.1744 20.5617V19.4499H11.1739ZM14.1859 20.8849C14.1859 21.2916 14.3858 21.5186 14.7609 21.5186H14.8609V18.5409H14.1859V19.617C14.1859 19.6769 14.1359 19.7368 14.0607 19.7368H12.8233C12.7607 19.7368 12.6981 19.689 12.6981 19.617V19.1267C12.6981 18.7201 12.4982 18.481 12.1231 18.481H12.0231V21.4828H12.6981V20.3946C12.6981 20.3347 12.7481 20.2748 12.8233 20.2748H14.0733C14.1485 20.2748 14.1985 20.3347 14.1985 20.3946V20.7535L14.1859 20.8849ZM22.473 18.5288C22.1979 18.5409 21.9732 18.7558 21.9606 19.019H22.9354C23.0107 19.019 23.0606 19.0789 23.0728 19.1388V21.4949H23.7478V19.1388C23.7478 19.0673 23.8104 19.019 23.873 19.019H24.3728C24.6479 19.007 24.8726 18.792 24.8852 18.5288H22.4725H22.473ZM27.3731 19.6769C27.3857 19.8682 27.2357 20.0478 27.0232 20.0594H26.2483C26.173 20.0594 26.1231 19.9995 26.1109 19.928V19.1509C26.1109 19.0789 26.1735 19.0195 26.2361 19.0195H26.9611C27.2488 19.0195 27.3736 19.1272 27.3736 19.3904V19.6773L27.3731 19.6769ZM28.0107 19.4735V19.3779C28.0233 18.9113 27.6235 18.5288 27.1484 18.5288H25.4359V21.4944H26.1109V20.6574C26.1109 20.5854 26.1735 20.5376 26.2361 20.526H27.0737C27.5735 20.526 27.9986 20.1435 28.0112 19.6648V19.4735H28.0107ZM19.2733 20.5617C19.2733 21.0761 19.711 21.5065 20.2481 21.5065H21.5734C21.5607 21.2433 21.3361 21.0283 21.0609 21.0162H20.2734C20.0734 21.0042 19.9356 20.837 19.9482 20.6453V19.4016C19.9356 19.2103 20.0982 19.0306 20.2981 19.019H20.9983C21.2735 18.9954 21.486 18.792 21.4981 18.5288H20.2481C19.7105 18.5288 19.2733 18.9475 19.2733 19.4615V20.5617ZM35.272 18.5288C35.1968 18.5288 35.1094 18.5288 35.0342 18.5409C34.9842 18.5529 34.9595 18.6007 34.8843 18.792C34.8843 18.792 34.3592 20.2029 34.2845 20.3468C34.2719 20.3825 34.2345 20.4067 34.1845 20.4183C34.1346 20.4183 34.0972 20.3946 34.0846 20.3468C34.0098 20.2033 33.4848 18.792 33.4848 18.792C33.3975 18.6007 33.3848 18.565 33.3349 18.5409C33.2596 18.5288 33.1723 18.5288 33.0976 18.5288H32.4478V21.5302H32.5478C32.9229 21.5302 33.1102 21.3268 33.1102 20.9201V19.7721C33.1102 19.6885 33.1728 19.6643 33.2101 19.6643C33.2601 19.6643 33.3101 19.7001 33.3353 19.7479L33.8851 21.0994H34.4849L35.0347 19.7479C35.0473 19.7001 35.0973 19.6643 35.1599 19.6643C35.1973 19.6643 35.2598 19.6885 35.2598 19.7721V20.9201C35.2598 21.3268 35.4472 21.5302 35.8223 21.5302H35.9222V18.5288H35.2725H35.272ZM29.3849 21.4949H28.6973V18.493H28.7973C29.1724 18.493 29.3597 18.6964 29.3597 19.1031V20.3227C29.3597 20.3946 29.4723 20.4304 29.547 20.3463L30.8344 18.5288H31.522V21.5065H31.422C31.0469 21.5065 30.8596 21.3032 30.8596 20.8965V19.7126C30.8596 19.6411 30.747 19.6049 30.6723 19.689L29.3849 21.4949ZM16.3608 21.4949H15.6732V18.493H15.7732C16.1482 18.493 16.3356 18.6964 16.3356 19.1031V20.3227C16.3356 20.3946 16.4481 20.4304 16.5229 20.3463L17.8102 18.5288H18.4978V21.5065H18.3979C18.0228 21.5065 17.8355 21.3032 17.8355 20.8965V19.7126C17.8355 19.6411 17.7229 19.6049 17.6482 19.689L16.3608 21.4949Z" fill="white"/>
</g>
<defs>
<clipPath id="clip0_132_217">
<rect width="40" height="40" fill="white"/>
</clipPath>
</defs>
</svg>
