<svg width="40" height="40" viewBox="0 0 40 40" fill="none" xmlns="http://www.w3.org/2000/svg">
<g clip-path="url(#clip0_132_86)">
<circle cx="20" cy="20" r="20" fill="#074083"/>
<path opacity="0.68" d="M27.3199 15.0965C27.5647 13.5359 27.3183 12.4743 26.4742 11.5124C25.545 10.4536 23.8663 10 21.7185 10H15.4839C15.045 10 14.6711 10.3194 14.6029 10.7531L12.0066 27.2155C11.9555 27.5404 12.2066 27.834 12.5352 27.834H16.3842L16.1185 29.5186C16.0738 29.8028 16.2932 30.0596 16.5809 30.0596H19.8253C20.2092 30.0596 20.5361 29.7803 20.596 29.4009L20.6279 29.2358L21.239 25.3603L21.2784 25.1462C21.3383 24.767 21.6652 24.4872 22.0491 24.4872H22.5344C25.6774 24.4872 28.1384 23.2104 28.8574 19.5176C29.158 17.9746 29.0025 16.6865 28.2079 15.781C27.9678 15.5076 27.6687 15.2812 27.3199 15.0965Z" fill="white"/>
<path opacity="0.7" d="M27.3199 15.0965C27.5647 13.5359 27.3183 12.4743 26.4742 11.5124C25.545 10.4536 23.8663 10 21.7185 10H15.4839C15.045 10 14.6711 10.3194 14.6029 10.7531L12.0066 27.2155C11.9555 27.5404 12.2066 27.834 12.5352 27.834H16.3842L17.351 21.703L17.321 21.8952C17.3894 21.4617 17.7598 21.1421 18.1989 21.1421H20.0284C23.6211 21.1421 26.4344 19.6825 27.2562 15.4612C27.2807 15.3366 27.3013 15.2154 27.3199 15.0965Z" fill="white"/>
<path d="M18.3897 15.1172C18.4308 14.8565 18.5984 14.6427 18.8237 14.5349C18.9261 14.4858 19.0407 14.4584 19.1606 14.4584H24.0477C24.6268 14.4584 25.1666 14.4964 25.66 14.5759C25.801 14.5986 25.9383 14.6248 26.0717 14.6544C26.2049 14.684 26.3345 14.7169 26.4597 14.7537C26.5225 14.7719 26.584 14.7913 26.6446 14.8113C26.887 14.8918 27.1127 14.9866 27.3203 15.0967C27.5651 13.5361 27.3187 12.4745 26.4746 11.5126C25.545 10.4536 23.8663 10 21.7185 10H15.4839C15.045 10 14.6711 10.3194 14.6029 10.7531L12.0066 27.2155C11.9555 27.5404 12.2066 27.834 12.5352 27.834H16.3842L17.351 21.703L18.3897 15.1172Z" fill="white"/>
</g>
<defs>
<clipPath id="clip0_132_86">
<rect width="40" height="40" fill="white"/>
</clipPath>
</defs>
</svg>
