<svg width="40" height="41" viewBox="0 0 40 41" fill="none" xmlns="http://www.w3.org/2000/svg">
<circle cx="20" cy="20.5" r="20" fill="#1946B9"/>
<g clip-path="url(#clip0_1160_49)">
<path d="M5.35777 22.3758H4.55033V19.9141L2.7779 22.3758H2V18.6242H2.81729V21.0859L4.59956 18.6242H5.35777V22.3758ZM5.94858 18.634H6.77571V20.111H8.42998V18.634H9.25711V22.3758H8.42998V20.8693H6.77571V22.3758H5.94858V18.634ZM10.6652 22.3758H9.84792V18.6242H12.3884V19.3725H10.6652V22.3758ZM16.3567 20.5049C16.3567 19.3627 15.5295 18.5848 14.3873 18.5651H14.3676C13.2254 18.5749 12.3982 19.3627 12.3982 20.4951C12.3982 21.6373 13.2254 22.4152 14.3676 22.4251H14.3873C15.5295 22.4251 16.3567 21.6373 16.3567 20.5049ZM14.3775 21.6767C13.7177 21.6767 13.2549 21.2237 13.2549 20.5049C13.2549 19.7763 13.7177 19.3331 14.3775 19.3331C15.0372 19.3331 15.5 19.7861 15.5 20.5049C15.5 21.2237 15.0372 21.6767 14.3775 21.6767ZM24.9726 19.3922H23.7615V18.634H27.0011V19.3922H25.7998V22.3758H24.9726V19.3922ZM27.5033 18.634H29.1871C30.0832 18.634 30.6247 19.1658 30.6247 19.9338C30.6247 20.8003 29.9551 21.2533 29.1083 21.2533H28.3304V22.3758H27.5033V18.634ZM29.128 20.5148C29.5416 20.5148 29.7779 20.2686 29.7779 19.9338C29.7779 19.5695 29.5219 19.3627 29.1083 19.3627H28.3206V20.5049H29.128V20.5148ZM38 22.3758L36.6707 20.4557L37.9409 18.6242H36.9956L36.198 19.7763L35.4004 18.6242H34.4256L35.7057 20.4754L34.3764 22.3758H35.3217L36.1783 21.145L37.0252 22.3758H38ZM33.4508 22.3758H34.2877L32.6827 18.6045H31.9245L30.3195 22.3758H31.1565L31.5109 21.5093H33.0963L33.4508 22.3758ZM31.8063 20.7806L32.3085 19.6089L32.8107 20.7806H31.8063ZM18.6904 21.6767C18.0306 21.6767 17.5678 21.2237 17.5678 20.5049C17.5678 19.7763 18.0306 19.3331 18.6904 19.3331C19.035 19.3331 19.3206 19.4316 19.5667 19.6384L20.0788 19.1264C19.7341 18.7916 19.2713 18.5749 18.7002 18.5749H18.6805C17.5383 18.5848 16.7112 19.3725 16.7112 20.5049C16.7112 21.6472 17.5383 22.4251 18.6805 22.4349H18.7002C19.2615 22.4251 19.7243 22.2084 20.0788 21.8835L19.5667 21.3714C19.3206 21.5782 19.035 21.6767 18.6904 21.6767ZM22.1269 21.6767C21.4672 21.6767 21.0044 21.2237 21.0044 20.5049C21.0044 19.7763 21.4672 19.3331 22.1269 19.3331C22.4716 19.3331 22.7571 19.4316 23.0033 19.6384L23.5153 19.1264C23.1707 18.7916 22.7079 18.5749 22.1368 18.5749H22.1171C20.9748 18.5848 20.1477 19.3725 20.1477 20.5049C20.1477 21.6472 20.9748 22.4251 22.1171 22.4349H22.1368C22.698 22.4251 23.1608 22.2084 23.5153 21.8835L23.0033 21.3714C22.7571 21.5782 22.4716 21.6767 22.1269 21.6767Z" fill="white"/>
</g>
<defs>
<clipPath id="clip0_1160_49">
<rect width="36" height="3.8698" fill="white" transform="translate(2 18.5651)"/>
</clipPath>
</defs>
</svg>
