<svg width="40" height="40" viewBox="0 0 40 40" fill="none" xmlns="http://www.w3.org/2000/svg">
<circle cx="20" cy="20" r="20" fill="#294678"/>
<path fill-rule="evenodd" clip-rule="evenodd" d="M10.2679 14.7609L10 12L9.73212 14.7609L8.5 13.5L9.35328 15.1939L7 15.5L9.35328 15.8061L8.51026 16.9856C7.56219 18.2416 7 19.8051 7 21.5C7 25.6421 10.3579 29 14.5 29C18.6421 29 22 25.6421 22 21.5C22 17.3579 18.6421 14 14.5 14C13.1233 14 11.8333 14.3709 10.7243 15.0183L11.3957 13.5L10.2679 14.7609ZM9.77011 16.6307L10 19L10.2679 16.2391L11.3957 17L10.6467 15.8061L13 15.5L11.4037 15.2923C12.2912 14.7909 13.3316 14.5 14.5 14.5C18.5 14.5 21 17.9101 21 21.5C21 25.0899 18.0899 28 14.5 28C10.9101 28 8 25.0899 8 21.5C8 19.6944 8.63245 17.9343 9.77011 16.6307Z" fill="white"/>
<path d="M16.999 13C15.9999 16 17.9992 24.5 17.9992 24.5L20.999 25C20.999 25 23.887 17.6601 22.999 14C25.887 12.1601 25.9992 7.00001 25.9992 7.00001C25.9992 7.00001 18.0721 9.77788 16.999 13Z" fill="#294678"/>
<path fill-rule="evenodd" clip-rule="evenodd" d="M21.8586 13.5409L22.4617 13.1567C23.5724 12.4491 24.2402 11.0199 24.6133 9.56209C24.7061 9.19953 24.777 8.84993 24.8309 8.53063C24.1299 8.82433 23.2566 9.21548 22.3619 9.67945C21.3333 10.2128 20.3049 10.8279 19.4818 11.4848C18.6344 12.161 18.1233 12.7889 17.9478 13.316C17.7583 13.8851 17.6869 14.8258 17.7331 16.024C17.778 17.1917 17.9287 18.4955 18.1134 19.7267C18.2976 20.9547 18.5128 22.0931 18.6823 22.9255C18.7368 23.193 18.7864 23.4284 18.8287 23.6245L20.3481 23.8777C20.392 23.7545 20.4399 23.6181 20.4909 23.4701C20.7424 22.7405 21.068 21.7322 21.3657 20.615C21.6643 19.495 21.9301 18.283 22.0684 17.1425C22.2087 15.986 22.2077 14.9797 22.0272 14.2358L21.8586 13.5409ZM25.9992 7.00001C25.9992 7.00001 25.9897 7.43644 25.9052 8.10071C25.6992 9.72054 25.0471 12.6952 22.999 14C23.887 17.6601 20.999 25 20.999 25L17.9992 24.5C17.9992 24.5 15.9999 16 16.999 13C17.832 10.4987 22.7953 8.26518 24.9744 7.39098C25.6025 7.13904 25.9992 7.00001 25.9992 7.00001Z" fill="white"/>
<path d="M16 23C14.6588 22.7368 13.8201 22.6456 12.5 23C15.5 24.5 16.9721 28.3871 21 29.5C22.7043 29.9709 25.5 30 25.5 30C25.5 30 27 31.5 28 32L30 30C28.5 29.5 26 29 26 29C26 29 24.1303 27.0798 23.5 26C26 23 26.5 20 25.5 15.5C29.5 12.5 31.5 8.5 31.5 8.5L24.288 11.5909C22.6856 12.2776 21.8844 12.621 21.3986 13.2896C20.9129 13.9582 20.834 14.8263 20.6761 16.5625L20 24C20 24 17.4592 23.2864 16 23Z" fill="white"/>
</svg>
