<svg width="40" height="40" viewBox="0 0 40 40" fill="none" xmlns="http://www.w3.org/2000/svg">
<g clip-path="url(#clip0_409_458)">
<path d="M20.0003 40C31.0459 40 40 31.0459 40 20.0003C40 8.95413 31.0459 0 20.0003 0C8.95413 0 0 8.95413 0 20.0003C0 31.0459 8.95413 40 20.0003 40Z" fill="#C7003F"/>
<path fill-rule="evenodd" clip-rule="evenodd" d="M20.1212 11.7862C20.0552 11.8939 19.9811 11.9613 19.9912 12.0124C20.0013 12.0683 20.0929 12.1498 20.144 12.1471C20.1959 12.1431 20.2774 12.0515 20.2807 11.9949C20.2834 11.9417 20.2006 11.8845 20.1212 11.7862ZM23.6865 13.3012L23.7458 13.3336C23.8468 13.18 23.9545 13.0305 24.042 12.8696C24.0589 12.838 23.9936 12.7619 23.9666 12.7053C23.9074 12.743 23.8124 12.7679 23.7956 12.8198C23.7431 12.9747 23.7202 13.1396 23.6865 13.3012ZM16.5322 13.3383L16.5895 13.3073C16.5538 13.147 16.5302 12.9814 16.475 12.8279C16.4548 12.7733 16.3565 12.7471 16.2939 12.7067C16.2716 12.7652 16.2131 12.8427 16.2326 12.8777C16.3201 13.038 16.4306 13.1861 16.5322 13.3383ZM17.9126 20.267L17.9799 20.199L17.6985 19.6414L17.4136 19.9364L17.9133 20.2676L17.9126 20.267ZM17.7153 12.5478C17.4534 12.403 16.9073 12.4104 16.6952 12.5693C17.0487 12.642 17.3699 12.6743 17.7153 12.5478ZM14.589 12.133L14.5075 12.0825L14.0005 12.5606L14.5701 12.5175L14.589 12.1337V12.133ZM22.5856 12.5343C22.9075 12.6602 23.2293 12.6649 23.5505 12.5296C23.228 12.4218 22.9061 12.4124 22.5856 12.5343ZM25.7005 12.5215L26.2122 12.5552C26.0863 12.3532 25.9597 12.1707 25.6803 12.1101C25.687 12.2656 25.6938 12.3996 25.7005 12.5215ZM22.5762 19.6286L22.2961 20.201L22.36 20.2656L22.8098 19.9646L22.5762 19.628V19.6286ZM17.2042 12.1202C17.2931 11.933 17.3705 11.7929 17.4224 11.6441C17.4399 11.593 17.4015 11.4704 17.3712 11.4643C17.2617 11.4417 17.1488 11.4417 17.0393 11.4643C17.0083 11.4711 16.9692 11.5923 16.9867 11.6428C17.0345 11.7862 17.11 11.9202 17.2042 12.1209V12.1202ZM23.0643 12.1202C23.1552 11.931 23.2313 11.7977 23.2812 11.6556C23.3 11.6024 23.2677 11.4765 23.2421 11.4724C23.1264 11.4515 23.0079 11.4508 22.892 11.4704C22.8671 11.4744 22.8334 11.5997 22.8516 11.6522C22.9 11.795 22.9748 11.9283 23.0643 12.1202ZM19.9737 9.44499L20.1286 9.73116L20.3191 9.412L20.4713 9.39179C20.5474 9.16555 20.3353 9.2477 20.2552 9.1871L20.2262 8.96826H20.0444L20.0202 9.14872L19.7811 9.31167L19.9737 9.44499ZM17.0884 10.7681L16.8494 10.9284L17.0231 11.0408L17.1968 11.3371L17.3934 11.0361L17.5523 10.9338L17.3207 10.7722C17.318 10.6584 17.3248 10.5035 17.1019 10.5971L17.0884 10.7681ZM22.7627 25.6961C22.8751 25.8335 22.9728 25.9682 23.0872 26.0867C23.1384 26.1399 23.2354 26.2005 23.2919 26.1857C23.4259 26.1513 23.5478 26.0732 23.6825 26.0099C23.3795 25.7541 22.999 25.6302 22.7627 25.6961ZM22.9344 11.0321C22.9835 11.1701 22.8873 11.4024 23.1687 11.3128L23.1808 11.09L23.4232 10.9196L23.1855 10.7836L23.1613 10.5897C22.9014 10.4981 22.9829 10.7237 22.9357 10.8206C22.8388 10.853 22.659 10.7971 22.7458 11.0139L22.9344 11.0321ZM17.5456 25.6887C17.1483 25.6127 16.8797 25.8268 16.5733 25.9944C17.0292 26.2389 17.0278 26.2382 17.3349 25.886C17.3914 25.8214 17.4601 25.7675 17.5456 25.6887ZM19.7118 28.9201L20.1427 29.5234L20.5501 28.9201H19.7118ZM20.2895 11.3034C20.4565 11.3755 20.5157 11.3263 20.5326 11.1822C20.5548 10.9944 20.5844 10.8072 20.6215 10.622C20.6726 10.3641 20.7339 10.1082 20.7905 9.85102L20.7198 9.83082C20.4053 10.2685 20.3986 10.8004 20.2895 11.3034ZM15.9828 10.6193C15.8414 10.5924 15.7464 10.5425 15.6784 10.5675C15.4771 10.6408 15.2778 10.7291 15.0967 10.8415C15.0152 10.8927 14.9795 11.0172 14.9229 11.1088C15.032 11.1055 15.16 11.1378 15.2461 11.0913C15.4805 10.9654 15.6973 10.8058 15.9828 10.62V10.6193ZM24.3518 10.5971L24.3565 10.6509C24.5093 10.76 24.6568 10.8779 24.8157 10.9768C24.9255 11.0442 25.048 11.096 25.1712 11.1358C25.2224 11.1526 25.2904 11.1196 25.3503 11.1095C25.3268 11.0462 25.3227 10.9573 25.277 10.9243C25.114 10.8051 24.947 10.6799 24.7625 10.6058C24.6433 10.5587 24.4898 10.5971 24.3518 10.5971ZM19.9091 11.36L20.004 11.2879C19.905 10.8866 19.8128 10.484 19.701 10.086C19.6741 9.98972 19.5838 9.91094 19.5219 9.82408C19.5805 10.3055 19.6586 10.762 19.7515 11.2159C19.7629 11.2724 19.8545 11.3122 19.9091 11.36ZM18.2594 14.8553C18.3361 14.4405 17.8365 14.0217 17.2258 13.9786L18.2594 14.8553ZM23.0448 13.984L23.0044 13.9308C22.3849 14.0412 21.9271 14.4735 22.0213 14.8479L23.0448 13.984ZM23.1983 12.3114C23.3855 12.3875 23.4926 12.3404 23.57 12.1929C23.6347 12.0704 23.7229 11.9599 23.7801 11.834C23.8118 11.7633 23.8017 11.6738 23.8104 11.593C23.7202 11.5835 23.6118 11.5391 23.5444 11.5741C23.4445 11.6273 23.365 11.7121 23.3182 11.8152C23.2556 11.9673 23.2374 12.1384 23.1983 12.3114ZM19.1246 13.9086C19.299 14.3732 19.6135 14.6513 19.9535 14.6526C19.9218 14.1988 19.5939 13.8985 19.1239 13.9086H19.1246ZM17.0776 12.306C17.0305 12.1222 17.0103 11.9263 16.9255 11.7647C16.8716 11.6637 16.7275 11.5802 16.609 11.5526C16.4602 11.5169 16.3888 11.6293 16.4575 11.7694C16.5316 11.9189 16.6319 12.0555 16.71 12.2037C16.7841 12.3451 16.8871 12.3855 17.0776 12.3067V12.306ZM17.3376 12.3067C17.5207 12.3841 17.6251 12.3498 17.7012 12.207C17.7685 12.0778 17.8628 11.9619 17.9234 11.83C17.9557 11.7613 17.9759 11.636 17.9388 11.5997C17.8917 11.5526 17.7665 11.5377 17.7012 11.5674C17.6109 11.6084 17.5126 11.6906 17.4769 11.7788C17.4083 11.9444 17.3827 12.1276 17.3376 12.3067ZM22.9364 12.3074C22.8866 12.1188 22.8603 11.9202 22.7782 11.7485C22.7344 11.6569 22.6018 11.5788 22.4947 11.5526C22.323 11.5108 22.2449 11.6266 22.3243 11.7842C22.3957 11.9269 22.4913 12.0582 22.5661 12.2003C22.6395 12.3417 22.7405 12.3888 22.9364 12.308V12.3074ZM21.453 14.9752L22.2752 14.0554L22.1028 14.089L22.0294 13.8413C21.9149 13.949 21.8193 14.013 21.7581 14.1018C21.6503 14.2567 21.5763 14.4345 21.4685 14.5887C21.3641 14.7368 21.3736 14.8627 21.453 14.9752ZM21.1325 13.9113C20.6814 13.8904 20.2976 14.252 20.3285 14.6701C20.7023 14.6122 21.0423 14.2917 21.1325 13.9113ZM18.8203 14.9731C18.9038 14.8614 18.9105 14.7348 18.8041 14.5846C18.6876 14.419 18.6102 14.2264 18.4957 14.0587C18.4506 13.9921 18.357 13.9443 18.2762 13.9241C18.2479 13.9167 18.192 14.0183 18.1388 14.083L17.9994 14.0581L18.8203 14.9731ZM17.4419 25.4995C17.7523 25.6254 17.8749 25.5797 18.0405 25.3245C18.1058 25.2241 18.1994 25.1359 18.2977 25.0646C18.3873 24.9999 18.4997 24.9669 18.6028 24.9191L18.6075 24.8585C18.53 24.8302 18.4378 24.7595 18.3785 24.7804C17.9934 24.9184 17.6924 25.173 17.4419 25.4995ZM22.8469 25.5083C22.5869 25.2039 22.319 24.9595 21.9715 24.8033C21.8274 24.738 21.7405 24.7669 21.6867 24.8747C21.8719 25.0242 22.0792 25.1413 22.2173 25.3137C22.4206 25.5675 22.4718 25.6113 22.8469 25.5083ZM17.0696 26.7688C17.2197 26.5749 17.1369 26.4301 16.9814 26.3614C16.6427 26.2133 16.2912 26.0934 15.941 25.9742C15.8919 25.9574 15.805 25.9917 15.7633 26.0315C15.7222 26.0705 15.7161 26.1459 15.6939 26.2052C15.7592 26.2281 15.8225 26.2624 15.8892 26.2705C15.968 26.2806 16.0494 26.2671 16.1302 26.2651C16.2959 26.2604 16.4642 26.2517 16.4757 26.5021C16.7888 26.354 16.9436 26.5277 17.0696 26.7688ZM23.7996 26.5048C23.807 26.253 23.9747 26.2597 24.1403 26.2651C24.2353 26.2678 24.3329 26.2833 24.4245 26.2671C24.4811 26.257 24.5289 26.1985 24.58 26.1621C24.5167 26.0921 24.4292 25.9507 24.3935 25.9628C24.0005 26.0912 23.614 26.2386 23.2354 26.4045C23.0967 26.4665 23.0765 26.6153 23.2024 26.7728C23.3283 26.5129 23.4919 26.3574 23.7996 26.5048ZM26.7509 30.5045C26.8553 30.4378 26.9879 30.3968 27.0303 30.3126C27.0573 30.2567 26.9745 30.1146 26.9044 30.05C26.7972 29.9508 26.6713 29.8739 26.5341 29.8237C26.4371 29.7901 26.3159 29.8271 26.2055 29.8332C26.2351 29.9288 26.2526 30.0305 26.2991 30.118C26.3422 30.2001 26.4068 30.2776 26.4775 30.3375C26.5516 30.4008 26.6459 30.4419 26.7509 30.5038V30.5045ZM13.5136 30.4991C13.6133 30.4493 13.7035 30.4257 13.7628 30.3692C13.8584 30.2803 13.9405 30.1739 14.0119 30.0648C14.051 30.0042 14.057 29.9234 14.0779 29.8507C13.9904 29.8305 13.8887 29.7699 13.8193 29.7968C13.6577 29.8574 13.5008 29.9449 13.3655 30.0527C13.2934 30.1092 13.212 30.2587 13.2396 30.3133C13.2833 30.3981 13.416 30.4378 13.5136 30.4991ZM21.0382 15.1927L21.688 13.8035C21.0497 14.0197 20.7716 14.6924 21.0382 15.1927ZM19.2404 15.2034C19.4896 14.6573 19.1805 13.9396 18.594 13.8264L19.2404 15.2034ZM18.5624 12.6043C19.0337 12.6804 19.6835 12.3808 19.738 11.9478C19.2862 11.8636 18.6775 12.1835 18.5624 12.605V12.6043ZM21.723 12.605C21.5244 12.1431 20.9689 11.8508 20.5258 11.9619C20.6376 12.4165 21.2483 12.669 21.723 12.605ZM26.9165 29.5234C26.9165 29.5288 26.9152 29.5342 26.9139 29.5396C26.8411 29.5396 26.7664 29.5295 26.6964 29.543C26.6472 29.5524 26.5859 29.5854 26.5651 29.6258C26.5502 29.6547 26.5819 29.7355 26.6149 29.7551C26.8337 29.881 27.0492 30.0237 27.2849 30.1086C27.4667 30.1739 27.5239 29.9887 27.5737 29.854C27.6276 29.7073 27.5394 29.6325 27.4101 29.6049C27.2472 29.5712 27.0815 29.5497 26.9165 29.5234ZM12.6841 29.7477C12.6908 29.9631 12.8524 30.1631 12.9716 30.1126C13.212 30.0116 13.4443 29.885 13.6624 29.7423C13.7594 29.679 13.7419 29.545 13.6018 29.5483C13.3338 29.5551 13.0659 29.5928 12.7999 29.6332C12.748 29.6413 12.7083 29.7227 12.6841 29.7477ZM22.0792 15.9024L22.1237 15.9158C22.2011 15.7212 22.3082 15.5334 22.3513 15.332C22.4321 14.9523 22.5735 14.6371 23.0078 14.522C22.7681 14.4136 22.7566 14.4008 22.6071 14.5294C22.3809 14.7247 22.1708 14.9368 21.958 15.1469C21.9351 15.1698 21.9318 15.2277 21.9399 15.2654C21.983 15.4782 22.0321 15.6896 22.0792 15.9024ZM20.9197 11.6488C20.6417 11.4024 19.6121 11.4051 19.3657 11.6414C19.6135 11.8583 20.5878 11.869 20.9197 11.6482V11.6488ZM18.1483 15.9205L18.1961 15.9003C18.2439 15.6828 18.2937 15.4654 18.3381 15.2472C18.3449 15.2155 18.3402 15.1677 18.3206 15.1489C18.1011 14.9361 17.8857 14.72 17.654 14.5213C17.5119 14.3988 17.4877 14.4116 17.2796 14.5281C17.6702 14.6358 17.8284 14.9098 17.9032 15.2755C17.9483 15.4977 18.0648 15.7064 18.1483 15.9205ZM23.0536 25.1117L23.0879 25.0383C22.8219 24.67 22.457 24.4229 22.0651 24.2L21.9176 24.6915L23.0536 25.111V25.1117ZM18.2021 24.1919C17.8197 24.4343 17.4399 24.6646 17.1557 25.0888C17.6109 24.9959 18.0021 24.8821 18.3415 24.6491L18.2021 24.1919ZM20.1111 10.9371L20.1636 10.9297C20.2511 10.6772 20.3602 10.4294 20.4174 10.1702C20.4396 10.0692 20.3737 9.9096 20.2935 9.84024C20.2302 9.78503 20.0464 9.78368 19.9824 9.83688C19.901 9.90488 19.8323 10.0645 19.8538 10.1634C19.9124 10.4274 20.0222 10.6799 20.1111 10.9371ZM23.3525 18.8361L22.6348 18.892C22.6334 19.2233 22.5513 19.5768 22.964 19.8313L23.3525 18.8361ZM17.3059 19.8259C17.6379 19.601 17.7254 19.2832 17.6116 18.89L16.9154 18.8361L17.3059 19.8259ZM22.9034 17.173C22.3728 17.1305 22.084 16.804 21.8779 16.3508C21.748 16.8343 21.9452 17.344 22.288 17.4618C22.5445 17.5507 22.7768 17.4484 22.9034 17.1723V17.173ZM17.3679 17.1743C17.4722 17.5278 17.9429 17.5608 18.1604 17.3581C18.3994 17.1353 18.5125 16.6962 18.3866 16.3656C18.186 16.8141 17.891 17.1332 17.3679 17.1736V17.1743ZM20.144 17.4335C20.5837 17.0376 20.579 16.8383 20.1286 16.2969C19.7057 16.911 19.707 17.1002 20.144 17.4335ZM17.3631 14.2641C17.0669 13.8291 16.9255 13.786 16.5881 14.0062C16.2541 14.2237 16.1949 14.5166 16.4306 14.8829C16.6056 14.4803 16.9268 14.2991 17.3631 14.2634V14.2641ZM22.8893 14.2614C23.3418 14.2971 23.6704 14.4782 23.8454 14.8917C24.135 14.4021 23.8522 13.8857 23.3148 13.8682C23.2758 13.8668 23.2246 13.8817 23.1997 13.9079C23.1 14.0116 23.0091 14.1234 22.8899 14.2614H22.8893ZM22.2415 26.5688C22.3897 26.8583 22.6119 26.9587 22.8388 26.857C23.0408 26.7661 23.1371 26.4819 22.993 26.2503C22.8644 26.0481 22.702 25.8695 22.5129 25.7224C22.3715 25.612 22.187 25.6241 22.0873 25.7763C22.2725 25.884 22.4731 25.9614 22.6166 26.0981C22.6947 26.1729 22.7236 26.3641 22.6852 26.4718C22.663 26.5358 22.4678 26.5392 22.3493 26.5681C22.3223 26.5749 22.2927 26.5688 22.2415 26.5688ZM18.2217 25.8214C18.0351 25.647 17.953 25.6086 17.7954 25.6975C17.522 25.8524 17.2985 26.0672 17.2264 26.387C17.1726 26.6233 17.2924 26.824 17.4904 26.8752C17.7281 26.9364 17.9274 26.8233 18.0136 26.5668L17.8601 26.5829C17.5934 26.6119 17.4561 26.4415 17.5847 26.2099C17.654 26.086 17.786 25.9884 17.9079 25.9069C17.986 25.8544 18.0984 25.8524 18.2223 25.8214H18.2217ZM18.8782 15.1691C18.4789 15.359 18.4742 16.134 18.6371 16.6262C19.1515 16.1219 19.2222 15.7057 18.8782 15.1691ZM21.6416 16.6545C21.8079 15.9919 21.7594 15.3112 21.3884 15.1758C21.0551 15.7044 21.1036 15.9993 21.6416 16.6545ZM18.8364 23.5536C18.689 23.7354 18.5624 23.8835 18.4452 24.0384C18.3085 24.2195 18.3536 24.4006 18.4836 24.5575C18.5523 24.641 18.656 24.6962 18.7435 24.7642C18.8559 24.6107 18.9765 24.4626 19.0761 24.301C19.1031 24.2572 19.0815 24.1703 19.0606 24.1118C18.996 23.9347 18.9213 23.7616 18.8364 23.5529V23.5536ZM21.4355 23.5522C21.3507 23.7603 21.2739 23.932 21.212 24.1084C21.1352 24.3245 21.2928 24.6626 21.5042 24.7514C21.5296 24.7627 21.5578 24.7658 21.585 24.7602C21.8261 24.6915 21.9789 24.2538 21.8288 24.0431C21.7163 23.8842 21.5857 23.7381 21.4349 23.5515L21.4355 23.5522ZM20.6087 18.6408C20.8861 18.4867 21.1803 18.3338 21.1898 17.9897C21.2005 17.5857 20.9056 17.3352 20.6396 17.0423C20.5406 17.3029 20.5137 17.5197 20.6464 17.7318C20.7851 17.9561 20.7743 18.1884 20.6908 18.4254C20.6652 18.4981 20.6363 18.5688 20.6087 18.6408ZM18.9159 16.8363C18.8223 17.3258 18.6546 17.7574 18.3758 18.1432C18.3462 18.1836 18.3449 18.2692 18.3664 18.3183C18.4183 18.4355 18.4923 18.5432 18.5624 18.6644C19.0512 17.8948 19.2714 17.1898 18.9159 16.837V16.8363ZM22.4644 32.2195V31.262L22.1775 31.4283L21.9587 31.1388C21.7217 31.4048 21.7217 31.4048 21.8328 31.6579L21.5594 31.8633L22.4637 32.2195H22.4644ZM19.6801 17.076L19.5926 17.0619C19.367 17.3622 19.0472 17.616 19.0795 18.0503C19.095 18.2611 19.4229 18.5755 19.6868 18.6597C19.4929 18.3089 19.4687 17.9783 19.6666 17.616C19.7441 17.4766 19.6801 17.2591 19.6801 17.076ZM15.9229 25.8052C16.1922 25.9177 16.4393 26.0382 16.7066 25.8207C16.7888 25.7534 16.914 25.7386 16.9995 25.6739C17.1908 25.5285 17.3699 25.3669 17.553 25.2113L17.5012 25.1366C16.9726 25.3373 16.3322 25.2625 15.9222 25.8052H15.9229ZM18.4816 23.767C18.9266 23.2115 19.025 22.856 18.6122 22.3887C18.1435 22.7752 18.0991 23.2411 18.4816 23.767ZM21.3534 16.841C20.9918 17.1858 21.2275 17.8827 21.7015 18.6658C21.756 18.5782 21.816 18.5048 21.851 18.4213C21.8846 18.3405 21.9405 18.2173 21.9069 18.1682C21.631 17.7697 21.4424 17.3174 21.3534 16.841ZM22.727 25.1218C22.9256 25.5224 23.267 25.6436 23.5687 25.8315C23.8589 26.0119 24.0831 25.9103 24.3504 25.8059C23.9377 25.2652 23.3007 25.3346 22.7263 25.1218H22.727ZM21.6463 22.3873C21.2719 22.854 21.3157 23.2007 21.7985 23.761C22.1674 23.1927 22.1149 22.724 21.6463 22.3873ZM15.9619 12.4198C15.7929 12.172 15.8508 11.9653 15.9713 11.7552C16.0616 11.5977 16.1498 11.4354 16.2124 11.2657C16.2979 11.0334 16.2339 10.8886 16.0279 10.7418C15.9626 10.8752 15.9 11.0125 15.8286 11.1459C15.735 11.3189 15.6185 11.4819 15.539 11.6616C15.37 12.0454 15.5108 12.308 15.9619 12.4198ZM24.3073 12.4165C24.7295 12.3262 24.8763 12.0933 24.7591 11.731C24.7255 11.6286 24.6669 11.5337 24.6151 11.4381C24.4878 11.2051 24.3578 10.9735 24.2312 10.7439C24.0272 10.9102 23.9727 11.0516 24.0649 11.2926C24.1276 11.4542 24.2158 11.6071 24.3013 11.7586C24.4191 11.9673 24.4838 12.1741 24.308 12.4165H24.3073ZM22.0489 22.5988C22.5203 22.114 22.5539 21.4918 22.1318 21.0487C21.6254 21.6736 21.5864 21.8931 22.0489 22.5988ZM18.2203 22.5981C18.6883 21.9093 18.6398 21.6352 18.1207 21.0447C17.7214 21.6419 17.7503 22.1032 18.2203 22.5981ZM20.1407 16.0384C20.2875 15.7717 20.439 15.5401 20.5447 15.2896C20.6403 15.0647 20.3137 14.6715 20.0989 14.7233C19.7959 14.7961 19.6256 15.1226 19.7629 15.4027C19.8653 15.6101 19.9986 15.802 20.1407 16.0384ZM14.8873 13.1982C14.9546 12.9504 15.0489 12.7309 15.0684 12.5047C15.0886 12.2724 15.0616 12.0286 15.0105 11.8003C14.9539 11.5492 14.8462 11.3088 14.7593 11.0597C14.4327 11.125 14.3917 11.1876 14.488 11.5175C14.5061 11.5808 14.5203 11.6482 14.5546 11.702C14.7189 11.9646 14.7337 12.2474 14.7014 12.5451C14.6765 12.772 14.729 12.9875 14.8873 13.1982ZM25.4857 11.0556C25.4453 11.224 25.4406 11.4138 25.3564 11.5573C25.0325 12.1108 25.2103 12.64 25.3921 13.1935C25.5449 12.9679 25.6035 12.7356 25.5665 12.4798C25.5308 12.2347 25.553 12.0017 25.6803 11.7815C25.7274 11.7007 25.7557 11.6078 25.7826 11.5169C25.8789 11.189 25.8338 11.1216 25.4864 11.0556H25.4857ZM23.0933 29.5726C23.803 29.8153 24.5438 29.9547 25.2931 29.9867C25.5227 29.9961 25.5624 29.9288 25.4803 29.6817C24.7915 29.6951 24.1175 29.5699 23.4596 29.3672C23.2576 29.3046 23.1606 29.3538 23.0933 29.5726ZM17.1793 29.5739C17.1073 29.3625 17.0096 29.2777 16.8123 29.3699C16.7185 29.411 16.6195 29.4393 16.5181 29.4541C15.939 29.5517 15.3579 29.646 14.764 29.7436C14.7304 29.9221 14.7573 29.9894 14.9101 29.986C15.6818 29.9705 16.4299 29.8211 17.1793 29.5739ZM21.0039 11.4758C21.1386 11.0853 21.2753 10.7048 21.3985 10.3203C21.4497 10.1594 21.3157 10.0981 21.1985 10.0577C21.0733 10.0153 20.909 9.98366 20.8618 10.15C20.7514 10.5439 20.6693 10.9459 20.5757 11.3452L21.0039 11.4758ZM19.268 11.4778L19.6653 11.3499C19.6438 11.1957 19.6323 11.0576 19.604 10.923C19.5508 10.6738 19.4983 10.4227 19.4256 10.1789C19.3731 10.0025 19.2209 10.0059 19.0802 10.0557C18.9569 10.0995 18.8176 10.1567 18.8768 10.3351C19.0021 10.7136 19.134 11.0893 19.2674 11.4778H19.268ZM20.1319 20.1902L20.4875 19.6771C20.5077 19.6475 20.5238 19.6145 20.5427 19.5829C20.6538 19.4037 20.6423 19.2327 20.4848 19.09C20.2855 18.9095 20.0148 18.9102 19.798 19.0785C19.6417 19.1997 19.6101 19.3856 19.7313 19.5862C19.8511 19.7855 19.9872 19.9747 20.1319 20.1902ZM17.7948 29.2817C18.6189 28.8319 19.2108 28.1943 19.6949 27.4186C19.3677 27.3849 19.3838 27.399 19.2128 27.5963C18.9112 27.9431 18.6001 28.2838 18.2674 28.601C18.0856 28.7754 17.852 28.8959 17.6318 29.0474L17.7948 29.2817ZM20.6093 27.4098C20.7703 27.937 21.8577 29.0171 22.4859 29.2615L22.6448 29.0299C22.0164 28.6911 21.4778 28.2073 21.0739 27.6185C20.9473 27.4381 20.8214 27.3546 20.6093 27.4098ZM23.5936 24.5993C24.0245 24.2357 24.4124 22.9738 24.2912 22.4466L24.2319 22.4291L23.836 23.767L23.774 23.7529V23.0593C23.5485 23.0701 23.4865 23.2135 23.4791 23.3967C23.4717 23.5717 23.4542 23.7488 23.4724 23.9219C23.4946 24.1394 23.5478 24.3535 23.5936 24.5993ZM20.1414 22.7987C20.6565 22.0958 20.6491 21.7281 20.1198 21.2622C19.598 21.9806 19.5986 22.147 20.1414 22.7987ZM18.9448 31.1267C18.689 31.4095 18.689 31.4095 18.8835 31.6795C19.0027 31.8458 19.1206 32.0128 19.2404 32.1778C19.3145 32.2794 19.3933 32.3777 19.4828 32.4963L19.9117 31.7401C20.0821 31.4384 20.0781 31.4081 19.8309 31.1361L19.4438 31.8041L18.9448 31.1267ZM15.9316 22.4042C16.0461 23.194 16.0676 23.9643 16.6359 24.5959C16.8393 24.1879 16.8204 23.7832 16.7901 23.3745C16.776 23.1772 16.6891 23.0694 16.4898 23.0593V23.7569L16.4279 23.767C16.3625 23.5394 16.2824 23.3145 16.236 23.0829C16.1895 22.8472 16.1538 22.6149 15.9316 22.4042ZM14.0126 20.2744C13.7365 20.4427 13.4598 20.5781 13.2281 20.7679C13.117 20.8588 13.0726 21.0487 13.0322 21.2022C12.9992 21.3295 13.078 21.3942 13.2207 21.3942C13.6523 21.3942 13.9446 21.1625 14.1823 20.838C14.2052 20.8063 14.2004 20.741 14.1863 20.6993C14.1432 20.5767 14.0887 20.4589 14.0126 20.2751V20.2744ZM27.2061 21.3652C27.4242 20.9881 26.959 20.506 26.2324 20.341C26.1819 20.4616 26.1267 20.5794 26.0843 20.702C26.0688 20.7477 26.0707 20.7976 26.0897 20.842C26.2809 21.211 26.7859 21.4453 27.2061 21.3652ZM22.2126 20.0704C22.2893 19.8993 22.3701 19.7391 22.4341 19.5721C22.6307 19.0556 22.5284 18.7365 22.0705 18.4119C21.682 18.9533 21.7325 19.6219 22.2126 20.0704ZM19.5057 24.3245C19.2057 24.7054 18.8103 25.0002 18.3597 25.179C18.2748 25.2127 18.2129 25.315 18.151 25.3945C18.0796 25.4867 18.1105 25.5581 18.2048 25.6302C18.4203 25.7958 18.66 25.7978 18.9058 25.6073C19.3219 25.2854 19.4848 24.8403 19.5064 24.3245H19.5057ZM18.0331 20.1128C18.4849 19.6482 18.6694 18.8449 18.1813 18.4119C17.9725 18.6314 17.648 18.7903 17.7523 19.1775C17.8331 19.4765 17.9294 19.7707 18.0331 20.1135V20.1128ZM20.7999 29.3713C20.639 29.6568 20.5178 29.9146 20.3575 30.1456C20.1871 30.39 20.2329 30.5833 20.443 30.7907L20.8342 30.1187L21.3439 30.8681C21.4066 30.7045 21.6348 30.6392 21.5042 30.4372C21.282 30.0938 21.0537 29.7557 20.7999 29.3713ZM20.7642 24.3239C20.7777 24.7555 20.8867 25.1575 21.2126 25.4618C21.3406 25.581 21.5049 25.6786 21.6705 25.7365C21.8442 25.7971 22.1823 25.6308 22.1472 25.5319C22.0974 25.3891 21.9883 25.2181 21.8597 25.1608C21.4329 24.9735 21.0572 24.6865 20.7642 24.3239ZM20.3622 17.5696H19.9171C19.6377 17.9197 19.5953 18.218 19.835 18.5621C20.0531 18.8752 20.2222 18.8785 20.4343 18.5627C20.6457 18.2496 20.68 17.9264 20.3622 17.5696ZM20.8571 15.2088L20.7507 15.198C20.639 15.4943 20.507 15.7852 20.4269 16.0902C20.3966 16.2047 20.4572 16.3683 20.5272 16.4774C20.6598 16.6855 20.8288 16.87 20.9891 17.072C21.1372 16.909 21.2463 16.7286 21.1978 16.5158C21.0982 16.0768 20.9723 15.6438 20.8571 15.2088ZM19.2842 17.0713C19.4478 16.8646 19.6121 16.6781 19.7488 16.472C19.8141 16.375 19.8794 16.2276 19.8525 16.1279C19.767 15.8115 19.6377 15.5071 19.5259 15.1974L19.4404 15.2088C19.3212 15.5805 19.1859 15.9481 19.0882 16.3252C19.0196 16.5878 19.0627 16.8484 19.2842 17.0713ZM19.1361 21.0844C18.5321 21.7187 18.5489 22.3375 19.1697 22.687C19.6835 21.9658 19.6343 21.7389 19.1361 21.0844ZM21.15 21.0864C20.6181 21.6931 20.6147 22.2022 21.1285 22.6937C21.7581 22.1308 21.7264 21.712 21.15 21.0864ZM19.7326 21.4601C20.1555 20.7417 20.1178 20.3626 19.5704 19.7243C19.0539 20.2057 19.1239 20.9996 19.732 21.4601H19.7326ZM20.6511 19.6744C20.5056 19.9875 20.2908 20.2656 20.2653 20.5599C20.2397 20.8562 20.4033 21.1679 20.4908 21.4978C21.1527 20.9982 21.2248 20.2232 20.6511 19.6744ZM19.3636 24.1872C19.9878 23.8155 20.0841 22.8439 19.5347 22.4412C18.9771 23.0176 18.9509 23.2856 19.3636 24.1872ZM20.9002 24.2087C21.311 23.2809 21.28 22.9637 20.7319 22.4405C20.1959 22.8681 20.2626 23.6276 20.9002 24.2087ZM14.0994 19.8818C13.8079 19.832 13.5338 19.7842 13.2598 19.7391C13.2355 19.7357 13.2052 19.7472 13.1817 19.7593C12.9568 19.8805 12.7278 19.9963 12.509 20.1276C12.2491 20.2838 12.2545 20.3963 12.5191 20.541C12.5637 20.5657 12.6112 20.5847 12.6605 20.5976C13.0914 20.7067 13.8106 20.4212 14.0388 20.0475C14.0752 19.9889 14.0873 19.9155 14.0994 19.8818ZM26.1671 19.8852C26.1994 19.9458 26.2324 20.0522 26.3011 20.1256C26.434 20.2734 26.5951 20.3933 26.7748 20.4782C26.9546 20.563 27.1495 20.6112 27.3482 20.6198C27.5111 20.6265 27.6882 20.5525 27.8404 20.4764C27.9979 20.3989 27.9932 20.271 27.8384 20.1794C27.5858 20.0313 27.3286 19.8912 27.0728 19.7492C27.0547 19.7385 27.0337 19.7338 27.0128 19.7357C26.7388 19.7828 26.4654 19.832 26.1671 19.8852ZM13.6207 21.8702C14.1621 21.9887 14.9021 21.514 15.0239 21.0757C15.0643 20.9289 15.0307 20.7612 15.0307 20.6111C14.3048 20.772 13.8362 21.1672 13.6207 21.8702ZM25.2568 20.6252C25.1645 20.7962 25.1807 20.9928 25.2837 21.1672C25.5517 21.6211 25.9631 21.8581 26.4863 21.9039C26.6149 21.9153 26.664 21.8534 26.6169 21.7302C26.5906 21.6623 26.5601 21.5962 26.5253 21.5322C26.2533 21.0292 25.8352 20.7215 25.2568 20.6252ZM19.0936 20.0326C19.2229 19.8374 19.3475 19.6522 19.468 19.4637C19.4947 19.421 19.5126 19.3734 19.5205 19.3236C19.5845 18.9196 19.3751 18.5473 18.9899 18.3742C18.4647 18.9331 18.4863 19.2967 19.0936 20.0326ZM21.2584 18.3345C21.1292 18.4597 20.9918 18.56 20.8968 18.6913C20.7352 18.9136 20.6693 19.1782 20.7891 19.434C20.8894 19.6462 21.0457 19.8313 21.1763 20.0266C21.8025 19.3223 21.8254 19.0179 21.2584 18.3345ZM21.7318 19.6899C21.1076 20.2858 21.0625 20.912 21.6153 21.3915C21.888 21.1558 22.0848 20.8446 22.1809 20.4973C22.1982 20.4298 22.189 20.3582 22.1553 20.2973C22.0227 20.0899 21.8745 19.8912 21.7318 19.6899ZM18.5428 19.6852C18.3947 19.8939 18.2546 20.0892 18.1186 20.2885C18.0917 20.3276 18.0594 20.3855 18.0695 20.4245C18.1705 20.8131 18.3617 21.145 18.6802 21.4049C19.2094 20.6622 19.1845 20.37 18.5428 19.6852ZM23.263 13.7578C23.5337 13.852 23.7074 13.9577 23.9619 13.8446C24.1383 13.7665 24.3908 13.8029 24.5935 13.8514C24.8272 13.9086 24.9356 13.9133 25.0042 13.683C25.0527 13.5201 25.0595 13.3181 25.0063 13.1598C24.9261 12.9201 24.4514 12.8582 24.2925 13.0184C24.1377 13.1746 23.9518 13.3012 23.772 13.4305C23.6225 13.5382 23.4623 13.6312 23.263 13.7578ZM17.0042 13.7564C16.8191 13.6352 16.6831 13.5255 16.5302 13.45C16.3114 13.3423 16.0925 13.246 15.9693 13.0164C15.9505 12.9807 15.8905 12.9511 15.8468 12.9471C15.6333 12.9282 15.4145 12.9134 15.2744 13.1262C15.1478 13.3187 15.1748 13.6076 15.331 13.8029C15.4104 13.9032 15.4825 13.9247 15.6273 13.8803C15.8333 13.817 16.0905 13.7618 16.277 13.8332C16.5289 13.9288 16.7201 13.8803 17.0042 13.7564ZM15.2455 20.8555C14.8482 21.3315 14.9256 22.1826 15.4286 22.5637C15.8515 22.1799 15.9673 21.4413 15.7087 20.9632L15.2455 20.8555ZM24.5578 20.9646C24.31 21.547 24.4366 22.2628 24.8622 22.5658C25.3672 22.0736 25.4251 21.2447 25.017 20.8568L24.5578 20.9646ZM24.9295 24.7851C25.3133 24.4148 25.4884 22.8876 25.2386 22.3335C25.0117 22.59 25.0164 22.5893 25.046 22.9125C25.0729 23.2135 25.0675 23.5138 24.9066 23.7987C24.8224 23.4943 24.7571 23.1879 24.7585 22.8816C24.7598 22.6594 24.6561 22.5436 24.4743 22.3867C24.5706 23.2243 24.5625 24.0296 24.9295 24.7851ZM15.7922 22.3745C15.6057 22.5604 15.504 22.687 15.5128 22.92C15.5236 23.2122 15.4441 23.5078 15.4037 23.802L15.3115 23.7953C15.2084 23.499 15.1808 23.1893 15.2387 22.8809C15.2832 22.6425 15.1876 22.4803 15.0266 22.3187C15.0085 22.349 14.9896 22.3658 14.9896 22.384C14.9876 22.9233 14.9694 23.464 14.9957 24.0027C15.0085 24.2788 15.0778 24.5616 15.3438 24.7898C15.7033 24.0242 15.7081 23.2243 15.7922 22.3745ZM20.1447 25.6268C20.6672 24.4686 20.6592 23.8694 20.1272 23.4182C19.5219 24.1118 19.6606 24.6922 20.1447 25.6268ZM11.4229 17.177C11.5892 17.8436 12.6901 18.1857 13.3944 17.8113C13.2598 17.5824 13.1251 17.3541 12.9965 17.1379C12.7305 17.1124 12.4605 17.1043 12.1966 17.0571C11.9178 17.0073 11.6633 17.0309 11.4222 17.177H11.4229ZM26.8876 17.8147C27.5569 18.189 28.6746 17.8456 28.8517 17.1777C28.6417 17.0477 28.4141 17.0093 28.1649 17.0403C27.9057 17.072 27.6444 17.0868 27.3838 17.1164C27.3293 17.1231 27.2532 17.1474 27.229 17.1884C27.1078 17.3925 27 17.6046 26.8876 17.8147ZM26.8506 26.1237C26.8714 26.1204 26.9091 26.1183 26.9428 26.1055C27.1809 26.0207 27.3996 25.8892 27.5862 25.7188C27.7728 25.5484 27.9236 25.3424 28.0296 25.113C28.0727 25.0221 28.0329 24.8296 27.9589 24.7615C27.8761 24.6848 27.6895 24.6397 27.5865 24.6794C27.1145 24.8639 26.7549 25.1965 26.5287 25.649C26.4122 25.882 26.5893 26.1305 26.8506 26.1237ZM29.2638 18.5574C28.9918 18.1641 28.6161 18.0321 28.1636 18.0308C27.6842 18.0301 27.3791 18.2584 27.2034 18.6873C27.7131 19.0085 28.6881 19.096 29.2638 18.5574ZM13.0605 18.6806C12.8679 18.1116 12.4154 17.9931 11.8936 18.0409C11.5266 18.0746 11.2115 18.2254 11.0135 18.5594C11.5697 19.0361 12.5339 19.0805 13.0605 18.6806ZM12.5911 24.6504C12.2949 24.6471 12.1238 24.9009 12.2464 25.142C12.4686 25.5797 12.8187 25.8941 13.2706 26.088C13.42 26.152 13.5789 26.1567 13.6927 26.0153C13.8072 25.8739 13.7971 25.7177 13.7049 25.5662C13.4822 25.2024 13.1641 24.9066 12.7851 24.711C12.7157 24.6747 12.6329 24.6632 12.5911 24.6504ZM16.0084 20.5787C15.9626 20.739 15.9101 20.8481 15.9027 20.9605C15.8575 21.5921 15.9027 22.2049 16.339 22.7193C16.5228 22.9368 16.7544 23.0459 17.077 23.0337C16.6757 22.2419 16.7262 21.2958 16.0084 20.5787ZM19.266 25.68C19.1919 25.744 19.0916 25.7998 19.0371 25.8854C18.7967 26.2651 18.4715 26.5499 18.0944 26.789C17.9476 26.8826 17.815 27.0139 17.7927 27.2704C17.9671 27.2058 18.1341 27.1863 18.2398 27.0954C18.4822 26.8873 18.6937 26.6449 18.9172 26.4166L19.1664 26.1628L19.2525 26.218C19.1616 26.4092 19.1031 26.6274 18.9718 26.7856C18.8014 26.9903 18.5779 27.1533 18.3691 27.3243C18.1752 27.4819 17.9819 27.6354 17.9402 27.9343C18.0277 27.9215 18.0984 27.9189 18.1658 27.9007C18.7125 27.7566 19.0276 27.36 19.2943 26.8947C19.5286 26.486 19.5744 26.0961 19.266 25.68ZM22.4954 27.2354C22.4327 26.993 22.2866 26.8516 22.1149 26.7418C21.7897 26.5345 21.5015 26.2968 21.2948 25.9635C21.2234 25.8483 21.1002 25.7648 20.9898 25.6564C20.9022 25.8611 20.8302 26.02 20.7676 26.1816C20.75 26.2289 20.7477 26.2804 20.7608 26.3291C20.9157 26.8422 21.1494 27.3095 21.5837 27.6462C21.7978 27.8118 22.0361 27.9337 22.3378 27.9236C22.2839 27.6381 22.0947 27.4839 21.9028 27.3209C21.6638 27.1189 21.4241 26.9136 21.2227 26.6772C21.1184 26.5553 21.0962 26.3634 21.0369 26.2032L21.111 26.1634C21.5433 26.5405 21.7708 27.1916 22.4954 27.2347V27.2354ZM16.8878 17.4396C16.6494 17.7103 16.6723 18.1904 16.9295 18.4678C17.1551 18.7115 17.4493 18.7796 17.6991 18.6079C18.3469 18.1634 18.6371 17.5036 18.8135 16.7427C18.5375 17.0619 18.3051 17.3743 18.0284 17.6396C17.681 17.9729 17.2029 18.1311 16.9154 17.4625C16.9127 17.4571 16.9046 17.4531 16.8878 17.4396ZM23.3795 17.4315L23.3168 17.5393C23.0818 17.9655 22.7957 18.0476 22.4031 17.7581C22.1823 17.5951 22.0011 17.377 21.8139 17.173C21.7042 17.0531 21.6173 16.9117 21.5204 16.7804C21.6234 17.4652 21.8968 18.0564 22.4267 18.5055C22.7465 18.7762 23.0522 18.7641 23.3249 18.486C23.5956 18.2106 23.6293 17.7251 23.3795 17.4315ZM24.2265 20.6124C23.5492 21.2992 23.5936 22.2446 23.193 23.0405C23.5364 23.0351 23.7734 22.922 23.9592 22.689C24.4056 22.1281 24.4238 21.477 24.3565 20.8104C24.3498 20.7444 24.2757 20.6851 24.2265 20.6124ZM26.7408 18.9735C26.9179 19.2974 27.0755 19.6098 27.4121 19.7741C27.8148 19.97 28.2249 20.104 28.6753 19.9357C28.7898 19.8926 28.8605 19.8212 28.7709 19.7088C28.6194 19.5189 28.4868 19.2751 28.2848 19.1701C27.8121 18.9257 27.2882 18.8806 26.7408 18.9735ZM13.5136 18.9735C13.0793 18.8812 12.6578 18.9486 12.239 19.0583C11.9501 19.1337 11.7272 19.298 11.5757 19.5579C11.4027 19.8542 11.431 19.9189 11.771 19.9875C12.478 20.1303 13.2187 19.702 13.5136 18.9735ZM29.1561 15.4613C28.241 15.6768 27.5138 16.1569 26.8229 16.7366C27.9966 17.1797 28.8073 16.7393 29.1561 15.4613ZM11.1293 15.4667C11.3704 16.6828 12.3158 17.1992 13.4483 16.7312C12.7501 16.1609 12.0296 15.668 11.1293 15.4667ZM18.2998 30.8627C18.5543 30.5664 18.5536 30.5664 18.3469 30.2783L17.017 28.4212C16.9463 28.3222 16.8777 28.2212 16.8056 28.1182L17.0702 27.896L16.1814 27.5579V28.5289L16.4972 28.3458L18.2998 30.8627ZM23.2515 20.3195L22.8374 20.1357C22.4314 20.3067 22.3203 20.6353 22.463 21.0103C22.6637 21.5369 22.9209 22.0419 23.1546 22.5557L23.2212 22.5637L23.7431 20.9545L23.4219 21.0332L23.2515 20.3195ZM16.4218 20.9349C16.8783 21.4197 16.7416 22.0843 17.0972 22.5765C17.3295 22.0884 17.5537 21.6372 17.7591 21.1773C17.9718 20.7013 17.8715 20.4131 17.4392 20.1357L17.0265 20.3148L16.8487 21.0285L16.4218 20.9343V20.9349ZM19.3266 27.2846C19.7198 27.3654 19.9272 27.1499 20.1306 26.9358C20.5144 27.3027 20.6511 27.36 20.8955 27.2657C20.4006 26.8038 20.3689 26.6153 20.6746 25.9985C20.7299 25.8881 20.7844 25.7736 20.814 25.6544C20.8867 25.3655 20.841 25.0975 20.6477 24.8538L20.1717 26.0591L20.0976 26.0571L19.6215 24.8464C19.4438 25.1002 19.371 25.3662 19.4599 25.6564C19.5104 25.8227 19.5933 25.9796 19.664 26.1392C19.8963 26.6637 19.8309 26.9169 19.3273 27.2852L19.3266 27.2846ZM21.7715 29.2251L21.8146 29.1517C21.212 28.5531 20.5326 28.0205 20.1339 27.1802C19.7434 28.0279 19.0478 28.5444 18.4876 29.1888C18.8364 29.0622 19.1596 28.8979 19.4889 28.7457C19.5623 28.7121 19.6707 28.6878 19.738 28.7168C20.0047 28.8299 20.2578 28.8312 20.5258 28.7208C20.5992 28.6905 20.7144 28.7188 20.7938 28.7545C21.1231 28.9046 21.4463 29.0676 21.7715 29.2258V29.2251ZM14.8772 21.6029C14.6415 21.681 14.6018 21.8157 14.5728 21.9907C14.4982 22.429 14.4072 22.8642 14.3001 23.2957C14.2658 23.4371 14.1769 23.565 14.1122 23.699C14.0824 23.6911 14.0525 23.6833 14.0227 23.6754C14.0671 23.3792 14.0947 23.0782 14.16 22.7866C14.226 22.4917 14.3297 22.2055 14.4226 21.8971C13.7533 22.1126 13.2362 24.1562 13.6813 24.7205C14.1688 24.4754 14.5263 24.1205 14.6401 23.5691C14.7034 23.2613 14.7613 22.9523 14.7984 22.6412C14.8388 22.3045 14.8509 21.9645 14.8772 21.6029ZM25.4311 21.6083C25.3517 22.1052 25.5658 23.5408 25.7719 23.9616C25.951 24.3279 26.2634 24.5387 26.6001 24.7353C27.0041 24.0323 26.4486 21.9759 25.8641 21.9227C25.9887 22.5018 26.3045 23.0472 26.1759 23.6734C26.1112 23.5973 26.0479 23.5199 26.0257 23.4324C25.9079 22.9516 25.7847 22.4708 25.6971 21.9847C25.6655 21.8062 25.6163 21.683 25.4311 21.6076V21.6083ZM11.8188 13.7113C11.4902 14.7684 12.4888 16.3084 13.519 16.4841C13.3763 16.0195 13.2248 15.5347 13.0813 15.0492C12.9669 14.6654 12.7635 14.3389 12.4511 14.0944C12.2619 13.9463 12.0383 13.8419 11.8182 13.7113H11.8188ZM28.4753 13.7396C27.8397 13.9483 27.429 14.3611 27.2229 14.9718C27.0492 15.4842 26.8984 16.0054 26.7455 16.4976C27.87 16.1703 28.7184 14.8728 28.4753 13.7396ZM27.9569 23.4021L27.8922 23.4411C27.8249 23.3879 27.7441 23.3455 27.6922 23.2809C27.4229 22.9442 27.1502 22.6109 26.9017 22.2601C26.7051 21.9827 26.7199 21.9719 26.3846 22.0641C26.6492 22.5207 26.9038 22.988 27.1859 23.4384C27.5064 23.9502 28.0047 24.2256 28.6147 24.4552C28.5784 24.1737 28.5676 23.9481 28.5178 23.7313C28.3366 22.9395 27.835 22.3402 27.3152 21.7477C27.1387 21.5463 26.9401 21.4817 26.6438 21.5066C26.7273 21.6076 26.792 21.6817 26.8526 21.7591C27.1717 22.1658 27.499 22.5671 27.804 22.9832C27.8882 23.0991 27.9077 23.2613 27.9569 23.4027V23.4021ZM13.6288 21.5066C13.2719 21.4595 13.0598 21.5995 12.8861 21.8298C12.7985 21.9463 12.6922 22.0493 12.5999 22.1631C12.2121 22.6452 11.868 23.1529 11.7427 23.7724C11.7017 23.9791 11.6943 24.1926 11.6666 24.4471C12.2161 24.2538 12.6726 24.0162 12.9689 23.5967C13.3163 23.1058 13.5951 22.5664 13.9008 22.0547C13.6214 21.9503 13.4766 22.0762 13.3305 22.3153C13.1345 22.6385 12.8807 22.9267 12.6416 23.2216C12.5696 23.3105 12.4625 23.3718 12.3716 23.4458L12.3144 23.4054C12.3636 23.264 12.3838 23.1011 12.4679 22.9859C12.7736 22.5685 13.1009 22.1678 13.42 21.7605C13.4806 21.6837 13.5446 21.6083 13.6288 21.5066ZM23.6872 12.7289C23.2334 12.7518 22.791 12.7962 22.3493 12.7895C21.9035 12.7828 21.4584 12.7242 21.0133 12.6885L20.9702 12.7343L21.2429 12.8959C21.146 12.9592 21.0894 12.9969 21.0073 13.0494C21.1029 13.139 21.1837 13.2144 21.3009 13.3255L20.5824 13.6823C20.8908 13.8978 21.2598 13.8325 21.6934 13.481C21.7069 13.547 21.7203 13.611 21.7338 13.6837L21.9513 13.6143L21.9358 13.8231L22.1816 13.7726L22.2119 13.9651L22.8751 13.65L22.9209 13.8069C23.3943 13.6871 23.669 13.2844 23.6872 12.7296V12.7289ZM16.5807 12.6649C16.6204 13.3329 16.9309 13.7591 17.3685 13.7881L17.3988 13.6507L18.0621 13.9631L18.0903 13.7746L18.3476 13.8197L18.3227 13.6164L18.5502 13.679L18.5704 13.4716C19.0128 13.8406 19.437 13.9079 19.6781 13.6763L18.9718 13.3214L19.295 13.0582L19.0728 12.9248L19.297 12.671C18.3678 12.7652 17.4843 12.9282 16.5807 12.6642V12.6649ZM10.1705 21.7355L10.1119 21.6574C10.3563 21.4352 10.5778 21.1767 10.8512 20.9982C11.2047 20.7679 11.6007 20.6023 11.9764 20.4064C12.0457 20.3707 12.1104 20.3242 12.1764 20.2825L12.1494 20.2272C12.0834 20.2468 12.0148 20.2609 11.9515 20.2865C11.3549 20.5289 10.7549 20.7646 10.1631 21.0184C9.36987 21.3578 8.9093 22.0002 8.60293 22.7732C8.58745 22.8115 8.59081 22.8567 8.58273 22.9193C9.2251 22.9253 9.79879 22.7617 10.2816 22.351C10.7442 21.9571 11.1906 21.543 11.6444 21.139C11.8612 20.9471 12.0808 20.7578 12.2989 20.5673C12.2855 20.543 12.2733 20.5181 12.2605 20.4932C12.2013 20.5181 12.136 20.5329 12.0834 20.5673C11.6262 20.8716 11.1765 21.1854 10.7145 21.481C10.5475 21.5881 10.3523 21.652 10.1698 21.7355H10.1705ZM31.6751 22.9206C31.6805 22.8802 31.6852 22.8654 31.6838 22.8513C31.6828 22.8293 31.6787 22.8075 31.6717 22.7866C31.3774 22.0251 30.9297 21.3874 30.1607 21.0413C29.5938 20.7861 29.0113 20.5632 28.4356 20.3289C28.3299 20.2858 28.2201 20.2522 28.1124 20.2145L28.068 20.2872C28.816 20.6683 29.6503 20.9322 30.1587 21.747C30.024 21.6951 29.9385 21.677 29.8692 21.6332C29.3068 21.2785 28.7461 20.9212 28.1871 20.5612C28.1104 20.5121 28.0404 20.4178 27.9798 20.5733C28.6497 21.1672 29.3069 21.7611 29.9769 22.3409C30.4577 22.757 31.0327 22.92 31.6751 22.9206ZM27.4337 21.211L27.361 21.2211C27.3758 21.3181 27.3583 21.4406 27.4115 21.5086C27.8304 22.0531 28.2583 22.5908 28.6948 23.1213C29.0686 23.5738 29.5527 23.8283 30.1668 23.8808C30.0954 23.2223 29.8907 22.6365 29.4416 22.1826C28.9487 21.685 28.4067 21.2359 27.8821 20.77C27.8324 20.7309 27.7702 20.7113 27.707 20.7147C27.5643 20.7255 27.4229 20.7565 27.2135 20.7902C27.3394 20.9127 27.4236 21.0151 27.5279 21.0911C27.8996 21.3618 28.2915 21.6076 28.6484 21.8958C28.8457 22.0554 28.9891 22.2809 29.1561 22.4769L29.1009 22.5301C28.4592 22.2022 27.9434 21.7106 27.4337 21.211ZM13.0625 20.7733C12.9056 20.7619 12.8181 20.7753 12.7474 20.7464C12.5373 20.6616 12.3851 20.745 12.2356 20.8811C11.8229 21.2534 11.3852 21.6015 10.998 21.9988C10.7522 22.252 10.5536 22.5611 10.3812 22.8715C10.2129 23.1745 10.1321 23.5159 10.1105 23.8869C10.763 23.8101 11.2613 23.5327 11.6458 23.0371C12.0357 22.5342 12.4333 22.0372 12.8383 21.5463C12.9413 21.4218 12.9325 21.3268 12.8484 21.1962C12.3353 21.7106 11.8161 22.1874 11.1643 22.4957C11.2431 22.3294 11.328 22.1658 11.4599 22.0608C11.8821 21.7248 12.3245 21.4144 12.7541 21.0864C12.8551 21.0097 12.9346 20.9046 13.0625 20.7733ZM9.35977 20.6164L9.34092 20.5437C9.9577 20.1195 10.6809 19.9256 11.3744 19.6563C11.3151 19.6273 11.2485 19.617 11.1832 19.6266C10.6782 19.7101 10.1705 19.7862 9.66816 19.8859C8.75713 20.0677 7.9949 20.4932 7.47171 21.2851C7.42054 21.3625 7.38014 21.446 7.32493 21.543C7.38553 21.5551 7.41919 21.5645 7.45286 21.5679C8.21778 21.6541 8.91065 21.4036 9.59544 21.1134C10.322 20.8043 11.0505 20.5006 11.7777 20.1943C11.7926 20.1875 11.802 20.1693 11.8168 20.1532C11.429 20.0064 11.4303 20.0098 11.093 20.1404C10.8607 20.2306 10.6297 20.3269 10.39 20.3895C10.0506 20.4798 9.70318 20.5424 9.35977 20.6164ZM32.9578 21.5504C32.6137 20.9201 32.1444 20.4811 31.531 20.1875C30.9128 19.8912 30.2422 19.8131 29.5769 19.7081C29.3547 19.6724 29.1318 19.6401 28.909 19.6058L28.8854 19.6892C29.5897 19.9249 30.3149 20.1161 30.9236 20.5673C30.8379 20.5842 30.7495 20.5828 30.6644 20.5632C30.125 20.4084 29.5776 20.271 29.0524 20.0757C28.8053 19.9835 28.6551 20.1141 28.4713 20.139C29.2355 20.4771 29.9877 20.8191 30.7465 21.1437C31.4367 21.4393 32.143 21.6729 32.9578 21.5504ZM33.9092 19.6536L33.9112 19.5815C33.2534 19.2152 32.5672 18.9061 31.8077 18.8328C31.028 18.7567 30.2435 18.7311 29.4604 18.6927C29.3702 18.6887 29.2773 18.7479 29.1857 18.7775L29.2025 18.8348C29.9109 18.9156 30.6307 18.9338 31.3041 19.2011C30.9573 19.2213 30.6112 19.2462 30.2705 19.2145C29.8985 19.1831 29.5303 19.1177 29.1702 19.0193C28.915 18.9472 28.7083 19.0226 28.472 19.1055C28.6033 19.2219 28.7339 19.3627 28.8881 19.3977C30.2072 19.7007 31.5444 19.8508 32.8992 19.7882C33.2372 19.7734 33.5726 19.7 33.9092 19.6536ZM6.35329 19.6179C6.41052 19.6381 6.45025 19.6596 6.49267 19.667C6.67986 19.7007 6.86705 19.7424 7.05559 19.7593C8.49385 19.8912 9.90855 19.7169 11.3098 19.4138C11.4909 19.3748 11.6491 19.2341 11.8182 19.1411C11.8069 19.118 11.7957 19.0949 11.7845 19.0718C11.5508 19.0139 11.3306 18.9762 11.0707 19.0267C10.5051 19.1358 9.92673 19.1815 9.35304 19.2435C9.2251 19.2576 9.09245 19.2327 8.9625 19.226C9.64527 18.9418 10.3624 18.9109 11.0768 18.8099C11.0101 18.7513 10.9354 18.6826 10.8654 18.688C9.3288 18.8004 7.73701 18.6476 6.35396 19.6172L6.35329 19.6179ZM11.0357 18.282L8.51203 17.948L8.51809 17.8678C8.60361 17.8557 8.68845 17.8362 8.77396 17.8315C9.55639 17.7911 10.326 17.8753 11.0882 18.0503C11.2202 18.0806 11.3677 18.0436 11.5084 18.0375L11.5044 17.9742C10.3967 17.3837 6.56405 16.9932 5.82337 17.4086C6.62195 17.9237 7.45623 18.3432 8.39891 18.4328C9.15507 18.5048 9.92067 18.4698 10.6822 18.49C10.8586 18.4947 10.9792 18.4429 11.0357 18.2813V18.282ZM28.7696 17.9554L28.7635 18.018C28.8787 18.0382 28.9985 18.0901 29.1083 18.0739C29.5641 18.0086 30.0146 17.8948 30.4718 17.853C30.8947 17.814 31.3236 17.8443 31.7498 17.8443L31.7565 17.9507L29.2349 18.2806C29.3009 18.4442 29.4221 18.4927 29.5971 18.492C29.9493 18.49 30.3008 18.5217 30.6523 18.5237C31.3815 18.5277 32.102 18.4631 32.7975 18.224C33.38 18.0241 33.9287 17.7554 34.4311 17.3797C32.4905 17.0807 30.6098 17.3231 28.7696 17.9554ZM14.6455 28.4178C14.9115 27.9909 14.925 27.8791 14.758 27.6118C14.2866 26.8543 13.3009 26.7297 12.6612 27.3499C12.6073 27.4031 12.5743 27.4785 12.5319 27.5438L12.4619 27.4792C12.6309 26.9674 12.7965 26.453 13.4449 26.29C12.8167 26.088 12.3952 25.6975 12.1144 25.1992L11.8687 26.0409C11.7878 26.3203 11.6821 26.5964 11.6343 26.8826C11.5024 27.6771 11.8458 28.3168 12.336 28.9046C12.4551 29.0481 12.5433 29.2164 12.6497 29.3713C12.6719 29.4043 12.7076 29.4507 12.7379 29.4521C13.0382 29.4581 13.3386 29.4601 13.6382 29.4507C13.6786 29.4494 13.7527 29.3726 13.748 29.3423C13.7406 29.3132 13.7268 29.2862 13.7076 29.2632C13.6884 29.2403 13.6642 29.222 13.6369 29.2097C13.5561 29.1827 13.4631 29.1901 13.3756 29.1847C13.078 29.1672 12.8396 29.0548 12.6928 28.7807C12.4875 28.3969 12.5326 27.9714 12.8235 27.6138C13.0692 27.3115 13.5082 27.1829 13.8988 27.2994C14.3553 27.4354 14.591 27.7801 14.6455 28.4178ZM26.8573 26.2799C27.433 26.5802 27.7892 27.059 27.767 27.5324C27.7091 27.4623 27.6714 27.4085 27.6256 27.3627C27.0149 26.7634 26.1106 26.8274 25.5874 27.5061C25.3315 27.8374 25.3429 28.0643 25.6284 28.3855C25.6217 27.5371 26.293 27.1957 26.8135 27.265C27.3084 27.331 27.7198 27.7902 27.7003 28.302C27.6842 28.7282 27.4808 29.1948 26.8021 29.1908C26.7724 29.1901 26.7374 29.182 26.7145 29.1942C26.6459 29.2332 26.5812 29.281 26.5146 29.3248C26.5853 29.3719 26.6539 29.4548 26.7267 29.4595C26.9751 29.4743 27.2249 29.4649 27.4741 29.4561C27.5011 29.4544 27.5275 29.4473 27.5518 29.4353C27.5761 29.4232 27.5977 29.4065 27.6155 29.3861C27.7475 29.2049 27.8552 29.0056 27.9973 28.8339C28.6154 28.0845 28.8524 27.2671 28.5043 26.323C28.3669 25.9507 28.2599 25.5669 28.1474 25.2134C27.8717 25.7225 27.4092 26.1049 26.8573 26.2799ZM20.7938 32.5077L23.7767 28.3431L24.0932 28.5343V27.5559L23.2004 27.896L23.4677 28.1209L20.8261 31.8128L19.4727 29.3719L18.1025 31.4337L17.8022 31.2566V32.2222C18.1092 32.101 18.3947 31.9879 18.7112 31.864C18.5933 31.7731 18.5092 31.7084 18.4216 31.6398L19.4397 30.1072L20.7938 32.5077ZM28.6316 17.8012C29.0645 17.6834 29.5278 17.5541 29.9937 17.4315C30.8287 17.212 31.6757 17.0275 32.4986 16.769C33.1652 16.5595 33.7806 16.2215 34.2459 15.6727C34.3402 15.5616 34.4109 15.4317 34.5193 15.2701C32.3013 15.2613 30.3829 16.1205 28.3737 16.8531C28.5858 16.9312 28.7319 16.9925 28.8827 17.0363C28.9393 17.0524 29.0106 17.041 29.0692 17.0221C29.6052 16.8471 30.1351 16.6531 30.6765 16.4969C31.0037 16.4033 31.3471 16.369 31.6831 16.307L31.7007 16.3811C31.5155 16.4659 31.337 16.5744 31.1445 16.6316C30.5061 16.8188 29.8624 16.9858 29.2221 17.1669C29.1332 17.1918 29.0295 17.2329 28.975 17.3002C28.8437 17.4618 28.7373 17.643 28.6316 17.8012ZM5.82202 15.2701L5.78027 15.3266C5.86781 15.4492 5.94592 15.5798 6.04422 15.6929C6.52499 16.2478 7.15524 16.5939 7.83936 16.7945C9.10794 17.1656 10.3954 17.4746 11.6606 17.8046C11.5596 17.6733 11.4236 17.5446 11.3508 17.3864C11.2828 17.2369 11.1892 17.1864 11.0431 17.1615C10.2748 17.0309 9.52541 16.8343 8.81773 16.4996C8.73693 16.4612 8.65949 16.4161 8.58004 16.3737C8.67663 16.3442 8.77879 16.3378 8.87833 16.3548C9.67153 16.4525 10.4095 16.7413 11.1563 17.0013C11.2283 17.0262 11.3145 17.0551 11.3832 17.0376C11.5401 16.9979 11.6902 16.9312 11.9084 16.8511C9.89104 16.1273 7.97336 15.2573 5.82202 15.2701ZM31.9767 13.9234L32.0117 13.9705C31.9848 14.0042 31.9606 14.0392 31.9316 14.0715C31.8293 14.186 31.7296 14.3032 31.6219 14.4122C30.9404 15.0997 30.0934 15.5354 29.2477 15.9758C29.1015 16.0518 28.9945 16.2013 28.8699 16.3171L28.9177 16.373C29.4572 16.2791 29.9808 16.1098 30.4731 15.87C31.3397 15.4566 32.1484 14.961 32.8036 14.2506C33.3645 13.6426 33.4338 12.8999 33.3806 12.0683C33.1834 12.1606 33.0022 12.2111 32.8635 12.3168C32.3181 12.7343 31.772 13.1524 31.2509 13.5995C30.6853 14.0863 30.1594 14.6196 29.5897 15.1018C29.3493 15.3064 29.3022 15.563 29.1972 15.862C30.1493 15.194 30.9539 14.3995 31.9767 13.9227V13.9234ZM11.0694 15.8586C10.9798 15.5199 10.8748 15.2607 10.6162 15.0452C10.0708 14.5907 9.57591 14.0776 9.03724 13.6157C8.51068 13.1639 7.95989 12.739 7.40909 12.3168C7.27106 12.2111 7.0906 12.1619 6.91688 12.0798C6.89668 12.1498 6.88321 12.1767 6.88119 12.2037C6.81722 13.1356 7.04818 13.949 7.79155 14.5819C8.55607 15.235 9.427 15.752 10.3664 16.1104C10.6842 16.2316 11.0216 16.3003 11.3502 16.3932L11.402 16.3205C11.2822 16.206 11.1785 16.066 11.0404 15.9825C10.7657 15.8155 10.4681 15.6869 10.1873 15.5287C9.50723 15.1455 8.86554 14.7126 8.36524 14.1012C8.32753 14.054 8.29454 14.0042 8.25953 13.9557C9.31668 14.3988 10.122 15.1927 11.0687 15.8586H11.0694ZM8.52415 9.89074C8.48846 10.0746 8.45547 10.216 8.43258 10.3587C8.30733 11.1492 8.32753 11.9242 8.75241 12.6333C9.44933 13.7961 10.3785 14.7355 11.5522 15.4243C11.7421 15.5354 11.9515 15.6121 12.1191 15.6889C11.9629 15.363 11.8054 15.0297 11.6424 14.6998C11.6155 14.6446 11.5636 14.5988 11.5165 14.5563C11.099 14.1773 10.6694 13.8123 10.2661 13.4191C9.87017 13.0332 9.6015 12.5599 9.42845 12.0313C10.3267 12.6663 10.8405 13.644 11.5953 14.421C11.5966 14.254 11.6141 14.0736 11.5448 13.9369C10.8068 12.4784 9.9072 11.1344 8.68979 10.0227C8.64805 9.98501 8.60226 9.95202 8.52482 9.89074H8.52415ZM30.8704 12.0454C30.8017 12.1949 30.7358 12.3451 30.6644 12.4932C30.2988 13.2561 29.6584 13.78 29.0443 14.3213C28.8113 14.5267 28.5918 14.7085 28.5036 15.0297C28.4524 15.2182 28.2969 15.3785 28.1878 15.5515C28.1609 15.5953 28.1306 15.6384 28.1023 15.6822C28.4511 15.5515 28.7797 15.4041 29.0753 15.2061C30.0093 14.5798 30.8046 13.7683 31.4118 12.8218C31.8522 12.1451 31.972 11.4031 31.871 10.6166C31.8407 10.383 31.7963 10.1513 31.7498 9.8692L31.5323 10.0692C30.3587 11.1512 29.4867 12.4542 28.7649 13.8635C28.6814 14.0251 28.6773 14.2271 28.6369 14.4109L28.7023 14.4298C29.4301 13.6433 29.9446 12.6656 30.8704 12.0461V12.0454ZM16.0481 20.4542C16.2286 20.5801 16.4023 20.7094 16.5834 20.8265C16.6965 20.8992 16.7841 20.8609 16.8036 20.7255C16.8299 20.541 16.844 20.3552 16.8602 20.1983L17.3281 20.0502L16.8952 19.2873C16.8339 19.3048 16.7719 19.325 16.7086 19.3398C16.2501 19.4441 15.7936 19.4637 15.3505 19.2758C15.0933 19.1681 15.0044 19.0449 15.0744 18.7789C15.16 18.4496 15.2852 18.1278 15.4205 17.814C15.6932 17.1837 15.6165 16.8814 15.0549 16.4861C14.5364 16.1219 14.0516 15.7219 13.6786 15.2041C13.5702 15.0526 13.4793 14.889 13.3594 14.6977C13.2322 15.6936 13.5392 16.472 14.323 17.0679C14.2173 17.0592 14.1466 17.014 14.0718 17.0039C13.8294 16.9703 13.5857 16.9373 13.3413 16.9265C13.1574 16.9184 13.1298 17.0275 13.1864 17.1878C13.2928 17.4894 13.4894 17.7143 13.7634 17.8847C13.548 17.9466 13.3406 17.9857 13.1514 18.0665C12.9144 18.1695 12.8874 18.2678 13.0793 18.4308C13.2988 18.6173 13.5641 18.7499 13.8092 18.9061C13.6207 19.0846 13.3864 19.298 13.4019 19.7175L14.3425 19.6448C14.1903 19.9027 14.1284 20.1922 14.2469 20.5053C14.2981 20.6407 14.3654 20.7309 14.5183 20.6467C14.7627 20.5141 15.0017 20.3734 15.228 20.2441C15.261 20.3498 15.2987 20.5107 15.3606 20.6616C15.4145 20.7942 15.5175 20.8588 15.6555 20.7565C15.7956 20.6535 15.9316 20.5451 16.0481 20.4535V20.4542ZM26.9226 14.7664C26.6499 15.0991 26.3994 15.4613 26.091 15.7643C25.7746 16.0754 25.4008 16.3286 25.0514 16.606C24.6965 16.8888 24.6157 17.2389 24.7861 17.6605C24.9383 18.0389 25.081 18.4213 25.2062 18.8085C25.2675 18.9977 25.1726 19.1533 24.9935 19.2408C24.8958 19.2886 24.7921 19.3317 24.6864 19.3559C24.2517 19.4534 23.7986 19.4301 23.3761 19.2886L22.9404 20.063L23.4111 20.1889C23.4286 20.3626 23.4428 20.5424 23.4677 20.7208C23.4859 20.8535 23.568 20.9026 23.6845 20.8279C23.871 20.7073 24.0494 20.5747 24.2211 20.4548C24.3403 20.5451 24.4831 20.6568 24.6292 20.7632C24.747 20.8481 24.848 20.8056 24.8965 20.6878C24.9638 20.5235 25.0076 20.3491 25.0446 20.2333C25.2574 20.3606 25.4931 20.508 25.7362 20.642C25.9059 20.7363 25.9826 20.6393 26.0358 20.4831C26.1415 20.172 26.0654 19.8872 25.9038 19.5829C26.2445 19.7094 26.5529 19.7687 26.8741 19.6482C26.8842 19.2879 26.6385 19.0799 26.4061 18.8469C26.7529 18.7816 27.0337 18.6584 27.2391 18.3924C27.3387 18.2631 27.3387 18.1608 27.1839 18.1002C26.9684 18.0167 26.7462 17.952 26.5395 17.884C26.6472 17.7823 26.8021 17.6813 26.8896 17.5393C26.992 17.3743 27.0337 17.1723 27.1017 16.9871C26.9024 16.9629 26.7011 16.9083 26.5051 16.9225C26.326 16.9359 26.1523 17.0235 25.9759 17.078L25.9261 17.0491C26.7294 16.4686 27.0425 15.6943 26.9226 14.7664ZM25.9564 29.4548C25.9085 29.4844 25.8607 29.516 25.8116 29.5436C25.6688 29.6244 25.5995 29.7201 25.7402 29.8668C25.5975 29.9497 25.5988 30.0567 25.6783 30.1793C25.8176 30.3947 26.1658 30.5173 26.4546 30.4122L25.9045 29.8466C26.0176 29.8049 26.1617 29.7692 26.2849 29.6978C26.3435 29.6642 26.3631 29.5632 26.3994 29.4925C26.3294 29.4709 26.26 29.4359 26.188 29.4319C26.1099 29.4265 26.0291 29.45 25.9496 29.4608C26.3294 29.2346 26.7193 29.0433 27.1758 29.0265C27.2566 29.0238 27.334 28.9551 27.4202 28.9134C27.1239 28.5228 26.7219 28.4616 26.3314 28.7168C25.9247 28.9827 25.7833 28.9538 25.5584 28.5215C25.3901 28.1983 25.2615 27.8529 25.0891 27.5317C24.91 27.1964 24.7214 26.8624 24.4925 26.5621C24.4117 26.4557 24.1983 26.4503 24.0454 26.3991L23.9518 26.6826C23.9478 26.6947 23.9383 26.7055 23.9316 26.7163C23.4623 26.5378 23.4232 26.5446 23.3256 26.8267C24.6555 27.2327 25.0871 28.3646 25.5005 29.5268L25.9564 29.4548ZM14.3068 29.4534L14.7721 29.5248C15.1889 28.3532 15.6239 27.226 16.9901 26.8112C16.914 26.7304 16.8568 26.6186 16.7995 26.6186C16.6433 26.6186 16.4871 26.6651 16.3316 26.6927C16.2945 26.389 16.1296 26.3022 15.8643 26.4644C15.8031 26.5042 15.7529 26.5586 15.7182 26.6227C15.4347 27.1411 15.1552 27.6616 14.8765 28.1821C14.7903 28.3431 14.7216 28.5134 14.626 28.6683C14.4738 28.9154 14.3277 28.945 14.0752 28.8009C14.0173 28.7695 13.9617 28.734 13.9089 28.6945C13.6119 28.4616 13.0941 28.543 12.8544 28.9093C12.9352 28.9511 13.0113 29.0225 13.0901 29.0258C13.5446 29.0454 13.9385 29.2258 14.3142 29.4601C14.2489 29.4521 14.1823 29.4319 14.119 29.4386C14.0341 29.448 13.952 29.479 13.8685 29.4999C13.9224 29.5766 13.9587 29.6817 14.0321 29.7248C14.1439 29.7908 14.2812 29.8143 14.3654 29.8426L13.8314 30.4035L13.8846 30.4715C14.1365 30.4688 14.3802 30.4345 14.562 30.221C14.6711 30.0931 14.7014 29.9645 14.5284 29.8608C14.6361 29.718 14.6294 29.6534 14.4927 29.5632C14.4327 29.5228 14.3688 29.4898 14.3068 29.4534Z" fill="white"/>
</g>
<defs>
<clipPath id="clip0_409_458">
<rect width="40" height="40" fill="white"/>
</clipPath>
</defs>
</svg>
