<svg width="40" height="40" viewBox="0 0 40 40" fill="none" xmlns="http://www.w3.org/2000/svg">
<g clip-path="url(#clip0_132_169)">
<path d="M20.0003 40C31.0459 40 40 31.0459 40 20.0003C40 8.95413 31.0459 0 20.0003 0C8.95413 0 0 8.95413 0 20.0003C0 31.0459 8.95413 40 20.0003 40Z" fill="#062387"/>
<path fill-rule="evenodd" clip-rule="evenodd" d="M18.0448 14.6356C17.717 14.4145 17.5395 14.203 17.3578 14.1995C17.2096 14.1968 17.0566 14.4419 16.9057 14.5772C17.0525 14.7372 17.1816 15.0002 17.351 15.0297C17.5101 15.0572 17.7109 14.8375 18.0448 14.6356ZM19.2447 6.00116V9.79031C14.1474 10.5834 10.9014 13.4085 9.97468 18.5909C9.36414 22.0031 11.1309 26.2145 13.739 27.8406L17.5764 17.6927C16.1238 17.9804 14.7606 17.3253 13.5689 18.2675C12.7153 15.7679 14.5107 13.1194 17.1024 13.1001C19.5814 13.0816 22.0605 13.096 24.5422 13.096C24.5422 13.1654 24.5607 13.2382 24.5395 13.254C23.595 13.9221 23.6551 14.7715 23.8989 15.8036C24.8147 19.6841 25.6404 23.5872 26.5295 27.6167C26.8082 27.3901 27.0479 27.2418 27.2302 27.0399C30.0138 23.9636 30.8812 20.4141 29.4497 16.4999C28.0798 12.752 25.2866 10.5628 21.3523 9.94412C20.724 9.84524 20.584 9.63443 20.6051 9.06104C20.6434 8.04131 20.6161 7.01952 20.6161 6.00185C26.3882 5.8906 33.3445 10.8107 33.9584 18.8999C34.5731 27.0028 28.297 33.9301 20.0199 33.9995C12.0501 34.0661 5.84979 27.4636 6.00277 19.6924C6.16667 11.3546 13.2036 6.00871 19.2447 6.00116Z" fill="white"/>
</g>
<defs>
<clipPath id="clip0_132_169">
<rect width="40" height="40" fill="white"/>
</clipPath>
</defs>
</svg>
