<svg width="40" height="40" viewBox="0 0 40 40" fill="none" xmlns="http://www.w3.org/2000/svg">
<g clip-path="url(#clip0_409_453)">
<circle cx="20" cy="20" r="20" fill="#192F84"/>
<path fill-rule="evenodd" clip-rule="evenodd" d="M30.2962 18.7709C30.1772 18.8802 30.0473 18.9895 29.8958 19.0989C28.9976 19.8204 27.5908 20.3889 25.632 20.9356C21.563 22.0726 18.6195 22.2475 15.2539 23.1002C14.6046 23.2642 13.9228 23.4938 13.2843 23.7671C13.9228 24.0951 14.5937 24.4012 15.2863 24.6745C16.6499 24.27 17.2992 24.0842 19.2796 23.7343C20.0263 23.6031 22.3422 23.1768 24.0304 22.805C27.0389 22.1491 31.465 20.6841 30.2962 18.7709ZM28.3483 14.8023C27.7098 14.4962 26.8982 14.201 26.0433 13.9605C25.6645 14.2885 25.2208 14.5618 24.5823 14.8242C25.6428 15.021 26.4545 15.3271 27.3419 15.6004C27.5042 15.6879 28.2293 14.9663 28.3483 14.8023ZM13.5332 19.0223C17.4832 17.8088 21.6279 17.4371 25.8268 16.2673C24.1819 15.8081 23.2837 15.6114 21.5522 15.8191C19.0307 16.1252 16.2603 16.7046 13.8903 17.4371C12.9597 17.7214 8.06818 19.1754 9.47502 21.1979C9.48584 21.2307 10.3191 20.0063 13.5332 19.0223ZM10.8061 25.9865C10.7953 26.3691 11.0225 26.6971 11.4987 27.1125C11.5636 26.9048 11.6502 26.7627 11.7909 26.5659C11.4554 26.391 11.1308 26.1942 10.8061 25.9865ZM12.6566 25.7897C12.9488 25.6038 13.306 25.418 13.7172 25.254C13.1544 25.0134 12.5809 24.7511 11.9965 24.4668C11.726 24.6417 11.4987 24.8167 11.3039 25.0134C11.7584 25.2758 12.2021 25.5491 12.6566 25.7897ZM27.8505 17.0326C27.0497 17.4152 25.9134 17.8197 24.2685 18.2461C22.9266 18.596 19.6584 19.0879 16.1413 19.886C15.0266 20.1375 12.0182 20.8809 10.5356 22.1928C10.9468 22.5427 11.2065 22.6301 11.661 22.8925C12.2779 22.488 13.1003 22.0944 14.3448 21.7446C16.4984 21.1433 18.1108 20.8809 20.048 20.5639C21.9742 20.2468 25.5887 19.4487 27.6016 18.7053C28.2509 18.4538 28.8569 18.1477 29.3114 17.776C29.1816 17.623 27.8938 16.967 27.8505 17.0326ZM29.0084 16.2782C29.398 16.475 29.7551 16.6281 30.1014 16.8795C30.3503 16.3876 30.1988 16.0705 29.6794 15.6113C29.4846 15.8628 29.2573 16.0815 29.0084 16.2782ZM10.6221 23.7343C10.2758 23.5266 10.0269 23.3845 9.73474 23.1658C9.57242 23.5266 9.87543 23.9311 10.1893 24.117C10.3191 23.9748 10.4815 23.8655 10.6221 23.7343ZM27.4284 12.3425C27.3527 12.6267 27.0713 12.9438 26.8657 13.1734C27.4609 13.3374 28.0561 13.5669 28.6297 13.7856C28.5756 13.239 27.9587 12.7033 27.4284 12.3425ZM8.84735 15.8519C12.9813 13.0203 17.5589 11.3695 25.3182 12.7689C25.7511 12.5065 25.9891 12.266 26.0974 11.7303C24.1603 10.9978 22.0608 10.7463 19.3445 10.79C16.888 10.8666 12.4943 11.8177 10.1568 13.2608L10.871 12.3315C12.516 11.3257 16.7906 9.99196 19.9938 9.92636C22.2556 9.88263 23.4244 10.0138 26.1082 10.7682C25.8809 10.2871 25.3182 10.0466 24.5066 9.66398C21.8985 8.45045 17.0503 8.33019 13.0679 10.1669C13.5657 9.81703 14.0635 9.49999 14.702 9.19387C16.0222 8.57071 18.165 7.95848 20.8488 8.00221C22.9915 8.03501 25.5454 8.82216 27.1038 10.4402C27.3635 10.7572 27.515 11.0962 27.58 11.3695C28.8136 12.0254 29.5279 12.6377 29.9391 13.3592C30.1014 13.72 30.1772 14.1354 30.1014 14.5837C30.6101 14.9117 30.859 15.174 31.1079 15.5239C31.2918 15.8191 31.4325 16.158 31.465 16.4641C31.5083 16.8686 31.5516 17.3278 31.1512 17.8525C31.584 18.0712 31.9087 18.6834 31.9628 18.9567C32.1576 19.9298 31.5624 20.87 30.7616 21.6134C29.8525 22.4443 27.8505 23.4282 26.2164 23.8655C22.9699 24.7183 20.1129 25.079 17.8295 25.5163C18.8467 25.7678 20.2319 26.1176 22.5045 26.1176C27.3419 26.1176 31.6165 23.7234 31.6165 23.7234C31.6165 23.7234 31.5191 24.0404 31.4217 24.3138C28.3483 26.2598 23.4568 27.0797 21.379 26.9813C19.258 26.8829 17.4724 26.555 15.73 25.9865C15.189 26.1395 14.6695 26.3144 14.1609 26.544C16.823 27.8013 18.8251 28.0855 21.0977 28.2605C23.4135 28.4354 27.2445 27.8559 30.491 26.6315C30.3395 26.7845 30.2638 27.0251 30.1123 27.1781C28.4565 28.0855 24.9502 28.9929 23.1863 29.0695C21.4331 29.146 19.3012 29.0804 17.4399 28.7087C15.8383 28.3916 14.5396 27.8559 13.1653 27.2328C12.9164 27.4186 12.7865 27.6701 12.7432 27.9434C18.0676 30.8515 23.0672 30.9171 28.7487 29.0695L28.2293 29.5942C21.9742 32.2399 17.0828 31.2123 13.306 29.31C13.1869 29.2553 13.0354 29.1897 12.9272 29.1132C13.2735 29.7473 16.1629 31.9557 19.3986 32.229C21.6279 32.4149 24.3442 32.0213 25.9567 31.3435L25.0152 31.8573C24.236 32.2618 22.169 33.1692 19.2688 32.9724C15.4162 32.6991 13.241 30.9171 12.2671 29.9878C11.8125 29.5505 11.6069 29.0476 11.4662 28.4244C10.5897 27.9434 10.0486 27.4514 9.59406 26.7189C9.32351 26.2816 9.37762 25.8006 9.44255 25.3852C9.4642 25.254 9.49666 25.1337 9.53995 25.0134C9.1179 24.6964 8.69585 24.3575 8.51188 24.0186C8.14393 23.3189 8.38201 22.6957 8.64174 22.2147C8.41448 21.9414 8.19804 21.668 8.10065 21.3947C8.00325 21.0668 7.98161 20.7497 8.01407 20.3999C8.08983 19.7986 8.39284 19.241 8.79324 18.76C9.63735 17.7432 10.9576 16.9561 13.2302 16.1689C15.4487 15.4036 16.3469 15.2834 18.0243 14.8789C19.983 14.4088 22.3205 14.2557 24.2793 13.5451C18.8143 12.5502 13.1544 13.4576 8.5227 16.7811L8.84735 15.8519Z" fill="#F5F5F5"/>
</g>
<defs>
<clipPath id="clip0_409_453">
<rect width="40" height="40" fill="white"/>
</clipPath>
</defs>
</svg>
