<svg width="40" height="40" viewBox="0 0 40 40" fill="none" xmlns="http://www.w3.org/2000/svg">
<g clip-path="url(#clip0_132_37)">
<circle cx="20" cy="20" r="20" fill="#FDF100"/>
<path d="M11.4758 12.1741C12.0189 11.5692 12.7589 11.0606 13.6142 11.0085C14.4384 10.937 15.2285 11.3234 15.8015 11.8684C16.9297 12.9248 18.0784 13.9629 19.1985 15.027C18.9201 15.2742 18.6418 15.5201 18.3662 15.7685C18.8998 16.2759 19.4239 16.791 19.9792 17.2763C20.5426 16.7754 21.0925 16.2616 21.6369 15.7425C21.4306 15.4706 21.212 15.2091 20.9893 14.9503C22.0524 13.92 23.1358 12.9091 24.2057 11.884C24.7325 11.365 25.467 10.9799 26.2436 11.0515C27.3542 11.1386 28.2558 11.9023 28.8966 12.7231C29.6053 13.652 30.1226 14.802 29.9746 15.9754C29.5972 15.7945 29.2659 15.5448 28.9346 15.2976C27.896 16.285 26.8695 17.2828 25.8241 18.2637C25.4589 18.01 25.1113 17.7355 24.7746 17.4493C24.7746 16.7949 24.7882 16.1406 24.7678 15.4862C24.499 15.6853 24.2383 15.8934 23.9803 16.1042C23.9315 16.9458 24.0061 17.7914 23.9477 18.6331C23.5961 19.1001 23.0951 19.441 22.6878 19.8625C24.8886 22.0428 27.1642 24.1528 29.3827 26.3162C28.4418 27.2152 27.5036 28.118 26.545 29C24.2668 26.8496 22.047 24.642 19.7497 22.5111C17.5557 24.6212 15.3901 26.7598 13.196 28.8699C12.2497 27.9762 11.3292 27.0565 10.4005 26.1471C12.6068 24.0136 14.8715 21.9387 17.0764 19.8065C16.684 19.3824 16.2319 19.0104 15.8368 18.5889C15.6752 17.7641 15.8381 16.9094 15.7553 16.0755C15.6046 15.8466 15.3385 15.7165 15.1267 15.5422C15.0805 16.1809 15.1023 16.8197 15.0968 17.4584C14.7466 17.755 14.3881 18.0425 14.0202 18.3196C12.9937 17.301 12.0121 16.2434 10.9979 15.2143C10.6626 15.4563 10.3367 15.7113 10 15.9533C10.0489 14.586 10.558 13.2266 11.4758 12.1741Z" fill="#010102"/>
</g>
<defs>
<clipPath id="clip0_132_37">
<rect width="40" height="40" fill="white"/>
</clipPath>
</defs>
</svg>
