<svg width="40" height="40" viewBox="0 0 40 40" fill="none" xmlns="http://www.w3.org/2000/svg">
<path d="M40 20.0044C40 31.0535 31.052 40.0001 20.0061 40.0001C8.95874 40.0001 0 31.0535 0 20.0044C0 8.95521 8.95874 0 20.0061 0C31.0521 0 40 8.95521 40 20.0044Z" fill="#103852"/>
<path d="M15.3646 18.2192L15.163 19.4525C14.8348 19.3164 14.489 19.2272 14.136 19.1875C13.3998 19.1875 12.7292 19.708 12.7292 20.4583C12.7292 21.3962 13.3107 21.6307 13.9695 21.6002C14.2218 21.5864 14.4692 21.5251 14.6987 21.4197L15.1254 21.2837L15.313 22.4325L14.9683 22.5662C14.5271 22.7649 14.0449 22.8558 13.5615 22.8311C11.9203 22.796 11.17 21.6002 11.2755 20.3833C11.3112 20.0095 11.423 19.6469 11.604 19.3178C11.7851 18.9888 12.0315 18.7003 12.3282 18.4701C12.8071 18.1486 13.3743 17.9847 13.9508 18.0011C14.4274 18.0102 14.9006 18.0836 15.3576 18.2192H15.3646ZM28.5275 18.109L27.6413 22.7467H29.0012L29.3458 20.9202L30.2321 22.7467H32.7855L34.3798 19.6682L34.5533 21.4243L34.0047 21.1899L33.5803 22.0457L34.7151 22.7491H36L35.3435 18.1113H33.8757L31.5569 22.3528L30.5627 20.3669L32.7245 18.1113H31.1114L29.5944 19.6283L29.8828 18.1113L28.5275 18.109ZM23.8992 18.109L25.5991 18.0574C26.354 18.041 27.1981 18.2262 27.4631 19.0328C27.5398 19.2744 27.5337 19.5348 27.4458 19.7726C27.3579 20.0104 27.1932 20.2121 26.9777 20.3458C27.6999 20.8569 27.5217 21.9144 26.8792 22.3857C26.3517 22.7725 25.857 22.7772 25.238 22.7702L23.0903 22.7467L23.8992 18.109ZM24.9168 19.1547L24.7925 19.8933H25.6389C25.8734 19.8933 26.129 19.8933 26.2321 19.6213C26.2545 19.5652 26.2617 19.5043 26.2531 19.4445C26.2445 19.3848 26.2203 19.3283 26.1831 19.2809C26.1458 19.2334 26.0967 19.1965 26.0407 19.174C25.9847 19.1514 25.9238 19.144 25.864 19.1524L24.9168 19.1547ZM24.4736 21.6119H25.3787C25.66 21.6119 26.0141 21.5603 26.0821 21.2204C26.089 21.1738 26.0867 21.1264 26.0753 21.0808C26.0638 21.0352 26.0434 20.9923 26.0153 20.9546C25.9872 20.9168 25.9519 20.8851 25.9114 20.8611C25.871 20.8371 25.8262 20.8213 25.7796 20.8147C25.7516 20.8112 25.7232 20.8112 25.6952 20.8147H24.612L24.4736 21.6213V21.6119ZM20.6846 18.1113L18.1407 22.7467H18.8699C19.4842 22.7209 19.6272 22.5474 19.7374 22.4021C20.2907 21.4853 20.6964 20.6178 21.1887 19.6658L21.3529 21.4501L20.8042 21.2157L20.3775 22.0785L21.6717 22.7374H22.8136L22.1524 18.1113H20.6846ZM15.8687 18.1113H19.3599L19.1254 19.4009H18.1079L17.4701 22.7467H16.1149L16.7526 19.4079H15.6436L15.8687 18.1113Z" fill="#2E9BFC"/>
<path d="M10.3798 22.7443H11.5311L9.86167 20.2285L11.9906 18.1183H10.0961L5.87573 22.3621L6.64713 18.1089H5.60375L4 19.157V20.3457L4.96366 19.8979L4.83236 20.2894C4.68464 21.1077 4.53458 21.9307 4.38921 22.7443H7.48886L8.7714 21.375L9.2966 22.1745C9.41777 22.3501 9.57953 22.4937 9.76812 22.5933C9.95671 22.6929 10.1666 22.7455 10.3798 22.7466V22.7443ZM7.87808 19.8463L6.75967 18.1089H8.03752C8.21753 18.1191 8.39355 18.166 8.55482 18.2466C8.71609 18.3272 8.85919 18.4399 8.97538 18.5778L9.05041 18.681L7.87808 19.8463Z" fill="white"/>
</svg>
