<svg width="40" height="41" viewBox="0 0 40 41" fill="none" xmlns="http://www.w3.org/2000/svg">
<circle cx="20" cy="20.5" r="20" fill="#C8102E"/>
<path d="M20 7.04716C11.93 7.04716 5.38574 13.2789 5.38574 20.9629C5.38574 23.6836 6.19458 26.202 7.61006 28.3528H14.6506C12.5182 26.7351 11.1212 24.1799 11.1212 21.2754C11.1212 16.3672 15.0918 12.3965 20 12.3965C24.9082 12.3965 28.8789 16.3672 28.8789 21.2754C28.8789 24.1615 27.5002 26.7351 25.3494 28.3528H32.39C33.8422 26.1652 34.6143 23.5916 34.6143 20.9629C34.6143 13.2789 28.0884 7.04716 20 7.04716ZM15.2205 23.2424C15.9007 25.2829 17.7941 26.7535 20.0184 26.7535C22.2427 26.7535 24.1362 25.2829 24.8163 23.2424H15.2205Z" fill="white"/>
</svg>
