<svg width="40" height="40" viewBox="0 0 40 40" fill="none" xmlns="http://www.w3.org/2000/svg">
<circle cx="20" cy="20" r="20" fill="black"/>
<path d="M19.1889 20.3392V23.8846H18.0812V15.1327H21.0191C21.7277 15.1187 22.4158 15.3909 22.918 15.8934C23.9226 16.8426 23.9845 18.4408 23.0419 19.4668C23.0006 19.5086 22.9593 19.5505 22.918 19.5924C22.402 20.0879 21.769 20.3392 21.0191 20.3392H19.1889ZM19.1889 16.2075V19.2644H21.0466C21.4594 19.2783 21.8585 19.1108 22.1406 18.8107C22.7185 18.2035 22.7047 17.2264 22.1062 16.6402C21.8241 16.361 21.4456 16.2075 21.0466 16.2075H19.1889Z" fill="white"/>
<path d="M26.2689 17.6997C27.0877 17.6997 27.7344 17.923 28.2092 18.3627C28.6839 18.8024 28.9179 19.4166 28.9179 20.1913V23.8833H27.8583V23.0528H27.8101C27.3491 23.7367 26.7437 24.0787 25.98 24.0787C25.3332 24.0787 24.7828 23.8833 24.3493 23.4925C23.9227 23.1295 23.6819 22.5921 23.6957 22.0268C23.6957 21.4057 23.9296 20.9171 24.3906 20.5472C24.8516 20.1773 25.4708 19.9959 26.2414 19.9959C26.9019 19.9959 27.4386 20.1215 27.8652 20.3588V20.1006C27.8652 19.7167 27.7 19.3538 27.4111 19.1025C27.1152 18.8373 26.7368 18.6907 26.3446 18.6907C25.7254 18.6907 25.2369 18.956 24.8791 19.4864L23.9021 18.8652C24.425 18.0905 25.2162 17.6997 26.2689 17.6997ZM24.8378 22.0478C24.8378 22.3409 24.9754 22.6131 25.2025 22.7806C25.4502 22.976 25.7529 23.0807 26.0625 23.0737C26.5304 23.0737 26.9776 22.8853 27.3079 22.5503C27.6725 22.2013 27.8583 21.7895 27.8583 21.3149C27.5143 21.0358 27.0326 20.8962 26.4134 20.9032C25.9662 20.9032 25.5878 21.0148 25.285 21.2312C24.9892 21.4475 24.8378 21.7197 24.8378 22.0478Z" fill="white"/>
<path fill-rule="evenodd" clip-rule="evenodd" d="M35 17.8957L31.2984 26.515H30.1563L31.5323 23.5L29.1036 17.8957H30.3076L32.0621 22.1949H32.0828L33.796 17.8957H35Z" fill="white"/>
<path fill-rule="evenodd" clip-rule="evenodd" d="M14.71 19.5714C14.71 19.2294 14.6824 18.8875 14.6274 18.5525H9.95566V20.4857H12.6321C12.522 21.1069 12.1642 21.6652 11.6413 22.0142V23.2704H13.2376C14.1733 22.398 14.71 21.1069 14.71 19.5714Z" fill="#4285F4"/>
<path fill-rule="evenodd" clip-rule="evenodd" d="M9.95564 24.4852C11.2904 24.4852 12.4188 24.0386 13.2376 23.2709L11.6413 22.0146C11.1941 22.3217 10.623 22.4962 9.95564 22.4962C8.66214 22.4962 7.56817 21.6098 7.17599 20.4233H5.5316V21.7215C6.371 23.4174 8.0842 24.4852 9.95564 24.4852Z" fill="#34A853"/>
<path fill-rule="evenodd" clip-rule="evenodd" d="M7.1759 20.4226C6.96949 19.8014 6.96949 19.1244 7.1759 18.4963V17.2052H5.53151C4.82283 18.6219 4.82283 20.2969 5.53151 21.7137L7.1759 20.4226Z" fill="#FBBC04"/>
<path fill-rule="evenodd" clip-rule="evenodd" d="M9.95605 16.4234C10.6647 16.4094 11.3459 16.6816 11.855 17.1771L13.2724 15.7394C12.371 14.888 11.1876 14.4203 9.95605 14.4343C8.08461 14.4343 6.37141 15.5091 5.53201 17.2051L7.17641 18.5032C7.56858 17.3097 8.66255 16.4234 9.95605 16.4234Z" fill="#EA4335"/>
</svg>
