<svg width="40" height="40" viewBox="0 0 40 40" fill="none" xmlns="http://www.w3.org/2000/svg">
<g clip-path="url(#clip0_25_2426)">
<path d="M20 40C31.0457 40 40 31.0457 40 20C40 8.9543 31.0457 0 20 0C8.9543 0 0 8.9543 0 20C0 31.0457 8.9543 40 20 40Z" fill="#141413"/>
<path fill-rule="evenodd" clip-rule="evenodd" d="M16.6595 13.778H23.7945V26.6H16.6595V13.778Z" fill="#FF5F00"/>
<path fill-rule="evenodd" clip-rule="evenodd" d="M17.113 20.19C17.1117 18.955 17.3914 17.7358 17.931 16.6249C18.4706 15.514 19.256 14.5405 20.2275 13.778C16.884 11.1505 12.0835 11.533 9.1985 14.657C6.314 17.781 6.314 22.597 9.1985 25.721C12.0835 28.8445 16.884 29.2275 20.2275 26.6C19.2562 25.8377 18.4711 24.8645 17.9315 23.754C17.3919 22.6434 17.112 21.4247 17.113 20.19Z" fill="#EB001B"/>
<path fill-rule="evenodd" clip-rule="evenodd" d="M33.4205 20.19C33.4204 21.7199 32.9898 23.219 32.1781 24.5158C31.3663 25.8126 30.206 26.8549 28.8299 27.5235C27.4538 28.1921 25.9173 28.4601 24.3961 28.2967C22.8749 28.1334 21.4303 27.5454 20.2275 26.6C21.1983 25.837 21.9832 24.8635 22.5229 23.7529C23.0626 22.6424 23.343 21.4237 23.343 20.189C23.343 18.9542 23.0626 17.7356 22.5229 16.625C21.9832 15.5144 21.1983 14.5409 20.2275 13.778C21.4303 12.8325 22.8749 12.2445 24.3961 12.0812C25.9173 11.9179 27.4538 12.1858 28.8299 12.8544C30.206 13.523 31.3663 14.5653 32.1781 15.8621C32.9898 17.159 33.4204 18.658 33.4205 20.188V20.19Z" fill="#F79E1B"/>
</g>
<defs>
<clipPath id="clip0_25_2426">
<rect width="40" height="40" fill="white"/>
</clipPath>
</defs>
</svg>
