<svg width="40" height="40" viewBox="0 0 40 40" fill="none" xmlns="http://www.w3.org/2000/svg">
<circle cx="20" cy="20" r="20" fill="black"/>
<path d="M10.2962 15.6777C10.6573 15.2261 10.9023 14.6197 10.8377 14C10.3091 14.0263 9.66415 14.3487 9.29072 14.8007C8.95543 15.1877 8.65866 15.8195 8.73601 16.4132C9.32935 16.4647 9.92214 16.1166 10.2962 15.6777Z" fill="white"/>
<path d="M10.8309 16.529C9.96927 16.4777 9.23667 17.018 8.82516 17.018C8.41347 17.018 7.78334 16.5549 7.10181 16.5673C6.21477 16.5804 5.3917 17.0819 4.94153 17.8796C4.01569 19.4754 4.69721 21.8425 5.59755 23.1421C6.0348 23.7851 6.56172 24.4931 7.25605 24.4676C7.91207 24.4419 8.16919 24.0429 8.96661 24.0429C9.76344 24.0429 9.99506 24.4676 10.6895 24.4548C11.4096 24.4419 11.8599 23.8115 12.2971 23.1679C12.7987 22.4349 13.004 21.7272 13.0169 21.6883C13.004 21.6754 11.6283 21.1477 11.6155 19.5652C11.6025 18.2401 12.6956 17.6098 12.7471 17.5707C12.1298 16.6578 11.1653 16.5549 10.8309 16.529Z" fill="white"/>
<path d="M19.422 14.7359C21.2948 14.7359 22.599 16.0268 22.599 17.9064C22.599 19.7926 21.2681 21.0903 19.3752 21.0903H17.3016V24.3877H15.8033V14.7359H19.422ZM17.3016 19.8327H19.0206C20.325 19.8327 21.0673 19.1305 21.0673 17.9131C21.0673 16.6958 20.325 16.0001 19.0273 16.0001H17.3016V19.8327Z" fill="white"/>
<path d="M22.9709 22.3879C22.9709 21.1504 23.914 20.4414 25.653 20.3345L27.5191 20.2207V19.6856C27.5191 18.903 27.0041 18.4749 26.0878 18.4749C25.3319 18.4749 24.7834 18.8629 24.6698 19.4582H23.3186C23.3588 18.2074 24.536 17.2978 26.1279 17.2978C27.8402 17.2978 28.9572 18.1941 28.9572 19.5852V24.3877H27.5726V23.2307H27.5392C27.1446 23.9865 26.275 24.4612 25.3319 24.4612C23.9407 24.4612 22.9709 23.6319 22.9709 22.3879ZM27.5191 21.7658V21.224L25.8536 21.331C24.9172 21.3912 24.4291 21.739 24.4291 22.3477C24.4291 22.9363 24.9374 23.3176 25.7333 23.3176C26.7499 23.3176 27.5191 22.6687 27.5191 21.7658Z" fill="white"/>
<path d="M30.23 26.9697V25.8127C30.3237 25.8258 30.5511 25.8392 30.6714 25.8392C31.3336 25.8392 31.7082 25.5585 31.9357 24.836L32.0694 24.4079L29.5344 17.3848H31.0995L32.8653 23.0835H32.8987L34.6646 17.3848H36.1897L33.561 24.7625C32.959 26.4546 32.27 27.0099 30.8119 27.0099C30.6982 27.0099 30.3303 26.9965 30.23 26.9697Z" fill="white"/>
</svg>
