<svg width="40" height="40" viewBox="0 0 40 40" fill="none" xmlns="http://www.w3.org/2000/svg">
<rect width="40" height="40" rx="20" fill="#006848"/>
<path fill-rule="evenodd" clip-rule="evenodd" d="M20.7783 19.783H14.8737V22.8556H16.7458V21.1258H17.535L18.5969 22.8568H20.7206L19.4715 20.9817C19.7608 20.8841 20.0268 20.7266 20.2518 20.5204C20.4768 20.3141 20.6564 20.0624 20.7783 19.783ZM8.56674 17.7715L7.79083 20.4627H7.65782L6.88192 17.7715C6.81764 17.5497 6.68351 17.3546 6.49951 17.216C6.31441 17.0774 6.09049 17.002 5.85883 17.002H4V22.8568H5.86217V19.4004H5.99518L7.05594 22.8568H8.38717L9.45347 19.4004H9.5865V22.8568H11.4453V17.002H9.5887C9.35815 17.002 9.13423 17.0774 8.94912 17.216C8.76513 17.3546 8.63103 17.5497 8.56674 17.7715ZM12.2456 17.002H14.1078V22.8568H12.2456V17.002Z" fill="white"/>
<path d="M20.1753 17.5467C19.7963 17.1963 19.2997 17.0022 18.7843 17.0022V17H14.7562C14.764 17.1541 14.7862 17.3072 14.8216 17.458L14.8294 17.4934L14.846 17.5578L14.8549 17.5866L14.8582 17.5977C15.0256 18.1288 15.3581 18.5923 15.807 18.9217C16.2559 19.251 16.7979 19.4284 17.3544 19.4284H20.8105C20.8737 19.0869 20.8493 18.7343 20.7373 18.4049C20.6265 18.0756 20.4325 17.7806 20.1753 17.5467Z" fill="white"/>
<path d="M22 17H24.1044C25.3843 17 26.2652 17.6676 26.2652 18.7857C26.2652 20.0141 25.2114 20.6482 23.998 20.6482H22.4422V22.8412H22.01L22 17ZM24.0279 20.2644C25.1083 20.2644 25.8397 19.697 25.8397 18.8291C25.8397 17.9012 25.125 17.4172 24.0778 17.4172H22.4422V20.2811L24.0279 20.2644Z" fill="white"/>
<path d="M27.0293 21.6065V21.5898C27.0293 20.7053 27.7839 20.2046 28.881 20.2046C29.3559 20.2007 29.8291 20.2625 30.2872 20.3882V20.2046C30.2872 19.3468 29.762 18.9028 28.891 18.9028C28.4272 18.9033 27.9706 19.0179 27.5612 19.2366L27.4282 18.8862C27.8943 18.6494 28.4085 18.5238 28.9309 18.519C29.4183 18.4917 29.8966 18.6597 30.2606 18.9863C30.4101 19.1467 30.5255 19.3359 30.5998 19.5425C30.6741 19.7491 30.7057 19.9687 30.6928 20.1879V22.8415H30.2939V22.1305C30.1104 22.3888 29.8664 22.5979 29.5835 22.7394C29.3007 22.8808 28.9875 22.9503 28.6716 22.9416C27.8837 22.9416 27.036 22.491 27.036 21.6065H27.0293ZM30.3005 21.2493V20.7653C29.8324 20.6378 29.3495 20.5727 28.8644 20.5718C27.9668 20.5718 27.4681 20.9723 27.4681 21.5731C27.4681 22.1906 28.0499 22.5511 28.6982 22.5511C29.5625 22.5511 30.3005 22.017 30.3005 21.2427" fill="white"/>
<path d="M35.2972 18.5859H35.7394L33.9043 22.9919C33.5286 23.8831 33.0965 24.2002 32.4914 24.2002C32.2018 24.2049 31.915 24.142 31.6537 24.0166L31.7933 23.6594C32.0168 23.7718 32.2649 23.8258 32.5147 23.8163C32.9568 23.8163 33.2461 23.5593 33.5619 22.815L31.5273 18.5859H32.0027L33.7613 22.3911L35.2972 18.5859Z" fill="white"/>
</svg>
