<svg width="40" height="40" viewBox="0 0 40 40" fill="none" xmlns="http://www.w3.org/2000/svg">
<circle cx="20" cy="20" r="20" fill="#000078"/>
<path fill-rule="evenodd" clip-rule="evenodd" d="M32.8801 19.5503C32.8801 18.7287 32.19 18.0676 30.7897 18.0676C29.2995 18.0676 28.5331 18.9107 28.5331 19.9526H29.9017C29.9017 19.4115 30.1995 19.1294 30.7698 19.1294C31.3099 19.1294 31.5397 19.3257 31.5397 19.6363C31.5397 19.9467 31.3697 20.1581 30.9498 20.1581L30.1755 20.1587V21.0492L30.9295 21.0486C31.4098 21.0486 31.6099 21.2591 31.6099 21.5997C31.6099 21.9202 31.3998 22.2249 30.7897 22.2249C30.1296 22.2249 29.8296 21.8844 29.8296 21.3234H28.4646C28.4646 22.5956 29.3496 23.2768 30.7897 23.2768C32.2097 23.2768 33 22.6757 33 21.714C33 21.2132 32.74 20.8525 32.2399 20.6422C32.6699 20.4118 32.88 19.991 32.88 19.5502L32.8801 19.5503ZM26.2774 23.1415H27.682V18.2031H26.2774V18.7433C25.9156 18.2883 25.4386 18.1015 24.9201 18.1015C23.6001 18.1015 22.5489 19.1297 22.5489 20.6722C22.5489 22.2147 23.6001 23.2429 24.9201 23.2429C25.4386 23.2429 25.9156 23.056 26.2774 22.6011V23.1414V23.1415ZM26.3752 20.6722C26.3752 21.4534 25.7968 22.0252 25.1041 22.0252C24.4214 22.0252 23.8331 21.4534 23.8331 20.6722C23.8331 19.8911 24.4214 19.3192 25.1042 19.3192C25.7968 19.3192 26.3752 19.8911 26.3752 20.6722ZM20.18 19.3881H22.221V18.2029H18.7763V23.1415H20.1801V19.3881H20.18ZM18.0829 20.6722C18.0829 19.1964 16.8999 18 15.4408 18C13.9814 18 12.7986 19.1964 12.7986 20.6722C12.7986 22.148 13.9816 23.3444 15.4408 23.3444C16.9001 23.3444 18.0829 22.148 18.0829 20.6722ZM16.945 20.9279C16.1351 21.1223 15.571 21.8191 15.4408 22.9414C15.3105 21.8191 14.7464 21.1223 13.9365 20.9279C13.7973 20.0494 14.5641 19.2811 15.4408 19.2798C16.3174 19.2811 17.0842 20.0494 16.945 20.9279ZM8.28324 20.6722C8.28324 19.8706 8.81841 19.2177 9.58758 19.2177C10.1785 19.2177 10.669 19.5447 10.7917 20.0294H12.1295C12.0602 18.9048 11.0444 18 9.61849 18C8.12464 18 7 19.1002 7 20.6727C7 22.2452 8.12464 23.3444 9.61849 23.3444C11.0694 23.3444 12.0948 22.4438 12.1295 21.2135H10.7917C10.6874 21.7759 10.2231 22.1266 9.58772 22.1266C8.88529 22.1266 8.28324 21.4945 8.28324 20.6722Z" fill="white"/>
</svg>
