<svg width="40" height="40" viewBox="0 0 40 40" fill="none" xmlns="http://www.w3.org/2000/svg">
<g clip-path="url(#clip0_214_235)">
<path d="M20 40C31.0457 40 40 31.0457 40 20C40 8.95431 31.0457 0 20 0C8.95431 0 0 8.95431 0 20C0 31.0457 8.95431 40 20 40Z" fill="#13DC20"/>
<path d="M20 40C31.0457 40 40 31.0457 40 20C40 8.95431 31.0457 0 20 0C8.95431 0 0 8.95431 0 20C0 31.0457 8.95431 40 20 40Z" fill="url(#paint0_radial_214_235)"/>
<path d="M20 40C31.0457 40 40 31.0457 40 20C40 8.95431 31.0457 0 20 0C8.95431 0 0 8.95431 0 20C0 31.0457 8.95431 40 20 40Z" fill="url(#paint1_radial_214_235)"/>
<path d="M20 40C31.0457 40 40 31.0457 40 20C40 8.95431 31.0457 0 20 0C8.95431 0 0 8.95431 0 20C0 31.0457 8.95431 40 20 40Z" fill="url(#paint2_radial_214_235)"/>
<path d="M28.5717 13.3143H12.3812C8.69928 13.3143 5.71451 16.2991 5.71451 19.981C5.71451 23.6629 8.69928 26.6476 12.3812 26.6476H28.5717C32.2536 26.6476 35.2383 23.6629 35.2383 19.981C35.2383 16.2991 32.2536 13.3143 28.5717 13.3143Z" fill="#08B64E"/>
<path fill-rule="evenodd" clip-rule="evenodd" d="M27.6192 27.619H12.3811C10.3605 27.619 8.42255 26.8163 6.9937 25.3875C5.56486 23.9587 4.76213 22.0207 4.76213 20C4.76213 17.9793 5.56486 16.0413 6.9937 14.6125C8.42255 13.1837 10.3605 12.381 12.3811 12.381H27.6192C29.64 12.381 31.5779 13.1837 33.0068 14.6125C34.4356 16.0413 35.2383 17.9793 35.2383 20C35.2383 22.0207 34.4356 23.9587 33.0068 25.3875C31.5779 26.8163 29.64 27.619 27.6192 27.619ZM10.4019 20.0816V18.8788L11.9963 19.8783L15.3106 17.4397C15.51 17.697 15.6788 17.9765 15.8134 18.2727L11.9963 21.0811L10.4019 20.0816ZM15.2168 19.9081V19.9949C15.2179 20.7154 14.9777 21.4155 14.5345 21.9836C14.0912 22.5516 13.4706 22.9549 12.7713 23.1289C12.0722 23.3029 11.335 23.2378 10.677 22.944C10.0192 22.6501 9.47882 22.1443 9.14199 21.5074C8.80516 20.8705 8.69135 20.1391 8.81872 19.43C8.94609 18.7209 9.3073 18.0748 9.84476 17.5949C10.3822 17.115 11.0648 16.829 11.7838 16.7823C12.5028 16.7357 13.2167 16.9312 13.8115 17.3377L14.6291 16.7378C13.8899 16.1405 12.9696 15.8121 12.0191 15.8068C11.0688 15.8013 10.1448 16.1192 9.39882 16.7082C8.65289 17.2971 8.12932 18.1222 7.91408 19.0479C7.69884 19.9736 7.80469 20.945 8.21429 21.8027C8.62388 22.6603 9.31286 23.3532 10.1682 23.7677C11.0234 24.1822 11.9942 24.2935 12.9211 24.0836C13.8481 23.8736 14.6761 23.3548 15.2693 22.6122C15.8625 21.8696 16.1856 20.9474 16.1856 19.997C16.1855 19.7451 16.163 19.4937 16.1182 19.2458L15.2168 19.9081ZM20.347 22.5172V20.8094H21.1923C22.7979 20.8094 23.6594 20.1676 23.6594 18.8911C23.6594 17.6535 22.9235 17.0342 21.1923 17.0342H19.368V22.5172H20.347ZM20.347 19.908V17.9356L21.2832 17.9346C22.2368 17.9346 22.6456 18.1931 22.6456 18.8667C22.6456 19.6107 22.1754 19.908 21.2669 19.908H20.347ZM24.1758 18.8749C24.4333 18.6817 24.9034 18.5223 25.578 18.5223C26.7216 18.5223 27.2857 18.9147 27.2857 19.9327V22.5172H26.4242V21.8121C26.2362 22.2659 25.7589 22.5796 25.1313 22.5796C24.3403 22.5796 23.8712 22.133 23.8712 21.3655C23.8712 20.4723 24.5212 20.2218 25.4839 20.2218H26.369V20.0502C26.369 19.4942 26.1032 19.3214 25.578 19.3214C24.8574 19.3214 24.4425 19.6035 24.1768 20.0185L24.1758 18.8749ZM26.368 21.1345V20.8177H25.5933C25.0527 20.8177 24.7941 20.9199 24.7941 21.2714C24.7941 21.5689 25.0128 21.757 25.4206 21.757C26.0389 21.757 26.3291 21.4043 26.368 21.1345ZM28.7608 18.6007H27.7388L29.3872 22.5374C29.2381 23.0649 29.0265 23.2529 28.7454 23.2529C28.5694 23.2497 28.4013 23.1795 28.2753 23.0567V23.911C28.3909 24.0122 28.6586 24.0828 28.9018 24.0828C29.419 24.0828 29.7706 23.8711 30.116 22.932L31.6817 18.6007H30.7108L29.8339 21.2866L28.7608 18.6007Z" fill="white"/>
</g>
<defs>
<radialGradient id="paint0_radial_214_235" cx="0" cy="0" r="1" gradientUnits="userSpaceOnUse" gradientTransform="translate(40) rotate(135) scale(39.0323)">
<stop stop-color="#3BDFB4"/>
<stop offset="1" stop-color="#3BDFB4" stop-opacity="0"/>
</radialGradient>
<radialGradient id="paint1_radial_214_235" cx="0" cy="0" r="1" gradientUnits="userSpaceOnUse" gradientTransform="translate(34.5 5.5) rotate(135) scale(38.8909)">
<stop stop-color="#19CCDC"/>
<stop offset="0.222712" stop-color="#19CCDC" stop-opacity="0.75"/>
<stop offset="1" stop-color="#19CCDC" stop-opacity="0"/>
</radialGradient>
<radialGradient id="paint2_radial_214_235" cx="0" cy="0" r="1" gradientUnits="userSpaceOnUse" gradientTransform="translate(-6.91823e-07 40) rotate(-45) scale(28.2843)">
<stop stop-color="#F5ED01"/>
<stop offset="0.331858" stop-color="#F5ED01" stop-opacity="0.8"/>
<stop offset="1" stop-color="#F5ED01" stop-opacity="0"/>
</radialGradient>
<clipPath id="clip0_214_235">
<rect width="40" height="40" fill="white"/>
</clipPath>
</defs>
</svg>
