<svg width="40" height="40" viewBox="0 0 40 40" fill="none" xmlns="http://www.w3.org/2000/svg">
<circle cx="20" cy="20" r="20" fill="#00BEF6"/>
<path d="M6 19.9381C6 14.0126 9.78467 8.95891 15.1 7L17.2 11.3961C13.5442 12.5609 10.9 15.945 10.9 19.9381C10.9 23.9313 13.5442 27.3154 17.2 28.4801L15.45 33C9.95158 31.1374 6 25.9929 6 19.9381Z" fill="white"/>
<path d="M22.8 11.3961C26.4558 12.5609 29.1 15.945 29.1 19.9381C29.1 23.9313 26.4558 27.3154 22.8 28.4801L24.9 32.8762C30.2153 30.9173 34 25.8636 34 19.9381C34 14.0126 30.2153 8.95891 24.9 7L22.8 11.3961Z" fill="white"/>
</svg>
