<svg width="40" height="40" viewBox="0 0 40 40" fill="none" xmlns="http://www.w3.org/2000/svg">
<g clip-path="url(#clip0_3_12000)">
<path fill-rule="evenodd" clip-rule="evenodd" d="M20 40C31.0456 40 39.9999 31.0457 39.9999 20C39.9999 8.9543 31.0456 0 20 0C8.95429 0 0 8.9543 0 20C0 31.0457 8.95429 40 20 40Z" fill="#F7F7F7"/>
<path d="M18.7748 6L18.679 19.1558L22.4163 21.3644V12.3378L18.7748 6Z" fill="#FAB719"/>
<path d="M18.7725 22.3242V34.9999L22.4139 28.47V24.6289L18.7725 22.3242Z" fill="#61B42C"/>
<path d="M31.9986 26.5519L9 12.3398L12.4498 18.4856L25.4823 26.5519H31.9986Z" fill="#208BC9"/>
<path d="M18.7725 6L31.9966 14.0663H25.4804L22.4139 12.3378L18.7725 6Z" fill="#F77C1C"/>
<path d="M22.4172 16.1406L25.4837 14.0664H32.0001L22.4172 20.4042V16.1406Z" fill="#D60B4C"/>
<path d="M22.4139 28.4674L25.4804 26.5469H31.9966L18.7725 34.9973L22.4139 28.4674Z" fill="#097F2D"/>
<path d="M9 12.3398V28.4725L12.2581 22.5188L12.4498 18.4856L9 12.3398Z" fill="#5B59A1"/>
<path d="M15.5546 20.4061L12.2581 22.5187L9 28.4725L18.7744 22.3267L15.5546 20.4061Z" fill="#9F4393"/>
</g>
<defs>
<clipPath id="clip0_3_12000">
<rect width="40" height="40" fill="white"/>
</clipPath>
</defs>
</svg>
