<svg width="40" height="41" viewBox="0 0 40 41" fill="none" xmlns="http://www.w3.org/2000/svg">
<circle cx="20" cy="20.5" r="20" fill="#FF5000"/>
<path d="M9.23265 24.8343C7.47933 24.8343 6.1004 23.4553 6.1004 21.6626C6.1004 19.8699 7.47933 18.491 9.23265 18.491C10.9859 18.491 12.4043 19.8699 12.4043 21.6626C12.4043 23.4553 10.9859 24.8343 9.23265 24.8343ZM12.4043 16.6983V18.4122H12.03C11.3405 17.1711 10.06 16.4619 8.5825 16.4619C6.15947 16.4619 3.9137 18.7273 3.9137 21.6626C3.9137 24.5979 6.1004 26.8437 8.5825 26.8437C10.06 26.8437 11.3405 26.1345 12.03 24.8934H12.4043V26.5876H14.5713V16.6983H12.4043Z" fill="white"/>
<path d="M23.2983 24.6372H19.7917V22.1748H23.2983C24.2833 22.1748 24.7561 22.687 24.7561 23.4159C24.7561 24.1448 24.303 24.6372 23.2983 24.6372ZM23.5544 20.2442H19.7917V18.6485H26.1548V16.6983H17.6248V26.5876H23.5544C25.5638 26.5876 26.9625 25.248 26.9625 23.4159C26.9625 21.5838 25.5441 20.2442 23.5544 20.2442Z" fill="white"/>
<path d="M36.0864 16.7244C36.0864 18.6222 34.5479 20.1606 32.6501 20.1606C30.7524 20.1606 29.2139 18.6222 29.2139 16.7244C29.2139 14.8265 30.7524 13.2881 32.6501 13.2881C34.5479 13.2881 36.0864 14.8265 36.0864 16.7244Z" fill="#00F500"/>
</svg>
