<svg width="40" height="40" viewBox="0 0 40 40" fill="none" xmlns="http://www.w3.org/2000/svg">
<g clip-path="url(#clip0_409_449)">
<path d="M19.802 39.6033C30.738 39.6033 39.6033 30.738 39.6033 19.802C39.6033 8.86533 30.738 0 19.802 0C8.86533 0 0 8.86533 0 19.802C0 30.738 8.86533 39.6033 19.802 39.6033Z" fill="#E92636"/>
<path fill-rule="evenodd" clip-rule="evenodd" d="M21.8647 14.2594L15.4993 20.6894L12.316 17.4734L15.504 14.2527H9.188L9.12667 14.2507L6 17.4734L15.5633 27.1334L23.7333 18.8167H28.624L33.1353 14.2594H21.8647ZM16.878 26.9974L17.79 26.0841L24.0867 19.7207H33.1373L28.6253 24.2727H25.968L23.2767 26.9974H16.878Z" fill="white"/>
</g>
<defs>
<clipPath id="clip0_409_449">
<rect width="40" height="40" fill="white"/>
</clipPath>
</defs>
</svg>
