<svg width="40" height="40" viewBox="0 0 40 40" fill="none" xmlns="http://www.w3.org/2000/svg">
<g clip-path="url(#clip0_132_92)">
<path d="M20 40C31.0435 40 40 31.0435 40 20C40 8.9565 31.0435 0 20 0C8.9565 0 0 8.9565 0 20C0 31.0435 8.9565 40 20 40Z" fill="#0067BA"/>
<path d="M19.9908 10C21.5594 10 23.0451 10.3655 24.3684 11.015C24.5763 11.1135 24.7836 11.2225 24.9914 11.342L24.0717 12.166L22.6899 10.736L20.3575 12.818L18.9722 11.305L14.6275 15.2245L17.4125 18.2965L16.318 19.26L19.0611 22.337L17.973 23.2985L21.8931 27.666L24.2201 25.5215L26.2318 27.8195C25.8317 28.131 25.3955 28.424 24.9155 28.6945C23.4607 29.525 21.7792 30.0005 19.9898 30.0005C14.4871 30.0005 9.99902 25.508 9.99902 20.001C9.99902 14.493 14.4871 10.0005 19.9898 10.0005L19.9908 10ZM18.0645 19.4055L20.4404 17.2645L22.5795 19.6425L20.2036 21.7835L18.0645 19.4055ZM19.8789 23.4405L22.2548 21.3L24.3939 23.678L22.0185 25.8195L19.8784 23.4405H19.8789ZM16.4519 15.369L18.8278 13.2285L20.9664 15.6065L18.5905 17.747L16.4519 15.369ZM20.6857 14.2285L22.4671 12.623L24.0717 14.406L22.2893 16.012L20.6852 14.228L20.6857 14.2285ZM23.9113 21.494L25.6938 19.888L27.2979 21.672L25.5159 23.2775L23.9113 21.4945V21.494ZM25.5239 25.126L27.3054 23.52L28.91 25.303L27.1275 26.909L25.5234 25.126H25.5239ZM26.1289 16.922L27.3169 15.852L28.3864 17.041L27.199 18.111L26.1289 16.922ZM24.7181 13.29L25.9061 12.22L26.9752 13.409L25.7872 14.479L24.7181 13.29ZM27.742 20.3525L28.93 19.2825L29.999 20.4715L28.8111 21.542L27.742 20.353V20.3525ZM22.5001 17.66L24.2815 16.054L25.8856 17.8375L24.1047 19.4435L22.5001 17.6605V17.66Z" fill="white"/>
</g>
<defs>
<clipPath id="clip0_132_92">
<rect width="40" height="40" fill="white"/>
</clipPath>
</defs>
</svg>
