<svg width="40" height="40" viewBox="0 0 40 40" fill="none" xmlns="http://www.w3.org/2000/svg">
<g clip-path="url(#clip0_132_19)">
<path d="M20.0003 40C31.0459 40 40 31.0459 40 20.0003C40 8.95413 31.0459 0 20.0003 0C8.95413 0 0 8.95413 0 20.0003C0 31.0459 8.95413 40 20.0003 40Z" fill="#D4E8BB"/>
<path fill-rule="evenodd" clip-rule="evenodd" d="M25.9998 20.0066C26.0266 23.4212 23.4982 25.954 20.5372 25.9994C17.5212 26.0456 15.0175 23.3512 15.0001 20.1177C14.9827 16.7284 17.3984 14.0167 20.4493 14.0001C23.529 13.9828 25.9797 16.6353 25.9998 20.0066Z" fill="#6FB21D"/>
<path fill-rule="evenodd" clip-rule="evenodd" d="M19.9876 9.3478C19.9876 9.93753 19.9679 10.5273 19.9946 11.1163C20.0122 11.5232 19.9159 11.7177 19.4503 11.7377C17.3766 11.8274 15.6108 12.6689 14.1622 14.1118C9.93454 18.3234 11.3395 25.2373 16.7022 27.5204C22.0346 29.791 27.7728 26.2719 28.2503 20.5188C28.2875 20.0643 28.4029 19.905 28.8789 19.9188C30.0624 19.9532 31.2487 19.9588 32.4308 19.9174C32.9484 19.8988 33.025 20.1008 32.9941 20.5381C32.672 25.0718 30.6552 28.6647 26.7433 31.0036C22.3609 33.6246 17.7795 33.6784 13.3796 31.085C8.92896 28.4626 6.80949 24.3917 7.01342 19.2545C7.15899 15.592 8.7398 12.5289 11.5322 10.1175C13.779 8.17731 16.4188 7.20409 19.3695 7.00475C19.8287 6.9744 20.0277 7.08062 19.9925 7.58068C19.9503 8.16696 19.9827 8.75876 19.9827 9.3478H19.9876Z" fill="#05674B"/>
<path fill-rule="evenodd" clip-rule="evenodd" d="M27.3501 15.9782C25.4768 15.9913 24.0211 14.5505 24.0176 12.6723C24.0141 10.6134 25.4578 9.44708 27.3445 9.39328C29.1215 9.34293 30.6095 10.8424 30.6376 12.6178C30.6664 14.4732 29.2087 15.9651 27.3501 15.9782Z" fill="#05674B"/>
</g>
<defs>
<clipPath id="clip0_132_19">
<rect width="40" height="40" fill="white"/>
</clipPath>
</defs>
</svg>
