<svg width="40" height="40" viewBox="0 0 40 40" fill="none" xmlns="http://www.w3.org/2000/svg">
<g clip-path="url(#clip0_132_33)">
<path fill-rule="evenodd" clip-rule="evenodd" d="M20 0C31.046 0 40 8.95467 40 19.9967V20.0033C40 31.0473 31.048 40 20 40C8.954 40 0 31.048 0 20C0 8.954 8.952 0 20 0Z" fill="#E30511"/>
<path fill-rule="evenodd" clip-rule="evenodd" d="M27.0227 22.0926C26.9853 23.5773 26.7127 25.0013 26.0367 26.328C25.1567 28.0546 23.8073 29.228 21.93 29.7493C20.8547 30.048 19.7613 30.092 18.6567 29.9406C17.4453 29.7753 16.3467 29.3373 15.3927 28.5626C14.4893 27.8293 13.842 26.9046 13.3887 25.836C13.0496 25.0288 12.8287 24.1769 12.7327 23.3066C12.6496 22.5402 12.6452 21.7673 12.7193 21C12.8793 19.2133 13.3427 17.5066 14.0527 15.8653C14.6367 14.514 15.3687 13.252 16.3227 12.1286C16.8867 11.4653 17.5193 10.878 18.2813 10.442C19.2993 9.86064 20.314 9.85064 21.3373 10.4246C22.028 10.8113 22.6153 11.3246 23.1393 11.9126C24.438 13.372 25.3413 15.0633 26.01 16.8893C26.4023 17.9449 26.6799 19.0397 26.838 20.1546C26.9267 20.7973 26.9627 21.4466 27.0227 22.0926Z" fill="white"/>
</g>
<defs>
<clipPath id="clip0_132_33">
<rect width="40" height="40" fill="white"/>
</clipPath>
</defs>
</svg>
