<svg width="40" height="40" viewBox="0 0 40 40" fill="none" xmlns="http://www.w3.org/2000/svg">
<g clip-path="url(#clip0_25_2969)">
<path fill-rule="evenodd" clip-rule="evenodd" d="M20 40C31.0457 40 40 31.0457 40 20C40 8.95433 31.0457 0 20 0C8.95433 0 0 8.95433 0 20C0 31.0457 8.95433 40 20 40Z" fill="#FFE0BE"/>
<path d="M7.57143 20H33L32.4286 23H7L7.57143 20Z" fill="#20421D"/>
<path d="M20 28.7223C24.6024 28.7223 28.3333 24.9913 28.3333 20.389C28.3333 15.7866 24.6024 12.0556 20 12.0556C15.3976 12.0556 11.6667 15.7866 11.6667 20.389C11.6667 24.9913 15.3976 28.7223 20 28.7223Z" fill="#FDB76A"/>
<path fill-rule="evenodd" clip-rule="evenodd" d="M20 29.5556C25.0626 29.5556 29.1667 25.4515 29.1667 20.389C29.1667 15.3263 25.0626 11.2223 20 11.2223C14.9374 11.2223 10.8333 15.3263 10.8333 20.389C10.8333 25.4515 14.9374 29.5556 20 29.5556ZM20 28.7223C24.6023 28.7223 28.3333 24.9914 28.3333 20.389C28.3333 15.7866 24.6023 12.0556 20 12.0556C15.3977 12.0556 11.6667 15.7866 11.6667 20.389C11.6667 24.9914 15.3977 28.7223 20 28.7223Z" fill="#F78E1C"/>
<path d="M20.5688 13.4545C20.3693 13.4383 20.1673 13.4305 19.9634 13.4315C16.1282 13.4508 13.0347 16.5755 13.0539 20.4107C13.0705 23.733 15.4176 26.4988 18.5382 27.1666L20.5688 13.4545Z" fill="#DD3932"/>
<path d="M22.4803 18.5L22.0482 19.0534C22.1923 19.1644 22.3278 19.2915 22.4521 19.4344C22.4706 19.4557 22.4888 19.4772 22.5065 19.4989L22.8682 18.9749C22.7516 18.8044 22.6216 18.6456 22.4803 18.5Z" fill="url(#paint0_linear_25_2969)"/>
<path d="M21.3391 18.6579C21.5318 18.7305 21.7182 18.8255 21.8939 18.9427L22.2472 18.2809C22.0656 18.125 21.8692 17.9889 21.6616 17.875L21.3391 18.6579Z" fill="url(#paint1_linear_25_2969)"/>
<path d="M21.2483 17.684L21.0523 18.5675C20.8502 18.5158 20.6434 18.4876 20.4365 18.4834L20.6293 17.5162C20.8415 17.5514 21.0487 17.6079 21.2483 17.684Z" fill="url(#paint2_linear_25_2969)"/>
<path d="M23.5142 21.0164L23.1337 21.2264C23.1331 21.1215 23.1263 21.0165 23.1135 20.9118L23.4939 20.688C23.5056 20.7981 23.5122 20.9077 23.5142 21.0164Z" fill="url(#paint3_linear_25_2969)"/>
<path d="M23.4478 20.3765L23.0773 20.6912C23.05 20.5594 23.0128 20.4289 22.9658 20.3008L23.3737 20.0609C23.4026 20.164 23.4273 20.2692 23.4478 20.3765Z" fill="url(#paint4_linear_25_2969)"/>
<path d="M23.2605 19.7209L22.8633 20.0583C22.8104 19.9484 22.7499 19.841 22.6815 19.737L23.082 19.3293C23.1485 19.455 23.2082 19.5857 23.2605 19.7209Z" fill="url(#paint5_linear_25_2969)"/>
<path d="M16.1038 16.5569L16.6648 17.4079C16.4433 17.5519 16.2324 17.7201 16.036 17.9123C16.0067 17.941 15.9779 17.9701 15.9497 17.9994L15.4872 17.1989C15.6758 16.9657 15.8822 16.7511 16.1038 16.5569Z" fill="url(#paint6_linear_25_2969)"/>
<path d="M17.7369 16.9179C17.4495 17.0006 17.1688 17.1165 16.9009 17.2656L16.4664 16.2669C16.7476 16.0623 17.0476 15.8881 17.3613 15.7475L17.7369 16.9179Z" fill="url(#paint7_linear_25_2969)"/>
<path d="M17.9816 15.519L18.1625 16.8204C18.4611 16.7691 18.7636 16.7524 19.0635 16.7703L18.8968 15.3483C18.5858 15.3745 18.2793 15.4321 17.9816 15.519Z" fill="url(#paint8_linear_25_2969)"/>
<path d="M14.3148 20.0784L14.8411 20.4265C14.8543 20.2748 14.8762 20.1236 14.9069 19.9735L14.3825 19.6055C14.3528 19.7635 14.3303 19.9212 14.3148 20.0784Z" fill="url(#paint9_linear_25_2969)"/>
<path d="M14.4854 19.1599L14.9851 19.6584C15.0398 19.4709 15.1087 19.2864 15.1917 19.1065L14.6293 18.7119C14.5755 18.8577 14.5274 19.0071 14.4854 19.1599Z" fill="url(#paint10_linear_25_2969)"/>
<path d="M14.8327 18.2329L15.3684 18.7674C15.4576 18.6145 15.5577 18.4662 15.6688 18.3235L15.1365 17.687C15.0258 17.8612 14.9242 18.0434 14.8327 18.2329Z" fill="url(#paint11_linear_25_2969)"/>
<path d="M24.7045 15.5613L23.8916 16.6024C24.1628 16.8114 24.4176 17.0504 24.6514 17.3191C24.6863 17.3592 24.7204 17.3997 24.7539 17.4405L25.4343 16.4546C25.2149 16.1338 24.9704 15.8351 24.7045 15.5613Z" fill="#CC2328"/>
<path d="M22.5575 15.8582C22.9202 15.9949 23.2707 16.1737 23.6012 16.394L24.2662 15.1491C23.9242 14.8557 23.5547 14.5995 23.1641 14.3854L22.5575 15.8582Z" fill="#CC2328"/>
<path d="M22.3866 14.0259L22.0179 15.6881C21.6375 15.5909 21.2485 15.5379 20.8593 15.5299L21.2221 13.7104C21.6213 13.7764 22.011 13.8828 22.3866 14.0259Z" fill="#CC2328"/>
<path d="M26.6498 20.2956L25.9339 20.6907C25.9327 20.4934 25.9201 20.2957 25.8958 20.0988L26.6115 19.6778C26.6335 19.885 26.6462 20.0911 26.6498 20.2956Z" fill="#CC2328"/>
<path d="M26.5248 19.0915L25.8276 19.6837C25.7763 19.4358 25.7065 19.1903 25.6179 18.9493L26.3853 18.4979C26.4398 18.6919 26.4863 18.8899 26.5248 19.0915Z" fill="#CC2328"/>
<path d="M26.1724 17.8581L25.425 18.493C25.3257 18.2863 25.2118 18.0842 25.0831 17.8884L25.8367 17.1214C25.9617 17.358 26.0739 17.6038 26.1724 17.8581Z" fill="#CC2328"/>
<path d="M10 23H30C30 26.866 26.866 30 23 30H17C13.134 30 10 26.866 10 23Z" fill="#FFE0BE"/>
</g>
<defs>
<linearGradient id="paint0_linear_25_2969" x1="21.0613" y1="17.6111" x2="23.4225" y2="20.5278" gradientUnits="userSpaceOnUse">
<stop stop-color="#D2402E"/>
<stop offset="1" stop-color="#D13A2E"/>
</linearGradient>
<linearGradient id="paint1_linear_25_2969" x1="21.0613" y1="17.6111" x2="23.4225" y2="20.5278" gradientUnits="userSpaceOnUse">
<stop stop-color="#D2402E"/>
<stop offset="1" stop-color="#D13A2E"/>
</linearGradient>
<linearGradient id="paint2_linear_25_2969" x1="21.0613" y1="17.6111" x2="23.4225" y2="20.5278" gradientUnits="userSpaceOnUse">
<stop stop-color="#D2402E"/>
<stop offset="1" stop-color="#D13A2E"/>
</linearGradient>
<linearGradient id="paint3_linear_25_2969" x1="21.0613" y1="17.6111" x2="23.4225" y2="20.5278" gradientUnits="userSpaceOnUse">
<stop stop-color="#D2402E"/>
<stop offset="1" stop-color="#D13A2E"/>
</linearGradient>
<linearGradient id="paint4_linear_25_2969" x1="21.0613" y1="17.6111" x2="23.4225" y2="20.5278" gradientUnits="userSpaceOnUse">
<stop stop-color="#D2402E"/>
<stop offset="1" stop-color="#D13A2E"/>
</linearGradient>
<linearGradient id="paint5_linear_25_2969" x1="21.0613" y1="17.6111" x2="23.4225" y2="20.5278" gradientUnits="userSpaceOnUse">
<stop stop-color="#D2402E"/>
<stop offset="1" stop-color="#D13A2E"/>
</linearGradient>
<linearGradient id="paint6_linear_25_2969" x1="19.6754" y1="11.1569" x2="18.96" y2="19.4192" gradientUnits="userSpaceOnUse">
<stop stop-color="#FDB76A"/>
<stop offset="1" stop-color="#F2A61E"/>
</linearGradient>
<linearGradient id="paint7_linear_25_2969" x1="20.9851" y1="10.0646" x2="20.2505" y2="18.7629" gradientUnits="userSpaceOnUse">
<stop stop-color="#FDB76A"/>
<stop offset="1" stop-color="#F2A61E"/>
</linearGradient>
<linearGradient id="paint8_linear_25_2969" x1="21.8296" y1="9.83761" x2="21.0201" y2="18.2546" gradientUnits="userSpaceOnUse">
<stop stop-color="#FDB76A"/>
<stop offset="1" stop-color="#F2A61E"/>
</linearGradient>
<linearGradient id="paint9_linear_25_2969" x1="16.4207" y1="16.5321" x2="15.9607" y2="21.2247" gradientUnits="userSpaceOnUse">
<stop stop-color="#FDB76A"/>
<stop offset="1" stop-color="#F2A61E"/>
</linearGradient>
<linearGradient id="paint10_linear_25_2969" x1="16.9976" y1="15.1684" x2="16.4847" y2="20.5822" gradientUnits="userSpaceOnUse">
<stop stop-color="#FDB76A"/>
<stop offset="1" stop-color="#F2A61E"/>
</linearGradient>
<linearGradient id="paint11_linear_25_2969" x1="17.8063" y1="13.6424" x2="17.2415" y2="19.8256" gradientUnits="userSpaceOnUse">
<stop stop-color="#FDB76A"/>
<stop offset="1" stop-color="#F2A61E"/>
</linearGradient>
<clipPath id="clip0_25_2969">
<rect width="40" height="40" fill="white"/>
</clipPath>
</defs>
</svg>
