<svg width="40" height="40" viewBox="0 0 40 40" fill="none" xmlns="http://www.w3.org/2000/svg">
<g clip-path="url(#clip0_132_301)">
<circle cx="20" cy="20" r="20" fill="#202A34"/>
<path d="M22.5468 15L19.8218 24.7462H17.8443L15.7799 18.2847L13.7155 24.7462H11.7511L9 15H11.1426L12.8267 21.1675L14.7955 15H16.7774L18.7809 21.214L20.4281 15H22.5468ZM28.8422 15V21.0025V21.0173C28.8422 21.0258 28.8856 21.8422 28.3445 22.4027C27.9925 22.7665 27.4644 22.9505 26.7734 22.9505C26.0824 22.9505 25.5543 22.7665 25.2023 22.4027C24.6612 21.8422 24.7047 21.0258 24.7047 21.0173V15H23.8159L22.5468 19.5389V20.9497C22.5468 22.151 22.9467 23.1684 23.7029 23.8938C24.4591 24.6172 25.5196 25 26.7734 25C28.0251 25 29.0877 24.6172 29.8439 23.8938C30.6002 23.1705 31 22.151 31 20.9497V15H28.8422Z" fill="#FFDD00"/>
</g>
<defs>
<clipPath id="clip0_132_301">
<rect width="40" height="40" fill="white"/>
</clipPath>
</defs>
</svg>
