<svg width="40" height="40" viewBox="0 0 40 40" fill="none" xmlns="http://www.w3.org/2000/svg">
<g clip-path="url(#clip0_132_61)">
<circle cx="20" cy="20" r="20" fill="#FF8C00"/>
<path d="M32.9227 33.5589C30.6233 30.6893 28.6569 29.9003 26.8378 29.4168C26.5816 29.3468 26.3318 29.2832 26.0756 29.2259C26.0435 29.2195 26.0115 29.2068 25.9795 29.2004C24.4486 28.825 23.0139 28.456 21.5471 26.9608C21.5278 26.9417 21.5086 26.9226 21.4894 26.8972C21.0923 26.4836 20.6888 25.9809 20.2852 25.3701C20.1763 25.2047 20.0674 25.0329 19.9586 24.8547C19.6511 24.3457 19.6703 25.6055 19.792 27.1262C19.792 27.1517 19.7984 27.1771 19.7984 27.2026C19.7024 27.2026 19.6063 27.2089 19.5038 27.2089C17.4477 27.2089 15.7311 26.4836 14.2451 24.9947C12.7655 23.5058 12.0417 21.7307 12.0417 19.5737C12.0417 17.4104 12.7399 15.6288 14.181 14.1273C15.6158 12.632 17.3516 11.9067 19.4974 11.9067C21.5919 11.9067 23.3341 12.632 24.8265 14.1273C26.3125 15.6161 27.0363 17.4168 27.0363 19.6182C27.0363 19.8982 27.0235 20.1782 26.9979 20.4454C26.9723 20.4454 26.9467 20.439 26.921 20.439C25.6464 20.3563 24.5383 20.3754 24.4614 20.4518C24.2757 20.6363 24.7881 20.6108 25.0187 20.6745C25.3902 20.7763 25.7425 20.8971 26.0627 21.0435C26.3125 21.158 26.5495 21.2789 26.7737 21.4189C26.7993 21.4316 26.8186 21.4443 26.8442 21.4634C28.1957 22.3287 28.9643 23.6713 29.2141 25.4337C29.2269 25.5037 29.2654 25.5992 29.3422 25.4719C30.0532 24.2694 30.4311 23.3341 30.6361 22.6787L30.6425 22.6851C30.6745 22.5578 30.7065 22.4369 30.7386 22.3097C30.777 22.1506 30.809 22.017 30.8282 21.9088C30.982 21.1453 31.0588 20.3563 31.0588 19.5546C31.0588 17.4677 30.54 15.508 29.5152 13.7264C28.4903 11.9449 27.0684 10.526 25.2749 9.52068C23.4942 8.51538 21.515 8 19.4013 8C17.3773 8 15.4621 8.51538 13.7007 9.53977C11.9456 10.5578 10.5365 11.983 9.52444 13.7773C8.51242 15.5652 8 17.5313 8 19.6119C8 21.6988 8.51242 23.6522 9.52444 25.421C10.5365 27.1962 11.9584 28.6087 13.7519 29.614C15.5325 30.6193 17.4861 31.1347 19.555 31.1347C19.997 31.1347 20.4261 31.1092 20.8553 31.0647C20.9642 31.0583 21.0731 31.0456 21.182 31.0393C21.4318 31.0202 21.6752 31.0011 21.9186 30.9756C23.1292 30.8675 24.2885 30.7529 25.4607 30.8038C27.6576 30.8993 29.8803 31.5674 32.5256 33.9215C32.801 34.1442 33.1597 33.8516 32.9227 33.5589ZM25.371 26.21C25.1404 26.21 24.9482 26.2927 24.8329 26.439C24.5319 26.8144 24.6664 27.4762 25.1276 27.8834C25.3325 28.0615 25.6208 28.1697 25.909 28.1697C26.1973 28.1697 26.4407 28.0615 26.5944 27.8579C26.8634 27.4952 26.7097 26.9799 26.1973 26.5472C25.9475 26.3309 25.6528 26.21 25.371 26.21ZM27.9139 24.3266C27.6897 24.263 27.5231 24.3075 27.4399 24.4602C27.3118 24.6893 27.4078 25.1474 27.6576 25.5483C27.9139 25.9555 28.1316 26.1591 28.3046 26.1591C28.3622 26.1591 28.4199 26.1336 28.4583 26.0827C28.5544 25.9682 28.5864 25.7391 28.548 25.4401C28.5095 25.1411 28.3238 24.5175 27.9139 24.3266Z" fill="white"/>
</g>
<defs>
<clipPath id="clip0_132_61">
<rect width="40" height="40" fill="white"/>
</clipPath>
</defs>
</svg>
