<svg width="40" height="40" viewBox="0 0 40 40" fill="none" xmlns="http://www.w3.org/2000/svg">
<circle cx="20" cy="20" r="20" fill="#D53A41"/>
<path d="M27 15C27 18.866 23.866 22 20 22C16.134 22 13 18.866 13 15C13 11.134 16.134 8 20 8C23.866 8 27 11.134 27 15Z" fill="white"/>
<path d="M27 26C27 27.6569 23.866 29 20 29C16.134 29 13 27.6569 13 26C13 24.3431 16.134 23 20 23C23.866 23 27 24.3431 27 26Z" fill="white"/>
<path d="M20 32C23.866 32 27 31.5523 27 31C27 30.4477 23.866 30 20 30C16.134 30 13 30.4477 13 31C13 31.5523 16.134 32 20 32Z" fill="white"/>
</svg>
