<svg width="40" height="40" viewBox="0 0 40 40" fill="none" xmlns="http://www.w3.org/2000/svg">
<circle cx="20" cy="20" r="20" fill="#21A038"/>
<path d="M25.202 12.3819L27.5351 10.6622C25.4026 8.93526 22.7406 7.99521 19.9966 8.00002V8.00147C18.4218 8.00009 16.8623 8.30952 15.4074 8.91203C14.0927 9.45649 12.8867 10.2306 11.8455 11.1969C10.6491 12.3025 9.69067 13.641 9.02934 15.1308C8.34939 16.6625 7.99871 18.32 8.00001 19.9959C8 19.9981 8 20.0004 8 20.0026C7.99883 21.5781 8.3087 23.1383 8.91186 24.5937C9.44887 25.8895 10.2089 27.0795 11.1563 28.1102C12.2698 29.3275 13.6231 30.3015 15.1314 30.971C16.6184 31.6309 18.2237 31.9806 19.8494 31.9991C19.8997 31.9998 19.9501 32.0001 20.0006 32.0001C21.5761 32.0017 23.1363 31.6921 24.5917 31.0889C25.8634 30.5618 27.0331 29.8197 28.0502 28.8966L28.0519 28.8985C29.2968 27.7746 30.2915 26.4017 30.9717 24.8688C31.6519 23.3358 32.0023 21.6769 32.0002 19.9998C32.0017 19.2788 31.9386 18.5591 31.8117 17.8494L29.2289 19.7529V19.9998C29.2295 21.2892 28.9593 22.5644 28.4356 23.7426C27.9742 24.7807 27.3252 25.7231 26.5224 26.5232L26.5215 26.5222C26.4275 26.6165 26.3317 26.7086 26.234 26.7985L26.189 26.8394C25.4072 27.5493 24.5084 28.1202 23.531 28.5259C22.412 28.9904 21.2122 29.2292 20.0006 29.2286C19.8558 29.2287 19.7108 29.2252 19.5664 29.2184L19.5389 29.2164C18.4076 29.16 17.2949 28.896 16.2573 28.4349C15.2195 27.9736 14.2771 27.3249 13.4769 26.5225L13.4786 26.5209C12.6201 25.6659 11.9391 24.6496 11.4747 23.5305C11.0102 22.4114 10.7715 21.2115 10.7723 19.9999C10.7723 19.9926 10.7723 19.9852 10.7723 19.9778C10.7725 19.8765 10.7744 19.7757 10.7779 19.6752C10.8189 18.497 11.086 17.3364 11.5657 16.2572C12.0268 15.2197 12.6753 14.2777 13.4774 13.4779L13.4789 13.4794C14.3339 12.6206 15.3503 11.9393 16.4695 11.4746C17.5888 11.01 18.7888 10.7712 20.0007 10.772C20.1552 10.772 20.3087 10.7776 20.4614 10.7852L20.4615 10.7827C22.1562 10.8665 23.7978 11.4186 25.202 12.3819Z" fill="white"/>
<path d="M30.9337 15.0489C30.5483 14.2006 30.0658 13.3999 29.4957 12.6628L20.0029 19.6617L15.4346 16.7979V20.2431L20.0029 23.1069L30.9337 15.0489Z" fill="white"/>
</svg>
