<svg width="40" height="40" viewBox="0 0 40 40" fill="none" xmlns="http://www.w3.org/2000/svg">
<path d="M40 20.0043C40 31.0535 31.052 40.0001 20.0061 40.0001C8.95874 40.0001 0 31.0535 0 20.0043C0 8.95515 8.95874 -6.10352e-05 20.0061 -6.10352e-05C31.0521 -6.10352e-05 40 8.95515 40 20.0043Z" fill="#8B3FFD"/>
<path fill-rule="evenodd" clip-rule="evenodd" d="M34 20C34 25.5228 29.6124 30 24.2 30C19.6896 30 15.8909 26.8907 14.75 22.6582V27.8571H10.9L6 12.8571H14.75V17.3418C15.8909 13.1093 19.6896 10 24.2 10C29.6124 10 34 14.4772 34 20ZM27.7 20C27.7 18.0276 26.133 16.4286 24.2 16.4286C22.267 16.4286 20.7 18.0276 20.7 20C20.7 21.9724 22.267 23.5714 24.2 23.5714C26.133 23.5714 27.7 21.9724 27.7 20Z" fill="white"/>
</svg>
