<svg width="40" height="41" viewBox="0 0 40 41" fill="none" xmlns="http://www.w3.org/2000/svg">
<rect y="0.5" width="40" height="40" rx="20" fill="#006848"/>
<path d="M21.6041 18.0279L20.0605 21.3723H19.9038V17.3H17.711V24.1917H19.572C20.0606 24.1917 20.5048 23.9075 20.7097 23.4638L22.2532 20.1194H22.4099V24.1917H24.6026V17.3H22.7418C22.253 17.3 21.8089 17.5842 21.6041 18.0279ZM13.3774 18.2058L12.464 21.3723H12.3073L11.3939 18.2058C11.2392 17.6694 10.7482 17.3 10.1899 17.3H8V24.1917H10.1929V20.1194H10.3495L11.6024 24.1917H13.1688L14.4218 20.1194H14.5785V24.1917H16.7712V17.3H14.5814C14.023 17.3 13.5322 17.6694 13.3774 18.2058ZM25.5424 20.4326V24.1917H27.731V21.9989H30.0846C31.1072 21.9989 31.9747 21.3445 32.2976 20.4326H25.5424ZM30.0846 17.3H25.2293C25.524 18.9038 26.9274 20.1194 28.6163 20.1194H32.3869C32.4178 19.9675 32.4341 19.8103 32.4341 19.6494C32.4341 18.3518 31.3822 17.3 30.0846 17.3Z" fill="white"/>
</svg>
