<svg width="40" height="40" viewBox="0 0 40 40" fill="none" xmlns="http://www.w3.org/2000/svg">
<g clip-path="url(#clip0_132_13)">
<path d="M20 40C31.046 40 40 31.046 40 20C40 8.954 31.046 0 20 0C8.954 0 0 8.954 0 20C0 31.046 8.954 40 20 40Z" fill="#3C3C38"/>
<path fill-rule="evenodd" clip-rule="evenodd" d="M16.9707 10.9373L16.9587 10.94L16.9687 10.9267L16.9707 10.9373ZM32.6893 18.8767L33.0393 17.734L31.8807 17.7713C31.7827 17.7713 31.0713 17.7507 30.3807 17.2407C30.432 17.2453 30.4833 17.2527 30.536 17.2527C31.2467 17.2527 31.9353 16.8167 32.2107 16.1927L32.7087 15.066C32.0833 15.0747 31.512 14.994 31.512 14.994C31.5073 14.994 31.0567 14.934 30.536 14.392C30.1627 14.0033 29.7 13.798 29.1993 13.798C28.98 13.798 28.784 13.838 28.616 13.8927C28.6427 13.8013 28.6667 13.7087 28.6813 13.6127C28.8407 12.5587 28.1747 11.7547 28.1747 11.7553L27.3027 10.6553L26.7627 11.9473C26.7607 11.9513 26.624 12.254 26.38 12.402C26.3067 12.022 26.1253 11.5953 25.7387 11.1873C25.01 10.4187 24.122 10.3033 23.658 10.3033C23.4427 10.3033 23.2887 10.3273 23.2513 10.3333L22.1993 10.5447C22.2607 10.3047 22.39 9.88733 22.626 9.512L23.2067 8.59133L21.7467 8.76L21.28 7.75333L20.38 8.22667L19.5467 7.388L18.716 8.22667L17.812 7.75333L17.348 8.76L15.888 8.59067L16.4693 9.51267C16.706 9.88733 16.8347 10.304 16.8947 10.5427L15.8907 10.3413L15.856 10.3353C15.7175 10.3133 15.5775 10.3026 15.4373 10.3033C14.9733 10.3033 14.0853 10.4187 13.358 11.1873C12.9713 11.5947 12.7893 12.022 12.7153 12.402C12.4727 12.2553 12.3373 11.958 12.3373 11.958L11.796 10.658L10.9107 11.7647C10.802 11.9073 10.2687 12.6633 10.414 13.6147C10.4287 13.7093 10.4533 13.8013 10.4793 13.8927C10.2913 13.8305 10.0947 13.7986 9.89666 13.798C9.39533 13.798 8.93333 14.0033 8.55933 14.3913C8.03933 14.9313 7.59266 14.9933 7.59599 14.9933C7.59599 14.9933 7.12199 15.08 6.38933 15.0667L6.88466 16.1933C7.16066 16.8167 7.84933 17.2533 8.55799 17.2533C8.61133 17.2533 8.66266 17.2453 8.71533 17.24C8.02666 17.7507 7.31533 17.7713 7.22866 17.772L6.04866 17.734L6.40666 18.876C6.58666 19.4647 7.18666 20.4393 8.33799 20.5447C8.21333 21.0793 7.93533 21.6787 7.32599 21.9367L6.44599 22.3053L6.92599 23.1567C7.19666 23.6153 7.83266 24.152 8.73599 24.152C8.93199 24.1513 9.12066 24.1313 9.30266 24.092C9.34933 24.3013 9.40733 24.5113 9.47599 24.72C9.74533 25.5367 9.51333 26.106 9.51066 26.112L9.07733 27.0387L10.0453 27.2987C10.058 27.3027 10.3507 27.3853 10.7167 27.3853C10.8833 27.3853 11.042 27.3673 11.1907 27.3307C11.3033 27.304 11.412 27.2687 11.516 27.2253C11.6413 27.4547 11.7933 27.664 11.9713 27.8513C12.592 28.5 13.472 28.8293 14.5867 28.8293H14.59L15.386 28.8187L13.742 29.5153L14.99 30.1293C15.4433 30.3547 15.9807 30.6207 16.5287 30.8247L16.3727 31.2587L16.8027 31.4587C16.8407 31.4767 17.6687 31.8533 19.0427 31.9333C19.0427 31.9333 19.3747 31.9493 19.558 31.9493C19.7407 31.9493 20.0687 31.9327 20.0687 31.9327C21.434 31.85 22.2553 31.4767 22.2933 31.4593L22.7247 31.2587L22.5673 30.8233C23.13 30.614 23.6873 30.3367 24.1227 30.1207L25.3473 29.514L23.7087 28.8187L24.508 28.8293C25.624 28.8293 26.504 28.5 27.124 27.85C27.3021 27.6624 27.4549 27.4524 27.5787 27.2253C27.8317 27.3324 28.1039 27.3868 28.3787 27.3853C28.7387 27.3853 29.0347 27.3033 29.042 27.3007L30.0153 27.0387L29.592 26.1293C29.582 26.106 29.35 25.536 29.6187 24.7193C29.6873 24.5107 29.7453 24.3007 29.792 24.0913C29.9747 24.1313 30.1653 24.1513 30.3627 24.1513C31.5147 24.1513 32.0667 23.326 32.174 23.1467L32.6487 22.3047L31.7693 21.9373C31.1587 21.6787 30.8813 21.0793 30.7573 20.5453C31.8933 20.4453 32.5027 19.4687 32.6893 18.8767Z" fill="white"/>
<path fill-rule="evenodd" clip-rule="evenodd" d="M19.5467 10.8867C18.6153 10.8873 17.9173 11.198 17.766 11.564L19.546 12.28L21.328 11.564C21.1767 11.198 20.4787 10.8873 19.5467 10.8867ZM19.5653 29.8413H19.5293C18.9653 29.8447 18.188 29.7273 17.8147 29.616L17.364 30.8567C17.6607 30.9647 18.6667 31.1713 19.5487 31.1713C20.428 31.1713 21.434 30.9647 21.7307 30.8567L21.2813 29.616C20.9053 29.7273 20.1293 29.8447 19.5653 29.8413ZM22.9727 28.606C22.6373 28.7993 21.8893 29.0893 21.4547 29.224L21.8193 30.2493C22.4927 30.0627 23.0487 29.8433 23.5073 29.6093L22.7493 29.352L22.9727 28.606ZM16.122 28.606L16.346 29.3527L15.5873 29.6087C16.0453 29.8433 16.6033 30.062 17.274 30.2493L17.6407 29.224C17.206 29.0893 16.4567 28.7993 16.122 28.606ZM19.5467 9.70001C20.2487 9.70001 20.936 9.87067 21.466 10.1707C21.514 10.006 21.582 9.80534 21.6733 9.59467L21.4733 9.61934L21.2633 9.64201L21.1747 9.44667L20.9067 8.87067L20.4187 9.13001L20.2293 9.22801L20.0767 9.07601L19.5467 8.54134L19.0173 9.07601L18.866 9.22801L18.676 9.13001L18.1853 8.87067L17.9213 9.44667L17.8307 9.64201L17.6207 9.61934L17.4213 9.59467C17.5133 9.80534 17.58 10.006 17.6293 10.1707C18.1607 9.87067 18.848 9.70001 19.5467 9.70001ZM30.2607 16.358C30.352 16.39 30.4447 16.4047 30.536 16.4047C30.9333 16.4047 31.3167 16.142 31.4493 15.8433C31.4493 15.8433 30.7213 15.7987 29.9387 14.9887C29.6893 14.7267 29.4253 14.648 29.1987 14.648C28.9801 14.6517 28.767 14.7171 28.584 14.8367C29.5293 15.35 29.7227 16.1727 30.2607 16.358ZM8.55799 16.404C8.64999 16.404 8.74266 16.39 8.83133 16.3573C9.37133 16.1727 9.56599 15.35 10.51 14.8373C10.51 14.8373 10.246 14.648 9.89666 14.648C9.66866 14.648 9.40533 14.7267 9.15533 14.9893C8.37333 15.7987 7.64599 15.8433 7.64599 15.8433C7.77666 16.142 8.16133 16.404 8.55799 16.404Z" fill="white"/>
<path fill-rule="evenodd" clip-rule="evenodd" d="M29.9753 22.2653C29.244 21.898 28.782 20.9227 28.6707 20.5713C28.5493 22.5053 27.6227 23.8473 26.5393 25.14C25.9773 25.8093 25.7813 26.4607 25.7813 26.4607C25.7813 26.4607 25.8893 25.7227 26.3753 25.1227C27.386 23.8853 28.3467 22.3453 28.418 20.5647C28.4673 19.3213 28.154 18.3133 27.6647 17.4827C27.938 18.348 27.8993 19.4073 26.9693 20.396C26.9693 20.396 28.8207 18.136 26.2327 15.8193C25.1973 14.938 24.0633 14.3927 23.4807 14.0073C25.588 14.708 26.6173 13.9367 26.6173 13.9367C25.944 14.5313 25.0733 14.5213 24.5327 14.4353C24.6793 14.5087 24.832 14.5847 24.996 14.674C26.7733 15.6573 28.37 17.276 28.6427 19.5173V19.5C29.056 21.7 29.9753 22.2653 29.9753 22.2653ZM30.5167 19.7013C30.5333 19.7027 30.5473 19.7027 30.564 19.7027C31.5547 19.7027 31.8907 18.6213 31.8907 18.6213H31.8707C31.6893 18.6213 30.216 18.578 29.1753 17.2293C28.49 16.3427 27.928 15.5633 26.8193 15.2567L26.7093 15.2367L26.686 15.1233C26.6553 14.9513 26.772 14.7893 27.0353 14.6147C28.566 13.5933 27.526 12.2907 27.526 12.2907C27.526 12.2907 27.0893 13.332 26.1113 13.332L26.038 13.3307C25.9273 13.3253 25.82 13.3213 25.712 13.2973L25.532 13.262C25.532 13.262 25.8113 12.4887 25.138 11.7793C24.9475 11.579 24.7178 11.42 24.4631 11.3121C24.2085 11.2043 23.9345 11.1501 23.658 11.1527C23.478 11.1527 23.3647 11.176 23.3647 11.176C23.7027 11.6267 23.9467 12.374 23.5567 12.8353C23.2193 13.2313 22.3953 13.25 22.3953 13.8407C22.3953 14.0913 22.6247 14.3833 23.0367 14.6453C24.2753 15.44 25.5047 16.4947 26.0167 17.908C26.6553 19.6707 25.9353 20.8413 24.908 21.512C24.908 21.512 25.23 21.8147 25.6973 21.8533C25.7927 21.8627 25.8853 21.8667 25.972 21.8667C26.9587 21.8667 27.4687 21.3953 27.4687 21.3953C27.4687 21.3953 27.3847 22.0467 26.8713 22.6513C26.398 23.2093 25.7767 23.5387 24.828 23.552C24.828 23.552 24.798 24.0007 25.2173 24.3887C25.4867 24.634 26.1067 24.7133 26.1067 24.7133C26.1067 24.7133 24.9447 24.9533 24.8167 26.702C24.7473 27.6493 24.5093 27.9787 24.5093 27.9787H24.53C27.2267 27.9787 27.158 25.622 27.158 25.622C27.158 25.622 27.3447 26.32 28.098 26.502C28.188 26.526 28.2853 26.5353 28.378 26.5353C28.62 26.5353 28.8307 26.4773 28.8307 26.4773C28.8307 26.4773 28.436 25.6307 28.8273 24.4467C29.1513 23.464 29.0993 22.736 29.0993 22.736C29.0993 22.736 29.462 23.296 30.3633 23.3007H30.372C30.5858 23.3032 30.7967 23.2514 30.985 23.1502C31.1733 23.049 31.3328 22.9017 31.4487 22.722C29.6513 21.9613 29.8287 19.5073 29.8287 19.5073C29.8287 19.5073 30.062 19.6847 30.5167 19.7013ZM12.5547 25.14C11.4713 23.8473 10.5453 22.5053 10.4227 20.5713C10.3113 20.9227 9.85066 21.898 9.11933 22.2653C9.11933 22.2653 10.038 21.7007 10.4513 19.5V19.5173C10.7247 17.2767 12.3213 15.6573 14.0987 14.6747C14.262 14.584 14.416 14.508 14.5613 14.436C14.0213 14.5213 13.15 14.5313 12.4773 13.9367C12.4773 13.9367 13.5067 14.708 15.6133 14.0073C15.0307 14.394 13.898 14.938 12.8627 15.8193C10.2733 18.1367 12.1253 20.3967 12.1253 20.3967C11.194 19.4073 11.1567 18.348 11.4307 17.4833C10.94 18.3133 10.6267 19.3213 10.6773 20.5647C10.748 22.3447 11.708 23.8847 12.7173 25.1227C13.2053 25.7227 13.3147 26.4607 13.3147 26.4607C13.3147 26.4607 13.1167 25.8093 12.5547 25.14ZM12.988 24.7133C12.988 24.7133 13.608 24.634 13.878 24.3887C14.2973 24.0007 14.2673 23.552 14.2673 23.552C13.318 23.5387 12.6973 23.2093 12.2207 22.652C11.7107 22.0467 11.626 21.3953 11.626 21.3953C11.626 21.3953 12.136 21.8667 13.1213 21.8667C13.21 21.8667 13.3013 21.8627 13.3973 21.8533C13.8647 21.8147 14.188 21.5127 14.188 21.5127C13.16 20.8413 12.4393 19.6713 13.0773 17.908C13.5893 16.4947 14.8187 15.44 16.0573 14.6447C16.4693 14.3833 16.6987 14.0913 16.6987 13.8407C16.6987 13.25 15.8753 13.2313 15.5387 12.8353C15.148 12.374 15.392 11.6267 15.73 11.176C15.73 11.176 15.6173 11.1527 15.4367 11.1527C15.0807 11.1527 14.4647 11.244 13.9573 11.7793C13.2827 12.4887 13.5627 13.262 13.5627 13.262L13.3827 13.2973C13.2747 13.3207 13.1667 13.3253 13.056 13.3307L12.9847 13.332C12.004 13.332 11.5693 12.2907 11.5693 12.2907C11.5693 12.2907 10.5293 13.5933 12.06 14.6147C12.3233 14.7893 12.44 14.9513 12.4087 15.124L12.3853 15.2367L12.274 15.2567C11.1667 15.5633 10.604 16.3433 9.91799 17.23C8.87799 18.5773 7.40666 18.6213 7.22333 18.6213H7.20333C7.20333 18.6213 7.53933 19.7027 8.52999 19.7027C8.54599 19.7027 8.56066 19.7027 8.57733 19.7013C9.03266 19.6847 9.26666 19.5073 9.26666 19.5073C9.26666 19.5073 9.44266 21.9607 7.64599 22.7213C7.64599 22.7213 7.97266 23.3013 8.72266 23.3013H8.73199C9.63333 23.296 9.99599 22.736 9.99599 22.736C9.99599 22.736 9.94333 23.4647 10.2667 24.4467C10.6573 25.6313 10.2653 26.478 10.2653 26.478C10.2653 26.478 10.4747 26.536 10.7167 26.536C10.8107 26.536 10.9067 26.526 10.9967 26.502C11.7487 26.32 11.9367 25.622 11.9367 25.622C11.9367 25.622 11.868 27.9787 14.5647 27.9787H14.584C14.584 27.9787 14.348 27.6493 14.2787 26.702C14.1507 24.9533 12.988 24.7133 12.988 24.7133ZM18.9387 16.03H20.2093V16.4747C20.06 16.288 19.7693 16.326 19.7693 16.326V16.9667C19.7693 16.9667 19.78 17.282 19.888 17.4187H19.2593C19.3693 17.282 19.3793 16.9667 19.3793 16.9667V16.3267C19.3793 16.3267 19.0887 16.288 18.9387 16.4747V16.03ZM17.5527 16.0967C17.5973 16.1453 17.6407 16.1973 17.6827 16.2507C17.733 16.3167 17.7812 16.3843 17.8273 16.4533L17.8527 16.4907C17.8973 16.5607 17.9407 16.632 17.9827 16.7067C18.372 17.3907 18.994 17.7993 19.5467 17.8C20.1 17.7993 20.7213 17.3907 21.1113 16.7067C21.154 16.63 21.198 16.5567 21.2433 16.488L21.2633 16.4573C21.3092 16.3872 21.3579 16.3189 21.4093 16.2527C21.4527 16.1973 21.4973 16.1447 21.5427 16.0953L21.5647 16.0733C21.7633 15.8667 21.9993 15.7093 22.3087 15.622L22.1707 15.54H22.1627L21.616 15.2167L21.0533 14.8887L19.5507 15.722L19.5467 15.7187L19.544 15.722L18.0407 14.8887L17.4787 15.2167L16.9307 15.54H16.924L16.7853 15.622C17.0947 15.7093 17.33 15.8653 17.5287 16.072C17.5373 16.08 17.5433 16.0893 17.5527 16.0967Z" fill="white"/>
<path fill-rule="evenodd" clip-rule="evenodd" d="M19.068 13.206V13.624L18.9893 13.5873C18.9853 13.584 18.8693 13.558 18.668 13.3947C18.3347 13.132 18.328 12.8893 18.328 12.8893L19.068 13.206ZM19.4167 15.168V12.5667L17.7913 12.0047L18.22 14.526L19.4167 15.168ZM20.0267 13.206L20.7667 12.8893C20.7667 12.8893 20.76 13.132 20.4253 13.3947C20.2253 13.558 20.1087 13.584 20.1053 13.5873L20.0267 13.624V13.206ZM20.874 14.526L21.3013 12.0047L19.6773 12.5667V15.168L20.874 14.526ZM17.118 21.2C17.276 21.258 17.468 21.2707 17.5667 21.2707L17.58 21.224C17.5887 21.1947 17.5973 21.1653 17.6033 21.1327C17.6307 20.9887 17.6407 20.826 17.6433 20.72C17.5524 20.6648 17.4785 20.5854 17.43 20.4907C17.3693 20.3613 17.2833 20.3007 17.1573 20.3007C16.994 20.3007 16.8187 20.4007 16.7427 20.448C16.6827 20.808 16.9433 21.1347 17.118 21.2ZM20.7133 19.82C20.4113 20.154 19.82 20.7367 19.792 20.7653L19.756 20.802L17.8893 20.772C17.8875 20.9294 17.8672 21.086 17.8287 21.2387L17.8133 21.2987L20.0347 21.7053C20.2653 21.5413 20.9013 21.068 21.148 20.8827C20.9693 20.6153 20.952 20.298 20.9927 20.0753C20.8857 20.0067 20.7913 19.9204 20.7133 19.82Z" fill="white"/>
<path fill-rule="evenodd" clip-rule="evenodd" d="M20.9667 17.5313C20.536 17.966 20.1233 18.1273 19.7553 18.1647C19.688 18.1713 19.62 18.176 19.552 18.176H19.5427C19.4071 18.176 19.2718 18.1614 19.1393 18.1327C19.1153 18.2307 19.0847 18.4347 19.172 18.6287C19.25 18.804 19.4087 18.9353 19.64 19.022L19.718 19.0533L19.7193 19.1387C19.7193 19.164 19.738 19.7173 20.3293 19.8713C20.426 19.77 20.514 19.678 20.5787 19.6013C20.458 19.3107 20.5213 19.0147 20.6973 18.87C20.6893 18.9007 20.612 19.6267 21.184 19.8967L21.2773 19.9427L21.25 20.0447C21.2407 20.0753 21.05 20.778 21.742 21.04L21.8647 21.0867L21.8107 21.208C21.798 21.2347 21.5273 21.8727 22.166 22.2347H23.552V21.114C23.0587 21.0527 22.8507 20.6493 22.7967 20.3633C22.5673 20.3233 22.39 20.2227 22.2687 20.0587C21.978 19.6687 22.228 19.3107 22.2313 19.292C22.2307 19.2947 22.2313 19.6747 22.4613 19.91C22.576 20.0233 22.7107 20.1107 22.9147 20.13L23.016 20.14L23.0247 20.2447C23.0267 20.2667 23.082 20.782 23.5513 20.8627V18.572C23.5513 18.2173 23.652 17.8607 23.7747 17.532L20.9667 17.5313ZM17.236 18.5807L17.1987 20.0393L17.3613 20.0647L17.7593 18.6647L17.5573 18.2347L17.236 18.5807ZM18.098 23.98C18.0869 23.9795 18.0761 23.9768 18.0662 23.9719C18.0562 23.9671 18.0473 23.9603 18.0401 23.952C18.0329 23.9436 18.0274 23.9339 18.0241 23.9233C18.0207 23.9128 18.0196 23.9017 18.0207 23.8907C18.0213 23.8799 18.024 23.8694 18.0287 23.8597C18.0334 23.85 18.0399 23.8414 18.048 23.8342C18.056 23.8271 18.0654 23.8216 18.0756 23.8182C18.0858 23.8147 18.0966 23.8133 18.1073 23.814C18.154 23.816 18.1873 23.8573 18.186 23.902C18.1813 23.9487 18.142 23.984 18.098 23.98ZM21.622 25.2707C21.6347 25.2707 21.6487 25.2727 21.662 25.276C21.9087 25.348 21.972 26.2567 22.406 26.338C22.4443 26.3461 22.4835 26.3502 22.5227 26.35C22.648 26.35 22.7227 26.2953 22.8033 26.198C22.8033 26.198 22.5847 25.8487 22.4213 25.612C22.204 25.3033 22.036 24.93 21.632 24.93C21.622 24.93 21.6107 24.93 21.6007 24.9313C21.4673 24.938 21.3853 25.0047 21.3853 25.0047C21.2512 24.9146 21.0936 24.8659 20.932 24.8647C20.6787 24.8647 20.482 24.9827 20.3827 24.9827H20.3793L19.4767 24.892C19.336 24.878 19.224 24.7327 19.184 24.6767L19.1687 24.652C19.1687 24.6267 19.1687 24.6013 19.1667 24.5787C19.1367 23.8267 18.5653 23.5053 18.3613 23.5C18.3613 23.5 18.3853 23.3567 18.3307 23.302L18.1313 23.5487L17.4787 23.2147L17.9453 23.7693L17.55 24.2207C17.5007 24.272 17.5067 24.3407 17.5273 24.3707L17.698 24.524L17.914 24.3907C17.9247 24.3827 17.9447 24.38 17.9687 24.38C18.0287 24.38 18.118 24.3953 18.1987 24.3953C18.2867 24.3953 18.3627 24.3767 18.372 24.292C18.3453 24.5713 18.0907 25.0553 18.2573 25.436L18.3813 25.7233L17.5833 25.6067L17.21 26.2493C17.0947 26.4627 17.0767 26.694 17.1873 26.82L17.3273 26.998C17.3273 26.998 17.5233 26.7867 17.5673 26.6473L17.5033 26.576C17.45 26.516 17.4527 26.4627 17.4853 26.3987L17.72 26.0027L18.6613 26.2293L18.7113 26.1427C18.7365 26.0974 18.7739 26.0602 18.8194 26.0355C18.8648 26.0107 18.9163 25.9993 18.968 26.0027C19.01 26.0027 19.052 26.0073 19.0967 26.0147C19.3435 26.0656 19.5946 26.0931 19.8467 26.0967C20.162 26.0967 20.476 26.0393 20.6427 25.8487C20.984 26.3633 21.6753 26.4453 21.6207 26.7073L21.4387 27.59C21.5587 27.5847 21.6753 27.5767 21.7853 27.5613L21.9587 26.6433C21.978 26.5433 21.996 26.4087 21.996 26.4087C21.9293 26.3393 21.768 26.194 21.6767 26.0167C21.5547 25.778 21.6207 25.6533 21.5073 25.3433C21.5073 25.3433 21.5427 25.2707 21.622 25.2707Z" fill="white"/>
<path fill-rule="evenodd" clip-rule="evenodd" d="M16.812 26.106C16.812 26.106 17.124 25.9747 17.152 25.882L17.11 25.7753C17.0807 25.706 17.0847 25.6313 17.142 25.5907L17.4787 25.3533L18.0413 25.464C18.0413 25.464 17.94 25.3333 17.95 25.16L17.4127 25.044L16.906 25.3587C16.817 25.4264 16.753 25.5216 16.7238 25.6295C16.6946 25.7375 16.702 25.852 16.7447 25.9553L16.812 26.106ZM20.794 27.602C20.894 27.598 21.0067 27.596 21.128 27.596C21.128 27.596 21.418 26.7327 21.4347 26.7053C21.272 26.632 20.9347 26.45 20.8047 26.3667C20.8913 26.498 21.0993 26.6467 21.058 26.7627L20.794 27.602Z" fill="white"/>
<path fill-rule="evenodd" clip-rule="evenodd" d="M23.552 22.4826H15.5433V25.5512C15.5433 26.8072 16.4346 27.5926 17.75 27.5926C18.8493 27.5926 19.1393 27.6366 19.548 28.0492C19.83 27.7632 20.0626 27.6559 20.5413 27.6166L20.5526 27.5692L20.8053 26.7739C20.7913 26.7566 20.3786 26.2786 20.3786 26.2786C20.2146 26.3339 20.0773 26.3432 19.8466 26.3432C19.6093 26.3432 19.342 26.3146 19.0513 26.2592C19.024 26.2529 18.996 26.2498 18.968 26.2499C18.9326 26.2499 18.93 26.2526 18.9206 26.2706L18.8706 26.3546L18.7786 26.5092L18.6053 26.4686L17.8373 26.2846L17.732 26.4612L17.7473 26.4806L17.8406 26.5859L17.7993 26.7226C17.7433 26.9012 17.5593 27.1099 17.5033 27.1679L17.3113 27.3779L17.136 27.1519L17.0046 26.9839C16.8666 26.8266 16.8346 26.5859 16.9126 26.3326C16.9104 26.3345 16.9076 26.3356 16.9046 26.3359L16.688 26.4272L16.5906 26.2112L16.522 26.0579C16.456 25.9023 16.4441 25.7291 16.4882 25.5659C16.5323 25.4027 16.6299 25.2591 16.7653 25.1579L17.384 24.8012L17.9726 24.9193C17.9866 24.8619 18.008 24.6559 18.0246 24.6032C18.0133 24.6019 18.0026 24.5992 17.9913 24.5992L17.652 24.7286L17.3246 24.4986C17.3246 24.4986 17.1966 24.3726 17.3126 24.2472L17.6293 23.7586L16.8266 22.7319L18.06 23.2479L18.1426 23.1446L18.3093 22.9412L18.498 23.1246C18.5513 23.1766 18.582 23.2412 18.5973 23.3059C18.9373 23.4412 19.5466 23.8392 19.6 24.4859L19.4093 24.5632V24.5686C19.4533 24.6212 19.4893 24.6426 19.5006 24.6446L20.3806 24.7326C20.404 24.7292 20.4313 24.7192 20.4626 24.7099C20.5726 24.6719 20.736 24.6166 20.9313 24.6166C21.09 24.6166 21.2433 24.6539 21.3913 24.7239C21.4453 24.7032 21.512 24.6879 21.5893 24.6826L21.632 24.6812C22.1033 24.6812 22.338 25.0406 22.5253 25.3272C22.5561 25.3754 22.5881 25.4228 22.6213 25.4692C22.7853 25.7059 23.0013 26.0526 23.0093 26.0673L23.1066 26.2219L22.988 26.3626C22.896 26.4706 22.7586 26.5972 22.5226 26.5972C22.474 26.5972 22.42 26.5919 22.3626 26.5806C22.3145 26.5714 22.2676 26.5568 22.2226 26.5372C22.216 26.5846 22.2066 26.6412 22.198 26.6899L22.0433 27.5106C22.9673 27.2792 23.5533 26.5692 23.5533 25.5512L23.552 22.4826ZM15.5433 22.2352H21.772C21.4613 21.9079 21.4653 21.4932 21.5453 21.2239C21.461 21.1828 21.3827 21.1303 21.3126 21.0679C20.9211 21.3615 20.5275 21.6524 20.132 21.9406L20.09 21.9686L17.6453 21.5186H17.596C17.5373 21.5186 17.452 21.5159 17.3573 21.5052C17.3444 21.5646 17.3094 21.6168 17.2594 21.6513C17.2093 21.6857 17.148 21.6998 17.088 21.6906C17.0244 21.6793 16.9679 21.6435 16.9306 21.5908C16.8932 21.5382 16.8782 21.4729 16.8886 21.4092L16.898 21.3552C16.6466 21.1739 16.4133 20.7699 16.5166 20.3439L16.5266 20.2986L16.562 20.2726C16.5673 20.2686 16.6086 20.2392 16.6726 20.2026L16.4953 20.1752C16.4633 20.1694 16.4349 20.1513 16.4161 20.1247C16.3973 20.0982 16.3896 20.0654 16.3946 20.0332C16.406 19.9652 16.468 19.9172 16.5333 19.9299L16.9566 19.9979L16.9953 18.4799L17.6246 17.8012L18.018 18.6446L17.6033 20.1046L17.9773 20.1646C18.0433 20.1752 18.088 20.2379 18.078 20.3072C18.0738 20.336 18.0593 20.3622 18.0372 20.3811C18.0152 20.4 17.987 20.4102 17.958 20.4099L17.9393 20.4092L17.6346 20.3592C17.6386 20.3686 17.6446 20.3739 17.6486 20.3832C17.6822 20.4432 17.7334 20.4914 17.7953 20.5212L19.658 20.5519C19.738 20.4732 19.9333 20.2786 20.134 20.0719C19.9575 20.0048 19.803 19.8901 19.6877 19.7405C19.5723 19.5909 19.5007 19.4124 19.4806 19.2246C19.2253 19.1132 19.0473 18.9466 18.95 18.7299C18.83 18.4619 18.8726 18.1926 18.9046 18.0619C18.656 17.9699 18.3946 17.8019 18.128 17.5312H15.32C15.44 17.8606 15.5426 18.2179 15.5426 18.5719V22.2352" fill="#FFE52B"/>
<path fill-rule="evenodd" clip-rule="evenodd" d="M18.118 23.814C18.0667 23.8094 18.0247 23.8494 18.0207 23.9007C18.0195 23.9129 18.0208 23.9253 18.0246 23.937C18.0284 23.9487 18.0345 23.9595 18.0426 23.9688C18.0508 23.978 18.0607 23.9855 18.0718 23.9908C18.0829 23.996 18.095 23.999 18.1073 23.9994C18.1318 24.0006 18.1557 23.9923 18.1741 23.9761C18.1924 23.9599 18.2036 23.9371 18.2053 23.9127C18.2067 23.8627 18.17 23.816 18.118 23.814ZM21.82 30.25L21.454 29.2247C21.8893 29.0894 22.6373 28.7994 22.9733 28.6067L22.7493 29.352L23.5073 29.6087C23.0487 29.8434 22.4933 30.062 21.82 30.25ZM19.5487 31.1714C18.6673 31.1714 17.6607 30.9647 17.364 30.8574L17.8147 29.616C18.188 29.7267 18.9653 29.8447 19.5293 29.8414H19.5653C20.1293 29.8447 20.9053 29.7267 21.2813 29.616L21.7307 30.8574C21.434 30.9647 20.428 31.1714 19.5487 31.1714ZM15.5873 29.6087L16.3467 29.352L16.122 28.6067C16.4567 28.7994 17.2067 29.0894 17.6407 29.2247L17.274 30.25C16.6033 30.062 16.0453 29.8434 15.5873 29.6087ZM23.5407 29.3814L23.08 29.2014L23.2073 28.7147L23.3473 28.186C23.3473 28.186 22.53 28.6374 21.378 28.9767C21.0513 29.072 20.804 29.116 20.804 29.116V29.476C20.804 29.476 20.188 29.5854 19.5653 29.5854H19.5293C18.906 29.5854 18.2913 29.476 18.2913 29.476V29.116C18.2913 29.116 18.0433 29.072 17.7167 28.9767C16.5647 28.6374 15.7487 28.186 15.7487 28.186L15.8867 28.7147L16.0167 29.2014L15.5533 29.3814L15.04 29.576C15.6287 29.866 16.444 30.2867 17.19 30.4954L17.014 30.9854C17.014 30.9854 17.9607 31.424 19.5367 31.428V31.4294H19.558V31.428C21.136 31.424 22.0813 30.9854 22.0813 30.9854L21.9047 30.4954C22.6513 30.2867 23.4673 29.866 24.0533 29.576L23.5407 29.3814ZM17.6207 9.62002L17.8307 9.64202L17.9213 9.44669L18.1853 8.87135L18.676 9.13002L18.866 9.22869L19.546 8.54135L20.0767 9.07602L20.2293 9.22869L20.4187 9.13002L20.9067 8.87135L21.1747 9.44669L21.2633 9.64202L21.4733 9.61935L21.6733 9.59469C21.5922 9.78237 21.5229 9.97497 21.466 10.1714C20.936 9.87069 20.2487 9.69935 19.546 9.69935C18.848 9.69935 18.1607 9.87069 17.6293 10.1714C17.5719 9.97506 17.5024 9.78247 17.4213 9.59469L17.6207 9.62002ZM19.5467 10C20.486 10 21.2373 10.3174 21.652 10.6547C21.652 10.6547 21.7753 9.89869 22.196 9.23135L21.44 9.31935L21.044 8.46269L20.284 8.86202L19.5467 8.11935L18.8113 8.86202L18.0493 8.46202L17.6547 9.31935L16.898 9.23135C17.3193 9.89802 17.442 10.6547 17.442 10.6547C17.86 10.3174 18.6087 10 19.5467 10ZM31.4493 22.7214C31.4493 22.7214 31.1227 23.3014 30.372 23.3014H30.3627C29.4627 23.296 29.0993 22.736 29.0993 22.736C29.0993 22.736 29.1513 23.464 28.8273 24.4467C28.436 25.6314 28.8307 26.4774 28.8307 26.4774C28.8307 26.4774 28.62 26.536 28.3773 26.536C28.2853 26.536 28.1887 26.526 28.0973 26.502C27.3453 26.32 27.1573 25.622 27.1573 25.622C27.1573 25.622 27.2267 27.9787 24.5307 27.9787H24.5093C24.5093 27.9787 24.7473 27.6494 24.8167 26.702C24.9447 24.9534 26.1067 24.7134 26.1067 24.7134C26.1067 24.7134 25.4867 24.634 25.218 24.3887C24.798 24.0007 24.8273 23.552 24.8273 23.552C25.776 23.5387 26.398 23.2094 26.8713 22.652C27.3847 22.0467 27.4687 21.3954 27.4687 21.3954C27.4687 21.3954 26.9587 21.8667 25.972 21.8667C25.8853 21.8667 25.7927 21.8627 25.6973 21.8534C25.2307 21.8147 24.908 21.5127 24.908 21.5127C25.9347 20.8414 26.6553 19.6707 26.0167 17.908C25.5047 16.4947 24.2753 15.44 23.0367 14.6447C22.6247 14.3834 22.3953 14.0914 22.3953 13.8407C22.3953 13.25 23.2193 13.2314 23.5567 12.8354C23.9467 12.374 23.702 11.6267 23.3647 11.176C23.3647 11.176 23.478 11.1527 23.658 11.1527C24.014 11.1527 24.6313 11.244 25.138 11.7794C25.8113 12.4887 25.532 13.262 25.532 13.262L25.712 13.2974C25.82 13.3207 25.9273 13.3254 26.0387 13.3307L26.1113 13.332C27.0893 13.332 27.5267 12.2907 27.5267 12.2907C27.5267 12.2907 28.566 13.5934 27.0353 14.6147C26.772 14.7894 26.6553 14.9514 26.686 15.124L26.71 15.2374L26.8187 15.2567C27.928 15.5634 28.4893 16.3434 29.1753 17.23C30.2167 18.578 31.6887 18.6214 31.8707 18.6214H31.8907C31.8907 18.6214 31.5547 19.7027 30.564 19.7027C30.5473 19.7027 30.5333 19.7027 30.5173 19.7014C30.062 19.6847 29.8287 19.5074 29.8287 19.5074C29.8287 19.5074 29.652 21.9607 31.4493 22.7214ZM30.564 20.0334C31.778 20.0334 32.1847 18.7747 32.2013 18.72L32.3373 18.2767L31.882 18.2914H31.8807C31.72 18.2914 30.38 18.2554 29.43 17.0247L29.34 16.9114C28.7193 16.1067 28.1307 15.342 27.078 14.9927C27.1087 14.9647 27.152 14.9307 27.2113 14.8907C27.7707 14.5167 28.0953 14.062 28.1767 13.534C28.2967 12.7407 27.7993 12.1074 27.7773 12.0814L27.4393 11.6554L27.228 12.1607C27.2133 12.1927 26.8587 13.0014 26.1113 13.0014H26.0553C26.0047 12.9987 25.9553 12.9967 25.9073 12.9927C25.934 12.632 25.8693 12.0734 25.372 11.5487C24.774 10.9187 24.0413 10.824 23.658 10.824C23.4527 10.824 23.3167 10.85 23.302 10.8507L22.7913 10.9547L23.106 11.3774C23.3533 11.704 23.5773 12.3054 23.312 12.62C23.2267 12.72 23.052 12.8014 22.8853 12.8827C22.5413 13.0434 22.0713 13.2694 22.0713 13.8407C22.0713 14.2107 22.3533 14.598 22.8647 14.9274C24.376 15.896 25.3093 16.9074 25.712 18.0234C26.3353 19.74 25.522 20.7187 24.732 21.2354L24.378 21.4667L24.688 21.7574C24.73 21.7947 25.1087 22.1354 25.6693 22.184C25.776 22.1914 25.8773 22.1974 25.972 22.1974C26.2815 22.1987 26.5894 22.1533 26.8853 22.0627C26.818 22.184 26.7327 22.3094 26.6273 22.434C26.176 22.9674 25.6207 23.2094 24.822 23.2227L24.5253 23.2274L24.5027 23.5307C24.5 23.592 24.4773 24.1547 25 24.6327C25.08 24.7067 25.176 24.768 25.278 24.8174C24.9233 25.1427 24.5633 25.7087 24.494 26.678C24.434 27.4874 24.2453 27.7874 24.2433 27.79L23.9153 28.3L24.508 28.3087C25.4873 28.3087 26.2373 28.0334 26.7567 27.4874C27.064 27.1647 27.24 26.8007 27.3433 26.4774C27.6306 26.7263 27.9979 26.8636 28.378 26.864C28.6547 26.864 28.886 26.8047 28.9113 26.798L29.29 26.696L29.1233 26.336C29.1107 26.3074 28.7953 25.5847 29.1347 24.5547C29.2588 24.1789 29.345 23.7916 29.392 23.3987C29.6307 23.5254 29.95 23.63 30.3627 23.6314C31.2993 23.6314 31.7127 22.918 31.7307 22.888L31.9153 22.5607L31.5733 22.4174C30.4567 21.9447 30.2093 20.676 30.16 19.99C30.2607 20.01 30.3767 20.028 30.5067 20.0314L30.564 20.0334Z" fill="#1A1918"/>
<path fill-rule="evenodd" clip-rule="evenodd" d="M29.1993 14.648C29.426 14.648 29.6893 14.7267 29.9387 14.9894C30.7213 15.7987 31.4493 15.8434 31.4493 15.8434C31.3167 16.142 30.9333 16.404 30.536 16.404C30.4422 16.4043 30.3491 16.3885 30.2607 16.3574C29.722 16.1727 29.5293 15.35 28.584 14.8374C28.584 14.8374 28.848 14.648 29.1993 14.648ZM28.43 15.1294C28.8833 15.3754 29.1467 15.7047 29.378 15.9967C29.606 16.282 29.8213 16.5567 30.1593 16.6707C30.2793 16.7127 30.406 16.7327 30.536 16.7327C31.0427 16.7327 31.552 16.4167 31.7447 15.9794L31.9393 15.5407L31.4693 15.512C31.4473 15.512 30.8427 15.4554 30.1707 14.756C29.894 14.4687 29.5593 14.318 29.1993 14.318C28.7593 14.318 28.4327 14.542 28.3967 14.5647L27.9647 14.8747L28.43 15.1294ZM28.6427 19.5V19.5174C28.37 17.276 26.7733 15.6574 24.996 14.674C24.8433 14.5912 24.6888 14.5116 24.5327 14.4354C25.0727 14.5214 25.9447 14.5314 26.6173 13.9367C26.6173 13.9367 25.588 14.708 23.4807 14.0074C24.0633 14.3934 25.1973 14.938 26.2327 15.8194C28.8207 18.1367 26.9693 20.396 26.9693 20.396C27.8993 19.4074 27.938 18.348 27.664 17.4827C28.154 18.3134 28.4667 19.3214 28.418 20.5647C28.3473 22.3447 27.386 23.8847 26.3753 25.1227C25.89 25.7227 25.782 26.4607 25.782 26.4607C25.782 26.4607 25.9773 25.8093 26.5393 25.14C27.6227 23.8474 28.5493 22.5054 28.6707 20.5714C28.782 20.9227 29.244 21.898 29.976 22.2654C29.976 22.2654 29.056 21.7007 28.6427 19.5ZM14.5647 27.9787C11.868 27.9787 11.9367 25.622 11.9367 25.622C11.9367 25.622 11.7487 26.32 10.9967 26.502C10.9067 26.526 10.8107 26.5354 10.7167 26.5354C10.4747 26.5354 10.2653 26.4774 10.2653 26.4774C10.2653 26.4774 10.6573 25.6313 10.2667 24.4467C9.94334 23.4647 9.996 22.736 9.996 22.736C9.996 22.736 9.63334 23.296 8.732 23.3014H8.72267C7.97334 23.3014 7.646 22.7214 7.646 22.7214C9.44267 21.9614 9.26667 19.5074 9.26667 19.5074C9.26667 19.5074 9.03334 19.6847 8.57734 19.7014C8.56067 19.7027 8.546 19.7027 8.53067 19.7027C7.53934 19.7027 7.20334 18.6214 7.20334 18.6214H7.22334C7.40667 18.6214 8.878 18.5774 9.918 17.2294C10.6047 16.3427 11.166 15.5634 12.274 15.2567L12.3853 15.2367L12.4087 15.1234C12.4393 14.9514 12.3233 14.7894 12.06 14.6147C10.53 13.5934 11.5693 12.2907 11.5693 12.2907C11.5693 12.2907 12.004 13.332 12.9847 13.332L13.056 13.3314C13.166 13.3247 13.2747 13.3207 13.3827 13.298L13.5627 13.262C13.5627 13.262 13.2827 12.4887 13.9573 11.7794C14.1478 11.5789 14.3775 11.4199 14.6321 11.312C14.8868 11.2042 15.1608 11.15 15.4373 11.1527C15.6173 11.1527 15.7293 11.176 15.7293 11.176C15.3927 11.6267 15.148 12.374 15.538 12.8354C15.8753 13.2314 16.698 13.25 16.698 13.8407C16.698 14.0914 16.4693 14.3834 16.058 14.6447C14.818 15.44 13.5893 16.4954 13.078 17.908C12.4393 19.6714 13.16 20.8414 14.188 21.5127C14.188 21.5127 13.8647 21.8147 13.3973 21.8527C13.3056 21.8618 13.2135 21.8664 13.1213 21.8667C12.136 21.8667 11.626 21.3954 11.626 21.3954C11.626 21.3954 11.7107 22.0467 12.2207 22.652C12.6973 23.2094 13.318 23.5387 14.2673 23.552C14.2673 23.552 14.2973 24.0007 13.878 24.3887C13.6087 24.634 12.988 24.7134 12.988 24.7134C12.988 24.7134 14.1507 24.9534 14.2787 26.702C14.348 27.6494 14.584 27.9787 14.584 27.9787H14.5647ZM14.8513 27.79C14.85 27.7874 14.662 27.4874 14.6013 26.678C14.5313 25.708 14.1713 25.1427 13.816 24.8174C13.9173 24.7699 14.011 24.7076 14.094 24.6327C14.616 24.1547 14.594 23.5927 14.59 23.5307L14.57 23.2274L14.2713 23.2227C13.4747 23.2094 12.918 22.9674 12.4673 22.434C12.3699 22.3184 12.2833 22.1941 12.2087 22.0627C12.4573 22.1394 12.762 22.1974 13.122 22.1974C13.218 22.1974 13.318 22.1914 13.4247 22.184C13.7882 22.1464 14.1311 21.9974 14.4067 21.7574L14.7173 21.4667L14.3633 21.2354C13.57 20.7187 12.76 19.74 13.3827 18.0234C13.7853 16.9074 14.7173 15.896 16.2313 14.9274C16.7427 14.598 17.022 14.2107 17.022 13.8407C17.022 13.2687 16.5533 13.0434 16.21 12.8827C16.042 12.8014 15.8673 12.72 15.7833 12.62C15.5167 12.3054 15.7407 11.7034 15.988 11.3774L16.3053 10.9547L15.792 10.8514C15.7767 10.8494 15.6427 10.824 15.4367 10.824C15.0533 10.824 14.322 10.9187 13.7247 11.5487C13.2267 12.0734 13.1613 12.632 13.1867 12.9927C13.1387 12.9967 13.0907 12.9987 13.0393 13.0014H12.9847C12.2347 13.0014 11.8807 12.192 11.8673 12.1614L11.6567 11.6554L11.3153 12.082C11.296 12.1074 10.7973 12.7407 10.9187 13.534C10.9987 14.062 11.3247 14.5167 11.8833 14.8907C11.9433 14.9307 11.986 14.964 12.0167 14.9927C10.9627 15.342 10.3747 16.1067 9.754 16.9107L9.66467 17.0254C8.716 18.2554 7.37267 18.292 7.212 18.292L6.75467 18.2767L6.894 18.7207C6.91 18.7747 7.31534 20.0334 8.53 20.0334L8.58867 20.0314C8.71734 20.028 8.83267 20.01 8.93534 19.99C8.88534 20.676 8.63734 21.9447 7.52067 22.4167L7.17934 22.5607L7.364 22.888C7.38134 22.918 7.796 23.6314 8.73467 23.6314C9.07147 23.6345 9.40389 23.5548 9.70267 23.3994C9.73867 23.71 9.814 24.1087 9.96 24.5547C10.3 25.5847 9.98334 26.3074 9.97134 26.336L9.804 26.696L10.1827 26.798C10.208 26.8047 10.4413 26.8647 10.7167 26.8647C11.0969 26.8649 11.4644 26.7276 11.7513 26.478C11.854 26.8 12.0307 27.1647 12.3373 27.4874C12.858 28.0333 13.6073 28.3087 14.586 28.3087L15.1793 28.3L14.8513 27.79Z" fill="#1A1918"/>
<path fill-rule="evenodd" clip-rule="evenodd" d="M9.15534 14.9887C9.40534 14.7267 9.66867 14.648 9.89667 14.648C10.246 14.648 10.51 14.8373 10.51 14.8373C9.566 15.35 9.37134 16.1727 8.832 16.3573C8.7443 16.3887 8.6518 16.4045 8.55867 16.404C8.16134 16.404 7.77734 16.142 7.64534 15.844C7.64534 15.844 8.37334 15.7987 9.15534 14.9887ZM8.558 16.7327C8.688 16.7327 8.81534 16.7127 8.93534 16.6713C9.274 16.5567 9.48934 16.2827 9.71667 15.9967C9.95 15.7053 10.21 15.3753 10.6633 15.13L11.13 14.8747L10.6967 14.5647C10.6613 14.5413 10.3367 14.318 9.89667 14.318C9.53534 14.318 9.2 14.4687 8.92334 14.756C8.25067 15.456 7.648 15.512 7.62667 15.5127L7.15734 15.5407L7.35 15.9793C7.54334 16.4167 8.052 16.7327 8.558 16.7327ZM10.6773 20.5647C10.6267 19.3213 10.94 18.3133 11.4307 17.4827C11.1573 18.348 11.194 19.4073 12.1253 20.396C12.1253 20.396 10.2733 18.136 12.8627 15.8193C13.898 14.938 15.0307 14.3927 15.6133 14.0073C13.5067 14.708 12.4773 13.9367 12.4773 13.9367C13.15 14.5313 14.0213 14.5213 14.562 14.4353C14.4153 14.5087 14.262 14.584 14.0987 14.674C12.3213 15.6573 10.7253 17.276 10.4513 19.5173V19.5C10.038 21.7 9.11934 22.2653 9.11934 22.2653C9.85067 21.898 10.3113 20.9227 10.4233 20.5713C10.5453 22.5053 11.4713 23.8473 12.5547 25.14C13.1167 25.8093 13.3147 26.4607 13.3147 26.4607C13.3147 26.4607 13.2047 25.7227 12.7167 25.1227C11.708 23.8853 10.748 22.3453 10.6773 20.5647ZM18.9387 16.03V16.4747C19.0887 16.288 19.3787 16.326 19.3787 16.326V16.9667C19.3787 16.9667 19.3693 17.282 19.2587 17.4187H19.888C19.78 17.282 19.7687 16.9667 19.7687 16.9667V16.3267C19.7687 16.3267 20.06 16.288 20.2093 16.4747V16.03H18.9387ZM18.668 13.3947C18.8693 13.5573 18.9853 13.5847 18.9893 13.5867L19.068 13.624V13.206L18.328 12.8893C18.328 12.8893 18.3347 13.1313 18.668 13.3947ZM20.4253 13.3947C20.76 13.1313 20.766 12.8893 20.766 12.8893L20.0267 13.206V13.624L20.1047 13.5867C20.1087 13.5847 20.2247 13.5573 20.4253 13.3947Z" fill="#1A1918"/>
<path fill-rule="evenodd" clip-rule="evenodd" d="M19.5467 12.28L17.766 11.5633C17.9173 11.198 18.6153 10.8873 19.546 10.8867C20.4793 10.8873 21.1767 11.198 21.328 11.5633L19.5467 12.28ZM20.874 14.526L19.6773 15.1687V12.5667L21.302 12.0047L20.874 14.526ZM21.6153 15.2167L22.1627 15.54H22.1707L22.308 15.622C21.9993 15.7093 21.7633 15.8667 21.5647 16.0733L21.5433 16.0953C21.4967 16.1461 21.452 16.1985 21.4093 16.2527L21.384 16.286C21.342 16.3417 21.302 16.3988 21.264 16.4573L21.2433 16.488C21.197 16.5595 21.153 16.6324 21.1113 16.7067C20.7213 17.3907 20.0993 17.7993 19.5467 17.8C18.994 17.7993 18.372 17.3907 17.9827 16.7067C17.9413 16.6335 17.898 16.5615 17.8527 16.4907L17.8273 16.4533C17.7902 16.3974 17.7517 16.3422 17.712 16.288C17.6618 16.222 17.6089 16.1582 17.5533 16.0967C17.5433 16.0893 17.5373 16.08 17.5293 16.072C17.3274 15.8565 17.07 15.7008 16.7853 15.622L16.924 15.54H16.9307L17.4787 15.2167L18.0413 14.8887L19.544 15.722L19.5467 15.7187L19.5507 15.722L21.0533 14.8887L21.6153 15.2167ZM23.7753 17.5313C23.652 17.8607 23.5507 18.218 23.5507 18.572L23.552 20.8627C23.082 20.7827 23.0267 20.2667 23.0253 20.2447L23.016 20.14L22.9147 20.1307C22.7417 20.1149 22.5804 20.0364 22.4613 19.91C22.2313 19.6753 22.2307 19.2947 22.2313 19.2913C22.228 19.3113 21.978 19.668 22.268 20.058C22.39 20.2227 22.568 20.324 22.7967 20.3633C22.85 20.6493 23.0593 21.0527 23.552 21.1147V22.2347H22.1653C21.5273 21.8727 21.798 21.2353 21.81 21.208L21.864 21.0873L21.742 21.04C21.05 20.7787 21.2407 20.0753 21.25 20.0447L21.278 19.942L21.1833 19.8967C20.612 19.6267 20.6893 18.9 20.6967 18.87C20.5213 19.0153 20.458 19.3107 20.5787 19.6013C20.5133 19.678 20.4253 19.77 20.3293 19.8713C19.7373 19.718 19.7193 19.164 19.7193 19.138L19.718 19.0527L19.64 19.022C19.4087 18.9353 19.2507 18.804 19.172 18.6287C19.0847 18.434 19.1153 18.2307 19.1387 18.132C19.2713 18.16 19.4064 18.1745 19.542 18.1753H19.552C19.62 18.1753 19.688 18.1713 19.7547 18.1647C20.1233 18.1273 20.536 17.966 20.9667 17.5313H23.7753ZM22.0433 27.5113L22.198 26.6893C22.206 26.6413 22.216 26.5847 22.2227 26.5373C22.2667 26.556 22.3127 26.5707 22.3627 26.5807C22.4207 26.592 22.474 26.5973 22.5227 26.5973C22.7587 26.5973 22.896 26.4707 22.988 26.3627L23.106 26.2227L23.0093 26.0673C22.8845 25.865 22.7549 25.6656 22.6207 25.4693C22.5879 25.4226 22.5563 25.375 22.526 25.3267C22.338 25.04 22.1033 24.6813 21.6313 24.6813L21.5893 24.6827C21.5216 24.6865 21.4549 24.7004 21.3913 24.724C21.248 24.6543 21.0907 24.6179 20.9313 24.6173C20.736 24.6173 20.5727 24.672 20.4633 24.7093C20.4313 24.7193 20.4033 24.7293 20.3813 24.7333L19.5007 24.6447C19.4893 24.6427 19.454 24.6213 19.4093 24.5687V24.564L19.6 24.486C19.5467 23.8393 18.9373 23.4413 18.5967 23.306C18.5819 23.2371 18.5477 23.1739 18.498 23.124L18.3087 22.9413L18.142 23.1447L18.0607 23.248L16.8267 22.732L17.6293 23.7587L17.3127 24.2473C17.1967 24.3727 17.3247 24.4987 17.3247 24.4987L17.652 24.728L17.9913 24.5993C18.0027 24.5993 18.0133 24.602 18.0247 24.6033C18.008 24.656 17.9867 24.862 17.9727 24.9193L17.384 24.802L16.7653 25.1573C16.6295 25.2585 16.5317 25.4024 16.4876 25.5659C16.4434 25.7293 16.4556 25.9029 16.522 26.0587L16.5907 26.2113L16.6887 26.4273L16.9047 26.336C16.9076 26.3352 16.9103 26.3338 16.9127 26.332C16.8347 26.5853 16.8667 26.8267 17.0053 26.984L17.1367 27.1527L17.3113 27.378L17.5033 27.1673C17.5593 27.1107 17.7433 26.9007 17.7993 26.7227L17.8407 26.586L17.7473 26.4807L17.732 26.4613L17.8373 26.2847L18.6053 26.4693L18.7787 26.5093L18.9207 26.2707C18.9307 26.2527 18.9327 26.25 18.968 26.25C18.9953 26.25 19.0227 26.2527 19.052 26.2593C19.342 26.3153 19.6093 26.3427 19.8467 26.3427C20.0767 26.3427 20.2147 26.334 20.3787 26.2787C20.3787 26.2787 20.7913 26.756 20.8053 26.7747L20.552 27.5687L20.5413 27.6167C20.0627 27.6567 19.83 27.7633 19.548 28.05C19.1393 27.6367 18.8493 27.5927 17.7507 27.5927C16.4347 27.5927 15.5427 26.8073 15.5427 25.5513V22.4827H23.552L23.5533 25.5513C23.5533 26.5693 22.9667 27.2793 22.0433 27.5113ZM17.11 25.7753L17.152 25.882C17.124 25.9747 16.812 26.106 16.812 26.106L16.7447 25.9553C16.7021 25.852 16.6948 25.7375 16.724 25.6296C16.7532 25.5217 16.8171 25.4265 16.906 25.3587L17.4127 25.044L17.95 25.16C17.946 25.2687 17.9781 25.3755 18.0413 25.464L17.4787 25.3533L17.142 25.5907C17.0847 25.6313 17.0807 25.706 17.11 25.7753ZM21.9587 26.6433L21.7853 27.5607C21.6704 27.5764 21.5547 27.5862 21.4387 27.59L21.6207 26.708C21.6753 26.4453 20.984 26.364 20.6427 25.848C20.476 26.0393 20.1627 26.096 19.8467 26.096C19.5593 26.096 19.2713 26.0493 19.0967 26.0147C19.0542 26.007 19.0112 26.0028 18.968 26.002C18.8673 26.002 18.7747 26.034 18.7113 26.142L18.6613 26.2287L17.72 26.0033L17.4853 26.398C17.4527 26.4627 17.45 26.516 17.5033 26.576L17.5667 26.6467C17.5233 26.7867 17.3267 26.998 17.3267 26.998L17.1873 26.82C17.0767 26.6933 17.094 26.4627 17.21 26.2487L17.5833 25.606L18.3813 25.7233L18.2573 25.436C18.0907 25.0553 18.3447 24.5713 18.372 24.292C18.3627 24.3767 18.2867 24.3953 18.1987 24.3953C18.118 24.3953 18.028 24.38 17.9687 24.38C17.9447 24.38 17.9247 24.3827 17.914 24.3907L17.698 24.524L17.5273 24.3707C17.5073 24.3413 17.5007 24.272 17.55 24.22L17.9447 23.7693L17.4787 23.2147L18.1313 23.548L18.3313 23.302C18.3853 23.3573 18.3613 23.5 18.3613 23.5C18.5653 23.5053 19.1367 23.8267 19.1667 24.578C19.1687 24.6013 19.1687 24.6267 19.1687 24.6513L19.184 24.6767C19.224 24.7333 19.336 24.878 19.4773 24.8913L20.3793 24.9827H20.3827C20.482 24.9827 20.6787 24.864 20.9313 24.864C21.0693 24.864 21.222 24.9 21.3847 25.0047C21.3847 25.0047 21.468 24.938 21.6007 24.9313C21.6107 24.93 21.622 24.93 21.6313 24.93C22.036 24.93 22.2047 25.3033 22.4213 25.6127C22.5847 25.8487 22.8033 26.198 22.8033 26.198C22.7227 26.2953 22.648 26.35 22.522 26.35C22.483 26.35 22.4442 26.346 22.406 26.338C21.972 26.2567 21.9093 25.3473 21.6613 25.276C21.6485 25.2724 21.6353 25.2707 21.622 25.2707C21.542 25.2707 21.508 25.3427 21.508 25.3427C21.6213 25.6527 21.5547 25.778 21.6767 26.0167C21.7673 26.194 21.9293 26.3393 21.996 26.4087C21.996 26.4087 21.978 26.5427 21.9587 26.6433ZM21.128 27.596C21.0067 27.596 20.8947 27.598 20.7947 27.602L21.0587 26.7633C21.1 26.6467 20.8907 26.4973 20.8047 26.3667C20.9347 26.45 21.272 26.6327 21.434 26.7053C21.418 26.732 21.128 27.596 21.128 27.596ZM17.1987 20.0393L17.236 18.5813L17.5573 18.2347L17.7587 18.6653L17.3613 20.0647L17.1987 20.0393ZM17.4293 20.4907C17.4827 20.6027 17.576 20.6773 17.6427 20.72C17.6402 20.8584 17.6271 20.9963 17.6033 21.1327C17.5967 21.1653 17.5887 21.1947 17.58 21.224L17.5667 21.2707C17.468 21.2707 17.276 21.258 17.118 21.2C16.9433 21.134 16.6833 20.808 16.7433 20.448C16.8187 20.4013 16.9933 20.3013 17.1573 20.3013C17.2833 20.3013 17.3693 20.3613 17.4293 20.4907ZM21.1487 20.8827C20.902 21.068 20.2653 21.5413 20.0347 21.7053L17.8133 21.2987L17.8287 21.2387C17.867 21.086 17.8871 20.9294 17.8887 20.772L19.756 20.8027L19.792 20.7653C19.82 20.7367 20.412 20.154 20.7133 19.8193C20.7847 19.9113 20.874 19.9987 20.992 20.0753C20.952 20.298 20.9693 20.616 21.1487 20.8827ZM18.128 17.5313C18.3947 17.802 18.656 17.97 18.9047 18.062C18.8727 18.1927 18.83 18.462 18.95 18.7307C19.0473 18.9467 19.2247 19.1133 19.4813 19.224C19.5093 19.492 19.6753 19.8947 20.1347 20.072C19.9333 20.2787 19.7373 20.4733 19.658 20.552L17.7953 20.522C17.7334 20.4919 17.6822 20.4435 17.6487 20.3833C17.6447 20.374 17.6387 20.3687 17.6353 20.3593L17.9393 20.4093L17.9587 20.41C17.9876 20.4102 18.0156 20.3998 18.0375 20.381C18.0595 20.3621 18.0738 20.336 18.078 20.3073C18.0834 20.2752 18.076 20.2422 18.0573 20.2155C18.0386 20.1888 18.0101 20.1705 17.978 20.1647L17.6033 20.1047L18.0187 18.6447L17.6253 17.802L16.9953 18.48L16.9567 19.9987L16.5333 19.93C16.468 19.9167 16.406 19.9653 16.394 20.0333C16.384 20.1 16.4287 20.1633 16.4953 20.1753L16.6727 20.2027C16.6346 20.2244 16.5977 20.248 16.562 20.2733L16.5267 20.2987L16.5167 20.344C16.414 20.77 16.6467 21.174 16.898 21.3553L16.8893 21.4087C16.8839 21.4405 16.8848 21.4732 16.8922 21.5046C16.8995 21.5361 16.913 21.5658 16.932 21.592C16.9536 21.6237 16.9826 21.6496 17.0166 21.6674C17.0505 21.6852 17.0883 21.6943 17.1267 21.694C17.1809 21.6933 17.2332 21.6743 17.2752 21.64C17.3172 21.6058 17.3464 21.5583 17.358 21.5053C17.4513 21.516 17.5373 21.5187 17.596 21.5187H17.646L20.09 21.9687L20.132 21.9407C20.3267 21.802 21.0693 21.2507 21.312 21.068C21.3793 21.1267 21.4547 21.18 21.5453 21.224C21.4653 21.4933 21.4613 21.908 21.772 22.2353H15.5427V18.572C15.5427 18.2173 15.4413 17.8607 15.3207 17.532L18.128 17.5313ZM17.7913 12.0047L19.4167 12.5667V15.1687L18.22 14.526L17.7913 12.0047ZM21.7573 11.6913C21.7573 11.056 20.708 10.4847 19.5507 10.4847H19.544C18.386 10.4847 17.3373 11.056 17.3373 11.6913L17.36 11.8467L17.822 14.5507L17.358 14.8253L16.1567 15.54H16.1607C16.1607 15.54 15.8907 15.682 15.7653 15.7687C15.3073 16.0927 15.2107 16.5647 15.476 16.76C15.5413 16.3747 15.84 15.9727 16.4 15.9727C16.8027 15.9727 17.11 16.1847 17.358 16.502C17.422 16.582 17.4827 16.668 17.5387 16.76C17.608 16.8767 17.6787 16.9787 17.7473 17.0767H14.6533C14.8807 17.5427 15.0967 18.0367 15.0967 18.572V25.552C15.0967 27.2407 16.372 28.0473 17.7513 28.0473C18.8173 28.0473 18.9607 27.9973 19.5487 28.5947C20.134 27.9973 20.278 28.0473 21.3447 28.0473C22.7247 28.0473 23.998 27.2407 23.998 25.5513V18.572C23.998 18.036 24.214 17.5427 24.4427 17.0767H21.3467C21.416 16.9787 21.486 16.8767 21.5553 16.76C21.6106 16.6708 21.6707 16.5847 21.7353 16.502C21.9853 16.1833 22.292 15.9727 22.6953 15.9727C23.254 15.9727 23.5527 16.3747 23.6187 16.76C23.8847 16.5647 23.7887 16.0927 23.3287 15.7687C23.2008 15.6863 23.0691 15.61 22.934 15.54H22.9387L21.2727 14.5507L21.7353 11.8467L21.7573 11.6913Z" fill="#1A1918"/>
</g>
<defs>
<clipPath id="clip0_132_13">
<rect width="40" height="40" fill="white"/>
</clipPath>
</defs>
</svg>
