<svg width="40" height="40" viewBox="0 0 40 40" fill="none" xmlns="http://www.w3.org/2000/svg">
<g clip-path="url(#clip0_132_242)">
<circle cx="20" cy="20" r="20" fill="#00A029"/>
<path d="M26.0431 11.3829C24.4427 9.90315 22.6102 8.97723 20.3655 9.00043C20.152 9.02287 19.9374 9.03924 19.723 9.05559C19.2726 9.08994 18.8228 9.12424 18.3845 9.21474C16.6021 9.60811 15.166 10.5795 13.9861 11.9619C13.0087 13.0896 12.3764 14.4744 12.1648 15.9513C12.1523 16.037 12.1393 16.1223 12.1264 16.2072C12.0241 16.8796 11.9247 17.5335 12.0821 18.2707C12.3987 19.7477 12.8164 21.1282 13.7624 22.3213C15.0918 23.9988 16.7906 25.1065 18.9071 25.4414C21.5946 25.8664 23.9646 25.0991 25.9438 23.2389C26.3402 22.8659 26.6531 22.3315 26.446 21.7025C26.0877 20.6096 24.9746 20.2682 24.038 20.9501C23.8976 21.0525 23.7595 21.1605 23.6212 21.2687C23.2556 21.5548 22.889 21.8416 22.4775 22.0254C21.2474 22.5765 19.9608 22.6897 18.6426 22.2536C17.2547 21.7944 16.254 20.875 15.6172 19.6141C14.894 18.1798 14.8485 16.6582 15.516 15.1738C16.4248 13.167 18.3195 12.0741 20.5289 12.0695C20.8986 12.0837 21.2658 12.1368 21.6243 12.2281C22.5346 12.4237 23.2402 12.9756 23.9477 13.5289C24.0087 13.5766 24.0697 13.6243 24.1308 13.6717C24.7333 14.1421 25.6718 14.0549 26.1258 13.5317C26.6363 12.9434 26.6048 11.9034 26.0431 11.3829Z" fill="white"/>
<path d="M18.5499 30.998C19.014 30.997 19.478 30.996 19.942 30.996C20.2855 30.996 20.6289 30.9961 20.9723 30.9962C22.3461 30.9967 23.7197 30.9971 25.0951 30.9905C25.3419 30.9908 25.5882 30.9669 25.8303 30.919C26.3483 30.8151 26.7893 30.2594 26.8125 29.7129C26.8385 29.1145 26.4662 28.5337 25.9213 28.3899C25.6084 28.3062 25.2862 28.2622 24.9623 28.2591C21.6204 28.2517 18.2784 28.2517 14.9365 28.2591C14.6593 28.2632 14.3832 28.2943 14.1121 28.3519C13.5885 28.4521 13.1977 28.7462 13.0817 29.2871C12.9313 29.9987 13.0854 30.4245 13.6814 30.7409C14.0119 30.9028 14.3753 30.9866 14.7434 30.9858C16.0123 31.0035 17.2813 31.0007 18.5499 30.998Z" fill="white"/>
</g>
<defs>
<clipPath id="clip0_132_242">
<rect width="40" height="40" fill="white"/>
</clipPath>
</defs>
</svg>
