<svg width="40" height="40" viewBox="0 0 40 40" fill="none" xmlns="http://www.w3.org/2000/svg">
<g clip-path="url(#clip0_441_175)">
<path d="M20 40C31.0457 40 40 31.0457 40 20C40 8.9543 31.0457 0 20 0C8.9543 0 0 8.9543 0 20C0 31.0457 8.9543 40 20 40Z" fill="#E43554"/>
<path fill-rule="evenodd" clip-rule="evenodd" d="M10.917 14.8H17.0827L19.9999 17.7172L22.917 14.8H29.0827L31.9646 17.6819L28.8232 20.8232L29.1768 21.1768L32.3181 18.0355L35.2827 21L32.0827 24.2H28.917L25.9999 21.2829L23.0827 24.2H16.917L13.9999 21.2829L11.0827 24.2H7.91704L4.71704 21L10.917 14.8ZM14.4827 21.2L17.0827 23.8H19.517L16.917 21.2H14.4827ZM17.4827 21.2L20.0827 23.8H22.517L19.917 21.2H17.4827ZM23.4827 18.2L26.0827 20.8H28.517L25.917 18.2H23.4827ZM28.517 15.2H26.0827L23.4827 17.8H25.917L28.517 15.2ZM22.917 17.8L25.517 15.2H23.0827L20.4827 17.8H22.917ZM17.4827 20.8L20.0827 18.2H22.517L19.917 20.8H17.4827ZM13.917 17.8L16.517 15.2H14.0827L11.4827 17.8H13.917ZM10.917 17.8L13.517 15.2H11.0827L8.48273 17.8H10.917ZM8.08273 18.2H10.517L7.91704 20.8H5.48273L8.08273 18.2ZM5.48273 21.2H7.91704L10.517 23.8H8.08273L5.48273 21.2ZM11.4827 18.2L14.0827 20.8H16.517L13.917 18.2H11.4827ZM31.517 23.8L28.917 21.2H26.4827L29.0827 23.8H31.517Z" fill="white"/>
</g>
<defs>
<clipPath id="clip0_441_175">
<rect width="40" height="40" fill="white"/>
</clipPath>
</defs>
</svg>
