<svg width="40" height="40" viewBox="0 0 40 40" fill="none" xmlns="http://www.w3.org/2000/svg">
<circle cx="20" cy="20" r="20" fill="#0058A3"/>
<path fill-rule="evenodd" clip-rule="evenodd" d="M20.2204 27.3766C9.05388 27.3766 1 24.115 1 20.1883C1 16.2617 9.05962 13 20.2204 13C31.3812 13 39.4351 16.2617 39.4351 20.1883C39.4351 24.115 31.3869 27.3766 20.2204 27.3766ZM13.6569 17.5744C13.6569 17.4024 13.6569 17.2362 13.7429 17.0642H10.1373C10.2233 17.2362 10.2233 17.4024 10.2233 17.5744V22.4927C10.2233 22.6647 10.2233 22.8309 10.1373 23.0029H13.7429C13.6569 22.8309 13.6569 22.6647 13.6569 22.4927V20.4234C13.6569 20.4234 14.6486 21.931 14.832 22.2061C15.0155 22.4813 15.1817 22.8309 15.1817 23.0029H19.5096C19.3491 22.8481 19.2115 22.6762 19.0854 22.4927C18.8619 22.1545 17.125 19.5119 17.125 19.5119C17.125 19.5119 18.2944 18.0846 18.5007 17.8324C18.7357 17.5458 19.0224 17.2362 19.2803 17.0642H15.5199C15.5199 17.2362 15.2734 17.6088 15.0728 17.8725C14.8091 18.2279 13.6569 19.724 13.6569 19.724V17.5744ZM20.1344 17.0642H27.0934V18.7037C26.9215 18.6234 26.7552 18.6234 26.5833 18.6234H23.6541V19.4087H26.4686V20.6641H23.6541V21.4437H26.5833C26.7552 21.4437 26.9215 21.4437 27.0934 21.3577V23.0029H20.1344C20.2204 22.8309 20.2204 22.6647 20.2204 22.4927V17.5744C20.2204 17.4024 20.2204 17.2362 20.1344 17.0642ZM37.0161 23.0029C36.8899 22.8539 36.7925 22.6819 36.7352 22.4927C36.6091 22.1602 34.9983 17.9527 34.8492 17.5801C34.8378 17.549 34.8255 17.518 34.8131 17.4872C34.7575 17.3477 34.7028 17.2108 34.7403 17.07H29.7131C29.7355 17.2379 29.6759 17.4004 29.6143 17.5681L29.6099 17.5801L27.8272 22.4985C27.7698 22.6876 27.6781 22.8596 27.5578 23.0086H30.5328C30.5117 22.8505 30.5634 22.6971 30.6164 22.5397C30.621 22.526 30.6257 22.5122 30.6303 22.4985C30.6876 22.3265 30.7506 22.1602 30.7506 22.1602L30.785 22.0685H32.9576L32.992 22.1545C33.0722 22.3551 33.1296 22.4927 33.1296 22.4927C33.1983 22.6647 33.2614 22.8309 33.2442 23.0029H37.0161ZM31.9544 19.4374L32.4818 20.8132H31.2379C31.3669 20.4548 31.4873 20.1252 31.5776 19.878C31.6678 19.6308 31.728 19.4661 31.7366 19.4374C31.7825 19.3113 31.8169 19.1795 31.8398 19.0476C31.8684 19.1795 31.9086 19.3113 31.9544 19.4374ZM8.42906 17.0642C8.34308 17.2362 8.34308 17.4024 8.34308 17.5744V22.4927C8.34308 22.6647 8.34308 22.8309 8.42906 23.0029H4.50817C4.59415 22.8309 4.59415 22.6647 4.59415 22.4927V17.5744C4.59415 17.4024 4.59415 17.2362 4.50817 17.0642H8.42906ZM36.2938 18.3368C35.8581 18.3253 35.5199 17.9642 35.5314 17.5343C35.5257 17.5171 35.5257 17.4999 35.5371 17.4827C35.5486 17.0642 35.8983 16.7375 36.3167 16.7547H36.3454C36.7696 16.7604 37.102 17.1101 37.0963 17.5343V17.5744C37.0848 18.0101 36.7237 18.3483 36.2938 18.3368ZM36.3282 18.1763C36.6721 18.1706 36.9473 17.8782 36.9358 17.5343V17.5056C36.9301 17.1674 36.6492 16.898 36.311 16.9037H36.2651C35.9326 16.9152 35.6747 17.1961 35.6862 17.5286V17.5687C35.6919 17.9126 35.9842 18.1878 36.3282 18.1763ZM36.5403 18.0043H36.695L36.4944 17.6432C36.5976 17.5859 36.6606 17.4827 36.6606 17.3681C36.6606 17.2018 36.5345 17.07 36.3683 17.0642H36.0186V18.0043H36.1562V17.6719H36.3568L36.5403 18.0043ZM36.5173 17.3795C36.5173 17.4712 36.4371 17.54 36.3454 17.5343L36.3454 17.54H36.1562V17.2075H36.3454H36.3626C36.4543 17.2075 36.5173 17.2878 36.5173 17.3795Z" fill="#FFDB00"/>
</svg>
