<svg width="40" height="40" viewBox="0 0 40 40" fill="none" xmlns="http://www.w3.org/2000/svg">
<circle cx="20" cy="20" r="20" fill="#FD681C"/>
<path d="M19.9997 22C18.0665 22 16 23.3432 16 25H24C24 23.3432 21.9329 22 19.9997 22Z" fill="white"/>
<path d="M20.0003 18C15.5882 18 12 21.1402 12 25H14.1294C14.1294 22.1683 16.7631 19.8635 19.9997 19.8635C23.2363 19.8635 25.87 22.1683 25.87 25H28C28 21.1402 24.4118 18 20.0003 18Z" fill="white"/>
<path d="M20.0003 13C16.7945 13 13.7812 14.2483 11.5147 16.5149C9.24817 18.7809 8 21.7944 8 25H10.039C10.039 19.5075 14.5073 15.0387 20.0003 15.0387C25.4921 15.0387 29.961 19.508 29.961 25H32C32 21.7944 30.7518 18.7809 28.4853 16.5149C26.2188 14.2483 23.2055 13 20.0003 13Z" fill="white"/>
</svg>
