<svg width="40" height="40" viewBox="0 0 40 40" fill="none" xmlns="http://www.w3.org/2000/svg">
<g clip-path="url(#clip0_25_3326)">
<path d="M19.9965 39.9954C31.0388 39.9954 39.9905 31.0421 39.9905 19.9977C39.9905 8.95327 31.0388 0 19.9965 0C8.95407 0 0.00244141 8.95327 0.00244141 19.9977C0.00244141 31.0421 8.95407 39.9954 19.9965 39.9954Z" fill="#FFC800"/>
<path d="M22.5326 1.46666C23.9092 3.849 20.5821 8.34984 15.0988 11.5121C9.61561 14.6743 4.0587 15.3106 2.68208 12.9244C2.62391 12.8119 2.56962 12.6877 2.53084 12.5597C2.17409 11.45 2.60064 10.0144 3.62826 8.50116C3.79501 8.26448 3.96563 8.03168 4.14014 7.80276C5.69126 5.78126 7.65732 4.02749 9.99952 2.67723C12.3417 1.3231 14.8429 0.500535 17.3674 0.166852C17.6621 0.124172 17.949 0.0931324 18.2282 0.0737322C20.0508 -0.0620689 21.505 0.287134 22.2883 1.1485C22.3814 1.25326 22.4628 1.35802 22.5326 1.46666Z" fill="black"/>
<path d="M28.6015 34.897C21.8114 38.8158 14.4474 39.5181 9.74365 37.1707C15.7659 40.7597 23.4983 41.0701 29.9975 37.3181C36.4967 33.5623 40.0953 26.7101 39.9984 19.6989C39.6804 24.9486 35.3915 30.9782 28.6015 34.897Z" fill="black"/>
<path d="M20.2019 20.3508C28.5857 15.5085 33.4369 8.21017 31.0326 4.04689C30.6371 3.36013 30.0864 2.79752 29.4078 2.35132C31.847 3.64725 34.0418 5.46311 35.8062 7.74457C36.1048 8.12481 36.3879 8.52445 36.6593 8.93186C37.3767 10.1851 37.6908 11.6013 37.6404 13.1068C37.4659 18.4379 32.7389 24.8904 25.3051 29.1856C17.8675 33.4808 9.91406 34.3461 5.21027 31.8279C3.8763 31.114 2.80603 30.1285 2.08088 28.8752C2.077 28.8675 2.07215 28.8587 2.0673 28.85C2.06246 28.8413 2.05761 28.8326 2.05373 28.8248C1.85984 28.429 1.67759 28.0294 1.51084 27.6259C0.390151 24.9254 -0.0906985 22.0813 0.0140025 19.2838C0.0566584 20.1141 0.269938 20.8862 0.669353 21.5808C3.06972 25.744 11.8181 25.1931 20.2019 20.3508Z" fill="black"/>
<path d="M31.0365 4.05465L31.0326 4.04689C31.0326 4.04689 31.0365 4.05077 31.0365 4.05465Z" fill="black"/>
<path d="M20.0004 39.9954C31.0427 39.9954 39.9944 31.0421 39.9944 19.9977C39.9944 8.95327 31.0427 0 20.0004 0C8.95797 0 0.00634766 8.95327 0.00634766 19.9977C0.00634766 31.0421 8.95797 39.9954 20.0004 39.9954Z" fill="url(#paint0_radial_25_3326)"/>
</g>
<defs>
<radialGradient id="paint0_radial_25_3326" cx="0" cy="0" r="1" gradientUnits="userSpaceOnUse" gradientTransform="translate(19.9985 19.9994) scale(19.9935 20.005)">
<stop offset="0.5" stop-color="white" stop-opacity="0"/>
<stop offset="1" stop-color="white" stop-opacity="0.35"/>
</radialGradient>
<clipPath id="clip0_25_3326">
<rect width="40" height="40" fill="white"/>
</clipPath>
</defs>
</svg>
