<svg width="40" height="40" viewBox="0 0 40 40" fill="none" xmlns="http://www.w3.org/2000/svg">
<g clip-path="url(#clip0_25_704)">
<path fill-rule="evenodd" clip-rule="evenodd" d="M20 0C31.046 0 40 8.95467 40 19.9967V20.0033C40 31.0473 31.048 40 20 40C8.954 40 0 31.048 0 20C0 8.954 8.952 0 20 0Z" fill="#E30511"/>
<path fill-rule="evenodd" clip-rule="evenodd" d="M27.0228 22.0927C26.9855 23.5774 26.7128 25.0014 26.0368 26.328C25.1568 28.0547 23.8075 29.228 21.9301 29.7494C20.8548 30.048 19.7615 30.092 18.6568 29.9407C17.4455 29.7754 16.3468 29.3374 15.3928 28.5627C14.4895 27.8294 13.8421 26.9047 13.3888 25.836C13.0497 25.0288 12.8288 24.177 12.7328 23.3067C12.6498 22.5403 12.6453 21.7674 12.7195 21C12.8795 19.2134 13.3428 17.5067 14.0528 15.8654C14.6368 14.514 15.3688 13.252 16.3228 12.1287C16.8868 11.4654 17.5195 10.878 18.2815 10.442C19.2995 9.86071 20.3141 9.8507 21.3375 10.4247C22.0281 10.8114 22.6155 11.3247 23.1395 11.9127C24.4381 13.372 25.3415 15.0634 26.0101 16.8894C26.4024 17.945 26.68 19.0397 26.8381 20.1547C26.9268 20.7974 26.9628 21.4467 27.0228 22.0927Z" fill="white"/>
</g>
<defs>
<clipPath id="clip0_25_704">
<rect width="40" height="40" fill="white"/>
</clipPath>
</defs>
</svg>
