<svg width="40" height="41" viewBox="0 0 40 41" fill="none" xmlns="http://www.w3.org/2000/svg">
<g clip-path="url(#clip0_25_326)">
<mask id="mask0_25_326" style="mask-type:alpha" maskUnits="userSpaceOnUse" x="0" y="0" width="40" height="41">
<path d="M19.802 40.1033C30.738 40.1033 39.6033 31.238 39.6033 20.302C39.6033 9.36533 30.738 0.5 19.802 0.5C8.86533 0.5 0 9.36533 0 20.302C0 31.238 8.86533 40.1033 19.802 40.1033Z" fill="white"/>
</mask>
<g mask="url(#mask0_25_326)">
<path d="M19.802 40.1033C30.738 40.1033 39.6033 31.238 39.6033 20.302C39.6033 9.36533 30.738 0.5 19.802 0.5C8.86533 0.5 0 9.36533 0 20.302C0 31.238 8.86533 40.1033 19.802 40.1033Z" fill="#C1232A"/>
<path fill-rule="evenodd" clip-rule="evenodd" d="M25.8717 15.104V10.9374C25.8717 10.6187 25.8537 10.594 25.5464 10.518C25.3997 10.482 25.2511 10.456 25.1037 10.4234C23.6904 10.1154 22.2604 9.96002 20.8177 9.92202C19.6786 9.88762 18.5385 9.92994 17.4051 10.0487C16.4104 10.1567 15.4217 10.2954 14.4471 10.528C14.1444 10.6 14.1104 10.6414 14.1104 10.9614V19.3314C14.1104 19.5994 14.1464 19.6534 14.4077 19.7014C15.1157 19.8327 15.8217 19.9827 16.5344 20.072C17.3817 20.178 18.2344 20.2567 19.0871 20.2947C20.2071 20.3454 21.3284 20.3174 22.4484 20.2074C23.5016 20.1073 24.5471 19.9388 25.5784 19.7027C25.8344 19.6434 25.8717 19.5894 25.8717 19.3254V15.104ZM26.6117 15.108V19.222C26.6117 19.3054 26.6124 19.3887 26.6064 19.4714C26.5704 19.9887 26.3571 20.262 25.8637 20.3947C24.8957 20.6547 23.9104 20.8387 22.9137 20.9114C21.8184 20.9914 20.7197 21.054 19.6224 21.05C17.8117 21.0434 16.0144 20.852 14.2471 20.4287C13.6211 20.2794 13.3797 19.956 13.3797 19.306C13.3797 16.7654 13.3784 14.2247 13.3811 11.6834C13.3811 11.328 13.3797 10.9714 13.4111 10.618C13.4444 10.2394 13.6624 9.96736 14.0197 9.87402C14.5644 9.73202 15.1164 9.61402 15.6711 9.51802C17.1177 9.26602 18.5804 9.16602 20.0464 9.16669C21.9804 9.16802 23.8997 9.33602 25.7857 9.80869C26.3844 9.95869 26.6104 10.2574 26.6117 10.9227C26.6144 12.318 26.6117 13.7127 26.6117 15.108Z" fill="#FEFEFE"/>
<mask id="mask1_25_326" style="mask-type:alpha" maskUnits="userSpaceOnUse" x="7" y="23" width="6" height="7">
<path d="M7.3335 23.8373V29.864H12.2962V23.8373H7.3335Z" fill="white"/>
</mask>
<g mask="url(#mask1_25_326)">
<path fill-rule="evenodd" clip-rule="evenodd" d="M8.91484 27.6948C9.47284 27.6948 10.0182 27.6961 10.5628 27.6948C10.6975 27.6948 10.6788 27.5881 10.6795 27.5021C10.6808 26.5775 10.6782 25.6521 10.6822 24.7275C10.6828 24.6095 10.6448 24.5735 10.5322 24.5748C10.1435 24.5801 9.75417 24.5808 9.36484 24.5748C9.2015 24.5728 9.13017 24.6481 9.13017 24.8088C9.13017 25.0521 9.1335 25.2955 9.12884 25.5381C9.11684 26.2575 9.1955 26.9848 8.91484 27.6948ZM11.5035 27.6908C11.6848 27.6908 11.8295 27.6841 11.9728 27.6928C12.2128 27.7075 12.2928 27.7955 12.2942 28.0408C12.2968 28.5155 12.2968 28.9908 12.2942 29.4655C12.2928 29.7308 12.1908 29.8475 11.9675 29.8508C11.7042 29.8555 11.5628 29.7235 11.5595 29.4561C11.5548 29.1181 11.5582 28.7801 11.5582 28.4268H8.0835C8.07817 28.4815 8.0675 28.5435 8.06684 28.6061C8.06417 28.9081 8.06684 29.2108 8.06217 29.5135C8.0595 29.7215 7.91684 29.8555 7.70017 29.8641C7.50217 29.8715 7.34217 29.7401 7.33884 29.5361C7.33172 29.0077 7.33172 28.4792 7.33884 27.9508C7.34084 27.7735 7.43617 27.6975 7.6255 27.6888C7.97084 27.6728 8.08017 27.6061 8.16217 27.2608C8.23684 26.9461 8.29417 26.6208 8.30617 26.2981C8.32884 25.6935 8.3115 25.0868 8.31284 24.4815C8.31484 23.9381 8.3835 23.8541 8.91017 23.8448C9.63684 23.8335 10.3642 23.8381 11.0915 23.8428C11.3795 23.8455 11.5008 23.9781 11.5022 24.2768C11.5055 25.0188 11.5035 25.7601 11.5035 26.5021V27.6908Z" fill="#FEFEFE"/>
</g>
<path fill-rule="evenodd" clip-rule="evenodd" d="M31.4562 27.974C31.1109 28.408 30.6769 28.5913 30.1542 28.5527C29.4489 28.5 28.9962 28.062 28.9102 27.3467C28.8902 27.1761 28.8799 27.0044 28.8796 26.8327C28.8762 26.0313 28.8776 25.2293 28.8782 24.428C28.8782 24.028 29.1276 23.7493 29.4836 23.746C29.8269 23.7427 30.0969 24.0393 30.0976 24.424C30.0989 25.124 30.0976 25.8253 30.0976 26.526V26.668C30.1022 27.058 30.1976 27.2407 30.4389 27.3193C30.7696 27.428 31.2169 27.306 31.3889 27.046C31.4269 26.9893 31.4349 26.902 31.4349 26.8287C31.4382 26.0393 31.4349 25.2493 31.4376 24.46C31.4382 24.0947 31.6109 23.84 31.8962 23.7667C32.2962 23.666 32.6542 23.9533 32.6562 24.39C32.6609 25.3047 32.6582 26.2187 32.6576 27.1333C32.6576 27.3887 32.6536 27.6433 32.6509 27.8987C32.6509 27.9347 32.6496 27.97 32.6456 28.0053C32.6009 28.3873 32.4356 28.5667 32.1229 28.5767C31.7449 28.5893 31.5616 28.4367 31.4862 28.048C31.4829 28.0313 31.4729 28.016 31.4562 27.9747V27.974ZM19.4769 26.5767C19.5409 26.4527 19.5876 26.3647 19.6316 26.2753C19.9716 25.5873 20.3089 24.898 20.6496 24.2107C20.7076 24.0947 20.7716 23.9807 20.8449 23.8747C20.9482 23.7233 21.0942 23.6667 21.2716 23.718C21.3541 23.7419 21.4276 23.79 21.4825 23.856C21.5374 23.9221 21.5712 24.0031 21.5796 24.0887C21.5809 24.1067 21.5802 24.1247 21.5802 24.142C21.5802 25.478 21.5816 26.8133 21.5796 28.1487C21.5796 28.4153 21.4036 28.6 21.1649 28.602C20.9169 28.6027 20.7416 28.4153 20.7409 28.1393C20.7389 27.3913 20.7402 26.6433 20.7402 25.896V25.7093L20.6996 25.7027C20.6729 25.7753 20.6502 25.8493 20.6196 25.9187C20.3842 26.448 20.1456 26.9753 19.9129 27.5053C19.8256 27.7033 19.7016 27.8493 19.4729 27.852C19.2369 27.854 19.1096 27.7067 19.0196 27.5007C18.7822 26.96 18.5396 26.422 18.2976 25.8833C18.2759 25.8275 18.2406 25.778 18.1949 25.7393V26.14C18.1949 26.7813 18.1956 27.422 18.1936 28.0633C18.1936 28.1393 18.1869 28.2187 18.1656 28.29C18.186 28.349 18.1924 28.4119 18.1841 28.4737C18.1759 28.5356 18.1533 28.5947 18.1182 28.6462C18.083 28.6978 18.0363 28.7404 17.9818 28.7707C17.9272 28.801 17.8663 28.8181 17.804 28.8206C17.7416 28.8232 17.6796 28.8111 17.6227 28.7854C17.5659 28.7597 17.5158 28.721 17.4766 28.6725C17.4373 28.624 17.41 28.5669 17.3968 28.506C17.3835 28.445 17.3847 28.3818 17.4002 28.3213C17.3738 28.2496 17.3601 28.1738 17.3596 28.0973C17.3569 26.8033 17.3556 25.5087 17.3589 24.2147C17.3596 23.8287 17.6562 23.5947 17.9829 23.7387C18.1009 23.7907 18.2029 23.93 18.2649 24.054C18.5882 24.704 18.8956 25.362 19.2089 26.0173L19.4769 26.5767ZM15.7629 26.1967C15.7622 25.7513 15.7056 25.3987 15.5276 25.0733C15.3156 24.6867 14.9942 24.4833 14.5602 24.494C14.1169 24.5053 13.7856 24.73 13.6269 25.1467C13.5202 25.428 13.4529 25.738 13.4336 26.04C13.4056 26.4693 13.4822 26.8927 13.7349 27.258C14.1276 27.826 14.9802 27.856 15.4109 27.318C15.6909 26.968 15.7569 26.5513 15.7629 26.1967ZM16.6002 26.0953C16.6116 26.696 16.4616 27.246 16.1009 27.7273C15.9339 27.9539 15.7179 28.1398 15.4689 28.2711C15.22 28.4024 14.9445 28.4757 14.6632 28.4855C14.3819 28.4953 14.1021 28.4414 13.8446 28.3278C13.5871 28.2141 13.3586 28.0437 13.1762 27.8293C12.3749 26.9007 12.4022 25.242 13.2089 24.316C13.9502 23.466 15.6196 23.4333 16.2956 24.7587C16.5096 25.1787 16.6089 25.624 16.6002 26.0953ZM26.6242 24.302L26.7709 24.1367C27.1142 23.7447 27.5496 23.6913 28.0176 23.808C28.3542 23.892 28.5169 24.1813 28.4409 24.5127C28.3602 24.8647 28.1089 25.0213 27.7542 24.9793C27.5366 24.9487 27.3157 24.9514 27.0989 24.9873C26.7816 25.0473 26.6189 25.2873 26.6189 25.6153C26.6176 26.4107 26.6209 27.206 26.6169 28.002C26.6199 28.1415 26.5726 28.2775 26.4838 28.3852C26.395 28.4929 26.2705 28.5651 26.1329 28.5887C25.8302 28.6447 25.5396 28.4933 25.4462 28.2053C25.4042 28.074 25.4002 27.9253 25.3996 27.7847C25.3962 26.686 25.3976 25.588 25.3982 24.4893C25.3982 24.448 25.4016 24.4067 25.4062 24.3653C25.4436 23.992 25.5582 23.832 25.8229 23.8007C26.2262 23.7527 26.5049 23.894 26.5816 24.226C26.5862 24.2473 26.6029 24.266 26.6242 24.302ZM23.4456 28.4813C23.3414 28.4812 23.2383 28.4603 23.1422 28.4199C23.0462 28.3796 22.9591 28.3205 22.8861 28.2462C22.8131 28.1719 22.7556 28.0838 22.7169 27.987C22.6783 27.8903 22.6592 27.7868 22.6609 27.6827C22.6629 27.236 22.9629 26.8953 23.4529 26.8727C23.8849 26.8527 24.2429 27.2393 24.2382 27.6913C24.2386 27.7954 24.2183 27.8985 24.1786 27.9947C24.1388 28.0909 24.0804 28.1782 24.0067 28.2517C23.933 28.3251 23.8454 28.3833 23.7491 28.4227C23.6528 28.4621 23.5496 28.482 23.4456 28.4813ZM22.3509 12.658C22.3502 12.0227 22.8489 11.5107 23.4656 11.514C24.0516 11.5167 24.5776 12.054 24.5822 12.6527C24.5862 13.266 24.0776 13.79 23.4756 13.7913C23.3271 13.7915 23.18 13.7623 23.043 13.7053C22.9059 13.6483 22.7814 13.5646 22.6768 13.4593C22.5722 13.3539 22.4896 13.2288 22.4336 13.0913C22.3777 12.9537 22.3496 12.8065 22.3509 12.658Z" fill="#FEFEFE"/>
</g>
</g>
<defs>
<clipPath id="clip0_25_326">
<rect width="40" height="40" fill="white" transform="translate(0 0.5)"/>
</clipPath>
</defs>
</svg>
