<svg width="40" height="40" viewBox="0 0 40 40" fill="none" xmlns="http://www.w3.org/2000/svg">
<g clip-path="url(#clip0_25_3009)">
<path fill-rule="evenodd" clip-rule="evenodd" d="M20 0C31.046 0 40 8.95467 40 19.9967V20.0033C40 31.0473 31.048 40 20 40C8.954 40 0 31.048 0 20C0 8.954 8.952 0 20 0Z" fill="#00985F"/>
<path fill-rule="evenodd" clip-rule="evenodd" d="M21.2233 10V20.356L21.222 20.3573C21.2202 20.5729 21.1333 20.779 20.9802 20.9307C20.8271 21.0825 20.6202 21.1675 20.4047 21.1673H19.1733C19.1587 21.1674 19.1443 21.1704 19.1308 21.1761C19.1173 21.1817 19.1051 21.19 19.0948 21.2004C19.0845 21.2108 19.0764 21.2231 19.0709 21.2367C19.0654 21.2502 19.0626 21.2647 19.0627 21.2793V29.9567C19.3673 29.9847 19.676 30 19.988 30C25.5173 30 30 25.5053 30 19.9613C30 14.8373 26.17 10.6107 21.2233 10ZM20.9373 25.6253C20.6058 25.6253 20.2879 25.4936 20.0535 25.2592C19.819 25.0248 19.6873 24.7069 19.6873 24.3753C19.6873 24.0438 19.819 23.7259 20.0535 23.4915C20.2879 23.257 20.6058 23.1253 20.9373 23.1253C21.2689 23.1253 21.5868 23.257 21.8212 23.4915C22.0556 23.7259 22.1873 24.0438 22.1873 24.3753C22.1873 24.7069 22.0556 25.0248 21.8212 25.2592C21.5868 25.4936 21.2689 25.6253 20.9373 25.6253ZM24.0627 25.6253C23.7311 25.6253 23.4132 25.4936 23.1788 25.2592C22.9444 25.0248 22.8127 24.7069 22.8127 24.3753C22.8127 24.0438 22.9444 23.7259 23.1788 23.4915C23.4132 23.257 23.7311 23.1253 24.0627 23.1253C24.3942 23.1253 24.7121 23.257 24.9466 23.4915C25.181 23.7259 25.3127 24.0438 25.3127 24.3753C25.3127 24.7069 25.181 25.0248 24.9466 25.2592C24.7121 25.4936 24.3942 25.6253 24.0627 25.6253ZM26.8747 25.6253C26.5431 25.6253 26.2252 25.4936 25.9908 25.2592C25.7564 25.0248 25.6247 24.7069 25.6247 24.3753C25.6247 24.0438 25.7564 23.7259 25.9908 23.4915C26.2252 23.257 26.5431 23.1253 26.8747 23.1253C27.2062 23.1253 27.5241 23.257 27.7586 23.4915C27.993 23.7259 28.1247 24.0438 28.1247 24.3753C28.1247 24.7069 27.993 25.0248 27.7586 25.2592C27.5241 25.4936 27.2062 25.6253 26.8747 25.6253ZM20.06 19.956C20.12 19.956 20.1687 19.91 20.1727 19.852V10.002H20.3127C20.2549 10.0008 20.1971 10.0001 20.1393 10C14.54 10 10 14.458 10 19.9567C10 24.73 13.42 28.7167 17.9847 29.6873V20.7533C17.9909 20.5442 18.0767 20.3454 18.2247 20.1976C18.3727 20.0497 18.5716 19.964 18.7807 19.958H20.06V19.956ZM18.1253 18.124C17.7938 18.124 17.4759 17.9923 17.2415 17.7579C17.007 17.5235 16.8753 17.2055 16.8753 16.874C16.8753 16.5425 17.007 16.2245 17.2415 15.9901C17.4759 15.7557 17.7938 15.624 18.1253 15.624C18.4569 15.624 18.7748 15.7557 19.0092 15.9901C19.2436 16.2245 19.3753 16.5425 19.3753 16.874C19.3753 17.2055 19.2436 17.5235 19.0092 17.7579C18.7748 17.9923 18.4569 18.124 18.1253 18.124Z" fill="white"/>
</g>
<defs>
<clipPath id="clip0_25_3009">
<rect width="40" height="40" fill="white"/>
</clipPath>
</defs>
</svg>
