<svg width="40" height="40" viewBox="0 0 40 40" fill="none" xmlns="http://www.w3.org/2000/svg">
<circle cx="20" cy="20" r="20" fill="#009640"/>
<path fill-rule="evenodd" clip-rule="evenodd" d="M5 20.088C5 21.2409 5.93383 22.1755 7.08577 22.1755C8.23771 22.1755 9.17138 21.2409 9.17138 20.088C9.17138 18.9348 8.23771 18 7.08577 18C5.93383 18 5 18.9348 5 20.088ZM6.99421 19.3537C6.99421 19.6277 6.77213 19.8498 6.49817 19.8498C6.22421 19.8498 6.00212 19.6277 6.00212 19.3537C6.00212 19.0798 6.22421 18.8577 6.49817 18.8577C6.77213 18.8577 6.99421 19.0798 6.99421 19.3537Z" fill="white"/>
<path d="M34.4076 19.4394C34.3548 18.9938 33.7236 18.8329 33.4381 19.1516C33.2763 19.3297 33.2743 19.6691 33.2743 19.9821V20.1575C33.2743 20.4851 33.2922 20.6861 33.3339 20.775H33.3335C33.3574 20.864 33.3936 20.9462 33.4482 21.0064C33.7259 21.3164 34.4162 21.2202 34.41 20.6861H35L34.9975 20.8513C34.9565 21.5317 34.3898 21.7998 33.82 21.7731C33.4952 21.7661 33.2001 21.6367 32.9687 21.4026C32.8033 21.2355 32.7155 21.0423 32.6742 20.775H32.6755C32.6354 20.5969 32.6515 20.3469 32.6515 20.0742V19.9419C32.6515 19.2876 32.7139 19.0233 32.9689 18.7657C33.2001 18.5314 33.4911 18.4148 33.816 18.4078C34.3859 18.3813 34.9505 18.644 34.9914 19.3243L34.9891 19.4394H34.4076ZM31.7423 21.4104C31.5083 21.6525 31.2013 21.771 30.8423 21.771C30.4761 21.771 30.1729 21.6402 29.9369 21.3991C29.6618 21.1178 29.6134 20.775 29.6038 20.3299H29.0927V21.7547H28.47V18.4595H29.0927V19.7953H29.6086C29.6267 19.261 29.6904 19.0297 29.9369 18.7717C30.1786 18.5206 30.4924 18.4001 30.8374 18.4001C31.1993 18.4001 31.5029 18.5214 31.7423 18.7643C31.9914 19.0162 32.0706 19.3373 32.0706 19.7932C32.0707 19.824 32.0706 20.0621 32.0706 20.0862C32.0706 20.6651 32.0747 21.0662 31.7423 21.4104ZM31.406 19.968C31.406 19.538 31.3794 19.3 31.2526 19.1567C31.1512 19.04 31.0042 18.9787 30.8358 18.9787C30.6672 18.9787 30.517 19.04 30.4159 19.1567C30.2864 19.3059 30.2494 19.5711 30.2494 19.9908V20.1972C30.2494 20.6815 30.2899 20.8766 30.4145 21.0172C30.5188 21.1328 30.6701 21.199 30.8344 21.199C30.999 21.199 31.1488 21.1328 31.2533 21.0172C31.3929 20.8621 31.406 20.6256 31.406 20.164V19.968ZM26.9574 18.9938H26.1915L26.1542 20.3926C26.1287 21.3266 25.7749 21.7547 25.1277 21.7547H24.8221V21.1315H24.9488C25.2493 21.1315 25.4809 20.9997 25.4983 20.3645L25.5493 18.4595H27.5803V21.7547H26.9574V18.9938ZM23.6656 18.9938H22.5089V21.7547H21.8862V18.4595H24.2883V21.7547H23.6656V18.9938ZM20.1957 20.4188H20.7295V22.289H20.1957V20.4188ZM19.2639 20.8008C19.2639 21.3828 18.8702 21.7547 18.2424 21.7547H16.8149V18.4595H18.1864C18.8144 18.4595 19.218 18.7983 19.218 19.3567C19.218 19.6748 19.0818 19.8924 18.804 20.0469C18.9364 20.1157 18.9878 20.1551 19.0571 20.2254C19.2031 20.3791 19.2639 20.5678 19.2639 20.8008ZM18.1353 18.9938H17.5267V19.7953H18.1353C18.4015 19.7953 18.5662 19.6329 18.5662 19.3946C18.5662 19.1565 18.4015 18.9938 18.1353 18.9938ZM18.1764 20.3299H17.5267V21.1315H18.1764C18.4437 21.1315 18.6131 20.9809 18.6131 20.7275C18.6131 20.4762 18.4437 20.3299 18.1764 20.3299ZM15.4803 21.7547H14.7685V18.9938H13.8788V18.4595H16.2811V18.9938H15.4803V21.7547ZM12.7223 20.3299H11.5656V21.7547H10.9429V18.4595H11.5656V19.7953H12.7223V18.4595H13.345V21.7547H12.7223V20.3299Z" fill="white"/>
</svg>
