<svg width="40" height="40" viewBox="0 0 40 40" fill="none" xmlns="http://www.w3.org/2000/svg">
<g clip-path="url(#clip0_25_3010)">
<mask id="mask0_25_3010" style="mask-type:alpha" maskUnits="userSpaceOnUse" x="0" y="0" width="40" height="40">
<path d="M20 40C31.046 40 40 31.046 40 20C40 8.954 31.046 0 20 0C8.954 0 0 8.954 0 20C0 31.046 8.954 40 20 40Z" fill="white"/>
</mask>
<g mask="url(#mask0_25_3010)">
<path d="M20 40C31.046 40 40 31.046 40 20C40 8.954 31.046 0 20 0C8.954 0 0 8.954 0 20C0 31.046 8.954 40 20 40Z" fill="#1179A9"/>
<path fill-rule="evenodd" clip-rule="evenodd" d="M26.8092 21.3514C26.7739 22.7447 26.5179 24.0814 25.8839 25.3267C25.0572 26.948 23.7906 28.0487 22.0279 28.5387C21.0192 28.8187 19.9926 28.86 18.9566 28.7187C17.8192 28.5627 16.7879 28.152 15.8919 27.4247C15.0446 26.7367 14.4366 25.868 14.0112 24.8654C13.6928 24.1075 13.4853 23.3077 13.3952 22.4907C13.317 21.7712 13.3125 21.0457 13.3819 20.3254C13.5326 18.648 13.9686 17.0467 14.6346 15.5054C15.1826 14.2374 15.8692 13.0527 16.7652 11.9987C17.2946 11.3754 17.8879 10.824 18.6039 10.4147C19.5592 9.86935 20.5112 9.85935 21.4719 10.3987C22.1206 10.762 22.6719 11.2434 23.1632 11.7954C24.3832 13.1654 25.2305 14.7527 25.8586 16.4674C26.2265 17.4581 26.4869 18.4856 26.6352 19.532C26.7186 20.1354 26.7526 20.7447 26.8092 21.3514Z" fill="white"/>
</g>
</g>
<defs>
<clipPath id="clip0_25_3010">
<rect width="40" height="40" fill="white"/>
</clipPath>
</defs>
</svg>
