<svg width="40" height="40" viewBox="0 0 40 40" fill="none" xmlns="http://www.w3.org/2000/svg">
<path fill-rule="evenodd" clip-rule="evenodd" d="M20 0C31.046 0 40 8.95467 40 19.9967V20.0033C40 31.0473 31.048 40 20 40C8.954 40 0 31.048 0 20C0 8.954 8.952 0 20 0Z" fill="#1C263F"/>
<path d="M14.1379 11.7197C15.7154 10.1478 17.2833 8.56791 18.8639 7C21.6535 9.77529 24.4097 12.5824 27.2009 15.3561C25.0886 17.474 22.9715 19.5863 20.8576 21.7018C19.9376 22.6067 19.0478 23.5427 18.1086 24.4269C16.7134 25.768 15.3691 27.1632 13.9899 28.5202C13.7686 28.7248 13.5871 28.9842 13.5426 29.2882C13.4288 29.8692 13.8068 30.4877 14.3751 30.6548C13.7694 30.5378 13.2282 30.0738 13.065 29.4721C12.9775 29.1784 13.0045 28.8696 13.0022 28.568C13.0022 24.2184 13.0022 19.8688 13.0022 15.5185C13.0053 14.865 12.9711 14.2021 13.1176 13.5598C13.2592 12.8594 13.6341 12.2203 14.1379 11.7197Z" fill="#7800FF"/>
<path d="M13.9898 28.5202C15.369 27.1632 16.7133 25.768 18.1085 24.4269C19.9916 26.3084 21.8739 28.1907 23.7562 30.073C23.9504 30.2704 24.1549 30.4582 24.3316 30.6723C21.1441 30.6875 17.9565 30.6723 14.7689 30.6803C14.6368 30.6787 14.5047 30.6795 14.375 30.6548C13.8067 30.4877 13.4286 29.8693 13.5425 29.2883C13.587 28.9842 13.7685 28.7248 13.9898 28.5202Z" fill="#FF4F13"/>
</svg>
