<svg width="40" height="40" viewBox="0 0 40 40" fill="none" xmlns="http://www.w3.org/2000/svg">
<g clip-path="url(#clip0_25_96)">
<path fill-rule="evenodd" clip-rule="evenodd" d="M20 0C31.046 0 40 8.95467 40 19.9967V20.0033C40 31.0473 31.048 40 20 40C8.954 40 0 31.048 0 20C0 8.954 8.952 0 20 0Z" fill="#282828"/>
<path fill-rule="evenodd" clip-rule="evenodd" d="M12.1887 17.102L10.6901 17.3007V24.4714H12.1887V17.102ZM13.8821 19.812L12.4654 19.9274V21.6127L13.8827 21.53V19.812H13.8821ZM10.1687 17.3827L6.29272 17.928V19.3987L10.1687 18.952V17.3827ZM17.2214 24.4714H19.6801V22.6047L17.2214 22.67V24.4714ZM16.8947 16.4247L15.2014 16.6727V24.4714H16.8947V16.4247ZM12.4654 24.4714H14.6321V22.7534L12.4654 22.82V24.472V24.4714ZM12.4654 18.7047L14.6321 18.4574V16.7547L12.4654 17.052V18.7054V18.7047ZM8.94739 24.4714V19.3334L7.53072 19.482V24.472H8.94739V24.4714ZM32.6774 24.4714L32.6934 22.1914L26.0161 22.406V24.4714H32.6774ZM28.1661 18.5067C28.0681 17.1847 28.4754 16.8547 28.8827 16.6887V14.4754C26.9441 14.8887 26.0001 16.342 26.0974 18.6887L28.1661 18.5067ZM30.1367 17.036C30.3647 17.5154 30.1367 18.226 29.5661 18.9027C28.7194 19.9274 26.4234 22.0427 26.4234 22.0427L29.7127 21.9267C31.7167 19.944 32.4327 18.738 32.5634 17.218C32.6028 16.8317 32.5527 16.4414 32.4171 16.0775C32.2815 15.7136 32.064 15.3857 31.7814 15.1194C31.1627 14.524 30.2507 14.2767 29.2734 14.4254V16.59C29.6647 16.5734 29.9901 16.722 30.1367 17.0367V17.036ZM25.3807 15.2187L22.5307 15.6147V17.5814L25.3807 17.268V15.2187ZM22.1561 15.6647L20.2014 15.9454V24.472H22.1561V15.664V15.6647ZM24.4034 18.8867L22.5307 19.052V21.0514L24.4041 20.9514V18.8867H24.4034ZM25.3807 22.4227L22.5307 22.5054V24.472H25.3807V22.4227Z" fill="white"/>
</g>
<defs>
<clipPath id="clip0_25_96">
<rect width="40" height="40" fill="white"/>
</clipPath>
</defs>
</svg>
