<svg width="40" height="40" viewBox="0 0 40 40" fill="none" xmlns="http://www.w3.org/2000/svg">
<g clip-path="url(#clip0_25_4139)">
<path fill-rule="evenodd" clip-rule="evenodd" d="M20 0C31.046 0 40 8.95467 40 19.9967V20.0033C40 31.0473 31.048 40 20 40C8.954 40 0 31.048 0 20C0 8.954 8.952 0 20 0Z" fill="#00BDF2"/>
<path fill-rule="evenodd" clip-rule="evenodd" d="M26.6714 10.846V9.43795C26.6714 8.55395 25.9721 7.83795 25.1101 7.83795C24.2454 7.83795 23.5474 8.55395 23.5474 9.43795V10.846C23.5474 11.9846 23.1074 12.998 22.4007 13.738C21.6914 14.476 20.7361 14.9213 19.6687 14.9213C18.6007 14.9213 17.6467 14.476 16.9361 13.738C16.1949 12.9582 15.7845 11.9217 15.7907 10.846V9.43795C15.7907 8.55395 15.0914 7.83795 14.2294 7.83795C13.3667 7.83795 12.6667 8.55395 12.6667 9.43795V10.846C12.6667 12.8413 13.4454 14.6666 14.7081 15.9826C15.6285 16.9494 16.8088 17.6296 18.1067 17.9413V21.3113C16.8085 21.623 15.6281 22.3037 14.7081 23.2713C13.4454 24.5866 12.6661 26.4113 12.6667 28.4073V29.8153C12.6667 30.6986 13.3667 31.4153 14.2294 31.4153C15.0914 31.4153 15.7907 30.6986 15.7907 29.8153V28.4073C15.7907 27.2686 16.2301 26.254 16.9361 25.5153C17.6467 24.7766 18.6007 24.332 19.6694 24.3306C20.7361 24.332 21.6914 24.7773 22.4007 25.5153C23.1424 26.2948 23.5534 27.3313 23.5474 28.4073V29.8153C23.5474 30.6986 24.2454 31.4153 25.1101 31.4153C25.9721 31.4153 26.6714 30.6986 26.6714 29.8153V28.4073C26.6721 26.4113 25.8927 24.5873 24.6301 23.2713C23.71 22.3037 22.5297 21.623 21.2314 21.3113V17.9413C22.5294 17.6296 23.7096 16.9494 24.6301 15.9826C25.8927 14.6666 26.6721 12.8413 26.6714 10.846Z" fill="white"/>
<path fill-rule="evenodd" clip-rule="evenodd" d="M19.6688 31.078C21.1628 31.078 22.3742 29.838 22.3742 28.3067C22.3742 26.7747 21.1628 25.5333 19.6688 25.5333C18.1755 25.5333 16.9648 26.7747 16.9648 28.3067C16.9648 29.838 18.1755 31.078 19.6688 31.078Z" fill="white"/>
</g>
<defs>
<clipPath id="clip0_25_4139">
<rect width="40" height="40" fill="white"/>
</clipPath>
</defs>
</svg>
