<svg width="40" height="40" viewBox="0 0 40 40" fill="none" xmlns="http://www.w3.org/2000/svg">
<g clip-path="url(#clip0_25_3654)">
<path d="M19.802 39.6033C30.738 39.6033 39.6033 30.738 39.6033 19.802C39.6033 8.86533 30.738 0 19.802 0C8.86533 0 0 8.86533 0 19.802C0 30.738 8.86533 39.6033 19.802 39.6033Z" fill="#4775A9"/>
<path d="M4.92689 19.678C6.12689 19.6647 7.32822 19.6667 8.52889 19.6747C8.74489 19.676 8.82289 19.6213 8.81955 19.3913C8.80622 18.5613 8.81422 17.7307 8.81489 16.9007C8.81489 16.0513 8.81289 15.202 8.81622 14.3527C8.81689 14.166 8.77822 14.1127 8.59222 14.2153C8.43422 14.3033 8.31889 14.44 8.16822 14.53C7.34822 15.0213 6.61222 15.616 6.00822 16.358C5.29155 17.2407 4.75222 18.21 4.67022 19.384C4.65489 19.5953 4.68689 19.6807 4.92689 19.6773V19.678ZM8.84355 22.9587H8.82555C8.82555 22.13 8.81889 21.2513 8.83022 20.4033C8.83289 20.1893 8.78689 20.096 8.55355 20.1073C8.15155 20.126 7.74822 20.1087 7.34555 20.1087C6.53022 20.1087 5.71489 20.1053 4.89955 20.11C4.81289 20.11 4.66622 20.046 4.66822 20.2213C4.67089 20.4547 4.65555 20.6973 4.71089 20.9207C4.98222 22.026 5.53289 22.994 6.30355 23.8127C6.97155 24.5227 7.74689 25.1153 8.59555 25.6067C8.82755 25.7413 8.84889 25.684 8.84622 25.4627C8.83955 24.6247 8.84355 23.7873 8.84355 22.9587ZM11.8856 19.7373C12.0269 19.74 12.0849 19.6747 12.0596 19.548C12.0256 19.374 11.9776 19.2013 11.9356 19.028L11.8776 19.0147C11.8309 19.194 11.7796 19.3727 11.7389 19.5533C11.7149 19.6613 11.7502 19.7333 11.8856 19.7373ZM11.6202 20.2493C11.6096 20.4513 11.6962 20.4167 11.7556 20.428C11.8009 20.436 11.8476 20.4293 11.9089 20.4293C11.9822 20.366 12.1502 20.554 12.1542 20.3053C12.1596 19.974 11.9849 20.1653 11.8909 20.1173C11.8476 20.0953 11.7996 20.1107 11.7536 20.1153C11.6996 20.12 11.6282 20.106 11.6202 20.2487" fill="#FAFBFC"/>
<path d="M16.4925 14.6734H16.4952C16.4952 15.5934 16.5065 16.5087 16.4885 17.4234C16.4832 17.7047 16.5738 17.7814 16.8385 17.7647C17.1652 17.7441 17.4952 17.7554 17.8232 17.7714C18.3312 17.7961 18.6612 18.0727 18.7918 18.5607C18.8712 18.8561 18.9085 19.1561 18.8232 19.4547C18.7745 19.6247 18.8285 19.6814 18.9932 19.6667C19.0485 19.6614 19.1052 19.6667 19.1618 19.6667C19.6658 19.6667 19.6752 19.6667 19.6605 19.1587C19.6538 18.9494 19.7838 18.6654 19.4218 18.5914C19.3558 18.578 19.3692 18.4787 19.3685 18.4141C19.3678 18.2627 19.3745 18.1114 19.3672 17.9607C19.3598 17.8161 19.4158 17.7554 19.5625 17.7607C19.7872 17.7674 20.0152 17.7827 20.2372 17.7567C20.5238 17.7234 20.6772 17.8274 20.7865 18.1C20.9852 18.5974 21.2198 19.0807 21.4465 19.5667C21.4832 19.6467 21.5258 19.7561 21.6452 19.7301C21.7712 19.7021 21.7825 19.5934 21.7812 19.4847C21.7798 19.3714 21.7865 19.258 21.7798 19.1447C21.7665 18.9267 21.8698 18.6501 21.5152 18.5894C21.4918 18.5861 21.4725 18.5327 21.4652 18.4894C21.3585 17.8627 21.4252 17.8027 22.0512 17.8027H22.1358C22.8005 17.8027 22.7998 17.7834 22.7358 18.4581C22.7278 18.5361 22.7292 18.6134 22.6332 18.6227C22.4218 18.6434 22.4132 18.7827 22.4158 18.9434C22.4185 19.1321 22.4158 19.3181 22.4158 19.5067C22.4158 19.6687 22.4878 19.7447 22.6558 19.7401C23.5898 19.7134 23.4432 19.9154 23.4525 18.9427C23.4545 18.886 23.4487 18.8292 23.4352 18.7741C23.4238 18.732 23.3932 18.6627 23.3672 18.6607C22.9965 18.6387 23.0878 18.3641 23.0858 18.1454C23.0818 17.7674 23.0858 17.7527 23.4612 17.7687C23.6985 17.7787 23.7612 17.6974 23.7592 17.4647C23.7485 16.2567 23.7532 15.0494 23.7525 13.8414C23.7525 13.1907 23.7478 12.54 23.7545 11.8887C23.7565 11.726 23.7165 11.6554 23.5398 11.6454C23.2318 11.6267 22.9265 11.5674 22.6185 11.542C20.6598 11.3794 18.7032 11.3794 16.7472 11.5907C16.5352 11.6134 16.4858 11.6754 16.4885 11.8767C16.4978 12.81 16.4925 13.7527 16.4925 14.6734Z" fill="#FAFBFC"/>
<path d="M21.6951 29.6328C21.5018 29.6194 21.3204 29.3974 21.3344 29.1934C21.3524 28.9321 21.5131 28.7654 21.7364 28.7754C21.9351 28.7841 22.1038 29.0001 22.0964 29.2354C22.0891 29.4454 21.8864 29.6461 21.6951 29.6328ZM20.7331 29.6394C20.5298 29.6461 20.3518 29.4608 20.3484 29.2381C20.3444 28.9628 20.4998 28.7708 20.7251 28.7721C20.9418 28.7734 21.0904 28.9501 21.0984 29.2148C21.1044 29.4354 20.9358 29.6314 20.7331 29.6388V29.6394ZM19.7171 29.6388C19.5151 29.6361 19.3404 29.4421 19.3438 29.2221C19.3464 28.9754 19.5098 28.7774 19.7138 28.7728C19.9378 28.7674 20.0991 28.9594 20.0991 29.2328C20.0998 29.4514 19.9211 29.6414 19.7171 29.6394V29.6388ZM18.7391 29.6101C18.4991 29.6081 18.3791 29.4608 18.3498 29.2448C18.3198 29.0161 18.5231 28.7648 18.7191 28.7548C18.9298 28.7441 19.1144 28.9534 19.1191 29.2094C19.121 29.2608 19.1126 29.3121 19.0944 29.3602C19.0762 29.4083 19.0486 29.4523 19.0132 29.4896C18.9779 29.5269 18.9354 29.5568 18.8883 29.5775C18.8412 29.5982 18.7905 29.6093 18.7391 29.6101ZM34.9744 20.0921C33.9611 20.1094 32.9478 20.1081 31.9344 20.0954C31.6918 20.0921 31.6411 20.1721 31.6424 20.4001C31.6498 21.9668 31.6424 23.5334 31.6438 25.1001C31.6438 25.2728 31.6338 25.4681 31.4331 25.4561C31.2958 25.4481 31.3704 25.2508 31.3704 25.1421C31.3638 23.5474 31.3651 21.9521 31.3638 20.3568C31.3638 20.2248 31.3904 20.0954 31.1771 20.0974C30.2391 20.1061 29.3004 20.1041 28.3618 20.1001C28.2318 20.1001 28.1744 20.1388 28.1764 20.2768C28.1831 20.6068 28.1791 20.9368 28.1784 21.2674C28.1784 21.4154 28.2144 21.5321 28.3924 21.5348C28.5158 21.5368 28.5491 21.6081 28.5458 21.7208C28.5404 21.8528 28.5358 21.9854 28.5464 22.1168C28.5611 22.2834 28.4878 22.3268 28.3331 22.3234C27.9771 22.3154 27.6198 22.3208 27.2638 22.3208C26.7791 22.3208 26.7804 22.3214 26.7838 21.8201C26.7838 21.6748 26.7651 21.5314 26.9798 21.5261C27.1351 21.5214 27.1438 21.3954 27.1444 21.2781C27.1464 20.9668 27.1364 20.6548 27.1491 20.3441C27.1558 20.1614 27.0998 20.0954 26.9111 20.0994C26.4044 20.1114 25.8978 20.1081 25.3911 20.1028C25.2424 20.1014 25.1558 20.1348 25.1711 20.3048C25.1844 20.4481 25.0924 20.4674 24.9744 20.4748C24.4944 20.5048 24.4944 20.5081 24.4944 20.9808C24.4944 21.0374 24.4864 21.0954 24.4958 21.1501C24.5144 21.2634 24.4191 21.4488 24.6431 21.4434C24.8458 21.4388 25.1498 21.5374 25.1898 21.2481C25.2364 20.8961 25.4324 20.9188 25.6751 20.9188C25.8438 20.9188 25.9084 20.9714 25.9024 21.1461C25.8911 21.4574 25.8904 21.7694 25.9024 22.0801C25.9091 22.2614 25.8578 22.3294 25.6678 22.3241C25.2364 22.3108 24.8038 22.3361 24.3731 22.3154C24.1158 22.3028 24.0071 22.3794 24.0384 22.6434C24.0518 22.7554 24.0538 22.8861 23.8804 22.8781C23.7124 22.8701 23.7524 22.7334 23.7624 22.6441C23.7904 22.3821 23.6884 22.2868 23.4291 22.3174C23.3258 22.3301 23.1591 22.3801 23.1178 22.2694C23.0418 22.0681 23.0831 21.8414 23.0958 21.6268C23.1038 21.4901 23.2344 21.5314 23.3184 21.5121C23.4238 21.4874 23.4404 21.4054 23.4424 21.3168C23.4458 21.1754 23.4458 21.0341 23.4458 20.8921C23.4458 20.0894 23.4458 20.0974 22.6564 20.1021C22.4471 20.1034 22.4078 20.1821 22.4118 20.3681C22.4218 20.8394 22.4144 21.3114 22.4138 21.7834C22.4138 22.3234 22.4118 22.2988 21.8871 22.3328C21.5471 22.3548 21.3864 22.2281 21.2638 21.9234C21.0471 21.3821 20.7904 20.8568 20.5458 20.3261C20.5098 20.2481 20.5031 20.1034 20.3844 20.1334C20.2711 20.1621 20.3291 20.2961 20.3258 20.3828C20.3151 20.6274 20.3031 20.8734 20.3151 21.1174C20.3238 21.2888 20.2604 21.5194 20.5584 21.5348C20.6218 21.5381 20.6224 21.6188 20.6231 21.6748C20.6244 21.8348 20.6198 21.9961 20.6244 22.1561C20.6284 22.2761 20.5798 22.3268 20.4591 22.3254C20.1498 22.3221 19.8398 22.3254 19.5304 22.3254C19.4731 22.3254 19.3918 22.3234 19.3871 22.2634C19.3745 22.0566 19.3703 21.8493 19.3744 21.6421C19.3758 21.5048 19.5004 21.5314 19.5804 21.4968C19.6764 21.4554 19.6724 21.3568 19.6738 21.2768C19.6811 20.9468 19.6778 20.6168 19.6804 20.2861C19.6804 20.1761 19.6498 20.1068 19.5211 20.1088C19.2024 20.1128 18.8831 20.1101 18.5638 20.1101C18.4824 20.1101 18.3978 20.1174 18.4478 20.2334C18.6078 20.6048 18.7058 21.0308 18.9551 21.3268C19.1778 21.5908 19.1678 21.8361 19.1798 22.1181C19.1864 22.2814 19.1198 22.3314 18.9651 22.3281C18.5998 22.3214 18.2324 22.3108 17.8678 22.3328C17.6191 22.3474 17.5204 22.2728 17.5598 22.0201C17.5918 21.8194 17.4858 21.5961 17.7051 21.4268C17.7978 21.3554 17.5651 20.6221 17.4424 20.5754C17.3558 20.5428 17.1911 20.5034 17.1991 20.6494C17.2151 20.9461 17.0931 21.2461 17.3058 21.5461C17.4391 21.7348 17.3924 22.0354 17.3204 22.2594C17.2751 22.4034 17.0511 22.3194 16.9071 22.3248C16.5004 22.3414 16.4924 22.2401 16.4918 22.7321C16.4918 22.8101 16.5471 22.9481 16.3851 22.9334C16.2791 22.9241 16.1851 22.8734 16.1911 22.7361C16.195 22.6605 16.1934 22.5848 16.1864 22.5094C16.1784 22.4361 16.1718 22.3381 16.0798 22.3361C15.9238 22.3321 15.8038 22.2921 15.8544 22.1141C15.9131 21.9094 15.6644 21.6094 16.0391 21.5021C16.1411 21.4728 16.1471 21.3808 16.1498 21.2954C16.1551 21.1261 16.1564 20.9554 16.1564 20.7861C16.1564 20.0901 16.1564 20.0948 15.4564 20.1068C15.2944 20.1094 15.2171 20.1441 15.2231 20.3254C15.2331 20.6841 15.2258 21.0428 15.2264 21.4014C15.2264 21.4768 15.2131 21.5848 15.2838 21.6081C15.5824 21.7101 15.4618 21.9548 15.4838 22.1501C15.4998 22.2868 15.4331 22.3321 15.3024 22.3288C15.0491 22.3234 14.7958 22.3274 14.5424 22.3274C14.0738 22.3274 14.0738 22.3274 14.1111 21.8574C14.1178 21.7808 14.1158 21.7054 14.2018 21.6688C14.3298 21.6134 14.3364 21.5021 14.3351 21.3841C14.3338 21.2141 14.3351 21.0441 14.3351 20.8741C14.3351 20.0634 14.3351 20.0694 13.5218 20.1054C13.3411 20.1134 13.3191 20.1848 13.3531 20.3321C13.4098 20.5801 13.4611 20.8294 13.5151 21.0781C13.5538 21.2588 13.5531 21.4608 13.7878 21.5261C13.8664 21.5481 13.8504 21.6328 13.8518 21.6974C13.8538 21.8388 13.8444 21.9808 13.8544 22.1214C13.8664 22.2868 13.7938 22.3341 13.6398 22.3301C13.3111 22.3221 12.9824 22.3274 12.6538 22.3274C12.1684 22.3274 12.1644 22.3274 12.1744 21.8274C12.1764 21.7188 12.1044 21.5634 12.2811 21.5194C12.3958 21.4908 12.4444 21.4368 12.4198 21.3208C12.3931 21.1941 12.2951 21.1994 12.1998 21.1994C11.9931 21.1994 11.7864 21.1974 11.5798 21.2008C11.4998 21.2014 11.4051 21.1741 11.3598 21.2774C11.3131 21.3808 11.3491 21.4488 11.4371 21.5174C11.5151 21.5788 11.5531 22.1994 11.4971 22.2748C11.4504 22.3374 11.3804 22.3261 11.3164 22.3261C11.1004 22.3281 10.8844 22.3301 10.6691 22.3261C10.1024 22.3174 10.1851 22.4108 10.1844 21.8314C10.1844 21.7234 10.1091 21.5608 10.2824 21.5188C10.4571 21.4768 10.4918 21.3421 10.5278 21.2081C10.6084 20.9081 10.6704 20.6021 10.7544 20.3028C10.7978 20.1481 10.7611 20.1028 10.6038 20.1061C10.1818 20.1134 9.7591 20.1128 9.3371 20.1054C9.18576 20.1028 9.1191 20.1428 9.1191 20.3101C9.11843 22.1121 9.1111 23.9148 9.10576 25.7168C9.1051 25.8028 9.0991 25.8914 9.19643 25.9348C9.50376 26.0708 9.77643 26.2748 10.0784 26.4161C11.3778 27.0261 12.7518 27.4248 14.1318 27.7908C14.7051 27.9428 15.2904 28.0621 15.8818 28.1434C16.1884 28.1854 16.2138 28.0468 16.2098 27.7968C16.1911 26.4474 16.1898 25.0981 16.1731 23.7501C16.1704 23.5628 16.2631 23.4674 16.4118 23.4734C16.5638 23.4801 16.4904 23.6374 16.4904 23.7228C16.4918 25.1094 16.4904 26.4974 16.4778 27.8841C16.4758 28.1128 16.5071 28.2454 16.7751 28.2154C16.9764 28.1928 17.0951 28.2894 17.1611 28.4981C17.3384 29.0541 17.5464 29.5994 17.7304 30.1534C17.8724 30.5774 17.9458 30.6421 18.3898 30.6434C19.2624 30.6448 20.1351 30.6434 21.0078 30.6434H22.4998C22.7718 30.6434 22.9304 30.5401 22.9638 30.2361C23.0271 29.6561 23.1304 29.0794 23.2024 28.5001C23.2284 28.2901 23.3084 28.1634 23.5264 28.1694C23.7471 28.1754 23.7664 28.0574 23.7644 27.8674C23.7563 26.8386 23.7526 25.8097 23.7531 24.7808V23.0241C23.9364 23.2188 24.0398 23.3821 24.0378 23.6108C24.0264 25.0074 24.0311 26.4041 24.0298 27.8008C24.0298 28.0994 24.0898 28.1534 24.3791 28.0821C25.1271 27.8994 25.8858 27.7721 26.6284 27.5474C27.7791 27.1994 28.9218 26.8408 30.0098 26.3254C30.0738 26.2954 30.1098 26.2961 30.1804 26.3141C31.0338 26.5321 31.8871 26.7521 32.7464 26.9421C33.1684 27.0354 33.3978 26.8121 33.3991 26.3694C33.4011 25.6708 33.3991 24.9728 33.4004 24.2741C33.4004 24.1621 33.3778 24.0408 33.4784 23.9568C33.6391 23.8234 33.7364 23.6368 33.8718 23.4828C34.6484 22.6048 35.1118 21.5894 35.2384 20.4161C35.2651 20.1748 35.2498 20.0868 34.9744 20.0921ZM14.6731 17.7114C14.9418 17.7114 15.1598 17.9301 15.1598 18.2001C15.1599 18.2642 15.1475 18.3277 15.1231 18.387C15.0988 18.4462 15.063 18.5001 15.0178 18.5456C14.9726 18.591 14.9189 18.6271 14.8597 18.6518C14.8006 18.6765 14.7372 18.6893 14.6731 18.6894C14.609 18.6893 14.5456 18.6765 14.4864 18.6518C14.4273 18.6271 14.3736 18.591 14.3284 18.5456C14.2832 18.5001 14.2474 18.4462 14.2231 18.387C14.1987 18.3277 14.1863 18.2642 14.1864 18.2001C14.1864 17.9301 14.4044 17.7114 14.6731 17.7114ZM9.12043 16.5848C9.12043 17.5281 9.1271 18.4721 9.11776 19.4161C9.11576 19.6614 9.1991 19.7588 9.44576 19.7408C9.66043 19.7248 9.8771 19.7394 10.0924 19.7368C11.0004 19.7234 10.8438 19.8688 11.0678 18.9634C11.1058 18.8081 11.1758 18.6408 10.9118 18.6101C10.8211 18.6001 10.8231 18.5021 10.8231 18.4254C10.8231 18.2741 10.8311 18.1228 10.8218 17.9721C10.8111 17.8101 10.8791 17.7588 11.0351 17.7614C11.5611 17.7681 12.0864 17.7708 12.6118 17.7588C12.7851 17.7548 12.8384 17.8328 12.8664 17.9821C12.9298 18.3154 12.9958 18.6474 13.0711 18.9781C13.2764 19.8781 13.0971 19.7188 14.0424 19.7354C14.1271 19.7368 14.2251 19.7488 14.2604 19.6514C14.3038 19.5328 14.1771 19.5634 14.1291 19.5228C14.1098 19.508 14.095 19.4881 14.0864 19.4654C13.9598 19.1154 14.1078 18.9081 14.4711 18.9081H14.6404C15.2071 18.9081 15.2138 18.8981 15.2224 19.4681C15.2251 19.6701 15.2891 19.7481 15.5018 19.7434C16.2271 19.7281 16.1578 19.8261 16.1544 19.0988C16.1531 18.8948 16.2291 18.6408 15.9011 18.5941C15.8811 18.5914 15.8551 18.5328 15.8544 18.5008C15.8498 18.2928 15.8511 18.0848 15.8518 17.8774C15.8518 17.7974 15.8964 17.7488 15.9731 17.7534C16.1931 17.7668 16.1764 17.6061 16.1764 17.4601C16.1751 16.5354 16.1758 15.5934 16.1758 14.6734H16.1784C16.1784 13.7528 16.1758 12.8168 16.1811 11.8828C16.1824 11.6961 16.1438 11.6534 15.9391 11.6841C15.6044 11.7348 15.2858 11.8454 14.9564 11.9088C13.4178 12.2014 11.8944 12.5468 10.4831 13.2668C10.1231 13.4501 9.75643 13.6214 9.38576 13.7794C9.1851 13.8641 9.11043 13.9794 9.11443 14.2061C9.13043 14.9988 9.1211 15.7921 9.1211 16.5848H9.12043ZM17.2678 19.5888C17.3276 19.6042 17.3908 19.6013 17.449 19.5805C17.5072 19.5597 17.5579 19.522 17.5944 19.4721C17.6798 19.3621 17.6858 19.2274 17.6964 19.0741C17.6911 19.0388 17.6898 18.9808 17.6724 18.9274C17.6118 18.7408 17.4511 18.6954 17.2891 18.7094C17.1124 18.7254 17.1998 18.8854 17.1891 18.9828C17.1771 19.1049 17.1766 19.2279 17.1878 19.3501C17.1944 19.4348 17.1331 19.5581 17.2678 19.5888ZM33.5678 16.0068C33.5064 15.9515 33.4583 15.8831 33.4269 15.8067C33.3955 15.7303 33.3817 15.6479 33.3864 15.5654C33.3958 14.8201 33.3931 14.0748 33.3891 13.3288C33.3871 12.9888 33.2511 12.8534 32.9124 12.8394C32.7815 12.8334 32.6504 12.8475 32.5238 12.8814C31.7844 13.0794 31.0798 13.3881 30.3291 13.5514C30.1724 13.5848 30.0438 13.5794 29.8978 13.5261C29.4591 13.3661 29.0971 13.0628 28.6551 12.8988C27.2391 12.3728 25.7691 12.0601 24.3018 11.7368C24.1191 11.6968 24.0451 11.7274 24.0458 11.9321C24.0498 13.8008 24.0484 15.6694 24.0431 17.5381C24.0431 17.7081 24.0944 17.7714 24.2684 17.7674C24.7091 17.7574 25.1511 17.7768 25.5911 17.7601C25.8111 17.7514 25.8651 17.8308 25.8531 18.0354C25.8364 18.3181 25.8511 18.6021 25.8451 18.8848C25.8431 18.9961 25.8918 19.1714 25.6911 19.1381C25.5178 19.1094 25.2551 19.2954 25.1871 18.9581C25.1684 18.8688 25.1624 18.7748 25.0571 18.7241C24.7391 18.5701 24.4971 18.7134 24.4958 19.0628C24.4958 19.1661 24.4958 19.2701 24.4971 19.3741C24.4978 19.4301 24.4958 19.5154 24.5564 19.5168C24.8524 19.5254 25.1211 19.6608 25.3931 19.7128C25.8918 19.8081 26.4204 19.7374 26.9364 19.7441C27.0831 19.7461 27.1431 19.6828 27.1438 19.5454C27.1451 19.3188 27.1398 19.0921 27.1458 18.8661C27.1491 18.7341 27.0984 18.7148 26.9758 18.7294C26.7591 18.7554 26.7438 18.9008 26.7318 19.0701C26.7104 19.3748 26.4731 19.2668 26.3044 19.2854C26.1211 19.3054 26.1171 19.1841 26.1178 19.0508C26.1204 18.6921 26.1244 18.3334 26.1151 17.9748C26.1111 17.8148 26.1691 17.7621 26.3271 17.7634C27.2184 17.7694 28.1098 17.7701 29.0018 17.7661C29.1438 17.7661 29.2038 17.8114 29.2018 17.9608C29.1944 18.3381 29.1991 18.7161 29.1971 19.0934C29.1971 19.1661 29.2038 19.2401 29.1071 19.2768C28.8471 19.3748 28.6378 19.2601 28.5871 18.9808C28.5784 18.9341 28.5738 18.8868 28.5611 18.8408C28.5278 18.7188 28.4344 18.6914 28.3211 18.6921C28.1771 18.6934 28.1898 18.7968 28.1891 18.8908C28.1878 19.0794 28.1978 19.2688 28.1858 19.4574C28.1724 19.6741 28.2471 19.7521 28.4751 19.7488C29.3291 19.7368 30.1831 19.7334 31.0371 19.7521C31.3024 19.7581 31.3704 19.6748 31.3691 19.4188C31.3584 17.8141 31.3611 16.2101 31.3624 14.6054C31.3624 14.5054 31.3358 14.4008 31.3904 14.2988C31.6344 14.3448 31.6531 14.5174 31.6524 14.7201C31.6478 16.2768 31.6504 17.8341 31.6444 19.3914C31.6438 19.5754 31.6564 19.6881 31.8931 19.6861C32.9344 19.6774 33.9764 19.6828 35.0178 19.6928C35.2224 19.6941 35.2644 19.6301 35.2438 19.4281C35.1058 18.0768 34.5258 16.9474 33.5678 16.0068Z" fill="#FAFBFC"/>
</g>
<defs>
<clipPath id="clip0_25_3654">
<rect width="40" height="40" fill="white"/>
</clipPath>
</defs>
</svg>
