<svg width="40" height="41" viewBox="0 0 40 41" fill="none" xmlns="http://www.w3.org/2000/svg">
<g clip-path="url(#clip0_25_679)">
<path d="M20.0002 40.3C30.9354 40.3 39.8002 31.4352 39.8002 20.5C39.8002 9.56477 30.9354 0.700012 20.0002 0.700012C9.06496 0.700012 0.200195 9.56477 0.200195 20.5C0.200195 31.4352 9.06496 40.3 20.0002 40.3Z" fill="#EE6200"/>
<path d="M16.1332 21.1667H5.13317C4.46651 21.1667 4.06651 20.5 4.26651 19.9L7.39984 12.1667C7.66651 11.5667 8.39984 11.4333 8.86651 11.8333L16.7332 19.5667C17.3332 20.1667 16.9332 21.1667 16.1332 21.1667ZM17.7332 18.6333L9.93317 10.9C9.46651 10.4333 9.59984 9.69999 10.1998 9.43332L17.8665 6.16665C18.4665 5.89999 19.1332 6.36665 19.1332 6.96665L19.1998 17.9667C19.2665 18.8333 18.2665 19.2333 17.7332 18.6333ZM23.5998 21.1667H34.8665C35.5332 21.1667 35.9998 20.5 35.7332 19.9L32.5332 12.1667C32.2665 11.5667 31.4665 11.4333 30.9998 11.8333L22.9332 19.6333C22.3332 20.1667 22.7332 21.1667 23.5998 21.1667ZM21.9332 18.6333L29.9332 10.8333C30.3998 10.3667 30.2665 9.63332 29.6665 9.36665L21.7332 6.16665C21.1332 5.89999 20.4665 6.36665 20.4665 6.96665L20.3998 17.9667C20.3332 18.8333 21.3332 19.2333 21.9332 18.6333Z" fill="white"/>
</g>
<defs>
<clipPath id="clip0_25_679">
<rect width="40" height="40" fill="white" transform="translate(0 0.5)"/>
</clipPath>
</defs>
</svg>
