<svg width="40" height="40" viewBox="0 0 40 40" fill="none" xmlns="http://www.w3.org/2000/svg">
<circle cx="20" cy="20" r="20" fill="#F28A1E"/>
<path fill-rule="evenodd" clip-rule="evenodd" d="M23.2613 16.0089H25.1874V23.1663C25.1874 23.5821 24.9466 23.9542 24.5964 24.1074C24.487 24.1512 24.3557 24.195 24.2243 24.195C23.9617 24.195 23.7209 24.0855 23.5458 23.8886L17.0889 19.0076V24.195H15.1628V17.0158C15.1628 16.5999 15.4036 16.2278 15.7538 16.0746C16.1259 15.9214 16.5417 16.0089 16.8044 16.2935L23.2613 21.1745V16.0089ZM35.2777 19.8393C35.0588 19.5985 34.7962 19.4234 34.5116 19.2921C34.2052 19.1608 33.8988 19.0951 33.5705 19.0951H28.4049C28.1204 19.0951 27.9015 18.8544 27.9015 18.5698C27.9015 18.2853 28.1204 18.0445 28.4049 18.0445H34.5335C35.0588 18.0445 35.4966 17.5849 35.4966 17.0377C35.4966 16.4686 35.0588 16.0308 34.5335 16.0308H28.4049C28.0766 16.0308 27.7483 16.0965 27.4637 16.2278C27.1792 16.3591 26.9166 16.5342 26.6977 16.775C26.4788 17.0158 26.3037 17.2784 26.1724 17.5849C26.041 17.8913 25.9754 18.2415 25.9754 18.5698C25.9754 18.92 26.041 19.2483 26.1724 19.5548C26.3037 19.8612 26.4788 20.1238 26.6977 20.3646C26.9166 20.6054 27.1792 20.7805 27.4637 20.9118C27.7702 21.0431 28.0766 21.1088 28.4049 21.1088H33.5705C33.855 21.1088 34.0739 21.3496 34.0739 21.6341C34.0739 21.9187 33.855 22.1594 33.5705 22.1594H26.9384C26.4131 22.1594 25.9754 22.6191 25.9754 23.1663C25.9754 23.7353 26.4131 24.1731 26.9384 24.1731H33.5705C33.8988 24.1731 34.2271 24.1074 34.5116 23.9761C34.7962 23.8448 35.0588 23.6697 35.2777 23.4289C35.4966 23.1881 35.6717 22.9255 35.803 22.6191C35.9343 22.3126 36 21.9624 36 21.6341C36 21.3058 35.9343 20.9556 35.803 20.6492C35.6717 20.3427 35.4966 20.0582 35.2777 19.8393ZM14.0465 20.102C14.0465 22.3564 12.2955 24.195 10.1505 24.195H5.59781H4.7223H4V20.102V16.0089H10.1286C12.2955 16.0089 14.0465 17.8475 14.0465 20.102ZM12.186 20.2771C12.186 19.7299 12.0547 18.9419 11.6826 18.5479C11.3105 18.1539 10.7196 17.8037 10.1724 17.8037H5.86047V20.2771V22.3126H10.1724C10.7196 22.3126 11.223 22.0938 11.5951 21.7217C11.9672 21.3496 12.186 20.8243 12.186 20.2771Z" fill="white"/>
</svg>
