<svg width="40" height="40" viewBox="0 0 40 40" fill="none" xmlns="http://www.w3.org/2000/svg">
<g clip-path="url(#clip0_25_3453)">
<path d="M20 40C31.0457 40 40 31.0457 40 20C40 8.9543 31.0457 0 20 0C8.9543 0 0 8.9543 0 20C0 31.0457 8.9543 40 20 40Z" fill="#FD6702"/>
<path d="M33.216 11.514H29.5575C29.4834 11.5129 29.4119 11.5413 29.3587 11.5928C29.3054 11.6444 29.2748 11.7149 29.2735 11.789V28.2925C29.2748 28.3666 29.3054 28.4371 29.3587 28.4887C29.4119 28.5402 29.4834 28.5686 29.5575 28.5675H33.216C33.2901 28.5686 33.3616 28.5402 33.4148 28.4887C33.4681 28.4371 33.4987 28.3666 33.5 28.2925V11.7895C33.4984 11.7154 33.4677 11.645 33.4146 11.5934C33.3614 11.5419 33.2901 11.5133 33.216 11.514ZM20.722 11.514H6.784C6.70991 11.5129 6.63841 11.5413 6.58518 11.5928C6.53195 11.6444 6.50132 11.7149 6.5 11.789V28.2925C6.50132 28.3666 6.53195 28.4371 6.58518 28.4887C6.63841 28.5402 6.70991 28.5686 6.784 28.5675H10.4425C10.5166 28.5686 10.5881 28.5402 10.6413 28.4887C10.6946 28.4371 10.7252 28.3666 10.7265 28.2925V15.34C10.7265 15.1915 10.853 15.0675 11.01 15.0675H18.895C21.113 15.0675 21.741 16.745 21.741 17.8275V28.292C21.7423 28.3661 21.7729 28.4366 21.8262 28.4882C21.8794 28.5397 21.9509 28.5681 22.025 28.567H25.681C25.7551 28.5681 25.8266 28.5397 25.8798 28.4882C25.9331 28.4366 25.9637 28.3661 25.965 28.292V16.586C25.965 15.619 25.8465 14.2305 24.587 13.01C23.2705 11.734 22.0665 11.514 20.722 11.514ZM18.1595 18.0875H14.316C14.242 18.0866 14.1706 18.115 14.1175 18.1665C14.0644 18.218 14.0338 18.2885 14.0325 18.3625V28.295C14.0325 28.4465 14.162 28.5705 14.316 28.5705H18.1595C18.2335 28.5712 18.3047 28.5427 18.3579 28.4912C18.411 28.4398 18.4418 28.3695 18.4435 28.2955V18.36C18.4418 18.2862 18.411 18.2161 18.3578 18.165C18.3046 18.1138 18.2333 18.0863 18.1595 18.0875Z" fill="white"/>
</g>
<defs>
<clipPath id="clip0_25_3453">
<rect width="40" height="40" fill="white"/>
</clipPath>
</defs>
</svg>
