<svg width="40" height="40" viewBox="0 0 40 40" fill="none" xmlns="http://www.w3.org/2000/svg">
<circle cx="20" cy="20" r="20" fill="#ED1D24"/>
<path fill-rule="evenodd" clip-rule="evenodd" d="M20 37C29.3891 37 37.0022 29.3902 37.0022 20.0022C37.0022 10.6131 29.3891 3 20 3C10.6131 3 3 10.6131 3 20.0022C3 29.3902 10.6131 37 20 37ZM20.0023 34.5714C28.0487 34.5714 34.5724 28.0476 34.5724 20.0023C34.5724 11.9537 28.0487 5.42881 20.0023 5.42881C11.9537 5.42881 5.42881 11.9537 5.42881 20.0023C5.42881 28.0476 11.9537 34.5714 20.0023 34.5714ZM15.6449 26.5109C14.8124 25.6441 15.0796 24.1568 15.3478 22.6638C15.4407 22.1462 15.5338 21.6279 15.5813 21.1345C15.5357 21.1799 15.4144 21.4149 15.2328 21.7667C14.4484 23.2863 12.5394 26.9847 10.7534 26.9847C10.715 26.9847 10.6734 26.9847 10.635 26.9793C8.64283 26.7917 8.90282 24.0393 9.52042 22.3686H12.7346C11.7495 25.0913 13.1087 23.9779 14.0367 22.2469C15.8734 18.5128 15.9109 18.4081 17.8883 12.8913L17.9519 12.714H21.4787C20.4278 15.9315 19.5425 18.8429 19.1103 22.1843C19.1103 22.3061 19.1695 22.4323 19.2946 22.3686C19.8488 22.2779 22.1742 17.3054 23.4765 14.5207C23.9219 13.5682 24.2476 12.8717 24.3418 12.714H27.8719C27.8719 12.714 24.118 23.1135 24.7367 24.0986C24.9632 24.5067 25.2539 24.0572 25.539 23.6163C25.6447 23.4529 25.7496 23.2907 25.8502 23.1738L26.4085 23.7322C26.1828 23.9831 25.9493 24.2795 25.705 24.5897C24.8308 25.6995 23.8185 26.9847 22.5307 26.9847C22.4023 26.9847 22.2729 26.9694 22.1413 26.9442C21.8922 26.8805 21.6465 26.7566 21.4622 26.5712C20.1414 25.4217 21.3688 22.1497 22.1413 20.0904C22.4916 19.1567 22.7483 18.4724 22.6316 18.3482C22.542 18.3587 22.4489 18.5584 22.3112 18.8538L22.3112 18.8538C22.2769 18.9274 22.2399 19.0069 22.1994 19.0908C22.0734 19.3507 21.9278 19.662 21.7657 20.0084C20.5773 22.5488 18.5021 26.9847 16.7616 26.9847C16.449 26.9847 15.9861 26.8652 15.6449 26.5109ZM27.7426 26.9843C28.3284 26.9843 28.8045 26.506 28.8045 25.9191C28.8045 25.3322 28.3284 24.8583 27.7426 24.8583C27.158 24.8583 26.6786 25.3322 26.6786 25.9191C26.6786 26.506 27.158 26.9843 27.7426 26.9843Z" fill="white"/>
</svg>
