<svg width="40" height="40" viewBox="0 0 40 40" fill="none" xmlns="http://www.w3.org/2000/svg">
<g clip-path="url(#clip0_25_3452)">
<path d="M20 40C31.0457 40 40 31.0457 40 20C40 8.9543 31.0457 0 20 0C8.9543 0 0 8.9543 0 20C0 31.0457 8.9543 40 20 40Z" fill="#0092C4"/>
<path d="M25.85 7.35002H14.15C11.3 7.35002 9 9.65002 9 12.5V20.5C9 23.35 11.3 25.65 14.15 25.65H25.85C28.7 25.65 31 23.35 31 20.5V12.5C31 9.65002 28.7 7.35002 25.85 7.35002ZM26.8 21C26.8 21.25 26.6 21.5 26.3 21.5H13.65C13.4 21.5 13.15 21.3 13.15 21V12C13.15 11.75 13.35 11.5 13.65 11.5H26.3C26.55 11.5 26.8 11.7 26.8 12V21ZM30.95 32.35V28.95C30.95 28.75 30.8 28.65 30.65 28.65H9.3C9.1 28.65 9 28.8 9 28.95V32.35C9 32.55 9.15 32.65 9.3 32.65H30.6C30.8 32.65 30.95 32.5 30.95 32.35Z" fill="white"/>
</g>
<defs>
<clipPath id="clip0_25_3452">
<rect width="40" height="40" fill="white"/>
</clipPath>
</defs>
</svg>
