<svg width="40" height="40" viewBox="0 0 40 40" fill="none" xmlns="http://www.w3.org/2000/svg">
<g clip-path="url(#clip0_441_161)">
<path d="M20 40C31.0457 40 40 31.0457 40 20C40 8.9543 31.0457 0 20 0C8.9543 0 0 8.9543 0 20C0 31.0457 8.9543 40 20 40Z" fill="#0B5ED7"/>
<path d="M22.1999 31.1057H22.1296L22.0116 30.1898C21.9786 29.8943 21.862 29.7493 21.5444 29.7089L20.5826 29.5885V29.5176L21.5822 29.3851C21.8488 29.3416 21.9446 29.2448 21.9975 29.0034L22.1287 28.0037H22.2042L22.3316 28.9858C22.3732 29.2133 22.4756 29.3504 22.7413 29.3907L23.7461 29.5176V29.5885L22.8121 29.7048C22.5369 29.7543 22.3868 29.7835 22.3269 30.1667L22.1999 31.1057Z" fill="white"/>
<path fill-rule="evenodd" clip-rule="evenodd" d="M19.9955 9C13.4929 9 10 11 10 11V23.1839C10 28.7051 14.4703 33 20.0002 33C25.4843 33 30 28.7621 30 23.0561V11C30 11 26.4981 9 19.9955 9ZM19.2783 21.1981C18.1753 21.7502 17.0725 22.3022 15.7309 22.5506L15.9608 20.6276C16.1005 19.671 16.2274 19.425 17.0491 19.2971L19.3721 18.996V18.8431L17.8816 18.6648L18.0279 17.5511C18.0652 17.2268 18.2196 17.079 18.6349 17.0285L19.844 16.8687V16.7821L18.5556 16.6176C18.1851 16.5583 18.0671 16.4054 18.0232 16.0724L17.8722 14.9494C17.8722 14.9494 18.7637 14.6844 19.9974 14.6844C24.7901 14.6844 27.6374 18.2409 28.3331 20.8421C27.6034 20.3784 26.1177 19.7081 24.3314 19.7081C22.2553 19.7081 20.7666 20.4532 19.2783 21.1981ZM24.1907 30.6272C23.4672 31.0524 21.9258 31.6954 19.9955 31.6954C16.3313 31.6954 12.8544 29.4519 11.6504 25.4956C12.7109 26.1525 14.2334 26.6343 15.7031 26.6343C17.9454 26.6343 19.5103 25.8143 20.9982 25.0347C22.0499 24.4837 23.063 23.9528 24.2497 23.7459L23.9472 26.0733C23.841 26.6737 23.673 26.934 22.9377 27.0545L20.5864 27.3482V27.5062L22.7928 27.7804C23.5248 27.8578 23.8655 28.0959 23.9439 28.8038L24.1907 30.6272ZM27.4189 27.5895C26.5651 28.9441 25.6151 29.7595 24.48 30.4789L24.6641 29.0233C24.7854 28.2015 24.9199 27.905 25.7326 27.8031L27.4189 27.5895ZM28.6035 24.2105C28.4572 25.2403 28.2613 26.0765 27.5902 27.2995L25.8874 27.08C25.0105 26.9794 24.792 26.7682 24.6806 25.9311L24.3913 23.7232C24.3913 23.7232 24.9737 23.6268 25.6373 23.6268C26.6274 23.6268 27.9763 23.9386 28.6035 24.2105ZM14.3358 22.6841C13.156 22.6841 12.0865 22.3866 11.406 22.1161C11.5438 20.9399 11.8807 20.062 12.4202 19.0669L14.2197 19.293C14.5605 19.3361 14.8073 19.4065 14.9725 19.5848C15.1316 19.7599 15.2009 19.8646 15.2967 20.5229L15.5643 22.5845C15.5643 22.5845 15.0173 22.6776 14.3358 22.6841ZM14.2669 18.5457L12.6009 18.7611C13.3138 17.6059 14.3011 16.6374 15.4784 15.9385L15.2637 17.5303C15.2156 17.8735 15.1783 18.0398 14.9928 18.2529C14.8356 18.4239 14.5737 18.4906 14.2669 18.5457ZM16.9962 16.6315L15.9032 16.7663L15.78 15.7573C16.3996 15.412 17.0633 15.1495 17.7537 14.9767L17.6027 16.1066C17.5381 16.4624 17.3828 16.5741 16.9962 16.6315ZM17.6173 17.6507L17.7471 18.6467L16.7905 18.5091C16.3383 18.4165 16.0844 18.107 16.0188 17.5502L15.9244 16.8798L17.06 17.0373C17.4347 17.0786 17.5673 17.2583 17.6173 17.6507ZM15.326 25.2677C13.7487 25.2677 12.4367 24.8707 11.3875 24.236C11.3611 23.9974 11.3328 23.5073 11.3267 23.1862C12.0738 23.5666 13.1942 24.0173 14.8545 24.0173C16.8744 24.0173 18.3383 23.2714 19.7964 22.5285C21.2432 21.7913 22.6842 21.0571 24.657 21.0571C26.2857 21.0571 27.6643 21.5166 28.5959 22.0841C28.6313 22.3959 28.6447 22.7079 28.658 23.0197C28.6598 23.0615 28.6616 23.1033 28.6634 23.145C27.6011 22.6331 26.4995 22.3283 25.1379 22.3283C23.104 22.3283 21.6719 23.0621 20.2389 23.7965C18.804 24.5318 17.3681 25.2677 15.326 25.2677Z" fill="white"/>
</g>
<defs>
<clipPath id="clip0_441_161">
<rect width="40" height="40" fill="white"/>
</clipPath>
</defs>
</svg>
