<svg width="40" height="40" viewBox="0 0 40 40" fill="none" xmlns="http://www.w3.org/2000/svg">
<path d="M40 20.0043C40 31.0535 31.052 40.0001 20.0061 40.0001C8.95874 40.0001 0 31.0535 0 20.0043C0 8.95513 8.95874 -7.62939e-05 20.0061 -7.62939e-05C31.0521 -7.62939e-05 40 8.95513 40 20.0043Z" fill="#0096D5"/>
<path fill-rule="evenodd" clip-rule="evenodd" d="M12.4611 18.7242C13.4314 18.4533 14.4278 18.9952 14.69 19.9305C14.9522 20.8745 14.3754 21.8534 13.4051 22.1244C12.4349 22.3954 11.4385 21.8534 11.1762 20.9182C11.1413 20.7871 11.1238 20.656 11.1151 20.5248C11.0801 20.1228 11.0364 19.3011 11.1413 18.6631C11.2025 18.2872 11.3598 18.0425 11.5958 17.824C11.8318 17.6142 12.1639 17.4044 12.5573 17.2995L12.8576 17.2197L12.8577 17.2197L12.8577 17.2197L12.8578 17.2197C13.1458 17.1433 13.4152 17.0719 13.5974 17.0198C13.8509 16.9499 14.1131 17.0722 14.1656 17.2645C14.218 17.4568 14.1656 17.7191 13.816 17.8152C13.4663 17.9114 12.9943 18.0425 12.8457 18.0862L12.8317 18.0907C12.7424 18.1194 12.3693 18.2392 12.1727 18.4358C12.0317 18.5768 12.0324 18.765 12.0328 18.8884L12.0328 18.9078C12.1639 18.8291 12.3038 18.768 12.4611 18.7242ZM12.0765 20.6647C12.2164 21.1542 12.7059 21.4426 13.1779 21.3115C13.6499 21.1804 13.9208 20.6734 13.7722 20.184C13.6411 19.6945 13.1517 19.406 12.6797 19.5371C12.2077 19.6683 11.9367 20.1752 12.0765 20.6647ZM21.9186 18.7505H20.2142C19.8725 18.7505 19.7729 19.1011 19.7359 19.2312L19.7334 19.24C19.6897 19.3624 19.0866 21.3902 19.0866 21.3902H18.9293C18.702 21.3902 18.5272 21.5738 18.5272 21.801C18.5272 22.0283 18.7108 22.2031 18.9293 22.2031H21.9274C22.1372 22.2031 22.4169 22.037 22.4169 21.7224V19.24C22.3994 18.9166 22.1284 18.7505 21.9186 18.7505ZM21.4991 21.3815H20.0481C20.0481 21.3815 20.4852 19.8781 20.4939 19.8344L20.4975 19.8252C20.5181 19.7721 20.5718 19.6333 20.6949 19.6333H21.298C21.4029 19.6333 21.4991 19.7207 21.4991 19.8344V21.3815ZM9.86505 20.5075C9.86505 20.9883 9.55038 21.3991 9.01719 21.3991C8.50149 21.3991 8.1606 20.9795 8.1606 20.4988V20.49C8.1606 20.0093 8.47527 19.5985 9.00845 19.5985C9.52416 19.5985 9.86505 20.018 9.86505 20.4988V20.5075ZM9.00845 18.8031C7.98578 18.8031 7.23408 19.5635 7.23408 20.4988V20.5075C7.23408 21.4428 7.98578 22.1945 8.99971 22.1945C10.0224 22.1945 10.7741 21.434 10.7741 20.4988V20.49C10.7741 19.5548 10.0224 18.8031 9.00845 18.8031ZM6.45615 18.7768H5.652H5.28489H4.48948H4.48074C4.21852 18.7768 4 18.9953 4 19.2575V21.7399C4 22.0021 4.21852 22.2207 4.48074 22.2207C4.74296 22.2207 4.96148 22.0021 4.96148 21.7399V19.8606C4.96148 19.747 5.05763 19.6596 5.16252 19.6596H5.32859H5.6083H5.77437C5.87926 19.6596 5.97541 19.747 5.97541 19.8606V21.7399C5.97541 22.0021 6.19393 22.2207 6.45615 22.2207C6.71837 22.2207 6.93689 22.0021 6.93689 21.7399V19.2575C6.93689 18.9953 6.71837 18.7768 6.45615 18.7768ZM16.8228 19.4411C16.4032 19.4411 16.1585 19.6858 16.0886 20.0792H17.5133C17.4783 19.7295 17.2336 19.4411 16.8228 19.4411ZM18.0465 19.1089C18.3786 19.4411 18.4748 19.8432 18.4748 20.1753C18.4748 20.5249 18.2912 20.726 17.9853 20.7172H16.0973C16.1935 21.163 16.4994 21.4078 16.9889 21.4078C17.2982 21.4078 17.492 21.3287 17.651 21.2638C17.7615 21.2187 17.8551 21.1805 17.9591 21.1805C18.1689 21.1805 18.3262 21.3641 18.3262 21.5738C18.3262 21.7749 18.1863 21.9147 17.8979 22.0283C17.592 22.1595 17.2511 22.1944 16.9189 22.1944C16.342 22.1944 15.87 22.0109 15.5554 21.6962C15.232 21.3641 15.0484 20.9183 15.0484 20.3851C15.0484 19.8694 15.2407 19.4411 15.5379 19.1352C15.8438 18.838 16.2721 18.6632 16.814 18.6632C17.3735 18.6632 17.7755 18.838 18.0465 19.1089ZM24.2 21.5651C23.8328 21.5651 23.5357 21.3291 23.5357 21.0494C23.5357 20.7609 23.8328 20.5336 24.2 20.5336C24.5671 20.5336 24.8643 20.7696 24.8643 21.0494C24.8643 21.3291 24.5671 21.5651 24.2 21.5651ZM25.7296 20.1578C25.7208 20.0179 25.616 19.5722 25.2925 19.2488C25.0041 18.9516 24.6195 18.7593 24.0951 18.7593C23.7891 18.7593 23.6231 18.7593 23.3434 18.8816C23.0811 18.9865 22.95 19.1176 22.95 19.3099C22.95 19.511 23.0899 19.6771 23.2822 19.6771C23.3748 19.6771 23.4282 19.6495 23.4915 19.6168C23.5836 19.5693 23.6966 19.511 23.9814 19.511C24.3748 19.511 24.637 19.6858 24.7506 20.0267C24.4534 19.8868 24.13 19.8781 24.13 19.8781C24.13 19.8781 22.9937 19.7732 22.7402 20.7784C22.6179 21.4602 23.0112 22.0633 23.8416 22.1682C24.5671 22.2119 24.9254 21.9147 24.9254 21.9147C25.0041 22.0458 25.1352 22.1332 25.3013 22.1332C25.5373 22.1332 25.7383 21.9409 25.7383 21.6962C25.7558 21.6962 25.7558 20.4987 25.7296 20.1578ZM27.9148 22.177C28.6927 22.177 29.3133 21.5564 29.3133 20.7872C29.3133 20.018 28.684 19.3974 27.9148 19.3974C27.1456 19.3974 26.525 20.018 26.525 20.7872C26.525 21.5564 27.1456 22.177 27.9148 22.177Z" fill="white"/>
<path opacity="0.8" fill-rule="evenodd" clip-rule="evenodd" d="M32.6522 20.7872C32.6522 21.5564 32.0316 22.177 31.2625 22.177C30.4933 22.177 29.8727 21.5564 29.8727 20.7872C29.8727 20.018 30.4933 19.3974 31.2625 19.3974C32.0316 19.3974 32.6522 20.018 32.6522 20.7872Z" fill="white"/>
<path opacity="0.6" fill-rule="evenodd" clip-rule="evenodd" d="M36 20.7872C36 21.5564 35.3794 22.177 34.6102 22.177C33.8411 22.177 33.2205 21.5564 33.2205 20.7872C33.2205 20.018 33.8411 19.3974 34.6102 19.3974C35.3707 19.3974 36 20.018 36 20.7872Z" fill="white"/>
</svg>
