<svg width="40" height="40" viewBox="0 0 40 40" fill="none" xmlns="http://www.w3.org/2000/svg">
<g clip-path="url(#clip0_25_1243)">
<path d="M20 40C31.0457 40 40 31.0457 40 20C40 8.9543 31.0457 0 20 0C8.9543 0 0 8.9543 0 20C0 31.0457 8.9543 40 20 40Z" fill="#2096F3"/>
<path fill-rule="evenodd" clip-rule="evenodd" d="M26.4 24.0185C26.4 27.1015 23.908 29.6 20.833 29.6H19.167C16.092 29.6 13.6 27.1015 13.6 24.0185V18.3815C13.6 15.2985 16.092 12.8 19.167 12.8H20.833C23.908 12.8 26.4 15.2985 26.4 18.3815V24.0185ZM31.057 15.2H32V11.95C32 9.53 30.441 8 28.021 8H11.979C9.559 8 8 9.53 8 11.95V15.2H8.943C10.705 15.2 12 16.725 12 18.403V21.597C12 23.275 10.705 24.8 8.943 24.8H8V28.05C8 30.47 9.559 32 11.979 32H28.021C30.441 32 32 30.47 32 28.05V24.8H31.057C29.295 24.8 28 23.275 28 21.597V18.403C28 16.725 29.295 15.2 31.057 15.2Z" fill="white"/>
<path fill-rule="evenodd" clip-rule="evenodd" d="M24 21.597C24 23.275 22.248 24.8 20.485 24.8H19.5145C17.752 24.8 16 23.275 16 21.597V18.403C16 16.725 17.752 15.2 19.5145 15.2H20.4845C22.248 15.2 24 16.725 24 18.403V21.597ZM20.8345 13.6H19.065C16.5 13.6 14.4 15.941 14.4 18.507V23.893C14.4 26.459 16.5 28.8 19.0655 28.8H20.8345C23.4 28.8 25.6 26.459 25.6 23.893V18.507C25.6 15.941 23.4 13.6 20.8345 13.6Z" fill="white"/>
<path fill-rule="evenodd" clip-rule="evenodd" d="M20.371 23.131H20.273C18.9335 23.131 17.677 22.357 17.677 20.979V19.677C17.677 19.677 17.675 19.2 17.235 19.2C16.797 19.2 16.8 19.677 16.8 19.677V20.9785C16.8 22.8345 18.451 24 20.273 24H20.371C20.371 24 20.8 23.993 20.8 23.5745C20.8 23.1535 20.371 23.131 20.371 23.131Z" fill="white"/>
</g>
<defs>
<clipPath id="clip0_25_1243">
<rect width="40" height="40" fill="white"/>
</clipPath>
</defs>
</svg>
