<svg width="40" height="40" viewBox="0 0 40 40" fill="none" xmlns="http://www.w3.org/2000/svg">
<circle cx="20" cy="20" r="20" fill="#003392"/>
<path d="M13.6163 21.3953C13.6163 22.1526 13.5341 22.8141 13.3699 23.3797C13.2102 23.9407 12.9455 24.4082 12.576 24.7822C12.2084 25.1537 11.7769 25.4643 11.344 25.6807C10.8719 25.9168 10.0065 26.0358 9.38142 26.0195C8.75446 26.003 7.79399 25.8889 7.25808 25.675C6.78899 25.4878 6.36427 25.1471 6.04031 24.8105C5.67073 24.4272 5.40381 23.9644 5.23954 23.4221C5.07985 22.8798 5 22.2137 5 21.4236L5.00502 15.0054L6.78018 15.0057V21.3237C6.78018 21.8894 6.81668 22.3358 6.88969 22.6631C6.96725 22.9903 7.09501 23.2871 7.27296 23.5536C7.47372 23.8575 7.74521 24.0865 8.08742 24.2408C8.43419 24.3951 8.8494 24.4722 9.33306 24.4722C9.82127 24.4722 10.2365 24.3974 10.5787 24.2478C10.9209 24.0936 11.1947 23.8621 11.4 23.5536C11.5779 23.2871 11.7034 22.9833 11.7764 22.642C11.854 22.2961 11.8928 21.8683 11.8928 21.3588V15.0057L13.6163 15.0071L13.6163 21.3953ZM35 19.4909C34.7914 19.4778 34.3964 19.4909 34.0553 19.5075C33.2786 19.5452 32.3643 20.0803 32.2895 20.8163L32.2969 25.7583L30.5995 25.7592L30.5896 17.7929L32.2945 17.7964L32.2995 18.9238C32.9166 18.0823 33.4166 17.7749 34.3272 17.6601C34.5342 17.634 34.7501 17.6397 34.99 17.679L35 19.4909ZM29.2444 25.759L27.3978 25.7581L27.3982 17.7917L29.2466 17.7926L29.2444 25.759ZM29.2451 16.8289L27.3984 16.8269L27.3979 15H29.2455L29.2451 16.8289ZM24.3519 23.4038L24.3378 21.9825L23.4191 22.0521C21.6095 22.1893 20.7238 22.5894 20.6928 23.6032C20.6814 23.9789 20.786 24.2151 21.0697 24.4373C21.3611 24.647 21.5942 24.6918 22.0896 24.6918C22.5413 24.6918 22.9383 24.5894 23.3608 24.3846C23.7833 24.1797 24.1091 23.755 24.3519 23.4038H24.3519ZM24.3563 24.78C23.8369 25.6134 22.917 26.0731 21.7362 25.9947C20.9705 25.9439 20.2373 25.7875 19.742 25.373C19.2466 24.9536 18.9143 24.1929 18.9588 23.5361C19.1079 21.3415 20.9121 21.1016 23.7286 20.9152L24.334 20.8751C24.334 20.3192 24.2849 19.8968 24.2266 19.6481C23.9745 18.9661 23.2595 18.7837 22.8189 18.7503C21.7395 18.7001 21.0858 19.3162 20.985 20.1872L19.345 20.1672C19.4469 18.5726 20.6192 17.4948 22.7415 17.4948C23.7323 17.4948 24.4644 17.8325 25.018 18.2275C25.5717 18.6225 25.9086 19.498 25.9086 20.6538L25.9036 25.7567L24.3689 25.7572L24.3563 24.78ZM18.3955 25.7892C18.1195 25.8544 17.7562 25.8814 17.4027 25.8737C16.8656 25.862 16.507 25.7017 16.2569 25.4978C16.0068 25.2891 15.8402 25.0051 15.7314 24.695C15.64 24.4344 15.556 23.9418 15.556 23.3752V19.0567L14.407 19.0526L14.417 17.7687L15.5459 17.7629V15.6691L17.2625 15.6741V17.7729L18.5124 17.7829C18.5524 18.0434 18.5235 19.0467 18.5235 19.0467H17.2574L17.2875 23.3296C17.2913 23.8714 17.375 24.0766 17.5001 24.2258C17.6297 24.3699 17.8057 24.442 18.028 24.442C18.2549 24.442 18.192 24.4522 18.4004 24.4124L18.3955 25.7892Z" fill="white"/>
</svg>
