<svg width="40" height="40" viewBox="0 0 40 40" fill="none" xmlns="http://www.w3.org/2000/svg">
<path d="M40 20.0043C40 31.0535 31.052 40.0001 20.0061 40.0001C8.95874 40.0001 0 31.0535 0 20.0043C0 8.95513 8.95874 -7.62939e-05 20.0061 -7.62939e-05C31.0521 -7.62939e-05 40 8.95513 40 20.0043Z" fill="#BED600"/>
<path d="M18.5487 9.56503C15.3984 9.56503 13.3547 9.73916 11.8753 10.2884C9.38918 11.2568 7.67227 13.2866 7.67227 15.954C7.67227 18.1756 8.70676 19.7846 11.7006 21.6351C14.8949 23.5716 15.5322 24.2115 15.5322 25.3784C15.5322 26.6555 14.2809 28.109 11.0615 28.109C9.93782 28.109 8.24533 27.9535 7.16385 27.6889L6.64781 27.5588C6.35994 28.3306 5.70645 30.1561 5.5072 30.8185L6.01817 30.9688C6.99099 31.2791 9.29971 31.5214 10.9538 31.5214C16.4565 31.5214 19.7396 28.197 19.7396 24.7157C19.7396 22.5766 18.7686 20.9509 15.4862 18.9028C13.8397 17.89 13.0006 17.2333 12.4911 16.7249C12.0781 16.1942 12.0323 15.7992 12.0323 15.3819C12.0323 14.9836 12.121 14.5245 12.3836 14.1883C12.6676 13.7725 13.1886 13.5077 13.8937 13.2891C14.6185 13.0486 15.9613 13.0423 18.0527 13.0423H20L21.3906 9.56517H18.5487V9.56503ZM33.2654 9.56503H23.4797L22.0891 13.042H25.3326C27.5152 13.042 27.935 12.995 28.4831 12.995C27.6919 14.8051 22.9233 26.9567 22.9233 26.9567H26.9591C26.9591 26.9567 32.9964 11.83 33.6362 10.2441C33.8134 9.89015 33.7254 9.56503 33.2654 9.56503Z" fill="white"/>
</svg>
