<svg width="40" height="40" viewBox="0 0 40 40" fill="none" xmlns="http://www.w3.org/2000/svg">
<g clip-path="url(#clip0_25_1200)">
<path d="M20 40C31.0457 40 40 31.0457 40 20C40 8.9543 31.0457 0 20 0C8.9543 0 0 8.9543 0 20C0 31.0457 8.9543 40 20 40Z" fill="#0D2984"/>
<mask id="mask0_25_1200" style="mask-type:alpha" maskUnits="userSpaceOnUse" x="2" y="17" width="36" height="7">
<path d="M2.8645 17.2495H37.318V23.0955H2.8645V17.2495Z" fill="white"/>
</mask>
<g mask="url(#mask0_25_1200)">
<path fill-rule="evenodd" clip-rule="evenodd" d="M16.376 17.8895C16.376 17.7506 16.4312 17.6175 16.5294 17.5193C16.6275 17.4211 16.7607 17.366 16.8995 17.366C17.0384 17.366 17.1715 17.4211 17.2697 17.5193C17.3679 17.6175 17.423 17.7506 17.423 17.8895C17.4171 18.0244 17.3594 18.1518 17.2619 18.2451C17.1643 18.3385 17.0345 18.3906 16.8995 18.3906C16.7645 18.3906 16.6347 18.3385 16.5372 18.2451C16.4397 18.1518 16.3819 18.0244 16.376 17.8895Z" fill="white"/>
<path fill-rule="evenodd" clip-rule="evenodd" d="M24.636 21.381C24.6329 21.3103 24.6442 21.2397 24.6691 21.1735C24.694 21.1073 24.7321 21.0469 24.781 20.9958C24.8299 20.9447 24.8886 20.904 24.9537 20.8762C25.0188 20.8484 25.0888 20.8341 25.1595 20.8341C25.2302 20.8341 25.3002 20.8484 25.3653 20.8762C25.4304 20.904 25.4891 20.9447 25.538 20.9958C25.5869 21.0469 25.625 21.1073 25.6499 21.1735C25.6748 21.2397 25.6861 21.3103 25.683 21.381C25.6758 21.5149 25.6176 21.641 25.5202 21.7333C25.4229 21.8255 25.2939 21.877 25.1597 21.877C25.0256 21.877 24.8966 21.8255 24.7993 21.7333C24.7019 21.641 24.6437 21.5149 24.6365 21.381" fill="#499FDD"/>
<path d="M7.78401 21.154C7.33301 21.154 7.01951 20.796 7.01951 20.284C7.01951 19.7725 7.33301 19.415 7.78401 19.415C8.23751 19.415 8.55401 19.7725 8.55401 20.284C8.55401 20.804 8.24401 21.154 7.78401 21.154ZM7.78401 18.6505C6.83001 18.6505 6.13751 19.3375 6.13751 20.284C6.13751 21.2305 6.83001 21.918 7.78401 21.918C8.74151 21.918 9.43651 21.2305 9.43651 20.284C9.43651 19.3375 8.74151 18.6505 7.78401 18.6505Z" fill="white"/>
<path fill-rule="evenodd" clip-rule="evenodd" d="M15.362 20.366C15.3287 20.3019 15.2866 20.2426 15.237 20.19L15.2085 20.16L15.2385 20.13C15.2825 20.0845 15.327 20.03 15.3705 19.966L16.212 18.715H15.1905L14.558 19.6935C14.522 19.746 14.4495 19.7725 14.3415 19.7725H14.1975V17.922C14.1975 17.552 13.9665 17.5015 13.7175 17.5015H13.291L13.292 21.87H14.197V20.559H14.282C14.3855 20.559 14.4555 20.571 14.488 20.627L14.9875 21.57C15.127 21.8255 15.266 21.8695 15.5275 21.8695H16.2215L15.7045 21.0145L15.362 20.3655V20.366ZM19.758 18.643C19.297 18.643 19.003 18.8475 18.8385 19.0205L18.7835 19.076L18.7645 19.0005C18.716 18.8155 18.553 18.713 18.3075 18.713H17.9015L17.904 21.869H18.8035V20.415C18.8035 20.273 18.822 20.1495 18.8595 20.037C18.9595 19.696 19.239 19.4845 19.588 19.4845C19.8685 19.4845 19.978 19.6325 19.978 20.0155V21.389C19.978 21.716 20.1295 21.869 20.4565 21.869H20.8845L20.883 19.862C20.883 19.065 20.494 18.6435 19.758 18.6435V18.643ZM16.9105 18.715H16.484L16.487 21.1545V21.869H16.942L16.958 21.8695L17.17 21.869H17.3805V21.8675H17.382L17.384 19.1935C17.384 18.871 17.2295 18.7145 16.9105 18.7145" fill="white"/>
<path d="M11.3165 21.154C10.8655 21.154 10.5515 20.796 10.5515 20.284C10.5515 19.7725 10.8655 19.415 11.3165 19.415C11.769 19.415 12.0865 19.7725 12.0865 20.284C12.0865 20.804 11.7765 21.154 11.3165 21.154ZM11.3165 18.6505C10.3615 18.6505 9.66901 19.3375 9.66901 20.284C9.66901 21.2305 10.3615 21.918 11.3165 21.918C12.273 21.918 12.969 21.2305 12.969 20.284C12.969 19.3375 12.273 18.6505 11.3165 18.6505Z" fill="white"/>
</g>
<path d="M30.593 21.154C30.1425 21.154 29.828 20.7955 29.828 20.284C29.828 19.7725 30.1425 19.4145 30.593 19.4145C31.0455 19.4145 31.363 19.7725 31.363 20.284C31.363 20.804 31.053 21.154 30.593 21.154ZM30.593 18.65C29.638 18.65 28.946 19.3375 28.946 20.284C28.946 21.2305 29.6385 21.9175 30.593 21.9175C31.5495 21.9175 32.246 21.2305 32.246 20.284C32.246 19.3375 31.5495 18.65 30.593 18.65Z" fill="#499FDD"/>
<path d="M22.779 21.015C22.287 21.015 22.112 20.586 22.112 20.184C22.112 20.007 22.157 19.4295 22.732 19.4295C23.017 19.4295 23.398 19.5115 23.398 20.2135C23.398 20.876 23.061 21.015 22.779 21.015ZM23.8645 18.7065C23.6945 18.7065 23.5625 18.7745 23.497 18.8985L23.472 18.947L23.4305 18.9105C23.2855 18.7855 23.025 18.636 22.6025 18.636C21.7615 18.636 21.195 19.2675 21.195 20.2075C21.195 21.1465 21.781 21.8025 22.619 21.8025C22.9055 21.8025 23.1315 21.736 23.311 21.6L23.3805 21.548V21.6355C23.3805 22.057 23.108 22.2895 22.614 22.2895C22.374 22.2895 22.1555 22.231 22.009 22.178C21.8185 22.1205 21.7065 22.168 21.629 22.3595L21.558 22.536L21.457 22.794L21.5195 22.8275C21.8603 23.0013 22.237 23.0931 22.6195 23.0955C23.385 23.0955 24.2795 22.703 24.2795 21.6L24.2825 18.7065H23.865H23.8645Z" fill="white"/>
<path d="M4.4345 21.118L3.702 21.117V20.242C3.702 20.0545 3.7745 19.957 3.935 19.935H4.4345C4.7905 19.935 5.021 20.16 5.021 20.5235C5.021 20.8965 4.796 21.1175 4.4345 21.118ZM3.702 18.7565V18.5265C3.702 18.3245 3.7875 18.229 3.9745 18.2165H4.3495C4.6705 18.2165 4.863 18.409 4.863 18.7305C4.863 18.9755 4.7315 19.262 4.361 19.262H3.702V18.757V18.7565ZM5.369 19.63L5.237 19.556L5.352 19.457C5.487 19.3415 5.712 19.082 5.712 18.633C5.712 17.9465 5.1795 17.503 4.355 17.503H3.3075C3.18951 17.5071 3.07763 17.5565 2.99513 17.641C2.91263 17.7254 2.86585 17.8384 2.8645 17.9565V21.854H4.3735C5.29 21.854 5.8815 21.355 5.8815 20.5825C5.8815 20.1665 5.6905 19.811 5.369 19.63Z" fill="white"/>
<path fill-rule="evenodd" clip-rule="evenodd" d="M36.2635 18.6535C36.0778 18.6542 35.8947 18.6967 35.7275 18.7777C35.5604 18.8587 35.4136 18.9762 35.298 19.1215L35.233 19.204L35.1815 19.1115C35.015 18.808 34.7285 18.6535 34.3295 18.6535C33.9115 18.6535 33.6315 18.887 33.501 19.0255L33.416 19.118L33.383 18.9965C33.3355 18.8215 33.18 18.7255 32.944 18.7255H32.566L32.5625 21.868H33.4215V20.481C33.4215 20.3595 33.4365 20.239 33.4665 20.1135C33.549 19.7785 33.7745 19.4175 34.153 19.4535C34.3865 19.476 34.5005 19.6565 34.5005 20.005V21.868H35.3655V20.481C35.3655 20.329 35.38 20.2155 35.414 20.101C35.484 19.781 35.719 19.453 36.084 19.453C36.349 19.453 36.4465 19.603 36.4465 20.005V21.4085C36.4465 21.726 36.588 21.8685 36.9055 21.8685H37.3095L37.3105 19.862C37.3105 19.0605 36.9575 18.6535 36.263 18.6535H36.2635ZM28.449 20.777C28.4465 20.78 28.0765 21.17 27.59 21.17C27.147 21.17 26.699 20.898 26.699 20.2905C26.699 19.7665 27.0465 19.4 27.5435 19.4C27.7045 19.4 27.8885 19.4575 27.917 19.555L27.9215 19.5715C27.9399 19.6384 27.9797 19.6973 28.035 19.7393C28.0902 19.7812 28.1577 19.8038 28.227 19.8035L28.698 19.804V19.393C28.698 18.8505 28.008 18.6535 27.543 18.6535C26.55 18.6535 25.8295 19.345 25.8295 20.297C25.8295 21.249 26.5425 21.9395 27.525 21.9395C28.378 21.9395 28.8415 21.379 28.846 21.3735L28.8705 21.343L28.498 20.725L28.449 20.777Z" fill="#499FDD"/>
</g>
<defs>
<clipPath id="clip0_25_1200">
<rect width="40" height="40" fill="white"/>
</clipPath>
</defs>
</svg>
