<svg width="40" height="40" viewBox="0 0 40 40" fill="none" xmlns="http://www.w3.org/2000/svg">
<circle cx="20" cy="20" r="20" fill="#E41A15"/>
<path d="M24.5676 17.5676L20.3513 23.1892H16.8379L21.054 17.5676H24.5676ZM27.3715 21.7838C26.7843 21.7838 26.4626 21.119 26.8091 20.6586L29.1352 17.5676H25.6217L24.0354 19.674C23.6545 20.1797 23.656 20.5709 24.0354 21.0788L25.0825 22.475C25.6158 23.1861 26.1425 23.1892 27.0271 23.1892H29.4865C31.594 23.1889 33 21.783 33 19.6757V18.2703C33 16.163 31.5944 14.7569 29.4865 14.7569H26.3244C26.178 14.7569 25.973 14.7569 25.7974 14.9325C25.6217 15.1082 25.6217 15.3132 25.6217 15.4596V16.1622H29.4865C29.9257 16.1622 30.1892 16.4258 30.1892 16.8649V21.0811C30.1892 21.5203 29.9257 21.7838 29.4865 21.7838H27.3715ZM14.034 18.973C14.6212 18.973 14.9427 19.6379 14.5964 20.0982L12.2704 23.1892H15.7838L17.3702 21.0829C17.751 20.5772 17.7495 20.186 17.3702 19.6781L16.323 18.2818C15.7896 17.5707 15.263 17.5676 14.3785 17.5676H7.7027C7.5563 17.5676 7.35135 17.5676 7.17567 17.7433C7 17.919 7 18.1239 7 18.2703V18.973H8.40539V26H11.2163V18.973H14.034Z" fill="white"/>
</svg>
