<svg width="40" height="40" viewBox="0 0 40 40" fill="none" xmlns="http://www.w3.org/2000/svg">
<g clip-path="url(#clip0_25_869)">
<path d="M20 40C31.0457 40 40 31.0457 40 20C40 8.9543 31.0457 0 20 0C8.9543 0 0 8.9543 0 20C0 31.0457 8.9543 40 20 40Z" fill="#80BB3D"/>
<path d="M26.5 17.2805C25.6115 17.0555 24.4265 16.8525 23.192 16.8945L23.6065 14.1715C21.108 13.765 20.972 15.386 20.972 15.386L20.674 17.3375C18.354 18.2045 18.133 20.2025 20.117 20.9805C19.917 22.2905 19.606 24.319 19.601 24.3155C18.956 24.044 17.659 23.533 17.0825 23.3275L18.6575 13.668C25.4075 12.993 26.7265 15.9925 26.4995 17.2805H26.5ZM22.687 20.2195L22.999 18.168C20.6555 18.1855 20.3185 19.732 20.2805 19.9765C19.1585 19.4545 20.1105 18.3305 21.6885 18.042C23.4355 17.7225 25.0935 18.0995 26.093 18.496C25.531 19.4945 24.2885 20.09 22.687 20.2195ZM14.7375 22.565C14.0515 22.3525 12.7675 22.095 12.5005 22.043L15.8935 16.001C15.5395 18.014 15.1005 20.5025 14.7375 22.565ZM34.261 25.962C35.6445 24.221 36.434 22.2045 36.431 20.0565C36.4205 13.4915 29.0135 8.17999 19.886 8.19349C17.4125 8.19699 15.0665 8.59149 12.961 9.29549C11.174 9.08299 9.41802 9.76049 9.41802 9.76049C9.41802 9.76049 10.698 11.7575 12.622 12.488C13.974 13.001 15.4995 12.5695 15.767 12.326C15.767 12.326 15.242 11.292 13.547 10.568C12.8905 10.288 11.984 10.036 10.978 9.89849C11.6555 9.95499 12.2305 9.88399 13.5995 10.305C15.5045 10.8905 16.0075 11.988 16.0075 11.988C16.117 10.954 15.399 10.224 14.693 9.83249C16.392 9.40877 18.1365 9.19518 19.8875 9.19649C28.44 9.18399 35.381 14.047 35.3905 20.059C35.394 21.9195 34.732 23.6725 33.563 25.2065C33.0274 24.6887 32.4544 24.211 31.8485 23.7775C32.2685 21.355 30.4215 19.1025 28.4125 17.9915C29.3335 15.163 26.5025 12.274 21.374 12.1705C20.611 12.1645 19.5665 12.2025 18.887 12.273L19.172 10.5255H18.765C17.342 10.5375 16.8135 11.417 16.66 11.762L16.11 12.7825C12.92 13.6365 11.1705 15.0985 11.014 15.228C10.6445 15.5355 10.7205 15.668 11.378 15.406C12.5515 14.9375 13.917 14.5165 15.348 14.197L11.0445 21.839C8.74252 21.585 6.34102 21.8455 5.12602 23.3515C4.66902 22.3265 4.42102 21.236 4.41902 20.1045C4.41302 16.622 6.73502 13.5185 10.352 11.5205C9.43652 10.9445 8.60802 11.4125 8.34702 11.5925L8.33302 11.6025C5.27152 13.765 3.37402 16.776 3.38002 20.105C3.38252 21.661 3.80102 23.1465 4.55952 24.5075C4.46602 24.9765 4.52002 25.529 4.95252 26.0625C5.53452 26.7795 6.69902 27.0975 8.06102 26.6375C9.90002 26.0175 11.3135 24.0725 11.7625 23.367C10.4345 23.157 9.90952 23.623 9.72152 23.865C9.18052 24.5615 8.38352 25.345 7.54902 25.69C5.84052 26.397 4.73552 24.9055 6.08502 23.705C6.99802 22.8915 8.81002 22.7225 10.445 22.921H10.485C12.55 23.185 14.143 23.788 14.489 23.924C14.3163 24.9075 14.1363 25.8897 13.949 26.8705L14.557 26.8775C16.545 26.877 16.7195 25.4445 16.7195 25.4445C16.7225 25.4475 16.8215 24.9405 16.8215 24.9405C18.0617 25.53 19.2906 26.143 20.5075 26.779C20.9735 27.027 21.6485 27.0125 21.7525 26.358L22.525 21.2865C24.5465 21.173 26.5315 20.4135 27.591 19.3035C28.5135 20.0015 29.3665 21.1145 29.529 22.4605C28.4005 21.988 27.1245 21.7055 25.815 21.901C22.78 22.355 21.718 25.367 23.387 27.0765C24.639 28.359 26.435 28.4985 28.367 27.794C29.4715 27.386 30.4196 26.6408 31.077 25.664C30.932 25.522 30.658 25.2725 30.347 25.0875C29.4945 24.5815 28.862 25.155 28.679 25.356C28.138 26.0095 27.3975 26.4875 26.6235 26.6695C23.093 27.5015 22.76 23.041 26.3785 22.9075C27.5225 22.8645 28.5305 23.3365 29.418 23.9565L29.4175 23.958C30.334 24.6215 31.5915 25.852 32.2195 26.274C33.558 27.174 34.8615 26.7775 34.8615 26.7775C34.8615 26.7775 34.6365 26.4195 34.2615 25.9625" fill="#FEFEFE"/>
<path d="M31.2515 27.483L31.249 27.4845C28.438 29.618 24.3675 30.9615 19.922 30.9685C15.507 30.9745 11.522 29.669 8.69752 27.6025C8.41852 27.3985 7.71102 26.9355 6.82202 27.3525C9.84852 30.1665 14.593 31.976 19.924 31.9675C25.2745 31.9605 30.028 30.124 33.044 27.2835C32.194 26.8775 31.4505 27.339 31.2515 27.483Z" fill="#FEFEFE"/>
</g>
<defs>
<clipPath id="clip0_25_869">
<rect width="40" height="40" fill="white"/>
</clipPath>
</defs>
</svg>
