<svg width="41" height="41" viewBox="0 0 41 41" fill="none" xmlns="http://www.w3.org/2000/svg">
<path fill-rule="evenodd" clip-rule="evenodd" d="M20.5 40.5C31.5457 40.5 40.5 31.5457 40.5 20.5C40.5 9.45433 31.5457 0.5 20.5 0.5C9.45433 0.5 0.5 9.45433 0.5 20.5C0.5 31.5457 9.45433 40.5 20.5 40.5Z" fill="url(#paint0_linear_25_2160)"/>
<path d="M20.7231 18.8003H20.5564C20.4047 18.8364 20.2661 18.9144 20.1564 19.0253C20.0007 19.1782 19.891 19.3716 19.8397 19.5836C19.7728 19.853 19.7814 20.1356 19.8647 20.4003C19.9678 20.7234 20.1582 21.0118 20.4148 21.2337C20.7117 21.4959 21.0749 21.6717 21.4648 21.742C21.9122 21.8236 22.3736 21.7804 22.7981 21.617C23.2838 21.4355 23.7104 21.1242 24.0314 20.717C24.3918 20.265 24.6222 19.7234 24.6981 19.1503C24.7832 18.5197 24.6969 17.8777 24.4481 17.292C24.2499 16.7991 23.9523 16.3523 23.5737 15.9795C23.1952 15.6067 22.744 15.316 22.2481 15.1253C21.5208 14.8366 20.7289 14.7502 19.9564 14.8753C19.1244 14.9979 18.3412 15.3435 17.6897 15.8753C16.9879 16.4452 16.4524 17.1937 16.1397 18.042C15.7991 18.9456 15.707 19.924 15.8731 20.8753C16.0417 21.8822 16.4761 22.8258 17.1314 23.6087C17.6523 24.2405 18.2961 24.7598 19.0238 25.1351C19.7516 25.5104 20.548 25.7339 21.3647 25.792C22.5254 25.8898 23.6911 25.674 24.7397 25.167C25.85 24.6435 26.7996 23.832 27.4897 22.817C28.2186 21.7523 28.6501 20.5124 28.7397 19.2253C28.8405 17.8791 28.5817 16.5303 27.9897 15.317C27.3787 14.0497 26.441 12.9681 25.2731 12.1836C24.0604 11.364 22.6506 10.8835 21.1897 10.792C19.6733 10.6897 18.1571 10.9946 16.7981 11.6753C15.3798 12.3768 14.1745 13.4441 13.3064 14.767C12.3984 16.1407 11.872 17.7311 11.7814 19.3753C11.6784 21.0744 12.0262 22.7706 12.7897 24.292C13.3798 25.4845 14.2029 26.5467 15.2106 27.4155C16.2183 28.2843 17.39 28.9423 18.6564 29.3503C20.4085 29.9324 22.2842 30.0359 24.0897 29.6503C25.9542 29.2572 27.6802 28.3741 29.0898 27.092C29.4481 27.4836 30.3314 28.4753 30.6147 28.7753C28.9005 30.318 26.8115 31.3841 24.5564 31.867C22.3603 32.3289 20.0814 32.2053 17.9481 31.5086C15.8701 30.8155 14.0108 29.5884 12.5564 27.9503C11.1439 26.3557 10.1729 24.4194 9.73975 22.3336C9.3259 20.301 9.44941 18.1956 10.0981 16.2253C10.7363 14.3161 11.8624 12.6068 13.3647 11.267C14.8286 9.97924 16.6042 9.09721 18.5147 8.70865C20.3697 8.33857 22.2893 8.46213 24.0814 9.06698C25.8149 9.66548 27.3609 10.7086 28.5647 12.092C29.7243 13.4381 30.5115 15.0642 30.8481 16.8086C31.1664 18.4953 31.0401 20.2357 30.4814 21.8586C29.932 23.4222 28.9841 24.8153 27.7314 25.9003C26.5167 26.9378 25.0514 27.6388 23.4814 27.9336C21.969 28.2063 20.4115 28.077 18.9648 27.5587C17.5741 27.0499 16.3413 26.185 15.3897 25.0503C14.4851 23.9547 13.8819 22.642 13.6397 21.242C13.4157 19.8987 13.5449 18.5202 14.0147 17.242C14.478 16.0189 15.2538 14.9385 16.2647 14.1086C17.2317 13.327 18.3868 12.8127 19.6147 12.617C20.7854 12.4445 21.9808 12.5825 23.0814 13.017C24.1306 13.4378 25.0503 14.1276 25.7481 15.017C26.3955 15.868 26.8092 16.8734 26.9481 17.9336C27.0733 18.935 26.9354 19.9518 26.5481 20.8836C26.1672 21.7574 25.5638 22.516 24.7981 23.0836C24.073 23.609 23.2221 23.9338 22.3314 24.0253C21.499 24.097 20.6625 23.9475 19.9064 23.592C19.2047 23.2486 18.6066 22.7253 18.1731 22.0753C17.7826 21.4634 17.5612 20.7589 17.5314 20.0336C17.5165 19.3639 17.6805 18.7023 18.0064 18.117C18.3188 17.5883 18.7679 17.1537 19.3064 16.8586C19.8107 16.6026 20.3758 16.4901 20.9397 16.5336C21.4572 16.582 21.948 16.7853 22.3481 17.117C22.671 17.3965 22.9104 17.7599 23.0397 18.167C23.0874 18.3082 23.1067 18.4573 23.0966 18.606C23.0866 18.7546 23.0474 18.8998 22.9812 19.0333C22.9151 19.1668 22.8232 19.2859 22.711 19.3839C22.5988 19.4819 22.4684 19.5569 22.3272 19.6045C22.1861 19.6521 22.0369 19.6714 21.8883 19.6614C21.7396 19.6513 21.5944 19.6121 21.4609 19.5459C21.3275 19.4798 21.2083 19.388 21.1103 19.2758C21.0123 19.1636 20.9374 19.0332 20.8897 18.892L20.8564 18.8336C20.8143 18.8133 20.7693 18.7992 20.7231 18.792V18.8003Z" fill="white"/>
<defs>
<linearGradient id="paint0_linear_25_2160" x1="0.5" y1="40.5" x2="40.5" y2="0.5" gradientUnits="userSpaceOnUse">
<stop stop-color="#F4970F"/>
<stop offset="1" stop-color="#FFE600"/>
</linearGradient>
</defs>
</svg>
