<svg width="40" height="40" viewBox="0 0 40 40" fill="none" xmlns="http://www.w3.org/2000/svg">
<g clip-path="url(#clip0_25_815)">
<path d="M20 40C31.0457 40 40 31.0457 40 20C40 8.9543 31.0457 0 20 0C8.9543 0 0 8.9543 0 20C0 31.0457 8.9543 40 20 40Z" fill="#005029"/>
<path fill-rule="evenodd" clip-rule="evenodd" d="M23.1321 5.03002C23.6886 5.39002 24.1961 5.83702 24.5906 6.37252C25.6196 7.64752 26.1171 9.99952 25.6401 11.5905C25.5276 12.0945 25.3126 12.5675 25.0846 13.028C24.7527 13.6192 24.3425 14.1627 23.8651 14.644L19.9296 18.599C18.5821 17.243 17.2301 15.891 15.8846 14.533C15.6111 14.2235 15.3431 13.908 15.1096 13.566C14.7961 13.0755 14.5006 12.561 14.3531 11.9935C13.7221 10.168 14.0811 8.09052 15.1616 6.51802C15.3836 6.21302 15.6456 5.94052 15.9076 5.66952C17.8806 3.84602 20.8856 3.55552 23.1321 5.02952V5.03002ZM19.0046 6.83502C18.5806 6.92602 18.1976 7.14652 17.8461 7.39352C17.4331 7.72602 17.0691 8.14252 16.8741 8.64152C16.4341 9.58452 16.5026 10.701 16.9311 11.6365C17.0751 11.9555 17.2921 12.2345 17.5161 12.5015C18.2946 13.3415 19.1111 14.2285 19.9291 15.023C20.4641 14.5645 21.2611 13.6905 21.7266 13.158C22.1096 12.7645 22.5101 12.376 22.7916 11.899C23.3036 11.103 23.3736 10.095 23.1891 9.18552C22.8966 8.05552 21.9651 7.10002 20.8221 6.82952C20.2267 6.66863 19.599 6.67053 19.0046 6.83502Z" fill="#A9CD39"/>
<path fill-rule="evenodd" clip-rule="evenodd" d="M12.7315 14.4574C13.1365 14.6684 13.5415 14.8874 13.894 15.1804C14.2717 15.477 14.6209 15.8081 14.937 16.1694C15.331 16.5624 15.695 16.9834 16.078 17.3869C16.524 17.8469 16.948 18.3284 17.397 18.7864C17.589 19.018 17.8195 19.2129 18.012 19.4444C18.147 19.5989 18.285 19.7519 18.4315 19.8954C18.47 19.9379 18.5175 19.9764 18.539 20.0309C18.4575 20.1694 18.3205 20.2649 18.217 20.3875C17.997 20.6385 17.748 20.8635 17.5335 21.12C17.2745 21.427 16.979 21.7004 16.7075 21.9964C16.278 22.4739 15.831 22.9354 15.3945 23.4064C14.9695 23.8519 14.5715 24.326 14.0935 24.7175C13.5155 25.2045 12.86 25.6139 12.1345 25.8399C10.844 26.335 9.24051 26.1549 7.97951 25.6299C7.35201 25.3279 6.76601 24.9279 6.28551 24.4214C5.56501 23.6814 5.06151 22.7434 4.78651 21.7509C4.32051 20.2939 4.58301 18.2315 5.36051 16.8909C5.85701 16.0119 6.56451 15.2379 7.43951 14.7249C7.77934 14.5184 8.14043 14.3491 8.51651 14.2199C9.80251 13.7799 11.5045 13.8409 12.7315 14.4574ZM9.65151 16.6094C9.05651 16.7499 8.49301 17.0524 8.07851 17.5055C7.81151 17.7575 7.61051 18.0714 7.45101 18.4004C7.06901 19.2504 6.95601 20.2419 7.24951 21.1354C7.49251 21.9549 8.03451 22.6995 8.78851 23.1165C9.81851 23.7055 11.178 23.6025 12.1525 22.9574C12.5675 22.6945 12.892 22.3184 13.232 21.9694C13.717 21.4744 14.1995 20.9784 14.6805 20.4794C14.8305 20.3369 14.9845 20.1974 15.1085 20.0309C14.602 19.3729 12.99 17.76 12.326 17.224C11.971 16.964 11.5785 16.7414 11.1425 16.6539C10.7925 16.5409 10.421 16.5609 10.058 16.5639C9.92139 16.5664 9.7853 16.5816 9.65151 16.6094Z" fill="#6FB843"/>
<path fill-rule="evenodd" clip-rule="evenodd" d="M28.2291 14.0815C29.9506 13.7975 31.3036 13.91 32.7756 14.949C33.0183 15.1118 33.2425 15.3008 33.4441 15.5125C35.8826 17.807 35.9091 22.189 33.4821 24.5155C32.7329 25.2696 31.7787 25.7872 30.7381 26.004C29.6596 26.171 28.6521 26.142 27.6156 25.7985C26.8346 25.5355 26.1406 25.06 25.5381 24.505C25.2741 24.286 25.0546 24.022 24.8216 23.7725C23.5916 22.56 22.5116 21.2555 21.3101 20.031C22.5636 18.738 23.9316 17.354 25.1001 15.987C25.9376 15.079 27.0121 14.353 28.2291 14.0815ZM28.3651 16.7565C27.8041 16.9795 27.3261 17.3675 26.9131 17.8005C26.7531 17.9605 24.7376 20.008 24.7701 20.0485C25.5926 20.883 26.3886 21.7435 27.2216 22.5685C27.4586 22.774 27.7046 22.976 27.9846 23.1215C29.1856 23.7955 30.7776 23.5715 31.7556 22.6075C32.1 22.2529 32.3684 21.8318 32.5446 21.37C32.8456 20.6775 32.8481 19.349 32.5421 18.6925C32.3316 18.128 31.9786 17.6085 31.5031 17.235C31.1346 16.927 30.6866 16.726 30.2226 16.6145C29.5721 16.493 28.9846 16.5545 28.3651 16.7565Z" fill="white"/>
<path fill-rule="evenodd" clip-rule="evenodd" d="M19.8706 21.4965C19.9241 21.4605 19.9736 21.509 20.0141 21.5415C20.9606 22.5055 21.9241 23.4535 22.8716 24.416C23.2671 24.818 23.6776 25.207 24.0566 25.6255C24.4016 25.966 24.6766 26.3705 24.9366 26.7785C25.2616 27.322 25.5136 27.9135 25.6481 28.5335C26.1346 30.3825 25.6191 32.5065 24.3816 33.9535C23.9066 34.4795 23.3596 34.9535 22.7236 35.272C21.7106 35.8205 20.5331 36.044 19.3881 35.9465C17.5926 35.699 16.4801 35.127 15.2871 33.7055C14.0171 32.058 13.7221 29.7555 14.4336 27.8105C14.6486 27.2055 14.9831 26.649 15.3671 26.1365C15.7856 25.615 16.2591 25.1415 16.7046 24.6435L19.5746 21.7085C19.6661 21.629 19.7566 21.543 19.8706 21.4965ZM19.8771 25.0905C19.1271 25.737 17.8646 27.0695 17.3061 27.8205C16.5271 28.829 16.3506 30.2625 16.8761 31.4255C17.3471 32.556 18.5346 33.304 19.7451 33.3445C20.5811 33.3945 21.4406 33.138 22.0906 32.6055C23.2501 31.711 23.5836 29.9315 23.0276 28.6125C22.8565 28.2362 22.6329 27.8861 22.3636 27.5725C21.6456 26.749 20.8051 25.995 20.0811 25.176C20.0261 25.128 19.9566 25.026 19.8771 25.0905Z" fill="#008143"/>
</g>
<defs>
<clipPath id="clip0_25_815">
<rect width="40" height="40" fill="white"/>
</clipPath>
</defs>
</svg>
