<svg width="40" height="40" viewBox="0 0 40 40" fill="none" xmlns="http://www.w3.org/2000/svg">
<g clip-path="url(#clip0_2277_99)">
<g clip-path="url(#clip1_2277_99)">
<path d="M20 40C31.0457 40 40 31.0457 40 20C40 8.9543 31.0457 0 20 0C8.9543 0 0 8.9543 0 20C0 31.0457 8.9543 40 20 40Z" fill="#0EC645"/>
<path fill-rule="evenodd" clip-rule="evenodd" d="M21.6454 26.342C21.603 25.9542 21.8441 24.0456 21.8441 24.0456C21.8441 24.0456 22.3288 24.1248 22.7964 24.1752C23.2641 24.2256 24.0165 24.2656 24.0165 24.2656C24.0165 24.2656 23.6108 25.6976 23.8464 26.0245C24.3909 26.78 27.3675 28.6459 28.05 29.3947C28.3931 29.7278 28.7414 30.0508 29.1676 30.3417C29.4688 30.5915 30.441 30.6202 30.6966 30.8701C30.8676 31.0505 31.0767 31.5765 30.9718 31.6716C30.9002 31.7366 29.427 31.7681 29.1676 31.7226C28.8864 31.7226 28.5497 31.4581 28.5497 31.4581C28.5497 31.4581 28.3405 31.6716 28.05 31.5206C27.5381 31.2717 27.6146 30.7582 27.3157 30.3417C27.1448 30.1753 24.6433 28.5701 23.0313 27.6828C21.6484 26.9215 21.7098 26.9325 21.6454 26.342ZM11.6982 21.4012C11.3985 21.1412 10.2912 22.0661 9.97461 21.9994C9.65805 21.9327 9.96767 21.1687 9.68724 21.2153C9.30696 21.2784 9.20552 22.1468 8.86396 22.2143C8.31313 22.4162 8 21.6115 8 20.6508C8 19.6901 8.35019 18.6433 9.54294 17.973C10.7357 17.3027 12.502 17.1319 13.8725 17.5805C15.173 16.9012 16.8841 14.9295 20.695 14.8374C24.5059 14.7452 25.9328 16.6035 26.7428 16.1586C27.5528 15.7136 27.827 14.7105 27.6508 13.9611C27.3132 12.5257 26.6585 11.7452 26.1345 10.467C25.8054 9.66495 25.7874 8.60556 26.2019 7.82865C26.3878 7.48358 26.8394 7.08107 27.5203 7.00684C28.2013 6.93261 28.3806 7.49104 28.8572 7.64338C29.3338 7.79571 30.3524 7.88948 30.432 8.24387C30.5115 8.59826 29.2893 8.87684 29.0122 8.84782C28.3632 8.77998 27.9537 9.20603 27.9889 9.9588C28.0308 10.9161 28.2614 11.2579 29.1657 12.6205C30.0699 13.9831 30.0617 16.2488 28.9068 17.8297C28.5426 18.2915 28.1549 18.6838 27.898 19.2119C27.6909 19.6349 27.898 18.7824 27.898 20.4709C27.898 22.1593 27.0257 22.972 25.8859 23.3288C24.3514 23.8092 23.0263 23.6295 21.6711 23.4737C19.7958 23.258 18.3284 23.2832 17.5625 23.4737C16.8988 23.6393 14.8215 24.7832 14.5658 25.3155C14.4301 25.6028 13.697 28.5935 13.5626 29.2504C13.5077 29.5208 13.5386 30.0591 13.4103 30.2988C13.2699 30.5649 11.5605 31.6168 10.9802 31.8327C10.7129 31.9325 10.173 32.0601 10.1089 31.9687C9.73063 31.5439 9.73195 31.4455 10.831 30.6713C10.4471 29.8942 11.5547 29.7045 11.8804 29.3212C12.2359 28.9044 12.8806 24.3661 13.1017 23.775C13.3227 23.184 14.1856 22.9806 14.5353 22.4548C14.3699 22.2683 14.1407 22.3679 13.5346 22.5335C13.0146 22.6764 11.9287 23.0541 11.6982 22.8652C11.4677 22.6764 11.998 21.6611 11.6982 21.4012Z" fill="white"/>
</g>
</g>
<defs>
<clipPath id="clip0_2277_99">
<rect width="40" height="40" fill="white"/>
</clipPath>
<clipPath id="clip1_2277_99">
<rect width="40" height="40" rx="20" fill="white"/>
</clipPath>
</defs>
</svg>
