<svg width="40" height="41" viewBox="0 0 40 41" fill="none" xmlns="http://www.w3.org/2000/svg">
<g clip-path="url(#clip0_25_2589)">
<path d="M20 40.5C31.0457 40.5 40 31.5457 40 20.5C40 9.4543 31.0457 0.5 20 0.5C8.9543 0.5 0 9.4543 0 20.5C0 31.5457 8.9543 40.5 20 40.5Z" fill="black"/>
<path d="M37.4031 24.035H36.4551L34.8266 22.09L33.2221 24.035H32.2751L34.3651 21.5315L32.3966 19.1735H33.3441L34.8511 20.972L36.3581 19.1735H37.3061L35.3376 21.5315L37.4036 24.0345L37.4031 24.035ZM29.3581 24.278C29.0066 24.2791 28.6584 24.2106 28.3335 24.0766C28.0086 23.9426 27.7134 23.7457 27.4649 23.4972C27.2164 23.2487 27.0195 22.9535 26.8855 22.6286C26.7515 22.3037 26.683 21.9555 26.6841 21.604C26.6831 21.2527 26.7516 20.9046 26.8856 20.5797C27.0196 20.2549 27.2165 19.9598 27.4649 19.7114C27.7134 19.4629 28.0085 19.266 28.3333 19.132C28.6581 18.998 29.0062 18.9295 29.3576 18.9305C29.709 18.9295 30.057 18.998 30.3819 19.132C30.7067 19.266 31.0018 19.4629 31.2502 19.7114C31.4987 19.9598 31.6956 20.2549 31.8296 20.5797C31.9636 20.9046 32.0321 21.2527 32.0311 21.604C32.0321 21.9554 31.9637 22.3036 31.8297 22.6284C31.6958 22.9533 31.4989 23.2485 31.2504 23.497C31.002 23.7455 30.7068 23.9424 30.382 24.0765C30.0571 24.2105 29.709 24.279 29.3576 24.278H29.3581ZM29.3581 19.6595C28.8426 19.6608 28.3487 19.8662 27.9842 20.2307C27.6197 20.5951 27.4144 21.0891 27.4131 21.6045C27.4147 22.1198 27.6201 22.6135 27.9846 22.9777C28.349 23.342 28.8428 23.5472 29.3581 23.5485C29.8733 23.5469 30.3669 23.3415 30.7311 22.9772C31.0954 22.6129 31.3006 22.1192 31.3021 21.604C31.3006 21.0888 31.0953 20.595 30.7309 20.2307C30.3666 19.8663 29.8729 19.661 29.3576 19.6595H29.3581ZM23.1596 24.1565C21.6531 24.1565 21.2156 23.7915 21.2156 23.7915V16.743H21.9446V19.295C22.2121 19.1735 22.6006 19.052 23.1596 19.052C24.6426 19.052 25.8336 20.122 25.8336 21.604C25.8336 23.087 24.6426 24.1565 23.1596 24.1565ZM23.1596 19.7815C22.6496 19.7815 22.2361 19.9755 21.9446 20.17V23.184C21.9446 23.184 22.3336 23.427 23.1596 23.427C24.2296 23.427 25.1046 22.6735 25.1046 21.604C25.1046 20.5345 24.2296 19.7815 23.1596 19.7815ZM18.7846 16.743H19.5141V24.035H18.7846V16.743ZM16.3546 16.743H17.0836V24.035H16.3541V16.743H16.3546ZM14.2641 17.837C13.9241 17.837 13.6566 17.5695 13.6566 17.229C13.6566 16.889 13.9236 16.6215 14.2641 16.6215C14.6041 16.6215 14.8716 16.889 14.8716 17.229C14.8716 17.569 14.6041 17.837 14.2641 17.837ZM11.8576 24.0345L9.30558 21.4825L11.6146 19.1735H12.6356L10.3266 21.4825L12.8786 24.0345H11.8576ZM8.57658 24.0345V16.743H9.30558V24.035H8.57658V24.0345ZM7.40958 22.0415C7.40958 23.2565 6.43758 24.1315 4.90658 24.1315C3.90958 24.1315 3.13158 23.646 2.54858 23.0865L3.05908 22.528C3.54508 22.9895 4.10408 23.427 4.88208 23.427C5.75708 23.427 6.68058 22.941 6.68058 22.066C6.68058 21.337 6.09708 20.875 4.90658 20.5105C3.52108 20.097 2.84058 19.514 2.84058 18.4445C2.84058 17.375 3.73958 16.5245 5.02808 16.5245C5.97558 16.5245 6.58308 16.9375 7.16658 17.448L6.65658 18.007C6.14608 17.545 5.65958 17.2535 5.05208 17.2535C4.32308 17.2535 3.59408 17.7395 3.59408 18.42C3.59408 19.052 3.95858 19.441 5.22208 19.83C6.36458 20.17 7.40958 20.729 7.40958 22.0415ZM14.6531 24.0345H13.9236V19.1735H14.6531V24.0345Z" fill="white"/>
</g>
<defs>
<clipPath id="clip0_25_2589">
<rect width="40" height="40" fill="white" transform="translate(0 0.5)"/>
</clipPath>
</defs>
</svg>
