<svg width="40" height="41" viewBox="0 0 40 41" fill="none" xmlns="http://www.w3.org/2000/svg">
<g clip-path="url(#clip0_25_1874)">
<path d="M20 40.5C31.0457 40.5 40 31.5457 40 20.5C40 9.4543 31.0457 0.5 20 0.5C8.9543 0.5 0 9.4543 0 20.5C0 31.5457 8.9543 40.5 20 40.5Z" fill="#3F5368"/>
<path d="M21.3935 32.6945L21.3055 32.9085L22.513 34.122H25.068L25.273 33.9165L25.8905 33.295L25.9615 33.2245H27.723L27.9315 33.015V33.0135L30.1265 30.8055H30.128L30.3355 30.5965V29.607L30.4055 29.537L30.9354 29.0045L31.0695 28.8705L31.1195 28.6755L32.2855 24.172L32.308 24.085V23.993L32.3035 21.623L32.302 21.2495L32.002 21.0365L31.218 20.4805L30.9694 20.3045L31.1994 20.1045L31.9845 19.423L32.2385 19.202L32.3035 18.9395L32.182 18.6235L31.4155 16.6345L31.3985 16.5905V15L31.1905 14.7905H31.19L30.3345 13.9295L30.2645 13.86V12.2385L30.058 12.027L28.1495 10.075L28.1245 10.0495L28.1215 10.0445L26.4955 8.40948V8.40798L26.287 8.19848H25.133L25.063 8.12798L24.1885 7.24848L23.98 7.03848H20.997L19.232 8.81448L18.5065 8.47498L18.5949 8.26048L16.9904 7.03848H15.912L15.703 7.24848H15.7045L14.83 8.12798L14.76 8.19848H13.6055L13.397 8.40698V8.40948L10.2629 11.5615H10.2615L10.0534 11.7705V13.622L9.98445 13.692L8.95695 14.725L8.74795 14.9345V16.683L8.67845 16.7535L7.79045 17.6465L7.58545 17.853V24.09L7.60695 24.172L8.77345 28.6755L8.82345 28.8695L8.95695 29.0045L9.48695 29.537L9.55695 29.607V30.595L9.76645 30.8055L11.9615 33.0135L12.1704 33.2245H13.932L14.002 33.295L14.6195 33.9165L14.825 34.122H18.8965L20.6605 32.3555" fill="#3F5368"/>
<path d="M24.2604 27.9445L24.4479 28.1475H24.9114L25.0654 27.9215L26.2644 23.2325L26.0649 22.6975H24.4784L24.2599 22.9175V27.9445H24.2604ZM32.3089 23.9935L32.3039 21.6235L32.3034 21.25L32.0024 21.0365L31.2189 20.481L30.9699 20.3045L31.1999 20.1045L31.9844 19.4235L32.2389 19.203L32.3044 18.94L32.1829 18.6235L31.4169 16.635L31.3999 16.591V15.0005L31.1914 14.791H31.1904L30.3354 13.9305L30.2654 13.8605V12.239L30.0594 12.0275L28.1504 10.0755L28.1244 10.0495L28.1229 10.045L26.4964 8.40999V8.40849L26.2884 8.19949H25.1334L25.0634 8.12849L24.1894 7.24999L23.9799 7.03949H20.9984L19.2334 8.81499V14.187L17.7934 13.7835V11.479C17.9085 11.421 18.0081 11.3366 18.0843 11.2328C18.1605 11.1289 18.211 11.0084 18.2316 10.8813C18.2523 10.7541 18.2426 10.6239 18.2033 10.5012C18.164 10.3785 18.0962 10.2669 18.0054 10.1755C17.9306 10.1001 17.8416 10.0403 17.7436 9.9995C17.6455 9.95869 17.5404 9.93767 17.4342 9.93767C17.328 9.93767 17.2228 9.95869 17.1248 9.9995C17.0267 10.0403 16.9377 10.1001 16.8629 10.1755C16.7719 10.2668 16.7038 10.3784 16.6643 10.5011C16.6248 10.6238 16.615 10.7542 16.6357 10.8814C16.6564 11.0087 16.707 11.1292 16.7833 11.2331C16.8597 11.337 16.9596 11.4213 17.0749 11.479V12.4765L15.8919 12.1445L15.8879 12.1435C15.8656 11.9962 15.8029 11.8579 15.7068 11.7441C15.6107 11.6302 15.4849 11.5452 15.3434 11.4985C15.2022 11.4521 15.0508 11.4459 14.9062 11.4807C14.7616 11.5155 14.6296 11.5899 14.5249 11.6955C14.3723 11.8482 14.2866 12.0553 14.2866 12.2712C14.2866 12.4872 14.3723 12.6943 14.5249 12.847C14.5994 12.922 14.6879 12.9815 14.7855 13.0221C14.8831 13.0626 14.9877 13.0835 15.0934 13.0834C15.1991 13.0833 15.3037 13.0623 15.4012 13.0215C15.4987 12.9808 15.5871 12.9211 15.6614 12.846L15.6764 12.831L15.7014 12.8385L17.0754 13.2235V13.9875C17.0586 14.0761 17.0755 14.1678 17.123 14.2444C17.1705 14.3211 17.2451 14.3772 17.3319 14.4015L19.2334 14.9345V16.1335C19.2085 16.1448 19.185 16.159 19.1634 16.176L16.9434 17.928H15.6184C15.5618 17.8128 15.4784 17.7129 15.3753 17.6365C15.2722 17.56 15.1523 17.5094 15.0256 17.4888C14.8989 17.4681 14.7691 17.4781 14.6471 17.5178C14.525 17.5575 14.4142 17.6258 14.3239 17.717C14.1726 17.8684 14.0875 18.0737 14.0873 18.2878C14.0871 18.5019 14.1719 18.7073 14.3229 18.859V18.8595C14.4132 18.9507 14.5241 19.0191 14.6461 19.0589C14.7682 19.0986 14.898 19.1087 15.0248 19.0881C15.1515 19.0676 15.2715 19.0171 15.3748 18.9408C15.478 18.8645 15.5616 18.7646 15.6184 18.6495H17.0659C17.157 18.6495 17.2446 18.6148 17.3109 18.5525L19.2334 17.0355V18.0815L19.4524 18.3015H20.4419L20.6619 18.081V14.4575L22.3869 13.7395C22.4328 13.7297 22.4763 13.711 22.5149 13.6844C22.5535 13.6578 22.5865 13.6239 22.6119 13.5845L22.6144 13.5815L22.6149 13.5805C22.6536 13.522 22.6742 13.4536 22.6744 13.3835L22.7679 12.512L24.0819 12.484V12.483C24.1353 12.4815 24.1877 12.4679 24.2349 12.443L25.0039 12.046C25.0258 12.0348 25.0464 12.0214 25.0654 12.006C25.3894 12.201 25.8054 12.1445 26.0659 11.8705H26.0649C26.2133 11.715 26.2943 11.5071 26.2902 11.2922C26.286 11.0773 26.1972 10.8727 26.0429 10.723L26.0424 10.7235C25.9661 10.6499 25.8759 10.5922 25.7772 10.5537C25.6784 10.5152 25.573 10.4966 25.467 10.499C25.361 10.5014 25.2566 10.5248 25.1597 10.5678C25.0628 10.6108 24.9753 10.6725 24.9024 10.7495C24.7359 10.9245 24.6554 11.1635 24.6829 11.4035H24.6819L23.9874 11.7635L22.8444 11.788L22.8989 11.279C22.9011 11.2579 22.9016 11.2367 22.9004 11.2155C23.0237 11.1639 23.1324 11.0828 23.2171 10.9793C23.3017 10.8759 23.3596 10.7532 23.3858 10.6222C23.412 10.4911 23.4055 10.3556 23.3671 10.2276C23.3287 10.0996 23.2594 9.98298 23.1654 9.88799C23.0906 9.8127 23.0016 9.75296 22.9037 9.71219C22.8057 9.67142 22.7006 9.65043 22.5944 9.65043C22.4883 9.65043 22.3832 9.67142 22.2852 9.71219C22.1872 9.75296 22.0982 9.8127 22.0234 9.88799C21.935 9.97681 21.8683 10.0848 21.8284 10.2036C21.7886 10.3224 21.7766 10.4488 21.7936 10.573C21.8105 10.6972 21.8558 10.8158 21.926 10.9196C21.9963 11.0234 22.0895 11.1096 22.1984 11.1715C22.1968 11.1803 22.1957 11.1891 22.1949 11.198L21.9889 13.1275L20.6619 13.68V9.40299L20.7314 9.33299L21.5144 8.54599L21.5844 8.47599H23.3904L23.4599 8.54599L24.3339 9.42449L24.5434 9.63549H25.6969L25.7664 9.70549L26.9704 10.9155L26.9729 10.9135L27.1409 11.086L28.7684 12.751L28.8384 12.821V14.455L29.0464 14.6655L29.9029 15.526L29.9724 15.596V16.4125H28.4974L27.7804 14.8525C27.9074 14.6863 27.9657 14.4777 27.9432 14.2698C27.9206 14.0619 27.8191 13.8706 27.6594 13.7355C27.5004 13.6008 27.2953 13.5331 27.0874 13.5465C26.8795 13.56 26.6848 13.6535 26.5444 13.8075C26.4037 13.9622 26.3276 14.1649 26.3318 14.374C26.336 14.583 26.4201 14.7826 26.5669 14.9315C26.7189 15.0845 26.9244 15.1715 27.1399 15.1715H27.1449L27.9409 16.903C27.9682 16.9705 28.0148 17.0284 28.075 17.0693C28.1352 17.1103 28.2061 17.1324 28.2789 17.133H28.4204V18.374L26.8629 19.699C26.7138 19.6308 26.5474 19.6101 26.3861 19.6399C26.2249 19.6697 26.0768 19.7485 25.9619 19.8655C25.8291 19.9994 25.747 20.1754 25.7297 20.3632C25.7124 20.551 25.7609 20.739 25.8669 20.895C25.9721 21.0507 26.1287 21.1646 26.3092 21.2167C26.4898 21.2688 26.6829 21.2558 26.8549 21.18C27.0271 21.1035 27.1674 20.9696 27.2516 20.8011C27.3359 20.6327 27.359 20.4401 27.3169 20.2565L27.3179 20.2555L28.9729 18.847C29.0236 18.8152 29.0652 18.771 29.094 18.7186C29.1228 18.6662 29.1377 18.6073 29.1374 18.5475V17.1325H30.0824L30.6144 18.5125L30.6744 18.6695L30.5479 18.7795L29.3494 19.8205L28.7104 20.3755L28.7149 20.4595L29.4049 20.9485L30.7829 21.9255L30.8829 21.9965V22.121L30.8869 23.87V23.9L30.8794 23.93L30.6929 24.6485L29.2394 24.3615L28.8709 23.267L28.8794 23.259C29.0071 23.129 29.0872 22.9598 29.1067 22.7787C29.1262 22.5976 29.084 22.4151 28.9869 22.261C28.8907 22.1072 28.745 21.9908 28.5738 21.9308C28.4026 21.8708 28.2161 21.8709 28.0449 21.931C27.8736 21.9919 27.7279 22.1089 27.6314 22.263C27.5349 22.4171 27.4933 22.5993 27.5134 22.78C27.533 22.9607 27.6131 23.1294 27.7407 23.2588C27.8684 23.3881 28.036 23.4705 28.2164 23.4925L28.5914 24.609L27.9564 25.5315C27.9389 25.5574 27.9244 25.5852 27.9134 25.6145C27.7815 25.5858 27.6445 25.5909 27.5151 25.6293C27.3857 25.6678 27.2682 25.7384 27.1734 25.8345C27.0325 25.9767 26.9489 26.1658 26.9385 26.3658C26.9282 26.5658 26.9919 26.7625 27.1174 26.9185C27.3764 27.24 27.8374 27.313 28.1834 27.086C28.5294 26.858 28.6484 26.406 28.4594 26.0365C28.4878 26.014 28.5125 25.9874 28.5329 25.9575L29.1404 25.074L30.5124 25.3455L29.8099 28.06L29.7934 28.124L29.7484 28.169L29.1184 28.8025L28.9084 29.0135V30.0005L28.8399 30.0705L28.3149 30.5985C28.3094 30.593 28.3059 30.586 28.2999 30.5805L27.1579 29.432C27.2097 29.2878 27.2195 29.1319 27.1862 28.9824C27.1528 28.8329 27.0776 28.6959 26.9694 28.5875C26.8702 28.4863 26.7459 28.4133 26.6092 28.3758C26.4726 28.3383 26.3284 28.3377 26.1914 28.374C26.0543 28.4105 25.9292 28.4825 25.8288 28.5827C25.7284 28.683 25.6562 28.8079 25.6194 28.945C25.5439 29.225 25.6229 29.5235 25.8269 29.7295C26.0384 29.9435 26.3519 30.0215 26.6394 29.931L27.7929 31.091C27.7979 31.0965 27.8044 31.101 27.8099 31.106L27.2014 31.718L27.1319 31.788H25.3709L25.1619 31.9985L24.5399 32.624L24.4714 32.693H22.2869V32.694H21.3954L21.3064 32.9085L22.5144 34.1235H25.0684L25.2744 33.916L25.8924 33.2945L25.9624 33.2245H27.7239L27.9329 33.0155V33.014L30.1279 30.806H30.1289L30.3374 30.597V29.607L30.4074 29.537L30.9364 29.0045L31.0704 28.871L31.1209 28.676L32.2869 24.1725L32.3094 24.0855V23.993L32.3089 23.9935ZM15.3019 12.4795C15.2461 12.5345 15.1708 12.5654 15.0924 12.5654C15.014 12.5654 14.9388 12.5345 14.8829 12.4795L14.8814 12.4785C14.8274 12.4231 14.7972 12.3488 14.7972 12.2715C14.7972 12.1941 14.8274 12.1199 14.8814 12.0645L14.8829 12.063C14.9387 12.0078 15.014 11.9769 15.0924 11.9769C15.1709 11.9769 15.2461 12.0078 15.3019 12.063C15.3569 12.1183 15.3878 12.1932 15.3878 12.2712C15.3878 12.3493 15.3569 12.4241 15.3019 12.4795ZM17.6404 10.964L17.6394 10.965C17.5848 11.0193 17.5109 11.0497 17.4339 11.0497C17.3569 11.0497 17.283 11.0193 17.2284 10.965L17.2274 10.964C17.1726 10.9075 17.1419 10.8319 17.1419 10.7532C17.1419 10.6745 17.1726 10.5989 17.2274 10.5425C17.2545 10.5154 17.2867 10.4939 17.3222 10.4792C17.3576 10.4645 17.3956 10.4569 17.4339 10.4569C17.4723 10.4569 17.5103 10.4645 17.5457 10.4792C17.5811 10.4939 17.6133 10.5154 17.6404 10.5425C17.6954 10.5989 17.7261 10.6745 17.7261 10.7532C17.7261 10.832 17.6954 10.9076 17.6404 10.964ZM15.1014 18.499V18.5005C15.0467 18.555 14.9726 18.5855 14.8954 18.5855C14.8182 18.5855 14.7441 18.555 14.6894 18.5005L14.6884 18.4995C14.6334 18.443 14.6027 18.3673 14.6027 18.2885C14.6027 18.2097 14.6334 18.134 14.6884 18.0775C14.7155 18.0504 14.7477 18.0289 14.7832 18.0142C14.8186 17.9995 14.8566 17.9919 14.8949 17.9919C14.9333 17.9919 14.9713 17.9995 15.0067 18.0142C15.0421 18.0289 15.0743 18.0504 15.1014 18.0775C15.1565 18.1339 15.1874 18.2096 15.1874 18.2885C15.1874 18.3673 15.1565 18.4431 15.1014 18.4995V18.499ZM25.2704 11.1055C25.297 11.0774 25.329 11.0548 25.3644 11.0391C25.3998 11.0234 25.4379 11.0149 25.4766 11.0142C25.5154 11.0134 25.5538 11.0203 25.5899 11.0345C25.6259 11.0487 25.6587 11.07 25.6864 11.097V11.098C25.8044 11.2105 25.8094 11.398 25.6974 11.5165L25.6969 11.5155C25.6704 11.5436 25.6385 11.5662 25.6031 11.5818C25.5677 11.5974 25.5295 11.6058 25.4908 11.6064C25.4521 11.607 25.4137 11.5998 25.3778 11.5853C25.3419 11.5708 25.3093 11.5493 25.2819 11.522C25.2536 11.4954 25.2309 11.4635 25.215 11.428C25.1991 11.3926 25.1904 11.3543 25.1894 11.3155C25.1884 11.2767 25.1951 11.2381 25.2091 11.2019C25.223 11.1656 25.2441 11.1325 25.2709 11.1045L25.2704 11.1055ZM22.3874 10.255C22.4145 10.2279 22.4467 10.2064 22.4822 10.1917C22.5176 10.177 22.5556 10.1694 22.5939 10.1694C22.6323 10.1694 22.6703 10.177 22.7057 10.1917C22.7411 10.2064 22.7733 10.2279 22.8004 10.255C22.8554 10.3114 22.8861 10.387 22.8861 10.4657C22.8861 10.5445 22.8554 10.6201 22.8004 10.6765V10.678C22.7456 10.7322 22.6716 10.7626 22.5944 10.7626C22.5173 10.7626 22.4433 10.7322 22.3884 10.678L22.3874 10.6765C22.3325 10.6201 22.3017 10.5445 22.3017 10.4657C22.3017 10.387 22.3325 10.3114 22.3874 10.255ZM27.3464 14.5715L27.3454 14.572C27.2908 14.6264 27.2168 14.657 27.1397 14.657C27.0625 14.657 26.9886 14.6264 26.9339 14.572H26.9329C26.878 14.5155 26.8472 14.4398 26.8472 14.361C26.8472 14.2822 26.878 14.2065 26.9329 14.15C26.96 14.1229 26.9922 14.1014 27.0277 14.0867C27.0631 14.072 27.1011 14.0644 27.1394 14.0644C27.1778 14.0644 27.2158 14.072 27.2512 14.0867C27.2866 14.1014 27.3188 14.1229 27.3459 14.15C27.4009 14.2064 27.4316 14.282 27.4316 14.3607C27.4316 14.4395 27.4009 14.5151 27.3459 14.5715H27.3464ZM26.7374 20.6485C26.7104 20.6755 26.6784 20.6969 26.6432 20.7115C26.6079 20.7261 26.5701 20.7337 26.5319 20.7337C26.4938 20.7337 26.456 20.7261 26.4207 20.7115C26.3854 20.6969 26.3534 20.6755 26.3264 20.6485C26.2719 20.5925 26.2414 20.5174 26.2414 20.4392C26.2414 20.3611 26.2719 20.286 26.3264 20.23C26.3534 20.2029 26.3854 20.1815 26.4207 20.1668C26.4559 20.1522 26.4937 20.1446 26.5319 20.1446C26.5701 20.1446 26.6079 20.1522 26.6432 20.1668C26.6785 20.1815 26.7105 20.2029 26.7374 20.23C26.7919 20.286 26.8225 20.3611 26.8225 20.4392C26.8225 20.5174 26.7919 20.5925 26.7374 20.6485ZM27.9484 26.617C27.8937 26.6713 27.8198 26.7018 27.7427 26.7018C27.6656 26.7018 27.5916 26.6713 27.5369 26.617C27.4824 26.561 27.4519 26.4859 27.4519 26.4077C27.4519 26.3296 27.4824 26.2545 27.5369 26.1985C27.5915 26.1439 27.6655 26.1133 27.7427 26.1133C27.8198 26.1133 27.8939 26.1439 27.9484 26.1985C28.0029 26.2545 28.0335 26.3296 28.0335 26.4077C28.0335 26.4859 28.0029 26.561 27.9484 26.617ZM28.5149 22.8945C28.4603 22.9488 28.3864 22.9792 28.3094 22.9792C28.2324 22.9792 28.1585 22.9488 28.1039 22.8945C28.0494 22.8385 28.0189 22.7634 28.0189 22.6852C28.0189 22.6071 28.0494 22.532 28.1039 22.476C28.1309 22.449 28.1629 22.4276 28.1982 22.413C28.2335 22.3983 28.2713 22.3908 28.3094 22.3908C28.3476 22.3908 28.3854 22.3983 28.4207 22.413C28.4559 22.4276 28.4879 22.449 28.5149 22.476C28.5694 22.532 28.6 22.6071 28.6 22.6852C28.6 22.7634 28.5694 22.8385 28.5149 22.8945ZM26.6054 29.3705L26.6044 29.372C26.5496 29.4265 26.4755 29.4571 26.3982 29.4571C26.3209 29.4571 26.2467 29.4265 26.1919 29.372L26.1899 29.3705C26.1349 29.3139 26.1041 29.2381 26.1041 29.1592C26.1041 29.0803 26.1349 29.0046 26.1899 28.948C26.2172 28.9206 26.2495 28.8989 26.2852 28.8841C26.3208 28.8692 26.3591 28.8616 26.3977 28.8616C26.4363 28.8616 26.4745 28.8692 26.5102 28.8841C26.5458 28.8989 26.5782 28.9206 26.6054 28.948C26.7204 29.0655 26.7204 29.253 26.6054 29.3705ZM25.8744 18.6495L26.0744 18.1145L25.0654 13.617L24.9114 13.391H24.4479L24.2599 13.594V18.429L24.4784 18.65H25.8744V18.6495ZM21.9809 29.4585C21.9809 29.566 22.0274 29.6685 22.1084 29.7395L22.6409 30.2715C22.66 30.2905 22.6811 30.3073 22.7039 30.3215C22.6673 30.4847 22.6821 30.6552 22.7463 30.8096C22.8105 30.964 22.9209 31.0948 23.0624 31.184C23.2034 31.2727 23.3686 31.3151 23.5348 31.3054C23.7011 31.2957 23.8602 31.2344 23.9899 31.13C24.2564 30.915 24.3594 30.555 24.2464 30.2315C24.192 30.0738 24.0899 29.9369 23.9541 29.8398C23.8184 29.7428 23.6558 29.6904 23.4889 29.69C23.3729 29.69 23.2584 29.715 23.1534 29.7645L23.1374 29.748L22.6954 29.3055V25.0535C22.855 24.967 22.9808 24.8295 23.0528 24.6629C23.1248 24.4964 23.1388 24.3104 23.0924 24.135C23.0466 23.9597 22.9428 23.805 22.7979 23.6962C22.653 23.5874 22.4756 23.5307 22.2944 23.5355C22.1134 23.5421 21.9399 23.6094 21.8018 23.7265C21.6636 23.8436 21.5689 24.0037 21.5327 24.1812C21.4965 24.3586 21.521 24.5431 21.6023 24.7049C21.6836 24.8668 21.817 24.9966 21.9809 25.0735V26.915H20.6609V22.294H22.3174C22.3274 22.294 22.3379 22.293 22.3479 22.291C22.4324 22.2846 22.5117 22.2481 22.5714 22.188L23.5294 21.2245C23.666 21.2609 23.8097 21.2605 23.9461 21.2233C24.0824 21.186 24.2064 21.1133 24.3054 21.0125C24.5354 20.7805 24.6039 20.4315 24.4794 20.1285C24.419 19.9807 24.3161 19.8541 24.1838 19.7647C24.0515 19.6754 23.8956 19.6273 23.7359 19.6265C23.6469 19.6265 23.5589 19.6415 23.4749 19.6705L22.6719 18.8635V16.7405C22.7872 16.6829 22.8871 16.5989 22.9636 16.4952C23.0401 16.3915 23.0909 16.2712 23.1119 16.1441C23.1328 16.017 23.1234 15.8867 23.0843 15.764C23.0452 15.6413 22.9776 15.5295 22.8869 15.438C22.8122 15.3629 22.7234 15.3033 22.6256 15.2627C22.5278 15.2221 22.4229 15.2013 22.317 15.2013C22.2111 15.2014 22.1062 15.2225 22.0085 15.2633C21.9107 15.3041 21.822 15.3638 21.7474 15.439C21.6569 15.5305 21.5893 15.6421 21.5503 15.7648C21.5113 15.8874 21.5018 16.0176 21.5228 16.1446C21.5438 16.2716 21.5946 16.3918 21.671 16.4954C21.7474 16.599 21.8473 16.683 21.9624 16.7405V18.949C21.9518 19.018 21.9611 19.0886 21.9894 19.1525L21.9909 19.1555C22.0159 19.2195 22.0599 19.274 22.1149 19.315L22.9734 20.178C22.9114 20.363 22.9169 20.5645 22.9904 20.7455L22.1689 21.5715H20.6614V20.3305L20.4419 20.1095H13.1924L12.9729 20.3295V24.8035L13.1824 25.0135L13.4609 25.295L15.7649 26.064L16.0199 25.8375L15.6704 25.486L14.4704 24.279L14.4009 24.209V21.5455H19.2329V24.1735H17.9879L17.3454 23.527L17.3339 23.516C17.3649 23.3825 17.3614 23.2434 17.3237 23.1117C17.2861 22.98 17.2157 22.86 17.1189 22.763C17.0199 22.6616 16.8958 22.5883 16.7592 22.5505C16.6226 22.5128 16.4785 22.5119 16.3414 22.548C16.2041 22.5843 16.0787 22.6562 15.9782 22.7566C15.8776 22.857 15.8054 22.9822 15.7689 23.1195C15.7318 23.2568 15.7314 23.4015 15.7679 23.539C15.8043 23.6765 15.8762 23.802 15.9764 23.903C16.2129 24.143 16.5734 24.2095 16.8799 24.0705L17.4834 24.6775V26.4685L16.7919 27.1645C16.6458 27.1041 16.4851 27.0886 16.3301 27.12C16.1752 27.1513 16.0331 27.2281 15.9219 27.3405C15.7695 27.493 15.6839 27.6999 15.6839 27.9155C15.6839 28.1311 15.7695 28.3379 15.9219 28.4905C16.1519 28.7205 16.4984 28.789 16.7979 28.6635C16.9785 28.5879 17.1256 28.4493 17.2117 28.2735C17.2979 28.0977 17.3173 27.8966 17.2664 27.7075L17.2799 27.6945L18.0284 26.9415C18.083 26.9068 18.1279 26.8587 18.1588 26.8018C18.1896 26.745 18.2055 26.6812 18.2049 26.6165V24.8955H19.2329V31.757L19.1629 31.827L18.3709 32.624L18.3014 32.694H16.8764V31.574L17.3149 31.134C17.3347 31.1143 17.3519 31.0923 17.3664 31.0685C17.4705 31.1014 17.5801 31.1128 17.6887 31.1022C17.7972 31.0915 17.9025 31.059 17.9982 31.0065C18.0938 30.954 18.1779 30.8827 18.2452 30.7969C18.3125 30.711 18.3618 30.6124 18.3899 30.507C18.4366 30.3346 18.4253 30.1517 18.3578 29.9864C18.2903 29.821 18.1704 29.6825 18.0164 29.592C17.8627 29.5023 17.6836 29.4662 17.5072 29.4893C17.3307 29.5124 17.1669 29.5933 17.0414 29.7195C16.931 29.8303 16.8549 29.9706 16.8221 30.1235C16.7893 30.2765 16.8012 30.4356 16.8564 30.582C16.8389 30.5945 16.8224 30.6085 16.8074 30.624L16.5194 30.914L15.1729 29.5595C15.156 29.5399 15.137 29.5222 15.1164 29.5065L15.1129 29.504C15.0745 29.4745 15.0305 29.4531 14.9836 29.4409C14.9367 29.4287 14.8879 29.426 14.8399 29.433H13.6754L12.9614 27.879C13.062 27.759 13.1254 27.6124 13.1441 27.4569C13.1628 27.3015 13.1359 27.144 13.0666 27.0036C12.9973 26.8633 12.8888 26.746 12.7541 26.6663C12.6194 26.5865 12.4644 26.5477 12.308 26.5544C12.1516 26.5612 12.0005 26.6133 11.8732 26.7044C11.7459 26.7955 11.6479 26.9217 11.591 27.0675C11.5341 27.2133 11.5209 27.3726 11.553 27.5258C11.585 27.679 11.6609 27.8196 11.7714 27.9305C11.9149 28.0755 12.1084 28.161 12.3119 28.169L13.1019 29.886C13.1167 29.9361 13.142 29.9826 13.1763 30.0221C13.2105 30.0616 13.2529 30.0933 13.3004 30.115L13.3029 30.116C13.3644 30.1445 13.4319 30.156 13.4989 30.1475H14.7514L16.1654 31.57V32.694H15.4244L15.3544 32.624L14.7329 31.9985L14.5234 31.7885H12.7629L12.6929 31.7185L11.0554 30.071L10.9859 30.001V29.0115L10.7769 28.8025L10.1464 28.169L10.1014 28.124L10.0844 28.059L9.01543 23.928L9.00743 23.9V23.648L10.2474 24.2205V24.2355C10.2474 24.4495 10.3324 24.654 10.4824 24.8055C10.7839 25.111 11.2704 25.1255 11.5894 24.839C11.9084 24.5525 11.9494 24.064 11.6809 23.729C11.5525 23.5677 11.3668 23.4621 11.1625 23.4341C10.9582 23.4062 10.751 23.4581 10.5839 23.579L9.00743 22.8505V18.4545L9.07643 18.3845L9.96743 17.4885H9.96793L10.1774 17.279V16.7555H11.2834L11.7554 17.9575C11.7628 17.9762 11.7719 17.9943 11.7824 18.0115L10.6534 19.1465C10.5874 19.2131 10.5497 19.3027 10.5484 19.3965V20.2255C10.4342 20.2838 10.3353 20.3682 10.2597 20.4719C10.1842 20.5756 10.1342 20.6956 10.1137 20.8222C10.0933 20.9489 10.1029 21.0785 10.142 21.2007C10.181 21.3229 10.2483 21.4342 10.3384 21.5255C10.4131 21.6006 10.5018 21.6601 10.5995 21.7008C10.6973 21.7415 10.8021 21.7624 10.9079 21.7624C11.0138 21.7624 11.1186 21.7415 11.2163 21.7008C11.3141 21.6601 11.4028 21.6006 11.4774 21.5255C11.5678 21.4342 11.6353 21.3229 11.6744 21.2006C11.7135 21.0783 11.7232 20.9484 11.7025 20.8217C11.6819 20.6949 11.6316 20.5748 11.5557 20.4712C11.4798 20.3676 11.3805 20.2834 11.2659 20.2255V19.5505L13.5174 17.286C13.5282 17.2762 13.5382 17.2657 13.5474 17.2545L13.5489 17.2525L13.5599 17.2375L13.5629 17.234L13.5649 17.2305L13.5679 17.2265L13.5704 17.223C13.6087 17.164 13.629 17.0953 13.6289 17.025V14.6045L15.7354 15.836C15.7094 16.0795 15.7944 16.321 15.9659 16.493C16.2609 16.793 16.7359 16.814 17.0569 16.542C17.2112 16.4098 17.3106 16.2248 17.3356 16.0231C17.3606 15.8215 17.3093 15.6178 17.1919 15.452C17.0748 15.2869 16.8995 15.1722 16.7014 15.1309C16.5032 15.0897 16.2967 15.1249 16.1234 15.2295L13.4724 13.679C13.4186 13.642 13.3556 13.6204 13.2904 13.6167C13.2251 13.613 13.1601 13.6273 13.1024 13.658C13.0445 13.6888 12.996 13.7348 12.9623 13.7911C12.9285 13.8474 12.9108 13.9119 12.9109 13.9775V16.8755L12.3274 17.4625L11.8579 16.267H11.8574C11.8305 16.1988 11.7838 16.1402 11.7233 16.0988C11.6628 16.0573 11.5913 16.035 11.5179 16.0345H10.1769V15.5295L10.2464 15.46L11.2734 14.4275L11.4824 14.2185V12.3665L11.5524 12.2955L14.1984 9.63449H15.3519L15.5614 9.42349L16.4349 8.54549L16.5049 8.47549H18.5069L18.5954 8.26049L16.9919 7.03949H15.9129L15.7039 7.24949L14.8309 8.12849L14.7609 8.19849H13.6059L13.3979 8.40849V8.40949L10.2639 11.5615H10.2629L10.0539 11.771V13.6225L9.98443 13.6925L8.95843 14.725H8.95743L8.74893 14.934V16.683L8.67893 16.753L7.79143 17.646L7.58643 17.853V24.0905L7.60743 24.173L8.77393 28.6765L8.82393 28.8695L8.95843 29.0045L9.48843 29.5375L9.55743 29.6075V30.5955L9.76693 30.8065L11.9619 33.0145L12.1714 33.225H13.9329L14.0024 33.295L14.6204 33.917L14.8254 34.1235H18.8969L20.6614 32.3565V27.637H21.9814V29.4585H21.9809ZM23.2834 30.2935C23.3104 30.2664 23.3424 30.245 23.3777 30.2303C23.4129 30.2157 23.4507 30.2081 23.4889 30.2081C23.5271 30.2081 23.5649 30.2157 23.6002 30.2303C23.6355 30.245 23.6675 30.2664 23.6944 30.2935C23.7489 30.3495 23.7795 30.4246 23.7795 30.5027C23.7795 30.5809 23.7489 30.656 23.6944 30.712C23.6398 30.7663 23.5659 30.7967 23.4889 30.7967C23.4119 30.7967 23.338 30.7663 23.2834 30.712C23.2289 30.656 23.1984 30.5809 23.1984 30.5027C23.1984 30.4246 23.2289 30.3495 23.2834 30.2935ZM22.1119 24.127C22.1389 24.0999 22.1709 24.0783 22.2062 24.0636C22.2416 24.0489 22.2794 24.0414 22.3177 24.0414C22.3559 24.0414 22.3938 24.0489 22.4291 24.0636C22.4644 24.0783 22.4965 24.0999 22.5234 24.127C22.5779 24.183 22.6085 24.2581 22.6085 24.3362C22.6085 24.4144 22.5779 24.4895 22.5234 24.5455C22.4687 24.5998 22.3948 24.6303 22.3177 24.6303C22.2406 24.6303 22.1666 24.5998 22.1119 24.5455C22.0574 24.4895 22.0269 24.4144 22.0269 24.3362C22.0269 24.2581 22.0574 24.183 22.1119 24.127ZM22.5234 16.2205C22.4689 16.2751 22.3948 16.3057 22.3177 16.3057C22.2405 16.3057 22.1665 16.2751 22.1119 16.2205C22.0574 16.1645 22.0269 16.0894 22.0269 16.0112C22.0269 15.9331 22.0574 15.858 22.1119 15.802C22.1389 15.7749 22.1709 15.7533 22.2062 15.7386C22.2416 15.7239 22.2794 15.7164 22.3177 15.7164C22.3559 15.7164 22.3938 15.7239 22.4291 15.7386C22.4644 15.7533 22.4965 15.7749 22.5234 15.802C22.5779 15.858 22.6085 15.9331 22.6085 16.0112C22.6085 16.0894 22.5779 16.1645 22.5234 16.2205ZM23.5299 20.23C23.5569 20.2029 23.5889 20.1813 23.6242 20.1666C23.6596 20.1519 23.6974 20.1444 23.7357 20.1444C23.7739 20.1444 23.8118 20.1519 23.8471 20.1666C23.8824 20.1813 23.9145 20.2029 23.9414 20.23C23.9959 20.286 24.0265 20.3611 24.0265 20.4392C24.0265 20.5174 23.9959 20.5925 23.9414 20.6485C23.9144 20.6756 23.8824 20.697 23.8471 20.7117C23.8118 20.7264 23.7739 20.7339 23.7357 20.7339C23.6974 20.7339 23.6596 20.7264 23.6243 20.7117C23.589 20.697 23.5569 20.6756 23.5299 20.6485C23.4754 20.5925 23.4449 20.5174 23.4449 20.4392C23.4449 20.3611 23.4754 20.286 23.5299 20.23ZM16.7554 23.545L16.7544 23.546C16.6994 23.6003 16.6252 23.6307 16.5479 23.6307C16.4706 23.6307 16.3964 23.6003 16.3414 23.546L16.3399 23.5445C16.2848 23.4879 16.2539 23.412 16.2539 23.333C16.2539 23.254 16.2848 23.1781 16.3399 23.1215C16.3671 23.0942 16.3993 23.0725 16.4349 23.0577C16.4704 23.0429 16.5085 23.0352 16.547 23.0351C16.5855 23.035 16.6236 23.0425 16.6592 23.0572C16.6948 23.0718 16.7272 23.0933 16.7544 23.1205L16.7554 23.1215C16.8105 23.1781 16.8413 23.254 16.8413 23.333C16.8413 23.412 16.8105 23.4878 16.7554 23.5445V23.545ZM16.6989 28.1245C16.6428 28.1796 16.5673 28.2105 16.4887 28.2105C16.41 28.2105 16.3345 28.1796 16.2784 28.1245L16.2774 28.1235C16.2229 28.068 16.1924 27.9933 16.1924 27.9155C16.1924 27.8377 16.2229 27.763 16.2774 27.7075L16.2784 27.7065C16.3344 27.6511 16.41 27.6201 16.4887 27.6201C16.5674 27.6201 16.643 27.6511 16.6989 27.7065C16.7539 27.7622 16.7847 27.8373 16.7847 27.9155C16.7847 27.9937 16.7539 28.0688 16.6989 28.1245ZM17.3974 30.0865H17.3984C17.4545 30.0312 17.5302 30.0002 17.6089 30.0002C17.6877 30.0002 17.7633 30.0312 17.8194 30.0865C17.8741 30.1422 17.9048 30.2172 17.9048 30.2952C17.9048 30.3733 17.8741 30.4483 17.8194 30.504C17.7633 30.5593 17.6877 30.5902 17.6089 30.5902C17.5302 30.5902 17.4545 30.5593 17.3984 30.504L17.3974 30.503C17.3429 30.4475 17.3124 30.3728 17.3124 30.295C17.3124 30.2172 17.3429 30.1425 17.3974 30.087V30.0865ZM12.5514 27.5725L12.5494 27.573C12.4946 27.6275 12.4205 27.6581 12.3432 27.6581C12.2659 27.6581 12.1917 27.6275 12.1369 27.573L12.1354 27.5725C12.0803 27.5159 12.0494 27.44 12.0494 27.361C12.0494 27.282 12.0803 27.2061 12.1354 27.1495L12.1369 27.1485C12.1917 27.094 12.2659 27.0634 12.3432 27.0634C12.4205 27.0634 12.4946 27.094 12.5494 27.1485L12.5509 27.1495C12.606 27.2061 12.6368 27.282 12.6368 27.361C12.6368 27.44 12.606 27.5158 12.5509 27.5725H12.5514ZM10.8469 24.0245C10.8741 23.9972 10.9064 23.9755 10.942 23.9608C10.9775 23.946 11.0157 23.9384 11.0542 23.9384C11.0927 23.9384 11.1308 23.946 11.1664 23.9608C11.202 23.9755 11.2342 23.9972 11.2614 24.0245C11.3764 24.1425 11.3764 24.33 11.2614 24.4475C11.2067 24.5025 11.1324 24.5336 11.0547 24.5339C10.9771 24.5342 10.9026 24.5036 10.8474 24.449L10.8469 24.4475C10.7918 24.3909 10.7609 24.315 10.7609 24.236C10.7609 24.157 10.7918 24.0811 10.8469 24.0245ZM11.1129 21.1615C11.086 21.1886 11.0539 21.2102 11.0186 21.2249C10.9833 21.2396 10.9454 21.2471 10.9072 21.2471C10.8689 21.2471 10.8311 21.2396 10.7957 21.2249C10.7604 21.2102 10.7284 21.1886 10.7014 21.1615C10.6471 21.1055 10.6166 21.0305 10.6166 20.9525C10.6166 20.8744 10.6471 20.7995 10.7014 20.7435C10.7284 20.7163 10.7605 20.6947 10.7958 20.6799C10.8312 20.6652 10.8691 20.6576 10.9074 20.6576C10.9457 20.6576 10.9837 20.6652 11.019 20.6799C11.0544 20.6947 11.0865 20.7163 11.1134 20.7435C11.1678 20.7995 11.1982 20.8744 11.1982 20.9525C11.1982 21.0305 11.1678 21.1055 11.1134 21.1615H11.1129ZM16.3299 15.7115H16.3309C16.3581 15.6842 16.3904 15.6625 16.426 15.6478C16.4615 15.633 16.4997 15.6254 16.5382 15.6254C16.5767 15.6254 16.6148 15.633 16.6504 15.6478C16.686 15.6625 16.7183 15.6842 16.7454 15.7115C16.8604 15.8295 16.8604 16.0175 16.7454 16.135C16.7183 16.1623 16.686 16.184 16.6505 16.1988C16.615 16.2136 16.5769 16.2213 16.5384 16.2214C16.4999 16.2215 16.4618 16.214 16.4262 16.1993C16.3906 16.1847 16.3582 16.1632 16.3309 16.136L16.3299 16.135C16.2746 16.0784 16.2437 16.0024 16.2437 15.9232C16.2437 15.8441 16.2746 15.7681 16.3299 15.7115Z" fill="white"/>
</g>
<defs>
<clipPath id="clip0_25_1874">
<rect width="40" height="40" fill="white" transform="translate(0 0.5)"/>
</clipPath>
</defs>
</svg>
