<svg width="40" height="40" viewBox="0 0 40 40" fill="none" xmlns="http://www.w3.org/2000/svg">
<g clip-path="url(#clip0_25_3137)">
<mask id="mask0_25_3137" style="mask-type:alpha" maskUnits="userSpaceOnUse" x="0" y="0" width="40" height="40">
<path d="M0 20C0 8.954 8.95467 0 19.9967 0H20.0033C31.0473 0 40 8.952 40 20C40 31.046 31.048 40 20 40C8.954 40 0 31.048 0 20Z" fill="white"/>
</mask>
<g mask="url(#mask0_25_3137)">
<path d="M20 0C31.046 0 40 8.95467 40 19.9967V20.0033C40 31.0473 31.048 40 20 40C8.954 40 0 31.048 0 20C0 8.954 8.952 0 20 0Z" fill="black"/>
<path fill-rule="evenodd" clip-rule="evenodd" d="M-0.677307 17.7313L10.8994 22.738C11.9092 22.0462 13.12 21.7091 14.342 21.7793L19.028 14.9867C19.028 10.802 22.354 7.47601 26.442 7.47601C30.5307 7.47601 33.8567 10.8027 33.8567 14.8907C33.8567 18.9793 30.5307 22.306 26.442 22.306C26.386 22.306 26.33 22.3047 26.274 22.3033L19.59 27.072C19.594 27.1587 19.5967 27.2473 19.5967 27.3353C19.5967 30.4047 17.1007 32.9007 14.0314 32.9007C11.338 32.9007 9.08536 30.978 8.57536 28.432L2.6226e-05 24.6667L-0.677307 17.7313Z" fill="white"/>
<path fill-rule="evenodd" clip-rule="evenodd" d="M12.6827 30.13L10.268 29.132C10.7086 30.0559 11.4746 30.7847 12.4193 31.1786C13.4419 31.6036 14.5914 31.6054 15.6153 31.1837C16.6392 30.762 17.454 29.9512 17.8807 28.9293C18.0931 28.4235 18.203 27.8806 18.2042 27.332C18.2053 26.7834 18.0976 26.24 17.8873 25.7333C17.6797 25.2254 17.3734 24.7636 16.9861 24.3748C16.5989 23.986 16.1384 23.6778 15.6313 23.468C14.6491 23.0594 13.5476 23.0427 12.5533 23.4213L15.0487 24.4526C15.7982 24.7686 16.3921 25.3687 16.7002 26.1215C17.0084 26.8744 17.0057 27.7186 16.6928 28.4695C16.3799 29.2204 15.7822 29.8167 15.0306 30.1279C14.2791 30.4391 13.4348 30.4398 12.6827 30.13ZM22.7393 14.882C22.7328 14.3905 22.8239 13.9025 23.0074 13.4465C23.191 12.9905 23.4633 12.5755 23.8085 12.2256C24.1538 11.8757 24.5651 11.5978 25.0186 11.4082C25.4721 11.2186 25.9588 11.1209 26.4503 11.1209C26.9419 11.1209 27.4286 11.2186 27.8821 11.4082C28.3356 11.5978 28.7469 11.8757 29.0922 12.2256C29.4374 12.5755 29.7097 12.9905 29.8933 13.4465C30.0768 13.9025 30.1679 14.3905 30.1613 14.882C30.1483 15.8576 29.7515 16.7888 29.057 17.4741C28.3625 18.1594 27.426 18.5436 26.4503 18.5436C25.4746 18.5436 24.5382 18.1594 23.8437 17.4741C23.1491 16.7888 22.7524 15.8576 22.7393 14.882ZM31.3827 14.8906C31.3827 12.1666 29.166 9.94998 26.4427 9.94998C23.718 9.94998 21.5013 12.1666 21.5013 14.8906C21.5013 17.6146 23.718 19.8306 26.442 19.8306C29.166 19.8306 31.3827 17.6146 31.3827 14.8906Z" fill="#1A1918"/>
</g>
</g>
<defs>
<clipPath id="clip0_25_3137">
<rect width="40" height="40" fill="white"/>
</clipPath>
</defs>
</svg>
