<svg width="40" height="40" viewBox="0 0 40 40" fill="none" xmlns="http://www.w3.org/2000/svg">
<g clip-path="url(#clip0_25_1278)">
<path d="M20 40C31.0457 40 40 31.0457 40 20C40 8.9543 31.0457 0 20 0C8.9543 0 0 8.9543 0 20C0 31.0457 8.9543 40 20 40Z" fill="black"/>
<path d="M26.6015 13.982H26.764V13.197H27.056V13.0585H26.3105V13.197H26.6015V13.982ZM27.3145 13.2685H27.3175L27.5735 13.982H27.7055L27.9615 13.2685H27.9655V13.982H28.1175V13.0585H27.894L27.6465 13.781H27.6425L27.3885 13.0585H27.161V13.982H27.3145V13.2685ZM22.65 13.0575H12.547L11.014 15.521H21.105L22.65 13.0575ZM24.715 13.081L18.5385 22.916H11.6875L13.268 20.4505H17.3745L18.943 17.9855H9.45L7.8815 20.4505H10.1305L7.0105 25.373H20.032L24.8415 17.788L26.595 20.4505H25.014L23.5165 22.916H28.199L29.825 25.373H32.812L24.715 13.081Z" fill="white"/>
</g>
<defs>
<clipPath id="clip0_25_1278">
<rect width="40" height="40" fill="white"/>
</clipPath>
</defs>
</svg>
