<svg width="40" height="40" viewBox="0 0 40 40" fill="none" xmlns="http://www.w3.org/2000/svg">
<g clip-path="url(#clip0_25_726)">
<mask id="mask0_25_726" style="mask-type:alpha" maskUnits="userSpaceOnUse" x="0" y="0" width="40" height="40">
<path d="M19.802 39.6033C30.738 39.6033 39.6033 30.738 39.6033 19.802C39.6033 8.86533 30.738 0 19.802 0C8.86533 0 0 8.86533 0 19.802C0 30.738 8.86533 39.6033 19.802 39.6033Z" fill="white"/>
</mask>
<g mask="url(#mask0_25_726)">
<path d="M19.802 39.6033C30.738 39.6033 39.6033 30.738 39.6033 19.802C39.6033 8.86533 30.738 0 19.802 0C8.86533 0 0 8.86533 0 19.802C0 30.738 8.86533 39.6033 19.802 39.6033Z" fill="#C01D1C"/>
<mask id="mask1_25_726" style="mask-type:alpha" maskUnits="userSpaceOnUse" x="-1" y="-1" width="42" height="42">
<path d="M19.966 40.2887H40.5986V-0.559967H-0.666687V40.288H19.9666L19.966 40.2887Z" fill="white"/>
</mask>
<g mask="url(#mask1_25_726)">
<path fill-rule="evenodd" clip-rule="evenodd" d="M40.5986 19.865C40.5986 31.145 31.3606 40.289 19.9653 40.289C8.57198 40.289 -0.666687 31.145 -0.666687 19.865C-0.666687 8.58504 8.57131 -0.55896 19.9666 -0.55896C31.3613 -0.55896 40.5993 8.58504 40.5993 19.865" fill="#F61F29"/>
</g>
<mask id="mask2_25_726" style="mask-type:alpha" maskUnits="userSpaceOnUse" x="7" y="7" width="25" height="25">
<path d="M31.932 31.9467H7.33331V7.33334H31.932V31.9467Z" fill="white"/>
</mask>
<g mask="url(#mask2_25_726)">
<path fill-rule="evenodd" clip-rule="evenodd" d="M29.4812 21.0468C29.0765 23.9968 27.2672 26.7148 24.6945 28.2161C25.3278 25.9934 25.5198 23.6748 25.4498 21.3721C26.0045 21.5221 26.5558 21.6888 27.1045 21.8588C26.3678 19.9988 25.5172 18.1814 24.4692 16.4761C23.5565 18.2474 22.3405 19.8461 20.9892 21.3048C21.6738 21.2754 22.3558 21.2114 23.0398 21.1928C21.9825 23.0874 20.3818 24.7234 18.3538 25.5608C17.4925 25.9301 16.5732 26.1514 15.6485 26.2941C15.1512 23.7514 15.3065 21.0661 16.1818 18.6228C16.8112 16.8794 17.9098 15.2668 19.4612 14.2241C19.6038 14.8741 19.7345 15.5281 19.8758 16.1788C20.8845 14.6628 22.1625 13.3554 23.4072 12.0341C21.5005 11.2608 19.3658 11.0981 17.3478 11.4634C17.7012 11.7788 18.0612 12.0868 18.4225 12.3954C16.5438 13.2054 14.7612 14.2981 13.3332 15.7781C11.7905 17.2774 10.6612 19.1448 9.76715 21.0874C9.45182 18.7328 9.96648 16.2654 11.2718 14.2741C12.4185 12.4821 14.1645 11.0848 16.1565 10.3421C18.1874 9.58657 20.4095 9.51448 22.4852 10.1368C24.9972 10.8834 27.1832 12.6661 28.4038 14.9881C29.3977 16.8421 29.7751 18.9645 29.4812 21.0474V21.0468ZM31.3745 15.9601C30.5513 13.3292 28.8679 11.0513 26.5945 9.4921C24.4832 8.02343 21.8932 7.27877 19.3265 7.33677C15.5198 7.40277 11.8145 9.36543 9.61782 12.4754C8.13582 14.5401 7.30782 17.0788 7.33382 19.6248C7.29782 22.4341 8.30715 25.2354 10.0865 27.4054C11.8912 29.6421 14.5105 31.2101 17.3398 31.7321C19.9232 32.2241 22.6665 31.8654 25.0265 30.6954C27.8065 29.3554 30.0345 26.9154 31.1265 24.0268C32.1085 21.4668 32.1938 18.5761 31.3745 15.9601Z" fill="white"/>
</g>
</g>
</g>
<defs>
<clipPath id="clip0_25_726">
<rect width="40" height="40" fill="white"/>
</clipPath>
</defs>
</svg>
