<svg width="40" height="40" viewBox="0 0 40 40" fill="none" xmlns="http://www.w3.org/2000/svg">
<g clip-path="url(#clip0_25_1582)">
<path d="M40 20C40 31.0667 31.0667 40 20 40C8.93333 40 0 31.0667 0 20C0 8.93333 8.93333 0 20 0C31.0667 0 40 8.93333 40 20Z" fill="black"/>
<path d="M24.3333 19.2C24.3333 16.8667 26.2 15.7333 26.3333 15.7333C25.2666 14.1333 23.5999 13.9333 23 13.9333C21.5999 13.8 20.2 14.8 19.4666 14.8C18.7333 14.8 17.5999 14 16.3999 14C14.8666 14 13.3999 14.9333 12.6666 16.2667C11.0666 19.0667 12.2666 23.2 13.7999 25.4667C14.5999 26.6 15.4666 27.8 16.6666 27.8C17.8666 27.7333 18.2666 27.0667 19.6666 27.0667C21.0666 27.0667 21.4666 27.8 22.6666 27.8C23.9333 27.8 24.7333 26.6667 25.4666 25.5333C26.4 24.2667 26.7333 23 26.7333 22.9333C26.7999 22.9333 24.4 22 24.3333 19.2ZM22.0666 12.4C22.6666 11.6 23.1333 10.5333 23 9.46668C22.0666 9.53335 20.9333 10.0667 20.3333 10.8667C19.7333 11.5333 19.2666 12.6667 19.3999 13.6667C20.3333 13.8 21.3999 13.2 22.0666 12.4Z" fill="white"/>
</g>
<defs>
<clipPath id="clip0_25_1582">
<rect width="40" height="40" fill="white"/>
</clipPath>
</defs>
</svg>
