<svg width="40" height="40" viewBox="0 0 40 40" fill="none" xmlns="http://www.w3.org/2000/svg">
<g clip-path="url(#clip0_25_1663)">
<path d="M839.8 -197.63H-345.68C-375.923 -197.63 -400.44 -173.113 -400.44 -142.87V384.11C-400.44 414.353 -375.923 438.87 -345.68 438.87H839.8C870.043 438.87 894.56 414.353 894.56 384.11V-142.87C894.56 -173.113 870.043 -197.63 839.8 -197.63Z" stroke="#FFB3CE" stroke-width="2.82" stroke-miterlimit="10"/>
<path d="M40 20C40 8.9543 31.0457 0 20 0C8.9543 0 0 8.9543 0 20C0 31.0457 8.9543 40 20 40C31.0457 40 40 31.0457 40 20Z" fill="#91B82B"/>
<path d="M20.05 17.36C23.1984 19.8184 25.8635 22.8395 27.91 26.27C29.1 28.41 28.86 29.16 26.79 30.49C24.6387 31.8857 22.1107 32.5872 19.5479 32.4995C16.985 32.4119 14.5109 31.5394 12.46 30C11.32 29.14 11.17 28.63 11.66 27.26C12.2655 25.776 13.11 24.4011 14.16 23.19C15.8705 21.0069 17.8494 19.0481 20.05 17.36ZM9.85996 27.3C8.67405 25.7551 7.90914 23.9289 7.63996 22C7.33766 20.1681 7.45026 18.2917 7.96947 16.5091C8.48868 14.7265 9.40126 13.0831 10.64 11.7C11.32 10.92 11.64 10.84 12.56 11.31C13.9667 12.0922 15.2311 13.1065 16.3 14.31C13.51 18.31 10.32 22.17 9.85996 27.3ZM30 27.56C30.1552 25.8831 29.807 24.1981 29 22.72C27.7434 20.0057 26.1727 17.4482 24.32 15.1L23.7 14.29C24.785 13.0833 26.0664 12.069 27.49 11.29C28.43 10.83 28.72 10.92 29.4 11.71C31.2203 13.7435 32.3226 16.3184 32.5376 19.0391C32.7526 21.7598 32.0683 24.4759 30.59 26.77C30.37 27 30.19 27.21 30 27.56ZM20 11.22C18.13 10.22 16.28 9.11001 14 9.22001C17 7.07001 22.45 6.86001 26 9.00001C24.9865 9.20085 23.9849 9.45791 23 9.77001C21.9756 10.2012 20.9742 10.6851 20 11.22Z" fill="white"/>
</g>
<defs>
<clipPath id="clip0_25_1663">
<rect width="40" height="40" fill="white"/>
</clipPath>
</defs>
</svg>
