<svg width="40" height="40" viewBox="0 0 40 40" fill="none" xmlns="http://www.w3.org/2000/svg">
<g clip-path="url(#clip0_3_1806)">
<mask id="mask0_3_1806" style="mask-type:alpha" maskUnits="userSpaceOnUse" x="0" y="0" width="40" height="40">
<path d="M20 0C31.0455 0 40 8.9545 40 20C40 31.0455 31.0455 40 20 40C8.9545 40 0 31.0455 0 20C0 8.9545 8.9545 0 20 0Z" fill="white"/>
</mask>
<g mask="url(#mask0_3_1806)">
<path d="M20 0C31.0455 0 40 8.9545 40 20C40 31.0455 31.0455 40 20 40C8.9545 40 0 31.0455 0 20C0 8.9545 8.9545 0 20 0Z" fill="#D8D8D8"/>
<path d="M9.43402 57.107C29.9277 57.107 46.541 40.4936 46.541 20C46.541 -0.493626 29.9277 -17.107 9.43402 -17.107C-11.0596 -17.107 -27.673 -0.493626 -27.673 20C-27.673 40.4936 -11.0596 57.107 9.43402 57.107Z" fill="#2E46E5"/>
<path d="M9.72897 46.1475C24.0069 46.1475 35.5815 34.5729 35.5815 20.295C35.5815 6.01706 24.0069 -5.5575 9.72897 -5.5575C-4.54898 -5.5575 -16.1235 6.01706 -16.1235 20.295C-16.1235 34.5729 -4.54898 46.1475 9.72897 46.1475Z" fill="#185DF2"/>
<path d="M9.61098 35.808C18.2437 35.808 25.242 28.8098 25.242 20.177C25.242 11.5442 18.2437 4.54601 9.61098 4.54601C0.978218 4.54601 -6.02002 11.5442 -6.02002 20.177C-6.02002 28.8098 0.978218 35.808 9.61098 35.808Z" fill="#0080FF"/>
<path d="M9.78795 28.14C14.088 28.14 17.574 24.6541 17.574 20.354C17.574 16.0539 14.088 12.568 9.78795 12.568C5.48786 12.568 2.00195 16.0539 2.00195 20.354C2.00195 24.6541 5.48786 28.14 9.78795 28.14Z" fill="#3399FF"/>
<path fill-rule="evenodd" clip-rule="evenodd" d="M7.27344 17.188H12.1549V22.939H10.8709V18.23H8.55744V22.94H7.27344V17.1875V17.188ZM14.0924 20.9C14.1734 20.5235 14.2274 20.034 14.2524 19.432C14.2784 18.83 14.2914 18.082 14.2914 17.188H18.4204V22.939H17.1364V18.23H15.4649C15.4541 18.903 15.4246 19.5756 15.3764 20.247C15.3319 20.8305 15.2414 21.3235 15.1049 21.726C14.9684 22.129 14.7729 22.437 14.5184 22.651C14.2634 22.866 13.9224 22.973 13.4944 22.973C13.3797 22.9732 13.2651 22.9656 13.1514 22.9505V21.754C13.2254 21.769 13.2804 21.776 13.3174 21.776C13.5169 21.776 13.6774 21.704 13.7989 21.56C13.9209 21.416 14.0189 21.196 14.0924 20.9005V20.9ZM27.4309 20.058C27.4309 20.538 27.3609 20.963 27.2209 21.3325C27.0804 21.7015 26.8864 22.014 26.6394 22.2685C26.393 22.5229 26.0948 22.7214 25.7649 22.8505C25.4176 22.9856 25.0476 23.0533 24.6749 23.05C24.3199 23.05 23.9884 22.9945 23.6784 22.8835C23.3748 22.7765 23.0961 22.6087 22.8594 22.3905C22.6161 22.1631 22.4171 21.8925 22.2724 21.5925C22.1174 21.279 22.0179 20.9185 21.9734 20.5125H21.1549V22.939H19.8709V17.188H21.1549V19.4705H21.9964C22.0479 19.0865 22.1514 18.745 22.3064 18.4455C22.4614 18.1465 22.6564 17.8955 22.8929 17.692C23.1302 17.4882 23.4045 17.332 23.7009 17.232C24.0148 17.1268 24.3439 17.0744 24.6749 17.077C25.0664 17.077 25.4299 17.142 25.7654 17.271C26.0957 17.3967 26.3942 17.5935 26.6399 17.8475C26.8958 18.1164 27.0935 18.435 27.2209 18.7835C27.3609 19.1535 27.4309 19.578 27.4309 20.058ZM24.6744 21.975C24.8699 21.9789 25.0638 21.9392 25.2419 21.8588C25.4201 21.7784 25.5781 21.6592 25.7044 21.51C25.9769 21.1995 26.1134 20.7155 26.1134 20.058C26.1134 19.408 25.9769 18.926 25.7039 18.612C25.4309 18.298 25.0879 18.141 24.6744 18.141C24.2689 18.141 23.9309 18.296 23.6619 18.606C23.3919 18.9165 23.2579 19.4005 23.2579 20.058C23.2579 20.7155 23.3924 21.1995 23.6619 21.5095C23.9309 21.8195 24.2689 21.975 24.6744 21.975ZM31.1614 23.05C30.6964 23.05 30.2794 22.9815 29.9104 22.845C29.5583 22.7189 29.2374 22.5185 28.9694 22.2575C28.7047 21.9924 28.5008 21.6728 28.3719 21.321C28.2319 20.952 28.1614 20.531 28.1614 20.058C28.1614 19.593 28.2314 19.175 28.3714 18.806C28.5004 18.4541 28.7045 18.1346 28.9694 17.8695C29.2279 17.6145 29.5449 17.419 29.9214 17.282C30.2979 17.1455 30.7184 17.077 31.1834 17.077C31.5819 17.077 31.9304 17.1215 32.2294 17.21C32.5284 17.299 32.7664 17.41 32.9434 17.5425V18.6065C32.7118 18.4574 32.4604 18.3418 32.1964 18.263C31.9264 18.1815 31.6149 18.141 31.2609 18.141C30.0729 18.141 29.4789 18.78 29.4789 20.058C29.4789 21.336 30.0619 21.975 31.2274 21.975C31.6039 21.975 31.9269 21.9325 32.1964 21.8475C32.4568 21.7664 32.7073 21.6568 32.9434 21.5205V22.5845C32.7514 22.71 32.5119 22.8195 32.2234 22.9115C31.9359 23.0035 31.5819 23.05 31.1614 23.05Z" fill="white"/>
</g>
</g>
<defs>
<clipPath id="clip0_3_1806">
<rect width="40" height="40" fill="white"/>
</clipPath>
</defs>
</svg>
