<svg width="40" height="40" viewBox="0 0 40 40" fill="none" xmlns="http://www.w3.org/2000/svg">
<circle cx="20" cy="20" r="20" fill="#231F20"/>
<path fill-rule="evenodd" clip-rule="evenodd" d="M1 20C1 30.4753 9.52467 39 20 39C30.4753 39 39 30.4753 39 20C39 9.52467 30.4753 1 20 1C9.52467 1 1 9.52467 1 20ZM2.22867 20C2.22867 10.196 10.196 2.22867 20 2.22867C29.804 2.22867 37.7713 10.196 37.7713 20C37.7713 29.804 29.804 37.7713 20 37.7713C10.196 37.7713 2.22867 29.804 2.22867 20ZM11.108 16.6307C11.108 13.2613 12.9447 11.4247 15.098 11.4247C16.9949 11.4247 17.4567 11.6606 19.2109 12.5566C19.4481 12.6778 19.7088 12.811 20 12.9573C22.4447 14.186 23.0653 14.49 24.294 14.49C25.5227 14.49 26.1307 13.5653 26.1307 11.7287H28.2713C28.5753 15.402 26.4347 16.9347 24.2813 16.9347C22.128 16.9347 21.52 16.6307 19.3793 15.402C17.2387 14.1733 16.618 13.8693 15.3893 13.8693C14.1607 13.8693 13.5527 14.794 13.2487 16.9347L11.108 16.6307ZM20.9247 17.8593V31.0327H18.4673V16.9347L20.9247 17.8593Z" fill="white"/>
</svg>
