<svg width="40" height="40" viewBox="0 0 40 40" fill="none" xmlns="http://www.w3.org/2000/svg">
<circle cx="20" cy="20" r="20" fill="#783BF9"/>
<path fill-rule="evenodd" clip-rule="evenodd" d="M14.2469 22.5355C13.3539 22.5355 12.6311 21.8101 12.6311 20.9196C12.6311 20.0266 13.3564 19.3012 14.2569 19.3012C15.1499 19.3012 15.8728 20.0266 15.8728 20.9196C15.8728 21.8101 15.1474 22.5355 14.2594 22.5355H14.2469ZM14.2594 18.3432C12.8337 18.3432 11.683 19.4938 11.683 20.9196C11.683 22.3404 12.8337 23.496 14.2594 23.496C14.8848 23.496 15.4601 23.2659 15.9103 22.8907V23.4284H16.8283V20.9196C16.8283 19.4938 15.6777 18.3432 14.2594 18.3432ZM8.56137 22.5355C7.67089 22.5355 6.94551 21.8101 6.94551 20.9196C6.94551 20.0266 7.67089 19.3012 8.55887 19.3012C9.44685 19.3012 10.1747 20.0266 10.1747 20.9196C10.1747 21.8101 9.44935 22.5355 8.55887 22.5355H8.56137ZM8.55887 18.3432C7.94354 18.3432 7.37824 18.5608 6.933 18.9185V17H6V20.9171C6 22.3429 7.15062 23.4935 8.57138 23.4935C9.99214 23.4935 11.1478 22.3429 11.1478 20.9171C11.1478 19.4963 9.99214 18.3407 8.57138 18.3407L8.55887 18.3432ZM25.7256 22.5355C24.8351 22.5355 24.1097 21.8101 24.1097 20.9196C24.1097 20.0266 24.8351 19.3012 25.7256 19.3012C26.616 19.3012 27.3389 20.0266 27.3389 20.9196C27.3389 21.8101 26.6286 22.5355 25.7381 22.5355H25.7256ZM25.7381 18.3432C24.3123 18.3432 23.1617 19.4938 23.1617 20.9196C23.1617 22.3404 24.3123 23.496 25.7381 23.496C27.1588 23.496 28.3095 22.3404 28.3095 20.9196C28.3095 19.4938 27.1588 18.3432 25.7381 18.3432ZM31.4161 22.5355C30.5231 22.5355 29.7977 21.8101 29.7977 20.9196C29.7977 20.0266 30.5231 19.3012 31.4186 19.3012C32.3141 19.3012 33.037 20.0266 33.037 20.9196C33.037 21.8101 32.3116 22.5355 31.4236 22.5355H31.4161ZM31.4236 18.3432C30.0054 18.3432 28.8472 19.4938 28.8472 20.9196C28.8472 22.3404 30.0054 23.496 31.4236 23.496C32.8494 23.496 34 22.3404 34 20.9196C34 19.4938 32.8494 18.3432 31.4236 18.3432ZM19.9825 22.5355C19.0945 22.5355 18.3691 21.8101 18.3691 20.9196C18.3691 20.0266 19.0945 19.3012 19.985 19.3012C20.8855 19.3012 21.6109 20.0266 21.6109 20.9196C21.6109 21.8101 20.8855 22.5355 19.9975 22.5355H19.9825ZM21.6084 18.921C21.1656 18.5608 20.6003 18.3457 19.9825 18.3457C18.5642 18.3457 17.4111 19.4963 17.4111 20.9221C17.4111 22.3404 18.5617 23.4935 19.9875 23.4935C21.4058 23.4935 22.5589 22.3429 22.5589 20.9171V17H21.6084V18.921Z" fill="white"/>
</svg>
