<svg width="40" height="40" viewBox="0 0 40 40" fill="none" xmlns="http://www.w3.org/2000/svg">
<g clip-path="url(#clip0_25_2274)">
<path fill-rule="evenodd" clip-rule="evenodd" d="M20 0C31.046 0 40 8.95467 40 19.9967V20.0033C40 31.0473 31.048 40 20 40C8.954 40 0 31.048 0 20C0 8.954 8.952 0 20 0Z" fill="black"/>
<path fill-rule="evenodd" clip-rule="evenodd" d="M22.0566 31.8467C22.0566 34.8633 24.6619 36 24.6619 36C23.1166 34.2733 23.2986 31.8253 23.2986 31.8253L23.2679 8.43733C23.2379 5.66133 24.7219 4.022 24.7219 4.022C21.9353 5.836 22.0566 8.43733 22.0566 8.43733V31.8467ZM17.9326 31.8253C17.9326 34.8413 15.3273 35.9787 15.3273 35.9787C16.8719 34.2513 16.6899 31.8033 16.6899 31.8033L16.7206 8.41533C16.7513 5.64 15.2666 4 15.2666 4C18.0533 5.814 17.9326 8.41533 17.9326 8.41533V31.8253Z" fill="white"/>
</g>
<defs>
<clipPath id="clip0_25_2274">
<rect width="40" height="40" fill="white"/>
</clipPath>
</defs>
</svg>
