<svg width="40" height="40" viewBox="0 0 40 40" fill="none" xmlns="http://www.w3.org/2000/svg">
<g clip-path="url(#clip0_25_530)">
<path d="M1065.72 -632.99H-253.76C-284.003 -632.99 -308.52 -608.473 -308.52 -578.23V999.75C-308.52 1029.99 -284.003 1054.51 -253.76 1054.51H1065.72C1095.96 1054.51 1120.48 1029.99 1120.48 999.75V-578.23C1120.48 -608.473 1095.96 -632.99 1065.72 -632.99Z" stroke="#FFB3CE" stroke-width="2.82" stroke-miterlimit="10"/>
<path d="M40 20C40 8.9543 31.0457 0 20 0C8.9543 0 0 8.9543 0 20C0 31.0457 8.9543 40 20 40C31.0457 40 40 31.0457 40 20Z" fill="#5C0000"/>
<path d="M11.1 26.79C11.0317 26.7134 10.9776 26.6254 10.94 26.53C10.9271 26.4036 10.9271 26.2763 10.94 26.15C11.25 26.03 11.54 25.9 11.85 25.81C12.388 25.702 12.8683 25.402 13.2014 24.9659C13.5344 24.5298 13.6974 23.9874 13.66 23.44C13.66 21.08 13.6 18.72 13.57 16.36V15.44C13.5924 15.2724 13.5814 15.1021 13.5377 14.9388C13.4939 14.7755 13.4183 14.6225 13.3151 14.4886C13.2119 14.3548 13.0832 14.2426 12.9364 14.1588C12.7896 14.0749 12.6277 14.0209 12.46 14C11.98 13.84 11.46 13.73 10.95 13.59V12.9C11.3698 12.8151 11.7937 12.7517 12.22 12.71C15.37 12.57 18.52 12.26 21.66 12.82C23.4644 13.0495 25.1704 13.7728 26.59 14.91C27.02 15.28 27.4 15.71 27.79 16.11L27.7 16.23L25.93 15.34L25.81 15.46C25.9037 15.6292 26.0073 15.7928 26.12 15.95C26.9075 17.0285 27.3319 18.3295 27.3319 19.665C27.3319 21.0004 26.9075 22.3014 26.12 23.38C25.1074 24.7057 23.7106 25.687 22.12 26.19C20.3717 26.6624 18.5531 26.8182 16.75 26.65C14.99 26.57 13.23 26.72 11.46 26.77L11.1 26.79ZM17.27 14.62C17.27 14.93 17.22 15.18 17.21 15.44C17.21 17.12 17.13 18.79 17.11 20.44V23.55C17.11 24.27 17.4 24.55 18.11 24.55C18.5728 24.58 19.0371 24.58 19.5 24.55C20.2947 24.516 21.0654 24.2671 21.73 23.83C22.2202 23.4833 22.6313 23.0367 22.9364 22.5196C23.2415 22.0025 23.4336 21.4267 23.5 20.83C23.92 18.24 22.65 15.15 19.5 14.56C18.7667 14.3624 17.9916 14.3833 17.27 14.62Z" fill="white"/>
<path d="M6.64001 19.6C8.34458 19.1951 9.8546 18.2084 10.91 16.81L12.06 17.88L12.18 17.77C12.1327 17.0889 11.8204 16.4535 11.31 16L12.24 15.14L12.16 15.04H12.83V24.2C11.99 24.54 11.83 23.7 11.35 23.43L12.29 21.64L12.06 21.46L10.93 22.52C9.67002 21 9.67001 21 6.64001 19.6ZM28 17.75L28.45 17.48C29.24 17.86 30.02 18.26 30.83 18.62C31.64 18.98 32.45 19.29 33.36 19.62C31.6707 20.0464 30.1803 21.0424 29.14 22.44L28 21.14V17.75ZM20.93 27.35L23.11 26.69L23.98 27.79L24.11 28.06C22.8706 28.5336 21.7183 29.2094 20.7 30.06C20.66 30 20.86 28.15 20.93 27.35ZM20.54 9.23C21.5699 10.0746 22.7277 10.7497 23.97 11.23V11.49L23.19 12.4C22.35 12.23 21.63 12.05 20.78 11.88C20.71 10.94 20.62 10.16 20.54 9.23ZM20.69 27.39L20.51 29.78C20.51 29.88 20.44 30.56 20.41 30.78C20.32 31.48 20.26 32.18 20.19 32.87C20.19 33.07 20.11 33.27 20.07 33.47H19.9C19.82 32.68 19.74 31.89 19.64 31.1C19.59 30.74 19.53 29.83 19.52 29.74C19.47 28.99 19.4 28.24 19.34 27.49L20.69 27.39ZM19.2 11.88H16.34L16 11.47C17.19 10.68 18.21 9.94 19.38 9.15C19.29 10.07 19.26 11 19.2 11.88ZM19.08 27.52C19.15 28.27 19.36 29.96 19.32 30.06L15.93 27.86L16.24 27.52H19.08ZM19.45 11.86L19.59 9.12L19.94 6.5H20.13L20.36 9.07L20.58 11.88L19.45 11.86Z" fill="white"/>
<path d="M24.11 28.06L24 27.79V26.24L25.3 25.37V26.37H26.5L25.26 26.57L24.68 30.83H24.49L24.11 28.06ZM24 11.49V11.23C24.1156 11.064 24.2065 10.8821 24.27 10.69C24.38 10.22 24.44 9.74003 24.52 9.27003H24.66L25.3 13.19L24.08 12.69L24 11.49ZM27.57 24.26H26.48L27.79 22L28.64 23.37L27.57 24.26ZM15.09 30.78L14.64 27.46H15.64C15.647 28.5791 15.5126 29.6946 15.24 30.78H15.09ZM14.68 11.91L15.1 9.15002H15.23L15.65 11.85L14.68 11.91Z" fill="white"/>
<path d="M26.5 26.33H25.33V25.33L25.66 24.81L26.79 26.22L26.5 26.33ZM20.93 23.43L19.23 23.8V15.33C19.76 15.59 20.4 15.84 20.93 16.09C20.89 16.3 20.89 23.22 20.93 23.43ZM21.21 23.32C21.16 23.12 21.11 16.45 21.16 16.25C22.0592 16.9584 22.6649 17.9741 22.8606 19.1019C23.0563 20.2298 22.8281 21.3902 22.22 22.36C21.9341 22.7296 21.5935 23.0533 21.21 23.32ZM19 15.32V23.8H17.86V15.16L19 15.32Z" fill="white"/>
</g>
<defs>
<clipPath id="clip0_25_530">
<rect width="40" height="40" fill="white"/>
</clipPath>
</defs>
</svg>
