<svg width="40" height="40" viewBox="0 0 40 40" fill="none" xmlns="http://www.w3.org/2000/svg">
<circle cx="20" cy="20" r="20" fill="url(#paint0_linear_25_2328)"/>
<path d="M21.1039 23.5038H19.5328C19.4414 23.5042 19.354 23.4698 19.2925 23.4092C19.231 23.3486 19.2011 23.2674 19.2102 23.1858L19.349 21.7692C19.3624 21.6187 19.503 21.5028 19.6716 21.5033H21.2427C21.3341 21.5029 21.4215 21.5373 21.483 21.5979C21.5445 21.6585 21.5744 21.7397 21.5653 21.8213L21.4266 23.2379C21.4131 23.3884 21.2725 23.5043 21.1039 23.5038ZM21.3558 20.7303H19.7554C19.5787 20.7303 19.4354 20.5924 19.4354 20.4222L19.8707 15.6364C19.8902 15.4807 20.0279 15.364 20.1907 15.3652H21.791C21.9678 15.3652 22.1111 15.5031 22.1111 15.6733L21.663 20.4622C21.6427 20.612 21.5126 20.7255 21.3558 20.7303ZM30.7654 15.1494C30.9358 15.3472 31.019 15.6046 30.9964 15.8639L30.3709 22.9738C30.3508 23.2063 30.247 23.4239 30.0786 23.5866L24.9635 28.524C24.7809 28.6996 24.5366 28.7976 24.2824 28.797H18.8371L14.0435 33.1884L14.4147 28.7941H11.977C11.7032 28.7943 11.4419 28.6803 11.2569 28.4798C11.0718 28.2793 10.9799 28.0109 11.0037 27.7398L12.4914 10.8713C12.5425 10.3756 12.9633 9.99891 13.4648 10H25.8783C26.1639 9.99992 26.4352 10.1241 26.6208 10.3398L30.7654 15.1494ZM26.9744 21.6174L27.372 17.229C27.3874 16.9688 27.2968 16.7134 27.1206 16.5203L24.7823 13.8367C24.597 13.6246 24.3283 13.5028 24.0457 13.5027H16.68C16.1785 13.5016 15.7577 13.8782 15.7066 14.374L14.8298 24.2488C14.8096 24.519 14.9027 24.7854 15.087 24.9851C15.2713 25.1847 15.5305 25.2998 15.8031 25.3031H23.0461C23.2973 25.3037 23.5392 25.208 23.7212 25.0359L26.6821 22.2332C26.8512 22.0697 26.9551 21.851 26.9744 21.6174Z" fill="white"/>
<defs>
<linearGradient id="paint0_linear_25_2328" x1="34.8781" y1="-2.30643e-07" x2="5.12188" y2="40" gradientUnits="userSpaceOnUse">
<stop stop-color="#F59C07"/>
<stop offset="1" stop-color="#F57507"/>
</linearGradient>
</defs>
</svg>
