<svg width="40" height="40" viewBox="0 0 40 40" fill="none" xmlns="http://www.w3.org/2000/svg">
<g clip-path="url(#clip0_25_4311)">
<path d="M20 40C31.0457 40 40 31.0457 40 20C40 8.9543 31.0457 0 20 0C8.9543 0 0 8.9543 0 20C0 31.0457 8.9543 40 20 40Z" fill="#FB9D1E"/>
<path d="M20.605 7.01046C20.5591 7.00721 20.5133 7.00396 20.4674 7.00104L20.4664 7H19.544C19.5387 7.00092 19.5335 7.00189 19.5283 7.00286C19.5099 7.00627 19.4918 7.00961 19.4732 7.01042C19.3807 7.01708 19.2879 7.02296 19.195 7.02883C19.0264 7.03951 18.8575 7.0502 18.6894 7.06566C18.0005 7.1308 17.3185 7.25493 16.6509 7.43668C15.1263 7.84247 13.6888 8.52345 12.4091 9.44605C12.2831 9.53681 12.16 9.63042 12.0353 9.72527C11.9753 9.77093 11.9149 9.81687 11.8536 9.86293L14.309 12.7102C15.9932 11.4252 17.8901 10.7676 20.0016 10.7613C22.1162 10.7561 24.0057 11.4356 25.6879 12.7113L28.1402 9.86605L28.0881 9.82228C26.9602 8.92321 25.6895 8.21969 24.3288 7.74101C23.1958 7.33806 22.0117 7.09668 20.8114 7.02397C20.7426 7.02022 20.6738 7.01534 20.605 7.01046Z" fill="white"/>
<path d="M19.5576 33H20.4935C20.5203 32.9976 20.5471 32.9951 20.5739 32.9925C20.6409 32.9861 20.7079 32.9798 20.7749 32.976C21.8756 32.9154 22.9636 32.7104 24.011 32.3663C26.041 31.7093 27.877 30.5604 29.3554 29.0219C30.9708 27.3615 32.1048 25.2934 32.6363 23.0386C32.8364 22.207 32.9544 21.3577 32.9886 20.503C32.9886 20.4924 32.9919 20.4818 32.9954 20.4708C32.997 20.4656 32.9987 20.4604 33 20.455V19.4806C32.998 19.4603 32.9958 19.4399 32.9936 19.4196C32.9869 19.3575 32.9802 19.2953 32.9771 19.2325C32.8753 17.4667 32.4109 15.7407 31.6128 14.1622C30.9182 12.7814 29.9838 11.535 28.8531 10.4812C28.8466 10.4747 28.8397 10.469 28.8316 10.4623C28.8267 10.4583 28.8214 10.454 28.8156 10.4489L26.3664 13.293C28.061 14.9585 29.0313 16.9637 29.2126 19.3305C29.3523 21.1543 28.9604 22.8719 28.0777 24.4863L27.8536 24.2705L23.123 19.6994C23.0907 19.6671 23.0615 19.6265 23.0428 19.5848L20.5873 14.2967L20.5508 14.2206L20.5477 14.2998L20.5435 22.3925C20.5435 22.4456 20.5675 22.4748 20.6009 22.5071C22.2684 24.1198 23.9356 25.7327 25.6024 27.3461C24.2447 28.3924 22.6174 29.0311 20.9104 29.1876C18.5185 29.4211 16.3622 28.7916 14.4226 27.3711L15.0104 26.802C15.4997 26.3301 15.9888 25.858 16.4778 25.386C17.4651 24.4331 18.4522 23.4804 19.4398 22.529C19.4982 22.4727 19.519 22.4185 19.519 22.3393C19.5197 20.9305 19.5214 19.5221 19.5232 18.1138C19.5243 17.1759 19.5255 16.2381 19.5263 15.3003C19.5263 15.0556 19.5237 14.8115 19.521 14.5671C19.52 14.469 19.5189 14.3709 19.518 14.2727C19.5191 14.2572 19.5159 14.2416 19.5086 14.2279L19.4794 14.2831C19.321 14.6248 19.1625 14.9666 19.004 15.3084C18.3422 16.7355 17.6803 18.1629 17.0177 19.589C17 19.6282 16.9753 19.6639 16.9448 19.6942L11.9714 24.4988L11.9391 24.5279C10.9156 22.676 10.5623 20.7041 10.8645 18.6197C11.1689 16.5291 12.1277 14.7709 13.6337 13.2961L11.1772 10.4436C11.1128 10.5077 11.0483 10.571 10.984 10.634C10.8425 10.7728 10.7023 10.9103 10.5675 11.0523C9.03587 12.6667 7.94424 14.6472 7.39711 16.8042C7.22514 17.4702 7.10841 18.1455 7.05109 18.8302C7.04051 18.9506 7.03286 19.0715 7.02522 19.1922C7.02083 19.2616 7.01644 19.331 7.01149 19.4003C7.01067 19.4109 7.00666 19.4222 7.00296 19.4326C7.00193 19.4354 7.00093 19.4383 7.00002 19.441V20.5592C7.00226 20.5822 7.00458 20.605 7.00688 20.6279C7.01317 20.69 7.01942 20.7518 7.02399 20.8135C7.13655 22.6689 7.65037 24.4777 8.52999 26.1152C9.1648 27.3158 9.987 28.4075 10.9656 29.3492C12.2007 30.5453 13.6624 31.4825 15.2647 32.1058C16.0409 32.4079 16.8438 32.6361 17.6629 32.7874C18.2591 32.899 18.8628 32.9666 19.469 32.9896C19.4874 32.9902 19.5062 32.993 19.5249 32.9957C19.5358 32.9973 19.5468 32.9988 19.5576 33Z" fill="white"/>
</g>
<defs>
<clipPath id="clip0_25_4311">
<rect width="40" height="40" fill="white"/>
</clipPath>
</defs>
</svg>
