<svg width="40" height="40" viewBox="0 0 40 40" fill="none" xmlns="http://www.w3.org/2000/svg">
<g clip-path="url(#clip0_25_3044)">
<path d="M1050.92 -538.98H-268.56C-298.803 -538.98 -323.32 -514.463 -323.32 -484.22V1093.76C-323.32 1124 -298.803 1148.52 -268.56 1148.52H1050.92C1081.16 1148.52 1105.68 1124 1105.68 1093.76V-484.22C1105.68 -514.463 1081.16 -538.98 1050.92 -538.98Z" stroke="#FFB3CE" stroke-width="2.82" stroke-miterlimit="10"/>
<path d="M40 20C40 8.9543 31.0457 0 20 0C8.9543 0 0 8.9543 0 20C0 31.0457 8.9543 40 20 40C31.0457 40 40 31.0457 40 20Z" fill="#333333"/>
<path d="M24 15.09V11.53C23.9967 11.4716 24.0124 11.4136 24.0449 11.3649C24.0773 11.3163 24.1248 11.2794 24.18 11.26L25.97 10.26C26.5744 9.86046 27.2556 9.5914 27.97 9.47001C28.5765 9.37871 29.196 9.43362 29.7769 9.63017C30.3579 9.82673 30.8835 10.1592 31.31 10.6C31.7262 10.9906 32.0539 11.4658 32.2713 11.9936C32.4886 12.5214 32.5904 13.0896 32.57 13.66C32.5676 14.2104 32.4414 14.7533 32.2008 15.2484C31.9602 15.7434 31.6113 16.178 31.18 16.52C30.58 17 29.91 17.41 29.29 17.88C27.6051 19.1271 26.2606 20.7777 25.38 22.68C24.8111 23.8919 24.4301 25.1834 24.25 26.51C24.14 27.33 24.07 28.15 23.97 28.97C23.9145 29.5843 23.7178 30.1774 23.3951 30.703C23.0725 31.2286 22.6326 31.6725 22.11 32C21.3419 32.4714 20.4372 32.6696 19.5423 32.5625C18.6475 32.4554 17.8151 32.0493 17.18 31.41C16.505 30.6441 16.1132 29.6699 16.07 28.65C15.9886 27.0714 15.7098 25.5092 15.24 24C14.5874 22.0605 13.4759 20.3074 12 18.89C11.2771 18.212 10.49 17.6059 9.64997 17.08C8.89569 16.6313 8.28244 15.9799 7.87997 15.2C7.54384 14.4751 7.42907 13.6672 7.55003 12.8774C7.67099 12.0876 8.02231 11.351 8.55997 10.76C8.93297 10.3297 9.39355 9.98397 9.91092 9.74598C10.4283 9.50799 10.9905 9.38322 11.56 9.38C12.2662 9.40192 12.9549 9.60509 13.56 9.97001C14.33 10.4 15.09 10.84 15.85 11.29C15.8809 11.3142 15.9066 11.3443 15.9255 11.3787C15.9444 11.4131 15.9561 11.451 15.96 11.49V16.9C15.96 17.7 15.96 18.28 16.01 18.97C16.1601 19.8555 16.6038 20.6648 17.2698 21.2674C17.9357 21.8701 18.7851 22.2311 19.6812 22.2923C20.5772 22.3535 21.4678 22.1113 22.2095 21.6048C22.9512 21.0983 23.5009 20.3569 23.77 19.5C23.9046 19.0106 23.9818 18.5072 24 18V15.09Z" fill="white"/>
<path d="M22.63 16.28V18.63C22.6162 18.9766 22.5343 19.3172 22.3889 19.6322C22.2434 19.9473 22.0374 20.2306 21.7825 20.466C21.5276 20.7014 21.2288 20.8842 20.9033 21.0042C20.5777 21.1241 20.2317 21.1787 19.885 21.165C19.5383 21.1512 19.1977 21.0692 18.8827 20.9238C18.5677 20.7784 18.2844 20.5724 18.049 20.3175C17.5736 19.8027 17.3221 19.1201 17.35 18.42V14.1C17.3338 13.5847 17.473 13.0765 17.7494 12.6414C18.0258 12.2062 18.4267 11.8643 18.9 11.66C19.2961 11.4738 19.7326 11.3903 20.1694 11.417C20.6062 11.4437 21.0293 11.5798 21.3998 11.8128C21.7702 12.0459 22.0761 12.3683 22.2894 12.7505C22.5026 13.1327 22.6163 13.5623 22.62 14V16.25L22.63 16.28Z" fill="white"/>
</g>
<defs>
<clipPath id="clip0_25_3044">
<rect width="40" height="40" fill="white"/>
</clipPath>
</defs>
</svg>
