<svg width="40" height="40" viewBox="0 0 40 40" fill="none" xmlns="http://www.w3.org/2000/svg">
<g clip-path="url(#clip0_25_4187)">
<path d="M20 40C31.0457 40 40 31.0457 40 20C40 8.95431 31.0457 0 20 0C8.9543 0 0 8.95431 0 20C0 31.0457 8.9543 40 20 40Z" fill="#EB722E"/>
<path fill-rule="evenodd" clip-rule="evenodd" d="M19.9066 12.0934C20.5338 12.0939 21.1351 12.3433 21.5786 12.7867C22.0221 13.2302 22.2714 13.8315 22.272 14.4587C22.2709 15.0854 22.0214 15.6861 21.5781 16.1291C21.1349 16.5722 20.534 16.8213 19.9073 16.822C19.2806 16.8215 18.6796 16.5724 18.2363 16.1293C17.793 15.6863 17.5435 15.0855 17.5426 14.4587C17.543 13.8316 17.7922 13.2303 18.2356 12.7868C18.6789 12.3433 19.2802 12.0939 19.9073 12.0934H19.9066ZM19.9066 20.168C23.0573 20.168 25.6186 17.6074 25.6186 14.4587C25.6186 11.308 23.0573 8.74603 19.9073 8.74603C16.7573 8.74603 14.1953 11.3087 14.1953 14.4587C14.1953 17.6074 16.7573 20.168 19.9073 20.168H19.9066ZM22.218 24.8267C23.3928 24.559 24.5139 24.0947 25.534 23.4534C25.9097 23.2171 26.1762 22.8412 26.2747 22.4084C26.3733 21.9756 26.2959 21.5214 26.0596 21.1457C25.8233 20.77 25.4474 20.5035 25.0147 20.4049C24.5819 20.3064 24.1277 20.3837 23.752 20.62C22.599 21.3408 21.2667 21.723 19.907 21.723C18.5473 21.723 17.2149 21.3408 16.062 20.62C15.876 20.503 15.6687 20.4238 15.4521 20.387C15.2355 20.3501 15.0137 20.3563 14.7995 20.4052C14.5852 20.4541 14.3827 20.5448 14.2036 20.672C14.0244 20.7993 13.8721 20.9606 13.7553 21.1467C13.5191 21.5221 13.4416 21.976 13.5399 22.4085C13.6381 22.841 13.9041 23.2168 14.2793 23.4534C15.2995 24.0945 16.4206 24.5588 17.5953 24.8267L14.402 28.02C14.2466 28.1755 14.1233 28.36 14.0392 28.5631C13.9552 28.7662 13.9119 28.9838 13.9119 29.2036C13.912 29.4234 13.9553 29.641 14.0394 29.8441C14.1236 30.0471 14.2469 30.2316 14.4023 30.387C14.5577 30.5424 14.7423 30.6657 14.9454 30.7498C15.1484 30.8339 15.3661 30.8771 15.5859 30.8771C15.8057 30.8771 16.0233 30.8337 16.2264 30.7496C16.4294 30.6655 16.6139 30.5421 16.7693 30.3867L19.9066 27.2494L23.0453 30.3867C23.698 31.04 24.7573 31.04 25.41 30.3867C26.0646 29.7334 26.0646 28.6734 25.41 28.0207L22.218 24.8274" fill="white"/>
</g>
<defs>
<clipPath id="clip0_25_4187">
<rect width="40" height="40" fill="white"/>
</clipPath>
</defs>
</svg>
