<svg width="40" height="40" viewBox="0 0 40 40" fill="none" xmlns="http://www.w3.org/2000/svg">
<g clip-path="url(#clip0_25_1702)">
<path d="M20 0C31.046 0 40 8.955 40 19.997V20.003C40 31.047 31.048 40 20 40C8.954 40 0 31.048 0 20C0 8.954 8.952 0 20 0Z" fill="#363854"/>
<path d="M23.2042 15.2065L22.0914 21.9531C22.0677 21.9512 22.044 21.9471 22.0203 21.9441C22.0045 21.9421 21.9887 21.9401 21.9729 21.9385L20.1757 14.9949C19.6685 16.4939 19.2936 18.0216 18.913 19.5723C18.7006 20.4379 18.4865 21.3107 18.2465 22.1896C18.2138 22.1078 18.183 22.0376 18.1554 21.9745C18.1039 21.8571 18.0633 21.7645 18.0416 21.6675C17.9791 21.3846 17.9154 21.1019 17.8516 20.8192C17.6514 19.9307 17.4509 19.0417 17.2876 18.1467C17.2532 17.9579 17.2163 17.7692 17.1793 17.5804C16.9758 16.5417 16.772 15.5014 16.9964 14.4342C16.4348 14.2695 14.4651 14.2288 13.2212 14.3487C13.2814 14.448 13.3449 14.546 13.4084 14.6441C13.557 14.8734 13.7059 15.1032 13.813 15.3514C13.9229 15.6061 13.9903 15.8808 14.0578 16.1557C14.0842 16.2632 14.1106 16.3707 14.1395 16.477C14.255 16.9054 14.3704 17.3337 14.4775 17.7652C14.6169 18.3297 14.758 18.8937 14.899 19.4576C15.3083 21.0943 15.7175 22.7307 16.0864 24.3763C16.1097 24.479 16.1372 24.5827 16.1651 24.6874C16.2843 25.1356 16.4084 25.6024 16.2195 26.0856L15.6975 26.7422H19.5548C19.2858 25.6131 19.5402 24.5712 19.808 23.4743C19.9305 22.9725 20.0558 22.4592 20.1352 21.9207C20.5491 23.6238 20.8257 25.1507 20.7103 26.7506H24.4314C24.402 26.639 24.3697 26.5309 24.3379 26.425C24.2698 26.1975 24.2046 25.9799 24.1777 25.7573C24.1382 25.4207 24.1558 25.0715 24.187 24.7317C24.2271 24.3156 24.2854 23.9014 24.3618 23.4904L24.3956 23.3037C24.7421 21.3917 25.0891 19.477 25.4517 17.5662C25.6087 16.7438 25.7845 15.9204 26.241 15.1982C26.3622 15.0071 26.4935 14.8219 26.6349 14.6224C26.7011 14.5291 26.7695 14.4326 26.8401 14.331H22.8173L23.2042 15.2065Z" fill="white"/>
<path fill-rule="evenodd" clip-rule="evenodd" d="M9.37943 9.3667C9.37735 10.4194 9.37735 11.4721 9.37735 12.4945C6.35717 16.9731 6.07741 22.6253 9.33159 27.4343C9.35208 27.9053 9.34765 28.3806 9.34317 28.8605C9.33743 29.4767 9.33162 30.1004 9.37839 30.732H12.4974C17.5903 33.7588 22.4877 33.765 27.4984 30.6966H30.6351V27.5354C33.8185 22.4533 33.7613 17.4859 30.6247 12.3997V9.25622H27.4932C27.4214 9.23112 27.3695 9.21463 27.3303 9.2022C27.2703 9.18313 27.2403 9.17361 27.2145 9.1572C25.5339 8.10556 23.7461 7.37494 21.7576 7.11229C20.3304 6.92984 18.8836 6.96992 17.4686 7.2311C16.0979 7.47395 14.7843 7.95235 13.6091 8.6934C12.9196 9.12594 12.2363 9.27185 11.4563 9.23016C10.9828 9.2053 10.5077 9.21173 10.0606 9.21778C9.87037 9.22036 9.6852 9.22287 9.50735 9.22287C9.46825 9.26588 9.43975 9.29427 9.41971 9.31424C9.3907 9.34314 9.37943 9.35437 9.37943 9.3667ZM31.2477 20.0853C31.1572 26.2774 26.2702 31.2823 20.8445 31.2281V31.2292C16.933 31.25 14.2768 30.1609 12.0928 28.0138C9.84119 25.7969 8.69926 23.0089 8.74294 19.8821C8.8303 13.6963 13.8223 8.69131 20.0988 8.75593C23.1626 8.78512 25.7751 9.91493 27.9664 12.0995C30.1889 14.3154 31.2924 17.0304 31.2477 20.0853Z" fill="white"/>
</g>
<defs>
<clipPath id="clip0_25_1702">
<rect width="40" height="40" fill="white"/>
</clipPath>
</defs>
</svg>
