<svg width="40" height="40" viewBox="0 0 40 40" fill="none" xmlns="http://www.w3.org/2000/svg">
<g clip-path="url(#clip0_25_2634)">
<path fill-rule="evenodd" clip-rule="evenodd" d="M20 0C31.046 0 40 8.95467 40 19.9967V20.0033C40 31.0473 31.048 40 20 40C8.954 40 0 31.048 0 20C0 8.954 8.952 0 20 0Z" fill="#00AFF0"/>
<path fill-rule="evenodd" clip-rule="evenodd" d="M31.1507 21.97C31.1427 22.012 31.1374 22.0547 31.1294 22.0967L31.0887 21.8547C31.1107 21.8927 31.1294 21.932 31.1507 21.97C31.2747 21.2953 31.3394 20.6053 31.3394 19.9153C31.3394 18.3853 31.0394 16.902 30.448 15.504C29.8794 14.1574 29.0546 12.934 28.0194 11.902C26.9684 10.848 25.7195 10.0122 24.3444 9.44267C22.9692 8.87313 21.4951 8.58108 20.0067 8.58332C19.2854 8.58332 18.5634 8.65065 17.8607 8.78532L17.8554 8.78665C17.8954 8.80665 17.9354 8.82599 17.9734 8.84732L17.7354 8.80999C17.7754 8.80332 17.8154 8.79465 17.8554 8.78665C16.8865 8.27131 15.8061 8.00121 14.7087 7.99999C13.8274 7.99765 12.9543 8.17014 12.1401 8.5075C11.3259 8.84485 10.5868 9.34035 9.96536 9.96532C9.34043 10.5869 8.84495 11.3262 8.50761 12.1405C8.17026 12.9548 7.99774 13.8279 8.00002 14.7093C8.00002 15.85 8.29336 16.9713 8.84402 17.9627C8.85136 17.9213 8.85602 17.88 8.86402 17.8387L8.90536 18.076C8.88402 18.0387 8.86536 18 8.84402 17.9627C8.73121 18.6077 8.67411 19.2612 8.67336 19.916C8.67336 21.4453 8.97336 22.9293 9.56469 24.3267C10.133 25.6733 10.9576 26.8966 11.9927 27.9287C13.0248 28.9639 14.2484 29.7886 15.5954 30.3567C16.9906 30.9483 18.4911 31.2518 20.0067 31.2487C20.6727 31.2487 21.34 31.1887 21.9914 31.0727C21.9534 31.0513 21.9147 31.032 21.876 31.0093L22.118 31.052C22.076 31.06 22.034 31.0653 21.9914 31.072C22.9981 31.6419 24.1352 31.9416 25.292 31.942C26.1732 31.9445 27.0461 31.7722 27.8603 31.435C28.6744 31.0977 29.4134 30.6023 30.0347 29.9773C30.6598 29.356 31.1554 28.6168 31.4927 27.8026C31.8301 26.9884 32.0025 26.1153 32 25.234C32 24.0893 31.7054 22.9647 31.1507 21.97ZM20.052 26.856C16.0254 26.856 14.2247 24.876 14.2247 23.3933C14.2247 22.632 14.786 22.0987 15.5607 22.0987C17.2834 22.0987 16.8374 24.5727 20.052 24.5727C21.6974 24.5727 22.6067 23.6793 22.6067 22.7647C22.6067 22.2147 22.3354 21.6047 21.2514 21.338L17.67 20.4447C14.786 19.7207 14.2634 18.162 14.2634 16.696C14.2634 13.6533 17.128 12.5107 19.8187 12.5107C22.2967 12.5107 25.2187 13.8807 25.2187 15.706C25.2187 16.488 24.5414 16.9433 23.7674 16.9433C22.2967 16.9433 22.5674 14.908 19.606 14.908C18.136 14.908 17.322 15.5733 17.322 16.526C17.322 17.4767 18.482 17.78 19.4907 18.01L22.1414 18.598C25.0447 19.2447 25.7814 20.94 25.7814 22.5367C25.7814 25.01 23.8827 26.856 20.052 26.856ZM21.876 31.0093C21.9147 31.032 21.9534 31.0513 21.9914 31.0727C22.034 31.0653 22.076 31.06 22.118 31.0527L21.876 31.0093ZM31.1294 22.0967C31.1374 22.0547 31.1427 22.012 31.1507 21.97C31.1294 21.932 31.1107 21.8927 31.0887 21.8547L31.1294 22.0967ZM8.86402 17.8387C8.85602 17.88 8.85136 17.9213 8.84402 17.962C8.86536 18 8.88402 18.0387 8.90536 18.076L8.86402 17.8387ZM17.9734 8.84732C17.9347 8.82599 17.8947 8.80732 17.8554 8.78665L17.7354 8.80999L17.9734 8.84732Z" fill="white"/>
</g>
<defs>
<clipPath id="clip0_25_2634">
<rect width="40" height="40" fill="white"/>
</clipPath>
</defs>
</svg>
