<svg width="41" height="40" viewBox="0 0 41 40" fill="none" xmlns="http://www.w3.org/2000/svg">
<path fill-rule="evenodd" clip-rule="evenodd" d="M20.5 40C31.5457 40 40.5 31.0457 40.5 20C40.5 8.95433 31.5457 0 20.5 0C9.45433 0 0.5 8.95433 0.5 20C0.5 31.0457 9.45433 40 20.5 40Z" fill="#ED1C24"/>
<path d="M9.56036 18.9492H8.47561L8.47559 22.4288H9.55341V20.0025L11.0607 22.4288H12.1347V18.9492H11.0596L11.0601 21.3755L9.56036 18.9492Z" fill="white"/>
<path d="M17.982 19.3071H19.0295V19.7754H19.5958V20.1196H19.0295L19.0305 22.4287H17.982L17.9825 20.1196H17.4141V19.7765L17.9825 19.7754L17.982 19.3071Z" fill="white"/>
<path d="M13.7798 20.1147H12.7334V22.4292H13.7798V20.1147Z" fill="white"/>
<path d="M12.731 18.9478H13.78V19.6596H12.731V18.9478Z" fill="white"/>
<path fill-rule="evenodd" clip-rule="evenodd" d="M29.5391 21.2559C29.5391 20.5383 30.2237 19.9575 31.0682 19.9575C31.9131 19.9575 32.5967 20.5383 32.5967 21.2559C32.5967 21.973 31.9131 22.5548 31.0682 22.5548C30.2237 22.5548 29.5391 21.973 29.5391 21.2559ZM31.4875 21.7429C31.4875 21.6022 31.4885 21.2527 31.4885 21.2527C31.4872 21.1767 31.4874 20.9907 31.4875 20.849L31.4875 20.762C31.4875 20.3944 31.2685 20.2436 31.0597 20.2436C30.8519 20.2436 30.6318 20.3944 30.6318 20.762C30.6318 20.9021 30.6313 21.2437 30.6313 21.2437C30.6313 21.2437 30.6307 21.6022 30.6307 21.7429C30.6307 22.1116 30.8497 22.2634 31.0596 22.2634C31.2701 22.2634 31.4875 22.1116 31.4875 21.7429Z" fill="white"/>
<path fill-rule="evenodd" clip-rule="evenodd" d="M28.1664 18.9492H29.1984V22.4283H28.1643L28.1638 22.2951C27.7636 22.5455 27.3118 22.5455 26.9591 22.3825C26.8648 22.3377 26.2441 22.0399 26.2441 21.2343C26.2441 20.6238 26.8195 19.9567 27.574 20.0233C27.8222 20.0452 27.9986 20.1357 28.1664 20.2306V18.9492ZM28.1733 20.8465C28.1733 20.4884 27.9261 20.3979 27.7636 20.3979C27.5969 20.3979 27.3534 20.4884 27.3534 20.8465V21.6701C27.3534 22.0287 27.5969 22.1209 27.7636 22.1209C27.9261 22.1209 28.1733 22.0287 28.1733 21.6701V20.8465Z" fill="white"/>
<path d="M17.4083 21.1686C17.4136 20.2527 16.6209 19.997 16.2293 20.0082C15.884 20.0178 15.5953 20.1664 15.3949 20.3571C15.3939 20.2996 15.3949 20.1137 15.3949 20.1137L14.3555 20.1147L14.3565 22.4281H15.3949L15.3939 20.9086C15.3939 20.7066 15.6054 20.4829 15.8904 20.4829C16.176 20.4829 16.3689 20.7066 16.3689 20.9086V22.4281H17.4078C17.4078 22.4281 17.4072 21.3321 17.4083 21.1686Z" fill="white"/>
<path d="M24.7316 20.0082C25.1226 19.997 25.9165 20.2527 25.9112 21.1686C25.9101 21.3321 25.9112 22.4281 25.9112 22.4281H24.8712V20.9086C24.8712 20.7066 24.6783 20.4829 24.3927 20.4829C24.1077 20.4829 23.8967 20.7066 23.8967 20.9086L23.8978 22.4281H22.8594V20.1147L23.8978 20.1137C23.8978 20.1137 23.8967 20.2996 23.8978 20.3571C24.0976 20.1664 24.3858 20.0178 24.7316 20.0082Z" fill="white"/>
<path fill-rule="evenodd" clip-rule="evenodd" d="M21.4405 21.7593C21.4405 21.6293 21.44 21.6187 21.44 21.6187L22.4826 21.6176C22.3009 22.1643 21.7042 22.567 20.9983 22.567C20.1474 22.567 19.458 21.9868 19.458 21.2687C19.458 20.5505 20.1474 19.9697 20.9983 19.9697C21.8491 19.9697 22.5418 20.5638 22.5418 21.2809C22.5418 21.283 20.571 21.282 20.571 21.282C20.571 21.282 20.5699 21.6325 20.5699 21.7593C20.5699 22.1824 20.8539 22.2767 21.0079 22.2767C21.1624 22.2767 21.4405 22.1824 21.4405 21.7593ZM20.6397 20.4673C20.5731 20.583 20.5689 20.7183 20.571 20.9207H21.4437C21.4453 20.7183 21.4416 20.583 21.375 20.4673C21.294 20.3246 21.1438 20.2569 21.0079 20.2558C20.8715 20.2569 20.7213 20.3246 20.6397 20.4673Z" fill="white"/>
<path fill-rule="evenodd" clip-rule="evenodd" d="M9.42395 24.3903C7.07225 24.3892 5.5 22.7232 5.5 20.7013C5.5 18.6804 7.07544 16.9936 9.42076 17H31.5803C33.9246 16.9936 35.5 18.6804 35.5 20.7013C35.5 22.7232 33.9283 24.3892 31.5766 24.3903H9.42395ZM9.43103 17.9086C7.56842 17.9118 6.42613 19.1574 6.42613 20.6966C6.42613 22.2364 7.56256 23.4905 9.43103 23.4841H31.5687C33.4388 23.4905 34.5742 22.2364 34.5742 20.6966C34.5742 19.1574 33.4313 17.9118 31.5687 17.9086H9.43103Z" fill="white"/>
</svg>
