<svg width="40" height="40" viewBox="0 0 40 40" fill="none" xmlns="http://www.w3.org/2000/svg">
<circle cx="20" cy="20" r="20" fill="#F56C2D"/>
<path fill-rule="evenodd" clip-rule="evenodd" d="M16.8719 19.7877C16.9864 18.0191 18.4796 16.6818 20.2077 16.799C21.9352 16.9161 23.2429 18.4442 23.1284 20.2108C23.0139 21.9785 21.5208 23.3158 19.7927 23.1995C18.0653 23.0822 16.7574 21.5542 16.8719 19.7877ZM19.471 28.165C19.9538 28.1976 20.4293 28.1868 20.8933 28.1326C20.9679 28.1273 21.0205 28.1943 21.0137 28.2543C20.8902 29.0975 20.5724 29.9136 20.0677 30.6288C20.0401 30.6643 20.0217 30.7081 20.0183 30.7581C20.0103 30.8831 20.1038 30.9909 20.2259 30.9995C20.2989 31.0048 20.3527 30.9686 20.3561 30.9671C23.1579 29.3664 25.5376 26.9252 27.094 23.785C27.5926 22.8076 27.9068 21.7114 27.9823 20.5396C28.2736 16.0311 24.9372 12.1333 20.5286 11.8347C20.0459 11.8014 19.5703 11.814 19.1064 11.8666C19.0317 11.8733 18.979 11.8051 18.9858 11.7459C19.1098 10.9016 19.4273 10.0855 19.9321 9.37084C19.9598 9.33579 19.9783 9.29142 19.9814 9.24247C19.9895 9.11705 19.8974 9.00864 19.7742 9.00051C19.701 8.99533 19.6465 9.03127 19.6435 9.0329C16.8419 10.633 14.4624 13.0737 12.9052 16.2145C12.4069 17.1919 12.0931 18.2884 12.0178 19.4591C11.7259 23.9684 15.0625 27.8661 19.471 28.165Z" fill="white"/>
</svg>
