<svg width="40" height="40" viewBox="0 0 40 40" fill="none" xmlns="http://www.w3.org/2000/svg">
<g clip-path="url(#clip0_25_1684)">
<path d="M1074.34 -722.46H-245.14C-275.383 -722.46 -299.9 -697.943 -299.9 -667.7V910.28C-299.9 940.523 -275.383 965.04 -245.14 965.04H1074.34C1104.58 965.04 1129.1 940.523 1129.1 910.28V-667.7C1129.1 -697.943 1104.58 -722.46 1074.34 -722.46Z" stroke="#FFB3CE" stroke-width="2.82" stroke-miterlimit="10"/>
<path d="M40 20C40 8.9543 31.0457 0 20 0C8.9543 0 0 8.9543 0 20C0 31.0457 8.9543 40 20 40C31.0457 40 40 31.0457 40 20Z" fill="#0066AF"/>
<path d="M7.5 26.4901L10.29 23.7101C10.7096 24.1426 11.2497 24.4388 11.84 24.5601C12.0284 24.5916 12.219 24.6083 12.41 24.6101H16C16.16 24.6101 16.31 24.6101 16.57 24.5401C16.4494 24.3327 16.3123 24.1354 16.16 23.9501C13.93 21.3901 11.69 18.8501 9.45 16.3001L9.27 16.0601H13.58C13.7457 16.064 13.9035 16.1321 14.02 16.2501C15.8 18.2501 17.58 20.2501 19.33 22.3401C19.7258 22.7948 20.0313 23.3209 20.23 23.8901C20.3103 24.1625 20.3317 24.4489 20.2927 24.7302C20.2537 25.0115 20.1552 25.2812 20.0039 25.5215C19.8525 25.7618 19.6517 25.9671 19.4148 26.1238C19.1779 26.2804 18.9104 26.3848 18.63 26.4301C18.4224 26.4698 18.2114 26.4899 18 26.4901H7.5ZM24.73 16.1101C24.55 16.7001 24.34 17.2801 24.2 17.8701C23.9377 18.7203 23.8565 19.6161 23.9616 20.4997C24.0667 21.3832 24.3557 22.235 24.81 23.0001C25.2737 23.7633 25.9211 24.3983 26.6931 24.8472C27.4652 25.2961 28.3373 25.5446 29.23 25.5701H30.79C30.3626 26.0759 29.7957 26.4445 29.16 26.6301C27.8274 27.0898 26.3832 27.1148 25.0354 26.7015C23.6877 26.2882 22.5058 25.4578 21.66 24.3301C21.0768 23.6103 20.6487 22.7777 20.4026 21.8845C20.1565 20.9914 20.0977 20.057 20.23 19.1401C20.3225 18.199 20.5273 17.2724 20.84 16.3801C20.869 16.3164 20.912 16.26 20.9656 16.215C21.0192 16.17 21.0822 16.1376 21.15 16.1201H24.63C24.6618 16.1078 24.6964 16.1044 24.73 16.1101ZM21.37 13.7401V10.7401V9.46006C21.3776 9.3979 21.4009 9.33869 21.4376 9.28797C21.4743 9.23724 21.5233 9.19668 21.58 9.17006C22.58 8.83006 23.58 8.52006 24.51 8.17006C24.5983 8.1453 24.6917 8.1453 24.78 8.17006L29.38 9.26006H29.58L29 9.61006C28.393 9.83938 27.8481 10.2075 27.4088 10.685C26.9696 11.1625 26.648 11.7361 26.47 12.3601C26.4554 12.4409 26.4093 12.5127 26.3418 12.5596C26.2743 12.6065 26.1909 12.6246 26.11 12.6101H23.55C23.2541 12.5922 22.958 12.6404 22.683 12.7511C22.408 12.8618 22.161 13.0322 21.96 13.2501L21.41 13.7401H21.37Z" fill="white"/>
<path d="M21.48 25.26C22.0758 25.9692 22.8092 26.5502 23.636 26.9679C24.4627 27.3856 25.3656 27.6312 26.29 27.69C26.3263 28.3562 26.3263 29.0239 26.29 29.69C26.29 29.92 26.02 30.14 25.85 30.35C24.6996 31.7253 23.3065 32.8777 21.74 33.75C21.6658 33.7834 21.5888 33.8101 21.51 33.83L21.48 25.26ZM10.8 9.31002L15.59 8.19002C15.6654 8.17055 15.7445 8.17055 15.82 8.19002L18.65 9.13002C18.7061 9.15386 18.7566 9.18936 18.798 9.23419C18.8393 9.27902 18.8707 9.33214 18.89 9.39002V12.54H13.89C13.7092 11.7835 13.3247 11.0909 12.7782 10.5374C12.2317 9.98386 11.5441 9.59052 10.79 9.40002L10.8 9.31002ZM18.8 27.3V33.82C18.6837 33.7695 18.5702 33.7127 18.46 33.65C16.8373 32.7121 15.4085 31.4733 14.25 30C14.0618 29.7891 13.9647 29.5123 13.98 29.23V27.23L18.8 27.3ZM17.49 16.19C17.07 15.33 16.32 15.29 15.49 15.3H9.04997C8.67997 15.3 8.58997 15.19 8.61997 14.83C8.6338 14.6671 8.68194 14.5089 8.76122 14.3658C8.84049 14.2228 8.94912 14.0981 9.07997 14C9.54784 13.6255 10.1307 13.4242 10.73 13.43H20.2L17.49 16.19ZM32.5 13.43L29.83 16.1C29.7503 16.0475 29.6736 15.9907 29.6 15.93C29.3883 15.693 29.1217 15.5116 28.8235 15.4017C28.5254 15.2919 28.2048 15.257 27.89 15.3H21.21C21.6528 14.5857 22.2302 13.9642 22.91 13.47C23.0145 13.4153 23.1323 13.3911 23.25 13.4H32.36L32.5 13.43ZM26.28 16.18V23.51C26.0777 23.3079 25.8874 23.0942 25.71 22.87C25.2724 22.2618 24.971 21.5666 24.826 20.8315C24.6811 20.0964 24.6961 19.3388 24.87 18.61C25.016 17.9305 25.2098 17.2622 25.45 16.61C25.62 16.06 25.69 16.05 26.28 16.18Z" fill="white"/>
<path d="M15 16.11H15.39C15.691 16.0479 16.0036 16.0733 16.2906 16.1832C16.5777 16.293 16.8273 16.4828 17.01 16.73C17.0804 16.8106 17.1672 16.8753 17.2647 16.9195C17.3621 16.9638 17.468 16.9868 17.575 16.9868C17.682 16.9868 17.7879 16.9638 17.8853 16.9195C17.9828 16.8753 18.0696 16.8106 18.14 16.73C18.2572 16.631 18.3675 16.5241 18.47 16.41C18.58 16.29 18.67 16.17 18.84 15.97V20.5L18.76 20.6C18.68 20.48 18.61 20.35 18.52 20.24L15.14 16.35C15.0867 16.2794 15.043 16.2021 15.01 16.12L15 16.11ZM14 22.66L15 23.81H14V22.66ZM21.38 13.73L21.39 13.76L21.38 13.74V13.73ZM15.02 16.11H14.99H15.02Z" fill="white"/>
</g>
<defs>
<clipPath id="clip0_25_1684">
<rect width="40" height="40" fill="white"/>
</clipPath>
</defs>
</svg>
