<svg width="40" height="41" viewBox="0 0 40 41" fill="none" xmlns="http://www.w3.org/2000/svg">
<g clip-path="url(#clip0_1321_46)">
<path d="M0 19.7C0 10.649 0 6.12355 2.81177 3.31177C5.62355 0.5 10.149 0.5 19.2 0.5H20.8C29.851 0.5 34.3764 0.5 37.1882 3.31177C40 6.12355 40 10.649 40 19.7V21.3C40 30.351 40 34.8764 37.1882 37.6882C34.3764 40.5 29.851 40.5 20.8 40.5H19.2C10.149 40.5 5.62355 40.5 2.81177 37.6882C0 34.8764 0 30.351 0 21.3V19.7Z" fill="#0077FF"/>
<path d="M20.9925 27.4338C13.3993 27.4338 9.0684 22.2282 8.88794 13.5662H12.6915C12.8164 19.9239 15.6204 22.6169 17.8414 23.1722V13.5662H21.423V19.0494C23.6162 18.8134 25.9203 16.3147 26.6976 13.5662H30.2791C29.6822 16.9533 27.1835 19.4519 25.4067 20.4792C27.1835 21.3121 30.0294 23.4914 31.1121 27.4338H27.1697C26.3229 24.7963 24.2131 22.7557 21.423 22.4781V27.4338H20.9925Z" fill="white"/>
</g>
<defs>
<clipPath id="clip0_1321_46">
<rect y="0.5" width="40" height="40" rx="20" fill="white"/>
</clipPath>
</defs>
</svg>
