<svg width="40" height="40" viewBox="0 0 40 40" fill="none" xmlns="http://www.w3.org/2000/svg">
<g clip-path="url(#clip0_25_436)">
<path d="M20 40C31.0457 40 40 31.0457 40 20C40 8.9543 31.0457 0 20 0C8.9543 0 0 8.9543 0 20C0 31.0457 8.9543 40 20 40Z" fill="#0F5CC8"/>
<mask id="mask0_25_436" style="mask-type:alpha" maskUnits="userSpaceOnUse" x="7" y="14" width="5" height="12">
<path d="M7 14.332H11.838V25.348H7V14.332Z" fill="white"/>
</mask>
<g mask="url(#mask0_25_436)">
<path fill-rule="evenodd" clip-rule="evenodd" d="M10 15.537C9.78 15.513 9.577 15.472 9.384 15.558C9.334 15.681 9.322 17.343 9.366 17.603H9.624C9.651 17.565 9.686 17.521 9.716 17.476C9.776 17.388 9.834 17.298 9.894 17.209C9.92146 17.1704 9.95694 17.1382 9.99802 17.1145C10.0391 17.0909 10.0848 17.0764 10.132 17.072C10.204 17.062 10.276 17.046 10.347 17.033C10.406 16.934 10.384 16.84 10.369 16.746L10.315 16.422C10.375 16.344 10.407 16.267 10.382 16.189C10.36 16.115 10.312 16.049 10.282 15.986C10.302 15.881 10.455 15.836 10.397 15.701C10.351 15.699 10.302 15.691 10.252 15.694C10.126 15.704 10.028 15.676 10 15.537ZM8.925 24.254C9.08 24.217 9.214 24.186 9.347 24.152C9.38623 24.1417 9.42342 24.1248 9.457 24.102C9.641 23.96 9.819 23.815 10.004 23.676C10.0709 23.6263 10.1249 23.5614 10.1616 23.4866C10.1983 23.4118 10.2166 23.3293 10.215 23.246C10.226 22.986 10.25 22.726 10.341 22.473C10.377 22.374 10.396 22.271 10.426 22.171C10.4732 22.014 10.4662 21.8456 10.406 21.693C10.39 21.646 10.376 21.597 10.35 21.553C10.27 21.415 10.284 21.283 10.36 21.147C10.401 21.074 10.433 20.997 10.468 20.921C10.42 20.868 10.378 20.824 10.338 20.778C10.256 20.68 10.218 20.574 10.26 20.451C10.285 20.381 10.3 20.306 10.325 20.235C10.3472 20.1783 10.3572 20.1176 10.3542 20.0567C10.3513 19.9959 10.3356 19.9363 10.308 19.882C10.2571 19.7842 10.2471 19.6702 10.28 19.565C10.317 19.445 10.267 19.36 10.167 19.28C9.943 19.1 9.726 18.912 9.505 18.727C9.473 18.701 9.45 18.657 9.385 18.668C9.379 18.698 9.371 18.729 9.37 18.761C9.36 18.973 9.353 19.185 9.34 19.396C9.34064 19.4544 9.32941 19.5122 9.307 19.566C9.25765 19.6688 9.24597 19.7856 9.274 19.896C9.299 20.031 9.314 20.166 9.292 20.304C9.278 20.402 9.269 20.501 9.257 20.598C9.208 20.67 9.113 20.709 9.092 20.806L9.218 20.942L9.24 22.562L9.062 22.789L9.119 23.914L8.925 24.254ZM7 14.699C7.005 14.693 7.013 14.687 7.017 14.679C7.085 14.489 7.153 14.469 7.382 14.459C7.447 14.456 7.512 14.466 7.577 14.471C7.717 14.481 7.851 14.464 7.987 14.423C8.085 14.393 8.196 14.388 8.302 14.384C8.786 14.364 9.269 14.342 9.752 14.332C9.972 14.327 10.19 14.347 10.408 14.353C10.514 14.356 10.598 14.389 10.648 14.477C10.713 14.597 10.823 14.652 10.966 14.673C11.36 14.733 11.536 14.987 11.638 15.296C11.671 15.398 11.674 15.509 11.686 15.617C11.707 15.79 11.726 15.964 11.744 16.137C11.774 16.411 11.704 16.665 11.556 16.904C11.361 17.216 11.157 17.522 10.892 17.794C10.822 17.864 10.751 17.938 10.769 18.058C10.816 18.069 10.863 18.083 10.909 18.091C10.984 18.101 11.059 18.104 11.131 18.116C11.269 18.138 11.321 18.206 11.296 18.329C11.287 18.373 11.268 18.416 11.256 18.461C11.213 18.617 11.242 18.678 11.399 18.761C11.4145 18.77 11.4305 18.778 11.447 18.785C11.4948 18.8009 11.5361 18.832 11.5647 18.8735C11.5932 18.915 11.6073 18.9647 11.605 19.015C11.606 19.13 11.601 19.247 11.593 19.363C11.582 19.524 11.563 19.685 11.55 19.847C11.547 19.879 11.553 19.913 11.551 19.947C11.549 20.034 11.59 20.097 11.677 20.139C11.724 20.163 11.763 20.199 11.809 20.23C11.847 20.8 11.825 21.365 11.839 21.915C11.819 21.945 11.812 21.962 11.799 21.972C11.666 22.077 11.65 22.214 11.663 22.36C11.675 22.471 11.681 22.583 11.691 22.695C11.7098 22.915 11.6464 23.1341 11.513 23.31C11.474 23.362 11.441 23.417 11.401 23.47C11.2838 23.6303 11.2111 23.8186 11.19 24.016C11.1771 24.111 11.1587 24.2052 11.135 24.298C11.12 24.353 11.091 24.406 11.072 24.454C10.939 24.509 10.817 24.558 10.697 24.612C10.4488 24.7276 10.2201 24.8811 10.019 25.067C9.96149 25.1228 9.89279 25.1657 9.81746 25.1929C9.74213 25.2202 9.66187 25.2311 9.582 25.225C9.52172 25.2208 9.46123 25.2294 9.40451 25.2502C9.3478 25.2711 9.29615 25.3037 9.253 25.346H9.127L9.006 25.2H8.87L8.682 25.348C8.392 25.305 8.101 25.33 7.807 25.341C7.64448 25.3443 7.4819 25.3387 7.32 25.324C7.173 25.312 7.117 25.279 7.056 25.19C7.067 25.123 7.129 25.115 7.186 25.1C7.248 25.085 7.313 25.072 7.37 25.047C7.42314 25.0275 7.47026 24.9944 7.50673 24.9511C7.5432 24.9078 7.56777 24.8557 7.578 24.8C7.68731 24.2961 7.74064 23.7817 7.737 23.266C7.74439 22.9796 7.72598 22.6931 7.682 22.41C7.652 22.235 7.662 22.054 7.664 21.875C7.666 21.315 7.674 20.753 7.678 20.192C7.678 20.124 7.704 20.064 7.726 20C7.784 19.834 7.82 19.666 7.751 19.49C7.72313 19.4072 7.70861 19.3204 7.708 19.233C7.6986 19.0922 7.6976 18.951 7.705 18.81C7.712 18.716 7.742 18.623 7.765 18.53C7.782 18.47 7.806 18.411 7.82 18.35C7.854 18.194 7.817 18.12 7.657 18.03C7.653 17.987 7.643 17.934 7.644 17.882C7.648 17.637 7.659 17.392 7.663 17.146C7.667 16.731 7.667 16.316 7.67 15.9V15.763L7.795 15.675C7.835 15.588 7.859 15.502 7.796 15.406L7.642 15.399C7.416 15.231 7.159 15.086 7 14.849V14.699Z" fill="white"/>
</g>
<mask id="mask1_25_436" style="mask-type:alpha" maskUnits="userSpaceOnUse" x="30" y="14" width="5" height="12">
<path d="M30.373 14H35V25.22H30.373V14Z" fill="white"/>
</mask>
<g mask="url(#mask1_25_436)">
<path fill-rule="evenodd" clip-rule="evenodd" d="M32.51 19.167C32.605 19.251 32.62 19.361 32.618 19.476C32.61 19.883 32.603 20.291 32.599 20.698L32.586 23.304C32.585 23.354 32.586 23.404 32.591 23.454C32.597 23.503 32.606 23.553 32.671 23.574C32.739 23.549 32.766 23.496 32.793 23.443C32.876 23.276 32.962 23.11 33.036 22.94C33.0701 22.8598 33.0898 22.7741 33.094 22.687C33.0996 22.5317 33.1429 22.38 33.22 22.245C33.379 21.963 33.465 21.667 33.463 21.347C33.458 20.823 33.479 20.299 33.484 19.775C33.4812 19.6518 33.5239 19.5318 33.604 19.438C33.6756 19.3539 33.7199 19.2499 33.731 19.14C33.7479 19.0278 33.7844 18.9195 33.839 18.82C33.8822 18.7477 33.9117 18.668 33.926 18.585C33.946 18.429 33.956 18.27 33.949 18.113C33.942 17.932 33.929 17.75 33.85 17.576C33.7582 17.352 33.6134 17.1537 33.428 16.998C33.366 16.948 33.32 16.884 33.268 16.825C33.201 16.742 33.1154 16.6759 33.0181 16.632C32.9209 16.5881 32.8147 16.5675 32.708 16.572C32.6147 16.5735 32.5214 16.5735 32.428 16.572C32.378 16.572 32.325 16.569 32.275 16.635L32.273 16.948C32.277 17.385 32.283 17.821 32.284 18.257C32.2841 18.3911 32.3134 18.5235 32.37 18.645C32.448 18.81 32.502 18.982 32.51 19.167ZM30.83 13.999C30.928 14.022 31.019 14.058 31.107 14.104C31.147 14.124 31.206 14.116 31.255 14.124C31.322 14.134 31.396 14.137 31.457 14.163C31.665 14.253 31.882 14.33 32.047 14.487C32.0848 14.5191 32.1292 14.5423 32.177 14.555C32.309 14.594 32.442 14.63 32.577 14.661C32.62 14.671 32.669 14.658 32.715 14.658C32.787 14.658 32.862 14.651 32.933 14.664C33.052 14.686 33.167 14.718 33.283 14.749C33.3276 14.7585 33.3697 14.7769 33.407 14.803C33.4906 14.8685 33.595 14.9015 33.701 14.896C33.7742 14.894 33.8469 14.9067 33.915 14.9335C33.9831 14.9603 34.045 15.0006 34.097 15.052C34.163 15.115 34.241 15.169 34.319 15.221C34.4115 15.279 34.4808 15.3674 34.515 15.471C34.533 15.527 34.545 15.585 34.568 15.639C34.608 15.736 34.643 15.836 34.697 15.926C34.7602 16.0208 34.7958 16.1312 34.8 16.245C34.803 16.403 34.803 16.561 34.808 16.718C34.811 16.838 34.817 16.958 34.826 17.078C34.8281 17.1163 34.8405 17.1533 34.862 17.185C34.962 17.315 34.979 17.463 34.987 17.613C35.0092 17.9075 35.0038 18.2035 34.971 18.497C34.963 18.5726 34.9331 18.6442 34.885 18.703C34.8218 18.7782 34.7903 18.875 34.797 18.973C34.807 19.118 34.815 19.263 34.826 19.408C34.8348 19.5395 34.7945 19.6695 34.713 19.773C34.6897 19.8099 34.6587 19.8413 34.622 19.865C34.5786 19.8893 34.5417 19.9239 34.5147 19.9658C34.4877 20.0076 34.4713 20.0554 34.467 20.105C34.443 20.295 34.409 20.485 34.409 20.675C34.409 21.112 34.427 21.548 34.437 21.984C34.44 22.084 34.437 22.184 34.439 22.283C34.4397 22.3884 34.4102 22.4918 34.354 22.581C34.318 22.6513 34.2988 22.729 34.298 22.808C34.288 22.97 34.293 23.132 34.29 23.294C34.2946 23.3787 34.2699 23.4624 34.22 23.531C34.192 23.568 34.19 23.624 34.184 23.671C34.154 23.857 34.143 24.045 34.098 24.227C34 24.624 33.72 24.874 33.277 24.973C33.1463 25.0029 33.0141 25.0263 32.881 25.043C32.766 25.058 32.661 25.081 32.588 25.17H32.493C32.336 25.024 32.143 25.03 31.997 25.166C31.88 25.183 31.756 25.203 31.631 25.216C31.563 25.223 31.493 25.216 31.412 25.216L31.362 25.131C31.396 25.098 31.424 25.066 31.459 25.04C31.5538 24.9712 31.6244 24.8743 31.661 24.763C31.6694 24.7302 31.6812 24.6984 31.696 24.668C31.788 24.486 31.758 24.312 31.655 24.143C31.615 24.078 31.561 24.015 31.623 23.933C31.757 23.856 31.97 23.879 32.039 23.693C31.92 23.625 31.887 23.52 31.859 23.408C31.8434 23.3461 31.8147 23.2881 31.775 23.238C31.631 23.064 31.621 22.868 31.649 22.667C31.675 22.477 31.707 22.289 31.733 22.099C31.758 21.926 31.783 21.753 31.804 21.579C31.8196 21.4924 31.8179 21.4035 31.7991 21.3175C31.7802 21.2316 31.7445 21.1502 31.694 21.078C31.633 20.994 31.586 20.903 31.525 20.818C31.4356 20.685 31.3933 20.5259 31.405 20.366C31.407 20.246 31.402 20.126 31.401 19.999L31.273 19.917C31.271 19.794 31.266 19.682 31.265 19.57C31.265 19.45 31.271 19.329 31.269 19.208C31.2732 19.1325 31.2551 19.0574 31.217 18.992C31.194 18.956 31.196 18.904 31.195 18.859C31.19 18.664 31.189 18.469 31.185 18.273C31.185 18.24 31.188 18.203 31.175 18.175C31.125 18.067 31.133 17.955 31.132 17.843C31.126 17.461 31.119 17.079 31.117 16.696C31.117 16.535 31.127 16.373 31.131 16.212L31.243 16.142C31.245 16.126 31.251 16.11 31.25 16.094C31.242 15.937 31.232 15.779 31.225 15.622C31.2215 15.5844 31.2277 15.5465 31.243 15.512C31.348 15.31 31.316 15.099 31.291 14.889C31.281 14.807 31.224 14.746 31.152 14.694C30.9631 14.56 30.7767 14.4223 30.593 14.281C30.513 14.221 30.447 14.145 30.373 14.074C30.386 14.0493 30.3984 14.0243 30.41 13.999H30.829H30.83Z" fill="white"/>
</g>
<path fill-rule="evenodd" clip-rule="evenodd" d="M28.316 15.374L28.31 15.66L28.309 17.79C28.309 17.867 28.308 17.942 28.316 18.016C28.321 18.063 28.345 18.108 28.357 18.146C28.4364 18.1799 28.5227 18.1943 28.6088 18.188C28.6949 18.1818 28.7783 18.155 28.852 18.11C28.917 18.07 28.975 18.02 29.037 17.978C29.0732 17.9544 29.1039 17.9232 29.127 17.8866C29.1502 17.85 29.1651 17.8089 29.171 17.766C29.1874 17.6695 29.228 17.5786 29.289 17.502C29.3478 17.4293 29.3796 17.3385 29.379 17.245C29.372 17.141 29.374 17.038 29.455 16.95C29.474 16.929 29.475 16.895 29.482 16.866C29.494 16.78 29.499 16.692 29.517 16.606C29.561 16.391 29.469 16.216 29.319 16.058L29.282 16.02L28.77 15.51C28.655 15.395 28.506 15.366 28.316 15.374ZM27.586 22.162L27.452 22.029C27.449 21.796 27.441 21.563 27.44 21.331C27.44 20.87 27.444 20.408 27.443 19.947C27.443 19.593 27.413 19.241 27.311 18.897C27.301 18.866 27.299 18.83 27.281 18.802C27.197 18.672 27.196 18.532 27.201 18.391C27.2076 18.3113 27.1909 18.2314 27.153 18.161C27.092 18.0364 27.0592 17.8998 27.057 17.761C27.044 17.58 27.039 17.395 27.005 17.216C26.958 16.966 26.889 16.722 26.826 16.475C26.807 16.398 26.78 16.322 26.764 16.245C26.718 16.023 26.791 15.858 27.011 15.752C27.238 15.642 27.439 15.502 27.621 15.339C27.666 15.299 27.72 15.259 27.701 15.189C27.6 15.088 27.491 15.069 27.355 15.134C27.302 15.158 27.25 15.184 27.185 15.216C27.137 15.138 27.094 15.071 27.057 15.001C26.941 14.787 26.757 14.633 26.534 14.514C26.437 14.46 26.3289 14.4289 26.218 14.423C26.1675 14.4201 26.1179 14.409 26.071 14.39C26.024 14.37 25.985 14.339 26.005 14.274C26.026 14.268 26.051 14.253 26.075 14.252C26.281 14.248 26.485 14.242 26.689 14.242C26.921 14.242 27.154 14.246 27.387 14.251C27.4789 14.2592 27.571 14.2359 27.648 14.185C27.669 14.169 27.698 14.162 27.738 14.144C27.777 14.169 27.828 14.191 27.863 14.226C27.926 14.286 28 14.309 28.087 14.305C28.162 14.302 28.237 14.303 28.311 14.295C28.4452 14.2857 28.5797 14.3062 28.705 14.355C28.769 14.381 28.835 14.402 28.898 14.429C29.056 14.499 29.219 14.537 29.396 14.526C29.4982 14.5231 29.5994 14.5466 29.69 14.594C29.851 14.673 29.996 14.77 30.106 14.901C30.341 15.178 30.528 15.478 30.643 15.811C30.713 16.013 30.716 16.211 30.649 16.411C30.6291 16.4704 30.6115 16.5304 30.596 16.591C30.5598 16.7026 30.5509 16.8213 30.57 16.937C30.5891 17.0443 30.5751 17.1549 30.53 17.254C30.428 17.501 30.315 17.74 30.123 17.944C29.954 18.124 29.756 18.262 29.488 18.302C29.47 18.304 29.455 18.312 29.44 18.317C29.39 18.419 29.392 18.434 29.451 18.54L29.623 18.52C29.837 18.645 30.073 18.76 30.216 18.97L30.148 19.15L30.281 19.174C30.291 19.181 30.301 19.188 30.311 19.198C30.4461 19.3466 30.521 19.5402 30.521 19.741C30.526 19.911 30.522 20.081 30.526 20.251C30.529 20.364 30.536 20.476 30.548 20.587C30.565 20.742 30.632 20.867 30.815 20.915C30.825 20.917 30.83 20.925 30.854 20.943C30.861 20.993 30.879 21.058 30.88 21.123C30.885 21.393 30.918 21.662 30.967 21.929C30.9771 21.9742 30.9759 22.0211 30.9637 22.0657C30.9515 22.1103 30.9286 22.1513 30.897 22.185C30.855 22.233 30.81 22.285 30.847 22.368L31.071 22.406C31.1002 22.4274 31.1241 22.4551 31.1407 22.4872C31.1574 22.5193 31.1664 22.5549 31.167 22.591C31.172 22.786 31.175 22.98 31.177 23.175C31.177 23.238 31.168 23.3 31.167 23.362C31.167 23.612 31.153 23.86 31.109 24.107C31.062 24.365 31.017 24.624 30.968 24.881C30.9592 24.9305 30.9441 24.9785 30.923 25.024C30.902 25.069 30.869 25.108 30.836 25.16C30.767 25.146 30.706 25.144 30.654 25.122C30.454 25.039 30.27 24.937 30.134 24.775C30.084 24.715 30.024 24.662 29.966 24.608C29.8716 24.5202 29.7469 24.4721 29.618 24.474C29.567 24.474 29.515 24.476 29.464 24.47C29.401 24.463 29.339 24.45 29.287 24.44C29.2715 24.412 29.2629 24.3807 29.2621 24.3486C29.2612 24.3166 29.268 24.2849 29.282 24.256C29.325 24.151 29.368 24.046 29.415 23.943C29.445 23.881 29.48 23.823 29.516 23.765C29.68 23.505 29.72 23.225 29.704 22.934C29.6916 22.7014 29.6752 22.4691 29.655 22.237C29.6025 21.7164 29.4668 21.2076 29.253 20.73L29.097 20.64C29.101 20.563 29.1 20.48 29.111 20.399C29.122 20.313 29.141 20.228 29.162 20.143C29.1829 20.0656 29.186 19.9843 29.171 19.9055C29.1559 19.8267 29.1231 19.7523 29.075 19.688C28.965 19.535 28.838 19.391 28.718 19.243C28.711 19.233 28.694 19.232 28.67 19.221C28.65 19.254 28.628 19.284 28.614 19.317C28.544 19.475 28.477 19.634 28.406 19.792C28.363 19.891 28.39 19.989 28.403 20.087C28.438 20.347 28.479 20.606 28.507 20.866C28.547 21.238 28.586 21.609 28.665 21.976C28.681 22.049 28.677 22.125 28.685 22.203C28.625 22.233 28.575 22.261 28.521 22.29C28.477 22.4 28.619 22.428 28.641 22.508C28.698 22.731 28.671 22.955 28.648 23.178C28.644 23.218 28.621 23.257 28.602 23.294C28.535 23.428 28.526 23.558 28.63 23.683C28.704 23.773 28.693 23.882 28.696 23.983C28.703 24.132 28.689 24.281 28.683 24.423C28.6033 24.5166 28.5628 24.6373 28.57 24.76C28.566 24.889 28.568 25.018 28.564 25.146C28.561 25.244 28.554 25.263 28.5 25.359C28.463 25.288 28.435 25.225 28.4 25.165C28.29 24.981 28.182 24.797 28.065 24.619C27.9794 24.4954 27.8695 24.3906 27.742 24.311C27.571 24.197 27.395 24.087 27.222 23.976C27.177 23.946 27.128 23.92 27.088 23.886C27.022 23.832 26.99 23.766 27.021 23.685C27.084 23.52 27.141 23.353 27.211 23.191C27.321 22.931 27.439 22.674 27.553 22.415C27.59 22.333 27.619 22.25 27.585 22.162" fill="white"/>
<mask id="mask2_25_436" style="mask-type:alpha" maskUnits="userSpaceOnUse" x="22" y="14" width="5" height="12">
<path d="M22.317 14.1949H26.944V25.5289H22.317V14.1949Z" fill="white"/>
</mask>
<g mask="url(#mask2_25_436)">
<path fill-rule="evenodd" clip-rule="evenodd" d="M24.4 18.623C24.407 18.705 24.404 18.775 24.42 18.843C24.449 18.977 24.461 19.105 24.371 19.227C24.3512 19.2591 24.3411 19.2963 24.342 19.334C24.336 19.582 24.332 19.831 24.328 20.081C24.328 20.108 24.334 20.135 24.338 20.168C24.576 20.165 24.81 20.131 25.038 20.209L25.11 20.299C25.1128 20.2946 25.1162 20.2905 25.12 20.287L25.493 20.517L25.706 20.505C25.728 19.978 25.726 19.466 25.709 18.963L25.608 18.909L25.577 18.399L25.469 18.379C25.4358 18.3424 25.4028 18.3057 25.37 18.269C25.341 18.267 25.318 18.26 25.295 18.263C25.163 18.283 25.084 18.223 25.03 18.125C25.01 18.092 24.992 18.059 24.97 18.026C24.926 17.956 24.879 17.887 24.823 17.801C24.754 17.983 24.773 18.153 24.765 18.284L24.602 18.598L24.401 18.623H24.4ZM23.161 19.567L23.321 19.512C23.307 19.43 23.219 19.456 23.169 19.402C23.133 19.315 23.136 19.206 23.132 19.1C23.127 19.01 23.142 18.917 23.156 18.827C23.1696 18.7285 23.2174 18.6379 23.291 18.571C23.427 18.446 23.455 18.297 23.417 18.133C23.4002 18.0655 23.4091 17.9942 23.442 17.933C23.461 17.917 23.482 17.893 23.51 17.88C23.64 17.826 23.668 17.724 23.675 17.612C23.679 17.513 23.677 17.413 23.684 17.313C23.688 17.235 23.694 17.155 23.714 17.079C23.7444 16.944 23.8168 16.8221 23.921 16.731C24.007 16.659 24.04 16.574 24.001 16.472C23.965 16.376 23.994 16.295 24.056 16.215C24.1029 16.1545 24.1412 16.0879 24.17 16.017C24.218 15.89 24.284 15.771 24.364 15.659C24.396 15.614 24.424 15.566 24.454 15.519C24.4815 15.479 24.4999 15.4335 24.508 15.3857C24.5161 15.3378 24.5137 15.2888 24.501 15.242C24.494 15.214 24.494 15.185 24.491 15.156C24.477 15.05 24.525 14.97 24.623 14.913C24.655 14.895 24.685 14.876 24.718 14.86C24.846 14.796 24.9 14.7 24.878 14.57C24.871 14.5329 24.8656 14.4955 24.862 14.458C24.844 14.283 25.04 14.149 25.224 14.21C25.294 14.232 25.346 14.273 25.358 14.342C25.368 14.395 25.382 14.449 25.379 14.502C25.37 14.655 25.433 14.786 25.527 14.909C25.594 14.999 25.665 15.086 25.73 15.179C25.786 15.259 25.836 15.344 25.83 15.445C25.81 15.798 25.93 16.125 26.063 16.449C26.135 16.624 26.203 16.8 26.261 16.979C26.296 17.091 26.309 17.209 26.327 17.323C26.354 17.503 26.429 17.667 26.497 17.833L26.614 17.914C26.608 17.958 26.613 18.014 26.594 18.062C26.5716 18.1148 26.5647 18.173 26.574 18.2297C26.5834 18.2863 26.6087 18.3391 26.647 18.382C26.778 18.536 26.807 18.712 26.791 18.899C26.764 19.22 26.781 19.54 26.863 19.853C26.912 20.033 26.937 20.213 26.938 20.395C26.944 21.019 26.942 21.643 26.944 22.266C26.9413 22.3326 26.9183 22.3968 26.878 22.45C26.7617 22.6312 26.6806 22.8327 26.639 23.044C26.632 23.081 26.622 23.117 26.617 23.154C26.6122 23.1927 26.5982 23.2298 26.5761 23.262C26.554 23.2942 26.5244 23.3206 26.49 23.339C26.404 23.385 26.377 23.456 26.382 23.541L26.395 23.777C26.4023 23.8863 26.3776 23.9954 26.324 24.091C26.268 24.191 26.218 24.294 26.167 24.396C26.1152 24.488 26.0935 24.594 26.105 24.699C26.121 24.803 26.11 24.899 26.007 24.959C25.924 25.126 26.048 25.309 25.934 25.469C25.846 25.5228 25.7409 25.541 25.64 25.52C25.6174 25.449 25.6106 25.3739 25.62 25.3C25.66 25.025 25.628 24.761 25.5 24.507C25.472 24.45 25.452 24.39 25.428 24.332C25.3698 24.2154 25.3462 24.0846 25.36 23.955C25.39 23.75 25.303 23.601 25.114 23.489C25.0493 23.4492 24.9881 23.404 24.931 23.354C24.8899 23.3237 24.859 23.2817 24.8422 23.2335C24.8254 23.1853 24.8236 23.1332 24.837 23.084C24.8667 22.9585 24.9287 22.843 25.017 22.749C25.185 22.5663 25.3128 22.3503 25.392 22.115C25.428 22.017 25.454 21.915 25.477 21.815C25.514 21.652 25.454 21.52 25.307 21.42L25.241 21.374C24.916 21.161 24.551 21.016 24.179 20.854C24.146 20.897 24.119 20.936 24.09 20.975C24.11 21.01 24.12 21.038 24.138 21.061C24.178 21.113 24.182 21.169 24.172 21.228L24.142 21.4C24.122 21.514 24.165 21.603 24.271 21.67C24.347 21.717 24.42 21.767 24.477 21.805C24.538 21.97 24.394 22.11 24.234 22.123C24.146 22.13 24.056 22.133 23.969 22.12C23.6844 22.071 23.3917 22.11 23.13 22.232C22.998 22.293 22.863 22.35 22.73 22.409C22.632 22.4571 22.5206 22.4705 22.414 22.447C22.394 22.417 22.354 22.377 22.344 22.331C22.326 22.2546 22.317 22.1764 22.317 22.098C22.315 22.026 22.353 21.97 22.424 21.934L22.485 21.904C22.615 21.848 22.674 21.761 22.651 21.632L22.65 21.594C22.642 21.424 22.668 21.385 22.84 21.317C22.917 21.287 22.998 21.262 23.027 21.165C22.98 21.008 23.002 20.84 23.027 20.67C23.037 20.601 23.025 20.53 23.022 20.46C23.017 20.393 23.008 20.327 23.004 20.261C23.001 20.204 23.014 20.152 23.064 20.114C23.139 20.058 23.156 19.982 23.154 19.9C23.152 19.834 23.146 19.768 23.147 19.701C23.147 19.657 23.157 19.612 23.162 19.567" fill="white"/>
</g>
<path fill-rule="evenodd" clip-rule="evenodd" d="M13.514 23.98L13.674 24.023L13.661 24.216C13.808 24.265 13.959 24.275 14.112 24.268C14.177 24.265 14.242 24.258 14.307 24.25C14.427 24.233 14.545 24.21 14.625 24.114C14.731 23.984 14.872 23.974 15.023 24.036C15.177 24.1 15.338 24.1359 15.508 24.1359C15.6466 24.1374 15.7851 24.1274 15.922 24.1059C15.9964 24.088 16.0665 24.0554 16.128 24.01C16.2035 23.9581 16.2925 23.9293 16.384 23.927C16.696 23.919 17.008 23.903 17.319 23.901C17.944 23.898 18.566 23.9 19.19 23.901C19.348 23.901 19.506 23.911 19.657 23.917C19.736 24.012 19.732 24.106 19.724 24.202C19.709 24.392 19.692 24.582 19.678 24.772C19.674 24.835 19.681 24.8979 19.681 24.9599C19.6811 25.0371 19.7117 25.1112 19.766 25.1659C19.826 25.2329 19.886 25.302 19.892 25.389C19.859 25.439 19.808 25.439 19.765 25.439C19.365 25.441 18.964 25.439 18.551 25.439C18.5116 25.3843 18.4723 25.3297 18.433 25.275C18.383 25.279 18.331 25.275 18.284 25.288C18.2118 25.3064 18.1354 25.2979 18.069 25.264C18.049 25.254 18.026 25.247 18.007 25.236C17.824 25.134 17.622 25.1259 17.415 25.1359C17.211 25.1479 17.006 25.1459 16.801 25.1489C16.764 25.1489 16.728 25.143 16.687 25.138L16.569 24.997C16.473 24.991 16.368 24.9769 16.261 24.9769C15.791 24.9769 15.321 24.9809 14.851 24.9809C14.618 24.9809 14.385 24.981 14.152 24.974C14.079 24.9712 14.0071 24.9549 13.94 24.926C13.756 24.843 13.562 24.8379 13.367 24.8559C13.2703 24.8648 13.1791 24.9048 13.107 24.97C13.059 25.014 13.007 25.059 12.968 25.109C12.814 25.304 12.598 25.358 12.344 25.338C12.219 25.3275 12.0935 25.3224 11.968 25.323C11.894 25.323 11.822 25.343 11.757 25.353C11.7158 25.3403 11.6783 25.3177 11.6478 25.2872C11.6172 25.2567 11.5947 25.2192 11.582 25.178C11.618 25.096 11.692 25.052 11.766 25.008C11.84 24.966 11.92 24.933 11.996 24.892C12.059 24.858 12.124 24.824 12.183 24.784C12.29 24.712 12.345 24.6169 12.338 24.4939C12.332 24.3989 12.337 24.304 12.337 24.211L12.473 24.135C12.477 24.101 12.479 24.062 12.483 24.019L12.359 23.986C12.309 23.754 12.3043 23.5147 12.345 23.281L12.452 23.19V22.862L12.604 22.79C12.61 22.749 12.616 22.7 12.622 22.64L12.365 22.493C12.355 22.459 12.337 22.416 12.337 22.372C12.333 22.006 12.335 21.641 12.335 21.272L12.457 21.2C12.464 20.988 12.444 20.767 12.444 20.545L12.594 20.482C12.6 20.45 12.614 20.41 12.612 20.37C12.61 20.242 12.603 20.113 12.598 19.984L12.576 19.4639L12.692 19.383C12.74 19.255 12.74 19.2089 12.687 19.0889L12.596 19.0369C12.591 19.0269 12.582 19.016 12.581 19.004C12.574 18.884 12.561 18.764 12.563 18.644C12.565 18.436 12.578 18.2279 12.58 18.0199C12.581 17.8789 12.572 17.7389 12.568 17.6019C12.528 17.5779 12.496 17.56 12.458 17.536C12.415 17.31 12.421 17.078 12.418 16.836C12.509 16.784 12.6 16.731 12.682 16.682C12.7108 16.4792 12.7058 16.2731 12.667 16.0719C12.6167 16.0324 12.567 15.9921 12.518 15.9509C12.55 15.8889 12.565 15.823 12.608 15.78C12.731 15.658 12.734 15.518 12.712 15.37C12.7092 15.341 12.6973 15.3137 12.678 15.292L12.503 14.988C12.313 14.942 12.316 14.94 12.176 14.802C12.105 14.731 12.022 14.669 11.946 14.604C11.902 14.566 11.856 14.531 11.814 14.492C11.7919 14.472 11.7762 14.4461 11.7687 14.4173C11.7613 14.3885 11.7624 14.3581 11.772 14.3299C11.81 14.1989 11.9 14.16 12.065 14.212L12.141 14.318C12.275 14.351 12.411 14.323 12.55 14.314C12.628 14.308 12.708 14.303 12.786 14.301C12.876 14.299 12.947 14.327 12.998 14.398C13.024 14.436 13.065 14.465 13.095 14.495H13.324C13.35 14.517 13.383 14.54 13.412 14.565C13.504 14.654 13.593 14.744 13.686 14.831C13.7234 14.866 13.7533 14.9083 13.7739 14.9552C13.7945 15.0021 13.8055 15.0527 13.806 15.104C13.814 15.336 13.808 15.5679 13.808 15.8039C13.7752 15.8195 13.7425 15.8355 13.71 15.8519C13.66 15.9399 13.694 16.0209 13.742 16.1019L13.852 16.151C13.914 16.207 13.931 16.3939 13.889 16.5929L13.785 16.642C13.779 16.652 13.77 16.6639 13.77 16.6749C13.751 17.1199 13.713 17.564 13.75 18.008C13.765 18.17 13.778 18.332 13.785 18.493C13.788 18.57 13.815 18.6319 13.885 18.6749C13.979 18.7309 14.005 18.8089 14.015 18.9079C14.065 19.4069 14.022 19.904 13.993 20.402C13.991 20.444 13.987 20.485 13.988 20.527C13.9879 20.6359 13.9618 20.7431 13.912 20.84C13.8904 20.8935 13.8779 20.9503 13.875 21.008C13.868 21.078 13.875 21.148 13.875 21.22C13.875 21.408 13.873 21.408 14.012 21.548L14.047 22.0109C13.952 22.1189 13.75 22.167 13.824 22.361L13.898 22.415C13.9186 22.449 13.9283 22.4885 13.9258 22.5282C13.9233 22.5678 13.9087 22.6058 13.884 22.637L13.754 22.706L13.804 23.116L13.692 23.1789C13.638 23.3939 13.745 23.607 13.676 23.814C13.626 23.864 13.579 23.9139 13.514 23.9809V23.98ZM21.258 18.437L21.413 18.314C21.413 18.235 21.423 18.156 21.411 18.079C21.4007 18.0202 21.4064 17.9598 21.4275 17.904C21.4486 17.8482 21.4844 17.7991 21.531 17.762C21.561 17.736 21.587 17.708 21.616 17.68C21.6513 17.6489 21.6794 17.6105 21.6984 17.5675C21.7174 17.5245 21.7268 17.4779 21.726 17.431V17.381C21.701 17.121 21.793 16.882 21.915 16.651C22.0116 16.4546 22.1314 16.2706 22.272 16.103C22.38 15.9816 22.4434 15.8272 22.452 15.665C22.458 15.591 22.471 15.5169 22.48 15.4469C22.432 15.3779 22.363 15.3929 22.301 15.3989C22.236 15.4059 22.174 15.423 22.11 15.436C22.05 15.448 21.99 15.449 21.933 15.409C21.896 15.3599 21.8593 15.3105 21.823 15.2609C21.716 15.2609 21.618 15.253 21.523 15.263C21.4489 15.2676 21.3778 15.2937 21.3183 15.3381C21.2588 15.3825 21.2135 15.4432 21.188 15.513C21.1085 15.6973 21.0609 15.8937 21.047 16.094C21.043 16.222 21.017 16.349 20.993 16.476C20.9897 16.5062 20.9793 16.5351 20.9629 16.5607C20.9464 16.5862 20.9242 16.6075 20.898 16.6229C20.764 16.6959 20.628 16.765 20.485 16.84L20.378 16.807C20.3387 16.7486 20.3239 16.6771 20.337 16.608C20.3564 16.4885 20.351 16.3663 20.321 16.249C20.312 16.207 20.321 16.1619 20.321 16.1189C20.366 16.0989 20.403 16.083 20.451 16.064C20.455 16.02 20.464 15.976 20.462 15.931C20.459 15.599 20.452 15.2669 20.447 14.9339C20.4433 14.7843 20.4417 14.6346 20.442 14.4849C20.443 14.4429 20.465 14.3999 20.477 14.3519C20.539 14.3489 20.589 14.344 20.639 14.344C20.862 14.344 21.086 14.344 21.31 14.342L23.824 14.328C23.893 14.328 23.964 14.338 24.03 14.353C24.121 14.375 24.16 14.43 24.145 14.513C24.1372 14.5712 24.1204 14.6279 24.095 14.681C24.02 14.827 23.949 14.9779 23.815 15.0929C23.735 15.1609 23.716 15.251 23.712 15.344C23.708 15.418 23.709 15.494 23.706 15.568C23.7058 15.6096 23.6923 15.6501 23.6674 15.6835C23.6426 15.717 23.6078 15.7416 23.568 15.754C23.547 15.764 23.528 15.775 23.507 15.784C23.418 15.819 23.386 15.882 23.389 15.965C23.392 16.031 23.401 16.098 23.4 16.165C23.399 16.211 23.384 16.258 23.378 16.302L23.202 16.35C23.137 16.444 23.137 16.55 23.124 16.651C23.117 16.709 23.12 16.7679 23.116 16.8259C23.1128 16.9736 23.0673 17.1173 22.985 17.2399C22.9238 17.3317 22.894 17.4408 22.9 17.551C22.9 17.705 22.91 17.858 22.914 18.012C22.916 18.132 22.917 18.2529 22.921 18.3729C22.921 18.4408 22.8981 18.5067 22.856 18.56C22.8223 18.6084 22.7954 18.6612 22.776 18.717C22.738 18.832 22.706 18.949 22.673 19.065C22.655 19.1497 22.6084 19.2256 22.541 19.28C22.518 19.298 22.501 19.325 22.475 19.358C22.48 19.416 22.476 19.484 22.491 19.548C22.514 19.654 22.474 19.735 22.388 19.803C22.37 19.817 22.354 19.8329 22.334 19.8429C22.196 19.9179 22.148 20.0369 22.146 20.1709C22.145 20.3289 22.154 20.4859 22.158 20.6449C22.161 20.8109 22.168 20.977 22.167 21.143C22.1635 21.2494 22.1248 21.3517 22.057 21.4339C21.9931 21.5174 21.9468 21.6131 21.9211 21.715C21.8953 21.817 21.8905 21.9231 21.907 22.027C21.9431 22.2796 21.8804 22.5363 21.732 22.7439C21.6476 22.8607 21.5812 22.9895 21.535 23.126C21.51 23.209 21.455 23.286 21.412 23.363C21.374 23.433 21.355 23.503 21.404 23.573C21.614 23.638 21.964 23.62 22.138 23.531V23.312C22.191 23.277 22.235 23.2389 22.287 23.2139C22.41 23.1559 22.537 23.104 22.662 23.051C22.897 22.952 23.135 22.855 23.37 22.756C23.48 22.709 23.578 22.6489 23.628 22.5409C23.642 22.5109 23.68 22.487 23.713 22.456L23.815 22.568C24.014 22.615 24.217 22.508 24.405 22.591C24.4666 22.69 24.4924 22.8072 24.478 22.923L24.364 22.958C24.359 22.97 24.351 22.981 24.349 22.993C24.3384 23.0401 24.3376 23.0889 24.3465 23.1363C24.3554 23.1838 24.374 23.2289 24.401 23.269C24.4187 23.2923 24.4301 23.3199 24.434 23.349C24.47 23.66 24.479 23.971 24.434 24.282C24.418 24.388 24.368 24.422 24.247 24.422L22.962 24.432H22.859L22.794 24.334C22.636 24.2818 22.467 24.2721 22.304 24.306C22.2506 24.3159 22.2009 24.3401 22.16 24.376C22.062 24.4605 21.9354 24.5045 21.806 24.499C21.657 24.503 21.508 24.5029 21.36 24.5029C21.1844 24.4943 21.0094 24.5286 20.85 24.603C20.766 24.645 20.655 24.654 20.555 24.663C20.518 24.668 20.4802 24.6639 20.4451 24.6512C20.4099 24.6385 20.3783 24.6175 20.353 24.59C20.299 24.382 20.32 24.161 20.352 23.937L20.488 23.9039L20.558 23.724L20.465 23.67C20.438 23.561 20.46 23.513 20.56 23.467C20.718 23.395 20.723 23.381 20.699 23.225C20.689 23.172 20.691 23.1189 20.688 23.0589L20.816 23.047C20.821 23.005 20.829 22.9609 20.83 22.917C20.83 22.83 20.826 22.743 20.826 22.655C20.826 22.593 20.824 22.531 20.866 22.476C20.882 22.457 20.886 22.429 20.886 22.406C20.896 22.28 20.908 22.156 20.907 22.032C20.9101 21.939 20.8857 21.8472 20.837 21.768C20.7786 21.6802 20.7419 21.5798 20.73 21.475C20.679 21.048 20.656 20.621 20.745 20.196C20.804 19.914 20.928 19.6479 21.044 19.3819C21.104 19.2429 21.158 19.102 21.268 18.983C21.299 18.949 21.312 18.901 21.332 18.859C21.3544 18.8179 21.3629 18.7706 21.3562 18.7243C21.3495 18.678 21.3281 18.6351 21.295 18.6019C21.256 18.5579 21.226 18.512 21.258 18.437Z" fill="white"/>
<path fill-rule="evenodd" clip-rule="evenodd" d="M19.4201 15.066L18.3721 15.09C18.2892 15.0914 18.2093 15.1206 18.1451 15.173C18.0571 15.246 17.9651 15.318 17.8871 15.4C17.8001 15.493 17.7311 15.596 17.7471 15.73C17.7521 15.763 17.732 15.8 17.718 15.847L17.5231 15.825C17.4321 15.855 17.3851 15.932 17.3681 16.02C17.3555 16.102 17.3508 16.1851 17.3541 16.268C17.3541 16.405 17.3621 16.542 17.3641 16.679C17.3641 16.729 17.3551 16.777 17.3521 16.822L17.2291 16.912L17.257 17.084C17.169 17.129 17.0961 17.112 17.0091 17.09C17.0091 17.046 17.0011 17.005 17.0101 16.966C17.0184 16.9357 17.0196 16.9038 17.0135 16.8729C17.0075 16.842 16.9943 16.8129 16.9751 16.788C16.9265 16.7187 16.8962 16.6382 16.8871 16.554C16.8761 16.48 16.8591 16.407 16.8451 16.334C16.8281 16.254 16.8191 16.177 16.8721 16.105C16.8814 16.0909 16.8872 16.0748 16.8891 16.058C16.9021 15.893 16.9111 15.728 16.8371 15.566C16.7928 15.5502 16.7485 15.5345 16.7041 15.519C16.7011 15.484 16.6971 15.451 16.6971 15.419C16.6971 15.177 16.6961 14.937 16.6981 14.695C16.6981 14.655 16.7081 14.613 16.7171 14.573C16.7351 14.494 16.7931 14.453 16.8781 14.437C16.9146 14.4302 16.9518 14.4268 16.9891 14.427C17.9111 14.427 18.8331 14.428 19.7531 14.43C19.7711 14.43 19.7901 14.433 19.8191 14.436C19.8731 14.617 19.8011 14.798 19.8291 14.987L19.9311 15.053C19.9891 15.634 19.9351 16.21 19.9151 16.783L19.8271 16.887C19.8271 16.957 19.8241 17.037 19.8281 17.114C19.8354 17.2413 19.7975 17.367 19.7211 17.469C19.6911 17.511 19.664 17.555 19.632 17.596C19.5536 17.6964 19.4974 17.8123 19.4671 17.936C19.4412 18.0481 19.3906 18.153 19.3191 18.243C19.2398 18.3379 19.2001 18.4596 19.2081 18.583C19.2111 18.645 19.2091 18.707 19.2081 18.769C19.2084 18.8355 19.1866 18.9003 19.1461 18.953C19.0951 18.957 19.0411 18.963 18.9701 18.968C18.9271 18.999 18.8701 19.036 18.8201 19.078C18.7664 19.1168 18.7253 19.1703 18.7017 19.2322C18.678 19.294 18.673 19.3613 18.6871 19.426C18.6981 19.496 18.7021 19.566 18.7041 19.637C18.7041 19.664 18.6891 19.691 18.6811 19.719L18.5181 19.765C18.4007 19.913 18.3039 20.0761 18.2301 20.25C18.1041 20.553 17.9811 20.858 17.8621 21.163C17.6701 21.653 17.4831 22.143 17.2951 22.633C17.2851 22.657 17.2781 22.681 17.2681 22.704C17.2361 22.775 17.2521 22.834 17.3201 22.877C17.4061 22.895 17.4741 22.859 17.5301 22.819C17.7301 22.676 17.9601 22.594 18.2081 22.543C18.285 22.5287 18.3574 22.4964 18.4194 22.4488C18.4815 22.4012 18.5314 22.3396 18.5651 22.269C18.5801 22.239 18.5991 22.21 18.6131 22.179C18.6758 22.0468 18.783 21.9409 18.916 21.88C18.997 21.84 19.0761 21.797 19.1561 21.753C19.2581 21.694 19.3401 21.625 19.3091 21.499C19.3011 21.47 19.3191 21.435 19.3221 21.415C19.3801 21.358 19.4371 21.365 19.5001 21.375C19.5741 21.387 19.6511 21.425 19.7341 21.371L19.7131 21.223H19.8371L19.8721 20.975C19.9258 20.9592 19.9824 20.9561 20.0375 20.9662C20.0925 20.9763 20.1445 20.9992 20.1891 21.033L20.2171 21.473C20.1291 21.606 20.0471 21.717 19.9781 21.834C19.9509 21.8808 19.9365 21.9339 19.9361 21.988C19.9371 22.241 19.9471 22.495 19.9471 22.748C19.9471 22.91 19.9371 23.072 19.9301 23.233C19.9301 23.244 19.9181 23.255 19.9051 23.278H19.6551L19.6151 23.436C19.5881 23.441 19.5571 23.45 19.5261 23.45C19.1591 23.45 18.7911 23.448 18.4231 23.445C18.4151 23.445 18.4071 23.439 18.3901 23.432L18.369 23.315C18.3174 23.2991 18.263 23.2947 18.2094 23.3019C18.1559 23.3092 18.1046 23.328 18.0591 23.357L17.9761 23.515H17.6731L17.5311 23.325C17.4431 23.323 17.3511 23.316 17.2591 23.32C17.1341 23.325 17.0091 23.341 16.8841 23.348C16.8111 23.351 16.737 23.344 16.679 23.342C16.599 23.275 16.6091 23.202 16.5901 23.132L16.7161 23.054C16.7831 22.859 16.7111 22.647 16.7641 22.437L16.8771 22.369C16.9201 22.297 16.9371 22.224 16.8701 22.145C16.8202 22.128 16.7702 22.1113 16.7201 22.095C16.6461 22.043 16.6241 21.976 16.6451 21.887L16.8091 21.773C16.7891 21.659 16.6891 21.596 16.6421 21.506C16.6221 21.336 16.6651 21.168 16.7001 21.001C16.7581 20.724 16.8271 20.448 16.8881 20.171C16.9146 20.0414 16.9769 19.9219 17.0681 19.826L17.1651 19.719C17.261 19.6209 17.3299 19.4997 17.3651 19.367C17.3766 19.3227 17.3913 19.2792 17.4091 19.237C17.4691 19.081 17.536 18.929 17.722 18.879C17.787 18.813 17.7851 18.747 17.7811 18.68C17.7601 18.302 17.9221 17.974 18.1381 17.664C18.1781 17.609 18.2391 17.566 18.2951 17.524C18.4584 17.3928 18.5963 17.2328 18.7021 17.052C18.7327 17.0066 18.7528 16.9549 18.7607 16.9008C18.7687 16.8466 18.7644 16.7913 18.748 16.739C18.736 16.699 18.7331 16.657 18.7281 16.616C18.7224 16.5826 18.7249 16.5484 18.7354 16.5162C18.7458 16.4839 18.7639 16.4547 18.7881 16.431C18.8421 16.374 18.8971 16.317 18.9491 16.259C19.0861 16.109 19.2251 15.957 19.3581 15.802C19.3998 15.7542 19.4311 15.6982 19.45 15.6376C19.469 15.577 19.4751 15.5131 19.468 15.45C19.462 15.372 19.4631 15.293 19.4541 15.214C19.4501 15.167 19.4331 15.12 19.4201 15.066ZM14.05 14.591C14.0701 14.5542 14.0997 14.5236 14.1359 14.5025C14.172 14.4813 14.2132 14.4705 14.2551 14.471C14.4271 14.465 14.5991 14.465 14.7711 14.466C15.0541 14.469 15.3381 14.477 15.6211 14.481C15.7431 14.483 15.864 14.477 15.985 14.481C16.035 14.483 16.0881 14.49 16.1341 14.507C16.2011 14.531 16.2271 14.587 16.2121 14.651C16.2041 14.683 16.1921 14.714 16.1801 14.746C16.1541 14.819 16.1011 14.862 16.0151 14.883C15.8181 14.93 15.6811 15.093 15.6821 15.275V15.365C15.7171 15.394 15.7541 15.42 15.7841 15.451C15.8101 15.478 15.8291 15.511 15.8461 15.535C15.8311 15.65 15.7291 15.705 15.6801 15.795V15.939C15.6821 16.175 15.6841 16.412 15.6891 16.649C15.6981 17.256 15.7071 17.863 15.7211 18.469C15.7231 18.549 15.7511 18.632 15.7711 18.713C15.8141 18.902 15.8021 18.927 15.6141 19.023C15.5691 19.483 15.6561 19.939 15.7191 20.397L15.5221 20.591V20.779L15.5961 20.881C15.6001 20.994 15.5991 21.11 15.6121 21.226C15.6201 21.303 15.6491 21.378 15.6671 21.454C15.6821 21.514 15.7071 21.574 15.7081 21.634C15.7141 21.813 15.7101 21.991 15.7101 22.177C15.6611 22.242 15.6101 22.311 15.5491 22.39L15.6071 22.782L15.8271 22.906C15.9621 22.98 16.1001 23.05 16.2331 23.125C16.2753 23.147 16.3101 23.1811 16.3329 23.223C16.3557 23.2649 16.3655 23.3125 16.3611 23.36C16.3561 23.454 16.3041 23.493 16.1991 23.486C16.1561 23.483 16.1131 23.481 16.0741 23.471C15.9985 23.4514 15.9184 23.4592 15.8481 23.493C15.8351 23.491 15.823 23.492 15.817 23.488C15.633 23.377 15.4271 23.398 15.2231 23.41C15.1071 23.417 14.9931 23.44 14.8761 23.443C14.8262 23.4439 14.777 23.4547 14.7313 23.4748C14.6856 23.4949 14.6444 23.5238 14.61 23.56C14.5711 23.5961 14.5289 23.6286 14.4841 23.657C14.4591 23.673 14.4241 23.675 14.4001 23.681C14.2581 23.568 14.2431 23.471 14.3641 23.357C14.4581 23.267 14.5691 23.19 14.7201 23.071C14.7919 22.969 14.8271 22.8456 14.8201 22.721C14.8141 22.498 14.824 22.274 14.83 22.049C14.832 21.908 14.8201 21.764 14.9491 21.644L14.8251 21.511C14.8251 21.421 14.8211 21.325 14.8271 21.23C14.8316 21.1803 14.8441 21.1317 14.8641 21.086C14.9069 20.9862 14.9284 20.8786 14.9271 20.77C14.9171 19.926 14.9071 19.082 14.8951 18.239C14.8891 17.748 14.881 17.258 14.869 16.768C14.857 16.228 14.8331 15.688 14.8291 15.148C14.8271 14.993 14.6981 14.876 14.5381 14.874C14.3952 14.866 14.2579 14.8162 14.1431 14.731C14.0851 14.693 14.083 14.686 14.05 14.591Z" fill="white"/>
</g>
<defs>
<clipPath id="clip0_25_436">
<rect width="40" height="40" fill="white"/>
</clipPath>
</defs>
</svg>
