<svg width="40" height="40" viewBox="0 0 40 40" fill="none" xmlns="http://www.w3.org/2000/svg">
<circle cx="20" cy="20" r="20" fill="#FF005B"/>
<path fill-rule="evenodd" clip-rule="evenodd" d="M27.0112 10.3408L25.7354 11.6176L27.3906 13.2739L25.1837 15.4823L24.2527 14.5507L25.5285 13.2739L23.8734 11.6176L24.8044 10.6859L26.0802 9.40918L27.0112 10.3408ZM27.4909 22.4079C27.4909 21.7523 28.0426 21.2002 28.6978 21.2002C29.353 21.2002 29.9047 21.7523 29.8701 22.4079C29.8701 23.0636 29.353 23.5812 28.6978 23.5812C28.0082 23.5812 27.4909 23.0636 27.4909 22.4079ZM26.1805 22.4079C26.1805 23.7883 27.3184 24.8925 28.6978 24.8925C30.0771 24.8925 31.2151 23.7883 31.1805 22.4079C31.1805 21.0277 30.0771 19.9235 28.6978 19.9235C27.3184 19.9235 26.1805 21.0277 26.1805 22.4079ZM19.7114 26.8722H18.4011V31.358H19.7114V26.8722ZM20.2975 26.8722H21.6079V31.358H20.2975V26.8722ZM11.2113 22.3964L11.832 23.4662H10.5905L11.2113 22.3964ZM11.2113 19.912L8.4527 24.6739H13.9699L11.2113 19.912ZM16.0316 9.89209L16.9626 10.8238L15.3764 12.4111L16.9626 13.9984L16.0316 14.9301L14.4454 13.3428L12.8591 14.9301L11.9281 13.9984L13.5143 12.4111L11.9281 10.8238L12.8591 9.89209L14.4454 11.4794L16.0316 9.89209Z" fill="#F6FAFF"/>
</svg>
