<svg width="40" height="41" viewBox="0 0 40 41" fill="none" xmlns="http://www.w3.org/2000/svg">
<g clip-path="url(#clip0_25_1706)">
<path d="M20 40.5C31.0457 40.5 40 31.5457 40 20.5C40 9.45433 31.0457 0.5 20 0.5C8.95433 0.5 0 9.45433 0 20.5C0 31.5457 8.95433 40.5 20 40.5Z" fill="#FF0000"/>
<path fill-rule="evenodd" clip-rule="evenodd" d="M19.9559 21.9787L16.4586 29.8333H13.9072L17.7486 21.434C16.8503 20.9753 16.1241 20.3017 15.5699 19.413C15.0156 18.5243 14.7386 17.3156 14.7386 15.7867C14.7386 14.7164 14.8962 13.7753 15.2116 12.963C15.5269 12.1508 15.9569 11.4771 16.5016 10.942C17.0462 10.4069 17.6816 10.0056 18.4079 9.738C19.1341 9.47042 19.8986 9.33667 20.7012 9.33667H23.9979V29.8333H21.7906V21.9787H19.9559ZM21.7906 11.2H20.6152C20.1756 11.2 19.7456 11.2813 19.3252 11.4437C18.9047 11.6061 18.5321 11.8641 18.2072 12.2177C17.8823 12.5713 17.6196 13.0394 17.4189 13.6223C17.2182 14.2053 17.1179 14.9267 17.1179 15.7867C17.1179 16.6084 17.2086 17.2964 17.3902 17.8507C17.5717 18.4049 17.8202 18.854 18.1356 19.198C18.4509 19.542 18.8236 19.7857 19.2536 19.929C19.6836 20.0723 20.1374 20.144 20.6152 20.144H21.7906V11.2Z" fill="white"/>
</g>
<defs>
<clipPath id="clip0_25_1706">
<rect width="40" height="40" fill="white" transform="translate(0 0.5)"/>
</clipPath>
</defs>
</svg>
