<svg width="40" height="40" viewBox="0 0 40 40" fill="none" xmlns="http://www.w3.org/2000/svg">
<g clip-path="url(#clip0_25_3083)">
<path d="M20 0C31.0667 0 40 8.93333 40 20C40 31.0667 31.0667 40 20 40C8.93333 40 0 31.0667 0 20C0 8.93333 8.93333 0 20 0Z" fill="black"/>
<path d="M18.4 8H21.6C23 8 24.2 9.06667 24.2 10.4V15.1333C24.2 15.4667 24.4667 15.8 24.8667 15.8H29.6C30.9333 15.8 32 16.9333 32 18.4V21.6C32 23 30.9333 24.2 29.6 24.2H24.8667C24.5333 24.2 24.2 24.4667 24.2 24.8667V29.6C24.2 30.9333 23.0667 32 21.6 32H18.4C17 32 15.8 30.9333 15.8 29.6V24.8667C15.8 24.5333 15.5333 24.2 15.1333 24.2H10.4C9.06667 24.2 8 23.0667 8 21.6V18.4C8 17.7333 8.2 17.1333 8.6 16.6667L8.93333 16.3333L16.3333 8.93333C16.8 8.33333 17.5333 8 18.4 8Z" fill="white"/>
<path d="M18.0666 12.5333L19.8666 10.4L21.6666 12.5333H18.0666ZM27.6666 18.2L29.7999 20L27.6666 21.8V18.2ZM18.0666 27.8L19.8666 29.8667L21.6666 27.8H18.0666ZM12.3999 18.2L10.2666 20L12.3999 21.8V18.2Z" fill="black"/>
</g>
<defs>
<clipPath id="clip0_25_3083">
<rect width="40" height="40" fill="white"/>
</clipPath>
</defs>
</svg>
